<?xml version="1.0" standalone="no"?>
 <!DOCTYPE svg PUBLIC "-//W3C//DTD SVG 1.1//EN" 
 "http://www.w3.org/Graphics/SVG/1.1/DTD/svg11.dtd"> 
<svg
  xmlns:svg="http://www.w3.org/2000/svg"
  xmlns="http://www.w3.org/2000/svg"
  xmlns:xlink="http://www.w3.org/1999/xlink"
  version="1.1"
  width="29.700220cm" height="21.000720cm" viewBox="0 0 116930 82680">
<title>SVG Picture created as bikepixel rear-F_Fab.svg date 2021/06/14 21:52:06 </title>
  <desc>Picture generated by PCBNEW </desc>
<g style="fill:#000000; fill-opacity:1;stroke:#000000; stroke-opacity:1;
stroke-linecap:round; stroke-linejoin:round;"
 transform="translate(0 0) scale(1 1)">
</g>
<g style="fill:#000000; fill-opacity:0.0; 
stroke:#000000; stroke-width:-0.000393701; stroke-opacity:1; 
stroke-linecap:round; stroke-linejoin:round;">
</g>
<g style="fill:#000000; fill-opacity:0.0; 
stroke:#000000; stroke-width:40; stroke-opacity:1; 
stroke-linecap:round; stroke-linejoin:round;">
</g>
<g style="fill:#000000; fill-opacity:0.0; 
stroke:#000000; stroke-width:59.0551; stroke-opacity:1; 
stroke-linecap:round; stroke-linejoin:round;">
<rect x="69685.9" y="65357.2" width="42519.7" height="12598.4" rx="0" />
</g>
<g style="fill:#000000; fill-opacity:0.0; 
stroke:#000000; stroke-width:40; stroke-opacity:1; 
stroke-linecap:round; stroke-linejoin:round;">
</g>
<g style="fill:#000000; fill-opacity:0.0; 
stroke:#000000; stroke-width:59.0551; stroke-opacity:1; 
stroke-linecap:round; stroke-linejoin:round;">
<rect x="3937.01" y="3937.01" width="109056" height="74806" rx="0" />
</g>
<g style="fill:#000000; fill-opacity:0.0; 
stroke:#000000; stroke-width:40; stroke-opacity:1; 
stroke-linecap:round; stroke-linejoin:round;">
</g>
<g style="fill:#000000; fill-opacity:0.0; 
stroke:#000000; stroke-width:59.0551; stroke-opacity:1; 
stroke-linecap:round; stroke-linejoin:round;">
<rect x="4724.41" y="4724.41" width="107481" height="73231.2" rx="0" />
</g>
<g style="fill:#000000; fill-opacity:0.0; 
stroke:#000000; stroke-width:40; stroke-opacity:1; 
stroke-linecap:round; stroke-linejoin:round;">
</g>
<g style="fill:#000000; fill-opacity:0.0; 
stroke:#000000; stroke-width:59.0551; stroke-opacity:1; 
stroke-linecap:round; stroke-linejoin:round;">
<path d="M23622 4724
L23622 3937
" />
</g>
<g style="fill:#000000; fill-opacity:0.0; 
stroke:#000000; stroke-width:40; stroke-opacity:1; 
stroke-linecap:round; stroke-linejoin:round;">
</g>
<g style="fill:#000000; fill-opacity:0.0; 
stroke:#000000; stroke-width:59.0551; stroke-opacity:1; 
stroke-linecap:round; stroke-linejoin:round;">
<path d="M43307 4724
L43307 3937
" />
</g>
<g style="fill:#000000; fill-opacity:0.0; 
stroke:#000000; stroke-width:40; stroke-opacity:1; 
stroke-linecap:round; stroke-linejoin:round;">
</g>
<g style="fill:#000000; fill-opacity:0.0; 
stroke:#000000; stroke-width:59.0551; stroke-opacity:1; 
stroke-linecap:round; stroke-linejoin:round;">
<path d="M62992 4724
L62992 3937
" />
</g>
<g style="fill:#000000; fill-opacity:0.0; 
stroke:#000000; stroke-width:40; stroke-opacity:1; 
stroke-linecap:round; stroke-linejoin:round;">
</g>
<g style="fill:#000000; fill-opacity:0.0; 
stroke:#000000; stroke-width:59.0551; stroke-opacity:1; 
stroke-linecap:round; stroke-linejoin:round;">
<path d="M82677 4724
L82677 3937
" />
</g>
<g style="fill:#000000; fill-opacity:0.0; 
stroke:#000000; stroke-width:40; stroke-opacity:1; 
stroke-linecap:round; stroke-linejoin:round;">
</g>
<g style="fill:#000000; fill-opacity:0.0; 
stroke:#000000; stroke-width:59.0551; stroke-opacity:1; 
stroke-linecap:round; stroke-linejoin:round;">
<path d="M102362 4724
L102362 3937
" />
</g>
<g style="fill:#000000; fill-opacity:0.0; 
stroke:#000000; stroke-width:40; stroke-opacity:1; 
stroke-linecap:round; stroke-linejoin:round;">
</g>
<g style="fill:#000000; fill-opacity:0.0; 
stroke:#000000; stroke-width:59.0551; stroke-opacity:1; 
stroke-linecap:round; stroke-linejoin:round;">
<text x="13779.5" y="4586.61"
textLength="546.494" font-size="682.415" lengthAdjust="spacingAndGlyphs"
text-anchor="start" opacity="0">1</text>
<path d="M14199 4562
L13906 4562
" />
<path d="M14052 4562
L14052 4050
L14004 4123
L13955 4172
L13906 4196
" />
</g>
<g style="fill:#000000; fill-opacity:0.0; 
stroke:#000000; stroke-width:40; stroke-opacity:1; 
stroke-linecap:round; stroke-linejoin:round;">
</g>
<g style="fill:#000000; fill-opacity:0.0; 
stroke:#000000; stroke-width:59.0551; stroke-opacity:1; 
stroke-linecap:round; stroke-linejoin:round;">
<text x="33464.6" y="4586.61"
textLength="546.494" font-size="682.415" lengthAdjust="spacingAndGlyphs"
text-anchor="start" opacity="0">2</text>
<path d="M33591 4099
L33615 4074
L33664 4050
L33786 4050
L33835 4074
L33859 4099
L33884 4147
L33884 4196
L33859 4269
L33567 4562
L33884 4562
" />
</g>
<g style="fill:#000000; fill-opacity:0.0; 
stroke:#000000; stroke-width:40; stroke-opacity:1; 
stroke-linecap:round; stroke-linejoin:round;">
</g>
<g style="fill:#000000; fill-opacity:0.0; 
stroke:#000000; stroke-width:59.0551; stroke-opacity:1; 
stroke-linecap:round; stroke-linejoin:round;">
<text x="53149.6" y="4586.61"
textLength="546.494" font-size="682.415" lengthAdjust="spacingAndGlyphs"
text-anchor="start" opacity="0">3</text>
<path d="M53252 4050
L53569 4050
L53398 4245
L53471 4245
L53520 4269
L53544 4294
L53569 4342
L53569 4464
L53544 4513
L53520 4537
L53471 4562
L53325 4562
L53276 4537
L53252 4513
" />
</g>
<g style="fill:#000000; fill-opacity:0.0; 
stroke:#000000; stroke-width:40; stroke-opacity:1; 
stroke-linecap:round; stroke-linejoin:round;">
</g>
<g style="fill:#000000; fill-opacity:0.0; 
stroke:#000000; stroke-width:59.0551; stroke-opacity:1; 
stroke-linecap:round; stroke-linejoin:round;">
<text x="72834.6" y="4586.61"
textLength="546.494" font-size="682.415" lengthAdjust="spacingAndGlyphs"
text-anchor="start" opacity="0">4</text>
<path d="M73205 4221
L73205 4562
" />
<path d="M73083 4026
L72961 4391
L73278 4391
" />
</g>
<g style="fill:#000000; fill-opacity:0.0; 
stroke:#000000; stroke-width:40; stroke-opacity:1; 
stroke-linecap:round; stroke-linejoin:round;">
</g>
<g style="fill:#000000; fill-opacity:0.0; 
stroke:#000000; stroke-width:59.0551; stroke-opacity:1; 
stroke-linecap:round; stroke-linejoin:round;">
<text x="92519.7" y="4586.61"
textLength="546.494" font-size="682.415" lengthAdjust="spacingAndGlyphs"
text-anchor="start" opacity="0">5</text>
<path d="M92914 4050
L92671 4050
L92646 4294
L92671 4269
L92719 4245
L92841 4245
L92890 4269
L92914 4294
L92939 4342
L92939 4464
L92914 4513
L92890 4537
L92841 4562
L92719 4562
L92671 4537
L92646 4513
" />
</g>
<g style="fill:#000000; fill-opacity:0.0; 
stroke:#000000; stroke-width:40; stroke-opacity:1; 
stroke-linecap:round; stroke-linejoin:round;">
</g>
<g style="fill:#000000; fill-opacity:0.0; 
stroke:#000000; stroke-width:59.0551; stroke-opacity:1; 
stroke-linecap:round; stroke-linejoin:round;">
<text x="112205" y="4586.61"
textLength="546.494" font-size="682.415" lengthAdjust="spacingAndGlyphs"
text-anchor="start" opacity="0">6</text>
<path d="M112575 4050
L112477 4050
L112429 4074
L112404 4099
L112356 4172
L112331 4269
L112331 4464
L112356 4513
L112380 4537
L112429 4562
L112526 4562
L112575 4537
L112599 4513
L112624 4464
L112624 4342
L112599 4294
L112575 4269
L112526 4245
L112429 4245
L112380 4269
L112356 4294
L112331 4342
" />
</g>
<g style="fill:#000000; fill-opacity:0.0; 
stroke:#000000; stroke-width:40; stroke-opacity:1; 
stroke-linecap:round; stroke-linejoin:round;">
</g>
<g style="fill:#000000; fill-opacity:0.0; 
stroke:#000000; stroke-width:59.0551; stroke-opacity:1; 
stroke-linecap:round; stroke-linejoin:round;">
<path d="M23622 77955
L23622 78742
" />
</g>
<g style="fill:#000000; fill-opacity:0.0; 
stroke:#000000; stroke-width:40; stroke-opacity:1; 
stroke-linecap:round; stroke-linejoin:round;">
</g>
<g style="fill:#000000; fill-opacity:0.0; 
stroke:#000000; stroke-width:59.0551; stroke-opacity:1; 
stroke-linecap:round; stroke-linejoin:round;">
<path d="M43307 77955
L43307 78742
" />
</g>
<g style="fill:#000000; fill-opacity:0.0; 
stroke:#000000; stroke-width:40; stroke-opacity:1; 
stroke-linecap:round; stroke-linejoin:round;">
</g>
<g style="fill:#000000; fill-opacity:0.0; 
stroke:#000000; stroke-width:59.0551; stroke-opacity:1; 
stroke-linecap:round; stroke-linejoin:round;">
<path d="M62992 77955
L62992 78742
" />
</g>
<g style="fill:#000000; fill-opacity:0.0; 
stroke:#000000; stroke-width:40; stroke-opacity:1; 
stroke-linecap:round; stroke-linejoin:round;">
</g>
<g style="fill:#000000; fill-opacity:0.0; 
stroke:#000000; stroke-width:59.0551; stroke-opacity:1; 
stroke-linecap:round; stroke-linejoin:round;">
<path d="M82677 77955
L82677 78742
" />
</g>
<g style="fill:#000000; fill-opacity:0.0; 
stroke:#000000; stroke-width:40; stroke-opacity:1; 
stroke-linecap:round; stroke-linejoin:round;">
</g>
<g style="fill:#000000; fill-opacity:0.0; 
stroke:#000000; stroke-width:59.0551; stroke-opacity:1; 
stroke-linecap:round; stroke-linejoin:round;">
<path d="M102362 77955
L102362 78742
" />
</g>
<g style="fill:#000000; fill-opacity:0.0; 
stroke:#000000; stroke-width:40; stroke-opacity:1; 
stroke-linecap:round; stroke-linejoin:round;">
</g>
<g style="fill:#000000; fill-opacity:0.0; 
stroke:#000000; stroke-width:59.0551; stroke-opacity:1; 
stroke-linecap:round; stroke-linejoin:round;">
<text x="13779.5" y="78605.2"
textLength="546.494" font-size="682.415" lengthAdjust="spacingAndGlyphs"
text-anchor="start" opacity="0">1</text>
<path d="M14199 78580
L13906 78580
" />
<path d="M14052 78580
L14052 78069
L14004 78142
L13955 78190
L13906 78215
" />
</g>
<g style="fill:#000000; fill-opacity:0.0; 
stroke:#000000; stroke-width:40; stroke-opacity:1; 
stroke-linecap:round; stroke-linejoin:round;">
</g>
<g style="fill:#000000; fill-opacity:0.0; 
stroke:#000000; stroke-width:59.0551; stroke-opacity:1; 
stroke-linecap:round; stroke-linejoin:round;">
<text x="33464.6" y="78605.2"
textLength="546.494" font-size="682.415" lengthAdjust="spacingAndGlyphs"
text-anchor="start" opacity="0">2</text>
<path d="M33591 78117
L33615 78093
L33664 78069
L33786 78069
L33835 78093
L33859 78117
L33884 78166
L33884 78215
L33859 78288
L33567 78580
L33884 78580
" />
</g>
<g style="fill:#000000; fill-opacity:0.0; 
stroke:#000000; stroke-width:40; stroke-opacity:1; 
stroke-linecap:round; stroke-linejoin:round;">
</g>
<g style="fill:#000000; fill-opacity:0.0; 
stroke:#000000; stroke-width:59.0551; stroke-opacity:1; 
stroke-linecap:round; stroke-linejoin:round;">
<text x="53149.6" y="78605.2"
textLength="546.494" font-size="682.415" lengthAdjust="spacingAndGlyphs"
text-anchor="start" opacity="0">3</text>
<path d="M53252 78069
L53569 78069
L53398 78263
L53471 78263
L53520 78288
L53544 78312
L53569 78361
L53569 78483
L53544 78532
L53520 78556
L53471 78580
L53325 78580
L53276 78556
L53252 78532
" />
</g>
<g style="fill:#000000; fill-opacity:0.0; 
stroke:#000000; stroke-width:40; stroke-opacity:1; 
stroke-linecap:round; stroke-linejoin:round;">
</g>
<g style="fill:#000000; fill-opacity:0.0; 
stroke:#000000; stroke-width:59.0551; stroke-opacity:1; 
stroke-linecap:round; stroke-linejoin:round;">
<text x="72834.6" y="78605.2"
textLength="546.494" font-size="682.415" lengthAdjust="spacingAndGlyphs"
text-anchor="start" opacity="0">4</text>
<path d="M73205 78239
L73205 78580
" />
<path d="M73083 78044
L72961 78410
L73278 78410
" />
</g>
<g style="fill:#000000; fill-opacity:0.0; 
stroke:#000000; stroke-width:40; stroke-opacity:1; 
stroke-linecap:round; stroke-linejoin:round;">
</g>
<g style="fill:#000000; fill-opacity:0.0; 
stroke:#000000; stroke-width:59.0551; stroke-opacity:1; 
stroke-linecap:round; stroke-linejoin:round;">
<text x="92519.7" y="78605.2"
textLength="546.494" font-size="682.415" lengthAdjust="spacingAndGlyphs"
text-anchor="start" opacity="0">5</text>
<path d="M92914 78069
L92671 78069
L92646 78312
L92671 78288
L92719 78263
L92841 78263
L92890 78288
L92914 78312
L92939 78361
L92939 78483
L92914 78532
L92890 78556
L92841 78580
L92719 78580
L92671 78556
L92646 78532
" />
</g>
<g style="fill:#000000; fill-opacity:0.0; 
stroke:#000000; stroke-width:40; stroke-opacity:1; 
stroke-linecap:round; stroke-linejoin:round;">
</g>
<g style="fill:#000000; fill-opacity:0.0; 
stroke:#000000; stroke-width:59.0551; stroke-opacity:1; 
stroke-linecap:round; stroke-linejoin:round;">
<text x="112205" y="78605.2"
textLength="546.494" font-size="682.415" lengthAdjust="spacingAndGlyphs"
text-anchor="start" opacity="0">6</text>
<path d="M112575 78069
L112477 78069
L112429 78093
L112404 78117
L112356 78190
L112331 78288
L112331 78483
L112356 78532
L112380 78556
L112429 78580
L112526 78580
L112575 78556
L112599 78532
L112624 78483
L112624 78361
L112599 78312
L112575 78288
L112526 78263
L112429 78263
L112380 78288
L112356 78312
L112331 78361
" />
</g>
<g style="fill:#000000; fill-opacity:0.0; 
stroke:#000000; stroke-width:40; stroke-opacity:1; 
stroke-linecap:round; stroke-linejoin:round;">
</g>
<g style="fill:#000000; fill-opacity:0.0; 
stroke:#000000; stroke-width:59.0551; stroke-opacity:1; 
stroke-linecap:round; stroke-linejoin:round;">
<path d="M3937 23622
L4724 23622
" />
</g>
<g style="fill:#000000; fill-opacity:0.0; 
stroke:#000000; stroke-width:40; stroke-opacity:1; 
stroke-linecap:round; stroke-linejoin:round;">
</g>
<g style="fill:#000000; fill-opacity:0.0; 
stroke:#000000; stroke-width:59.0551; stroke-opacity:1; 
stroke-linecap:round; stroke-linejoin:round;">
<path d="M3937 43307
L4724 43307
" />
</g>
<g style="fill:#000000; fill-opacity:0.0; 
stroke:#000000; stroke-width:40; stroke-opacity:1; 
stroke-linecap:round; stroke-linejoin:round;">
</g>
<g style="fill:#000000; fill-opacity:0.0; 
stroke:#000000; stroke-width:59.0551; stroke-opacity:1; 
stroke-linecap:round; stroke-linejoin:round;">
<path d="M3937 62992
L4724 62992
" />
</g>
<g style="fill:#000000; fill-opacity:0.0; 
stroke:#000000; stroke-width:40; stroke-opacity:1; 
stroke-linecap:round; stroke-linejoin:round;">
</g>
<g style="fill:#000000; fill-opacity:0.0; 
stroke:#000000; stroke-width:59.0551; stroke-opacity:1; 
stroke-linecap:round; stroke-linejoin:round;">
<text x="4330.71" y="14035.4"
textLength="497.75" font-size="682.415" lengthAdjust="spacingAndGlyphs"
text-anchor="middle" opacity="0">A</text>
<path d="M4208 13864
L4452 13864
" />
<path d="M4160 14011
L4330 13499
L4501 14011
" />
</g>
<g style="fill:#000000; fill-opacity:0.0; 
stroke:#000000; stroke-width:40; stroke-opacity:1; 
stroke-linecap:round; stroke-linejoin:round;">
</g>
<g style="fill:#000000; fill-opacity:0.0; 
stroke:#000000; stroke-width:59.0551; stroke-opacity:1; 
stroke-linecap:round; stroke-linejoin:round;">
<text x="4330.71" y="33720.5"
textLength="570.866" font-size="682.415" lengthAdjust="spacingAndGlyphs"
text-anchor="middle" opacity="0">B</text>
<path d="M4367 33428
L4440 33452
L4464 33476
L4489 33525
L4489 33598
L4464 33647
L4440 33671
L4391 33696
L4196 33696
L4196 33184
L4367 33184
L4416 33208
L4440 33233
L4464 33281
L4464 33330
L4440 33379
L4416 33403
L4367 33428
L4196 33428
" />
</g>
<g style="fill:#000000; fill-opacity:0.0; 
stroke:#000000; stroke-width:40; stroke-opacity:1; 
stroke-linecap:round; stroke-linejoin:round;">
</g>
<g style="fill:#000000; fill-opacity:0.0; 
stroke:#000000; stroke-width:59.0551; stroke-opacity:1; 
stroke-linecap:round; stroke-linejoin:round;">
<text x="4330.71" y="53405.5"
textLength="570.866" font-size="682.415" lengthAdjust="spacingAndGlyphs"
text-anchor="middle" opacity="0">C</text>
<path d="M4489 53332
L4464 53356
L4391 53381
L4342 53381
L4269 53356
L4221 53308
L4196 53259
L4172 53161
L4172 53088
L4196 52991
L4221 52942
L4269 52893
L4342 52869
L4391 52869
L4464 52893
L4489 52918
" />
</g>
<g style="fill:#000000; fill-opacity:0.0; 
stroke:#000000; stroke-width:40; stroke-opacity:1; 
stroke-linecap:round; stroke-linejoin:round;">
</g>
<g style="fill:#000000; fill-opacity:0.0; 
stroke:#000000; stroke-width:59.0551; stroke-opacity:1; 
stroke-linecap:round; stroke-linejoin:round;">
<text x="4330.71" y="73090.6"
textLength="570.866" font-size="682.415" lengthAdjust="spacingAndGlyphs"
text-anchor="middle" opacity="0">D</text>
<path d="M4196 73066
L4196 72554
L4318 72554
L4391 72578
L4440 72627
L4464 72676
L4489 72773
L4489 72846
L4464 72944
L4440 72993
L4391 73041
L4318 73066
L4196 73066
" />
</g>
<g style="fill:#000000; fill-opacity:0.0; 
stroke:#000000; stroke-width:40; stroke-opacity:1; 
stroke-linecap:round; stroke-linejoin:round;">
</g>
<g style="fill:#000000; fill-opacity:0.0; 
stroke:#000000; stroke-width:59.0551; stroke-opacity:1; 
stroke-linecap:round; stroke-linejoin:round;">
<path d="M112992 23622
L112205 23622
" />
</g>
<g style="fill:#000000; fill-opacity:0.0; 
stroke:#000000; stroke-width:40; stroke-opacity:1; 
stroke-linecap:round; stroke-linejoin:round;">
</g>
<g style="fill:#000000; fill-opacity:0.0; 
stroke:#000000; stroke-width:59.0551; stroke-opacity:1; 
stroke-linecap:round; stroke-linejoin:round;">
<path d="M112992 43307
L112205 43307
" />
</g>
<g style="fill:#000000; fill-opacity:0.0; 
stroke:#000000; stroke-width:40; stroke-opacity:1; 
stroke-linecap:round; stroke-linejoin:round;">
</g>
<g style="fill:#000000; fill-opacity:0.0; 
stroke:#000000; stroke-width:59.0551; stroke-opacity:1; 
stroke-linecap:round; stroke-linejoin:round;">
<path d="M112992 62992
L112205 62992
" />
</g>
<g style="fill:#000000; fill-opacity:0.0; 
stroke:#000000; stroke-width:40; stroke-opacity:1; 
stroke-linecap:round; stroke-linejoin:round;">
</g>
<g style="fill:#000000; fill-opacity:0.0; 
stroke:#000000; stroke-width:59.0551; stroke-opacity:1; 
stroke-linecap:round; stroke-linejoin:round;">
<text x="112599" y="14035.4"
textLength="497.75" font-size="682.415" lengthAdjust="spacingAndGlyphs"
text-anchor="middle" opacity="0">A</text>
<path d="M112477 13864
L112721 13864
" />
<path d="M112428 14011
L112599 13499
L112769 14011
" />
</g>
<g style="fill:#000000; fill-opacity:0.0; 
stroke:#000000; stroke-width:40; stroke-opacity:1; 
stroke-linecap:round; stroke-linejoin:round;">
</g>
<g style="fill:#000000; fill-opacity:0.0; 
stroke:#000000; stroke-width:59.0551; stroke-opacity:1; 
stroke-linecap:round; stroke-linejoin:round;">
<text x="112599" y="33720.5"
textLength="570.866" font-size="682.415" lengthAdjust="spacingAndGlyphs"
text-anchor="middle" opacity="0">B</text>
<path d="M112635 33428
L112708 33452
L112733 33476
L112757 33525
L112757 33598
L112733 33647
L112708 33671
L112660 33696
L112465 33696
L112465 33184
L112635 33184
L112684 33208
L112708 33233
L112733 33281
L112733 33330
L112708 33379
L112684 33403
L112635 33428
L112465 33428
" />
</g>
<g style="fill:#000000; fill-opacity:0.0; 
stroke:#000000; stroke-width:40; stroke-opacity:1; 
stroke-linecap:round; stroke-linejoin:round;">
</g>
<g style="fill:#000000; fill-opacity:0.0; 
stroke:#000000; stroke-width:59.0551; stroke-opacity:1; 
stroke-linecap:round; stroke-linejoin:round;">
<text x="112599" y="53405.5"
textLength="570.866" font-size="682.415" lengthAdjust="spacingAndGlyphs"
text-anchor="middle" opacity="0">C</text>
<path d="M112757 53332
L112733 53356
L112660 53381
L112611 53381
L112538 53356
L112489 53308
L112465 53259
L112440 53161
L112440 53088
L112465 52991
L112489 52942
L112538 52893
L112611 52869
L112660 52869
L112733 52893
L112757 52918
" />
</g>
<g style="fill:#000000; fill-opacity:0.0; 
stroke:#000000; stroke-width:40; stroke-opacity:1; 
stroke-linecap:round; stroke-linejoin:round;">
</g>
<g style="fill:#000000; fill-opacity:0.0; 
stroke:#000000; stroke-width:59.0551; stroke-opacity:1; 
stroke-linecap:round; stroke-linejoin:round;">
<text x="112599" y="73090.6"
textLength="570.866" font-size="682.415" lengthAdjust="spacingAndGlyphs"
text-anchor="middle" opacity="0">D</text>
<path d="M112465 73066
L112465 72554
L112587 72554
L112660 72578
L112708 72627
L112733 72676
L112757 72773
L112757 72846
L112733 72944
L112708 72993
L112660 73041
L112587 73066
L112465 73066
" />
</g>
<g style="fill:#000000; fill-opacity:0.0; 
stroke:#000000; stroke-width:40; stroke-opacity:1; 
stroke-linecap:round; stroke-linejoin:round;">
</g>
<g style="fill:#000000; fill-opacity:0.0; 
stroke:#000000; stroke-width:59.0551; stroke-opacity:1; 
stroke-linecap:round; stroke-linejoin:round;">
<text x="78741" y="76321.7"
textLength="8720.47" font-size="787.402" lengthAdjust="spacingAndGlyphs"
text-anchor="start" opacity="0">Date: 2021-05-06</text>
<path d="M78911 76293
L78911 75703
L79051 75703
L79136 75731
L79192 75787
L79220 75843
L79248 75956
L79248 76040
L79220 76153
L79192 76209
L79136 76265
L79051 76293
L78911 76293
" />
<path d="M79754 76293
L79754 75984
L79726 75928
L79670 75899
L79557 75899
L79501 75928
" />
<path d="M79754 76265
L79698 76293
L79557 76293
L79501 76265
L79473 76209
L79473 76153
L79501 76096
L79557 76068
L79698 76068
L79754 76040
" />
<path d="M79951 75899
L80176 75899
" />
<path d="M80036 75703
L80036 76209
L80064 76265
L80120 76293
L80176 76293
" />
<path d="M80598 76265
L80542 76293
L80429 76293
L80373 76265
L80345 76209
L80345 75984
L80373 75928
L80429 75899
L80542 75899
L80598 75928
L80626 75984
L80626 76040
L80345 76096
" />
<path d="M80879 76237
L80907 76265
L80879 76293
L80851 76265
L80879 76237
L80879 76293
" />
<path d="M80879 75928
L80907 75956
L80879 75984
L80851 75956
L80879 75928
L80879 75984
" />
<path d="M81582 75759
L81610 75731
L81667 75703
L81807 75703
L81863 75731
L81892 75759
L81920 75815
L81920 75871
L81892 75956
L81554 76293
L81920 76293
" />
<path d="M82285 75703
L82341 75703
L82398 75731
L82426 75759
L82454 75815
L82482 75928
L82482 76068
L82454 76181
L82426 76237
L82398 76265
L82341 76293
L82285 76293
L82229 76265
L82201 76237
L82173 76181
L82145 76068
L82145 75928
L82173 75815
L82201 75759
L82229 75731
L82285 75703
" />
<path d="M82707 75759
L82735 75731
L82791 75703
L82932 75703
L82988 75731
L83016 75759
L83045 75815
L83045 75871
L83016 75956
L82679 76293
L83045 76293
" />
<path d="M83607 76293
L83269 76293
" />
<path d="M83438 76293
L83438 75703
L83382 75787
L83326 75843
L83269 75871
" />
<path d="M83860 76068
L84310 76068
" />
<path d="M84704 75703
L84760 75703
L84816 75731
L84844 75759
L84872 75815
L84901 75928
L84901 76068
L84872 76181
L84844 76237
L84816 76265
L84760 76293
L84704 76293
L84647 76265
L84619 76237
L84591 76181
L84563 76068
L84563 75928
L84591 75815
L84619 75759
L84647 75731
L84704 75703
" />
<path d="M85435 75703
L85154 75703
L85126 75984
L85154 75956
L85210 75928
L85350 75928
L85407 75956
L85435 75984
L85463 76040
L85463 76181
L85435 76237
L85407 76265
L85350 76293
L85210 76293
L85154 76265
L85126 76237
" />
<path d="M85716 76068
L86166 76068
" />
<path d="M86560 75703
L86616 75703
L86672 75731
L86700 75759
L86728 75815
L86757 75928
L86757 76068
L86728 76181
L86700 76237
L86672 76265
L86616 76293
L86560 76293
L86503 76265
L86475 76237
L86447 76181
L86419 76068
L86419 75928
L86447 75815
L86475 75759
L86503 75731
L86560 75703
" />
<path d="M87263 75703
L87150 75703
L87094 75731
L87066 75759
L87010 75843
L86982 75956
L86982 76181
L87010 76237
L87038 76265
L87094 76293
L87206 76293
L87263 76265
L87291 76237
L87319 76181
L87319 76040
L87291 75984
L87263 75956
L87206 75928
L87094 75928
L87038 75956
L87010 75984
L86982 76040
" />
</g>
<g style="fill:#000000; fill-opacity:0.0; 
stroke:#000000; stroke-width:40; stroke-opacity:1; 
stroke-linecap:round; stroke-linejoin:round;">
</g>
<g style="fill:#000000; fill-opacity:0.0; 
stroke:#000000; stroke-width:59.0551; stroke-opacity:1; 
stroke-linecap:round; stroke-linejoin:round;">
<path d="M69685 76577
L112205 76577
" />
</g>
<g style="fill:#000000; fill-opacity:0.0; 
stroke:#000000; stroke-width:40; stroke-opacity:1; 
stroke-linecap:round; stroke-linejoin:round;">
</g>
<g style="fill:#000000; fill-opacity:0.0; 
stroke:#000000; stroke-width:59.0551; stroke-opacity:1; 
stroke-linecap:round; stroke-linejoin:round;">
<text x="70079.6" y="77424.1"
textLength="13529.2" font-size="787.402" lengthAdjust="spacingAndGlyphs"
text-anchor="start" opacity="0">KiCad E.D.A.  kicad (5.1.9)-1</text>
<path d="M70249 77395
L70249 76805
" />
<path d="M70587 77395
L70334 77058
" />
<path d="M70587 76805
L70249 77142
" />
<path d="M70840 77395
L70840 77002
" />
<path d="M70840 76805
L70812 76833
L70840 76861
L70868 76833
L70840 76805
L70840 76861
" />
<path d="M71458 77339
L71430 77367
L71346 77395
L71290 77395
L71205 77367
L71149 77311
L71121 77255
L71093 77142
L71093 77058
L71121 76946
L71149 76889
L71205 76833
L71290 76805
L71346 76805
L71430 76833
L71458 76861
" />
<path d="M71965 77395
L71965 77086
L71937 77030
L71880 77002
L71768 77002
L71712 77030
" />
<path d="M71965 77367
L71908 77395
L71768 77395
L71712 77367
L71683 77311
L71683 77255
L71712 77199
L71768 77171
L71908 77171
L71965 77142
" />
<path d="M72499 77395
L72499 76805
" />
<path d="M72499 77367
L72443 77395
L72330 77395
L72274 77367
L72246 77339
L72218 77283
L72218 77114
L72246 77058
L72274 77030
L72330 77002
L72443 77002
L72499 77030
" />
<path d="M73230 77086
L73427 77086
" />
<path d="M73511 77395
L73230 77395
L73230 76805
L73511 76805
" />
<path d="M73764 77339
L73793 77367
L73764 77395
L73736 77367
L73764 77339
L73764 77395
" />
<path d="M74046 77395
L74046 76805
L74186 76805
L74271 76833
L74327 76889
L74355 76946
L74383 77058
L74383 77142
L74355 77255
L74327 77311
L74271 77367
L74186 77395
L74046 77395
" />
<path d="M74636 77339
L74664 77367
L74636 77395
L74608 77367
L74636 77339
L74636 77395
" />
<path d="M74889 77227
L75171 77227
" />
<path d="M74833 77395
L75030 76805
L75227 77395
" />
<path d="M75424 77339
L75452 77367
L75424 77395
L75395 77367
L75424 77339
L75424 77395
" />
<path d="M76605 77395
L76605 76805
" />
<path d="M76661 77171
L76830 77395
" />
<path d="M76830 77002
L76605 77227
" />
<path d="M77083 77395
L77083 77002
" />
<path d="M77083 76805
L77055 76833
L77083 76861
L77111 76833
L77083 76805
L77083 76861
" />
<path d="M77617 77367
L77561 77395
L77448 77395
L77392 77367
L77364 77339
L77336 77283
L77336 77114
L77364 77058
L77392 77030
L77448 77002
L77561 77002
L77617 77030
" />
<path d="M78123 77395
L78123 77086
L78095 77030
L78039 77002
L77926 77002
L77870 77030
" />
<path d="M78123 77367
L78067 77395
L77926 77395
L77870 77367
L77842 77311
L77842 77255
L77870 77199
L77926 77171
L78067 77171
L78123 77142
" />
<path d="M78658 77395
L78658 76805
" />
<path d="M78658 77367
L78601 77395
L78489 77395
L78433 77367
L78404 77339
L78376 77283
L78376 77114
L78404 77058
L78433 77030
L78489 77002
L78601 77002
L78658 77030
" />
<path d="M79557 77620
L79529 77592
L79473 77508
L79445 77452
L79417 77367
L79389 77227
L79389 77114
L79417 76974
L79445 76889
L79473 76833
L79529 76749
L79557 76721
" />
<path d="M80064 76805
L79782 76805
L79754 77086
L79782 77058
L79839 77030
L79979 77030
L80036 77058
L80064 77086
L80092 77142
L80092 77283
L80064 77339
L80036 77367
L79979 77395
L79839 77395
L79782 77367
L79754 77339
" />
<path d="M80345 77339
L80373 77367
L80345 77395
L80317 77367
L80345 77339
L80345 77395
" />
<path d="M80935 77395
L80598 77395
" />
<path d="M80767 77395
L80767 76805
L80710 76889
L80654 76946
L80598 76974
" />
<path d="M81188 77339
L81217 77367
L81188 77395
L81160 77367
L81188 77339
L81188 77395
" />
<path d="M81498 77395
L81610 77395
L81667 77367
L81695 77339
L81751 77255
L81779 77142
L81779 76917
L81751 76861
L81723 76833
L81667 76805
L81554 76805
L81498 76833
L81470 76861
L81442 76917
L81442 77058
L81470 77114
L81498 77142
L81554 77171
L81667 77171
L81723 77142
L81751 77114
L81779 77058
" />
<path d="M81976 77620
L82004 77592
L82060 77508
L82088 77452
L82117 77367
L82145 77227
L82145 77114
L82117 76974
L82088 76889
L82060 76833
L82004 76749
L81976 76721
" />
<path d="M82426 77171
L82876 77171
" />
<path d="M83466 77395
L83129 77395
" />
<path d="M83298 77395
L83298 76805
L83241 76889
L83185 76946
L83129 76974
" />
</g>
<g style="fill:#000000; fill-opacity:0.0; 
stroke:#000000; stroke-width:40; stroke-opacity:1; 
stroke-linecap:round; stroke-linejoin:round;">
</g>
<g style="fill:#000000; fill-opacity:0.0; 
stroke:#000000; stroke-width:59.0551; stroke-opacity:1; 
stroke-linecap:round; stroke-linejoin:round;">
<path d="M69685 75396
L112205 75396
" />
</g>
<g style="fill:#000000; fill-opacity:0.0; 
stroke:#000000; stroke-width:40; stroke-opacity:1; 
stroke-linecap:round; stroke-linejoin:round;">
</g>
<g style="fill:#000000; fill-opacity:0.0; 
stroke:#000000; stroke-width:118.11; stroke-opacity:1; 
stroke-linecap:round; stroke-linejoin:round;">
<text x="103544" y="76321.7"
textLength="4192.91" font-size="787.402" lengthAdjust="spacingAndGlyphs"
text-anchor="start" opacity="0">Rev: v0.5</text>
<path d="M104099 76293
L103902 76012
" />
<path d="M103761 76293
L103761 75703
L103986 75703
L104042 75731
L104070 75759
L104099 75815
L104099 75899
L104070 75956
L104042 75984
L103986 76012
L103761 76012
" />
<path d="M104577 76265
L104520 76293
L104408 76293
L104352 76265
L104323 76209
L104323 75984
L104352 75928
L104408 75899
L104520 75899
L104577 75928
L104605 75984
L104605 76040
L104323 76096
" />
<path d="M104802 75899
L104942 76293
L105083 75899
" />
<path d="M105308 76237
L105336 76265
L105308 76293
L105280 76265
L105308 76237
L105308 76293
" />
<path d="M105308 75928
L105336 75956
L105308 75984
L105280 75956
L105308 75928
L105308 75984
" />
<path d="M105983 75899
L106123 76293
L106264 75899
" />
<path d="M106601 75703
L106658 75703
L106714 75731
L106742 75759
L106770 75815
L106798 75928
L106798 76068
L106770 76181
L106742 76237
L106714 76265
L106658 76293
L106601 76293
L106545 76265
L106517 76237
L106489 76181
L106461 76068
L106461 75928
L106489 75815
L106517 75759
L106545 75731
L106601 75703
" />
<path d="M107051 76237
L107079 76265
L107051 76293
L107023 76265
L107051 76237
L107051 76293
" />
<path d="M107614 75703
L107332 75703
L107304 75984
L107332 75956
L107389 75928
L107529 75928
L107586 75956
L107614 75984
L107642 76040
L107642 76181
L107614 76237
L107586 76265
L107529 76293
L107389 76293
L107332 76265
L107304 76237
" />
</g>
<g style="fill:#000000; fill-opacity:0.0; 
stroke:#000000; stroke-width:40; stroke-opacity:1; 
stroke-linecap:round; stroke-linejoin:round;">
</g>
<g style="fill:#000000; fill-opacity:0.0; 
stroke:#000000; stroke-width:59.0551; stroke-opacity:1; 
stroke-linecap:round; stroke-linejoin:round;">
<text x="70079.6" y="76321.7"
textLength="3781.21" font-size="787.402" lengthAdjust="spacingAndGlyphs"
text-anchor="start" opacity="0">Size: A4</text>
<path d="M70221 76265
L70305 76293
L70446 76293
L70502 76265
L70530 76237
L70559 76181
L70559 76124
L70530 76068
L70502 76040
L70446 76012
L70334 75984
L70277 75956
L70249 75928
L70221 75871
L70221 75815
L70249 75759
L70277 75731
L70334 75703
L70474 75703
L70559 75731
" />
<path d="M70812 76293
L70812 75899
" />
<path d="M70812 75703
L70784 75731
L70812 75759
L70840 75731
L70812 75703
L70812 75759
" />
<path d="M71037 75899
L71346 75899
L71037 76293
L71346 76293
" />
<path d="M71796 76265
L71740 76293
L71627 76293
L71571 76265
L71543 76209
L71543 75984
L71571 75928
L71627 75899
L71740 75899
L71796 75928
L71824 75984
L71824 76040
L71543 76096
" />
<path d="M72077 76237
L72105 76265
L72077 76293
L72049 76265
L72077 76237
L72077 76293
" />
<path d="M72077 75928
L72105 75956
L72077 75984
L72049 75956
L72077 75928
L72077 75984
" />
<path d="M72780 76124
L73061 76124
" />
<path d="M72724 76293
L72921 75703
L73118 76293
" />
<path d="M73568 75899
L73568 76293
" />
<path d="M73427 75674
L73286 76096
L73652 76096
" />
</g>
<g style="fill:#000000; fill-opacity:0.0; 
stroke:#000000; stroke-width:40; stroke-opacity:1; 
stroke-linecap:round; stroke-linejoin:round;">
</g>
<g style="fill:#000000; fill-opacity:0.0; 
stroke:#000000; stroke-width:59.0551; stroke-opacity:1; 
stroke-linecap:round; stroke-linejoin:round;">
<text x="103544" y="77424.1"
textLength="3349.27" font-size="787.402" lengthAdjust="spacingAndGlyphs"
text-anchor="start" opacity="0">Id: 1/1</text>
<path d="M103714 77395
L103714 76805
" />
<path d="M104248 77395
L104248 76805
" />
<path d="M104248 77367
L104192 77395
L104079 77395
L104023 77367
L103995 77339
L103967 77283
L103967 77114
L103995 77058
L104023 77030
L104079 77002
L104192 77002
L104248 77030
" />
<path d="M104529 77339
L104557 77367
L104529 77395
L104501 77367
L104529 77339
L104529 77395
" />
<path d="M104529 77030
L104557 77058
L104529 77086
L104501 77058
L104529 77030
L104529 77086
" />
<path d="M105570 77395
L105232 77395
" />
<path d="M105401 77395
L105401 76805
L105345 76889
L105289 76946
L105232 76974
" />
<path d="M106245 76777
L105739 77536
" />
<path d="M106751 77395
L106413 77395
" />
<path d="M106582 77395
L106582 76805
L106526 76889
L106470 76946
L106413 76974
" />
</g>
<g style="fill:#000000; fill-opacity:0.0; 
stroke:#000000; stroke-width:40; stroke-opacity:1; 
stroke-linecap:round; stroke-linejoin:round;">
</g>
<g style="fill:#000000; fill-opacity:0.0; 
stroke:#000000; stroke-width:59.0551; stroke-opacity:1; 
stroke-linecap:round; stroke-linejoin:round;">
<path d="M69685 73821
L112205 73821
" />
</g>
<g style="fill:#000000; fill-opacity:0.0; 
stroke:#000000; stroke-width:40; stroke-opacity:1; 
stroke-linecap:round; stroke-linejoin:round;">
</g>
<g style="fill:#000000; fill-opacity:0.0; 
stroke:#000000; stroke-width:157.48; stroke-opacity:1; 
stroke-linecap:round; stroke-linejoin:round;">
<text x="70079.6" y="74924.1"
textLength="15887.1" font-size="1049.87" lengthAdjust="spacingAndGlyphs"
text-anchor="start" opacity="0">Title: Bike Pixel Rear PCB</text>
<path d="M70360 74099
L70810 74099
" />
<path d="M70486 74886
L70585 74099
" />
<path d="M70974 74886
L71039 74361
" />
<path d="M71072 74099
L71030 74136
L71063 74174
L71105 74136
L71072 74099
L71063 74174
" />
<path d="M71302 74361
L71602 74361
" />
<path d="M71447 74099
L71363 74774
L71391 74849
L71461 74886
L71536 74886
" />
<path d="M71911 74886
L71841 74849
L71813 74774
L71897 74099
" />
<path d="M72516 74849
L72436 74886
L72286 74886
L72216 74849
L72187 74774
L72225 74474
L72272 74399
L72352 74361
L72501 74361
L72572 74399
L72600 74474
L72591 74549
L72206 74624
" />
<path d="M72895 74811
L72928 74849
L72886 74886
L72853 74849
L72895 74811
L72886 74886
" />
<path d="M72947 74399
L72980 74436
L72937 74474
L72905 74436
L72947 74399
L72937 74474
" />
<path d="M74175 74474
L74283 74511
L74315 74549
L74343 74624
L74329 74736
L74283 74811
L74240 74849
L74161 74886
L73861 74886
L73959 74099
L74222 74099
L74292 74136
L74325 74174
L74353 74249
L74343 74324
L74297 74399
L74254 74436
L74175 74474
L73912 74474
" />
<path d="M74648 74886
L74714 74361
" />
<path d="M74747 74099
L74704 74136
L74737 74174
L74779 74136
L74747 74099
L74737 74174
" />
<path d="M75023 74886
L75121 74099
" />
<path d="M75136 74586
L75323 74886
" />
<path d="M75389 74361
L75051 74661
" />
<path d="M75965 74849
L75885 74886
L75735 74886
L75665 74849
L75637 74774
L75675 74474
L75721 74399
L75801 74361
L75951 74361
L76021 74399
L76049 74474
L76040 74549
L75656 74624
" />
<path d="M76935 74886
L77034 74099
L77334 74099
L77404 74136
L77437 74174
L77465 74249
L77451 74361
L77404 74436
L77362 74474
L77282 74511
L76982 74511
" />
<path d="M77723 74886
L77788 74361
" />
<path d="M77821 74099
L77779 74136
L77812 74174
L77854 74136
L77821 74099
L77812 74174
" />
<path d="M78023 74886
L78501 74361
" />
<path d="M78088 74361
L78435 74886
" />
<path d="M79040 74849
L78960 74886
L78810 74886
L78740 74849
L78712 74774
L78749 74474
L78796 74399
L78876 74361
L79026 74361
L79096 74399
L79124 74474
L79115 74549
L78730 74624
" />
<path d="M79522 74886
L79452 74849
L79424 74774
L79508 74099
" />
<path d="M80872 74886
L80657 74511
" />
<path d="M80422 74886
L80521 74099
L80821 74099
L80891 74136
L80924 74174
L80952 74249
L80938 74361
L80891 74436
L80849 74474
L80769 74511
L80469 74511
" />
<path d="M81514 74849
L81435 74886
L81285 74886
L81214 74849
L81186 74774
L81224 74474
L81271 74399
L81350 74361
L81500 74361
L81571 74399
L81599 74474
L81589 74549
L81205 74624
" />
<path d="M82222 74886
L82274 74474
L82246 74399
L82175 74361
L82025 74361
L81946 74399
" />
<path d="M82227 74849
L82147 74886
L81960 74886
L81889 74849
L81861 74774
L81871 74699
L81918 74624
L81997 74586
L82185 74586
L82264 74549
" />
<path d="M82597 74886
L82663 74361
" />
<path d="M82644 74511
L82691 74436
L82733 74399
L82813 74361
L82888 74361
" />
<path d="M83684 74886
L83783 74099
L84083 74099
L84153 74136
L84186 74174
L84214 74249
L84200 74361
L84153 74436
L84111 74474
L84031 74511
L83731 74511
" />
<path d="M84931 74811
L84889 74849
L84772 74886
L84697 74886
L84589 74849
L84523 74774
L84495 74699
L84477 74549
L84491 74436
L84547 74286
L84594 74211
L84678 74136
L84795 74099
L84870 74099
L84978 74136
L85011 74174
" />
<path d="M85573 74474
L85681 74511
L85714 74549
L85742 74624
L85728 74736
L85681 74811
L85639 74849
L85559 74886
L85259 74886
L85358 74099
L85620 74099
L85690 74136
L85723 74174
L85751 74249
L85742 74324
L85695 74399
L85653 74436
L85573 74474
L85311 74474
" />
</g>
<g style="fill:#000000; fill-opacity:0.0; 
stroke:#000000; stroke-width:40; stroke-opacity:1; 
stroke-linecap:round; stroke-linejoin:round;">
</g>
<g style="fill:#000000; fill-opacity:0.0; 
stroke:#000000; stroke-width:59.0551; stroke-opacity:1; 
stroke-linecap:round; stroke-linejoin:round;">
<text x="70079.6" y="73408.3"
textLength="13309.3" font-size="787.402" lengthAdjust="spacingAndGlyphs"
text-anchor="start" opacity="0">File: bikepixel rear.kicad_pcb</text>
<path d="M70446 73070
L70249 73070
" />
<path d="M70249 73380
L70249 72789
L70530 72789
" />
<path d="M70755 73380
L70755 72986
" />
<path d="M70755 72789
L70727 72817
L70755 72845
L70784 72817
L70755 72789
L70755 72845
" />
<path d="M71121 73380
L71065 73352
L71037 73295
L71037 72789
" />
<path d="M71571 73352
L71515 73380
L71402 73380
L71346 73352
L71318 73295
L71318 73070
L71346 73014
L71402 72986
L71515 72986
L71571 73014
L71599 73070
L71599 73127
L71318 73183
" />
<path d="M71852 73323
L71880 73352
L71852 73380
L71824 73352
L71852 73323
L71852 73380
" />
<path d="M71852 73014
L71880 73042
L71852 73070
L71824 73042
L71852 73014
L71852 73070
" />
<path d="M72583 73380
L72583 72789
" />
<path d="M72583 73014
L72640 72986
L72752 72986
L72808 73014
L72836 73042
L72865 73099
L72865 73267
L72836 73323
L72808 73352
L72752 73380
L72640 73380
L72583 73352
" />
<path d="M73118 73380
L73118 72986
" />
<path d="M73118 72789
L73090 72817
L73118 72845
L73146 72817
L73118 72789
L73118 72845
" />
<path d="M73399 73380
L73399 72789
" />
<path d="M73455 73155
L73624 73380
" />
<path d="M73624 72986
L73399 73211
" />
<path d="M74102 73352
L74046 73380
L73933 73380
L73877 73352
L73849 73295
L73849 73070
L73877 73014
L73933 72986
L74046 72986
L74102 73014
L74130 73070
L74130 73127
L73849 73183
" />
<path d="M74383 72986
L74383 73577
" />
<path d="M74383 73014
L74439 72986
L74552 72986
L74608 73014
L74636 73042
L74664 73099
L74664 73267
L74636 73323
L74608 73352
L74552 73380
L74439 73380
L74383 73352
" />
<path d="M74917 73380
L74917 72986
" />
<path d="M74917 72789
L74889 72817
L74917 72845
L74946 72817
L74917 72789
L74917 72845
" />
<path d="M75142 73380
L75452 72986
" />
<path d="M75142 72986
L75452 73380
" />
<path d="M75902 73352
L75845 73380
L75733 73380
L75677 73352
L75649 73295
L75649 73070
L75677 73014
L75733 72986
L75845 72986
L75902 73014
L75930 73070
L75930 73127
L75649 73183
" />
<path d="M76267 73380
L76211 73352
L76183 73295
L76183 72789
" />
<path d="M76942 73380
L76942 72986
" />
<path d="M76942 73099
L76970 73042
L76998 73014
L77055 72986
L77111 72986
" />
<path d="M77533 73352
L77476 73380
L77364 73380
L77308 73352
L77280 73295
L77280 73070
L77308 73014
L77364 72986
L77476 72986
L77533 73014
L77561 73070
L77561 73127
L77280 73183
" />
<path d="M78067 73380
L78067 73070
L78039 73014
L77983 72986
L77870 72986
L77814 73014
" />
<path d="M78067 73352
L78011 73380
L77870 73380
L77814 73352
L77786 73295
L77786 73239
L77814 73183
L77870 73155
L78011 73155
L78067 73127
" />
<path d="M78348 73380
L78348 72986
" />
<path d="M78348 73099
L78376 73042
L78404 73014
L78461 72986
L78517 72986
" />
<path d="M78714 73323
L78742 73352
L78714 73380
L78686 73352
L78714 73323
L78714 73380
" />
<path d="M78995 73380
L78995 72789
" />
<path d="M79051 73155
L79220 73380
" />
<path d="M79220 72986
L78995 73211
" />
<path d="M79473 73380
L79473 72986
" />
<path d="M79473 72789
L79445 72817
L79473 72845
L79501 72817
L79473 72789
L79473 72845
" />
<path d="M80007 73352
L79951 73380
L79839 73380
L79782 73352
L79754 73323
L79726 73267
L79726 73099
L79754 73042
L79782 73014
L79839 72986
L79951 72986
L80007 73014
" />
<path d="M80514 73380
L80514 73070
L80485 73014
L80429 72986
L80317 72986
L80260 73014
" />
<path d="M80514 73352
L80457 73380
L80317 73380
L80260 73352
L80232 73295
L80232 73239
L80260 73183
L80317 73155
L80457 73155
L80514 73127
" />
<path d="M81048 73380
L81048 72789
" />
<path d="M81048 73352
L80992 73380
L80879 73380
L80823 73352
L80795 73323
L80767 73267
L80767 73099
L80795 73042
L80823 73014
L80879 72986
L80992 72986
L81048 73014
" />
<path d="M81188 73436
L81638 73436
" />
<path d="M81779 72986
L81779 73577
" />
<path d="M81779 73014
L81835 72986
L81948 72986
L82004 73014
L82032 73042
L82060 73099
L82060 73267
L82032 73323
L82004 73352
L81948 73380
L81835 73380
L81779 73352
" />
<path d="M82566 73352
L82510 73380
L82398 73380
L82341 73352
L82313 73323
L82285 73267
L82285 73099
L82313 73042
L82341 73014
L82398 72986
L82510 72986
L82566 73014
" />
<path d="M82820 73380
L82820 72789
" />
<path d="M82820 73014
L82876 72986
L82988 72986
L83045 73014
L83073 73042
L83101 73099
L83101 73267
L83073 73323
L83045 73352
L82988 73380
L82876 73380
L82820 73352
" />
</g>
<g style="fill:#000000; fill-opacity:0.0; 
stroke:#000000; stroke-width:40; stroke-opacity:1; 
stroke-linecap:round; stroke-linejoin:round;">
</g>
<g style="fill:#000000; fill-opacity:0.0; 
stroke:#000000; stroke-width:59.0551; stroke-opacity:1; 
stroke-linecap:round; stroke-linejoin:round;">
<path d="M69685 71459
L112205 71459
" />
</g>
<g style="fill:#000000; fill-opacity:0.0; 
stroke:#000000; stroke-width:40; stroke-opacity:1; 
stroke-linecap:round; stroke-linejoin:round;">
</g>
<g style="fill:#000000; fill-opacity:0.0; 
stroke:#000000; stroke-width:59.0551; stroke-opacity:1; 
stroke-linecap:round; stroke-linejoin:round;">
<text x="70079.6" y="72345.4"
textLength="3236.78" font-size="787.402" lengthAdjust="spacingAndGlyphs"
text-anchor="start" opacity="0">Sheet: </text>
<path d="M70221 72289
L70305 72317
L70446 72317
L70502 72289
L70530 72260
L70559 72204
L70559 72148
L70530 72092
L70502 72064
L70446 72036
L70334 72007
L70277 71979
L70249 71951
L70221 71895
L70221 71839
L70249 71782
L70277 71754
L70334 71726
L70474 71726
L70559 71754
" />
<path d="M70812 72317
L70812 71726
" />
<path d="M71065 72317
L71065 72007
L71037 71951
L70980 71923
L70896 71923
L70840 71951
L70812 71979
" />
<path d="M71571 72289
L71515 72317
L71402 72317
L71346 72289
L71318 72232
L71318 72007
L71346 71951
L71402 71923
L71515 71923
L71571 71951
L71599 72007
L71599 72064
L71318 72120
" />
<path d="M72077 72289
L72021 72317
L71908 72317
L71852 72289
L71824 72232
L71824 72007
L71852 71951
L71908 71923
L72021 71923
L72077 71951
L72105 72007
L72105 72064
L71824 72120
" />
<path d="M72274 71923
L72499 71923
" />
<path d="M72358 71726
L72358 72232
L72386 72289
L72443 72317
L72499 72317
" />
<path d="M72696 72260
L72724 72289
L72696 72317
L72668 72289
L72696 72260
L72696 72317
" />
<path d="M72696 71951
L72724 71979
L72696 72007
L72668 71979
L72696 71951
L72696 72007
" />
</g>
<g style="fill:#000000; fill-opacity:0.0; 
stroke:#000000; stroke-width:40; stroke-opacity:1; 
stroke-linecap:round; stroke-linejoin:round;">
</g>
<g style="fill:#000000; fill-opacity:0.0; 
stroke:#000000; stroke-width:118.11; stroke-opacity:1; 
stroke-linecap:round; stroke-linejoin:round;">
<text x="70079.6" y="71164.3"
textLength="8748.59" font-size="787.402" lengthAdjust="spacingAndGlyphs"
text-anchor="start" opacity="0">OpenDev.Consulting</text>
<path d="M70409 70545
L70521 70545
L70578 70573
L70634 70629
L70662 70742
L70662 70939
L70634 71051
L70578 71108
L70521 71136
L70409 71136
L70353 71108
L70296 71051
L70268 70939
L70268 70742
L70296 70629
L70353 70573
L70409 70545
" />
<path d="M70915 70742
L70915 71332
" />
<path d="M70915 70770
L70971 70742
L71084 70742
L71140 70770
L71168 70798
L71196 70854
L71196 71023
L71168 71079
L71140 71108
L71084 71136
L70971 71136
L70915 71108
" />
<path d="M71674 71108
L71618 71136
L71506 71136
L71449 71108
L71421 71051
L71421 70826
L71449 70770
L71506 70742
L71618 70742
L71674 70770
L71703 70826
L71703 70883
L71421 70939
" />
<path d="M71956 70742
L71956 71136
" />
<path d="M71956 70798
L71984 70770
L72040 70742
L72124 70742
L72181 70770
L72209 70826
L72209 71136
" />
<path d="M72490 71136
L72490 70545
L72631 70545
L72715 70573
L72771 70629
L72799 70686
L72827 70798
L72827 70883
L72799 70995
L72771 71051
L72715 71108
L72631 71136
L72490 71136
" />
<path d="M73305 71108
L73249 71136
L73137 71136
L73081 71108
L73052 71051
L73052 70826
L73081 70770
L73137 70742
L73249 70742
L73305 70770
L73334 70826
L73334 70883
L73052 70939
" />
<path d="M73530 70742
L73671 71136
L73812 70742
" />
<path d="M74037 71079
L74065 71108
L74037 71136
L74009 71108
L74037 71079
L74037 71136
" />
<path d="M74655 71079
L74627 71108
L74543 71136
L74487 71136
L74402 71108
L74346 71051
L74318 70995
L74290 70883
L74290 70798
L74318 70686
L74346 70629
L74402 70573
L74487 70545
L74543 70545
L74627 70573
L74655 70601
" />
<path d="M74993 71136
L74937 71108
L74908 71079
L74880 71023
L74880 70854
L74908 70798
L74937 70770
L74993 70742
L75077 70742
L75133 70770
L75162 70798
L75190 70854
L75190 71023
L75162 71079
L75133 71108
L75077 71136
L74993 71136
" />
<path d="M75443 70742
L75443 71136
" />
<path d="M75443 70798
L75471 70770
L75527 70742
L75611 70742
L75668 70770
L75696 70826
L75696 71136
" />
<path d="M75949 71108
L76005 71136
L76118 71136
L76174 71108
L76202 71051
L76202 71023
L76174 70967
L76118 70939
L76033 70939
L75977 70911
L75949 70854
L75949 70826
L75977 70770
L76033 70742
L76118 70742
L76174 70770
" />
<path d="M76708 70742
L76708 71136
" />
<path d="M76455 70742
L76455 71051
L76483 71108
L76539 71136
L76624 71136
L76680 71108
L76708 71079
" />
<path d="M77074 71136
L77018 71108
L76989 71051
L76989 70545
" />
<path d="M77214 70742
L77439 70742
" />
<path d="M77299 70545
L77299 71051
L77327 71108
L77383 71136
L77439 71136
" />
<path d="M77636 71136
L77636 70742
" />
<path d="M77636 70545
L77608 70573
L77636 70601
L77664 70573
L77636 70545
L77636 70601
" />
<path d="M77917 70742
L77917 71136
" />
<path d="M77917 70798
L77946 70770
L78002 70742
L78086 70742
L78142 70770
L78171 70826
L78171 71136
" />
<path d="M78705 70742
L78705 71220
L78677 71276
L78649 71304
L78592 71332
L78508 71332
L78452 71304
" />
<path d="M78705 71108
L78649 71136
L78536 71136
L78480 71108
L78452 71079
L78424 71023
L78424 70854
L78452 70798
L78480 70770
L78536 70742
L78649 70742
L78705 70770
" />
</g>
<g style="fill:#000000; fill-opacity:0.0; 
stroke:#000000; stroke-width:40; stroke-opacity:1; 
stroke-linecap:round; stroke-linejoin:round;">
</g>
<g style="fill:#000000; fill-opacity:0.0; 
stroke:#000000; stroke-width:59.0551; stroke-opacity:1; 
stroke-linecap:round; stroke-linejoin:round;">
<text x="70079.6" y="68802"
textLength="10389.8" font-size="787.402" lengthAdjust="spacingAndGlyphs"
text-anchor="start" opacity="0">https://bikepixels.com</text>
<path d="M70249 68773
L70249 68183
" />
<path d="M70502 68773
L70502 68464
L70474 68408
L70418 68380
L70334 68380
L70277 68408
L70249 68436
" />
<path d="M70699 68380
L70924 68380
" />
<path d="M70784 68183
L70784 68689
L70812 68745
L70868 68773
L70924 68773
" />
<path d="M71037 68380
L71262 68380
" />
<path d="M71121 68183
L71121 68689
L71149 68745
L71205 68773
L71262 68773
" />
<path d="M71458 68380
L71458 68970
" />
<path d="M71458 68408
L71515 68380
L71627 68380
L71683 68408
L71712 68436
L71740 68492
L71740 68661
L71712 68717
L71683 68745
L71627 68773
L71515 68773
L71458 68745
" />
<path d="M71965 68745
L72021 68773
L72133 68773
L72190 68745
L72218 68689
L72218 68661
L72190 68605
L72133 68577
L72049 68577
L71993 68548
L71965 68492
L71965 68464
L71993 68408
L72049 68380
L72133 68380
L72190 68408
" />
<path d="M72471 68717
L72499 68745
L72471 68773
L72443 68745
L72471 68717
L72471 68773
" />
<path d="M72471 68408
L72499 68436
L72471 68464
L72443 68436
L72471 68408
L72471 68464
" />
<path d="M73174 68155
L72668 68914
" />
<path d="M73793 68155
L73286 68914
" />
<path d="M73989 68773
L73989 68183
" />
<path d="M73989 68408
L74046 68380
L74158 68380
L74214 68408
L74242 68436
L74271 68492
L74271 68661
L74242 68717
L74214 68745
L74158 68773
L74046 68773
L73989 68745
" />
<path d="M74524 68773
L74524 68380
" />
<path d="M74524 68183
L74496 68211
L74524 68239
L74552 68211
L74524 68183
L74524 68239
" />
<path d="M74805 68773
L74805 68183
" />
<path d="M74861 68548
L75030 68773
" />
<path d="M75030 68380
L74805 68605
" />
<path d="M75508 68745
L75452 68773
L75339 68773
L75283 68745
L75255 68689
L75255 68464
L75283 68408
L75339 68380
L75452 68380
L75508 68408
L75536 68464
L75536 68520
L75255 68577
" />
<path d="M75789 68380
L75789 68970
" />
<path d="M75789 68408
L75845 68380
L75958 68380
L76014 68408
L76042 68436
L76070 68492
L76070 68661
L76042 68717
L76014 68745
L75958 68773
L75845 68773
L75789 68745
" />
<path d="M76323 68773
L76323 68380
" />
<path d="M76323 68183
L76295 68211
L76323 68239
L76352 68211
L76323 68183
L76323 68239
" />
<path d="M76548 68773
L76858 68380
" />
<path d="M76548 68380
L76858 68773
" />
<path d="M77308 68745
L77251 68773
L77139 68773
L77083 68745
L77055 68689
L77055 68464
L77083 68408
L77139 68380
L77251 68380
L77308 68408
L77336 68464
L77336 68520
L77055 68577
" />
<path d="M77673 68773
L77617 68745
L77589 68689
L77589 68183
" />
<path d="M77870 68745
L77926 68773
L78039 68773
L78095 68745
L78123 68689
L78123 68661
L78095 68605
L78039 68577
L77955 68577
L77898 68548
L77870 68492
L77870 68464
L77898 68408
L77955 68380
L78039 68380
L78095 68408
" />
<path d="M78376 68717
L78404 68745
L78376 68773
L78348 68745
L78376 68717
L78376 68773
" />
<path d="M78911 68745
L78854 68773
L78742 68773
L78686 68745
L78658 68717
L78629 68661
L78629 68492
L78658 68436
L78686 68408
L78742 68380
L78854 68380
L78911 68408
" />
<path d="M79248 68773
L79192 68745
L79164 68717
L79136 68661
L79136 68492
L79164 68436
L79192 68408
L79248 68380
L79332 68380
L79389 68408
L79417 68436
L79445 68492
L79445 68661
L79417 68717
L79389 68745
L79332 68773
L79248 68773
" />
<path d="M79698 68773
L79698 68380
" />
<path d="M79698 68436
L79726 68408
L79782 68380
L79867 68380
L79923 68408
L79951 68464
L79951 68773
" />
<path d="M79951 68464
L79979 68408
L80036 68380
L80120 68380
L80176 68408
L80204 68464
L80204 68773
" />
</g>
<g style="fill:#000000; fill-opacity:0.0; 
stroke:#000000; stroke-width:40; stroke-opacity:1; 
stroke-linecap:round; stroke-linejoin:round;">
</g>
<g style="fill:#000000; fill-opacity:0.0; 
stroke:#000000; stroke-width:59.0551; stroke-opacity:1; 
stroke-linecap:round; stroke-linejoin:round;">
<text x="70079.6" y="67620.9"
textLength="20109.7" font-size="787.402" lengthAdjust="spacingAndGlyphs"
text-anchor="start" opacity="0">License: CERN Open Hardware Licence v1.2 </text>
<path d="M70530 67592
L70249 67592
L70249 67002
" />
<path d="M70727 67592
L70727 67199
" />
<path d="M70727 67002
L70699 67030
L70727 67058
L70755 67030
L70727 67002
L70727 67058
" />
<path d="M71262 67564
L71205 67592
L71093 67592
L71037 67564
L71009 67536
L70980 67480
L70980 67311
L71009 67255
L71037 67227
L71093 67199
L71205 67199
L71262 67227
" />
<path d="M71740 67564
L71683 67592
L71571 67592
L71515 67564
L71487 67508
L71487 67283
L71515 67227
L71571 67199
L71683 67199
L71740 67227
L71768 67283
L71768 67339
L71487 67395
" />
<path d="M72021 67199
L72021 67592
" />
<path d="M72021 67255
L72049 67227
L72105 67199
L72190 67199
L72246 67227
L72274 67283
L72274 67592
" />
<path d="M72527 67564
L72583 67592
L72696 67592
L72752 67564
L72780 67508
L72780 67480
L72752 67424
L72696 67395
L72611 67395
L72555 67367
L72527 67311
L72527 67283
L72555 67227
L72611 67199
L72696 67199
L72752 67227
" />
<path d="M73258 67564
L73202 67592
L73090 67592
L73033 67564
L73005 67508
L73005 67283
L73033 67227
L73090 67199
L73202 67199
L73258 67227
L73286 67283
L73286 67339
L73005 67395
" />
<path d="M73539 67536
L73568 67564
L73539 67592
L73511 67564
L73539 67536
L73539 67592
" />
<path d="M73539 67227
L73568 67255
L73539 67283
L73511 67255
L73539 67227
L73539 67283
" />
<path d="M74608 67536
L74580 67564
L74496 67592
L74439 67592
L74355 67564
L74299 67508
L74271 67452
L74242 67339
L74242 67255
L74271 67142
L74299 67086
L74355 67030
L74439 67002
L74496 67002
L74580 67030
L74608 67058
" />
<path d="M74861 67283
L75058 67283
" />
<path d="M75142 67592
L74861 67592
L74861 67002
L75142 67002
" />
<path d="M75733 67592
L75536 67311
" />
<path d="M75395 67592
L75395 67002
L75620 67002
L75677 67030
L75705 67058
L75733 67114
L75733 67199
L75705 67255
L75677 67283
L75620 67311
L75395 67311
" />
<path d="M75986 67592
L75986 67002
L76323 67592
L76323 67002
" />
<path d="M77167 67002
L77280 67002
L77336 67030
L77392 67086
L77420 67199
L77420 67395
L77392 67508
L77336 67564
L77280 67592
L77167 67592
L77111 67564
L77055 67508
L77027 67395
L77027 67199
L77055 67086
L77111 67030
L77167 67002
" />
<path d="M77673 67199
L77673 67789
" />
<path d="M77673 67227
L77730 67199
L77842 67199
L77898 67227
L77926 67255
L77955 67311
L77955 67480
L77926 67536
L77898 67564
L77842 67592
L77730 67592
L77673 67564
" />
<path d="M78433 67564
L78376 67592
L78264 67592
L78208 67564
L78180 67508
L78180 67283
L78208 67227
L78264 67199
L78376 67199
L78433 67227
L78461 67283
L78461 67339
L78180 67395
" />
<path d="M78714 67199
L78714 67592
" />
<path d="M78714 67255
L78742 67227
L78798 67199
L78883 67199
L78939 67227
L78967 67283
L78967 67592
" />
<path d="M79698 67592
L79698 67002
" />
<path d="M79698 67283
L80036 67283
" />
<path d="M80036 67592
L80036 67002
" />
<path d="M80570 67592
L80570 67283
L80542 67227
L80485 67199
L80373 67199
L80317 67227
" />
<path d="M80570 67564
L80514 67592
L80373 67592
L80317 67564
L80289 67508
L80289 67452
L80317 67395
L80373 67367
L80514 67367
L80570 67339
" />
<path d="M80851 67592
L80851 67199
" />
<path d="M80851 67311
L80879 67255
L80907 67227
L80964 67199
L81020 67199
" />
<path d="M81470 67592
L81470 67002
" />
<path d="M81470 67564
L81413 67592
L81301 67592
L81245 67564
L81217 67536
L81188 67480
L81188 67311
L81217 67255
L81245 67227
L81301 67199
L81413 67199
L81470 67227
" />
<path d="M81695 67199
L81807 67592
L81920 67311
L82032 67592
L82145 67199
" />
<path d="M82623 67592
L82623 67283
L82595 67227
L82538 67199
L82426 67199
L82370 67227
" />
<path d="M82623 67564
L82566 67592
L82426 67592
L82370 67564
L82341 67508
L82341 67452
L82370 67395
L82426 67367
L82566 67367
L82623 67339
" />
<path d="M82904 67592
L82904 67199
" />
<path d="M82904 67311
L82932 67255
L82960 67227
L83016 67199
L83073 67199
" />
<path d="M83494 67564
L83438 67592
L83326 67592
L83269 67564
L83241 67508
L83241 67283
L83269 67227
L83326 67199
L83438 67199
L83494 67227
L83523 67283
L83523 67339
L83241 67395
" />
<path d="M84507 67592
L84226 67592
L84226 67002
" />
<path d="M84704 67592
L84704 67199
" />
<path d="M84704 67002
L84676 67030
L84704 67058
L84732 67030
L84704 67002
L84704 67058
" />
<path d="M85238 67564
L85182 67592
L85069 67592
L85013 67564
L84985 67536
L84957 67480
L84957 67311
L84985 67255
L85013 67227
L85069 67199
L85182 67199
L85238 67227
" />
<path d="M85716 67564
L85660 67592
L85547 67592
L85491 67564
L85463 67508
L85463 67283
L85491 67227
L85547 67199
L85660 67199
L85716 67227
L85744 67283
L85744 67339
L85463 67395
" />
<path d="M85997 67199
L85997 67592
" />
<path d="M85997 67255
L86025 67227
L86082 67199
L86166 67199
L86222 67227
L86250 67283
L86250 67592
" />
<path d="M86785 67564
L86728 67592
L86616 67592
L86560 67564
L86532 67536
L86503 67480
L86503 67311
L86532 67255
L86560 67227
L86616 67199
L86728 67199
L86785 67227
" />
<path d="M87263 67564
L87206 67592
L87094 67592
L87038 67564
L87010 67508
L87010 67283
L87038 67227
L87094 67199
L87206 67199
L87263 67227
L87291 67283
L87291 67339
L87010 67395
" />
<path d="M87938 67199
L88078 67592
L88219 67199
" />
<path d="M88753 67592
L88416 67592
" />
<path d="M88584 67592
L88584 67002
L88528 67086
L88472 67142
L88416 67171
" />
<path d="M89006 67536
L89034 67564
L89006 67592
L88978 67564
L89006 67536
L89006 67592
" />
<path d="M89259 67058
L89287 67030
L89344 67002
L89484 67002
L89541 67030
L89569 67058
L89597 67114
L89597 67171
L89569 67255
L89231 67592
L89597 67592
" />
</g>
<g style="fill:#000000; fill-opacity:0.0; 
stroke:#000000; stroke-width:40; stroke-opacity:1; 
stroke-linecap:round; stroke-linejoin:round;">
</g>
<g style="fill:#000000; fill-opacity:0.0; 
stroke:#000000; stroke-width:59.0551; stroke-opacity:1; 
stroke-linecap:round; stroke-linejoin:round;">
<text x="70079.6" y="66439.8"
textLength="10604.6" font-size="787.402" lengthAdjust="spacingAndGlyphs"
text-anchor="start" opacity="0">Author: Krzysztof Stopa</text>
<path d="M70221 66242
L70502 66242
" />
<path d="M70165 66411
L70362 65821
L70559 66411
" />
<path d="M71009 66018
L71009 66411
" />
<path d="M70755 66018
L70755 66327
L70784 66383
L70840 66411
L70924 66411
L70980 66383
L71009 66355
" />
<path d="M71205 66018
L71430 66018
" />
<path d="M71290 65821
L71290 66327
L71318 66383
L71374 66411
L71430 66411
" />
<path d="M71627 66411
L71627 65821
" />
<path d="M71880 66411
L71880 66102
L71852 66046
L71796 66018
L71712 66018
L71655 66046
L71627 66074
" />
<path d="M72246 66411
L72190 66383
L72162 66355
L72133 66299
L72133 66130
L72162 66074
L72190 66046
L72246 66018
L72330 66018
L72386 66046
L72415 66074
L72443 66130
L72443 66299
L72415 66355
L72386 66383
L72330 66411
L72246 66411
" />
<path d="M72696 66411
L72696 66018
" />
<path d="M72696 66130
L72724 66074
L72752 66046
L72808 66018
L72865 66018
" />
<path d="M73061 66355
L73090 66383
L73061 66411
L73033 66383
L73061 66355
L73061 66411
" />
<path d="M73061 66046
L73090 66074
L73061 66102
L73033 66074
L73061 66046
L73061 66102
" />
<path d="M73793 66411
L73793 65821
" />
<path d="M74130 66411
L73877 66074
" />
<path d="M74130 65821
L73793 66158
" />
<path d="M74383 66411
L74383 66018
" />
<path d="M74383 66130
L74411 66074
L74439 66046
L74496 66018
L74552 66018
" />
<path d="M74692 66018
L75002 66018
L74692 66411
L75002 66411
" />
<path d="M75171 66018
L75311 66411
" />
<path d="M75452 66018
L75311 66411
L75255 66552
L75227 66580
L75171 66608
" />
<path d="M75649 66383
L75705 66411
L75817 66411
L75874 66383
L75902 66327
L75902 66299
L75874 66242
L75817 66214
L75733 66214
L75677 66186
L75649 66130
L75649 66102
L75677 66046
L75733 66018
L75817 66018
L75874 66046
" />
<path d="M76099 66018
L76408 66018
L76099 66411
L76408 66411
" />
<path d="M76548 66018
L76773 66018
" />
<path d="M76633 65821
L76633 66327
L76661 66383
L76717 66411
L76773 66411
" />
<path d="M77055 66411
L76998 66383
L76970 66355
L76942 66299
L76942 66130
L76970 66074
L76998 66046
L77055 66018
L77139 66018
L77195 66046
L77223 66074
L77251 66130
L77251 66299
L77223 66355
L77195 66383
L77139 66411
L77055 66411
" />
<path d="M77420 66018
L77645 66018
" />
<path d="M77505 66411
L77505 65905
L77533 65849
L77589 65821
L77645 65821
" />
<path d="M78264 66383
L78348 66411
L78489 66411
L78545 66383
L78573 66355
L78601 66299
L78601 66242
L78573 66186
L78545 66158
L78489 66130
L78376 66102
L78320 66074
L78292 66046
L78264 65989
L78264 65933
L78292 65877
L78320 65849
L78376 65821
L78517 65821
L78601 65849
" />
<path d="M78770 66018
L78995 66018
" />
<path d="M78854 65821
L78854 66327
L78883 66383
L78939 66411
L78995 66411
" />
<path d="M79276 66411
L79220 66383
L79192 66355
L79164 66299
L79164 66130
L79192 66074
L79220 66046
L79276 66018
L79361 66018
L79417 66046
L79445 66074
L79473 66130
L79473 66299
L79445 66355
L79417 66383
L79361 66411
L79276 66411
" />
<path d="M79726 66018
L79726 66608
" />
<path d="M79726 66046
L79782 66018
L79895 66018
L79951 66046
L79979 66074
L80007 66130
L80007 66299
L79979 66355
L79951 66383
L79895 66411
L79782 66411
L79726 66383
" />
<path d="M80514 66411
L80514 66102
L80485 66046
L80429 66018
L80317 66018
L80260 66046
" />
<path d="M80514 66383
L80457 66411
L80317 66411
L80260 66383
L80232 66327
L80232 66271
L80260 66214
L80317 66186
L80457 66186
L80514 66158
" />
</g>
<g style="fill:#000000; fill-opacity:0.0; 
stroke:#000000; stroke-width:40; stroke-opacity:1; 
stroke-linecap:round; stroke-linejoin:round;">
</g>
<g style="fill:#000000; fill-opacity:0.0; 
stroke:#000000; stroke-width:59.0551; stroke-opacity:1; 
stroke-linecap:round; stroke-linejoin:round;">
<path d="M77559 75396
L77559 76577
" />
</g>
<g style="fill:#000000; fill-opacity:0.0; 
stroke:#000000; stroke-width:40; stroke-opacity:1; 
stroke-linecap:round; stroke-linejoin:round;">
</g>
<g style="fill:#000000; fill-opacity:0.0; 
stroke:#000000; stroke-width:59.0551; stroke-opacity:1; 
stroke-linecap:round; stroke-linejoin:round;">
<path d="M102756 75396
L102756 77955
" />
</g>
<g style="fill:#848484; fill-opacity:0.0; 
stroke:#848484; stroke-width:59.0551; stroke-opacity:1; 
stroke-linecap:round; stroke-linejoin:round;">
</g>
<g style="fill:#848484; fill-opacity:0.0; 
stroke:#848484; stroke-width:47.2441; stroke-opacity:1; 
stroke-linecap:round; stroke-linejoin:round;">
<circle cx="70700" cy="49200" r="393.701" /> 
<circle cx="70700" cy="49200" r="196.85" /> 
<circle cx="70700" cy="42900" r="196.85" /> 
<circle cx="70700" cy="42900" r="393.701" /> 
<circle cx="40800" cy="49200" r="196.85" /> 
<circle cx="40800" cy="49200" r="393.701" /> 
<circle cx="40800" cy="42900" r="393.701" /> 
<circle cx="40800" cy="42900" r="196.85" /> 
</g>
<g style="fill:#848484; fill-opacity:0.0; 
stroke:#848484; stroke-width:39.3701; stroke-opacity:1; 
stroke-linecap:round; stroke-linejoin:round;">
<path d="M63172 47246
L63172 48561
" />
<path d="M60455 47246
L60337 47246
" />
<path d="M63290 47246
L63290 49919
" />
<path d="M63290 49919
L60337 49919
" />
<path d="M60337 47246
L60337 49919
" />
<path d="M63172 48561
L60455 48561
" />
<path d="M63290 47246
L63172 47246
" />
<path d="M60455 47246
L60455 48561
" />
<path d="M62503 51203
L61125 51203
" />
<path d="M61125 51203
L61125 49919
" />
<path d="M62503 51203
L62503 49919
" />
<circle cx="65050" cy="45289" r="1574.8" /> 
<path d="M41700 43600
L41700 42850
" />
<path d="M41700 42850
L41950 42600
" />
<path d="M41950 42600
L44700 42600
" />
<path d="M44700 42600
L44700 43600
" />
<path d="M44700 43600
L41700 43600
" />
<path d="M52250 43600
L52250 42850
" />
<path d="M52250 42850
L52500 42600
" />
<path d="M52500 42600
L59250 42600
" />
<path d="M59250 42600
L59250 43600
" />
<path d="M59250 43600
L52250 43600
" />
<path d="M69800 43600
L66800 43600
" />
<path d="M69800 42600
L69800 43600
" />
<path d="M67050 42600
L69800 42600
" />
<path d="M66800 42850
L67050 42600
" />
<path d="M66800 43600
L66800 42850
" />
<path d="M50800 43100
L50540 43100
" />
<path d="M47800 43100
L48059 43100
" />
<path d="M50540 42607
L48059 42607
" />
<path d="M50540 43592
L50540 42607
" />
<path d="M48059 43592
L50540 43592
" />
<path d="M48059 42607
L48059 43592
" />
<path d="M48059 44682
L48059 45667
" />
<path d="M48059 45667
L50540 45667
" />
<path d="M50540 45667
L50540 44682
" />
<path d="M50540 44682
L48059 44682
" />
<path d="M47800 45175
L48059 45175
" />
<path d="M50800 45175
L50540 45175
" />
<path d="M53750 45000
L53750 45259
" />
<path d="M53750 48000
L53750 47740
" />
<path d="M53257 45259
L53257 47740
" />
<path d="M54242 45259
L53257 45259
" />
<path d="M54242 47740
L54242 45259
" />
<path d="M53257 47740
L54242 47740
" />
<path d="M55257 47715
L56242 47715
" />
<path d="M56242 47715
L56242 45234
" />
<path d="M56242 45234
L55257 45234
" />
<path d="M55257 45234
L55257 47715
" />
<path d="M55750 47975
L55750 47715
" />
<path d="M55750 44975
L55750 45234
" />
<path d="M57750 44975
L57750 45234
" />
<path d="M57750 47975
L57750 47715
" />
<path d="M57257 45234
L57257 47715
" />
<path d="M58242 45234
L57257 45234
" />
<path d="M58242 47715
L58242 45234
" />
<path d="M57257 47715
L58242 47715
" />
<path d="M60459 42607
L60459 43592
" />
<path d="M60459 43592
L62940 43592
" />
<path d="M62940 43592
L62940 42607
" />
<path d="M62940 42607
L60459 42607
" />
<path d="M60200 43100
L60459 43100
" />
<path d="M63200 43100
L62940 43100
" />
</g>
<g style="fill:#848484; fill-opacity:0.0; 
stroke:#848484; stroke-width:94.4882; stroke-opacity:1; 
stroke-linecap:round; stroke-linejoin:round;">
<path d="M44950 48700
L41550 48700
" />
<path d="M41550 48700
L41550 49900
" />
<path d="M41550 49900
L44950 49900
" />
<path d="M44950 49900
L44950 48700
" />
</g>
<g style="fill:#848484; fill-opacity:0.0; 
stroke:#848484; stroke-width:39.3701; stroke-opacity:1; 
stroke-linecap:round; stroke-linejoin:round;">
<path d="M50403 51203
L50403 49919
" />
<path d="M49025 51203
L49025 49919
" />
<path d="M50403 51203
L49025 51203
" />
<path d="M48355 47246
L48355 48561
" />
<path d="M51190 47246
L51072 47246
" />
<path d="M51072 48561
L48355 48561
" />
<path d="M48237 47246
L48237 49919
" />
<path d="M51190 49919
L48237 49919
" />
<path d="M51190 47246
L51190 49919
" />
<path d="M48355 47246
L48237 47246
" />
<path d="M51072 47246
L51072 48561
" />
<path d="M68803 51203
L68803 49919
" />
<path d="M67425 51203
L67425 49919
" />
<path d="M68803 51203
L67425 51203
" />
<path d="M66755 47246
L66755 48561
" />
<path d="M69590 47246
L69472 47246
" />
<path d="M69472 48561
L66755 48561
" />
<path d="M66637 47246
L66637 49919
" />
<path d="M69590 49919
L66637 49919
" />
<path d="M69590 47246
L69590 49919
" />
<path d="M66755 47246
L66637 47246
" />
<path d="M69472 47246
L69472 48561
" />
<g >
</g>
<g >
</g>
<g >
</g>
<g >
</g>
<g >
</g>
<g >
</g>
<g >
</g>
<g >
</g>
<g >
</g>
<g >
</g>
<g >
</g>
<g >
</g>
<g >
</g>
<g >
</g>
<g >
</g>
<g >
</g>
<g >
</g>
<g >
</g>
<g >
</g>
<g >
</g>
<g >
</g>
</g>
<g style="fill:#848484; fill-opacity:0.0; 
stroke:#848484; stroke-width:39.3701; stroke-opacity:1; 
stroke-linecap:round; stroke-linejoin:round;">
</g>
<g style="fill:#848484; fill-opacity:0.0; 
stroke:#848484; stroke-width:30; stroke-opacity:1; 
stroke-linecap:round; stroke-linejoin:round;">
<text x="65075" y="45375"
textLength="1878.1" font-size="266.667" lengthAdjust="spacingAndGlyphs"
text-anchor="middle" opacity="0">470uF, 6.3V</text>
<path d="M64298 45232
L64298 45365
" />
<path d="M64251 45155
L64203 45298
L64327 45298
" />
<path d="M64384 45165
L64517 45165
L64432 45365
" />
<path d="M64632 45165
L64651 45165
L64670 45175
L64679 45184
L64689 45203
L64698 45241
L64698 45289
L64689 45327
L64679 45346
L64670 45355
L64651 45365
L64632 45365
L64613 45355
L64603 45346
L64594 45327
L64584 45289
L64584 45241
L64594 45203
L64603 45184
L64613 45175
L64632 45165
" />
<path d="M64870 45232
L64870 45365
" />
<path d="M64784 45232
L64784 45336
L64794 45355
L64813 45365
L64841 45365
L64860 45355
L64870 45346
" />
<path d="M65032 45260
L64965 45260
" />
<path d="M64965 45365
L64965 45165
L65060 45165
" />
<path d="M65146 45355
L65146 45365
L65136 45384
L65127 45394
" />
<path d="M65470 45165
L65432 45165
L65413 45175
L65403 45184
L65384 45213
L65375 45251
L65375 45327
L65384 45346
L65394 45355
L65413 45365
L65451 45365
L65470 45355
L65479 45346
L65489 45327
L65489 45279
L65479 45260
L65470 45251
L65451 45241
L65413 45241
L65394 45251
L65384 45260
L65375 45279
" />
<path d="M65575 45346
L65584 45355
L65575 45365
L65565 45355
L65575 45346
L65575 45365
" />
<path d="M65651 45165
L65775 45165
L65708 45241
L65736 45241
L65755 45251
L65765 45260
L65775 45279
L65775 45327
L65765 45346
L65755 45355
L65736 45365
L65679 45365
L65660 45355
L65651 45346
" />
<path d="M65832 45165
L65898 45365
L65965 45165
" />
</g>
<g style="fill:#848484; fill-opacity:0.0; 
stroke:#848484; stroke-width:40; stroke-opacity:1; 
stroke-linecap:round; stroke-linejoin:round;">
<text x="63000" y="45450"
textLength="624.714" font-size="400" lengthAdjust="spacingAndGlyphs"
text-anchor="middle" opacity="0">C1</text>
<path d="M62950 45407
L62935 45421
L62892 45435
L62864 45435
L62821 45421
L62792 45392
L62778 45364
L62764 45307
L62764 45264
L62778 45207
L62792 45178
L62821 45150
L62864 45135
L62892 45135
L62935 45150
L62950 45164
" />
<path d="M63235 45435
L63064 45435
" />
<path d="M63150 45435
L63150 45135
L63121 45178
L63092 45207
L63064 45221
" />
</g>
<g style="fill:#848484; fill-opacity:0.0; 
stroke:#848484; stroke-width:59.0551; stroke-opacity:1; 
stroke-linecap:round; stroke-linejoin:round;">
<text x="55750" y="43296.9"
textLength="726.916" font-size="524.934" lengthAdjust="spacingAndGlyphs"
text-anchor="middle" opacity="0">J2</text>
<path d="M55618 42884
L55618 43165
L55600 43221
L55562 43259
L55506 43278
L55468 43278
" />
<path d="M55787 42921
L55806 42903
L55843 42884
L55937 42884
L55974 42903
L55993 42921
L56012 42959
L56012 42996
L55993 43053
L55768 43278
L56012 43278
" />
</g>
<g style="fill:#848484; fill-opacity:0.0; 
stroke:#848484; stroke-width:30; stroke-opacity:1; 
stroke-linecap:round; stroke-linejoin:round;">
<text x="67310" y="44210"
textLength="591.057" font-size="400" lengthAdjust="spacingAndGlyphs"
text-anchor="middle" opacity="0">J3</text>
<path d="M67210 43895
L67210 44110
L67195 44152
L67167 44181
L67124 44195
L67095 44195
" />
<path d="M67324 43895
L67510 43895
L67410 44010
L67452 44010
L67481 44024
L67495 44038
L67510 44067
L67510 44138
L67495 44167
L67481 44181
L67452 44195
L67367 44195
L67338 44181
L67324 44167
" />
</g>
<g style="fill:#848484; fill-opacity:0.0; 
stroke:#848484; stroke-width:40; stroke-opacity:1; 
stroke-linecap:round; stroke-linejoin:round;">
<text x="49400" y="43250"
textLength="853.286" font-size="400" lengthAdjust="spacingAndGlyphs"
text-anchor="middle" opacity="0">22k</text>
<path d="M49050 42964
L49064 42950
L49092 42935
L49164 42935
L49192 42950
L49207 42964
L49221 42992
L49221 43021
L49207 43064
L49035 43235
L49221 43235
" />
<path d="M49335 42964
L49350 42950
L49378 42935
L49450 42935
L49478 42950
L49492 42964
L49507 42992
L49507 43021
L49492 43064
L49321 43235
L49507 43235
" />
<path d="M49635 43235
L49635 42935
" />
<path d="M49664 43121
L49750 43235
" />
<path d="M49750 43035
L49635 43150
" />
<text x="47800" y="44150"
textLength="637.714" font-size="400" lengthAdjust="spacingAndGlyphs"
text-anchor="middle" opacity="0">R1</text>
<path d="M47750 44135
L47650 43992
" />
<path d="M47578 44135
L47578 43835
L47692 43835
L47721 43850
L47735 43864
L47750 43892
L47750 43935
L47735 43964
L47721 43978
L47692 43992
L47578 43992
" />
<path d="M48035 44135
L47864 44135
" />
<path d="M47950 44135
L47950 43835
L47921 43878
L47892 43907
L47864 43921
" />
<text x="49400" y="45350"
textLength="866.286" font-size="400" lengthAdjust="spacingAndGlyphs"
text-anchor="middle" opacity="0">22k</text>
<path d="M49050 45064
L49064 45050
L49092 45035
L49164 45035
L49192 45050
L49207 45064
L49221 45092
L49221 45121
L49207 45164
L49035 45335
L49221 45335
" />
<path d="M49335 45064
L49350 45050
L49378 45035
L49450 45035
L49478 45050
L49492 45064
L49507 45092
L49507 45121
L49492 45164
L49321 45335
L49507 45335
" />
<path d="M49635 45335
L49635 45035
" />
<path d="M49664 45221
L49750 45335
" />
<path d="M49750 45135
L49635 45250
" />
<text x="47800" y="46250"
textLength="637.714" font-size="400" lengthAdjust="spacingAndGlyphs"
text-anchor="middle" opacity="0">R2</text>
<path d="M47750 46235
L47650 46092
" />
<path d="M47578 46235
L47578 45935
L47692 45935
L47721 45950
L47735 45964
L47750 45992
L47750 46035
L47735 46064
L47721 46078
L47692 46092
L47578 46092
" />
<path d="M47864 45964
L47878 45950
L47907 45935
L47978 45935
L48007 45950
L48021 45964
L48035 45992
L48035 46021
L48021 46064
L47850 46235
L48035 46235
" />
<g transform="rotate(-90 53750 46500)">
<text x="53750" y="46650"
textLength="866.286" font-size="400" lengthAdjust="spacingAndGlyphs"
text-anchor="middle" opacity="0">10k</text>
</g>
<path d="M53885 46678
L53885 46850
" />
<path d="M53885 46764
L53585 46764
L53628 46792
L53657 46821
L53671 46850
" />
<path d="M53585 46492
L53585 46464
L53600 46435
L53614 46421
L53642 46407
L53700 46392
L53771 46392
L53828 46407
L53857 46421
L53871 46435
L53885 46464
L53885 46492
L53871 46521
L53857 46535
L53828 46550
L53771 46564
L53700 46564
L53642 46550
L53614 46535
L53600 46521
L53585 46492
" />
<path d="M53885 46264
L53585 46264
" />
<path d="M53771 46235
L53885 46150
" />
<path d="M53685 46150
L53800 46264
" />
<g transform="rotate(-90 52850 48000)">
<text x="52850" y="48150"
textLength="637.714" font-size="400" lengthAdjust="spacingAndGlyphs"
text-anchor="middle" opacity="0">R3</text>
</g>
<path d="M52985 48050
L52842 48150
" />
<path d="M52985 48221
L52685 48221
L52685 48107
L52700 48078
L52714 48064
L52742 48050
L52785 48050
L52814 48064
L52828 48078
L52842 48107
L52842 48221
" />
<path d="M52685 47950
L52685 47764
L52800 47864
L52800 47821
L52814 47792
L52828 47778
L52857 47764
L52928 47764
L52957 47778
L52971 47792
L52985 47821
L52985 47907
L52971 47935
L52957 47950
" />
<g transform="rotate(-90 55750 46500)">
<text x="55750" y="46650"
textLength="866.286" font-size="400" lengthAdjust="spacingAndGlyphs"
text-anchor="middle" opacity="0">10k</text>
</g>
<path d="M55885 46678
L55885 46850
" />
<path d="M55885 46764
L55585 46764
L55628 46792
L55657 46821
L55671 46850
" />
<path d="M55585 46492
L55585 46464
L55600 46435
L55614 46421
L55642 46407
L55700 46392
L55771 46392
L55828 46407
L55857 46421
L55871 46435
L55885 46464
L55885 46492
L55871 46521
L55857 46535
L55828 46550
L55771 46564
L55700 46564
L55642 46550
L55614 46535
L55600 46521
L55585 46492
" />
<path d="M55885 46264
L55585 46264
" />
<path d="M55771 46235
L55885 46150
" />
<path d="M55685 46150
L55800 46264
" />
<g transform="rotate(-90 56700 48000)">
<text x="56700" y="48150"
textLength="637.714" font-size="400" lengthAdjust="spacingAndGlyphs"
text-anchor="middle" opacity="0">R4</text>
</g>
<path d="M56835 48050
L56692 48150
" />
<path d="M56835 48221
L56535 48221
L56535 48107
L56550 48078
L56564 48064
L56592 48050
L56635 48050
L56664 48064
L56678 48078
L56692 48107
L56692 48221
" />
<path d="M56635 47792
L56835 47792
" />
<path d="M56521 47864
L56735 47935
L56735 47750
" />
<g transform="rotate(-90 57750 46500)">
<text x="57750" y="46650"
textLength="866.286" font-size="400" lengthAdjust="spacingAndGlyphs"
text-anchor="middle" opacity="0">10k</text>
</g>
<path d="M57885 46678
L57885 46850
" />
<path d="M57885 46764
L57585 46764
L57628 46792
L57657 46821
L57671 46850
" />
<path d="M57585 46492
L57585 46464
L57600 46435
L57614 46421
L57642 46407
L57700 46392
L57771 46392
L57828 46407
L57857 46421
L57871 46435
L57885 46464
L57885 46492
L57871 46521
L57857 46535
L57828 46550
L57771 46564
L57700 46564
L57642 46550
L57614 46535
L57600 46521
L57585 46492
" />
<path d="M57885 46264
L57585 46264
" />
<path d="M57771 46235
L57885 46150
" />
<path d="M57685 46150
L57800 46264
" />
<g transform="rotate(-90 58700 47980)">
<text x="58700" y="48130"
textLength="637.714" font-size="400" lengthAdjust="spacingAndGlyphs"
text-anchor="middle" opacity="0">R5</text>
</g>
<path d="M58835 48030
L58692 48130
" />
<path d="M58835 48201
L58535 48201
L58535 48087
L58550 48058
L58564 48044
L58592 48030
L58635 48030
L58664 48044
L58678 48058
L58692 48087
L58692 48201
" />
<path d="M58535 47758
L58535 47901
L58678 47915
L58664 47901
L58650 47872
L58650 47801
L58664 47772
L58678 47758
L58707 47744
L58778 47744
L58807 47758
L58821 47772
L58835 47801
L58835 47872
L58821 47901
L58807 47915
" />
<text x="61700" y="43250"
textLength="909.143" font-size="400" lengthAdjust="spacingAndGlyphs"
text-anchor="middle" opacity="0">470</text>
<path d="M61471 43035
L61471 43235
" />
<path d="M61400 42921
L61328 43135
L61514 43135
" />
<path d="M61600 42935
L61800 42935
L61671 43235
" />
<path d="M61971 42935
L62000 42935
L62028 42950
L62042 42964
L62057 42992
L62071 43050
L62071 43121
L62057 43178
L62042 43207
L62028 43221
L62000 43235
L61971 43235
L61942 43221
L61928 43207
L61914 43178
L61900 43121
L61900 43050
L61914 42992
L61928 42964
L61942 42950
L61971 42935
" />
<text x="60200" y="44150"
textLength="637.714" font-size="400" lengthAdjust="spacingAndGlyphs"
text-anchor="middle" opacity="0">R6</text>
<path d="M60150 44135
L60050 43992
" />
<path d="M59978 44135
L59978 43835
L60092 43835
L60121 43850
L60135 43864
L60150 43892
L60150 43935
L60135 43964
L60121 43978
L60092 43992
L59978 43992
" />
<path d="M60407 43835
L60350 43835
L60321 43850
L60307 43864
L60278 43907
L60264 43964
L60264 44078
L60278 44107
L60292 44121
L60321 44135
L60378 44135
L60407 44121
L60421 44107
L60435 44078
L60435 44007
L60421 43978
L60407 43964
L60378 43950
L60321 43950
L60292 43964
L60278 43978
L60264 44007
" />
<g >
</g>
</g>
<g style="fill:#000000; fill-opacity:0.0; 
stroke:#000000; stroke-width:40; stroke-opacity:1; 
stroke-linecap:round; stroke-linejoin:round;">
</g>
<g style="fill:#C2C200; fill-opacity:0.0; 
stroke:#C2C200; stroke-width:40; stroke-opacity:1; 
stroke-linecap:round; stroke-linejoin:round;">
</g>
<g style="fill:#C2C200; fill-opacity:0.0; 
stroke:#C2C200; stroke-width:19.685; stroke-opacity:1; 
stroke-linecap:round; stroke-linejoin:round;">
<path d="M40000 42100
L40000 50000
" />
<path d="M71500 42100
L40000 42100
" />
<path d="M71500 50000
L71500 42100
" />
<path d="M40000 50000
L71500 50000
" />
<g >
</g>
<g >
</g>
<g >
</g>
<g >
</g>
<g >
</g>
<g >
</g>
<g >
</g>
<g >
</g>
<g >
</g>
<g >
</g>
<g >
</g>
<g >
</g>
<g >
</g>
<g >
</g>
<g >
</g>
<g >
</g>
<g >
</g>
<g >
</g>
<g >
</g>
<g >
</g>
<g >
</g>
<g >
</g>
</g> 
</svg>
