<?xml version="1.0" standalone="no"?>
 <!DOCTYPE svg PUBLIC "-//W3C//DTD SVG 1.1//EN" 
 "http://www.w3.org/Graphics/SVG/1.1/DTD/svg11.dtd"> 
<svg
  xmlns:svg="http://www.w3.org/2000/svg"
  xmlns="http://www.w3.org/2000/svg"
  xmlns:xlink="http://www.w3.org/1999/xlink"
  version="1.1"
  width="29.700220cm" height="21.000720cm" viewBox="0 0 116930 82680">
<title>SVG Picture created as bikepixel rear-F_SilkS.svg date 2021/06/30 13:02:56 </title>
  <desc>Picture generated by PCBNEW </desc>
<g style="fill:#000000; fill-opacity:1;stroke:#000000; stroke-opacity:1;
stroke-linecap:round; stroke-linejoin:round;"
 transform="translate(0 0) scale(1 1)">
</g>
<g style="fill:#000000; fill-opacity:0.0; 
stroke:#000000; stroke-width:-0.000393701; stroke-opacity:1; 
stroke-linecap:round; stroke-linejoin:round;">
</g>
<g style="fill:#000000; fill-opacity:1.0; 
stroke:#000000; stroke-width:3.93701; stroke-opacity:1; 
stroke-linecap:round; stroke-linejoin:round;">
<path style="fill:#000000; fill-opacity:1.0; 
stroke:#000000; stroke-width:3.93701; stroke-opacity:1; 
stroke-linecap:round; stroke-linejoin:round;fill-rule:evenodd;"
d="M 42435,38160
42152.5,38160
42152.5,37875
42435,37875
Z" /> 
<path style="fill:#000000; fill-opacity:1.0; 
stroke:#000000; stroke-width:3.93701; stroke-opacity:1; 
stroke-linecap:round; stroke-linejoin:round;fill-rule:evenodd;"
d="M 43842.5,38510
43557.5,38510
43558.1,38368.1
43558.8,38226.2
43700.6,38225.6
43842.5,38225
Z" /> 
<path style="fill:#000000; fill-opacity:1.0; 
stroke:#000000; stroke-width:3.93701; stroke-opacity:1; 
stroke-linecap:round; stroke-linejoin:round;fill-rule:evenodd;"
d="M 43349.4,38225.6
43491.2,38226.2
43491.9,38368.1
43492.5,38510
43207.5,38510
43207.5,38225
Z" /> 
<path style="fill:#000000; fill-opacity:1.0; 
stroke:#000000; stroke-width:3.93701; stroke-opacity:1; 
stroke-linecap:round; stroke-linejoin:round;fill-rule:evenodd;"
d="M 43139.4,38368.1
43140,38510
42855,38510
42855.6,38368.1
42856.2,38226.2
43138.8,38226.2
Z" /> 
<path style="fill:#000000; fill-opacity:1.0; 
stroke:#000000; stroke-width:3.93701; stroke-opacity:1; 
stroke-linecap:round; stroke-linejoin:round;fill-rule:evenodd;"
d="M 42787.5,38510
42502.5,38510
42503.1,38368.1
42503.8,38226.2
42645.6,38225.6
42787.5,38225
Z" /> 
<path style="fill:#000000; fill-opacity:1.0; 
stroke:#000000; stroke-width:3.93701; stroke-opacity:1; 
stroke-linecap:round; stroke-linejoin:round;fill-rule:evenodd;"
d="M 42435,38510
42152.5,38510
42152.5,38225
42435,38225
Z" /> 
<path style="fill:#000000; fill-opacity:1.0; 
stroke:#000000; stroke-width:3.93701; stroke-opacity:1; 
stroke-linecap:round; stroke-linejoin:round;fill-rule:evenodd;"
d="M 44022.5,39385
43737.5,39385
43738.1,39243.1
43738.8,39101.2
43880.6,39100.6
44022.5,39100
Z" /> 
<path style="fill:#000000; fill-opacity:1.0; 
stroke:#000000; stroke-width:3.93701; stroke-opacity:1; 
stroke-linecap:round; stroke-linejoin:round;fill-rule:evenodd;"
d="M 42121.9,39100.6
42263.8,39101.2
42264.4,39243.1
42265,39385
41980,39385
41980,39100
Z" /> 
<path style="fill:#000000; fill-opacity:1.0; 
stroke:#000000; stroke-width:3.93701; stroke-opacity:1; 
stroke-linecap:round; stroke-linejoin:round;fill-rule:evenodd;"
d="M 71268.8,37553.5
71301.8,37728.6
71423.6,37778.8
71545.4,37829
71691.4,37729.6
71732.3,37702
71769.3,37677.3
71800.7,37656.7
71824.6,37641.3
71839.4,37632.2
71843.5,37630.3
71850.8,37635.3
71866.3,37649.2
71888.4,37670.1
71915.3,37696.3
71945.2,37726.1
71976.4,37757.7
72007.2,37789.2
72035.8,37819
72060.5,37845.2
72079.4,37866.1
72091,37879.9
72093.8,37884.5
72089.8,37893
72078.6,37911.7
72061.5,37938.7
72039.5,37972.1
72013.8,38010.3
71998.9,38032
71971.8,38071.8
71947.7,38107.6
71927.8,38137.8
71913.2,38160.5
71905.2,38174
71904,38176.9
71906.7,38184.9
71914.2,38203.7
71925.2,38230.6
71938.7,38263
71953.6,38298.1
71968.7,38333.4
71982.8,38366.3
71995,38394
72004,38413.9
72008.7,38423.4
72008.9,38423.8
72016.4,38425.6
72036.1,38429.7
72066.1,38435.5
72104.3,38442.9
72148.7,38451.2
72174.6,38456.1
72222,38465.1
72264.9,38473.7
72301,38481.4
72328.1,38487.7
72344.2,38492.2
72347.4,38493.6
72350.6,38503.2
72353.2,38524.8
72355.1,38555.9
72356.4,38594.1
72357.2,38636.7
72357.3,38681.3
72356.8,38725.2
72355.7,38766.1
72354.1,38801.3
72351.8,38828.3
72348.9,38844.6
72347.2,38848
72336.9,38852
72315.1,38857.8
72284.7,38864.7
72248.5,38872
72235.9,38874.3
72175,38885.5
72126.9,38894.4
72090,38901.6
72062.7,38907.3
72043.5,38911.9
72030.7,38915.8
72022.7,38919.3
72018,38922.7
72017.3,38923.4
72010.7,38934.4
72000.6,38955.8
71988.1,38985
71974.1,39019.3
71959.7,39056.1
71945.8,39092.9
71933.5,39127
71923.7,39155.8
71917.5,39176.6
71915.9,39186.9
71916,39187.3
71921.5,39195.7
71934,39214.2
71952.1,39240.9
71974.6,39273.8
72000.1,39311
72007.4,39321.6
72033.3,39360
72056.2,39394.9
72074.6,39424.6
72087.5,39446.8
72093.5,39459.7
72093.8,39461.3
72088.7,39469.6
72074.8,39486
72053.7,39508.8
72027.2,39536.3
71997.3,39566.6
71965.6,39597.9
71934,39628.6
71904.2,39656.8
71878.1,39680.7
71857.5,39698.7
71844.1,39708.9
71840.4,39710.6
71831.7,39706.7
71814.1,39696.1
71790.3,39680.6
71772,39668.2
71738.8,39645.3
71699.5,39618.4
71660,39591.6
71638.8,39577.2
71567.1,39528.7
71506.8,39561.2
71479.4,39575.5
71456.1,39586.6
71440.3,39592.9
71436.3,39593.8
71431.4,39587.3
71421.9,39568.9
71408.4,39540.4
71391.6,39503.4
71372.2,39459.6
71351,39410.7
71328.6,39358.4
71305.8,39304.5
71283.3,39250.5
71261.8,39198.2
71242,39149.3
71224.6,39105.4
71210.3,39068.3
71199.8,39039.7
71194,39021.2
71193,39014.9
71200.5,39006.8
71216.9,38993.7
71238.9,38978.2
71240.7,38977
71297.3,38931.7
71343,38878.8
71377.3,38820
71399.9,38757.1
71410.3,38691.6
71408.1,38625.4
71393,38560.1
71364.5,38497.4
71356.2,38483.7
71312.6,38428.2
71261.1,38383.7
71203.6,38350.4
71141.7,38328.4
71077.2,38318.1
71011.9,38319.5
70947.7,38333.1
70886.2,38358.9
70829.4,38397.3
70811.8,38412.9
70767,38461.7
70734.3,38513
70712,38570.6
70699.5,38627.6
70696.4,38691.7
70706.7,38756.1
70729.2,38818.6
70763,38877.1
70807.1,38929.4
70860.3,38973.3
70867.3,38978
70889.4,38993.1
70906.3,39006.2
70914.3,39014.6
70914.4,39014.9
70912.7,39024
70905.9,39044.6
70894.6,39075
70879.6,39113.5
70861.7,39158.5
70841.5,39208.2
70819.7,39260.9
70797,39315
70774.3,39368.8
70752,39420.6
70731.1,39468.6
70712.2,39511.2
70696,39546.7
70683.2,39573.4
70674.5,39589.5
70671,39593.8
70660.4,39590.5
70640.4,39581.6
70614.6,39568.7
70600.5,39561.2
70540.2,39528.7
70468.5,39577.2
70431.8,39602.1
70391.7,39629.4
70354.2,39655.2
70335.3,39668.2
70308.9,39685.9
70286.4,39700
70271,39708.6
70266,39710.5
70258.7,39705.5
70242.5,39691.8
70219.1,39670.7
70189.9,39643.7
70156.6,39612.1
70135.6,39591.8
70098.7,39555.6
70066.8,39523.2
70041.3,39496
70023.3,39475.5
70014.2,39462.8
70013.3,39460.3
70017.4,39450.5
70028.6,39430.9
70045.7,39403.2
70067.5,39369.6
70092.7,39332.1
70099.9,39321.6
70126,39283.5
70149.5,39249.3
70168.9,39220.7
70183,39199.8
70190.6,39188.5
70191.3,39187.3
70190.2,39178.3
70184.4,39158.4
70175,39130.3
70162.9,39096.7
70149.1,39060
70134.7,39023.1
70120.6,38988.3
70107.9,38958.5
70097.5,38936.2
70090.5,38924
70090,38923.4
70085.7,38919.9
70078.5,38916.5
70066.7,38912.7
70048.8,38908.3
70023.1,38902.8
69988.2,38895.9
69942.4,38887.3
69884,38876.6
69871.4,38874.3
69834,38867.1
69801.4,38860
69776.4,38853.8
69762,38849.1
69760.1,38848
69756.9,38838.2
69754.3,38816.5
69752.3,38785.2
69751,38747
69750.2,38704.3
69750,38659.7
69750.4,38615.8
69751.4,38575
69753.1,38539.9
69755.3,38513
69758.1,38496.9
69759.9,38493.6
69769.4,38490.2
69791.2,38484.8
69823,38477.8
69862.6,38469.6
69908,38460.7
69932.7,38456.1
69979.6,38447.3
70021.4,38439.4
70056.1,38432.6
70081.7,38427.5
70096,38424.5
70098.4,38423.8
70102.3,38416.1
70110.8,38397.6
70122.5,38370.9
70136.4,38338.6
70151.4,38303.5
70166.4,38268.1
70180.2,38235.1
70191.7,38207.1
70199.7,38186.9
70203.2,38177
70203.3,38176.5
70199.3,38168.7
70188.1,38150.7
70171,38124.3
70149,38091.3
70123.3,38053.5
70108.4,38031.8
70081.2,37991.9
70057.1,37955.8
70037.1,37925.1
70022.6,37901.8
70014.7,37887.6
70013.5,37884.4
70018.4,37877
70032.1,37861.2
70052.7,37838.8
70078.6,37811.5
70107.9,37781.1
70139,37749.4
70170.1,37718.2
70199.4,37689.1
70225.2,37664.1
70245.8,37644.8
70259.4,37633.1
70264,37630.3
70271.4,37634.2
70289.1,37645.3
70315.4,37662.4
70348.6,37684.3
70387,37710
70415.9,37729.6
70561.9,37829
70805.5,37728.6
70838.5,37553.5
70871.5,37378.5
71235.8,37378.5
Z" /> 
</g>
<g style="fill:#000000; fill-opacity:0.0; 
stroke:#000000; stroke-width:47.2441; stroke-opacity:1; 
stroke-linecap:round; stroke-linejoin:round;">
<circle cx="71750" cy="42250" r="492.52" /> 
<circle cx="71750" cy="35950" r="492.52" /> 
<circle cx="41850" cy="42250" r="492.52" /> 
<circle cx="41850" cy="35950" r="492.52" /> 
<path d="M63533 41568
L62194 41568
" />
<path d="M64179 41568
L63966 41568
" />
<path d="M61344 40453
L61344 40253
" />
<path d="M61549 40253
L61344 40253
" />
<path d="M61549 40453
L61549 40253
" />
<path d="M61761 41568
L61549 41568
" />
<path d="M64383 40453
L64383 40253
" />
<path d="M64179 40453
L64179 40253
" />
<path d="M61549 41568
L61549 41477
" />
<path d="M64383 43012
L64383 41477
" />
<path d="M64383 40253
L64179 40253
" />
<path d="M61344 43012
L61344 41477
" />
<path d="M64383 43012
L61344 43012
" />
<path d="M64179 41568
L64179 41477
" />
<circle cx="66100" cy="38339" r="1622.05" /> 
<path d="M43750 36673
L43750 35626
" />
<path d="M43750 36673
L45773 36673
" />
<path d="M45773 36673
L45773 35626
" />
<path d="M43750 35626
L45773 35626
" />
<path d="M42726 35626
L43250 35626
" />
<path d="M42726 36150
L42726 35626
" />
<path d="M54300 36673
L54300 35626
" />
<path d="M54300 36673
L60323 36673
" />
<path d="M60323 36673
L60323 35626
" />
<path d="M54300 35626
L60323 35626
" />
<path d="M53276 35626
L53800 35626
" />
<path d="M53276 36150
L53276 35626
" />
<path d="M67826 36150
L67826 35626
" />
<path d="M67826 35626
L68350 35626
" />
<path d="M68850 35626
L70873 35626
" />
<path d="M70873 36673
L70873 35626
" />
<path d="M68850 36673
L70873 36673
" />
<path d="M68850 36673
L68850 35626
" />
<path d="M51637 36689
L51637 36559
" />
<path d="M49062 36689
L51637 36689
" />
<path d="M49062 36559
L49062 36689
" />
<path d="M51637 35610
L51637 35740
" />
<path d="M49062 35610
L51637 35610
" />
<path d="M49062 35740
L49062 35610
" />
<path d="M49062 37815
L49062 37685
" />
<path d="M49062 37685
L51637 37685
" />
<path d="M51637 37685
L51637 37815
" />
<path d="M49062 38634
L49062 38764
" />
<path d="M49062 38764
L51637 38764
" />
<path d="M51637 38764
L51637 38634
" />
<path d="M55339 38262
L55209 38262
" />
<path d="M55339 40837
L55339 38262
" />
<path d="M55209 40837
L55339 40837
" />
<path d="M54260 38262
L54390 38262
" />
<path d="M54260 40837
L54260 38262
" />
<path d="M54390 40837
L54260 40837
" />
<path d="M56390 40812
L56260 40812
" />
<path d="M56260 40812
L56260 38237
" />
<path d="M56260 38237
L56390 38237
" />
<path d="M57209 40812
L57339 40812
" />
<path d="M57339 40812
L57339 38237
" />
<path d="M57339 38237
L57209 38237
" />
<path d="M59339 38237
L59209 38237
" />
<path d="M59339 40812
L59339 38237
" />
<path d="M59209 40812
L59339 40812
" />
<path d="M58260 38237
L58390 38237
" />
<path d="M58260 40812
L58260 38237
" />
<path d="M58390 40812
L58260 40812
" />
<path d="M61462 35740
L61462 35610
" />
<path d="M61462 35610
L64037 35610
" />
<path d="M64037 35610
L64037 35740
" />
<path d="M61462 36559
L61462 36689
" />
<path d="M61462 36689
L64037 36689
" />
<path d="M64037 36689
L64037 36559
" />
<path d="M42600 42950
L42600 41750
" />
<path d="M46000 42950
L42600 42950
" />
<path d="M46000 41750
L46000 42950
" />
<path d="M42600 41750
L46000 41750
" />
</g>
<g style="fill:#000000; fill-opacity:0.0; 
stroke:#000000; stroke-width:94.4882; stroke-opacity:1; 
stroke-linecap:round; stroke-linejoin:round;">
<path d="M43600 42950
L45000 42950
" />
</g>
<g style="fill:#000000; fill-opacity:0.0; 
stroke:#000000; stroke-width:47.2441; stroke-opacity:1; 
stroke-linecap:round; stroke-linejoin:round;">
<path d="M43600 42950
L43600 44750
" />
<path d="M44000 44750
L44000 42950
" />
<path d="M43600 44750
L43700 44850
" />
<path d="M43700 44850
L43900 44850
" />
<path d="M43900 44850
L44000 44750
" />
<path d="M52079 41568
L52079 41477
" />
<path d="M52283 43012
L49244 43012
" />
<path d="M49244 43012
L49244 41477
" />
<path d="M52283 40253
L52079 40253
" />
<path d="M52283 43012
L52283 41477
" />
<path d="M49449 41568
L49449 41477
" />
<path d="M52079 40453
L52079 40253
" />
<path d="M52283 40453
L52283 40253
" />
<path d="M49661 41568
L49449 41568
" />
<path d="M49449 40453
L49449 40253
" />
<path d="M49449 40253
L49244 40253
" />
<path d="M49244 40453
L49244 40253
" />
<path d="M52079 41568
L51866 41568
" />
<path d="M51433 41568
L50094 41568
" />
<path d="M70479 41568
L70479 41477
" />
<path d="M70683 43012
L67644 43012
" />
<path d="M67644 43012
L67644 41477
" />
<path d="M70683 40253
L70479 40253
" />
<path d="M70683 43012
L70683 41477
" />
<path d="M67849 41568
L67849 41477
" />
<path d="M70479 40453
L70479 40253
" />
<path d="M70683 40453
L70683 40253
" />
<path d="M68061 41568
L67849 41568
" />
<path d="M67849 40453
L67849 40253
" />
<path d="M67849 40253
L67644 40253
" />
<path d="M67644 40453
L67644 40253
" />
<path d="M70479 41568
L70266 41568
" />
<path d="M69833 41568
L68494 41568
" />
</g>
<g style="fill:#000000; fill-opacity:0.0; 
stroke:#000000; stroke-width:30; stroke-opacity:1; 
stroke-linecap:round; stroke-linejoin:round;">
<text x="45990" y="39130"
textLength="2452" font-size="266.667" lengthAdjust="spacingAndGlyphs"
text-anchor="middle" opacity="0">CERN OHL v.1.2</text>
<path d="M44951 39101
L44942 39110
L44913 39120
L44894 39120
L44866 39110
L44847 39091
L44837 39072
L44828 39034
L44828 39006
L44837 38968
L44847 38949
L44866 38930
L44894 38920
L44913 38920
L44942 38930
L44951 38939
" />
<path d="M45037 39015
L45104 39015
" />
<path d="M45132 39120
L45037 39120
L45037 38920
L45132 38920
" />
<path d="M45332 39120
L45266 39025
" />
<path d="M45218 39120
L45218 38920
L45294 38920
L45313 38930
L45323 38939
L45332 38958
L45332 38987
L45323 39006
L45313 39015
L45294 39025
L45218 39025
" />
<path d="M45418 39120
L45418 38920
L45532 39120
L45532 38920
" />
<path d="M45818 38920
L45856 38920
L45875 38930
L45894 38949
L45904 38987
L45904 39053
L45894 39091
L45875 39110
L45856 39120
L45818 39120
L45799 39110
L45780 39091
L45770 39053
L45770 38987
L45780 38949
L45799 38930
L45818 38920
" />
<path d="M45990 39120
L45990 38920
" />
<path d="M45990 39015
L46104 39015
" />
<path d="M46104 39120
L46104 38920
" />
<path d="M46294 39120
L46199 39120
L46199 38920
" />
<path d="M46494 38987
L46542 39120
L46590 38987
" />
<path d="M46666 39101
L46675 39110
L46666 39120
L46656 39110
L46666 39101
L46666 39120
" />
<path d="M46866 39120
L46751 39120
" />
<path d="M46809 39120
L46809 38920
L46790 38949
L46770 38968
L46751 38977
" />
<path d="M46951 39101
L46961 39110
L46951 39120
L46942 39110
L46951 39101
L46951 39120
" />
<path d="M47037 38939
L47047 38930
L47066 38920
L47113 38920
L47132 38930
L47142 38939
L47151 38958
L47151 38977
L47142 39006
L47028 39120
L47151 39120
" />
<text x="46350" y="38650"
textLength="3162.81" font-size="266.667" lengthAdjust="spacingAndGlyphs"
text-anchor="middle" opacity="0">Bike Pixel Rear v0.5</text>
<path d="M44902 38535
L44930 38545
L44940 38554
L44950 38573
L44950 38602
L44940 38621
L44930 38630
L44911 38640
L44835 38640
L44835 38440
L44902 38440
L44921 38450
L44930 38459
L44940 38478
L44940 38497
L44930 38516
L44921 38526
L44902 38535
L44835 38535
" />
<path d="M45035 38640
L45035 38507
" />
<path d="M45035 38440
L45026 38450
L45035 38459
L45045 38450
L45035 38440
L45035 38459
" />
<path d="M45130 38640
L45130 38440
" />
<path d="M45150 38564
L45207 38640
" />
<path d="M45207 38507
L45130 38583
" />
<path d="M45369 38630
L45350 38640
L45311 38640
L45292 38630
L45283 38611
L45283 38535
L45292 38516
L45311 38507
L45350 38507
L45369 38516
L45378 38535
L45378 38554
L45283 38573
" />
<path d="M45616 38640
L45616 38440
L45692 38440
L45711 38450
L45721 38459
L45730 38478
L45730 38507
L45721 38526
L45711 38535
L45692 38545
L45616 38545
" />
<path d="M45816 38640
L45816 38507
" />
<path d="M45816 38440
L45807 38450
L45816 38459
L45826 38450
L45816 38440
L45816 38459
" />
<path d="M45892 38640
L45997 38507
" />
<path d="M45892 38507
L45997 38640
" />
<path d="M46150 38630
L46130 38640
L46092 38640
L46073 38630
L46064 38611
L46064 38535
L46073 38516
L46092 38507
L46130 38507
L46150 38516
L46159 38535
L46159 38554
L46064 38573
" />
<path d="M46273 38640
L46254 38630
L46245 38611
L46245 38440
" />
<path d="M46616 38640
L46550 38545
" />
<path d="M46502 38640
L46502 38440
L46578 38440
L46597 38450
L46607 38459
L46616 38478
L46616 38507
L46607 38526
L46597 38535
L46578 38545
L46502 38545
" />
<path d="M46778 38630
L46759 38640
L46721 38640
L46702 38630
L46692 38611
L46692 38535
L46702 38516
L46721 38507
L46759 38507
L46778 38516
L46788 38535
L46788 38554
L46692 38573
" />
<path d="M46959 38640
L46959 38535
L46950 38516
L46930 38507
L46892 38507
L46873 38516
" />
<path d="M46959 38630
L46940 38640
L46892 38640
L46873 38630
L46864 38611
L46864 38592
L46873 38573
L46892 38564
L46940 38564
L46959 38554
" />
<path d="M47054 38640
L47054 38507
" />
<path d="M47054 38545
L47064 38526
L47073 38516
L47092 38507
L47111 38507
" />
<path d="M47311 38507
L47359 38640
L47407 38507
" />
<path d="M47521 38440
L47540 38440
L47559 38450
L47569 38459
L47578 38478
L47588 38516
L47588 38564
L47578 38602
L47569 38621
L47559 38630
L47540 38640
L47521 38640
L47502 38630
L47492 38621
L47483 38602
L47473 38564
L47473 38516
L47483 38478
L47492 38459
L47502 38450
L47521 38440
" />
<path d="M47673 38621
L47683 38630
L47673 38640
L47664 38630
L47673 38621
L47673 38640
" />
<path d="M47864 38440
L47769 38440
L47759 38535
L47769 38526
L47788 38516
L47835 38516
L47854 38526
L47864 38535
L47873 38554
L47873 38602
L47864 38621
L47854 38630
L47835 38640
L47788 38640
L47769 38630
L47759 38621
" />
</g>
<g style="fill:#000000; fill-opacity:0.0; 
stroke:#000000; stroke-width:40; stroke-opacity:1; 
stroke-linecap:round; stroke-linejoin:round;">
<text x="46440" y="38220"
textLength="3396.14" font-size="400" lengthAdjust="spacingAndGlyphs"
text-anchor="middle" opacity="0">BikePixels.com</text>
<path d="M44932 38048
L44975 38062
L44990 38077
L45004 38105
L45004 38148
L44990 38177
L44975 38191
L44947 38205
L44832 38205
L44832 37905
L44932 37905
L44961 37920
L44975 37934
L44990 37962
L44990 37991
L44975 38020
L44961 38034
L44932 38048
L44832 38048
" />
<path d="M45132 38205
L45132 38005
" />
<path d="M45132 37905
L45118 37920
L45132 37934
L45147 37920
L45132 37905
L45132 37934
" />
<path d="M45275 38205
L45275 37905
" />
<path d="M45304 38091
L45390 38205
" />
<path d="M45390 38005
L45275 38120
" />
<path d="M45632 38191
L45604 38205
L45547 38205
L45518 38191
L45504 38162
L45504 38048
L45518 38020
L45547 38005
L45604 38005
L45632 38020
L45647 38048
L45647 38077
L45504 38105
" />
<path d="M45775 38205
L45775 37905
L45890 37905
L45918 37920
L45932 37934
L45947 37962
L45947 38005
L45932 38034
L45918 38048
L45890 38062
L45775 38062
" />
<path d="M46075 38205
L46075 38005
" />
<path d="M46075 37905
L46061 37920
L46075 37934
L46090 37920
L46075 37905
L46075 37934
" />
<path d="M46190 38205
L46347 38005
" />
<path d="M46190 38005
L46347 38205
" />
<path d="M46575 38191
L46547 38205
L46490 38205
L46461 38191
L46447 38162
L46447 38048
L46461 38020
L46490 38005
L46547 38005
L46575 38020
L46590 38048
L46590 38077
L46447 38105
" />
<path d="M46761 38205
L46732 38191
L46718 38162
L46718 37905
" />
<path d="M46861 38191
L46890 38205
L46947 38205
L46975 38191
L46990 38162
L46990 38148
L46975 38120
L46947 38105
L46904 38105
L46875 38091
L46861 38062
L46861 38048
L46875 38020
L46904 38005
L46947 38005
L46975 38020
" />
<path d="M47118 38177
L47132 38191
L47118 38205
L47104 38191
L47118 38177
L47118 38205
" />
<path d="M47390 38191
L47361 38205
L47304 38205
L47275 38191
L47261 38177
L47247 38148
L47247 38062
L47261 38034
L47275 38020
L47304 38005
L47361 38005
L47390 38020
" />
<path d="M47561 38205
L47532 38191
L47518 38177
L47504 38148
L47504 38062
L47518 38034
L47532 38020
L47561 38005
L47604 38005
L47632 38020
L47647 38034
L47661 38062
L47661 38148
L47647 38177
L47632 38191
L47604 38205
L47561 38205
" />
<path d="M47790 38205
L47790 38005
" />
<path d="M47790 38034
L47804 38020
L47832 38005
L47875 38005
L47904 38020
L47918 38048
L47918 38205
" />
<path d="M47918 38048
L47932 38020
L47961 38005
L48004 38005
L48032 38020
L48047 38048
L48047 38205
" />
</g>
<g style="fill:#000000; fill-opacity:0.0; 
stroke:#000000; stroke-width:30; stroke-opacity:1; 
stroke-linecap:round; stroke-linejoin:round;">
<text x="65220" y="41040"
textLength="661.524" font-size="266.667" lengthAdjust="spacingAndGlyphs"
text-anchor="middle" opacity="0">SW2</text>
<path d="M64953 41020
L64981 41030
L65029 41030
L65048 41020
L65058 41011
L65067 40992
L65067 40973
L65058 40954
L65048 40944
L65029 40935
L64991 40925
L64972 40916
L64962 40906
L64953 40887
L64953 40868
L64962 40849
L64972 40840
L64991 40830
L65039 40830
L65067 40840
" />
<path d="M65134 40830
L65181 41030
L65220 40887
L65258 41030
L65305 40830
" />
<path d="M65372 40849
L65381 40840
L65400 40830
L65448 40830
L65467 40840
L65477 40849
L65486 40868
L65486 40887
L65477 40916
L65362 41030
L65486 41030
" />
</g>
<g style="fill:#000000; fill-opacity:0.0; 
stroke:#000000; stroke-width:40; stroke-opacity:1; 
stroke-linecap:round; stroke-linejoin:round;">
<text x="62850" y="40800"
textLength="1181.86" font-size="400" lengthAdjust="spacingAndGlyphs"
text-anchor="middle" opacity="0">color</text>
<path d="M62478 40771
L62450 40785
L62392 40785
L62364 40771
L62350 40757
L62335 40728
L62335 40642
L62350 40614
L62364 40600
L62392 40585
L62450 40585
L62478 40600
" />
<path d="M62650 40785
L62621 40771
L62607 40757
L62592 40728
L62592 40642
L62607 40614
L62621 40600
L62650 40585
L62692 40585
L62721 40600
L62735 40614
L62750 40642
L62750 40728
L62735 40757
L62721 40771
L62692 40785
L62650 40785
" />
<path d="M62921 40785
L62892 40771
L62878 40742
L62878 40485
" />
<path d="M63078 40785
L63050 40771
L63035 40757
L63021 40728
L63021 40642
L63035 40614
L63050 40600
L63078 40585
L63121 40585
L63150 40600
L63164 40614
L63178 40642
L63178 40728
L63164 40757
L63150 40771
L63121 40785
L63078 40785
" />
<path d="M63307 40785
L63307 40585
" />
<path d="M63307 40642
L63321 40614
L63335 40600
L63364 40585
L63392 40585
" />
<text x="66900" y="37800"
textLength="637.714" font-size="400" lengthAdjust="spacingAndGlyphs"
text-anchor="middle" opacity="0">C1</text>
<path d="M66850 37757
L66835 37771
L66792 37785
L66764 37785
L66721 37771
L66692 37742
L66678 37714
L66664 37657
L66664 37614
L66678 37557
L66692 37528
L66721 37500
L66764 37485
L66792 37485
L66835 37500
L66850 37514
" />
<path d="M67135 37785
L66964 37785
" />
<path d="M67050 37785
L67050 37485
L67021 37528
L66992 37557
L66964 37571
" />
<g transform="rotate(-90 46300 35750)">
<text x="46300" y="35900"
textLength="566.286" font-size="400" lengthAdjust="spacingAndGlyphs"
text-anchor="middle" opacity="0">J1</text>
</g>
<path d="M46135 35850
L46350 35850
L46392 35864
L46421 35892
L46435 35935
L46435 35964
" />
<path d="M46435 35550
L46435 35721
" />
<path d="M46435 35635
L46135 35635
L46178 35664
L46207 35692
L46221 35721
" />
<text x="44760" y="37250"
textLength="1380.57" font-size="400" lengthAdjust="spacingAndGlyphs"
text-anchor="middle" opacity="0">Power</text>
<path d="M44167 37235
L44167 36935
L44281 36935
L44310 36950
L44324 36964
L44338 36992
L44338 37035
L44324 37064
L44310 37078
L44281 37092
L44167 37092
" />
<path d="M44510 37235
L44481 37221
L44467 37207
L44452 37178
L44452 37092
L44467 37064
L44481 37050
L44510 37035
L44552 37035
L44581 37050
L44595 37064
L44610 37092
L44610 37178
L44595 37207
L44581 37221
L44552 37235
L44510 37235
" />
<path d="M44710 37035
L44767 37235
L44824 37092
L44881 37235
L44938 37035
" />
<path d="M45167 37221
L45138 37235
L45081 37235
L45052 37221
L45038 37192
L45038 37078
L45052 37050
L45081 37035
L45138 37035
L45167 37050
L45181 37078
L45181 37107
L45038 37135
" />
<path d="M45310 37235
L45310 37035
" />
<path d="M45310 37092
L45324 37064
L45338 37050
L45367 37035
L45395 37035
" />
<g transform="rotate(-90 52709.4 35750)">
<text x="52709.4" y="35900"
textLength="566.286" font-size="400" lengthAdjust="spacingAndGlyphs"
text-anchor="middle" opacity="0">J2</text>
</g>
<path d="M52545 35850
L52759 35850
L52802 35864
L52830 35892
L52845 35935
L52845 35964
" />
<path d="M52573 35721
L52559 35707
L52545 35678
L52545 35607
L52559 35578
L52573 35564
L52602 35550
L52630 35550
L52673 35564
L52845 35735
L52845 35550
" />
<text x="59790" y="37320"
textLength="1723.43" font-size="400" lengthAdjust="spacingAndGlyphs"
text-anchor="middle" opacity="0">Arduino</text>
<path d="M59011 37220
L59154 37220
" />
<path d="M58982 37305
L59082 37005
L59182 37305
" />
<path d="M59282 37305
L59282 37105
" />
<path d="M59282 37162
L59297 37134
L59311 37120
L59340 37105
L59368 37105
" />
<path d="M59597 37305
L59597 37005
" />
<path d="M59597 37291
L59568 37305
L59511 37305
L59482 37291
L59468 37277
L59454 37248
L59454 37162
L59468 37134
L59482 37120
L59511 37105
L59568 37105
L59597 37120
" />
<path d="M59868 37105
L59868 37305
" />
<path d="M59740 37105
L59740 37262
L59754 37291
L59782 37305
L59825 37305
L59854 37291
L59868 37277
" />
<path d="M60011 37305
L60011 37105
" />
<path d="M60011 37005
L59997 37020
L60011 37034
L60025 37020
L60011 37005
L60011 37034
" />
<path d="M60154 37105
L60154 37305
" />
<path d="M60154 37134
L60168 37120
L60197 37105
L60240 37105
L60268 37120
L60282 37148
L60282 37305
" />
<path d="M60468 37305
L60440 37291
L60425 37277
L60411 37248
L60411 37162
L60425 37134
L60440 37120
L60468 37105
L60511 37105
L60540 37120
L60554 37134
L60568 37162
L60568 37248
L60554 37277
L60540 37291
L60511 37305
L60468 37305
" />
<g transform="rotate(-90 67350 35750)">
<text x="67350" y="35900"
textLength="566.286" font-size="400" lengthAdjust="spacingAndGlyphs"
text-anchor="middle" opacity="0">J3</text>
</g>
<path d="M67185 35850
L67400 35850
L67442 35864
L67471 35892
L67485 35935
L67485 35964
" />
<path d="M67185 35735
L67185 35550
L67300 35650
L67300 35607
L67314 35578
L67328 35564
L67357 35550
L67428 35550
L67457 35564
L67471 35578
L67485 35607
L67485 35692
L67471 35721
L67457 35735
" />
<text x="70170" y="37300"
textLength="1409.14" font-size="400" lengthAdjust="spacingAndGlyphs"
text-anchor="middle" opacity="0">Matrix</text>
<path d="M69562 37285
L69562 36985
L69662 37200
L69762 36985
L69762 37285
" />
<path d="M70034 37285
L70034 37128
L70020 37100
L69991 37085
L69934 37085
L69905 37100
" />
<path d="M70034 37271
L70005 37285
L69934 37285
L69905 37271
L69891 37242
L69891 37214
L69905 37185
L69934 37171
L70005 37171
L70034 37157
" />
<path d="M70134 37085
L70248 37085
" />
<path d="M70177 36985
L70177 37242
L70191 37271
L70220 37285
L70248 37285
" />
<path d="M70348 37285
L70348 37085
" />
<path d="M70348 37142
L70362 37114
L70377 37100
L70405 37085
L70434 37085
" />
<path d="M70534 37285
L70534 37085
" />
<path d="M70534 36985
L70520 37000
L70534 37014
L70548 37000
L70534 36985
L70534 37014
" />
<path d="M70648 37285
L70805 37085
" />
<path d="M70648 37085
L70805 37285
" />
</g>
<g style="fill:#000000; fill-opacity:0.0; 
stroke:#000000; stroke-width:30; stroke-opacity:1; 
stroke-linecap:round; stroke-linejoin:round;">
<text x="48150" y="35850"
textLength="442.476" font-size="266.667" lengthAdjust="spacingAndGlyphs"
text-anchor="middle" opacity="0">R1</text>
<path d="M48116 35840
L48050 35745
" />
<path d="M48002 35840
L48002 35640
L48078 35640
L48097 35650
L48107 35659
L48116 35678
L48116 35707
L48107 35726
L48097 35735
L48078 35745
L48002 35745
" />
<path d="M48307 35840
L48192 35840
" />
<path d="M48250 35840
L48250 35640
L48230 35669
L48211 35688
L48192 35697
" />
<text x="52550" y="38750"
textLength="429.476" font-size="266.667" lengthAdjust="spacingAndGlyphs"
text-anchor="middle" opacity="0">R2</text>
<path d="M52516 38740
L52450 38645
" />
<path d="M52402 38740
L52402 38540
L52478 38540
L52497 38550
L52507 38559
L52516 38578
L52516 38607
L52507 38626
L52497 38635
L52478 38645
L52402 38645
" />
<path d="M52592 38559
L52602 38550
L52621 38540
L52669 38540
L52688 38550
L52697 38559
L52707 38578
L52707 38597
L52697 38626
L52583 38740
L52707 38740
" />
<g transform="rotate(-90 54500 41725)">
<text x="54500" y="41825"
textLength="429.476" font-size="266.667" lengthAdjust="spacingAndGlyphs"
text-anchor="middle" opacity="0">R3</text>
</g>
<path d="M54590 41758
L54495 41825
" />
<path d="M54590 41872
L54390 41872
L54390 41796
L54400 41777
L54409 41767
L54428 41758
L54457 41758
L54476 41767
L54485 41777
L54495 41796
L54495 41872
" />
<path d="M54390 41691
L54390 41567
L54466 41634
L54466 41605
L54476 41586
L54485 41577
L54504 41567
L54552 41567
L54571 41577
L54580 41586
L54590 41605
L54590 41663
L54580 41682
L54571 41691
" />
<g transform="rotate(-90 56525 41675)">
<text x="56525" y="41775"
textLength="429.476" font-size="266.667" lengthAdjust="spacingAndGlyphs"
text-anchor="middle" opacity="0">R4</text>
</g>
<path d="M56615 41708
L56520 41775
" />
<path d="M56615 41822
L56415 41822
L56415 41746
L56425 41727
L56434 41717
L56453 41708
L56482 41708
L56501 41717
L56510 41727
L56520 41746
L56520 41822
" />
<path d="M56482 41536
L56615 41536
" />
<path d="M56405 41584
L56548 41632
L56548 41508
" />
<g transform="rotate(-90 58525 41675)">
<text x="58525" y="41775"
textLength="429.476" font-size="266.667" lengthAdjust="spacingAndGlyphs"
text-anchor="middle" opacity="0">R5</text>
</g>
<path d="M58615 41708
L58520 41775
" />
<path d="M58615 41822
L58415 41822
L58415 41746
L58425 41727
L58434 41717
L58453 41708
L58482 41708
L58501 41717
L58510 41727
L58520 41746
L58520 41822
" />
<path d="M58415 41527
L58415 41622
L58510 41632
L58501 41622
L58491 41603
L58491 41555
L58501 41536
L58510 41527
L58529 41517
L58577 41517
L58596 41527
L58605 41536
L58615 41555
L58615 41603
L58605 41622
L58596 41632
" />
<text x="64975" y="35950"
textLength="429.476" font-size="266.667" lengthAdjust="spacingAndGlyphs"
text-anchor="middle" opacity="0">R6</text>
<path d="M64941 35940
L64875 35845
" />
<path d="M64827 35940
L64827 35740
L64903 35740
L64922 35750
L64932 35759
L64941 35778
L64941 35807
L64932 35826
L64922 35835
L64903 35845
L64827 35845
" />
<path d="M65113 35740
L65075 35740
L65055 35750
L65046 35759
L65027 35788
L65017 35826
L65017 35902
L65027 35921
L65036 35930
L65055 35940
L65094 35940
L65113 35930
L65122 35921
L65132 35902
L65132 35854
L65122 35835
L65113 35826
L65094 35816
L65055 35816
L65036 35826
L65027 35835
L65017 35854
" />
</g>
<g style="fill:#000000; fill-opacity:0.0; 
stroke:#000000; stroke-width:40; stroke-opacity:1; 
stroke-linecap:round; stroke-linejoin:round;">
<text x="44325" y="40800"
textLength="1510.43" font-size="400" lengthAdjust="spacingAndGlyphs"
text-anchor="middle" opacity="0">on/off</text>
<path d="M43703 40785
L43675 40771
L43660 40757
L43646 40728
L43646 40642
L43660 40614
L43675 40600
L43703 40585
L43746 40585
L43775 40600
L43789 40614
L43803 40642
L43803 40728
L43789 40757
L43775 40771
L43746 40785
L43703 40785
" />
<path d="M43932 40585
L43932 40785
" />
<path d="M43932 40614
L43946 40600
L43975 40585
L44017 40585
L44046 40600
L44060 40628
L44060 40785
" />
<path d="M44417 40471
L44160 40857
" />
<path d="M44560 40785
L44532 40771
L44517 40757
L44503 40728
L44503 40642
L44517 40614
L44532 40600
L44560 40585
L44603 40585
L44632 40600
L44646 40614
L44660 40642
L44660 40728
L44646 40757
L44632 40771
L44603 40785
L44560 40785
" />
<path d="M44746 40585
L44860 40585
" />
<path d="M44789 40785
L44789 40528
L44803 40500
L44832 40485
L44860 40485
" />
<path d="M44917 40585
L45032 40585
" />
<path d="M44960 40785
L44960 40528
L44975 40500
L45003 40485
L45032 40485
" />
</g>
<g style="fill:#000000; fill-opacity:0.0; 
stroke:#000000; stroke-width:30; stroke-opacity:1; 
stroke-linecap:round; stroke-linejoin:round;">
<text x="53050" y="40950"
textLength="661.524" font-size="266.667" lengthAdjust="spacingAndGlyphs"
text-anchor="middle" opacity="0">SW1</text>
<path d="M52783 40930
L52811 40940
L52859 40940
L52878 40930
L52888 40921
L52897 40902
L52897 40883
L52888 40864
L52878 40854
L52859 40845
L52821 40835
L52802 40826
L52792 40816
L52783 40797
L52783 40778
L52792 40759
L52802 40750
L52821 40740
L52869 40740
L52897 40750
" />
<path d="M52964 40740
L53011 40940
L53050 40797
L53088 40940
L53135 40740
" />
<path d="M53316 40940
L53202 40940
" />
<path d="M53259 40940
L53259 40740
L53240 40769
L53221 40788
L53202 40797
" />
<text x="51150" y="40975"
textLength="1039" font-size="333.333" lengthAdjust="spacingAndGlyphs"
text-anchor="middle" opacity="0">mode</text>
<path d="M50709 40963
L50709 40796
" />
<path d="M50709 40820
L50721 40808
L50745 40796
L50780 40796
L50804 40808
L50816 40832
L50816 40963
" />
<path d="M50816 40832
L50828 40808
L50852 40796
L50888 40796
L50911 40808
L50923 40832
L50923 40963
" />
<path d="M51078 40963
L51054 40951
L51042 40939
L51030 40915
L51030 40844
L51042 40820
L51054 40808
L51078 40796
L51114 40796
L51138 40808
L51150 40820
L51161 40844
L51161 40915
L51150 40939
L51138 40951
L51114 40963
L51078 40963
" />
<path d="M51376 40963
L51376 40713
" />
<path d="M51376 40951
L51352 40963
L51304 40963
L51280 40951
L51269 40939
L51257 40915
L51257 40844
L51269 40820
L51280 40808
L51304 40796
L51352 40796
L51376 40808
" />
<path d="M51590 40951
L51566 40963
L51519 40963
L51495 40951
L51483 40927
L51483 40832
L51495 40808
L51519 40796
L51566 40796
L51590 40808
L51602 40832
L51602 40855
L51483 40879
" />
<text x="71500" y="41030"
textLength="648.524" font-size="266.667" lengthAdjust="spacingAndGlyphs"
text-anchor="middle" opacity="0">SW3</text>
<path d="M71233 41010
L71261 41020
L71309 41020
L71328 41010
L71338 41001
L71347 40982
L71347 40963
L71338 40944
L71328 40934
L71309 40925
L71271 40915
L71252 40906
L71242 40896
L71233 40877
L71233 40858
L71242 40839
L71252 40830
L71271 40820
L71319 40820
L71347 40830
" />
<path d="M71414 40820
L71461 41020
L71500 40877
L71538 41020
L71585 40820
" />
<path d="M71642 40820
L71766 40820
L71700 40896
L71728 40896
L71747 40906
L71757 40915
L71766 40934
L71766 40982
L71757 41001
L71747 41010
L71728 41020
L71671 41020
L71652 41010
L71642 41001
" />
</g>
<g style="fill:#000000; fill-opacity:0.0; 
stroke:#000000; stroke-width:40; stroke-opacity:1; 
stroke-linecap:round; stroke-linejoin:round;">
<text x="69190" y="40800"
textLength="1324.71" font-size="400" lengthAdjust="spacingAndGlyphs"
text-anchor="middle" opacity="0">effect</text>
<path d="M68732 40771
L68704 40785
L68647 40785
L68618 40771
L68604 40742
L68604 40628
L68618 40600
L68647 40585
L68704 40585
L68732 40600
L68747 40628
L68747 40657
L68604 40685
" />
<path d="M68832 40585
L68947 40585
" />
<path d="M68875 40785
L68875 40528
L68890 40500
L68918 40485
L68947 40485
" />
<path d="M69004 40585
L69118 40585
" />
<path d="M69047 40785
L69047 40528
L69061 40500
L69090 40485
L69118 40485
" />
<path d="M69332 40771
L69304 40785
L69247 40785
L69218 40771
L69204 40742
L69204 40628
L69218 40600
L69247 40585
L69304 40585
L69332 40600
L69347 40628
L69347 40657
L69204 40685
" />
<path d="M69604 40771
L69575 40785
L69518 40785
L69490 40771
L69475 40757
L69461 40728
L69461 40642
L69475 40614
L69490 40600
L69518 40585
L69575 40585
L69604 40600
" />
<path d="M69690 40585
L69804 40585
" />
<path d="M69732 40485
L69732 40742
L69747 40771
L69775 40785
L69804 40785
" />
<g >
</g>
</g> 
</svg>
