M48
; DRILL file {KiCad (5.1.9)-1} date 06/30/21 13:02:59
; FORMAT={-:-/ absolute / inch / decimal}
; #@! TF.CreationDate,2021-06-30T13:02:59+01:00
; #@! TF.GenerationSoftware,Kicad,Pcbnew,(5.1.9)-1
; #@! TF.FileFunction,Plated,1,2,PTH
FMAT,2
INCH
T1C0.0300
T2C0.0315
T3C0.0390
T4C0.0394
T5C0.0472
T6C0.0512
%
G90
G05
T1
X4.33Y-4.135
X4.43Y-4.135
X4.53Y-4.135
T2
X4.885Y-3.615
X4.885Y-3.8225
X5.185Y-3.615
X5.185Y-3.8225
X5.48Y-3.805
X5.48Y-4.105
X5.68Y-3.8025
X5.68Y-4.1025
X5.88Y-3.8025
X5.88Y-4.1025
X6.125Y-3.615
X6.425Y-3.615
X6.61Y-3.765
X6.61Y-3.9028
T3
X4.9878Y-4.195
X5.165Y-4.195
X6.1978Y-4.195
X6.375Y-4.195
X6.8278Y-4.195
X7.005Y-4.195
T4
X4.325Y-3.615
X4.425Y-3.615
X4.525Y-3.615
X5.38Y-3.615
X5.48Y-3.615
X5.58Y-3.615
X5.68Y-3.615
X5.78Y-3.615
X5.88Y-3.615
X5.98Y-3.615
X6.835Y-3.615
X6.935Y-3.615
X7.035Y-3.615
T5
X4.185Y-3.595
X4.185Y-4.225
X7.175Y-3.595
X7.175Y-4.225
T6
X4.9382Y-4.097
X5.2142Y-4.097
X6.1482Y-4.097
X6.4242Y-4.097
X6.7782Y-4.097
X7.0542Y-4.097
T0
M30
