<?xml version='1.0' encoding='UTF-8' standalone='no'?>
<!-- Created with Fritzing (http://www.fritzing.org/) -->
<svg xmlns="http://www.w3.org/2000/svg" xmlns:svg="http://www.w3.org/2000/svg"  viewBox="0 0 226.772 70.8661" x="0in" baseProfile="tiny" y="0in" version="1.2" width="3.14961in" height="0.984252in">
 <g partID="854477760">
  <g transform="matrix(1, 0, 0, 1, 26.2205, -12.3809)">
   <g id="board">
    <g style="display:inline">
     <rect ry="2.22044e-15" stroke-width="0.5" id="boardoutline" x="-26.2205" y="12.3809" stroke="black" style="opacity:1;" width="226.772" height="70.8661" fill="none"/>
    </g>
   </g>
  </g>
 </g>
 <g partID="854368771">
  <g transform="translate(0.641344,2.75134)">
   <g  id="copper1">
    <circle r="2.83465"  stroke-width="0.72" id="nonconn0" stroke="black" cx="4.43465" cy="4.43465" fill="black"/>
   </g>
  </g>
 </g>
 <g partID="854369641">
  <g transform="translate(216.642,60.3514)">
   <g  id="copper1">
    <circle r="2.83465"  stroke-width="0.72" id="nonconn0" stroke="black" cx="4.43465" cy="4.43465" fill="black"/>
   </g>
  </g>
 </g>
 <g partID="854368801">
  <g transform="translate(0.641336,60.3514)">
   <g  id="copper1">
    <circle r="2.83465"  stroke-width="0.72" id="nonconn0" stroke="black" cx="4.43465" cy="4.43465" fill="black"/>
   </g>
  </g>
 </g>
 <g partID="854369611">
  <g transform="translate(216.642,2.75134)">
   <g  id="copper1">
    <circle r="2.83465"  stroke-width="0.72" id="nonconn0" stroke="black" cx="4.43465" cy="4.43465" fill="black"/>
   </g>
  </g>
 </g>
 <g partID="98281">
  <g transform="translate(146.376,7.68999)">
   <g  id="copper1">
    <!-- <rect width="55" x="10" y="15.5" fill="none" height="55" stroke="rgb(255, 191, 0)" stroke-width="20" />  -->
    <circle r="1.98"  stroke-width="2.16" id="connector0pin" stroke="black" cx="2.7" cy="3.096" fill="black"/>
    <circle r="1.98"  stroke-width="2.16" id="connector1pin" stroke="black" cx="31.5" cy="3.096" fill="black"/>
   </g>
  </g>
 </g>
 <g partID="88891">
  <g transform="translate(211.716,16.546)">
   <g transform="matrix(0,1,-1,0,0,0)">
    <g  id="copper1">
     <g  id="copper0">
      <circle r="2.088"  stroke-width="2.16" id="connector0pin" stroke="black" cx="5.04" cy="5.04" fill="black"/>
      <circle r="2.088"  stroke-width="2.16" id="connector1pin" stroke="black" cx="5.04" cy="12.24" fill="black"/>
      <circle r="2.088"  stroke-width="2.16" id="connector2pin" stroke="black" cx="5.04" cy="19.44" fill="black"/>
     </g>
    </g>
   </g>
  </g>
 </g>
 <g partID="854478531">
  <g transform="translate(42.516,16.546)">
   <g transform="matrix(0,1,-1,0,0,0)">
    <g  id="copper1">
     <g  id="copper0">
      <circle r="2.088"  stroke-width="2.16" id="connector0pin" stroke="black" cx="5.04" cy="5.04" fill="black"/>
      <circle r="2.088"  stroke-width="2.16" id="connector1pin" stroke="black" cx="5.04" cy="12.24" fill="black"/>
      <circle r="2.088"  stroke-width="2.16" id="connector2pin" stroke="black" cx="5.04" cy="19.44" fill="black"/>
     </g>
    </g>
   </g>
  </g>
 </g>
 <g partID="854499231">
  <g transform="translate(139.716,16.546)">
   <g transform="matrix(0,1,-1,0,0,0)">
    <g  id="copper1">
     <g  id="copper0">
      <circle r="2.088"  stroke-width="2.16" id="connector0pin" stroke="black" cx="5.04" cy="5.04" fill="black"/>
      <circle r="2.088"  stroke-width="2.16" id="connector1pin" stroke="black" cx="5.04" cy="12.24" fill="black"/>
      <circle r="2.088"  stroke-width="2.16" id="connector2pin" stroke="black" cx="5.04" cy="19.44" fill="black"/>
      <circle r="2.088"  stroke-width="2.16" id="connector3pin" stroke="black" cx="5.04" cy="26.64" fill="black"/>
      <circle r="2.088"  stroke-width="2.16" id="connector4pin" stroke="black" cx="5.04" cy="33.84" fill="black"/>
      <circle r="2.088"  stroke-width="2.16" id="connector5pin" stroke="black" cx="5.04" cy="41.04" fill="black"/>
      <circle r="2.088"  stroke-width="2.16" id="connector6pin" stroke="black" cx="5.04" cy="48.24" fill="black"/>
     </g>
    </g>
   </g>
  </g>
 </g>
 <g partID="68061">
  <g transform="translate(13.0298,49.1836)">
   <g  id="copper1">
    <g  id="copper0">
     <circle r="1.98"  stroke-width="2.16" id="connector0pad" stroke="black" cx="20.8462" cy="15.6024" fill="black"/>
     <circle r="1.98"  stroke-width="2.16" id="connector1pad" stroke="black" cx="2.42064" cy="15.6024" fill="black"/>
     <circle r="1.98"  stroke-width="2.16" id="connector2pad" stroke="black" cx="20.8462" cy="2.84616" fill="black"/>
     <circle r="1.98"  stroke-width="2.16" id="connector3pad" stroke="black" cx="2.42064" cy="2.84616" fill="black"/>
    </g>
   </g>
  </g>
 </g>
 <g partID="68091">
  <g transform="translate(160.63,49.1836)">
   <g transform="matrix(1,0,0,1,0,0)">
    <g  id="copper1">
     <g  id="copper0">
      <circle r="1.98"  stroke-width="2.16" id="connector0pad" stroke="black" cx="20.8462" cy="15.6024" fill="black"/>
      <circle r="1.98"  stroke-width="2.16" id="connector1pad" stroke="black" cx="2.42064" cy="15.6024" fill="black"/>
      <circle r="1.98"  stroke-width="2.16" id="connector2pad" stroke="black" cx="20.8462" cy="2.84616" fill="black"/>
      <circle r="1.98"  stroke-width="2.16" id="connector3pad" stroke="black" cx="2.42064" cy="2.84616" fill="black"/>
     </g>
    </g>
   </g>
  </g>
 </g>
 <g partID="68121">
  <g transform="translate(193.03,49.1836)">
   <g transform="matrix(1,0,0,1,0,0)">
    <g  id="copper1">
     <g  id="copper0">
      <circle r="1.98"  stroke-width="2.16" id="connector0pad" stroke="black" cx="20.8462" cy="15.6024" fill="black"/>
      <circle r="1.98"  stroke-width="2.16" id="connector1pad" stroke="black" cx="2.42064" cy="15.6024" fill="black"/>
      <circle r="1.98"  stroke-width="2.16" id="connector2pad" stroke="black" cx="20.8462" cy="2.84616" fill="black"/>
      <circle r="1.98"  stroke-width="2.16" id="connector3pad" stroke="black" cx="2.42064" cy="2.84616" fill="black"/>
     </g>
    </g>
   </g>
  </g>
 </g>
 <g partID="854485891">
  <g transform="translate(45.576,18.49)">
   <g  id="copper1">
    <!-- <rect width="55" x="10" y="15.5" fill="none" height="55" stroke="rgb(255, 191, 0)" stroke-width="20" />  -->
    <circle r="1.98"  stroke-width="2.16" id="connector0pin" stroke="black" cx="2.7" cy="3.096" fill="black"/>
    <circle r="1.98"  stroke-width="2.16" id="connector1pin" stroke="black" cx="31.5" cy="3.096" fill="black"/>
   </g>
  </g>
 </g>
 <g partID="854485761">
  <g transform="translate(45.576,7.68999)">
   <g  id="copper1">
    <!-- <rect width="55" x="10" y="15.5" fill="none" height="55" stroke="rgb(255, 191, 0)" stroke-width="20" />  -->
    <circle r="1.98"  stroke-width="2.16" id="connector0pin" stroke="black" cx="2.7" cy="3.096" fill="black"/>
    <circle r="1.98"  stroke-width="2.16" id="connector1pin" stroke="black" cx="31.5" cy="3.096" fill="black"/>
   </g>
  </g>
 </g>
 <g partID="854396001">
  <g transform="translate(45.576,36.49)">
   <g  id="copper1">
    <!-- <rect width="55" x="10" y="15.5" fill="none" height="55" stroke="rgb(255, 191, 0)" stroke-width="20" />  -->
    <circle r="1.98"  stroke-width="2.16" id="connector0pin" stroke="black" cx="2.7" cy="3.096" fill="black"/>
    <circle r="1.98"  stroke-width="2.16" id="connector1pin" stroke="black" cx="31.5" cy="3.096" fill="black"/>
   </g>
  </g>
 </g>
 <g partID="854391281">
  <g transform="translate(146.376,36.49)">
   <g  id="copper1">
    <!-- <rect width="55" x="10" y="15.5" fill="none" height="55" stroke="rgb(255, 191, 0)" stroke-width="20" />  -->
    <circle r="1.98"  stroke-width="2.16" id="connector0pin" stroke="black" cx="2.7" cy="3.096" fill="black"/>
    <circle r="1.98"  stroke-width="2.16" id="connector1pin" stroke="black" cx="31.5" cy="3.096" fill="black"/>
   </g>
  </g>
 </g>
 <g partID="854391011">
  <g transform="translate(146.376,18.49)">
   <g  id="copper1">
    <!-- <rect width="55" x="10" y="15.5" fill="none" height="55" stroke="rgb(255, 191, 0)" stroke-width="20" />  -->
    <circle r="1.98"  stroke-width="2.16" id="connector0pin" stroke="black" cx="2.7" cy="3.096" fill="black"/>
    <circle r="1.98"  stroke-width="2.16" id="connector1pin" stroke="black" cx="31.5" cy="3.096" fill="black"/>
   </g>
  </g>
 </g>
</svg>
