<?xml version='1.0' encoding='UTF-8' standalone='no'?>
<!-- Created with Fritzing (http://www.fritzing.org/) -->
<svg xmlns="http://www.w3.org/2000/svg"  xmlns:svg="http://www.w3.org/2000/svg" viewBox="0 0 226.772 70.8661" x="0in" baseProfile="tiny" y="0in" version="1.2" width="3.14961in" height="0.984252in">
 <g partID="854477761">
  <g transform="matrix(1, 0, 0, 1, 26.2205, -12.3809)">
   <g id="silkscreen">
    <g>
     <rect stroke-opacity="1" ry="2.20069e-15" stroke-width="0.630531" id="rect420" x="-25.9052" y="12.6962" stroke="black" style="stroke-miterlimit:4;stroke-dasharray:none;" width="226.141" height="70.2356" fill="none"/>
    </g>
   </g>
  </g>
 </g>
 <g partID="854477760">
  <g transform="matrix(1, 0, 0, 1, 26.2205, -12.3809)">
   <g id="board">
    <g style="display:inline">
     <rect ry="2.22044e-15" stroke-width="0.5" id="boardoutline" x="-26.2205" y="12.3809" stroke="black" style="opacity:1;" width="226.772" height="70.8661" fill="none"/>
    </g>
   </g>
  </g>
 </g>
 <g partID="854483361">
  <g transform="translate(127.434,54.3734)">
   <g transform="matrix(2.22045e-16,1,-1,2.22045e-16,0,0)">
    <g transform="matrix(1, 0, 0, 1, -2.69291, -1.04232)">
     <g id="silkscreen">
      <g gorn="0.3.0.0.1">
       <path stroke-opacity="1" d="m19.5118,26.9085,0,-23.811" stroke-width="1.13386" id="path1888" gorn="0.3.0.0.1.0" stroke="black" style="stroke-linecap:butt;stroke-linejoin:miter;stroke-miterlimit:4;stroke-dasharray:none;" fill="none"/>
       <path stroke-opacity="1" d="M19.5118,26.3415L10.4409,26.3415" stroke-width="1.13386" id="path1890" gorn="0.3.0.0.1.1" stroke="black" style="stroke-linecap:butt;stroke-linejoin:miter;stroke-miterlimit:4;stroke-dasharray:none;" fill="none"/>
       <path stroke-opacity="1" d="M19.5118,3.66437L10.4409,3.66437" stroke-width="1.13386" id="path1890-7" gorn="0.3.0.0.1.2" stroke="black" style="stroke-linecap:butt;stroke-linejoin:miter;stroke-miterlimit:4;stroke-dasharray:none;" fill="none"/>
       <path stroke-opacity="1" d="M20.8346,19.751L31.0394,19.751" stroke-width="1.13386" id="path112" gorn="0.3.0.0.1.3" stroke="black" style="display:inline;stroke-linecap:butt;stroke-linejoin:miter;stroke-miterlimit:4;stroke-dasharray:none;" fill="none"/>
       <path stroke-opacity="1" d="M30.4724,16.066L30.4724,20.2471" stroke-width="1.16383" id="path114" gorn="0.3.0.0.1.4" stroke="black" style="display:inline;stroke-linecap:butt;stroke-linejoin:miter;stroke-miterlimit:4;stroke-dasharray:none;" fill="none"/>
       <path stroke-opacity="1" d="M31.0394,16.6329L20.8346,16.6329" stroke-width="1.13386" id="path116" gorn="0.3.0.0.1.5" stroke="black" style="display:inline;stroke-linecap:butt;stroke-linejoin:miter;stroke-miterlimit:4;stroke-dasharray:none;" fill="none"/>
      </g>
     </g>
    </g>
   </g>
  </g>
 </g>
 <g partID="854477761">
  <g transform="matrix(1, 0, 0, 1, 26.2205, -12.3809)">
   <g id="silkscreen">
    <g>
     <rect stroke-opacity="1" ry="2.20069e-15" stroke-width="0.630531" id="rect420" x="-25.9052" y="12.6962" stroke="black" style="stroke-miterlimit:4;stroke-dasharray:none;" width="226.141" height="70.2356" fill="none"/>
    </g>
   </g>
  </g>
 </g>
 <g partID="854408490">
  <g transform="translate(42.8955,49.6654)">
   <g id="silkscreen">
    <defs id="defs2"/>
    <metadata id="metadata5">
     <rdf:RDF xmlns:rdf="http://www.w3.org/1999/02/22-rdf-syntax-ns#">
      <cc:Work rdf:about="" xmlns:cc="http://creativecommons.org/ns#" xmlns:rdf="http://www.w3.org/1999/02/22-rdf-syntax-ns#">
       <dc:format xmlns:dc="http://purl.org/dc/elements/1.1/">image/svg+xml</dc:format>
       <dc:type xmlns:dc="http://purl.org/dc/elements/1.1/" rdf:resource="http://purl.org/dc/dcmitype/StillImage" xmlns:rdf="http://www.w3.org/1999/02/22-rdf-syntax-ns#"/>
       <dc:title xmlns:dc="http://purl.org/dc/elements/1.1/"/>
      </cc:Work>
     </rdf:RDF>
    </metadata>
    <g transform="matrix(1, 0, 0, 1, -9.3945, -4.02614)">
     <g>
      <g id="layer1">
       <rect stroke-opacity="1.0" stroke-width="0.0860987" id="rect861" fill-opacity="1.0" x="18.2242" y="6.99809" stroke="black" style="stroke-linejoin:miter;stroke-miterlimit:4;stroke-dasharray:none;" width="2.27803" height="2.27803" fill="black"/>
       <rect stroke-opacity="1.0" stroke-width="0.0860987" id="rect863" fill-opacity="1.0" x="15.2953" y="6.99809" stroke="black" style="stroke-linejoin:miter;stroke-miterlimit:4;stroke-dasharray:none;" width="2.27803" height="2.27803" fill="black"/>
       <rect stroke-opacity="1.0" stroke-width="0.0860987" id="rect834" fill-opacity="1.0" x="24.082" y="6.99809" stroke="black" style="stroke-linejoin:miter;stroke-miterlimit:4;stroke-dasharray:none;" width="2.27803" height="2.27803" fill="black"/>
       <rect stroke-opacity="1.0" stroke-width="0.0860987" id="rect836" fill-opacity="1.0" x="21.1531" y="6.99809" stroke="black" style="stroke-linejoin:miter;stroke-miterlimit:4;stroke-dasharray:none;" width="2.27803" height="2.27803" fill="black"/>
       <rect stroke-opacity="1.0" stroke-width="0.0860987" id="rect838" fill-opacity="1.0" x="27.0109" y="6.99809" stroke="black" style="stroke-linejoin:miter;stroke-miterlimit:4;stroke-dasharray:none;" width="2.27803" height="2.27803" fill="black"/>
       <rect stroke-opacity="1.0" stroke-width="0.0860987" id="rect846" fill-opacity="1.0" x="15.2953" y="4.06919" stroke="black" style="stroke-linejoin:miter;stroke-miterlimit:4;stroke-dasharray:none;" width="2.27803" height="2.27803" fill="black"/>
       <rect stroke-opacity="1.0" stroke-width="0.0860988" id="rect872-1" fill-opacity="1.0" x="13.8634" y="14.2878" stroke="black" style="stroke-linejoin:miter;stroke-miterlimit:4;stroke-dasharray:none;" width="2.27803" height="2.27803" fill="black"/>
       <rect stroke-opacity="1.0" stroke-width="0.0860988" id="rect872-1-6" fill-opacity="1.0" x="28.5079" y="14.2878" stroke="black" style="stroke-linejoin:miter;stroke-miterlimit:4;stroke-dasharray:none;" width="2.27803" height="2.27803" fill="black"/>
      </g>
     </g>
    </g>
   </g>
  </g>
 </g>
 <g partID="854408330">
  <g transform="translate(65.0139,54.5757)">
   <g id="silkscreen">
    <text font-size="2.01648" text-anchor="middle" stroke-width="0" xml:space="preserve" id="label" x="20.1648" y="1.81483" xmlns:xml="http://www.w3.org/XML/1998/namespace" font-family="OCRA" fill="black">Bike Pixel rear v0.5</text>
   </g>
  </g>
 </g>
 <g partID="854407740">
  <g transform="translate(64.5974,49.4847)">
   <g id="silkscreen">
    <text font-size="2.98105" text-anchor="middle" stroke-width="0" xml:space="preserve" id="label" x="20.8673" y="2.68294" xmlns:xml="http://www.w3.org/XML/1998/namespace" font-family="OCRA" fill="black">BikePixels.com</text>
   </g>
  </g>
 </g>
 <g partID="98282">
  <g transform="translate(146.376,7.68999)">
   <g id="silkscreen">
    <line stroke-width="0.72" stroke="black" y1="3.096" y2="3.096" x1="5.4" x2="10.584"/>
    <line stroke-width="0.72" stroke="black" y1="3.096" y2="3.096" x1="24.984" x2="28.8"/>
    <line stroke-width="0.72" stroke="black" y1="0.72" y2="0.72" x1="10.584" x2="24.984"/>
    <line stroke-width="0.72" stroke="black" y1="0.72" y2="5.472" x1="24.984" x2="24.984"/>
    <line stroke-width="0.72" stroke="black" y1="5.472" y2="5.472" x1="24.984" x2="10.584"/>
    <line stroke-width="0.72" stroke="black" y1="5.472" y2="0.72" x1="10.584" x2="10.584"/>
   </g>
  </g>
 </g>
 <g partID="88892">
  <g transform="translate(211.716,16.546)">
   <g transform="matrix(0,1,-1,0,0,0)">
    <g id="silkscreen">
     <line stroke-width="0.72" stroke="black" y1="1.44" y2="23.04" x1="1.44" x2="1.44"/>
     <line stroke-width="0.72" stroke="black" y1="23.04" y2="23.04" x1="1.44" x2="8.64"/>
     <line stroke-width="0.72" stroke="black" y1="23.04" y2="1.44" x1="8.64" x2="8.64"/>
     <line stroke-width="0.72" stroke="black" y1="1.44" y2="1.44" x1="8.64" x2="1.44"/>
     <line stroke-width="0.36" stroke="black" y1="3.96" y2="1.44" x1="1.44" x2="3.96"/>
     <!-- 120 -->
    </g>
   </g>
  </g>
 </g>
 <g partID="854478532">
  <g transform="translate(42.516,16.546)">
   <g transform="matrix(0,1,-1,0,0,0)">
    <g id="silkscreen">
     <line stroke-width="0.72" stroke="black" y1="1.44" y2="23.04" x1="1.44" x2="1.44"/>
     <line stroke-width="0.72" stroke="black" y1="23.04" y2="23.04" x1="1.44" x2="8.64"/>
     <line stroke-width="0.72" stroke="black" y1="23.04" y2="1.44" x1="8.64" x2="8.64"/>
     <line stroke-width="0.72" stroke="black" y1="1.44" y2="1.44" x1="8.64" x2="1.44"/>
     <line stroke-width="0.36" stroke="black" y1="3.96" y2="1.44" x1="1.44" x2="3.96"/>
     <!-- 120 -->
    </g>
   </g>
  </g>
 </g>
 <g partID="854499232">
  <g transform="translate(139.716,16.546)">
   <g transform="matrix(0,1,-1,0,0,0)">
    <g id="silkscreen">
     <line stroke-width="0.72" stroke="black" y1="1.44" y2="51.84" x1="1.44" x2="1.44"/>
     <line stroke-width="0.72" stroke="black" y1="51.84" y2="51.84" x1="1.44" x2="8.64"/>
     <line stroke-width="0.72" stroke="black" y1="51.84" y2="1.44" x1="8.64" x2="8.64"/>
     <line stroke-width="0.72" stroke="black" y1="1.44" y2="1.44" x1="8.64" x2="1.44"/>
     <line stroke-width="0.36" stroke="black" y1="3.96" y2="1.44" x1="1.44" x2="3.96"/>
     <!-- 120 -->
    </g>
   </g>
  </g>
 </g>
 <g partID="68062">
  <g transform="translate(13.0298,49.1836)">
   <g id="silkscreen">
    <line stroke-width="0.72" stroke="black" y1="6.38928" y2="12.0586" x1="20.137" x2="20.137"/>
    <line stroke-width="0.72" stroke="black" y1="0.72" y2="0.72" x1="5.96376" x2="18.0115"/>
    <line stroke-width="0.72" stroke="black" y1="17.7278" y2="17.7278" x1="5.96376" x2="18.0115"/>
    <line stroke-width="0.72" stroke="black" y1="6.38928" y2="12.0586" x1="3.12912" x2="3.12912"/>
    <line stroke-width="0.72" stroke="black" y1="7.80696" y2="10.6416" x1="11.633" x2="11.633"/>
    <line stroke-width="0.72" stroke="black" y1="9.22392" y2="9.22392" x1="13.0507" x2="10.2161"/>
   </g>
  </g>
 </g>
 <g partID="68092">
  <g transform="translate(160.63,49.1836)">
   <g transform="matrix(1,0,0,1,0,0)">
    <g id="silkscreen">
     <line stroke-width="0.72" stroke="black" y1="6.38928" y2="12.0586" x1="20.137" x2="20.137"/>
     <line stroke-width="0.72" stroke="black" y1="0.72" y2="0.72" x1="5.96376" x2="18.0115"/>
     <line stroke-width="0.72" stroke="black" y1="17.7278" y2="17.7278" x1="5.96376" x2="18.0115"/>
     <line stroke-width="0.72" stroke="black" y1="6.38928" y2="12.0586" x1="3.12912" x2="3.12912"/>
     <line stroke-width="0.72" stroke="black" y1="7.80696" y2="10.6416" x1="11.633" x2="11.633"/>
     <line stroke-width="0.72" stroke="black" y1="9.22392" y2="9.22392" x1="13.0507" x2="10.2161"/>
    </g>
   </g>
  </g>
 </g>
 <g partID="68122">
  <g transform="translate(193.03,49.1836)">
   <g transform="matrix(1,0,0,1,0,0)">
    <g id="silkscreen">
     <line stroke-width="0.72" stroke="black" y1="6.38928" y2="12.0586" x1="20.137" x2="20.137"/>
     <line stroke-width="0.72" stroke="black" y1="0.72" y2="0.72" x1="5.96376" x2="18.0115"/>
     <line stroke-width="0.72" stroke="black" y1="17.7278" y2="17.7278" x1="5.96376" x2="18.0115"/>
     <line stroke-width="0.72" stroke="black" y1="6.38928" y2="12.0586" x1="3.12912" x2="3.12912"/>
     <line stroke-width="0.72" stroke="black" y1="7.80696" y2="10.6416" x1="11.633" x2="11.633"/>
     <line stroke-width="0.72" stroke="black" y1="9.22392" y2="9.22392" x1="13.0507" x2="10.2161"/>
    </g>
   </g>
  </g>
 </g>
 <g partID="854485892">
  <g transform="translate(45.576,18.49)">
   <g id="silkscreen">
    <line stroke-width="0.72" stroke="black" y1="3.096" y2="3.096" x1="5.4" x2="10.584"/>
    <line stroke-width="0.72" stroke="black" y1="3.096" y2="3.096" x1="24.984" x2="28.8"/>
    <line stroke-width="0.72" stroke="black" y1="0.72" y2="0.72" x1="10.584" x2="24.984"/>
    <line stroke-width="0.72" stroke="black" y1="0.72" y2="5.472" x1="24.984" x2="24.984"/>
    <line stroke-width="0.72" stroke="black" y1="5.472" y2="5.472" x1="24.984" x2="10.584"/>
    <line stroke-width="0.72" stroke="black" y1="5.472" y2="0.72" x1="10.584" x2="10.584"/>
   </g>
  </g>
 </g>
 <g partID="854485762">
  <g transform="translate(45.576,7.68999)">
   <g id="silkscreen">
    <line stroke-width="0.72" stroke="black" y1="3.096" y2="3.096" x1="5.4" x2="10.584"/>
    <line stroke-width="0.72" stroke="black" y1="3.096" y2="3.096" x1="24.984" x2="28.8"/>
    <line stroke-width="0.72" stroke="black" y1="0.72" y2="0.72" x1="10.584" x2="24.984"/>
    <line stroke-width="0.72" stroke="black" y1="0.72" y2="5.472" x1="24.984" x2="24.984"/>
    <line stroke-width="0.72" stroke="black" y1="5.472" y2="5.472" x1="24.984" x2="10.584"/>
    <line stroke-width="0.72" stroke="black" y1="5.472" y2="0.72" x1="10.584" x2="10.584"/>
   </g>
  </g>
 </g>
 <g partID="854396002">
  <g transform="translate(45.576,36.49)">
   <g id="silkscreen">
    <line stroke-width="0.72" stroke="black" y1="3.096" y2="3.096" x1="5.4" x2="10.584"/>
    <line stroke-width="0.72" stroke="black" y1="3.096" y2="3.096" x1="24.984" x2="28.8"/>
    <line stroke-width="0.72" stroke="black" y1="0.72" y2="0.72" x1="10.584" x2="24.984"/>
    <line stroke-width="0.72" stroke="black" y1="0.72" y2="5.472" x1="24.984" x2="24.984"/>
    <line stroke-width="0.72" stroke="black" y1="5.472" y2="5.472" x1="24.984" x2="10.584"/>
    <line stroke-width="0.72" stroke="black" y1="5.472" y2="0.72" x1="10.584" x2="10.584"/>
   </g>
  </g>
 </g>
 <g partID="854391282">
  <g transform="translate(146.376,36.49)">
   <g id="silkscreen">
    <line stroke-width="0.72" stroke="black" y1="3.096" y2="3.096" x1="5.4" x2="10.584"/>
    <line stroke-width="0.72" stroke="black" y1="3.096" y2="3.096" x1="24.984" x2="28.8"/>
    <line stroke-width="0.72" stroke="black" y1="0.72" y2="0.72" x1="10.584" x2="24.984"/>
    <line stroke-width="0.72" stroke="black" y1="0.72" y2="5.472" x1="24.984" x2="24.984"/>
    <line stroke-width="0.72" stroke="black" y1="5.472" y2="5.472" x1="24.984" x2="10.584"/>
    <line stroke-width="0.72" stroke="black" y1="5.472" y2="0.72" x1="10.584" x2="10.584"/>
   </g>
  </g>
 </g>
 <g partID="854391012">
  <g transform="translate(146.376,18.49)">
   <g id="silkscreen">
    <line stroke-width="0.72" stroke="black" y1="3.096" y2="3.096" x1="5.4" x2="10.584"/>
    <line stroke-width="0.72" stroke="black" y1="3.096" y2="3.096" x1="24.984" x2="28.8"/>
    <line stroke-width="0.72" stroke="black" y1="0.72" y2="0.72" x1="10.584" x2="24.984"/>
    <line stroke-width="0.72" stroke="black" y1="0.72" y2="5.472" x1="24.984" x2="24.984"/>
    <line stroke-width="0.72" stroke="black" y1="5.472" y2="5.472" x1="24.984" x2="10.584"/>
    <line stroke-width="0.72" stroke="black" y1="5.472" y2="0.72" x1="10.584" x2="10.584"/>
   </g>
  </g>
 </g>
 <g id="partLabel" partID="68060">
  <g transform="translate(20.4282,45.0947)">
   <g font-style="normal" font-size="3" id="silkscreenLabel" fill-opacity="1" font-weight="normal" stroke="none" font-family="'OCRA'" fill="#000000">
    <text x="0" y="2.25">mode</text>
   </g>
  </g>
 </g>
 <g id="partLabel" partID="68120">
  <g transform="translate(198.762,45.6059)">
   <g transform="matrix(1,0,0,1,0,0)">
    <g font-style="normal" font-size="3" id="silkscreenLabel" fill-opacity="1" font-weight="normal" stroke="none" font-family="'OCRA'" fill="#000000">
     <text x="0" y="2.25">Effect</text>
    </g>
   </g>
  </g>
 </g>
 <g id="partLabel" partID="68090">
  <g transform="translate(166.995,45.6871)">
   <g transform="matrix(1,0,0,1,0,0)">
    <g font-style="normal" font-size="3" id="silkscreenLabel" fill-opacity="1" font-weight="normal" stroke="none" font-family="'OCRA'" fill="#000000">
     <text x="0" y="2.25">Color</text>
    </g>
   </g>
  </g>
 </g>
 <g id="partLabel" partID="854485890">
  <g transform="translate(51.6601,15.8958)">
   <g font-style="normal" font-size="3" id="silkscreenLabel" fill-opacity="1" font-weight="normal" stroke="none" font-family="'OCRA'" fill="#000000">
    <text x="0" y="2.25">R6</text>
   </g>
  </g>
 </g>
 <g id="partLabel" partID="854391010">
  <g transform="translate(166.835,15.526)">
   <g font-style="normal" font-size="3" id="silkscreenLabel" fill-opacity="1" font-weight="normal" stroke="none" font-family="'OCRA'" fill="#000000">
    <text x="0" y="2.25">R2</text>
   </g>
  </g>
 </g>
 <g id="partLabel" partID="854391280">
  <g transform="translate(167.03,33.3539)">
   <g font-style="normal" font-size="3" id="silkscreenLabel" fill-opacity="1" font-weight="normal" stroke="none" font-family="'OCRA'" fill="#000000">
    <text x="0" y="2.25">R3</text>
   </g>
  </g>
 </g>
 <g id="partLabel" partID="854485760">
  <g transform="translate(52.3712,4.74022)">
   <g font-style="normal" font-size="3" id="silkscreenLabel" fill-opacity="1" font-weight="normal" stroke="none" font-family="'OCRA'" fill="#000000">
    <text x="0" y="2.25">R5</text>
   </g>
  </g>
 </g>
 <g id="partLabel" partID="854396000">
  <g transform="translate(52.1934,33.718)">
   <g font-style="normal" font-size="3" id="silkscreenLabel" fill-opacity="1" font-weight="normal" stroke="none" font-family="'OCRA'" fill="#000000">
    <text x="0" y="2.25">R4</text>
   </g>
  </g>
 </g>
 <g id="partLabel" partID="854483360">
  <g transform="translate(87.5,66.1426)">
   <g transform="matrix(1,0,0,1,0,0)">
    <g font-style="normal" font-size="3" id="silkscreenLabel" fill-opacity="1" font-weight="normal" stroke="none" font-family="'OCRA'" fill="#000000">
     <text x="0" y="2.25">on/off</text>
    </g>
   </g>
  </g>
 </g>
 <g id="partLabel" partID="88890">
  <g transform="translate(194.231,12.5702)">
   <g font-style="normal" font-size="3" id="silkscreenLabel" fill-opacity="1" font-weight="normal" stroke="none" font-family="'OCRA'" fill="#000000">
    <text x="0" y="2.25">Matrix</text>
   </g>
  </g>
 </g>
 <g id="partLabel" partID="854478530">
  <g transform="translate(24.5792,13.5129)">
   <g font-style="normal" font-size="3" id="silkscreenLabel" fill-opacity="1" font-weight="normal" stroke="none" font-family="'OCRA'" fill="#000000">
    <text x="0" y="2.25">Power</text>
   </g>
  </g>
 </g>
 <g id="partLabel" partID="98280">
  <g transform="translate(167.318,4.81211)">
   <g font-style="normal" font-size="3" id="silkscreenLabel" fill-opacity="1" font-weight="normal" stroke="none" font-family="'OCRA'" fill="#000000">
    <text x="0" y="2.25">R1</text>
   </g>
  </g>
 </g>
 <g id="partLabel" partID="854499230">
  <g transform="translate(109.208,27.0737)">
   <g font-style="normal" font-size="3" id="silkscreenLabel" fill-opacity="1" font-weight="normal" stroke="none" font-family="'OCRA'" fill="#000000">
    <text x="0" y="2.25">Main</text>
   </g>
  </g>
 </g>
 <g partID="854368771">
  <g transform="translate(0.641344,2.75134)">
   <g id="copper1">
    <circle r="2.83465" stroke-width="0.72" id="nonconn0" stroke="white" cx="4.43465" cy="4.43465" fill="white"/>
   </g>
  </g>
 </g>
 <g partID="854369641">
  <g transform="translate(216.642,60.3514)">
   <g id="copper1">
    <circle r="2.83465" stroke-width="0.72" id="nonconn0" stroke="white" cx="4.43465" cy="4.43465" fill="white"/>
   </g>
  </g>
 </g>
 <g partID="854368801">
  <g transform="translate(0.641336,60.3514)">
   <g id="copper1">
    <circle r="2.83465" stroke-width="0.72" id="nonconn0" stroke="white" cx="4.43465" cy="4.43465" fill="white"/>
   </g>
  </g>
 </g>
 <g partID="854369611">
  <g transform="translate(216.642,2.75134)">
   <g id="copper1">
    <circle r="2.83465" stroke-width="0.72" id="nonconn0" stroke="white" cx="4.43465" cy="4.43465" fill="white"/>
   </g>
  </g>
 </g>
 <g partID="98281">
  <g transform="translate(146.376,7.68999)">
   <g id="copper1">
    <!-- <rect width="55" x="10" y="15.5" fill="none" height="55" stroke="rgb(255, 191, 0)" stroke-width="20" />  -->
    <circle r="1.98" stroke-width="2.16" id="connector0pin" stroke="white" cx="2.7" cy="3.096" fill="white"/>
    <circle r="1.98" stroke-width="2.16" id="connector1pin" stroke="white" cx="31.5" cy="3.096" fill="white"/>
   </g>
  </g>
 </g>
 <g partID="88891">
  <g transform="translate(211.716,16.546)">
   <g transform="matrix(0,1,-1,0,0,0)">
    <g id="copper1">
     <g id="copper0">
      <circle r="2.088" stroke-width="2.16" id="connector0pin" stroke="white" cx="5.04" cy="5.04" fill="white"/>
      <circle r="2.088" stroke-width="2.16" id="connector1pin" stroke="white" cx="5.04" cy="12.24" fill="white"/>
      <circle r="2.088" stroke-width="2.16" id="connector2pin" stroke="white" cx="5.04" cy="19.44" fill="white"/>
     </g>
    </g>
   </g>
  </g>
 </g>
 <g partID="854478531">
  <g transform="translate(42.516,16.546)">
   <g transform="matrix(0,1,-1,0,0,0)">
    <g id="copper1">
     <g id="copper0">
      <circle r="2.088" stroke-width="2.16" id="connector0pin" stroke="white" cx="5.04" cy="5.04" fill="white"/>
      <circle r="2.088" stroke-width="2.16" id="connector1pin" stroke="white" cx="5.04" cy="12.24" fill="white"/>
      <circle r="2.088" stroke-width="2.16" id="connector2pin" stroke="white" cx="5.04" cy="19.44" fill="white"/>
     </g>
    </g>
   </g>
  </g>
 </g>
 <g partID="854499231">
  <g transform="translate(139.716,16.546)">
   <g transform="matrix(0,1,-1,0,0,0)">
    <g id="copper1">
     <g id="copper0">
      <circle r="2.088" stroke-width="2.16" id="connector0pin" stroke="white" cx="5.04" cy="5.04" fill="white"/>
      <circle r="2.088" stroke-width="2.16" id="connector1pin" stroke="white" cx="5.04" cy="12.24" fill="white"/>
      <circle r="2.088" stroke-width="2.16" id="connector2pin" stroke="white" cx="5.04" cy="19.44" fill="white"/>
      <circle r="2.088" stroke-width="2.16" id="connector3pin" stroke="white" cx="5.04" cy="26.64" fill="white"/>
      <circle r="2.088" stroke-width="2.16" id="connector4pin" stroke="white" cx="5.04" cy="33.84" fill="white"/>
      <circle r="2.088" stroke-width="2.16" id="connector5pin" stroke="white" cx="5.04" cy="41.04" fill="white"/>
      <circle r="2.088" stroke-width="2.16" id="connector6pin" stroke="white" cx="5.04" cy="48.24" fill="white"/>
     </g>
    </g>
   </g>
  </g>
 </g>
 <g partID="68061">
  <g transform="translate(13.0298,49.1836)">
   <g id="copper1">
    <g id="copper0">
     <circle r="1.98" stroke-width="2.16" id="connector0pad" stroke="white" cx="20.8462" cy="15.6024" fill="white"/>
     <circle r="1.98" stroke-width="2.16" id="connector1pad" stroke="white" cx="2.42064" cy="15.6024" fill="white"/>
     <circle r="1.98" stroke-width="2.16" id="connector2pad" stroke="white" cx="20.8462" cy="2.84616" fill="white"/>
     <circle r="1.98" stroke-width="2.16" id="connector3pad" stroke="white" cx="2.42064" cy="2.84616" fill="white"/>
    </g>
   </g>
  </g>
 </g>
 <g partID="68091">
  <g transform="translate(160.63,49.1836)">
   <g transform="matrix(1,0,0,1,0,0)">
    <g id="copper1">
     <g id="copper0">
      <circle r="1.98" stroke-width="2.16" id="connector0pad" stroke="white" cx="20.8462" cy="15.6024" fill="white"/>
      <circle r="1.98" stroke-width="2.16" id="connector1pad" stroke="white" cx="2.42064" cy="15.6024" fill="white"/>
      <circle r="1.98" stroke-width="2.16" id="connector2pad" stroke="white" cx="20.8462" cy="2.84616" fill="white"/>
      <circle r="1.98" stroke-width="2.16" id="connector3pad" stroke="white" cx="2.42064" cy="2.84616" fill="white"/>
     </g>
    </g>
   </g>
  </g>
 </g>
 <g partID="68121">
  <g transform="translate(193.03,49.1836)">
   <g transform="matrix(1,0,0,1,0,0)">
    <g id="copper1">
     <g id="copper0">
      <circle r="1.98" stroke-width="2.16" id="connector0pad" stroke="white" cx="20.8462" cy="15.6024" fill="white"/>
      <circle r="1.98" stroke-width="2.16" id="connector1pad" stroke="white" cx="2.42064" cy="15.6024" fill="white"/>
      <circle r="1.98" stroke-width="2.16" id="connector2pad" stroke="white" cx="20.8462" cy="2.84616" fill="white"/>
      <circle r="1.98" stroke-width="2.16" id="connector3pad" stroke="white" cx="2.42064" cy="2.84616" fill="white"/>
     </g>
    </g>
   </g>
  </g>
 </g>
 <g partID="854485891">
  <g transform="translate(45.576,18.49)">
   <g id="copper1">
    <!-- <rect width="55" x="10" y="15.5" fill="none" height="55" stroke="rgb(255, 191, 0)" stroke-width="20" />  -->
    <circle r="1.98" stroke-width="2.16" id="connector0pin" stroke="white" cx="2.7" cy="3.096" fill="white"/>
    <circle r="1.98" stroke-width="2.16" id="connector1pin" stroke="white" cx="31.5" cy="3.096" fill="white"/>
   </g>
  </g>
 </g>
 <g partID="854485761">
  <g transform="translate(45.576,7.68999)">
   <g id="copper1">
    <!-- <rect width="55" x="10" y="15.5" fill="none" height="55" stroke="rgb(255, 191, 0)" stroke-width="20" />  -->
    <circle r="1.98" stroke-width="2.16" id="connector0pin" stroke="white" cx="2.7" cy="3.096" fill="white"/>
    <circle r="1.98" stroke-width="2.16" id="connector1pin" stroke="white" cx="31.5" cy="3.096" fill="white"/>
   </g>
  </g>
 </g>
 <g partID="854396001">
  <g transform="translate(45.576,36.49)">
   <g id="copper1">
    <!-- <rect width="55" x="10" y="15.5" fill="none" height="55" stroke="rgb(255, 191, 0)" stroke-width="20" />  -->
    <circle r="1.98" stroke-width="2.16" id="connector0pin" stroke="white" cx="2.7" cy="3.096" fill="white"/>
    <circle r="1.98" stroke-width="2.16" id="connector1pin" stroke="white" cx="31.5" cy="3.096" fill="white"/>
   </g>
  </g>
 </g>
 <g partID="854391281">
  <g transform="translate(146.376,36.49)">
   <g id="copper1">
    <!-- <rect width="55" x="10" y="15.5" fill="none" height="55" stroke="rgb(255, 191, 0)" stroke-width="20" />  -->
    <circle r="1.98" stroke-width="2.16" id="connector0pin" stroke="white" cx="2.7" cy="3.096" fill="white"/>
    <circle r="1.98" stroke-width="2.16" id="connector1pin" stroke="white" cx="31.5" cy="3.096" fill="white"/>
   </g>
  </g>
 </g>
 <g partID="854391011">
  <g transform="translate(146.376,18.49)">
   <g id="copper1">
    <!-- <rect width="55" x="10" y="15.5" fill="none" height="55" stroke="rgb(255, 191, 0)" stroke-width="20" />  -->
    <circle r="1.98" stroke-width="2.16" id="connector0pin" stroke="white" cx="2.7" cy="3.096" fill="white"/>
    <circle r="1.98" stroke-width="2.16" id="connector1pin" stroke="white" cx="31.5" cy="3.096" fill="white"/>
   </g>
  </g>
 </g>
</svg>
