<?xml version='1.0' encoding='UTF-8' standalone='no'?>
<!-- Created with Fritzing (http://www.fritzing.org/) -->
<svg xmlns="http://www.w3.org/2000/svg"  xmlns:svg="http://www.w3.org/2000/svg" viewBox="0 0 226.772 70.8661" x="0in" baseProfile="tiny" y="0in" version="1.2" width="3.14961in" height="0.984252in">
 <g partID="854477760">
  <g transform="matrix(1, 0, 0, 1, 26.2205, -12.3809)">
   <g id="board">
    <g style="display:inline">
     <rect ry="2.22044e-15" stroke-width="0.5" id="boardoutline" x="-26.2205" y="12.3809" stroke="black" style="opacity:1;" width="226.772" height="70.8661" fill="none"/>
    </g>
   </g>
  </g>
 </g>
 <g partID="854510760">
  <g transform="translate(128.81,42.715)">
   <g transform="matrix(-1, 0, 0, 1, 29.3934, 0)">
    <g id="silkscreen0" _flipped_="1">
     <g id="silkscreen0">
      <path display="none" d="M173.403,80.3823l-1.34209,-0.249531c-0.342089,-0.0625392,-0.899939,-0.16698,-1.24203,-0.228893l-11.4303,-2.12508c-0.342089,-0.0650408,-0.716699,-0.383991,-0.828644,-0.714823l-4.29707,-10.0213c-0.160726,-0.309569,-0.128831,-0.796124,0.0662916,-1.0838L161.01,56.2227c0.195748,-0.287055,0.51845,-0.75735,0.715448,-1.0444l0.771734,-1.12383c0.195748,-0.287055,0.155723,-0.721702,-0.0913072,-0.970608l-0.963729,-0.963729l-0.894311,-0.894311l-2.79488,-2.79675l-0.895561,-0.894311l-2.79363,-2.7955l-0.896187,-0.894936l-0.964354,-0.963729c-0.247655,-0.247655,-0.681677,-0.287055,-0.968732,-0.0913072l-1.12633,0.770483c-0.287055,0.195748,-0.756099,0.517825,-1.04315,0.716699L139.125,51.1002c-0.28643,0.196373,-0.776111,0.23202,-1.08756,0.0794248l-9.71672,-3.97562c-0.328956,-0.110694,-0.652284,-0.480301,-0.716699,-0.82114l-2.21701,-11.9131c-0.0650408,-0.343966,-0.169481,-0.899939,-0.23077,-1.24265l-0.248281,-1.34209c-0.0650408,-0.342089,-0.402127,-0.619763,-0.746718,-0.619763l-1.36398,0l-1.26392,0l-3.95248,0l-1.26392,0l-3.95185,0l-1.26392,0l-1.3621,0c-0.349594,0,-0.686055,0.277674,-0.747343,0.621014l-0.248281,1.34147c-0.0650408,0.342715,-0.169481,0.899314,-0.230144,1.24265l-2.21764,11.9131c-0.0650408,0.342089,-0.383991,0.712947,-0.716699,0.82114l-9.71609,3.97562c-0.311445,0.152596,-0.801127,0.117574,-1.08756,-0.0794248L84.8319,44.2778c-0.287055,-0.195748,-0.756099,-0.519075,-1.04315,-0.716699l-1.12508,-0.770483c-0.287055,-0.195748,-0.721702,-0.156348,-0.968732,0.0913072l-0.964354,0.963729l-0.895561,0.894936l-2.7955,2.79675l-0.894311,0.894311l-2.79488,2.7955l-0.895561,0.894311l-0.963729,0.963729c-0.247655,0.247655,-0.287055,0.683553,-0.0913072,0.970608l0.769858,1.12383c0.195748,0.287055,0.517825,0.75735,0.716699,1.0444l6.68106,9.73298c0.195748,0.28768,0.227017,0.774235,0.0669169,1.08318l-4.29582,10.0232c-0.115698,0.326455,-0.48718,0.647906,-0.82927,0.713572l-11.4297,2.12633c-0.342715,0.06379,-0.900564,0.16823,-1.24328,0.227643l-1.34209,0.248281c-0.342089,0.0650408,-0.621014,0.402127,-0.621014,0.748594l0,1.36523l0,1.26392l0,3.95123l0,1.26392l0,3.94873l0,1.26392l0,1.36461c0,0.348969,0.280176,0.68543,0.622265,0.747343l1.34147,0.247655c0.34334,0.0650408,0.899939,0.169481,1.24328,0.23202l11.0876,2.06379c0.342089,0.06379,0.707318,0.385867,0.812384,0.716699l4.26642,10.6629c0.152596,0.312071,0.117574,0.801753,-0.0806756,1.08881l-6.27831,9.14886c-0.196373,0.28768,-0.519075,0.756724,-0.716699,1.0419l-0.770483,1.12633c-0.195748,0.28643,-0.156348,0.721702,0.0913072,0.969358l0.96498,0.963729l0.894936,0.894936l2.79675,2.79738l0.894311,0.894311l2.79488,2.79488l0.895561,0.894311l0.96498,0.963729c0.24703,0.24703,0.682928,0.285804,0.969983,0.0906818l1.12383,-0.769232c0.285804,-0.195748,0.754848,-0.519075,1.0419,-0.716699l8.95061,-6.1401c0.28643,-0.195748,0.767981,-0.213259,1.06567,-0.0381489l1.85929,1.04566c0.304566,0.166354,0.809883,0.43027,1.12008,0.586618l1.92371,0.985618c0.310194,0.157599,0.671671,0.0243903,0.80488,-0.298937l0.825517,-1.995c0.133208,-0.323328,0.352096,-0.846781,0.483428,-1.16886l7.76362,-18.763c0.134459,-0.320826,0.352096,-0.846781,0.482803,-1.16761l0.550345,-1.32896c0.133208,-0.321451,-0.00187618,-0.732959,-0.299563,-0.913698l-1.22639,-0.749845c-0.227017,-0.139462,-0.534085,-0.377737,-0.775486,-0.593497c-4.42652,-2.83428,-7.36149,-7.79301,-7.36149,-13.4372c0,-8.81177,7.1426,-15.9544,15.9531,-15.9544s15.9537,7.14198,15.9537,15.9544c0,5.64479,-2.93496,10.6029,-7.36149,13.4372c-0.242027,0.218887,-0.548469,0.455911,-0.774861,0.593497l-1.22639,0.749845c-0.297687,0.180738,-0.43027,0.592246,-0.298937,0.913698l0.550345,1.32896c0.133834,0.322702,0.352096,0.846781,0.482177,1.16761l7.76362,18.763c0.134459,0.322077,0.352096,0.846781,0.482177,1.16886l0.828019,1.995c0.133208,0.323328,0.494685,0.455911,0.80488,0.298937l1.92371,-0.985618c0.310194,-0.15885,0.814886,-0.421514,1.12008,-0.586618l1.85804,-1.04566c0.299563,-0.17511,0.780489,-0.1601,1.06629,0.0381489l8.95124,6.1401c0.285804,0.195748,0.756724,0.519075,1.04128,0.716699l1.12696,0.769232c0.285804,0.195748,0.721077,0.156348,0.967481,-0.0906818l0.963729,-0.963729l0.896187,-0.894311l2.79425,-2.79613l0.895561,-0.894311l2.79738,-2.79613l0.894311,-0.894936l0.96498,-0.963729c0.24703,-0.247655,0.285804,-0.682928,0.0906818,-0.969358l-0.771108,-1.12633c-0.195748,-0.285179,-0.51845,-0.754223,-0.716699,-1.04128l-6.27956,-9.14948c-0.195748,-0.287055,-0.233271,-0.776111,-0.0794248,-1.08881l4.2658,-10.6629c0.105066,-0.330832,0.47092,-0.656036,0.81301,-0.716699l11.0876,-2.06379c0.342715,-0.0650408,0.901815,-0.169481,1.2439,-0.231395l1.34022,-0.247655c0.342715,-0.0650408,0.621014,-0.402127,0.621014,-0.747343l0,-1.36461l0,-1.26392l0,-3.94873l0,-1.26392l0.00125078,-3.95123l0,-1.26392l0,-1.36523C174.025,80.7825,173.745,80.4467,173.403,80.3823" id="path3024" fill="black"/>
      <path d="M21.7586,10.0094c-0.195748,-0.901815,-0.562227,-1.73984,-1.06504,-2.47968l1.52408,-2.22014l-0.654785,-0.654785l-0.654785,-0.653535l-2.24954,1.54347c-0.730458,-0.472171,-1.5516,-0.815511,-2.43403,-0.994999l0,0l-0.50219,-2.69606l-0.924955,0l-0.92558,0L13.3709,4.54973l0,0c-0.881177,0.179488,-1.70294,0.522828,-2.43403,0.994999l-2.24891,-1.54347l-0.654785,0.653535L7.379,5.30958l1.52345,2.22014c-0.50219,0.739839,-0.868669,1.57724,-1.06442,2.47968L5.2314,10.4941l0,0.924955l0,0.92558l2.55723,0.475923c0.172608,0.944967,0.532209,1.82427,1.03753,2.59913l-1.44778,2.10945l0.655411,0.65416l0.653535,0.655411l2.08256,-1.42902c0.251408,0.172608,0.515323,0.329582,0.789245,0.470295l1.46342,-3.53472c-0.979364,-0.599751,-1.6329,-1.6798,-1.6329,-2.91057c0,-1.88243,1.52533,-3.40839,3.40901,-3.40839c1.88243,0,3.40714,1.52596,3.40714,3.40839c0,1.23265,-0.653535,2.31082,-1.63227,2.91057l1.46342,3.53472c0.273922,-0.140088,0.536586,-0.297687,0.78987,-0.470295l2.08256,1.42902l0.654785,-0.655411l0.653535,-0.65416l-1.44653,-2.10945c0.506568,-0.774861,0.865543,-1.65479,1.03753,-2.59913l2.55785,-0.475923l0,-0.92558L24.3665,10.4941L21.7586,10.0094z" id="path3028" fill="black"/>
      <path d="M11.9494,23.0995l0,-2.75047l0.306442,-0.133834l0,0.873047c0.11945,-0.0850533,0.257036,-0.12758,0.412133,-0.12758c0.198875,0,0.369607,0.0700439,0.509694,0.210132c0.141964,0.141339,0.212633,0.310194,0.212633,0.508444l0,1.28831l-0.305817,0.133208l0,-1.41589c-0.00250157,-0.117574,-0.043152,-0.217011,-0.122577,-0.293934c-0.0806756,-0.0800502,-0.176986,-0.120075,-0.288306,-0.120075c-0.118199,0,-0.217636,0.0400251,-0.298312,0.120075c-0.0787994,0.0787994,-0.118199,0.172608,-0.11945,0.282677l0,0.0112571l0,1.28268L11.9494,23.0995z" fill="black"/>
      <path d="M14.162,22.536c0,0.0425267,0.0168856,0.0863041,0.0500314,0.130707c0.0619138,0.0819264,0.15885,0.123202,0.292058,0.123202c0.0819264,0,0.153846,-0.0187618,0.216386,-0.0575361l0.115072,0.288306c-0.0988119,0.0525329,-0.210132,0.078174,-0.330832,0.078174c-0.190745,0,-0.360226,-0.0694185,-0.508444,-0.210132c-0.0988119,-0.101314,-0.148843,-0.220138,-0.148843,-0.352096c0,-0.00562853,0,-0.0106317,0,-0.0137586c0,-0.238274,0.121326,-0.405254,0.36648,-0.505942l0.776111,-0.322702c0,-0.118824,-0.0393997,-0.221389,-0.120075,-0.30269s-0.181989,-0.122577,-0.303941,-0.122577c-0.106317,0,-0.200751,0.0393997,-0.282677,0.11945c-0.078174,0.0775486,-0.120075,0.173859,-0.121326,0.293934l0,0.0275172l-0.306442,0.136335l0,-0.169481c0,-0.177611,0.0769232,-0.35022,0.229519,-0.511571c0.130707,-0.137586,0.295185,-0.204503,0.493434,-0.204503c0.197624,0,0.36773,0.0681677,0.508444,0.208881c0.141339,0.141339,0.210132,0.308944,0.210132,0.508444l0,1.28893l-0.305817,0.133208l0,-1.0713l-0.62977,0.255785C14.2277,22.3465,14.162,22.4316,14.162,22.536z" fill="black"/>
      <path d="M15.7568,23.0995l0,-1.42027c0,-0.198249,0.0694185,-0.36773,0.210757,-0.508444c0.140088,-0.140088,0.308318,-0.210132,0.508444,-0.210132c0.200751,0,0.372734,0.0700439,0.508444,0.210132c0.143215,0.145091,0.212633,0.315198,0.212633,0.508444l0,0.0081301l-0.305817,0.134459l0,-0.136961c-0.00250157,-0.118199,-0.0419013,-0.217011,-0.121326,-0.29456c-0.0819264,-0.0794248,-0.176986,-0.11945,-0.288306,-0.11945c-0.116948,0,-0.21576,0.0400251,-0.297061,0.11945c-0.0819264,0.0806756,-0.120701,0.175735,-0.120701,0.288931c0,0.00250157,0,0.00437774,0,0.00562853l0,1.28268L15.7568,23.0995z" fill="black"/>
      <path d="M19.1007,20.2127l0,2.16886c0,0.196998,-0.0700439,0.36773,-0.212008,0.508444c-0.141964,0.140088,-0.31082,0.208881,-0.509069,0.208881c-0.196998,0,-0.36773,-0.0687931,-0.508444,-0.208881c-0.140713,-0.141339,-0.210132,-0.310194,-0.210132,-0.508444l0,-0.702941c0,-0.197624,0.0694185,-0.36773,0.210132,-0.508444c0.140088,-0.141339,0.308944,-0.210132,0.508444,-0.210132c0.156348,0,0.29581,0.0419013,0.416511,0.129456l0,-0.742966L19.1007,20.2127zM17.9669,22.3746c0,0.117574,0.0419013,0.216386,0.128205,0.295185c0.0875549,0.0794248,0.184491,0.118824,0.297061,0.118824c0.106942,0,0.200125,-0.0393997,0.280801,-0.118824c0.0794248,-0.078174,0.11945,-0.175735,0.123202,-0.295185l0,-0.691058c-0.00375235,-0.117574,-0.0437774,-0.216386,-0.123202,-0.293934c-0.0806756,-0.0800502,-0.18324,-0.11945,-0.303941,-0.11945c-0.106942,0,-0.200125,0.0393997,-0.280801,0.11945c-0.0787994,0.0787994,-0.118199,0.173859,-0.11945,0.282677l0,0.0112571l0,0.691058L17.9669,22.3746z" fill="black"/>
      <path d="M19.3959,22.5792L19.3959,21.0945l0.305191,-0.134459l-0.00187618,1.60976c0,0.0650408,0.0212633,0.117574,0.0644154,0.163853c0.0406505,0.0425267,0.0913072,0.0650408,0.148218,0.0650408c0.060663,0,0.111945,-0.0218887,0.152596,-0.0650408c0.043152,-0.046279,0.0650408,-0.100063,0.0650408,-0.162602L20.1295,22.5704l0.00250157,-1.4753l0.305191,-0.134459l-0.00312696,1.60976c0,0.0650408,0.0212633,0.117574,0.0644154,0.162602s0.0913072,0.0662916,0.148843,0.0662916c0.0587868,0,0.110069,-0.0218887,0.15197,-0.0662916c0.0425267,-0.043152,0.0650408,-0.0975612,0.0650408,-0.162602l0.00312696,-1.4753l0.304566,-0.134459l0,1.61977c0,0.143215,-0.0500314,0.266417,-0.152596,0.36648c-0.100688,0.102564,-0.22389,0.152596,-0.36773,0.152596c-0.148843,0,-0.273296,-0.0500314,-0.368981,-0.146967c-0.101314,0.0969358,-0.22389,0.146967,-0.36648,0.146967c-0.152596,0,-0.277049,-0.0500314,-0.373984,-0.146967C19.4472,22.8499,19.3972,22.7261,19.3959,22.5792z" fill="black"/>
      <path d="M21.7749,22.536c0,0.0425267,0.0150094,0.0863041,0.0487806,0.130707c0.0619138,0.0819264,0.15885,0.123202,0.293309,0.123202c0.081301,0,0.153846,-0.0187618,0.216386,-0.0575361l0.115072,0.288306c-0.100063,0.0525329,-0.210132,0.078174,-0.329582,0.078174c-0.191995,0,-0.360226,-0.0694185,-0.508444,-0.210132c-0.0988119,-0.101314,-0.148843,-0.220138,-0.148843,-0.352096c0,-0.00562853,0,-0.0106317,0,-0.0137586c0,-0.238274,0.120701,-0.405254,0.365229,-0.505942l0.776737,-0.322702c0,-0.118824,-0.0400251,-0.221389,-0.120701,-0.30269c-0.0794248,-0.0819264,-0.180738,-0.122577,-0.30269,-0.122577c-0.106942,0,-0.201376,0.0393997,-0.282052,0.11945c-0.0794248,0.0775486,-0.11945,0.173859,-0.121951,0.293934l0,0.0275172l-0.305191,0.136335l0,-0.169481c0,-0.177611,0.0762978,-0.35022,0.228268,-0.511571c0.129456,-0.137586,0.295185,-0.204503,0.492184,-0.204503c0.198875,0,0.369607,0.0681677,0.508444,0.208881c0.140088,0.141339,0.210132,0.308944,0.210132,0.508444l0,1.28893l-0.305817,0.133208l0,-1.0713l-0.629144,0.255785C21.8406,22.3465,21.7749,22.4316,21.7749,22.536z" fill="black"/>
      <path d="M23.3703,23.0995l0,-1.42027c0,-0.198249,0.0694185,-0.36773,0.210132,-0.508444c0.140713,-0.140088,0.309569,-0.210132,0.508444,-0.210132c0.202002,0,0.372734,0.0700439,0.509694,0.210132c0.141339,0.145091,0.212008,0.315198,0.212008,0.508444l0,0.0081301l-0.305191,0.134459l0,-0.136961c-0.00250157,-0.118199,-0.0419013,-0.217011,-0.121951,-0.29456c-0.0819264,-0.0794248,-0.176986,-0.11945,-0.288306,-0.11945c-0.116948,0,-0.215135,0.0400251,-0.297061,0.11945c-0.0819264,0.0806756,-0.121951,0.175735,-0.121951,0.288931c0,0.00250157,0,0.00437774,0,0.00562853l0,1.28268L23.3703,23.0995z" fill="black"/>
      <path d="M26.0038,22.7899c0.106942,0,0.200125,-0.0400251,0.282677,-0.11945c0.0787994,-0.078174,0.118824,-0.175735,0.121326,-0.29456l0,-0.0281426l0.305191,-0.134459l0,0.16823c0,0.177611,-0.0762978,0.35022,-0.228268,0.510945c-0.129456,0.138837,-0.295185,0.206379,-0.492184,0.206379c-0.198875,0,-0.368981,-0.0694185,-0.508444,-0.210132s-0.209506,-0.308944,-0.209506,-0.508444l0,-0.702941c0,-0.197624,0.0694185,-0.36773,0.209506,-0.508444c0.140088,-0.141339,0.309569,-0.211382,0.508444,-0.211382c0.190745,0,0.360226,0.0700439,0.508444,0.211382c0.143215,0.131958,0.212008,0.300814,0.212008,0.508444l0,0.179488L25.5785,22.3615c0,0.120701,0.0393997,0.222014,0.11945,0.304566C25.7793,22.748,25.8818,22.7899,26.0038,22.7899zM25.9813,21.2702c-0.106942,0,-0.200751,0.0393997,-0.280176,0.11945c-0.0806756,0.0806756,-0.120701,0.176361,-0.120701,0.288931c0,0.00250157,0,0.00437774,0,0.00562853l0,0.343966l0.826768,-0.36773c-0.00625392,-0.107567,-0.046279,-0.196373,-0.118824,-0.270169C26.2039,21.3096,26.1026,21.2702,25.9813,21.2702z" fill="black"/>
      <path stroke-width="0.125078" d="M3.39713,20.9c-0.197624,0,-0.368356,0.0700439,-0.508444,0.210132c-0.140713,0.140088,-0.210132,0.309569,-0.210132,0.508444l0,0.702315c0,0.196998,0.0694185,0.368356,0.210132,0.508444c0.140088,0.140713,0.308944,0.209506,0.508444,0.209506c0.1995,0,0.368981,-0.0687931,0.509694,-0.209506c0.141339,-0.140088,0.212008,-0.309569,0.212008,-0.508444l0,-0.702315c0,-0.198875,-0.0706693,-0.368981,-0.212008,-0.508444C3.76549,20.9706,3.59538,20.9,3.39713,20.9zM3.81364,22.3165c-0.00250157,0.117574,-0.0425267,0.217011,-0.121951,0.295185c-0.0819264,0.0800502,-0.175735,0.118824,-0.282677,0.118824c-0.110694,0,-0.209506,-0.0393997,-0.296436,-0.118824c-0.0856787,-0.0800502,-0.128205,-0.177611,-0.128205,-0.295185l0,0l0,-0.690433l0,-0.0131332c0.00125078,-0.110069,0.0406505,-0.202627,0.11945,-0.282052c0.0800502,-0.0806756,0.173859,-0.11945,0.280801,-0.11945c0.121951,0,0.223265,0.0393997,0.305191,0.11945c0.0794248,0.078174,0.120075,0.175735,0.123202,0.295185L3.81364,22.3165L3.81364,22.3165z" stroke="black" fill="black"/>
      <path stroke-width="0.125078" d="M5.40276,20.9c-0.198875,0,-0.368981,0.0700439,-0.51032,0.210132c-0.141339,0.140088,-0.211382,0.309569,-0.211382,0.508444l0,2.16823l0.305191,-0.134459l0,-0.742966c0.120075,0.0875549,0.260163,0.129456,0.416511,0.129456c0.198249,0,0.36773,-0.0687931,0.508444,-0.209506c0.140713,-0.140088,0.210132,-0.309569,0.210132,-0.508444l0,-0.702315c0,-0.198875,-0.0700439,-0.368981,-0.210132,-0.508444C5.77049,20.97,5.60039,20.9,5.40276,20.9zM5.81427,22.3165c-0.00250157,0.117574,-0.0425267,0.217011,-0.121951,0.295185c-0.0819264,0.0800502,-0.175735,0.118824,-0.283303,0.118824c-0.110069,0,-0.208881,-0.0393997,-0.296436,-0.118824c-0.0856787,-0.0800502,-0.12758,-0.177611,-0.12758,-0.295185l0,0l0,-0.690433l0,-0.0131332c0.00125078,-0.110069,0.0412759,-0.202627,0.120075,-0.282052c0.0800502,-0.0806756,0.172608,-0.11945,0.280176,-0.11945c0.123202,0,0.224516,0.0393997,0.306442,0.11945c0.078174,0.078174,0.118824,0.175735,0.121326,0.295185L5.81427,22.3165L5.81427,22.3165z" stroke="black" fill="black"/>
      <path stroke-width="0.125078" d="M7.39964,20.9c-0.197624,0,-0.368356,0.0700439,-0.508444,0.210132c-0.141339,0.140088,-0.210132,0.309569,-0.210132,0.508444l0,0.702315c0,0.196998,0.0694185,0.368356,0.210132,0.508444c0.139462,0.140713,0.308944,0.209506,0.508444,0.209506s0.362727,-0.0675423,0.492809,-0.206379c0.153221,-0.162602,0.228893,-0.332709,0.228893,-0.510945l0,-0.169481l-0.305191,0.136335l0,0.0268919c-0.00187618,0.118199,-0.0425267,0.217636,-0.121951,0.29456c-0.0819264,0.081301,-0.175735,0.120075,-0.283303,0.120075c-0.121951,0,-0.22264,-0.0406505,-0.30269,-0.122577c-0.0806756,-0.0819264,-0.120701,-0.184491,-0.120701,-0.303941l1.13446,-0.505942l0,-0.179488c0,-0.206379,-0.0700439,-0.376486,-0.211382,-0.508444C7.76049,20.97,7.59038,20.9,7.39964,20.9zM6.98688,21.9681l0,-0.343966c0,-0.00125078,0,-0.00437774,0,-0.00687931c0,-0.11132,0.0400251,-0.20763,0.11945,-0.288306c0.0806756,-0.0806756,0.174484,-0.11945,0.280801,-0.11945c0.122577,0,0.22389,0.0393997,0.306442,0.11945c0.0737963,0.0731709,0.113821,0.163853,0.11945,0.270795L6.98688,21.9681z" stroke="black" fill="black"/>
      <path stroke-width="0.125078" d="M9.91121,21.1101c-0.142589,-0.140088,-0.312696,-0.209506,-0.509694,-0.209506c-0.198249,0,-0.368356,0.0694185,-0.508444,0.209506c-0.140088,0.140088,-0.209506,0.309569,-0.209506,0.508444l0,1.42027l0.305817,-0.133834l0,-1.28205c0,-0.00125078,0,-0.00312696,0,-0.00562853c0,-0.113821,0.0400251,-0.20763,0.121951,-0.287055c0.0831771,-0.0819264,0.181989,-0.121326,0.29581,-0.121326c0.110694,0,0.207005,0.0393997,0.288931,0.120075c0.078174,0.0769232,0.118824,0.173859,0.121951,0.293934l0,1.41589l0.305817,-0.133834l0,-1.28768C10.1226,21.4197,10.0519,21.2502,9.91121,21.1101z" stroke="black" fill="black"/>
     </g>
    </g>
   </g>
  </g>
 </g>
 <g partID="854511900">
  <g transform="translate(123.742,66.7994)">
   <g transform="matrix(-1, 0, 0, 1, 40.2052, 0)">
    <g id="silkscreen0" _flipped_="1">
     <text font-size="2.8718" text-anchor="middle" stroke-width="0" xml:space="preserve" id="label" x="20.1026" y="2.58462" xmlns:xml="http://www.w3.org/XML/1998/namespace" font-family="OCRA" fill="black">OSHWA PL000002</text>
    </g>
   </g>
  </g>
 </g>
 <g partID="854483360">
  <g transform="translate(127.434,54.3734)">
   <g transform="matrix(2.22045e-16,1,-1,2.22045e-16,0,0)">
    <g transform="matrix(1, 0, 0, 1, -2.69291, -1.04232)">
     <g id="copper0">
      <g gorn="0.3.0.0.0" style="display:inline">
       <g transform="rotate(-90)">
        <g>
         <g>
          <circle stroke-opacity="1" r="1.55906" stroke-width="2.13732" id="connector0pin" gorn="0.3.0.0.0.0.0.0" stroke="white" style="display:inline;stroke-miterlimit:4;stroke-dasharray:none;" cx="-8.1998" cy="5.90551" fill="white"/>
         </g>
        </g>
       </g>
       <g transform="rotate(-90)">
        <g>
         <g>
          <circle stroke-opacity="1" r="1.55906" stroke-width="2.13732" id="connector2pin" gorn="0.3.0.0.0.1.0.0" stroke="white" style="display:inline;stroke-miterlimit:4;stroke-dasharray:none;" cx="-22.373" cy="5.90551" fill="white"/>
         </g>
        </g>
       </g>
       <g transform="rotate(-90)">
        <g>
         <g>
          <circle stroke-opacity="1" r="1.55906" stroke-width="2.13732" id="connector1pin" gorn="0.3.0.0.0.2.0.0" stroke="white" style="display:inline;stroke-miterlimit:4;stroke-dasharray:none;" cx="-15.2864" cy="5.90551" fill="white"/>
         </g>
        </g>
       </g>
      </g>
     </g>
    </g>
   </g>
  </g>
 </g>
 <g partID="854368770">
  <g transform="translate(0.641344,2.75134)">
   <g id="copper0">
    <circle r="2.83465" stroke-width="0.72" id="nonconn0" stroke="white" cx="4.43465" cy="4.43465" fill="white"/>
   </g>
  </g>
 </g>
 <g partID="854369640">
  <g transform="translate(216.642,60.3514)">
   <g id="copper0">
    <circle r="2.83465" stroke-width="0.72" id="nonconn0" stroke="white" cx="4.43465" cy="4.43465" fill="white"/>
   </g>
  </g>
 </g>
 <g partID="854368800">
  <g transform="translate(0.641336,60.3514)">
   <g id="copper0">
    <circle r="2.83465" stroke-width="0.72" id="nonconn0" stroke="white" cx="4.43465" cy="4.43465" fill="white"/>
   </g>
  </g>
 </g>
 <g partID="854369610">
  <g transform="translate(216.642,2.75134)">
   <g id="copper0">
    <circle r="2.83465" stroke-width="0.72" id="nonconn0" stroke="white" cx="4.43465" cy="4.43465" fill="white"/>
   </g>
  </g>
 </g>
 <g partID="98280">
  <g transform="translate(146.376,7.68999)">
   <g id="copper0">
    <g id="copper1">
     <!-- <rect width="55" x="10" y="15.5" fill="none" height="55" stroke="rgb(255, 191, 0)" stroke-width="20" />  -->
     <circle r="1.98" stroke-width="2.16" id="connector0pin" stroke="white" cx="2.7" cy="3.096" fill="white"/>
     <circle r="1.98" stroke-width="2.16" id="connector1pin" stroke="white" cx="31.5" cy="3.096" fill="white"/>
    </g>
   </g>
  </g>
 </g>
 <g partID="88890">
  <g transform="translate(211.716,16.546)">
   <g transform="matrix(0,1,-1,0,0,0)">
    <g id="copper0">
     <circle r="2.088" stroke-width="2.16" id="connector0pin" stroke="white" cx="5.04" cy="5.04" fill="white"/>
     <circle r="2.088" stroke-width="2.16" id="connector1pin" stroke="white" cx="5.04" cy="12.24" fill="white"/>
     <circle r="2.088" stroke-width="2.16" id="connector2pin" stroke="white" cx="5.04" cy="19.44" fill="white"/>
    </g>
   </g>
  </g>
 </g>
 <g partID="854478530">
  <g transform="translate(42.516,16.546)">
   <g transform="matrix(0,1,-1,0,0,0)">
    <g id="copper0">
     <circle r="2.088" stroke-width="2.16" id="connector0pin" stroke="white" cx="5.04" cy="5.04" fill="white"/>
     <circle r="2.088" stroke-width="2.16" id="connector1pin" stroke="white" cx="5.04" cy="12.24" fill="white"/>
     <circle r="2.088" stroke-width="2.16" id="connector2pin" stroke="white" cx="5.04" cy="19.44" fill="white"/>
    </g>
   </g>
  </g>
 </g>
 <g partID="854499230">
  <g transform="translate(139.716,16.546)">
   <g transform="matrix(0,1,-1,0,0,0)">
    <g id="copper0">
     <circle r="2.088" stroke-width="2.16" id="connector0pin" stroke="white" cx="5.04" cy="5.04" fill="white"/>
     <circle r="2.088" stroke-width="2.16" id="connector1pin" stroke="white" cx="5.04" cy="12.24" fill="white"/>
     <circle r="2.088" stroke-width="2.16" id="connector2pin" stroke="white" cx="5.04" cy="19.44" fill="white"/>
     <circle r="2.088" stroke-width="2.16" id="connector3pin" stroke="white" cx="5.04" cy="26.64" fill="white"/>
     <circle r="2.088" stroke-width="2.16" id="connector4pin" stroke="white" cx="5.04" cy="33.84" fill="white"/>
     <circle r="2.088" stroke-width="2.16" id="connector5pin" stroke="white" cx="5.04" cy="41.04" fill="white"/>
     <circle r="2.088" stroke-width="2.16" id="connector6pin" stroke="white" cx="5.04" cy="48.24" fill="white"/>
    </g>
   </g>
  </g>
 </g>
 <g partID="68060">
  <g transform="translate(13.0298,49.1836)">
   <g id="copper0">
    <circle r="1.98" stroke-width="2.16" id="connector0pad" stroke="white" cx="20.8462" cy="15.6024" fill="white"/>
    <circle r="1.98" stroke-width="2.16" id="connector1pad" stroke="white" cx="2.42064" cy="15.6024" fill="white"/>
    <circle r="1.98" stroke-width="2.16" id="connector2pad" stroke="white" cx="20.8462" cy="2.84616" fill="white"/>
    <circle r="1.98" stroke-width="2.16" id="connector3pad" stroke="white" cx="2.42064" cy="2.84616" fill="white"/>
   </g>
  </g>
 </g>
 <g partID="68090">
  <g transform="translate(160.63,49.1836)">
   <g transform="matrix(1,0,0,1,0,0)">
    <g id="copper0">
     <circle r="1.98" stroke-width="2.16" id="connector0pad" stroke="white" cx="20.8462" cy="15.6024" fill="white"/>
     <circle r="1.98" stroke-width="2.16" id="connector1pad" stroke="white" cx="2.42064" cy="15.6024" fill="white"/>
     <circle r="1.98" stroke-width="2.16" id="connector2pad" stroke="white" cx="20.8462" cy="2.84616" fill="white"/>
     <circle r="1.98" stroke-width="2.16" id="connector3pad" stroke="white" cx="2.42064" cy="2.84616" fill="white"/>
    </g>
   </g>
  </g>
 </g>
 <g partID="68120">
  <g transform="translate(193.03,49.1836)">
   <g transform="matrix(1,0,0,1,0,0)">
    <g id="copper0">
     <circle r="1.98" stroke-width="2.16" id="connector0pad" stroke="white" cx="20.8462" cy="15.6024" fill="white"/>
     <circle r="1.98" stroke-width="2.16" id="connector1pad" stroke="white" cx="2.42064" cy="15.6024" fill="white"/>
     <circle r="1.98" stroke-width="2.16" id="connector2pad" stroke="white" cx="20.8462" cy="2.84616" fill="white"/>
     <circle r="1.98" stroke-width="2.16" id="connector3pad" stroke="white" cx="2.42064" cy="2.84616" fill="white"/>
    </g>
   </g>
  </g>
 </g>
 <g partID="854485890">
  <g transform="translate(45.576,18.49)">
   <g id="copper0">
    <g id="copper1">
     <!-- <rect width="55" x="10" y="15.5" fill="none" height="55" stroke="rgb(255, 191, 0)" stroke-width="20" />  -->
     <circle r="1.98" stroke-width="2.16" id="connector0pin" stroke="white" cx="2.7" cy="3.096" fill="white"/>
     <circle r="1.98" stroke-width="2.16" id="connector1pin" stroke="white" cx="31.5" cy="3.096" fill="white"/>
    </g>
   </g>
  </g>
 </g>
 <g partID="854485760">
  <g transform="translate(45.576,7.68999)">
   <g id="copper0">
    <g id="copper1">
     <!-- <rect width="55" x="10" y="15.5" fill="none" height="55" stroke="rgb(255, 191, 0)" stroke-width="20" />  -->
     <circle r="1.98" stroke-width="2.16" id="connector0pin" stroke="white" cx="2.7" cy="3.096" fill="white"/>
     <circle r="1.98" stroke-width="2.16" id="connector1pin" stroke="white" cx="31.5" cy="3.096" fill="white"/>
    </g>
   </g>
  </g>
 </g>
 <g partID="854396000">
  <g transform="translate(45.576,36.49)">
   <g id="copper0">
    <g id="copper1">
     <!-- <rect width="55" x="10" y="15.5" fill="none" height="55" stroke="rgb(255, 191, 0)" stroke-width="20" />  -->
     <circle r="1.98" stroke-width="2.16" id="connector0pin" stroke="white" cx="2.7" cy="3.096" fill="white"/>
     <circle r="1.98" stroke-width="2.16" id="connector1pin" stroke="white" cx="31.5" cy="3.096" fill="white"/>
    </g>
   </g>
  </g>
 </g>
 <g partID="854391280">
  <g transform="translate(146.376,36.49)">
   <g id="copper0">
    <g id="copper1">
     <!-- <rect width="55" x="10" y="15.5" fill="none" height="55" stroke="rgb(255, 191, 0)" stroke-width="20" />  -->
     <circle r="1.98" stroke-width="2.16" id="connector0pin" stroke="white" cx="2.7" cy="3.096" fill="white"/>
     <circle r="1.98" stroke-width="2.16" id="connector1pin" stroke="white" cx="31.5" cy="3.096" fill="white"/>
    </g>
   </g>
  </g>
 </g>
 <g partID="854391010">
  <g transform="translate(146.376,18.49)">
   <g id="copper0">
    <g id="copper1">
     <!-- <rect width="55" x="10" y="15.5" fill="none" height="55" stroke="rgb(255, 191, 0)" stroke-width="20" />  -->
     <circle r="1.98" stroke-width="2.16" id="connector0pin" stroke="white" cx="2.7" cy="3.096" fill="white"/>
     <circle r="1.98" stroke-width="2.16" id="connector1pin" stroke="white" cx="31.5" cy="3.096" fill="white"/>
    </g>
   </g>
  </g>
 </g>
</svg>
