; NON-PLATED HOLES START AT T1
; THROUGH (PLATED) HOLES START AT T100
M48
INCH
T1C0.078740
T100C0.023622
T101C0.035000
T102C0.019881
T103C0.038000
%
T1
X000704Y000844
X030705Y008844
X030705Y000844
X000704Y008844
T100
X014736Y001844
X016705Y001844
X015720Y001844
T101
X024705Y004344
X024705Y006844
X024705Y008344
X006705Y006844
X010705Y006844
X010705Y008344
X010705Y004344
X020705Y004344
X006705Y004344
X020705Y008344
X020705Y006844
X006705Y008344
T102
X003705Y000844
X024705Y000844
X029205Y000844
T103
X017705Y006844
X004205Y006844
X005205Y006844
X026705Y006844
X013705Y006844
X016705Y006844
X015705Y006844
X012705Y006844
X028705Y006844
X014705Y006844
X003205Y006844
X018705Y006844
X027705Y006844
T00
M30
