G04 MADE WITH FRITZING*
G04 WWW.FRITZING.ORG*
G04 DOUBLE SIDED*
G04 HOLES PLATED*
G04 CONTOUR ON CENTER OF CONTOUR VECTOR*
%ASAXBY*%
%FSLAX23Y23*%
%MOIN*%
%OFA0B0*%
%SFA1.0B1.0*%
%ADD10R,0.032835X0.032835*%
%ADD11C,0.010000*%
%ADD12C,0.005000*%
%ADD13C,0.011811*%
%ADD14R,0.001000X0.001000*%
%LNSILK1*%
G90*
G70*
G54D10*
X734Y237D03*
X694Y237D03*
X816Y237D03*
X775Y237D03*
X856Y237D03*
X694Y278D03*
X674Y136D03*
X877Y136D03*
G54D11*
X2180Y867D02*
X2380Y867D01*
D02*
X2380Y867D02*
X2380Y801D01*
D02*
X2380Y801D02*
X2180Y801D01*
D02*
X2180Y801D02*
X2180Y867D01*
D02*
X2921Y734D02*
X2621Y734D01*
D02*
X2621Y734D02*
X2621Y634D01*
D02*
X2621Y634D02*
X2921Y634D01*
D02*
X2921Y634D02*
X2921Y734D01*
D02*
X571Y734D02*
X271Y734D01*
D02*
X271Y734D02*
X271Y634D01*
D02*
X271Y634D02*
X571Y634D01*
D02*
X571Y634D02*
X571Y734D01*
G54D12*
D02*
X536Y734D02*
X571Y699D01*
G54D11*
D02*
X1921Y734D02*
X1221Y734D01*
D02*
X1221Y734D02*
X1221Y634D01*
D02*
X1221Y634D02*
X1921Y634D01*
D02*
X1921Y634D02*
X1921Y734D01*
D02*
X780Y717D02*
X980Y717D01*
D02*
X980Y717D02*
X980Y651D01*
D02*
X980Y651D02*
X780Y651D01*
D02*
X780Y651D02*
X780Y717D01*
D02*
X780Y867D02*
X980Y867D01*
D02*
X980Y867D02*
X980Y801D01*
D02*
X980Y801D02*
X780Y801D01*
D02*
X780Y801D02*
X780Y867D01*
D02*
X780Y467D02*
X980Y467D01*
D02*
X980Y467D02*
X980Y401D01*
D02*
X980Y401D02*
X780Y401D01*
D02*
X780Y401D02*
X780Y467D01*
D02*
X2180Y467D02*
X2380Y467D01*
D02*
X2380Y467D02*
X2380Y401D01*
D02*
X2380Y401D02*
X2180Y401D01*
D02*
X2180Y401D02*
X2180Y467D01*
D02*
X2180Y717D02*
X2380Y717D01*
D02*
X2380Y717D02*
X2380Y651D01*
D02*
X2380Y651D02*
X2180Y651D01*
D02*
X2180Y651D02*
X2180Y717D01*
G54D13*
X173Y134D02*
X379Y134D01*
D02*
X144Y114D02*
X144Y36D01*
D02*
X173Y26D02*
X390Y26D01*
D02*
X419Y114D02*
X419Y36D01*
D02*
X2273Y134D02*
X2479Y134D01*
D02*
X2244Y114D02*
X2244Y36D01*
D02*
X2273Y26D02*
X2490Y26D01*
D02*
X2519Y114D02*
X2519Y36D01*
D02*
X2723Y134D02*
X2929Y134D01*
D02*
X2694Y114D02*
X2694Y36D01*
D02*
X2723Y26D02*
X2940Y26D01*
D02*
X2969Y114D02*
X2969Y36D01*
D02*
G54D14*
X0Y984D02*
X3148Y984D01*
X0Y983D02*
X3148Y983D01*
X0Y982D02*
X3148Y982D01*
X0Y981D02*
X3148Y981D01*
X0Y980D02*
X3148Y980D01*
X0Y979D02*
X3148Y979D01*
X0Y978D02*
X3148Y978D01*
X0Y977D02*
X3148Y977D01*
X0Y976D02*
X3148Y976D01*
X0Y975D02*
X8Y975D01*
X3140Y975D02*
X3148Y975D01*
X0Y974D02*
X8Y974D01*
X3140Y974D02*
X3148Y974D01*
X0Y973D02*
X8Y973D01*
X3140Y973D02*
X3148Y973D01*
X0Y972D02*
X8Y972D01*
X3140Y972D02*
X3148Y972D01*
X0Y971D02*
X8Y971D01*
X3140Y971D02*
X3148Y971D01*
X0Y970D02*
X8Y970D01*
X3140Y970D02*
X3148Y970D01*
X0Y969D02*
X8Y969D01*
X3140Y969D02*
X3148Y969D01*
X0Y968D02*
X8Y968D01*
X3140Y968D02*
X3148Y968D01*
X0Y967D02*
X8Y967D01*
X3140Y967D02*
X3148Y967D01*
X0Y966D02*
X8Y966D01*
X3140Y966D02*
X3148Y966D01*
X0Y965D02*
X8Y965D01*
X3140Y965D02*
X3148Y965D01*
X0Y964D02*
X8Y964D01*
X3140Y964D02*
X3148Y964D01*
X0Y963D02*
X8Y963D01*
X3140Y963D02*
X3148Y963D01*
X0Y962D02*
X8Y962D01*
X3140Y962D02*
X3148Y962D01*
X0Y961D02*
X8Y961D01*
X3140Y961D02*
X3148Y961D01*
X0Y960D02*
X8Y960D01*
X3140Y960D02*
X3148Y960D01*
X0Y959D02*
X8Y959D01*
X3140Y959D02*
X3148Y959D01*
X0Y958D02*
X8Y958D01*
X3140Y958D02*
X3148Y958D01*
X0Y957D02*
X8Y957D01*
X3140Y957D02*
X3148Y957D01*
X0Y956D02*
X8Y956D01*
X3140Y956D02*
X3148Y956D01*
X0Y955D02*
X8Y955D01*
X3140Y955D02*
X3148Y955D01*
X0Y954D02*
X8Y954D01*
X3140Y954D02*
X3148Y954D01*
X0Y953D02*
X8Y953D01*
X3140Y953D02*
X3148Y953D01*
X0Y952D02*
X8Y952D01*
X3140Y952D02*
X3148Y952D01*
X0Y951D02*
X8Y951D01*
X3140Y951D02*
X3148Y951D01*
X0Y950D02*
X8Y950D01*
X3140Y950D02*
X3148Y950D01*
X0Y949D02*
X8Y949D01*
X3140Y949D02*
X3148Y949D01*
X0Y948D02*
X8Y948D01*
X3140Y948D02*
X3148Y948D01*
X0Y947D02*
X8Y947D01*
X3140Y947D02*
X3148Y947D01*
X0Y946D02*
X8Y946D01*
X3140Y946D02*
X3148Y946D01*
X0Y945D02*
X8Y945D01*
X3140Y945D02*
X3148Y945D01*
X0Y944D02*
X8Y944D01*
X3140Y944D02*
X3148Y944D01*
X0Y943D02*
X8Y943D01*
X3140Y943D02*
X3148Y943D01*
X0Y942D02*
X8Y942D01*
X3140Y942D02*
X3148Y942D01*
X0Y941D02*
X8Y941D01*
X3140Y941D02*
X3148Y941D01*
X0Y940D02*
X8Y940D01*
X3140Y940D02*
X3148Y940D01*
X0Y939D02*
X8Y939D01*
X3140Y939D02*
X3148Y939D01*
X0Y938D02*
X8Y938D01*
X3140Y938D02*
X3148Y938D01*
X0Y937D02*
X8Y937D01*
X3140Y937D02*
X3148Y937D01*
X0Y936D02*
X8Y936D01*
X3140Y936D02*
X3148Y936D01*
X0Y935D02*
X8Y935D01*
X3140Y935D02*
X3148Y935D01*
X0Y934D02*
X8Y934D01*
X3140Y934D02*
X3148Y934D01*
X0Y933D02*
X8Y933D01*
X3140Y933D02*
X3148Y933D01*
X0Y932D02*
X8Y932D01*
X3140Y932D02*
X3148Y932D01*
X0Y931D02*
X8Y931D01*
X3140Y931D02*
X3148Y931D01*
X0Y930D02*
X8Y930D01*
X3140Y930D02*
X3148Y930D01*
X0Y929D02*
X8Y929D01*
X3140Y929D02*
X3148Y929D01*
X0Y928D02*
X8Y928D01*
X3140Y928D02*
X3148Y928D01*
X0Y927D02*
X8Y927D01*
X3140Y927D02*
X3148Y927D01*
X0Y926D02*
X8Y926D01*
X3140Y926D02*
X3148Y926D01*
X0Y925D02*
X8Y925D01*
X3140Y925D02*
X3148Y925D01*
X0Y924D02*
X8Y924D01*
X3140Y924D02*
X3148Y924D01*
X0Y923D02*
X8Y923D01*
X3140Y923D02*
X3148Y923D01*
X0Y922D02*
X8Y922D01*
X3140Y922D02*
X3148Y922D01*
X0Y921D02*
X8Y921D01*
X3140Y921D02*
X3148Y921D01*
X0Y920D02*
X8Y920D01*
X3140Y920D02*
X3148Y920D01*
X0Y919D02*
X8Y919D01*
X732Y919D02*
X748Y919D01*
X766Y919D02*
X781Y919D01*
X3140Y919D02*
X3148Y919D01*
X0Y918D02*
X8Y918D01*
X732Y918D02*
X750Y918D01*
X766Y918D02*
X782Y918D01*
X2328Y918D02*
X2345Y918D01*
X2359Y918D02*
X2370Y918D01*
X3140Y918D02*
X3148Y918D01*
X0Y917D02*
X8Y917D01*
X732Y917D02*
X751Y917D01*
X766Y917D02*
X782Y917D01*
X2328Y917D02*
X2346Y917D01*
X2358Y917D02*
X2370Y917D01*
X3140Y917D02*
X3148Y917D01*
X0Y916D02*
X8Y916D01*
X732Y916D02*
X751Y916D01*
X766Y916D02*
X781Y916D01*
X2328Y916D02*
X2347Y916D01*
X2358Y916D02*
X2370Y916D01*
X3140Y916D02*
X3148Y916D01*
X0Y915D02*
X8Y915D01*
X732Y915D02*
X735Y915D01*
X748Y915D02*
X752Y915D01*
X766Y915D02*
X769Y915D01*
X2328Y915D02*
X2347Y915D01*
X2359Y915D02*
X2370Y915D01*
X3140Y915D02*
X3148Y915D01*
X0Y914D02*
X8Y914D01*
X732Y914D02*
X735Y914D01*
X748Y914D02*
X752Y914D01*
X766Y914D02*
X769Y914D01*
X2328Y914D02*
X2331Y914D01*
X2344Y914D02*
X2348Y914D01*
X2366Y914D02*
X2370Y914D01*
X3140Y914D02*
X3148Y914D01*
X0Y913D02*
X8Y913D01*
X732Y913D02*
X735Y913D01*
X748Y913D02*
X752Y913D01*
X766Y913D02*
X769Y913D01*
X2328Y913D02*
X2331Y913D01*
X2345Y913D02*
X2348Y913D01*
X2366Y913D02*
X2370Y913D01*
X3140Y913D02*
X3148Y913D01*
X0Y912D02*
X8Y912D01*
X732Y912D02*
X735Y912D01*
X748Y912D02*
X752Y912D01*
X766Y912D02*
X769Y912D01*
X2328Y912D02*
X2331Y912D01*
X2345Y912D02*
X2348Y912D01*
X2366Y912D02*
X2370Y912D01*
X3140Y912D02*
X3148Y912D01*
X0Y911D02*
X8Y911D01*
X732Y911D02*
X735Y911D01*
X748Y911D02*
X752Y911D01*
X766Y911D02*
X769Y911D01*
X2328Y911D02*
X2331Y911D01*
X2345Y911D02*
X2348Y911D01*
X2366Y911D02*
X2370Y911D01*
X3140Y911D02*
X3148Y911D01*
X0Y910D02*
X8Y910D01*
X732Y910D02*
X735Y910D01*
X748Y910D02*
X752Y910D01*
X766Y910D02*
X769Y910D01*
X2328Y910D02*
X2331Y910D01*
X2345Y910D02*
X2348Y910D01*
X2366Y910D02*
X2370Y910D01*
X3140Y910D02*
X3148Y910D01*
X0Y909D02*
X8Y909D01*
X732Y909D02*
X751Y909D01*
X766Y909D02*
X769Y909D01*
X2328Y909D02*
X2331Y909D01*
X2344Y909D02*
X2348Y909D01*
X2366Y909D02*
X2370Y909D01*
X3140Y909D02*
X3148Y909D01*
X0Y908D02*
X8Y908D01*
X732Y908D02*
X751Y908D01*
X766Y908D02*
X769Y908D01*
X2328Y908D02*
X2347Y908D01*
X2366Y908D02*
X2370Y908D01*
X3140Y908D02*
X3148Y908D01*
X0Y907D02*
X8Y907D01*
X732Y907D02*
X750Y907D01*
X766Y907D02*
X769Y907D01*
X2328Y907D02*
X2347Y907D01*
X2366Y907D02*
X2370Y907D01*
X3140Y907D02*
X3148Y907D01*
X0Y906D02*
X8Y906D01*
X732Y906D02*
X748Y906D01*
X766Y906D02*
X770Y906D01*
X2328Y906D02*
X2346Y906D01*
X2366Y906D02*
X2370Y906D01*
X3140Y906D02*
X3148Y906D01*
X0Y905D02*
X8Y905D01*
X732Y905D02*
X735Y905D01*
X739Y905D02*
X743Y905D01*
X766Y905D02*
X780Y905D01*
X2328Y905D02*
X2345Y905D01*
X2366Y905D02*
X2370Y905D01*
X3140Y905D02*
X3148Y905D01*
X0Y904D02*
X8Y904D01*
X732Y904D02*
X735Y904D01*
X740Y904D02*
X744Y904D01*
X766Y904D02*
X781Y904D01*
X2328Y904D02*
X2332Y904D01*
X2335Y904D02*
X2340Y904D01*
X2366Y904D02*
X2370Y904D01*
X3140Y904D02*
X3148Y904D01*
X0Y903D02*
X8Y903D01*
X732Y903D02*
X735Y903D01*
X740Y903D02*
X744Y903D01*
X766Y903D02*
X781Y903D01*
X2328Y903D02*
X2331Y903D01*
X2336Y903D02*
X2340Y903D01*
X2366Y903D02*
X2370Y903D01*
X3140Y903D02*
X3148Y903D01*
X0Y902D02*
X8Y902D01*
X732Y902D02*
X735Y902D01*
X741Y902D02*
X745Y902D01*
X766Y902D02*
X782Y902D01*
X2328Y902D02*
X2331Y902D01*
X2336Y902D02*
X2340Y902D01*
X2366Y902D02*
X2370Y902D01*
X3140Y902D02*
X3148Y902D01*
X0Y901D02*
X8Y901D01*
X732Y901D02*
X735Y901D01*
X741Y901D02*
X745Y901D01*
X779Y901D02*
X782Y901D01*
X2328Y901D02*
X2331Y901D01*
X2337Y901D02*
X2341Y901D01*
X2366Y901D02*
X2370Y901D01*
X2376Y901D02*
X2377Y901D01*
X3140Y901D02*
X3148Y901D01*
X0Y900D02*
X8Y900D01*
X732Y900D02*
X735Y900D01*
X742Y900D02*
X746Y900D01*
X779Y900D02*
X782Y900D01*
X2328Y900D02*
X2331Y900D01*
X2338Y900D02*
X2342Y900D01*
X2366Y900D02*
X2370Y900D01*
X2375Y900D02*
X2378Y900D01*
X3140Y900D02*
X3148Y900D01*
X0Y899D02*
X8Y899D01*
X732Y899D02*
X735Y899D01*
X743Y899D02*
X747Y899D01*
X779Y899D02*
X782Y899D01*
X2328Y899D02*
X2331Y899D01*
X2338Y899D02*
X2342Y899D01*
X2366Y899D02*
X2370Y899D01*
X2375Y899D02*
X2378Y899D01*
X3140Y899D02*
X3148Y899D01*
X0Y898D02*
X8Y898D01*
X732Y898D02*
X735Y898D01*
X743Y898D02*
X747Y898D01*
X779Y898D02*
X782Y898D01*
X2328Y898D02*
X2331Y898D01*
X2339Y898D02*
X2343Y898D01*
X2366Y898D02*
X2370Y898D01*
X2375Y898D02*
X2378Y898D01*
X3140Y898D02*
X3148Y898D01*
X0Y897D02*
X8Y897D01*
X732Y897D02*
X735Y897D01*
X744Y897D02*
X748Y897D01*
X779Y897D02*
X782Y897D01*
X2328Y897D02*
X2331Y897D01*
X2339Y897D02*
X2343Y897D01*
X2366Y897D02*
X2370Y897D01*
X2375Y897D02*
X2378Y897D01*
X3140Y897D02*
X3148Y897D01*
X0Y896D02*
X8Y896D01*
X732Y896D02*
X735Y896D01*
X744Y896D02*
X748Y896D01*
X779Y896D02*
X782Y896D01*
X2328Y896D02*
X2331Y896D01*
X2340Y896D02*
X2344Y896D01*
X2366Y896D02*
X2370Y896D01*
X2375Y896D02*
X2378Y896D01*
X3140Y896D02*
X3148Y896D01*
X0Y895D02*
X8Y895D01*
X732Y895D02*
X735Y895D01*
X745Y895D02*
X749Y895D01*
X779Y895D02*
X782Y895D01*
X2328Y895D02*
X2331Y895D01*
X2341Y895D02*
X2344Y895D01*
X2366Y895D02*
X2370Y895D01*
X2375Y895D02*
X2378Y895D01*
X3140Y895D02*
X3148Y895D01*
X0Y894D02*
X8Y894D01*
X732Y894D02*
X735Y894D01*
X746Y894D02*
X749Y894D01*
X779Y894D02*
X782Y894D01*
X2328Y894D02*
X2331Y894D01*
X2341Y894D02*
X2345Y894D01*
X2366Y894D02*
X2370Y894D01*
X2375Y894D02*
X2378Y894D01*
X3140Y894D02*
X3148Y894D01*
X0Y893D02*
X8Y893D01*
X732Y893D02*
X735Y893D01*
X746Y893D02*
X750Y893D01*
X763Y893D02*
X765Y893D01*
X779Y893D02*
X782Y893D01*
X2328Y893D02*
X2331Y893D01*
X2342Y893D02*
X2346Y893D01*
X2366Y893D02*
X2370Y893D01*
X2375Y893D02*
X2378Y893D01*
X3140Y893D02*
X3148Y893D01*
X0Y892D02*
X8Y892D01*
X732Y892D02*
X735Y892D01*
X747Y892D02*
X751Y892D01*
X762Y892D02*
X767Y892D01*
X778Y892D02*
X782Y892D01*
X2328Y892D02*
X2331Y892D01*
X2342Y892D02*
X2346Y892D01*
X2366Y892D02*
X2370Y892D01*
X2375Y892D02*
X2378Y892D01*
X3140Y892D02*
X3148Y892D01*
X0Y891D02*
X8Y891D01*
X732Y891D02*
X735Y891D01*
X747Y891D02*
X751Y891D01*
X762Y891D02*
X782Y891D01*
X2328Y891D02*
X2331Y891D01*
X2343Y891D02*
X2347Y891D01*
X2366Y891D02*
X2370Y891D01*
X2375Y891D02*
X2378Y891D01*
X3140Y891D02*
X3148Y891D01*
X0Y890D02*
X8Y890D01*
X732Y890D02*
X735Y890D01*
X748Y890D02*
X752Y890D01*
X763Y890D02*
X781Y890D01*
X2328Y890D02*
X2331Y890D01*
X2343Y890D02*
X2347Y890D01*
X2359Y890D02*
X2378Y890D01*
X3140Y890D02*
X3148Y890D01*
X0Y889D02*
X8Y889D01*
X732Y889D02*
X735Y889D01*
X748Y889D02*
X752Y889D01*
X764Y889D02*
X781Y889D01*
X2328Y889D02*
X2331Y889D01*
X2344Y889D02*
X2348Y889D01*
X2358Y889D02*
X2378Y889D01*
X3140Y889D02*
X3148Y889D01*
X0Y888D02*
X8Y888D01*
X733Y888D02*
X734Y888D01*
X749Y888D02*
X751Y888D01*
X766Y888D02*
X780Y888D01*
X2328Y888D02*
X2331Y888D01*
X2345Y888D02*
X2348Y888D01*
X2358Y888D02*
X2378Y888D01*
X3140Y888D02*
X3148Y888D01*
X0Y887D02*
X8Y887D01*
X2329Y887D02*
X2331Y887D01*
X2345Y887D02*
X2347Y887D01*
X2359Y887D02*
X2377Y887D01*
X3140Y887D02*
X3148Y887D01*
X0Y886D02*
X8Y886D01*
X3140Y886D02*
X3148Y886D01*
X0Y885D02*
X8Y885D01*
X3140Y885D02*
X3148Y885D01*
X0Y884D02*
X8Y884D01*
X3140Y884D02*
X3148Y884D01*
X0Y883D02*
X8Y883D01*
X3140Y883D02*
X3148Y883D01*
X0Y882D02*
X8Y882D01*
X3140Y882D02*
X3148Y882D01*
X0Y881D02*
X8Y881D01*
X3140Y881D02*
X3148Y881D01*
X0Y880D02*
X8Y880D01*
X3140Y880D02*
X3148Y880D01*
X0Y879D02*
X8Y879D01*
X3140Y879D02*
X3148Y879D01*
X0Y878D02*
X8Y878D01*
X3140Y878D02*
X3148Y878D01*
X0Y877D02*
X8Y877D01*
X3140Y877D02*
X3148Y877D01*
X0Y876D02*
X8Y876D01*
X3140Y876D02*
X3148Y876D01*
X0Y875D02*
X8Y875D01*
X3140Y875D02*
X3148Y875D01*
X0Y874D02*
X8Y874D01*
X3140Y874D02*
X3148Y874D01*
X0Y873D02*
X8Y873D01*
X3140Y873D02*
X3148Y873D01*
X0Y872D02*
X8Y872D01*
X3140Y872D02*
X3148Y872D01*
X0Y871D02*
X8Y871D01*
X3140Y871D02*
X3148Y871D01*
X0Y870D02*
X8Y870D01*
X3140Y870D02*
X3148Y870D01*
X0Y869D02*
X8Y869D01*
X3140Y869D02*
X3148Y869D01*
X0Y868D02*
X8Y868D01*
X3140Y868D02*
X3148Y868D01*
X0Y867D02*
X8Y867D01*
X3140Y867D02*
X3148Y867D01*
X0Y866D02*
X8Y866D01*
X3140Y866D02*
X3148Y866D01*
X0Y865D02*
X8Y865D01*
X3140Y865D02*
X3148Y865D01*
X0Y864D02*
X8Y864D01*
X3140Y864D02*
X3148Y864D01*
X0Y863D02*
X8Y863D01*
X3140Y863D02*
X3148Y863D01*
X0Y862D02*
X8Y862D01*
X3140Y862D02*
X3148Y862D01*
X0Y861D02*
X8Y861D01*
X3140Y861D02*
X3148Y861D01*
X0Y860D02*
X8Y860D01*
X3140Y860D02*
X3148Y860D01*
X0Y859D02*
X8Y859D01*
X3140Y859D02*
X3148Y859D01*
X0Y858D02*
X8Y858D01*
X3140Y858D02*
X3148Y858D01*
X0Y857D02*
X8Y857D01*
X3140Y857D02*
X3148Y857D01*
X0Y856D02*
X8Y856D01*
X3140Y856D02*
X3148Y856D01*
X0Y855D02*
X8Y855D01*
X3140Y855D02*
X3148Y855D01*
X0Y854D02*
X8Y854D01*
X3140Y854D02*
X3148Y854D01*
X0Y853D02*
X8Y853D01*
X3140Y853D02*
X3148Y853D01*
X0Y852D02*
X8Y852D01*
X3140Y852D02*
X3148Y852D01*
X0Y851D02*
X8Y851D01*
X3140Y851D02*
X3148Y851D01*
X0Y850D02*
X8Y850D01*
X3140Y850D02*
X3148Y850D01*
X0Y849D02*
X8Y849D01*
X3140Y849D02*
X3148Y849D01*
X0Y848D02*
X8Y848D01*
X3140Y848D02*
X3148Y848D01*
X0Y847D02*
X8Y847D01*
X3140Y847D02*
X3148Y847D01*
X0Y846D02*
X8Y846D01*
X3140Y846D02*
X3148Y846D01*
X0Y845D02*
X8Y845D01*
X3140Y845D02*
X3148Y845D01*
X0Y844D02*
X8Y844D01*
X3140Y844D02*
X3148Y844D01*
X0Y843D02*
X8Y843D01*
X3140Y843D02*
X3148Y843D01*
X0Y842D02*
X8Y842D01*
X3140Y842D02*
X3148Y842D01*
X0Y841D02*
X8Y841D01*
X3140Y841D02*
X3148Y841D01*
X0Y840D02*
X8Y840D01*
X3140Y840D02*
X3148Y840D01*
X0Y839D02*
X8Y839D01*
X713Y839D02*
X779Y839D01*
X980Y839D02*
X1027Y839D01*
X2112Y839D02*
X2179Y839D01*
X2380Y839D02*
X2427Y839D01*
X3140Y839D02*
X3148Y839D01*
X0Y838D02*
X8Y838D01*
X713Y838D02*
X779Y838D01*
X980Y838D02*
X1027Y838D01*
X2112Y838D02*
X2179Y838D01*
X2380Y838D02*
X2427Y838D01*
X3140Y838D02*
X3148Y838D01*
X0Y837D02*
X8Y837D01*
X713Y837D02*
X779Y837D01*
X980Y837D02*
X1027Y837D01*
X2112Y837D02*
X2179Y837D01*
X2380Y837D02*
X2427Y837D01*
X3140Y837D02*
X3148Y837D01*
X0Y836D02*
X8Y836D01*
X713Y836D02*
X779Y836D01*
X980Y836D02*
X1027Y836D01*
X2113Y836D02*
X2179Y836D01*
X2380Y836D02*
X2427Y836D01*
X3140Y836D02*
X3148Y836D01*
X0Y835D02*
X8Y835D01*
X713Y835D02*
X779Y835D01*
X980Y835D02*
X1027Y835D01*
X2113Y835D02*
X2179Y835D01*
X2380Y835D02*
X2427Y835D01*
X3140Y835D02*
X3148Y835D01*
X0Y834D02*
X8Y834D01*
X713Y834D02*
X779Y834D01*
X980Y834D02*
X1027Y834D01*
X2113Y834D02*
X2179Y834D01*
X2380Y834D02*
X2427Y834D01*
X3140Y834D02*
X3148Y834D01*
X0Y833D02*
X8Y833D01*
X713Y833D02*
X779Y833D01*
X980Y833D02*
X1027Y833D01*
X2112Y833D02*
X2179Y833D01*
X2380Y833D02*
X2427Y833D01*
X3140Y833D02*
X3148Y833D01*
X0Y832D02*
X8Y832D01*
X713Y832D02*
X779Y832D01*
X980Y832D02*
X1027Y832D01*
X2112Y832D02*
X2179Y832D01*
X2380Y832D02*
X2427Y832D01*
X3140Y832D02*
X3148Y832D01*
X0Y831D02*
X8Y831D01*
X713Y831D02*
X779Y831D01*
X980Y831D02*
X1027Y831D01*
X2112Y831D02*
X2179Y831D01*
X2380Y831D02*
X2427Y831D01*
X3140Y831D02*
X3148Y831D01*
X0Y830D02*
X8Y830D01*
X713Y830D02*
X779Y830D01*
X980Y830D02*
X1027Y830D01*
X2112Y830D02*
X2178Y830D01*
X2380Y830D02*
X2427Y830D01*
X3140Y830D02*
X3148Y830D01*
X0Y829D02*
X8Y829D01*
X3140Y829D02*
X3148Y829D01*
X0Y828D02*
X8Y828D01*
X3140Y828D02*
X3148Y828D01*
X0Y827D02*
X8Y827D01*
X3140Y827D02*
X3148Y827D01*
X0Y826D02*
X8Y826D01*
X3140Y826D02*
X3148Y826D01*
X0Y825D02*
X8Y825D01*
X3140Y825D02*
X3148Y825D01*
X0Y824D02*
X8Y824D01*
X3140Y824D02*
X3148Y824D01*
X0Y823D02*
X8Y823D01*
X3140Y823D02*
X3148Y823D01*
X0Y822D02*
X8Y822D01*
X3140Y822D02*
X3148Y822D01*
X0Y821D02*
X8Y821D01*
X3140Y821D02*
X3148Y821D01*
X0Y820D02*
X8Y820D01*
X3140Y820D02*
X3148Y820D01*
X0Y819D02*
X8Y819D01*
X3140Y819D02*
X3148Y819D01*
X0Y818D02*
X8Y818D01*
X3140Y818D02*
X3148Y818D01*
X0Y817D02*
X8Y817D01*
X3140Y817D02*
X3148Y817D01*
X0Y816D02*
X8Y816D01*
X3140Y816D02*
X3148Y816D01*
X0Y815D02*
X8Y815D01*
X3140Y815D02*
X3148Y815D01*
X0Y814D02*
X8Y814D01*
X3140Y814D02*
X3148Y814D01*
X0Y813D02*
X8Y813D01*
X3140Y813D02*
X3148Y813D01*
X0Y812D02*
X8Y812D01*
X2829Y812D02*
X2833Y812D01*
X3140Y812D02*
X3148Y812D01*
X0Y811D02*
X8Y811D01*
X2702Y811D02*
X2706Y811D01*
X2717Y811D02*
X2721Y811D01*
X2829Y811D02*
X2834Y811D01*
X3140Y811D02*
X3148Y811D01*
X0Y810D02*
X8Y810D01*
X2702Y810D02*
X2707Y810D01*
X2716Y810D02*
X2722Y810D01*
X2828Y810D02*
X2834Y810D01*
X3140Y810D02*
X3148Y810D01*
X0Y809D02*
X8Y809D01*
X2702Y809D02*
X2708Y809D01*
X2716Y809D02*
X2722Y809D01*
X2767Y809D02*
X2769Y809D01*
X2829Y809D02*
X2834Y809D01*
X3140Y809D02*
X3148Y809D01*
X0Y808D02*
X8Y808D01*
X2702Y808D02*
X2708Y808D01*
X2715Y808D02*
X2722Y808D01*
X2766Y808D02*
X2769Y808D01*
X2829Y808D02*
X2833Y808D01*
X3140Y808D02*
X3148Y808D01*
X0Y807D02*
X8Y807D01*
X2702Y807D02*
X2709Y807D01*
X2714Y807D02*
X2722Y807D01*
X2766Y807D02*
X2769Y807D01*
X2831Y807D02*
X2831Y807D01*
X3140Y807D02*
X3148Y807D01*
X0Y806D02*
X8Y806D01*
X2702Y806D02*
X2710Y806D01*
X2714Y806D02*
X2722Y806D01*
X2766Y806D02*
X2769Y806D01*
X3140Y806D02*
X3148Y806D01*
X0Y805D02*
X8Y805D01*
X2702Y805D02*
X2710Y805D01*
X2713Y805D02*
X2722Y805D01*
X2766Y805D02*
X2769Y805D01*
X3140Y805D02*
X3148Y805D01*
X0Y804D02*
X8Y804D01*
X2702Y804D02*
X2705Y804D01*
X2707Y804D02*
X2716Y804D01*
X2718Y804D02*
X2722Y804D01*
X2766Y804D02*
X2769Y804D01*
X3140Y804D02*
X3148Y804D01*
X0Y803D02*
X8Y803D01*
X2702Y803D02*
X2705Y803D01*
X2708Y803D02*
X2716Y803D01*
X2718Y803D02*
X2722Y803D01*
X2766Y803D02*
X2769Y803D01*
X3140Y803D02*
X3148Y803D01*
X0Y802D02*
X8Y802D01*
X2702Y802D02*
X2705Y802D01*
X2708Y802D02*
X2715Y802D01*
X2718Y802D02*
X2722Y802D01*
X2737Y802D02*
X2747Y802D01*
X2763Y802D02*
X2779Y802D01*
X2793Y802D02*
X2794Y802D01*
X2801Y802D02*
X2808Y802D01*
X2825Y802D02*
X2833Y802D01*
X2854Y802D02*
X2855Y802D01*
X2870Y802D02*
X2871Y802D01*
X3140Y802D02*
X3148Y802D01*
X0Y801D02*
X8Y801D01*
X2702Y801D02*
X2705Y801D01*
X2709Y801D02*
X2714Y801D01*
X2718Y801D02*
X2722Y801D01*
X2736Y801D02*
X2749Y801D01*
X2762Y801D02*
X2780Y801D01*
X2792Y801D02*
X2795Y801D01*
X2800Y801D02*
X2809Y801D01*
X2825Y801D02*
X2834Y801D01*
X2853Y801D02*
X2856Y801D01*
X2868Y801D02*
X2872Y801D01*
X3140Y801D02*
X3148Y801D01*
X0Y800D02*
X8Y800D01*
X2702Y800D02*
X2705Y800D01*
X2710Y800D02*
X2714Y800D01*
X2718Y800D02*
X2722Y800D01*
X2736Y800D02*
X2750Y800D01*
X2762Y800D02*
X2780Y800D01*
X2792Y800D02*
X2795Y800D01*
X2799Y800D02*
X2810Y800D01*
X2824Y800D02*
X2834Y800D01*
X2853Y800D02*
X2857Y800D01*
X2868Y800D02*
X2872Y800D01*
X3140Y800D02*
X3148Y800D01*
X0Y799D02*
X8Y799D01*
X2702Y799D02*
X2705Y799D01*
X2710Y799D02*
X2713Y799D01*
X2718Y799D02*
X2722Y799D01*
X2737Y799D02*
X2750Y799D01*
X2763Y799D02*
X2779Y799D01*
X2792Y799D02*
X2795Y799D01*
X2798Y799D02*
X2811Y799D01*
X2825Y799D02*
X2834Y799D01*
X2853Y799D02*
X2858Y799D01*
X2867Y799D02*
X2871Y799D01*
X3140Y799D02*
X3148Y799D01*
X0Y798D02*
X8Y798D01*
X346Y798D02*
X361Y798D01*
X2702Y798D02*
X2705Y798D01*
X2710Y798D02*
X2713Y798D01*
X2718Y798D02*
X2722Y798D01*
X2747Y798D02*
X2751Y798D01*
X2766Y798D02*
X2770Y798D01*
X2792Y798D02*
X2802Y798D01*
X2807Y798D02*
X2812Y798D01*
X2830Y798D02*
X2834Y798D01*
X2854Y798D02*
X2859Y798D01*
X2866Y798D02*
X2870Y798D01*
X3140Y798D02*
X3148Y798D01*
X0Y797D02*
X8Y797D01*
X346Y797D02*
X363Y797D01*
X2702Y797D02*
X2705Y797D01*
X2711Y797D02*
X2713Y797D01*
X2718Y797D02*
X2722Y797D01*
X2748Y797D02*
X2751Y797D01*
X2766Y797D02*
X2769Y797D01*
X2792Y797D02*
X2801Y797D01*
X2808Y797D02*
X2812Y797D01*
X2831Y797D02*
X2834Y797D01*
X2855Y797D02*
X2859Y797D01*
X2865Y797D02*
X2870Y797D01*
X3140Y797D02*
X3148Y797D01*
X0Y796D02*
X8Y796D01*
X346Y796D02*
X364Y796D01*
X2702Y796D02*
X2705Y796D01*
X2718Y796D02*
X2722Y796D01*
X2748Y796D02*
X2751Y796D01*
X2766Y796D02*
X2769Y796D01*
X2792Y796D02*
X2800Y796D01*
X2809Y796D02*
X2812Y796D01*
X2831Y796D02*
X2834Y796D01*
X2856Y796D02*
X2860Y796D01*
X2864Y796D02*
X2869Y796D01*
X3140Y796D02*
X3148Y796D01*
X0Y795D02*
X8Y795D01*
X346Y795D02*
X365Y795D01*
X2702Y795D02*
X2705Y795D01*
X2718Y795D02*
X2722Y795D01*
X2748Y795D02*
X2751Y795D01*
X2766Y795D02*
X2769Y795D01*
X2792Y795D02*
X2799Y795D01*
X2809Y795D02*
X2812Y795D01*
X2831Y795D02*
X2834Y795D01*
X2857Y795D02*
X2861Y795D01*
X2864Y795D02*
X2868Y795D01*
X3140Y795D02*
X3148Y795D01*
X0Y794D02*
X8Y794D01*
X346Y794D02*
X365Y794D01*
X2702Y794D02*
X2705Y794D01*
X2718Y794D02*
X2722Y794D01*
X2748Y794D02*
X2751Y794D01*
X2766Y794D02*
X2769Y794D01*
X2792Y794D02*
X2797Y794D01*
X2809Y794D02*
X2812Y794D01*
X2831Y794D02*
X2834Y794D01*
X2857Y794D02*
X2867Y794D01*
X3140Y794D02*
X3148Y794D01*
X0Y793D02*
X8Y793D01*
X346Y793D02*
X349Y793D01*
X362Y793D02*
X366Y793D01*
X2702Y793D02*
X2705Y793D01*
X2718Y793D02*
X2722Y793D01*
X2736Y793D02*
X2751Y793D01*
X2766Y793D02*
X2769Y793D01*
X2792Y793D02*
X2796Y793D01*
X2810Y793D02*
X2810Y793D01*
X2831Y793D02*
X2834Y793D01*
X2858Y793D02*
X2866Y793D01*
X3140Y793D02*
X3148Y793D01*
X0Y792D02*
X8Y792D01*
X346Y792D02*
X349Y792D01*
X363Y792D02*
X366Y792D01*
X2702Y792D02*
X2705Y792D01*
X2718Y792D02*
X2722Y792D01*
X2734Y792D02*
X2751Y792D01*
X2766Y792D02*
X2769Y792D01*
X2792Y792D02*
X2795Y792D01*
X2831Y792D02*
X2834Y792D01*
X2859Y792D02*
X2865Y792D01*
X3140Y792D02*
X3148Y792D01*
X0Y791D02*
X8Y791D01*
X346Y791D02*
X349Y791D01*
X363Y791D02*
X366Y791D01*
X2702Y791D02*
X2705Y791D01*
X2718Y791D02*
X2722Y791D01*
X2733Y791D02*
X2751Y791D01*
X2766Y791D02*
X2769Y791D01*
X2792Y791D02*
X2795Y791D01*
X2831Y791D02*
X2834Y791D01*
X2860Y791D02*
X2865Y791D01*
X3140Y791D02*
X3148Y791D01*
X0Y790D02*
X8Y790D01*
X346Y790D02*
X349Y790D01*
X363Y790D02*
X366Y790D01*
X2702Y790D02*
X2705Y790D01*
X2718Y790D02*
X2722Y790D01*
X2733Y790D02*
X2751Y790D01*
X2766Y790D02*
X2769Y790D01*
X2792Y790D02*
X2795Y790D01*
X2831Y790D02*
X2834Y790D01*
X2859Y790D02*
X2865Y790D01*
X3140Y790D02*
X3148Y790D01*
X0Y789D02*
X8Y789D01*
X346Y789D02*
X349Y789D01*
X363Y789D02*
X366Y789D01*
X382Y789D02*
X390Y789D01*
X407Y789D02*
X408Y789D01*
X424Y789D02*
X425Y789D01*
X442Y789D02*
X450Y789D01*
X468Y789D02*
X469Y789D01*
X476Y789D02*
X482Y789D01*
X2702Y789D02*
X2705Y789D01*
X2718Y789D02*
X2722Y789D01*
X2732Y789D02*
X2736Y789D01*
X2747Y789D02*
X2751Y789D01*
X2766Y789D02*
X2769Y789D01*
X2792Y789D02*
X2795Y789D01*
X2831Y789D02*
X2834Y789D01*
X2859Y789D02*
X2866Y789D01*
X3140Y789D02*
X3148Y789D01*
X0Y788D02*
X8Y788D01*
X346Y788D02*
X349Y788D01*
X363Y788D02*
X366Y788D01*
X380Y788D02*
X392Y788D01*
X406Y788D02*
X409Y788D01*
X423Y788D02*
X426Y788D01*
X440Y788D02*
X452Y788D01*
X467Y788D02*
X469Y788D01*
X475Y788D02*
X484Y788D01*
X2702Y788D02*
X2705Y788D01*
X2718Y788D02*
X2722Y788D01*
X2732Y788D02*
X2735Y788D01*
X2748Y788D02*
X2751Y788D01*
X2766Y788D02*
X2769Y788D01*
X2792Y788D02*
X2795Y788D01*
X2831Y788D02*
X2834Y788D01*
X2858Y788D02*
X2867Y788D01*
X3140Y788D02*
X3148Y788D01*
X0Y787D02*
X8Y787D01*
X346Y787D02*
X349Y787D01*
X363Y787D02*
X366Y787D01*
X379Y787D02*
X393Y787D01*
X406Y787D02*
X409Y787D01*
X423Y787D02*
X426Y787D01*
X439Y787D02*
X453Y787D01*
X466Y787D02*
X470Y787D01*
X473Y787D02*
X485Y787D01*
X2702Y787D02*
X2705Y787D01*
X2718Y787D02*
X2722Y787D01*
X2732Y787D02*
X2735Y787D01*
X2748Y787D02*
X2751Y787D01*
X2766Y787D02*
X2769Y787D01*
X2792Y787D02*
X2795Y787D01*
X2831Y787D02*
X2834Y787D01*
X2857Y787D02*
X2861Y787D01*
X2863Y787D02*
X2868Y787D01*
X3140Y787D02*
X3148Y787D01*
X0Y786D02*
X8Y786D01*
X346Y786D02*
X349Y786D01*
X363Y786D02*
X366Y786D01*
X378Y786D02*
X394Y786D01*
X406Y786D02*
X409Y786D01*
X423Y786D02*
X426Y786D01*
X438Y786D02*
X454Y786D01*
X466Y786D02*
X470Y786D01*
X472Y786D02*
X485Y786D01*
X2702Y786D02*
X2705Y786D01*
X2718Y786D02*
X2722Y786D01*
X2732Y786D02*
X2735Y786D01*
X2748Y786D02*
X2752Y786D01*
X2766Y786D02*
X2769Y786D01*
X2780Y786D02*
X2781Y786D01*
X2792Y786D02*
X2795Y786D01*
X2831Y786D02*
X2834Y786D01*
X2856Y786D02*
X2861Y786D01*
X2864Y786D02*
X2869Y786D01*
X3140Y786D02*
X3148Y786D01*
X0Y785D02*
X8Y785D01*
X346Y785D02*
X349Y785D01*
X363Y785D02*
X366Y785D01*
X377Y785D02*
X383Y785D01*
X389Y785D02*
X395Y785D01*
X406Y785D02*
X409Y785D01*
X423Y785D02*
X426Y785D01*
X437Y785D02*
X443Y785D01*
X450Y785D02*
X455Y785D01*
X466Y785D02*
X477Y785D01*
X481Y785D02*
X486Y785D01*
X2702Y785D02*
X2705Y785D01*
X2718Y785D02*
X2722Y785D01*
X2732Y785D02*
X2735Y785D01*
X2747Y785D02*
X2752Y785D01*
X2766Y785D02*
X2769Y785D01*
X2779Y785D02*
X2782Y785D01*
X2792Y785D02*
X2795Y785D01*
X2831Y785D02*
X2834Y785D01*
X2855Y785D02*
X2860Y785D01*
X2865Y785D02*
X2869Y785D01*
X3140Y785D02*
X3148Y785D01*
X0Y784D02*
X8Y784D01*
X346Y784D02*
X349Y784D01*
X362Y784D02*
X366Y784D01*
X377Y784D02*
X381Y784D01*
X391Y784D02*
X395Y784D01*
X406Y784D02*
X409Y784D01*
X423Y784D02*
X426Y784D01*
X437Y784D02*
X441Y784D01*
X452Y784D02*
X456Y784D01*
X466Y784D02*
X475Y784D01*
X483Y784D02*
X486Y784D01*
X2702Y784D02*
X2705Y784D01*
X2718Y784D02*
X2722Y784D01*
X2732Y784D02*
X2735Y784D01*
X2746Y784D02*
X2752Y784D01*
X2766Y784D02*
X2770Y784D01*
X2778Y784D02*
X2782Y784D01*
X2792Y784D02*
X2795Y784D01*
X2831Y784D02*
X2834Y784D01*
X2854Y784D02*
X2859Y784D01*
X2866Y784D02*
X2870Y784D01*
X3140Y784D02*
X3148Y784D01*
X0Y783D02*
X8Y783D01*
X346Y783D02*
X349Y783D01*
X362Y783D02*
X366Y783D01*
X376Y783D02*
X380Y783D01*
X392Y783D02*
X396Y783D01*
X406Y783D02*
X409Y783D01*
X423Y783D02*
X426Y783D01*
X437Y783D02*
X440Y783D01*
X452Y783D02*
X456Y783D01*
X466Y783D02*
X474Y783D01*
X483Y783D02*
X486Y783D01*
X2702Y783D02*
X2705Y783D01*
X2718Y783D02*
X2722Y783D01*
X2732Y783D02*
X2737Y783D01*
X2744Y783D02*
X2752Y783D01*
X2767Y783D02*
X2771Y783D01*
X2777Y783D02*
X2781Y783D01*
X2792Y783D02*
X2795Y783D01*
X2830Y783D02*
X2834Y783D01*
X2854Y783D02*
X2858Y783D01*
X2867Y783D02*
X2871Y783D01*
X3140Y783D02*
X3148Y783D01*
X0Y782D02*
X8Y782D01*
X346Y782D02*
X365Y782D01*
X376Y782D02*
X379Y782D01*
X393Y782D02*
X396Y782D01*
X406Y782D02*
X409Y782D01*
X416Y782D02*
X416Y782D01*
X423Y782D02*
X426Y782D01*
X436Y782D02*
X440Y782D01*
X453Y782D02*
X456Y782D01*
X466Y782D02*
X473Y782D01*
X483Y782D02*
X486Y782D01*
X2702Y782D02*
X2705Y782D01*
X2718Y782D02*
X2722Y782D01*
X2733Y782D02*
X2752Y782D01*
X2767Y782D02*
X2781Y782D01*
X2792Y782D02*
X2795Y782D01*
X2825Y782D02*
X2840Y782D01*
X2853Y782D02*
X2857Y782D01*
X2867Y782D02*
X2872Y782D01*
X3140Y782D02*
X3148Y782D01*
X0Y781D02*
X8Y781D01*
X346Y781D02*
X365Y781D01*
X376Y781D02*
X379Y781D01*
X393Y781D02*
X396Y781D01*
X406Y781D02*
X409Y781D01*
X415Y781D02*
X417Y781D01*
X423Y781D02*
X426Y781D01*
X436Y781D02*
X440Y781D01*
X453Y781D02*
X456Y781D01*
X466Y781D02*
X472Y781D01*
X483Y781D02*
X486Y781D01*
X2702Y781D02*
X2705Y781D01*
X2718Y781D02*
X2722Y781D01*
X2733Y781D02*
X2752Y781D01*
X2768Y781D02*
X2780Y781D01*
X2792Y781D02*
X2795Y781D01*
X2824Y781D02*
X2840Y781D01*
X2852Y781D02*
X2856Y781D01*
X2868Y781D02*
X2872Y781D01*
X3140Y781D02*
X3148Y781D01*
X0Y780D02*
X8Y780D01*
X346Y780D02*
X364Y780D01*
X376Y780D02*
X379Y780D01*
X393Y780D02*
X396Y780D01*
X406Y780D02*
X409Y780D01*
X415Y780D02*
X418Y780D01*
X423Y780D02*
X426Y780D01*
X436Y780D02*
X440Y780D01*
X453Y780D02*
X456Y780D01*
X466Y780D02*
X471Y780D01*
X484Y780D02*
X485Y780D01*
X2702Y780D02*
X2705Y780D01*
X2719Y780D02*
X2721Y780D01*
X2735Y780D02*
X2746Y780D01*
X2749Y780D02*
X2751Y780D01*
X2769Y780D02*
X2779Y780D01*
X2792Y780D02*
X2795Y780D01*
X2825Y780D02*
X2840Y780D01*
X2853Y780D02*
X2856Y780D01*
X2869Y780D02*
X2872Y780D01*
X3140Y780D02*
X3148Y780D01*
X0Y779D02*
X8Y779D01*
X346Y779D02*
X363Y779D01*
X376Y779D02*
X379Y779D01*
X393Y779D02*
X396Y779D01*
X406Y779D02*
X409Y779D01*
X414Y779D02*
X418Y779D01*
X423Y779D02*
X426Y779D01*
X436Y779D02*
X440Y779D01*
X453Y779D02*
X456Y779D01*
X466Y779D02*
X470Y779D01*
X2703Y779D02*
X2704Y779D01*
X2720Y779D02*
X2720Y779D01*
X2736Y779D02*
X2744Y779D01*
X2750Y779D02*
X2751Y779D01*
X2771Y779D02*
X2777Y779D01*
X2793Y779D02*
X2794Y779D01*
X2826Y779D02*
X2839Y779D01*
X2854Y779D02*
X2854Y779D01*
X2870Y779D02*
X2871Y779D01*
X3140Y779D02*
X3148Y779D01*
X0Y778D02*
X8Y778D01*
X346Y778D02*
X359Y778D01*
X376Y778D02*
X379Y778D01*
X393Y778D02*
X396Y778D01*
X406Y778D02*
X409Y778D01*
X414Y778D02*
X418Y778D01*
X423Y778D02*
X426Y778D01*
X436Y778D02*
X456Y778D01*
X466Y778D02*
X470Y778D01*
X3140Y778D02*
X3148Y778D01*
X0Y777D02*
X8Y777D01*
X346Y777D02*
X349Y777D01*
X376Y777D02*
X379Y777D01*
X393Y777D02*
X396Y777D01*
X406Y777D02*
X409Y777D01*
X414Y777D02*
X418Y777D01*
X423Y777D02*
X426Y777D01*
X436Y777D02*
X456Y777D01*
X466Y777D02*
X470Y777D01*
X3140Y777D02*
X3148Y777D01*
X0Y776D02*
X8Y776D01*
X346Y776D02*
X349Y776D01*
X376Y776D02*
X379Y776D01*
X393Y776D02*
X396Y776D01*
X406Y776D02*
X409Y776D01*
X414Y776D02*
X418Y776D01*
X423Y776D02*
X426Y776D01*
X436Y776D02*
X456Y776D01*
X466Y776D02*
X470Y776D01*
X3140Y776D02*
X3148Y776D01*
X0Y775D02*
X8Y775D01*
X346Y775D02*
X349Y775D01*
X376Y775D02*
X379Y775D01*
X393Y775D02*
X396Y775D01*
X406Y775D02*
X409Y775D01*
X414Y775D02*
X418Y775D01*
X423Y775D02*
X426Y775D01*
X436Y775D02*
X455Y775D01*
X466Y775D02*
X470Y775D01*
X3140Y775D02*
X3148Y775D01*
X0Y774D02*
X8Y774D01*
X346Y774D02*
X349Y774D01*
X376Y774D02*
X379Y774D01*
X393Y774D02*
X396Y774D01*
X406Y774D02*
X410Y774D01*
X414Y774D02*
X419Y774D01*
X422Y774D02*
X426Y774D01*
X436Y774D02*
X440Y774D01*
X466Y774D02*
X470Y774D01*
X3140Y774D02*
X3148Y774D01*
X0Y773D02*
X8Y773D01*
X346Y773D02*
X349Y773D01*
X376Y773D02*
X379Y773D01*
X393Y773D02*
X396Y773D01*
X407Y773D02*
X410Y773D01*
X413Y773D02*
X419Y773D01*
X422Y773D02*
X426Y773D01*
X436Y773D02*
X440Y773D01*
X466Y773D02*
X470Y773D01*
X3140Y773D02*
X3148Y773D01*
X0Y772D02*
X8Y772D01*
X346Y772D02*
X349Y772D01*
X376Y772D02*
X380Y772D01*
X392Y772D02*
X396Y772D01*
X407Y772D02*
X410Y772D01*
X413Y772D02*
X420Y772D01*
X422Y772D02*
X425Y772D01*
X436Y772D02*
X440Y772D01*
X466Y772D02*
X470Y772D01*
X3140Y772D02*
X3148Y772D01*
X0Y771D02*
X8Y771D01*
X346Y771D02*
X349Y771D01*
X377Y771D02*
X381Y771D01*
X391Y771D02*
X395Y771D01*
X407Y771D02*
X425Y771D01*
X437Y771D02*
X441Y771D01*
X466Y771D02*
X470Y771D01*
X3140Y771D02*
X3148Y771D01*
X0Y770D02*
X8Y770D01*
X346Y770D02*
X349Y770D01*
X377Y770D02*
X382Y770D01*
X390Y770D02*
X395Y770D01*
X408Y770D02*
X415Y770D01*
X417Y770D02*
X425Y770D01*
X437Y770D02*
X442Y770D01*
X466Y770D02*
X470Y770D01*
X2322Y770D02*
X2336Y770D01*
X2353Y770D02*
X2368Y770D01*
X3140Y770D02*
X3148Y770D01*
X0Y769D02*
X8Y769D01*
X346Y769D02*
X349Y769D01*
X378Y769D02*
X394Y769D01*
X408Y769D02*
X415Y769D01*
X418Y769D02*
X424Y769D01*
X438Y769D02*
X456Y769D01*
X466Y769D02*
X470Y769D01*
X2321Y769D02*
X2338Y769D01*
X2352Y769D02*
X2370Y769D01*
X3140Y769D02*
X3148Y769D01*
X0Y768D02*
X8Y768D01*
X346Y768D02*
X349Y768D01*
X379Y768D02*
X393Y768D01*
X408Y768D02*
X414Y768D01*
X418Y768D02*
X424Y768D01*
X439Y768D02*
X456Y768D01*
X466Y768D02*
X470Y768D01*
X2321Y768D02*
X2339Y768D01*
X2352Y768D02*
X2371Y768D01*
X3140Y768D02*
X3148Y768D01*
X0Y767D02*
X8Y767D01*
X346Y767D02*
X349Y767D01*
X380Y767D02*
X392Y767D01*
X408Y767D02*
X413Y767D01*
X419Y767D02*
X424Y767D01*
X440Y767D02*
X456Y767D01*
X467Y767D02*
X470Y767D01*
X2321Y767D02*
X2340Y767D01*
X2352Y767D02*
X2371Y767D01*
X3140Y767D02*
X3148Y767D01*
X0Y766D02*
X8Y766D01*
X347Y766D02*
X348Y766D01*
X382Y766D02*
X390Y766D01*
X409Y766D02*
X413Y766D01*
X420Y766D02*
X423Y766D01*
X442Y766D02*
X455Y766D01*
X467Y766D02*
X469Y766D01*
X2321Y766D02*
X2341Y766D01*
X2354Y766D02*
X2371Y766D01*
X3140Y766D02*
X3148Y766D01*
X0Y765D02*
X8Y765D01*
X722Y765D02*
X736Y765D01*
X754Y765D02*
X755Y765D01*
X2321Y765D02*
X2325Y765D01*
X2338Y765D02*
X2341Y765D01*
X2368Y765D02*
X2371Y765D01*
X3140Y765D02*
X3148Y765D01*
X0Y764D02*
X8Y764D01*
X722Y764D02*
X739Y764D01*
X753Y764D02*
X757Y764D01*
X2321Y764D02*
X2325Y764D01*
X2338Y764D02*
X2341Y764D01*
X2368Y764D02*
X2371Y764D01*
X3140Y764D02*
X3148Y764D01*
X0Y763D02*
X8Y763D01*
X722Y763D02*
X740Y763D01*
X752Y763D02*
X757Y763D01*
X2321Y763D02*
X2325Y763D01*
X2338Y763D02*
X2341Y763D01*
X2368Y763D02*
X2371Y763D01*
X3140Y763D02*
X3148Y763D01*
X0Y762D02*
X8Y762D01*
X722Y762D02*
X741Y762D01*
X752Y762D02*
X757Y762D01*
X2321Y762D02*
X2325Y762D01*
X2338Y762D02*
X2341Y762D01*
X2368Y762D02*
X2371Y762D01*
X3140Y762D02*
X3148Y762D01*
X0Y761D02*
X8Y761D01*
X722Y761D02*
X741Y761D01*
X752Y761D02*
X756Y761D01*
X2321Y761D02*
X2325Y761D01*
X2338Y761D02*
X2341Y761D01*
X2368Y761D02*
X2371Y761D01*
X3140Y761D02*
X3148Y761D01*
X0Y760D02*
X8Y760D01*
X722Y760D02*
X725Y760D01*
X738Y760D02*
X742Y760D01*
X752Y760D02*
X755Y760D01*
X2321Y760D02*
X2325Y760D01*
X2337Y760D02*
X2341Y760D01*
X2368Y760D02*
X2371Y760D01*
X3140Y760D02*
X3148Y760D01*
X0Y759D02*
X8Y759D01*
X722Y759D02*
X725Y759D01*
X739Y759D02*
X742Y759D01*
X752Y759D02*
X755Y759D01*
X2321Y759D02*
X2340Y759D01*
X2368Y759D02*
X2371Y759D01*
X3140Y759D02*
X3148Y759D01*
X0Y758D02*
X8Y758D01*
X722Y758D02*
X725Y758D01*
X739Y758D02*
X742Y758D01*
X752Y758D02*
X755Y758D01*
X2321Y758D02*
X2340Y758D01*
X2368Y758D02*
X2371Y758D01*
X3140Y758D02*
X3148Y758D01*
X0Y757D02*
X8Y757D01*
X722Y757D02*
X725Y757D01*
X739Y757D02*
X742Y757D01*
X752Y757D02*
X755Y757D01*
X2321Y757D02*
X2339Y757D01*
X2368Y757D02*
X2371Y757D01*
X3140Y757D02*
X3148Y757D01*
X0Y756D02*
X8Y756D01*
X722Y756D02*
X725Y756D01*
X738Y756D02*
X742Y756D01*
X752Y756D02*
X755Y756D01*
X2321Y756D02*
X2337Y756D01*
X2356Y756D02*
X2371Y756D01*
X3140Y756D02*
X3148Y756D01*
X0Y755D02*
X8Y755D01*
X722Y755D02*
X725Y755D01*
X738Y755D02*
X742Y755D01*
X752Y755D02*
X755Y755D01*
X2321Y755D02*
X2325Y755D01*
X2329Y755D02*
X2333Y755D01*
X2353Y755D02*
X2371Y755D01*
X3140Y755D02*
X3148Y755D01*
X0Y754D02*
X8Y754D01*
X722Y754D02*
X741Y754D01*
X752Y754D02*
X755Y754D01*
X2321Y754D02*
X2325Y754D01*
X2329Y754D02*
X2333Y754D01*
X2352Y754D02*
X2371Y754D01*
X3140Y754D02*
X3148Y754D01*
X0Y753D02*
X8Y753D01*
X722Y753D02*
X741Y753D01*
X752Y753D02*
X755Y753D01*
X2321Y753D02*
X2325Y753D01*
X2330Y753D02*
X2334Y753D01*
X2352Y753D02*
X2370Y753D01*
X3140Y753D02*
X3148Y753D01*
X0Y752D02*
X8Y752D01*
X722Y752D02*
X740Y752D01*
X752Y752D02*
X755Y752D01*
X2321Y752D02*
X2325Y752D01*
X2330Y752D02*
X2334Y752D01*
X2352Y752D02*
X2368Y752D01*
X3140Y752D02*
X3148Y752D01*
X0Y751D02*
X8Y751D01*
X722Y751D02*
X738Y751D01*
X752Y751D02*
X755Y751D01*
X2321Y751D02*
X2325Y751D01*
X2331Y751D02*
X2335Y751D01*
X2352Y751D02*
X2355Y751D01*
X3140Y751D02*
X3148Y751D01*
X0Y750D02*
X8Y750D01*
X722Y750D02*
X725Y750D01*
X729Y750D02*
X733Y750D01*
X752Y750D02*
X755Y750D01*
X2321Y750D02*
X2325Y750D01*
X2332Y750D02*
X2336Y750D01*
X2352Y750D02*
X2355Y750D01*
X3140Y750D02*
X3148Y750D01*
X0Y749D02*
X8Y749D01*
X722Y749D02*
X725Y749D01*
X730Y749D02*
X734Y749D01*
X752Y749D02*
X755Y749D01*
X2321Y749D02*
X2325Y749D01*
X2332Y749D02*
X2336Y749D01*
X2352Y749D02*
X2355Y749D01*
X3140Y749D02*
X3148Y749D01*
X0Y748D02*
X8Y748D01*
X722Y748D02*
X725Y748D01*
X730Y748D02*
X734Y748D01*
X752Y748D02*
X755Y748D01*
X2321Y748D02*
X2325Y748D01*
X2333Y748D02*
X2337Y748D01*
X2352Y748D02*
X2355Y748D01*
X3140Y748D02*
X3148Y748D01*
X0Y747D02*
X8Y747D01*
X722Y747D02*
X725Y747D01*
X731Y747D02*
X735Y747D01*
X752Y747D02*
X771Y747D01*
X2321Y747D02*
X2325Y747D01*
X2333Y747D02*
X2337Y747D01*
X2352Y747D02*
X2355Y747D01*
X3140Y747D02*
X3148Y747D01*
X0Y746D02*
X8Y746D01*
X722Y746D02*
X725Y746D01*
X732Y746D02*
X736Y746D01*
X752Y746D02*
X772Y746D01*
X2321Y746D02*
X2325Y746D01*
X2334Y746D02*
X2338Y746D01*
X2352Y746D02*
X2355Y746D01*
X3140Y746D02*
X3148Y746D01*
X0Y745D02*
X8Y745D01*
X722Y745D02*
X725Y745D01*
X732Y745D02*
X736Y745D01*
X752Y745D02*
X772Y745D01*
X2321Y745D02*
X2325Y745D01*
X2335Y745D02*
X2338Y745D01*
X2352Y745D02*
X2355Y745D01*
X3140Y745D02*
X3148Y745D01*
X0Y744D02*
X8Y744D01*
X722Y744D02*
X725Y744D01*
X733Y744D02*
X737Y744D01*
X752Y744D02*
X772Y744D01*
X2321Y744D02*
X2325Y744D01*
X2335Y744D02*
X2339Y744D01*
X2352Y744D02*
X2355Y744D01*
X3140Y744D02*
X3148Y744D01*
X0Y743D02*
X8Y743D01*
X722Y743D02*
X725Y743D01*
X733Y743D02*
X737Y743D01*
X752Y743D02*
X756Y743D01*
X768Y743D02*
X772Y743D01*
X2321Y743D02*
X2325Y743D01*
X2336Y743D02*
X2340Y743D01*
X2352Y743D02*
X2355Y743D01*
X3140Y743D02*
X3148Y743D01*
X0Y742D02*
X8Y742D01*
X722Y742D02*
X725Y742D01*
X734Y742D02*
X738Y742D01*
X752Y742D02*
X755Y742D01*
X769Y742D02*
X772Y742D01*
X2321Y742D02*
X2325Y742D01*
X2336Y742D02*
X2340Y742D01*
X2352Y742D02*
X2355Y742D01*
X3140Y742D02*
X3148Y742D01*
X0Y741D02*
X8Y741D01*
X722Y741D02*
X725Y741D01*
X735Y741D02*
X738Y741D01*
X752Y741D02*
X755Y741D01*
X769Y741D02*
X772Y741D01*
X2321Y741D02*
X2325Y741D01*
X2337Y741D02*
X2341Y741D01*
X2352Y741D02*
X2371Y741D01*
X3140Y741D02*
X3148Y741D01*
X0Y740D02*
X8Y740D01*
X722Y740D02*
X725Y740D01*
X735Y740D02*
X739Y740D01*
X752Y740D02*
X755Y740D01*
X769Y740D02*
X772Y740D01*
X2321Y740D02*
X2325Y740D01*
X2337Y740D02*
X2341Y740D01*
X2352Y740D02*
X2371Y740D01*
X3140Y740D02*
X3148Y740D01*
X0Y739D02*
X8Y739D01*
X722Y739D02*
X725Y739D01*
X736Y739D02*
X740Y739D01*
X752Y739D02*
X755Y739D01*
X769Y739D02*
X772Y739D01*
X2322Y739D02*
X2324Y739D01*
X2338Y739D02*
X2341Y739D01*
X2352Y739D02*
X2371Y739D01*
X3140Y739D02*
X3148Y739D01*
X0Y738D02*
X8Y738D01*
X722Y738D02*
X725Y738D01*
X736Y738D02*
X740Y738D01*
X752Y738D02*
X755Y738D01*
X769Y738D02*
X772Y738D01*
X2322Y738D02*
X2324Y738D01*
X2339Y738D02*
X2340Y738D01*
X2352Y738D02*
X2370Y738D01*
X3140Y738D02*
X3148Y738D01*
X0Y737D02*
X8Y737D01*
X722Y737D02*
X725Y737D01*
X737Y737D02*
X741Y737D01*
X752Y737D02*
X756Y737D01*
X769Y737D02*
X772Y737D01*
X3140Y737D02*
X3148Y737D01*
X0Y736D02*
X8Y736D01*
X722Y736D02*
X725Y736D01*
X737Y736D02*
X741Y736D01*
X752Y736D02*
X772Y736D01*
X1886Y736D02*
X1886Y736D01*
X2886Y736D02*
X2886Y736D01*
X3140Y736D02*
X3148Y736D01*
X0Y735D02*
X8Y735D01*
X722Y735D02*
X725Y735D01*
X738Y735D02*
X742Y735D01*
X752Y735D02*
X772Y735D01*
X1885Y735D02*
X1887Y735D01*
X2885Y735D02*
X2887Y735D01*
X3140Y735D02*
X3148Y735D01*
X0Y734D02*
X8Y734D01*
X722Y734D02*
X725Y734D01*
X739Y734D02*
X742Y734D01*
X752Y734D02*
X772Y734D01*
X1884Y734D02*
X1888Y734D01*
X2884Y734D02*
X2888Y734D01*
X3140Y734D02*
X3148Y734D01*
X0Y733D02*
X8Y733D01*
X723Y733D02*
X724Y733D01*
X739Y733D02*
X741Y733D01*
X753Y733D02*
X771Y733D01*
X1884Y733D02*
X1889Y733D01*
X2883Y733D02*
X2889Y733D01*
X3140Y733D02*
X3148Y733D01*
X0Y732D02*
X8Y732D01*
X1884Y732D02*
X1890Y732D01*
X2884Y732D02*
X2890Y732D01*
X3140Y732D02*
X3148Y732D01*
X0Y731D02*
X8Y731D01*
X1885Y731D02*
X1891Y731D01*
X2885Y731D02*
X2891Y731D01*
X3140Y731D02*
X3148Y731D01*
X0Y730D02*
X8Y730D01*
X1886Y730D02*
X1892Y730D01*
X2886Y730D02*
X2892Y730D01*
X3140Y730D02*
X3148Y730D01*
X0Y729D02*
X8Y729D01*
X1887Y729D02*
X1893Y729D01*
X2887Y729D02*
X2893Y729D01*
X3140Y729D02*
X3148Y729D01*
X0Y728D02*
X8Y728D01*
X1888Y728D02*
X1894Y728D01*
X2888Y728D02*
X2894Y728D01*
X3140Y728D02*
X3148Y728D01*
X0Y727D02*
X8Y727D01*
X1889Y727D02*
X1895Y727D01*
X2889Y727D02*
X2895Y727D01*
X3140Y727D02*
X3148Y727D01*
X0Y726D02*
X8Y726D01*
X1890Y726D02*
X1896Y726D01*
X2890Y726D02*
X2896Y726D01*
X3140Y726D02*
X3148Y726D01*
X0Y725D02*
X8Y725D01*
X1891Y725D02*
X1897Y725D01*
X2891Y725D02*
X2897Y725D01*
X3140Y725D02*
X3148Y725D01*
X0Y724D02*
X8Y724D01*
X1892Y724D02*
X1898Y724D01*
X2892Y724D02*
X2898Y724D01*
X3140Y724D02*
X3148Y724D01*
X0Y723D02*
X8Y723D01*
X1893Y723D02*
X1899Y723D01*
X2893Y723D02*
X2899Y723D01*
X3140Y723D02*
X3148Y723D01*
X0Y722D02*
X8Y722D01*
X1894Y722D02*
X1900Y722D01*
X2894Y722D02*
X2900Y722D01*
X3140Y722D02*
X3148Y722D01*
X0Y721D02*
X8Y721D01*
X1895Y721D02*
X1901Y721D01*
X2895Y721D02*
X2901Y721D01*
X3140Y721D02*
X3148Y721D01*
X0Y720D02*
X8Y720D01*
X1896Y720D02*
X1902Y720D01*
X2896Y720D02*
X2902Y720D01*
X3140Y720D02*
X3148Y720D01*
X0Y719D02*
X8Y719D01*
X1898Y719D02*
X1903Y719D01*
X2897Y719D02*
X2903Y719D01*
X3140Y719D02*
X3148Y719D01*
X0Y718D02*
X8Y718D01*
X1899Y718D02*
X1904Y718D01*
X2899Y718D02*
X2904Y718D01*
X3140Y718D02*
X3148Y718D01*
X0Y717D02*
X8Y717D01*
X1900Y717D02*
X1905Y717D01*
X2900Y717D02*
X2905Y717D01*
X3140Y717D02*
X3148Y717D01*
X0Y716D02*
X8Y716D01*
X1901Y716D02*
X1906Y716D01*
X2901Y716D02*
X2906Y716D01*
X3140Y716D02*
X3148Y716D01*
X0Y715D02*
X8Y715D01*
X1902Y715D02*
X1907Y715D01*
X2902Y715D02*
X2907Y715D01*
X3140Y715D02*
X3148Y715D01*
X0Y714D02*
X8Y714D01*
X1903Y714D02*
X1908Y714D01*
X2903Y714D02*
X2908Y714D01*
X3140Y714D02*
X3148Y714D01*
X0Y713D02*
X8Y713D01*
X1904Y713D02*
X1909Y713D01*
X2904Y713D02*
X2909Y713D01*
X3140Y713D02*
X3148Y713D01*
X0Y712D02*
X8Y712D01*
X1905Y712D02*
X1910Y712D01*
X2904Y712D02*
X2910Y712D01*
X3140Y712D02*
X3148Y712D01*
X0Y711D02*
X8Y711D01*
X1905Y711D02*
X1911Y711D01*
X2905Y711D02*
X2911Y711D01*
X3140Y711D02*
X3148Y711D01*
X0Y710D02*
X8Y710D01*
X1906Y710D02*
X1912Y710D01*
X2906Y710D02*
X2912Y710D01*
X3140Y710D02*
X3148Y710D01*
X0Y709D02*
X8Y709D01*
X1907Y709D02*
X1913Y709D01*
X2907Y709D02*
X2913Y709D01*
X3140Y709D02*
X3148Y709D01*
X0Y708D02*
X8Y708D01*
X1908Y708D02*
X1914Y708D01*
X2908Y708D02*
X2914Y708D01*
X3140Y708D02*
X3148Y708D01*
X0Y707D02*
X8Y707D01*
X1909Y707D02*
X1915Y707D01*
X2909Y707D02*
X2915Y707D01*
X3140Y707D02*
X3148Y707D01*
X0Y706D02*
X8Y706D01*
X1910Y706D02*
X1916Y706D01*
X2910Y706D02*
X2916Y706D01*
X3140Y706D02*
X3148Y706D01*
X0Y705D02*
X8Y705D01*
X1911Y705D02*
X1917Y705D01*
X2911Y705D02*
X2917Y705D01*
X3140Y705D02*
X3148Y705D01*
X0Y704D02*
X8Y704D01*
X1912Y704D02*
X1918Y704D01*
X2912Y704D02*
X2918Y704D01*
X3140Y704D02*
X3148Y704D01*
X0Y703D02*
X8Y703D01*
X1913Y703D02*
X1919Y703D01*
X2913Y703D02*
X2919Y703D01*
X3140Y703D02*
X3148Y703D01*
X0Y702D02*
X8Y702D01*
X1914Y702D02*
X1920Y702D01*
X2914Y702D02*
X2920Y702D01*
X3140Y702D02*
X3148Y702D01*
X0Y701D02*
X8Y701D01*
X1915Y701D02*
X1920Y701D01*
X2915Y701D02*
X2920Y701D01*
X3140Y701D02*
X3148Y701D01*
X0Y700D02*
X8Y700D01*
X1916Y700D02*
X1919Y700D01*
X2916Y700D02*
X2919Y700D01*
X3140Y700D02*
X3148Y700D01*
X0Y699D02*
X8Y699D01*
X1917Y699D02*
X1918Y699D01*
X2917Y699D02*
X2918Y699D01*
X3140Y699D02*
X3148Y699D01*
X0Y698D02*
X8Y698D01*
X3140Y698D02*
X3148Y698D01*
X0Y697D02*
X8Y697D01*
X3140Y697D02*
X3148Y697D01*
X0Y696D02*
X8Y696D01*
X3140Y696D02*
X3148Y696D01*
X0Y695D02*
X8Y695D01*
X3140Y695D02*
X3148Y695D01*
X0Y694D02*
X8Y694D01*
X3140Y694D02*
X3148Y694D01*
X0Y693D02*
X8Y693D01*
X3140Y693D02*
X3148Y693D01*
X0Y692D02*
X8Y692D01*
X3140Y692D02*
X3148Y692D01*
X0Y691D02*
X8Y691D01*
X3140Y691D02*
X3148Y691D01*
X0Y690D02*
X8Y690D01*
X3140Y690D02*
X3148Y690D01*
X0Y689D02*
X8Y689D01*
X713Y689D02*
X779Y689D01*
X980Y689D02*
X1027Y689D01*
X2112Y689D02*
X2179Y689D01*
X2380Y689D02*
X2427Y689D01*
X3140Y689D02*
X3148Y689D01*
X0Y688D02*
X8Y688D01*
X713Y688D02*
X779Y688D01*
X980Y688D02*
X1027Y688D01*
X2112Y688D02*
X2179Y688D01*
X2380Y688D02*
X2427Y688D01*
X3140Y688D02*
X3148Y688D01*
X0Y687D02*
X8Y687D01*
X713Y687D02*
X779Y687D01*
X980Y687D02*
X1027Y687D01*
X2112Y687D02*
X2179Y687D01*
X2380Y687D02*
X2427Y687D01*
X3140Y687D02*
X3148Y687D01*
X0Y686D02*
X8Y686D01*
X713Y686D02*
X779Y686D01*
X980Y686D02*
X1027Y686D01*
X2113Y686D02*
X2179Y686D01*
X2380Y686D02*
X2427Y686D01*
X3140Y686D02*
X3148Y686D01*
X0Y685D02*
X8Y685D01*
X713Y685D02*
X779Y685D01*
X980Y685D02*
X1027Y685D01*
X2113Y685D02*
X2179Y685D01*
X2380Y685D02*
X2427Y685D01*
X3140Y685D02*
X3148Y685D01*
X0Y684D02*
X8Y684D01*
X713Y684D02*
X779Y684D01*
X980Y684D02*
X1027Y684D01*
X2113Y684D02*
X2179Y684D01*
X2380Y684D02*
X2427Y684D01*
X3140Y684D02*
X3148Y684D01*
X0Y683D02*
X8Y683D01*
X713Y683D02*
X779Y683D01*
X980Y683D02*
X1027Y683D01*
X2112Y683D02*
X2179Y683D01*
X2380Y683D02*
X2427Y683D01*
X3140Y683D02*
X3148Y683D01*
X0Y682D02*
X8Y682D01*
X713Y682D02*
X779Y682D01*
X980Y682D02*
X1027Y682D01*
X2112Y682D02*
X2179Y682D01*
X2380Y682D02*
X2427Y682D01*
X3140Y682D02*
X3148Y682D01*
X0Y681D02*
X8Y681D01*
X713Y681D02*
X779Y681D01*
X980Y681D02*
X1027Y681D01*
X2112Y681D02*
X2179Y681D01*
X2380Y681D02*
X2427Y681D01*
X3140Y681D02*
X3148Y681D01*
X0Y680D02*
X8Y680D01*
X713Y680D02*
X779Y680D01*
X980Y680D02*
X1027Y680D01*
X2112Y680D02*
X2178Y680D01*
X2380Y680D02*
X2427Y680D01*
X3140Y680D02*
X3148Y680D01*
X0Y679D02*
X8Y679D01*
X3140Y679D02*
X3148Y679D01*
X0Y678D02*
X8Y678D01*
X3140Y678D02*
X3148Y678D01*
X0Y677D02*
X8Y677D01*
X3140Y677D02*
X3148Y677D01*
X0Y676D02*
X8Y676D01*
X3140Y676D02*
X3148Y676D01*
X0Y675D02*
X8Y675D01*
X3140Y675D02*
X3148Y675D01*
X0Y674D02*
X8Y674D01*
X3140Y674D02*
X3148Y674D01*
X0Y673D02*
X8Y673D01*
X3140Y673D02*
X3148Y673D01*
X0Y672D02*
X8Y672D01*
X3140Y672D02*
X3148Y672D01*
X0Y671D02*
X8Y671D01*
X3140Y671D02*
X3148Y671D01*
X0Y670D02*
X8Y670D01*
X3140Y670D02*
X3148Y670D01*
X0Y669D02*
X8Y669D01*
X3140Y669D02*
X3148Y669D01*
X0Y668D02*
X8Y668D01*
X3140Y668D02*
X3148Y668D01*
X0Y667D02*
X8Y667D01*
X3140Y667D02*
X3148Y667D01*
X0Y666D02*
X8Y666D01*
X3140Y666D02*
X3148Y666D01*
X0Y665D02*
X8Y665D01*
X3140Y665D02*
X3148Y665D01*
X0Y664D02*
X8Y664D01*
X3140Y664D02*
X3148Y664D01*
X0Y663D02*
X8Y663D01*
X3140Y663D02*
X3148Y663D01*
X0Y662D02*
X8Y662D01*
X3140Y662D02*
X3148Y662D01*
X0Y661D02*
X8Y661D01*
X3140Y661D02*
X3148Y661D01*
X0Y660D02*
X8Y660D01*
X3140Y660D02*
X3148Y660D01*
X0Y659D02*
X8Y659D01*
X3140Y659D02*
X3148Y659D01*
X0Y658D02*
X8Y658D01*
X3140Y658D02*
X3148Y658D01*
X0Y657D02*
X8Y657D01*
X3140Y657D02*
X3148Y657D01*
X0Y656D02*
X8Y656D01*
X3140Y656D02*
X3148Y656D01*
X0Y655D02*
X8Y655D01*
X3140Y655D02*
X3148Y655D01*
X0Y654D02*
X8Y654D01*
X3140Y654D02*
X3148Y654D01*
X0Y653D02*
X8Y653D01*
X3140Y653D02*
X3148Y653D01*
X0Y652D02*
X8Y652D01*
X3140Y652D02*
X3148Y652D01*
X0Y651D02*
X8Y651D01*
X3140Y651D02*
X3148Y651D01*
X0Y650D02*
X8Y650D01*
X3140Y650D02*
X3148Y650D01*
X0Y649D02*
X8Y649D01*
X3140Y649D02*
X3148Y649D01*
X0Y648D02*
X8Y648D01*
X3140Y648D02*
X3148Y648D01*
X0Y647D02*
X8Y647D01*
X3140Y647D02*
X3148Y647D01*
X0Y646D02*
X8Y646D01*
X3140Y646D02*
X3148Y646D01*
X0Y645D02*
X8Y645D01*
X3140Y645D02*
X3148Y645D01*
X0Y644D02*
X8Y644D01*
X3140Y644D02*
X3148Y644D01*
X0Y643D02*
X8Y643D01*
X3140Y643D02*
X3148Y643D01*
X0Y642D02*
X8Y642D01*
X3140Y642D02*
X3148Y642D01*
X0Y641D02*
X8Y641D01*
X3140Y641D02*
X3148Y641D01*
X0Y640D02*
X8Y640D01*
X3140Y640D02*
X3148Y640D01*
X0Y639D02*
X8Y639D01*
X3140Y639D02*
X3148Y639D01*
X0Y638D02*
X8Y638D01*
X3140Y638D02*
X3148Y638D01*
X0Y637D02*
X8Y637D01*
X3140Y637D02*
X3148Y637D01*
X0Y636D02*
X8Y636D01*
X3140Y636D02*
X3148Y636D01*
X0Y635D02*
X8Y635D01*
X3140Y635D02*
X3148Y635D01*
X0Y634D02*
X8Y634D01*
X3140Y634D02*
X3148Y634D01*
X0Y633D02*
X8Y633D01*
X3140Y633D02*
X3148Y633D01*
X0Y632D02*
X8Y632D01*
X3140Y632D02*
X3148Y632D01*
X0Y631D02*
X8Y631D01*
X3140Y631D02*
X3148Y631D01*
X0Y630D02*
X8Y630D01*
X3140Y630D02*
X3148Y630D01*
X0Y629D02*
X8Y629D01*
X3140Y629D02*
X3148Y629D01*
X0Y628D02*
X8Y628D01*
X3140Y628D02*
X3148Y628D01*
X0Y627D02*
X8Y627D01*
X3140Y627D02*
X3148Y627D01*
X0Y626D02*
X8Y626D01*
X3140Y626D02*
X3148Y626D01*
X0Y625D02*
X8Y625D01*
X3140Y625D02*
X3148Y625D01*
X0Y624D02*
X8Y624D01*
X3140Y624D02*
X3148Y624D01*
X0Y623D02*
X8Y623D01*
X3140Y623D02*
X3148Y623D01*
X0Y622D02*
X8Y622D01*
X3140Y622D02*
X3148Y622D01*
X0Y621D02*
X8Y621D01*
X3140Y621D02*
X3148Y621D01*
X0Y620D02*
X8Y620D01*
X3140Y620D02*
X3148Y620D01*
X0Y619D02*
X8Y619D01*
X3140Y619D02*
X3148Y619D01*
X0Y618D02*
X8Y618D01*
X3140Y618D02*
X3148Y618D01*
X0Y617D02*
X8Y617D01*
X3140Y617D02*
X3148Y617D01*
X0Y616D02*
X8Y616D01*
X3140Y616D02*
X3148Y616D01*
X0Y615D02*
X8Y615D01*
X3140Y615D02*
X3148Y615D01*
X0Y614D02*
X8Y614D01*
X3140Y614D02*
X3148Y614D01*
X0Y613D02*
X8Y613D01*
X3140Y613D02*
X3148Y613D01*
X0Y612D02*
X8Y612D01*
X3140Y612D02*
X3148Y612D01*
X0Y611D02*
X8Y611D01*
X1588Y611D02*
X1592Y611D01*
X3140Y611D02*
X3148Y611D01*
X0Y610D02*
X8Y610D01*
X1588Y610D02*
X1593Y610D01*
X3140Y610D02*
X3148Y610D01*
X0Y609D02*
X8Y609D01*
X1521Y609D02*
X1526Y609D01*
X1536Y609D02*
X1541Y609D01*
X1588Y609D02*
X1593Y609D01*
X3140Y609D02*
X3148Y609D01*
X0Y608D02*
X8Y608D01*
X1521Y608D02*
X1527Y608D01*
X1535Y608D02*
X1541Y608D01*
X1588Y608D02*
X1593Y608D01*
X3140Y608D02*
X3148Y608D01*
X0Y607D02*
X8Y607D01*
X1521Y607D02*
X1527Y607D01*
X1535Y607D02*
X1541Y607D01*
X1588Y607D02*
X1593Y607D01*
X3140Y607D02*
X3148Y607D01*
X0Y606D02*
X8Y606D01*
X1521Y606D02*
X1528Y606D01*
X1534Y606D02*
X1541Y606D01*
X1589Y606D02*
X1592Y606D01*
X3140Y606D02*
X3148Y606D01*
X0Y605D02*
X8Y605D01*
X1521Y605D02*
X1529Y605D01*
X1533Y605D02*
X1541Y605D01*
X3140Y605D02*
X3148Y605D01*
X0Y604D02*
X8Y604D01*
X1521Y604D02*
X1530Y604D01*
X1533Y604D02*
X1541Y604D01*
X3140Y604D02*
X3148Y604D01*
X0Y603D02*
X8Y603D01*
X1521Y603D02*
X1524Y603D01*
X1526Y603D02*
X1530Y603D01*
X1532Y603D02*
X1536Y603D01*
X1538Y603D02*
X1541Y603D01*
X3140Y603D02*
X3148Y603D01*
X0Y602D02*
X8Y602D01*
X1521Y602D02*
X1524Y602D01*
X1527Y602D02*
X1535Y602D01*
X1538Y602D02*
X1541Y602D01*
X3140Y602D02*
X3148Y602D01*
X0Y601D02*
X8Y601D01*
X1521Y601D02*
X1524Y601D01*
X1527Y601D02*
X1535Y601D01*
X1538Y601D02*
X1541Y601D01*
X1558Y601D02*
X1564Y601D01*
X1586Y601D02*
X1590Y601D01*
X1623Y601D02*
X1624Y601D01*
X3140Y601D02*
X3148Y601D01*
X0Y600D02*
X8Y600D01*
X1521Y600D02*
X1524Y600D01*
X1528Y600D02*
X1534Y600D01*
X1538Y600D02*
X1541Y600D01*
X1556Y600D02*
X1567Y600D01*
X1584Y600D02*
X1593Y600D01*
X1612Y600D02*
X1614Y600D01*
X1620Y600D02*
X1628Y600D01*
X3140Y600D02*
X3148Y600D01*
X0Y599D02*
X8Y599D01*
X1521Y599D02*
X1524Y599D01*
X1529Y599D02*
X1533Y599D01*
X1538Y599D02*
X1541Y599D01*
X1555Y599D02*
X1569Y599D01*
X1584Y599D02*
X1593Y599D01*
X1612Y599D02*
X1615Y599D01*
X1618Y599D02*
X1629Y599D01*
X3140Y599D02*
X3148Y599D01*
X0Y598D02*
X8Y598D01*
X1521Y598D02*
X1524Y598D01*
X1529Y598D02*
X1533Y598D01*
X1538Y598D02*
X1541Y598D01*
X1556Y598D02*
X1569Y598D01*
X1584Y598D02*
X1593Y598D01*
X1612Y598D02*
X1615Y598D01*
X1617Y598D02*
X1630Y598D01*
X3140Y598D02*
X3148Y598D01*
X0Y597D02*
X8Y597D01*
X1521Y597D02*
X1524Y597D01*
X1529Y597D02*
X1533Y597D01*
X1538Y597D02*
X1541Y597D01*
X1557Y597D02*
X1570Y597D01*
X1585Y597D02*
X1593Y597D01*
X1612Y597D02*
X1630Y597D01*
X3140Y597D02*
X3148Y597D01*
X0Y596D02*
X8Y596D01*
X1521Y596D02*
X1524Y596D01*
X1530Y596D02*
X1532Y596D01*
X1538Y596D02*
X1541Y596D01*
X1567Y596D02*
X1570Y596D01*
X1590Y596D02*
X1593Y596D01*
X1612Y596D02*
X1620Y596D01*
X1627Y596D02*
X1631Y596D01*
X3140Y596D02*
X3148Y596D01*
X0Y595D02*
X8Y595D01*
X1521Y595D02*
X1524Y595D01*
X1538Y595D02*
X1541Y595D01*
X1567Y595D02*
X1571Y595D01*
X1590Y595D02*
X1593Y595D01*
X1612Y595D02*
X1619Y595D01*
X1627Y595D02*
X1631Y595D01*
X3140Y595D02*
X3148Y595D01*
X0Y594D02*
X8Y594D01*
X1521Y594D02*
X1524Y594D01*
X1538Y594D02*
X1541Y594D01*
X1567Y594D02*
X1571Y594D01*
X1590Y594D02*
X1593Y594D01*
X1612Y594D02*
X1617Y594D01*
X1628Y594D02*
X1631Y594D01*
X3140Y594D02*
X3148Y594D01*
X0Y593D02*
X8Y593D01*
X1521Y593D02*
X1524Y593D01*
X1538Y593D02*
X1541Y593D01*
X1567Y593D02*
X1571Y593D01*
X1590Y593D02*
X1593Y593D01*
X1612Y593D02*
X1616Y593D01*
X1628Y593D02*
X1631Y593D01*
X3140Y593D02*
X3148Y593D01*
X0Y592D02*
X8Y592D01*
X1521Y592D02*
X1524Y592D01*
X1538Y592D02*
X1541Y592D01*
X1556Y592D02*
X1571Y592D01*
X1590Y592D02*
X1593Y592D01*
X1612Y592D02*
X1615Y592D01*
X1628Y592D02*
X1631Y592D01*
X3140Y592D02*
X3148Y592D01*
X0Y591D02*
X8Y591D01*
X1521Y591D02*
X1524Y591D01*
X1538Y591D02*
X1541Y591D01*
X1554Y591D02*
X1571Y591D01*
X1590Y591D02*
X1593Y591D01*
X1612Y591D02*
X1615Y591D01*
X1628Y591D02*
X1631Y591D01*
X3140Y591D02*
X3148Y591D01*
X0Y590D02*
X8Y590D01*
X1521Y590D02*
X1524Y590D01*
X1538Y590D02*
X1541Y590D01*
X1553Y590D02*
X1571Y590D01*
X1590Y590D02*
X1593Y590D01*
X1612Y590D02*
X1615Y590D01*
X1628Y590D02*
X1631Y590D01*
X3140Y590D02*
X3148Y590D01*
X0Y589D02*
X8Y589D01*
X1521Y589D02*
X1524Y589D01*
X1538Y589D02*
X1541Y589D01*
X1552Y589D02*
X1571Y589D01*
X1590Y589D02*
X1593Y589D01*
X1612Y589D02*
X1615Y589D01*
X1628Y589D02*
X1631Y589D01*
X3140Y589D02*
X3148Y589D01*
X0Y588D02*
X8Y588D01*
X1521Y588D02*
X1524Y588D01*
X1538Y588D02*
X1541Y588D01*
X1552Y588D02*
X1571Y588D01*
X1590Y588D02*
X1593Y588D01*
X1612Y588D02*
X1615Y588D01*
X1628Y588D02*
X1631Y588D01*
X3140Y588D02*
X3148Y588D01*
X0Y587D02*
X8Y587D01*
X1521Y587D02*
X1524Y587D01*
X1538Y587D02*
X1541Y587D01*
X1551Y587D02*
X1555Y587D01*
X1567Y587D02*
X1571Y587D01*
X1590Y587D02*
X1593Y587D01*
X1612Y587D02*
X1615Y587D01*
X1628Y587D02*
X1631Y587D01*
X3140Y587D02*
X3148Y587D01*
X0Y586D02*
X8Y586D01*
X1521Y586D02*
X1524Y586D01*
X1538Y586D02*
X1541Y586D01*
X1551Y586D02*
X1555Y586D01*
X1568Y586D02*
X1571Y586D01*
X1590Y586D02*
X1593Y586D01*
X1612Y586D02*
X1615Y586D01*
X1628Y586D02*
X1631Y586D01*
X3140Y586D02*
X3148Y586D01*
X0Y585D02*
X8Y585D01*
X1521Y585D02*
X1524Y585D01*
X1538Y585D02*
X1541Y585D01*
X1551Y585D02*
X1555Y585D01*
X1568Y585D02*
X1571Y585D01*
X1590Y585D02*
X1593Y585D01*
X1612Y585D02*
X1615Y585D01*
X1628Y585D02*
X1631Y585D01*
X3140Y585D02*
X3148Y585D01*
X0Y584D02*
X8Y584D01*
X1521Y584D02*
X1524Y584D01*
X1538Y584D02*
X1541Y584D01*
X1551Y584D02*
X1555Y584D01*
X1567Y584D02*
X1571Y584D01*
X1590Y584D02*
X1593Y584D01*
X1612Y584D02*
X1615Y584D01*
X1628Y584D02*
X1631Y584D01*
X3140Y584D02*
X3148Y584D01*
X0Y583D02*
X8Y583D01*
X1521Y583D02*
X1524Y583D01*
X1538Y583D02*
X1541Y583D01*
X1551Y583D02*
X1555Y583D01*
X1566Y583D02*
X1571Y583D01*
X1590Y583D02*
X1593Y583D01*
X1612Y583D02*
X1615Y583D01*
X1628Y583D02*
X1631Y583D01*
X3140Y583D02*
X3148Y583D01*
X0Y582D02*
X8Y582D01*
X1521Y582D02*
X1524Y582D01*
X1538Y582D02*
X1541Y582D01*
X1552Y582D02*
X1555Y582D01*
X1564Y582D02*
X1571Y582D01*
X1590Y582D02*
X1593Y582D01*
X1612Y582D02*
X1615Y582D01*
X1628Y582D02*
X1631Y582D01*
X3140Y582D02*
X3148Y582D01*
X0Y581D02*
X8Y581D01*
X1521Y581D02*
X1524Y581D01*
X1538Y581D02*
X1541Y581D01*
X1552Y581D02*
X1571Y581D01*
X1584Y581D02*
X1598Y581D01*
X1612Y581D02*
X1615Y581D01*
X1628Y581D02*
X1631Y581D01*
X3140Y581D02*
X3148Y581D01*
X0Y580D02*
X8Y580D01*
X1521Y580D02*
X1524Y580D01*
X1538Y580D02*
X1541Y580D01*
X1553Y580D02*
X1571Y580D01*
X1584Y580D02*
X1599Y580D01*
X1612Y580D02*
X1615Y580D01*
X1628Y580D02*
X1631Y580D01*
X3140Y580D02*
X3148Y580D01*
X0Y579D02*
X8Y579D01*
X1521Y579D02*
X1524Y579D01*
X1538Y579D02*
X1541Y579D01*
X1553Y579D02*
X1566Y579D01*
X1568Y579D02*
X1571Y579D01*
X1584Y579D02*
X1599Y579D01*
X1612Y579D02*
X1615Y579D01*
X1628Y579D02*
X1631Y579D01*
X3140Y579D02*
X3148Y579D01*
X0Y578D02*
X8Y578D01*
X1522Y578D02*
X1524Y578D01*
X1538Y578D02*
X1540Y578D01*
X1555Y578D02*
X1564Y578D01*
X1569Y578D02*
X1570Y578D01*
X1584Y578D02*
X1598Y578D01*
X1612Y578D02*
X1614Y578D01*
X1629Y578D02*
X1631Y578D01*
X3140Y578D02*
X3148Y578D01*
X0Y577D02*
X8Y577D01*
X3140Y577D02*
X3148Y577D01*
X0Y576D02*
X8Y576D01*
X3140Y576D02*
X3148Y576D01*
X0Y575D02*
X8Y575D01*
X3140Y575D02*
X3148Y575D01*
X0Y574D02*
X8Y574D01*
X3140Y574D02*
X3148Y574D01*
X0Y573D02*
X8Y573D01*
X3140Y573D02*
X3148Y573D01*
X0Y572D02*
X8Y572D01*
X3140Y572D02*
X3148Y572D01*
X0Y571D02*
X8Y571D01*
X3140Y571D02*
X3148Y571D01*
X0Y570D02*
X8Y570D01*
X3140Y570D02*
X3148Y570D01*
X0Y569D02*
X8Y569D01*
X3140Y569D02*
X3148Y569D01*
X0Y568D02*
X8Y568D01*
X3140Y568D02*
X3148Y568D01*
X0Y567D02*
X8Y567D01*
X3140Y567D02*
X3148Y567D01*
X0Y566D02*
X8Y566D01*
X3140Y566D02*
X3148Y566D01*
X0Y565D02*
X8Y565D01*
X3140Y565D02*
X3148Y565D01*
X0Y564D02*
X8Y564D01*
X3140Y564D02*
X3148Y564D01*
X0Y563D02*
X8Y563D01*
X3140Y563D02*
X3148Y563D01*
X0Y562D02*
X8Y562D01*
X3140Y562D02*
X3148Y562D01*
X0Y561D02*
X8Y561D01*
X3140Y561D02*
X3148Y561D01*
X0Y560D02*
X8Y560D01*
X3140Y560D02*
X3148Y560D01*
X0Y559D02*
X8Y559D01*
X3140Y559D02*
X3148Y559D01*
X0Y558D02*
X8Y558D01*
X3140Y558D02*
X3148Y558D01*
X0Y557D02*
X8Y557D01*
X3140Y557D02*
X3148Y557D01*
X0Y556D02*
X8Y556D01*
X3140Y556D02*
X3148Y556D01*
X0Y555D02*
X8Y555D01*
X3140Y555D02*
X3148Y555D01*
X0Y554D02*
X8Y554D01*
X3140Y554D02*
X3148Y554D01*
X0Y553D02*
X8Y553D01*
X3140Y553D02*
X3148Y553D01*
X0Y552D02*
X8Y552D01*
X3140Y552D02*
X3148Y552D01*
X0Y551D02*
X8Y551D01*
X3140Y551D02*
X3148Y551D01*
X0Y550D02*
X8Y550D01*
X3140Y550D02*
X3148Y550D01*
X0Y549D02*
X8Y549D01*
X3140Y549D02*
X3148Y549D01*
X0Y548D02*
X8Y548D01*
X3140Y548D02*
X3148Y548D01*
X0Y547D02*
X8Y547D01*
X3140Y547D02*
X3148Y547D01*
X0Y546D02*
X8Y546D01*
X3140Y546D02*
X3148Y546D01*
X0Y545D02*
X8Y545D01*
X3140Y545D02*
X3148Y545D01*
X0Y544D02*
X8Y544D01*
X3140Y544D02*
X3148Y544D01*
X0Y543D02*
X8Y543D01*
X3140Y543D02*
X3148Y543D01*
X0Y542D02*
X8Y542D01*
X3140Y542D02*
X3148Y542D01*
X0Y541D02*
X8Y541D01*
X3140Y541D02*
X3148Y541D01*
X0Y540D02*
X8Y540D01*
X3140Y540D02*
X3148Y540D01*
X0Y539D02*
X8Y539D01*
X3140Y539D02*
X3148Y539D01*
X0Y538D02*
X8Y538D01*
X3140Y538D02*
X3148Y538D01*
X0Y537D02*
X8Y537D01*
X3140Y537D02*
X3148Y537D01*
X0Y536D02*
X8Y536D01*
X3140Y536D02*
X3148Y536D01*
X0Y535D02*
X8Y535D01*
X3140Y535D02*
X3148Y535D01*
X0Y534D02*
X8Y534D01*
X3140Y534D02*
X3148Y534D01*
X0Y533D02*
X8Y533D01*
X3140Y533D02*
X3148Y533D01*
X0Y532D02*
X8Y532D01*
X3140Y532D02*
X3148Y532D01*
X0Y531D02*
X8Y531D01*
X3140Y531D02*
X3148Y531D01*
X0Y530D02*
X8Y530D01*
X3140Y530D02*
X3148Y530D01*
X0Y529D02*
X8Y529D01*
X3140Y529D02*
X3148Y529D01*
X0Y528D02*
X8Y528D01*
X3140Y528D02*
X3148Y528D01*
X0Y527D02*
X8Y527D01*
X3140Y527D02*
X3148Y527D01*
X0Y526D02*
X8Y526D01*
X3140Y526D02*
X3148Y526D01*
X0Y525D02*
X8Y525D01*
X3140Y525D02*
X3148Y525D01*
X0Y524D02*
X8Y524D01*
X3140Y524D02*
X3148Y524D01*
X0Y523D02*
X8Y523D01*
X3140Y523D02*
X3148Y523D01*
X0Y522D02*
X8Y522D01*
X2324Y522D02*
X2340Y522D01*
X2355Y522D02*
X2372Y522D01*
X3140Y522D02*
X3148Y522D01*
X0Y521D02*
X8Y521D01*
X2324Y521D02*
X2342Y521D01*
X2354Y521D02*
X2373Y521D01*
X3140Y521D02*
X3148Y521D01*
X0Y520D02*
X8Y520D01*
X2324Y520D02*
X2342Y520D01*
X2354Y520D02*
X2374Y520D01*
X3140Y520D02*
X3148Y520D01*
X0Y519D02*
X8Y519D01*
X2324Y519D02*
X2343Y519D01*
X2355Y519D02*
X2374Y519D01*
X3140Y519D02*
X3148Y519D01*
X0Y518D02*
X8Y518D01*
X2324Y518D02*
X2327Y518D01*
X2340Y518D02*
X2344Y518D01*
X2371Y518D02*
X2374Y518D01*
X3140Y518D02*
X3148Y518D01*
X0Y517D02*
X8Y517D01*
X729Y517D02*
X745Y517D01*
X761Y517D02*
X763Y517D01*
X2324Y517D02*
X2327Y517D01*
X2340Y517D02*
X2344Y517D01*
X2371Y517D02*
X2374Y517D01*
X3140Y517D02*
X3148Y517D01*
X0Y516D02*
X8Y516D01*
X729Y516D02*
X747Y516D01*
X761Y516D02*
X764Y516D01*
X2324Y516D02*
X2327Y516D01*
X2341Y516D02*
X2344Y516D01*
X2371Y516D02*
X2374Y516D01*
X3140Y516D02*
X3148Y516D01*
X0Y515D02*
X8Y515D01*
X729Y515D02*
X748Y515D01*
X761Y515D02*
X764Y515D01*
X2324Y515D02*
X2327Y515D01*
X2341Y515D02*
X2344Y515D01*
X2371Y515D02*
X2374Y515D01*
X3140Y515D02*
X3148Y515D01*
X0Y514D02*
X8Y514D01*
X729Y514D02*
X749Y514D01*
X761Y514D02*
X764Y514D01*
X2324Y514D02*
X2327Y514D01*
X2341Y514D02*
X2344Y514D01*
X2371Y514D02*
X2374Y514D01*
X3140Y514D02*
X3148Y514D01*
X0Y513D02*
X8Y513D01*
X729Y513D02*
X733Y513D01*
X745Y513D02*
X749Y513D01*
X761Y513D02*
X764Y513D01*
X773Y513D02*
X776Y513D01*
X2324Y513D02*
X2327Y513D01*
X2340Y513D02*
X2344Y513D01*
X2371Y513D02*
X2374Y513D01*
X3140Y513D02*
X3148Y513D01*
X0Y512D02*
X8Y512D01*
X729Y512D02*
X733Y512D01*
X746Y512D02*
X749Y512D01*
X761Y512D02*
X764Y512D01*
X773Y512D02*
X776Y512D01*
X2324Y512D02*
X2343Y512D01*
X2371Y512D02*
X2374Y512D01*
X3140Y512D02*
X3148Y512D01*
X0Y511D02*
X8Y511D01*
X729Y511D02*
X733Y511D01*
X746Y511D02*
X749Y511D01*
X761Y511D02*
X764Y511D01*
X773Y511D02*
X776Y511D01*
X2324Y511D02*
X2343Y511D01*
X2371Y511D02*
X2374Y511D01*
X3140Y511D02*
X3148Y511D01*
X0Y510D02*
X8Y510D01*
X729Y510D02*
X733Y510D01*
X746Y510D02*
X749Y510D01*
X761Y510D02*
X764Y510D01*
X773Y510D02*
X776Y510D01*
X2324Y510D02*
X2342Y510D01*
X2371Y510D02*
X2374Y510D01*
X3140Y510D02*
X3148Y510D01*
X0Y509D02*
X8Y509D01*
X729Y509D02*
X733Y509D01*
X746Y509D02*
X749Y509D01*
X761Y509D02*
X764Y509D01*
X773Y509D02*
X776Y509D01*
X2324Y509D02*
X2341Y509D01*
X2370Y509D02*
X2374Y509D01*
X3140Y509D02*
X3148Y509D01*
X0Y508D02*
X8Y508D01*
X729Y508D02*
X733Y508D01*
X746Y508D02*
X749Y508D01*
X761Y508D02*
X764Y508D01*
X773Y508D02*
X776Y508D01*
X2324Y508D02*
X2339Y508D01*
X2359Y508D02*
X2373Y508D01*
X3140Y508D02*
X3148Y508D01*
X0Y507D02*
X8Y507D01*
X729Y507D02*
X733Y507D01*
X744Y507D02*
X749Y507D01*
X761Y507D02*
X764Y507D01*
X773Y507D02*
X776Y507D01*
X2324Y507D02*
X2327Y507D01*
X2332Y507D02*
X2336Y507D01*
X2358Y507D02*
X2373Y507D01*
X3140Y507D02*
X3148Y507D01*
X0Y506D02*
X8Y506D01*
X729Y506D02*
X748Y506D01*
X761Y506D02*
X764Y506D01*
X773Y506D02*
X776Y506D01*
X2324Y506D02*
X2327Y506D01*
X2332Y506D02*
X2336Y506D01*
X2358Y506D02*
X2373Y506D01*
X3140Y506D02*
X3148Y506D01*
X0Y505D02*
X8Y505D01*
X729Y505D02*
X748Y505D01*
X761Y505D02*
X764Y505D01*
X773Y505D02*
X776Y505D01*
X2324Y505D02*
X2327Y505D01*
X2333Y505D02*
X2337Y505D01*
X2359Y505D02*
X2373Y505D01*
X3140Y505D02*
X3148Y505D01*
X0Y504D02*
X8Y504D01*
X729Y504D02*
X746Y504D01*
X761Y504D02*
X764Y504D01*
X773Y504D02*
X776Y504D01*
X2324Y504D02*
X2327Y504D01*
X2333Y504D02*
X2337Y504D01*
X2370Y504D02*
X2374Y504D01*
X3140Y504D02*
X3148Y504D01*
X0Y503D02*
X8Y503D01*
X729Y503D02*
X745Y503D01*
X761Y503D02*
X764Y503D01*
X773Y503D02*
X776Y503D01*
X2324Y503D02*
X2327Y503D01*
X2334Y503D02*
X2338Y503D01*
X2371Y503D02*
X2374Y503D01*
X3140Y503D02*
X3148Y503D01*
X0Y502D02*
X8Y502D01*
X729Y502D02*
X733Y502D01*
X737Y502D02*
X741Y502D01*
X761Y502D02*
X764Y502D01*
X773Y502D02*
X776Y502D01*
X2324Y502D02*
X2327Y502D01*
X2335Y502D02*
X2338Y502D01*
X2371Y502D02*
X2374Y502D01*
X3140Y502D02*
X3148Y502D01*
X0Y501D02*
X8Y501D01*
X729Y501D02*
X733Y501D01*
X738Y501D02*
X741Y501D01*
X761Y501D02*
X764Y501D01*
X773Y501D02*
X776Y501D01*
X2324Y501D02*
X2327Y501D01*
X2335Y501D02*
X2339Y501D01*
X2371Y501D02*
X2374Y501D01*
X3140Y501D02*
X3148Y501D01*
X0Y500D02*
X8Y500D01*
X729Y500D02*
X733Y500D01*
X738Y500D02*
X742Y500D01*
X761Y500D02*
X764Y500D01*
X773Y500D02*
X776Y500D01*
X2324Y500D02*
X2327Y500D01*
X2336Y500D02*
X2340Y500D01*
X2371Y500D02*
X2374Y500D01*
X3140Y500D02*
X3148Y500D01*
X0Y499D02*
X8Y499D01*
X729Y499D02*
X733Y499D01*
X739Y499D02*
X743Y499D01*
X761Y499D02*
X778Y499D01*
X2324Y499D02*
X2327Y499D01*
X2336Y499D02*
X2340Y499D01*
X2371Y499D02*
X2374Y499D01*
X3140Y499D02*
X3148Y499D01*
X0Y498D02*
X8Y498D01*
X729Y498D02*
X733Y498D01*
X739Y498D02*
X743Y498D01*
X761Y498D02*
X778Y498D01*
X2324Y498D02*
X2327Y498D01*
X2337Y498D02*
X2341Y498D01*
X2371Y498D02*
X2374Y498D01*
X3140Y498D02*
X3148Y498D01*
X0Y497D02*
X8Y497D01*
X729Y497D02*
X733Y497D01*
X740Y497D02*
X744Y497D01*
X761Y497D02*
X778Y497D01*
X2324Y497D02*
X2327Y497D01*
X2337Y497D02*
X2341Y497D01*
X2371Y497D02*
X2374Y497D01*
X3140Y497D02*
X3148Y497D01*
X0Y496D02*
X8Y496D01*
X729Y496D02*
X733Y496D01*
X740Y496D02*
X744Y496D01*
X761Y496D02*
X777Y496D01*
X2324Y496D02*
X2327Y496D01*
X2338Y496D02*
X2342Y496D01*
X2371Y496D02*
X2374Y496D01*
X3140Y496D02*
X3148Y496D01*
X0Y495D02*
X8Y495D01*
X729Y495D02*
X733Y495D01*
X741Y495D02*
X745Y495D01*
X773Y495D02*
X776Y495D01*
X2324Y495D02*
X2327Y495D01*
X2339Y495D02*
X2343Y495D01*
X2371Y495D02*
X2374Y495D01*
X3140Y495D02*
X3148Y495D01*
X0Y494D02*
X8Y494D01*
X729Y494D02*
X733Y494D01*
X742Y494D02*
X746Y494D01*
X773Y494D02*
X776Y494D01*
X2324Y494D02*
X2327Y494D01*
X2339Y494D02*
X2343Y494D01*
X2355Y494D02*
X2374Y494D01*
X3140Y494D02*
X3148Y494D01*
X0Y493D02*
X8Y493D01*
X729Y493D02*
X733Y493D01*
X742Y493D02*
X746Y493D01*
X773Y493D02*
X776Y493D01*
X2324Y493D02*
X2327Y493D01*
X2340Y493D02*
X2344Y493D01*
X2354Y493D02*
X2374Y493D01*
X3140Y493D02*
X3148Y493D01*
X0Y492D02*
X8Y492D01*
X729Y492D02*
X733Y492D01*
X743Y492D02*
X747Y492D01*
X773Y492D02*
X776Y492D01*
X2324Y492D02*
X2327Y492D01*
X2340Y492D02*
X2344Y492D01*
X2354Y492D02*
X2373Y492D01*
X3140Y492D02*
X3148Y492D01*
X0Y491D02*
X8Y491D01*
X729Y491D02*
X733Y491D01*
X743Y491D02*
X747Y491D01*
X773Y491D02*
X776Y491D01*
X2325Y491D02*
X2327Y491D01*
X2341Y491D02*
X2343Y491D01*
X2355Y491D02*
X2372Y491D01*
X3140Y491D02*
X3148Y491D01*
X0Y490D02*
X8Y490D01*
X729Y490D02*
X733Y490D01*
X744Y490D02*
X748Y490D01*
X773Y490D02*
X776Y490D01*
X3140Y490D02*
X3148Y490D01*
X0Y489D02*
X8Y489D01*
X729Y489D02*
X733Y489D01*
X745Y489D02*
X748Y489D01*
X773Y489D02*
X776Y489D01*
X3140Y489D02*
X3148Y489D01*
X0Y488D02*
X8Y488D01*
X729Y488D02*
X733Y488D01*
X745Y488D02*
X749Y488D01*
X773Y488D02*
X776Y488D01*
X3140Y488D02*
X3148Y488D01*
X0Y487D02*
X8Y487D01*
X730Y487D02*
X733Y487D01*
X746Y487D02*
X749Y487D01*
X773Y487D02*
X776Y487D01*
X3140Y487D02*
X3148Y487D01*
X0Y486D02*
X8Y486D01*
X730Y486D02*
X732Y486D01*
X746Y486D02*
X749Y486D01*
X773Y486D02*
X776Y486D01*
X3140Y486D02*
X3148Y486D01*
X0Y485D02*
X8Y485D01*
X3140Y485D02*
X3148Y485D01*
X0Y484D02*
X8Y484D01*
X3140Y484D02*
X3148Y484D01*
X0Y483D02*
X8Y483D01*
X3140Y483D02*
X3148Y483D01*
X0Y482D02*
X8Y482D01*
X3140Y482D02*
X3148Y482D01*
X0Y481D02*
X8Y481D01*
X3140Y481D02*
X3148Y481D01*
X0Y480D02*
X8Y480D01*
X3140Y480D02*
X3148Y480D01*
X0Y479D02*
X8Y479D01*
X3140Y479D02*
X3148Y479D01*
X0Y478D02*
X8Y478D01*
X3140Y478D02*
X3148Y478D01*
X0Y477D02*
X8Y477D01*
X3140Y477D02*
X3148Y477D01*
X0Y476D02*
X8Y476D01*
X3140Y476D02*
X3148Y476D01*
X0Y475D02*
X8Y475D01*
X3140Y475D02*
X3148Y475D01*
X0Y474D02*
X8Y474D01*
X3140Y474D02*
X3148Y474D01*
X0Y473D02*
X8Y473D01*
X3140Y473D02*
X3148Y473D01*
X0Y472D02*
X8Y472D01*
X3140Y472D02*
X3148Y472D01*
X0Y471D02*
X8Y471D01*
X3140Y471D02*
X3148Y471D01*
X0Y470D02*
X8Y470D01*
X3140Y470D02*
X3148Y470D01*
X0Y469D02*
X8Y469D01*
X3140Y469D02*
X3148Y469D01*
X0Y468D02*
X8Y468D01*
X3140Y468D02*
X3148Y468D01*
X0Y467D02*
X8Y467D01*
X3140Y467D02*
X3148Y467D01*
X0Y466D02*
X8Y466D01*
X3140Y466D02*
X3148Y466D01*
X0Y465D02*
X8Y465D01*
X3140Y465D02*
X3148Y465D01*
X0Y464D02*
X8Y464D01*
X3140Y464D02*
X3148Y464D01*
X0Y463D02*
X8Y463D01*
X3140Y463D02*
X3148Y463D01*
X0Y462D02*
X8Y462D01*
X3140Y462D02*
X3148Y462D01*
X0Y461D02*
X8Y461D01*
X3140Y461D02*
X3148Y461D01*
X0Y460D02*
X8Y460D01*
X3140Y460D02*
X3148Y460D01*
X0Y459D02*
X8Y459D01*
X3140Y459D02*
X3148Y459D01*
X0Y458D02*
X8Y458D01*
X3140Y458D02*
X3148Y458D01*
X0Y457D02*
X8Y457D01*
X3140Y457D02*
X3148Y457D01*
X0Y456D02*
X8Y456D01*
X3140Y456D02*
X3148Y456D01*
X0Y455D02*
X8Y455D01*
X3140Y455D02*
X3148Y455D01*
X0Y454D02*
X8Y454D01*
X3140Y454D02*
X3148Y454D01*
X0Y453D02*
X8Y453D01*
X3140Y453D02*
X3148Y453D01*
X0Y452D02*
X8Y452D01*
X3140Y452D02*
X3148Y452D01*
X0Y451D02*
X8Y451D01*
X3140Y451D02*
X3148Y451D01*
X0Y450D02*
X8Y450D01*
X3140Y450D02*
X3148Y450D01*
X0Y449D02*
X8Y449D01*
X3140Y449D02*
X3148Y449D01*
X0Y448D02*
X8Y448D01*
X3140Y448D02*
X3148Y448D01*
X0Y447D02*
X8Y447D01*
X3140Y447D02*
X3148Y447D01*
X0Y446D02*
X8Y446D01*
X3140Y446D02*
X3148Y446D01*
X0Y445D02*
X8Y445D01*
X3140Y445D02*
X3148Y445D01*
X0Y444D02*
X8Y444D01*
X3140Y444D02*
X3148Y444D01*
X0Y443D02*
X8Y443D01*
X3140Y443D02*
X3148Y443D01*
X0Y442D02*
X8Y442D01*
X3140Y442D02*
X3148Y442D01*
X0Y441D02*
X8Y441D01*
X3140Y441D02*
X3148Y441D01*
X0Y440D02*
X8Y440D01*
X3140Y440D02*
X3148Y440D01*
X0Y439D02*
X8Y439D01*
X713Y439D02*
X779Y439D01*
X980Y439D02*
X1027Y439D01*
X2112Y439D02*
X2179Y439D01*
X2380Y439D02*
X2427Y439D01*
X3140Y439D02*
X3148Y439D01*
X0Y438D02*
X8Y438D01*
X713Y438D02*
X779Y438D01*
X980Y438D02*
X1027Y438D01*
X2112Y438D02*
X2179Y438D01*
X2380Y438D02*
X2427Y438D01*
X3140Y438D02*
X3148Y438D01*
X0Y437D02*
X8Y437D01*
X713Y437D02*
X779Y437D01*
X980Y437D02*
X1027Y437D01*
X2112Y437D02*
X2179Y437D01*
X2380Y437D02*
X2427Y437D01*
X3140Y437D02*
X3148Y437D01*
X0Y436D02*
X8Y436D01*
X713Y436D02*
X779Y436D01*
X980Y436D02*
X1027Y436D01*
X2113Y436D02*
X2179Y436D01*
X2380Y436D02*
X2427Y436D01*
X3140Y436D02*
X3148Y436D01*
X0Y435D02*
X8Y435D01*
X713Y435D02*
X779Y435D01*
X980Y435D02*
X1027Y435D01*
X2113Y435D02*
X2179Y435D01*
X2380Y435D02*
X2427Y435D01*
X3140Y435D02*
X3148Y435D01*
X0Y434D02*
X8Y434D01*
X713Y434D02*
X779Y434D01*
X980Y434D02*
X1027Y434D01*
X2113Y434D02*
X2179Y434D01*
X2380Y434D02*
X2427Y434D01*
X3140Y434D02*
X3148Y434D01*
X0Y433D02*
X8Y433D01*
X713Y433D02*
X779Y433D01*
X980Y433D02*
X1027Y433D01*
X2112Y433D02*
X2179Y433D01*
X2380Y433D02*
X2427Y433D01*
X3140Y433D02*
X3148Y433D01*
X0Y432D02*
X8Y432D01*
X713Y432D02*
X779Y432D01*
X980Y432D02*
X1027Y432D01*
X2112Y432D02*
X2179Y432D01*
X2380Y432D02*
X2427Y432D01*
X3140Y432D02*
X3148Y432D01*
X0Y431D02*
X8Y431D01*
X713Y431D02*
X779Y431D01*
X980Y431D02*
X1027Y431D01*
X2112Y431D02*
X2179Y431D01*
X2380Y431D02*
X2427Y431D01*
X3140Y431D02*
X3148Y431D01*
X0Y430D02*
X8Y430D01*
X713Y430D02*
X779Y430D01*
X980Y430D02*
X1027Y430D01*
X2112Y430D02*
X2178Y430D01*
X2380Y430D02*
X2427Y430D01*
X3140Y430D02*
X3148Y430D01*
X0Y429D02*
X8Y429D01*
X3140Y429D02*
X3148Y429D01*
X0Y428D02*
X8Y428D01*
X3140Y428D02*
X3148Y428D01*
X0Y427D02*
X8Y427D01*
X3140Y427D02*
X3148Y427D01*
X0Y426D02*
X8Y426D01*
X3140Y426D02*
X3148Y426D01*
X0Y425D02*
X8Y425D01*
X3140Y425D02*
X3148Y425D01*
X0Y424D02*
X8Y424D01*
X3140Y424D02*
X3148Y424D01*
X0Y423D02*
X8Y423D01*
X3140Y423D02*
X3148Y423D01*
X0Y422D02*
X8Y422D01*
X3140Y422D02*
X3148Y422D01*
X0Y421D02*
X8Y421D01*
X3140Y421D02*
X3148Y421D01*
X0Y420D02*
X8Y420D01*
X3140Y420D02*
X3148Y420D01*
X0Y419D02*
X8Y419D01*
X3140Y419D02*
X3148Y419D01*
X0Y418D02*
X8Y418D01*
X3140Y418D02*
X3148Y418D01*
X0Y417D02*
X8Y417D01*
X3140Y417D02*
X3148Y417D01*
X0Y416D02*
X8Y416D01*
X3140Y416D02*
X3148Y416D01*
X0Y415D02*
X8Y415D01*
X3140Y415D02*
X3148Y415D01*
X0Y414D02*
X8Y414D01*
X3140Y414D02*
X3148Y414D01*
X0Y413D02*
X8Y413D01*
X3140Y413D02*
X3148Y413D01*
X0Y412D02*
X8Y412D01*
X3140Y412D02*
X3148Y412D01*
X0Y411D02*
X8Y411D01*
X3140Y411D02*
X3148Y411D01*
X0Y410D02*
X8Y410D01*
X3140Y410D02*
X3148Y410D01*
X0Y409D02*
X8Y409D01*
X3140Y409D02*
X3148Y409D01*
X0Y408D02*
X8Y408D01*
X3140Y408D02*
X3148Y408D01*
X0Y407D02*
X8Y407D01*
X3140Y407D02*
X3148Y407D01*
X0Y406D02*
X8Y406D01*
X3140Y406D02*
X3148Y406D01*
X0Y405D02*
X8Y405D01*
X3140Y405D02*
X3148Y405D01*
X0Y404D02*
X8Y404D01*
X3140Y404D02*
X3148Y404D01*
X0Y403D02*
X8Y403D01*
X3140Y403D02*
X3148Y403D01*
X0Y402D02*
X8Y402D01*
X3140Y402D02*
X3148Y402D01*
X0Y401D02*
X8Y401D01*
X3140Y401D02*
X3148Y401D01*
X0Y400D02*
X8Y400D01*
X3140Y400D02*
X3148Y400D01*
X0Y399D02*
X8Y399D01*
X3140Y399D02*
X3148Y399D01*
X0Y398D02*
X8Y398D01*
X3140Y398D02*
X3148Y398D01*
X0Y397D02*
X8Y397D01*
X3140Y397D02*
X3148Y397D01*
X0Y396D02*
X8Y396D01*
X3140Y396D02*
X3148Y396D01*
X0Y395D02*
X8Y395D01*
X3140Y395D02*
X3148Y395D01*
X0Y394D02*
X8Y394D01*
X3140Y394D02*
X3148Y394D01*
X0Y393D02*
X8Y393D01*
X3140Y393D02*
X3148Y393D01*
X0Y392D02*
X8Y392D01*
X3140Y392D02*
X3148Y392D01*
X0Y391D02*
X8Y391D01*
X3140Y391D02*
X3148Y391D01*
X0Y390D02*
X8Y390D01*
X3140Y390D02*
X3148Y390D01*
X0Y389D02*
X8Y389D01*
X3140Y389D02*
X3148Y389D01*
X0Y388D02*
X8Y388D01*
X3140Y388D02*
X3148Y388D01*
X0Y387D02*
X8Y387D01*
X3140Y387D02*
X3148Y387D01*
X0Y386D02*
X8Y386D01*
X3140Y386D02*
X3148Y386D01*
X0Y385D02*
X8Y385D01*
X3140Y385D02*
X3148Y385D01*
X0Y384D02*
X8Y384D01*
X3140Y384D02*
X3148Y384D01*
X0Y383D02*
X8Y383D01*
X3140Y383D02*
X3148Y383D01*
X0Y382D02*
X8Y382D01*
X3140Y382D02*
X3148Y382D01*
X0Y381D02*
X8Y381D01*
X3140Y381D02*
X3148Y381D01*
X0Y380D02*
X8Y380D01*
X3140Y380D02*
X3148Y380D01*
X0Y379D02*
X8Y379D01*
X3140Y379D02*
X3148Y379D01*
X0Y378D02*
X8Y378D01*
X3140Y378D02*
X3148Y378D01*
X0Y377D02*
X8Y377D01*
X3140Y377D02*
X3148Y377D01*
X0Y376D02*
X8Y376D01*
X3140Y376D02*
X3148Y376D01*
X0Y375D02*
X8Y375D01*
X3140Y375D02*
X3148Y375D01*
X0Y374D02*
X8Y374D01*
X3140Y374D02*
X3148Y374D01*
X0Y373D02*
X8Y373D01*
X3140Y373D02*
X3148Y373D01*
X0Y372D02*
X8Y372D01*
X3140Y372D02*
X3148Y372D01*
X0Y371D02*
X8Y371D01*
X3140Y371D02*
X3148Y371D01*
X0Y370D02*
X8Y370D01*
X3140Y370D02*
X3148Y370D01*
X0Y369D02*
X8Y369D01*
X3140Y369D02*
X3148Y369D01*
X0Y368D02*
X8Y368D01*
X3140Y368D02*
X3148Y368D01*
X0Y367D02*
X8Y367D01*
X3140Y367D02*
X3148Y367D01*
X0Y366D02*
X8Y366D01*
X3140Y366D02*
X3148Y366D01*
X0Y365D02*
X8Y365D01*
X3140Y365D02*
X3148Y365D01*
X0Y364D02*
X8Y364D01*
X3140Y364D02*
X3148Y364D01*
X0Y363D02*
X8Y363D01*
X3140Y363D02*
X3148Y363D01*
X0Y362D02*
X8Y362D01*
X3140Y362D02*
X3148Y362D01*
X0Y361D02*
X8Y361D01*
X3140Y361D02*
X3148Y361D01*
X0Y360D02*
X8Y360D01*
X3140Y360D02*
X3148Y360D01*
X0Y359D02*
X8Y359D01*
X3140Y359D02*
X3148Y359D01*
X0Y358D02*
X8Y358D01*
X3140Y358D02*
X3148Y358D01*
X0Y357D02*
X8Y357D01*
X3140Y357D02*
X3148Y357D01*
X0Y356D02*
X8Y356D01*
X3140Y356D02*
X3148Y356D01*
X0Y355D02*
X8Y355D01*
X3140Y355D02*
X3148Y355D01*
X0Y354D02*
X8Y354D01*
X3140Y354D02*
X3148Y354D01*
X0Y353D02*
X8Y353D01*
X3140Y353D02*
X3148Y353D01*
X0Y352D02*
X8Y352D01*
X3140Y352D02*
X3148Y352D01*
X0Y351D02*
X8Y351D01*
X3140Y351D02*
X3148Y351D01*
X0Y350D02*
X8Y350D01*
X3140Y350D02*
X3148Y350D01*
X0Y349D02*
X8Y349D01*
X3140Y349D02*
X3148Y349D01*
X0Y348D02*
X8Y348D01*
X3140Y348D02*
X3148Y348D01*
X0Y347D02*
X8Y347D01*
X3140Y347D02*
X3148Y347D01*
X0Y346D02*
X8Y346D01*
X3140Y346D02*
X3148Y346D01*
X0Y345D02*
X8Y345D01*
X3140Y345D02*
X3148Y345D01*
X0Y344D02*
X8Y344D01*
X3140Y344D02*
X3148Y344D01*
X0Y343D02*
X8Y343D01*
X3140Y343D02*
X3148Y343D01*
X0Y342D02*
X8Y342D01*
X3140Y342D02*
X3148Y342D01*
X0Y341D02*
X8Y341D01*
X3140Y341D02*
X3148Y341D01*
X0Y340D02*
X8Y340D01*
X3140Y340D02*
X3148Y340D01*
X0Y339D02*
X8Y339D01*
X3140Y339D02*
X3148Y339D01*
X0Y338D02*
X8Y338D01*
X3140Y338D02*
X3148Y338D01*
X0Y337D02*
X8Y337D01*
X3140Y337D02*
X3148Y337D01*
X0Y336D02*
X8Y336D01*
X3140Y336D02*
X3148Y336D01*
X0Y335D02*
X8Y335D01*
X3140Y335D02*
X3148Y335D01*
X0Y334D02*
X8Y334D01*
X3140Y334D02*
X3148Y334D01*
X0Y333D02*
X8Y333D01*
X3140Y333D02*
X3148Y333D01*
X0Y332D02*
X8Y332D01*
X3140Y332D02*
X3148Y332D01*
X0Y331D02*
X8Y331D01*
X3140Y331D02*
X3148Y331D01*
X0Y330D02*
X8Y330D01*
X3140Y330D02*
X3148Y330D01*
X0Y329D02*
X8Y329D01*
X3140Y329D02*
X3148Y329D01*
X0Y328D02*
X8Y328D01*
X3140Y328D02*
X3148Y328D01*
X0Y327D02*
X8Y327D01*
X3140Y327D02*
X3148Y327D01*
X0Y326D02*
X8Y326D01*
X387Y326D02*
X406Y326D01*
X433Y326D02*
X450Y326D01*
X3140Y326D02*
X3148Y326D01*
X0Y325D02*
X8Y325D01*
X384Y325D02*
X409Y325D01*
X431Y325D02*
X450Y325D01*
X3140Y325D02*
X3148Y325D01*
X0Y324D02*
X8Y324D01*
X383Y324D02*
X410Y324D01*
X431Y324D02*
X450Y324D01*
X3140Y324D02*
X3148Y324D01*
X0Y323D02*
X8Y323D01*
X382Y323D02*
X411Y323D01*
X430Y323D02*
X450Y323D01*
X3140Y323D02*
X3148Y323D01*
X0Y322D02*
X8Y322D01*
X381Y322D02*
X412Y322D01*
X431Y322D02*
X450Y322D01*
X3140Y322D02*
X3148Y322D01*
X0Y321D02*
X8Y321D01*
X381Y321D02*
X413Y321D01*
X431Y321D02*
X450Y321D01*
X3140Y321D02*
X3148Y321D01*
X0Y320D02*
X8Y320D01*
X380Y320D02*
X413Y320D01*
X432Y320D02*
X450Y320D01*
X3140Y320D02*
X3148Y320D01*
X0Y319D02*
X8Y319D01*
X380Y319D02*
X387Y319D01*
X406Y319D02*
X414Y319D01*
X444Y319D02*
X450Y319D01*
X3140Y319D02*
X3148Y319D01*
X0Y318D02*
X8Y318D01*
X380Y318D02*
X386Y318D01*
X407Y318D02*
X414Y318D01*
X444Y318D02*
X450Y318D01*
X3140Y318D02*
X3148Y318D01*
X0Y317D02*
X8Y317D01*
X380Y317D02*
X387Y317D01*
X408Y317D02*
X414Y317D01*
X444Y317D02*
X450Y317D01*
X3140Y317D02*
X3148Y317D01*
X0Y316D02*
X8Y316D01*
X381Y316D02*
X388Y316D01*
X408Y316D02*
X414Y316D01*
X444Y316D02*
X450Y316D01*
X3140Y316D02*
X3148Y316D01*
X0Y315D02*
X8Y315D01*
X381Y315D02*
X389Y315D01*
X408Y315D02*
X413Y315D01*
X444Y315D02*
X450Y315D01*
X3140Y315D02*
X3148Y315D01*
X0Y314D02*
X8Y314D01*
X382Y314D02*
X389Y314D01*
X409Y314D02*
X412Y314D01*
X444Y314D02*
X450Y314D01*
X3140Y314D02*
X3148Y314D01*
X0Y313D02*
X8Y313D01*
X382Y313D02*
X390Y313D01*
X444Y313D02*
X450Y313D01*
X3140Y313D02*
X3148Y313D01*
X0Y312D02*
X8Y312D01*
X383Y312D02*
X391Y312D01*
X444Y312D02*
X450Y312D01*
X3140Y312D02*
X3148Y312D01*
X0Y311D02*
X8Y311D01*
X384Y311D02*
X392Y311D01*
X444Y311D02*
X450Y311D01*
X3140Y311D02*
X3148Y311D01*
X0Y310D02*
X8Y310D01*
X384Y310D02*
X392Y310D01*
X444Y310D02*
X450Y310D01*
X3140Y310D02*
X3148Y310D01*
X0Y309D02*
X8Y309D01*
X385Y309D02*
X393Y309D01*
X444Y309D02*
X450Y309D01*
X3140Y309D02*
X3148Y309D01*
X0Y308D02*
X8Y308D01*
X386Y308D02*
X394Y308D01*
X444Y308D02*
X450Y308D01*
X3140Y308D02*
X3148Y308D01*
X0Y307D02*
X8Y307D01*
X387Y307D02*
X395Y307D01*
X444Y307D02*
X450Y307D01*
X3140Y307D02*
X3148Y307D01*
X0Y306D02*
X8Y306D01*
X388Y306D02*
X396Y306D01*
X444Y306D02*
X450Y306D01*
X3140Y306D02*
X3148Y306D01*
X0Y305D02*
X8Y305D01*
X388Y305D02*
X396Y305D01*
X444Y305D02*
X450Y305D01*
X3140Y305D02*
X3148Y305D01*
X0Y304D02*
X8Y304D01*
X389Y304D02*
X397Y304D01*
X444Y304D02*
X450Y304D01*
X3140Y304D02*
X3148Y304D01*
X0Y303D02*
X8Y303D01*
X390Y303D02*
X398Y303D01*
X444Y303D02*
X450Y303D01*
X3140Y303D02*
X3148Y303D01*
X0Y302D02*
X8Y302D01*
X391Y302D02*
X399Y302D01*
X444Y302D02*
X450Y302D01*
X3140Y302D02*
X3148Y302D01*
X0Y301D02*
X8Y301D01*
X391Y301D02*
X399Y301D01*
X444Y301D02*
X450Y301D01*
X3140Y301D02*
X3148Y301D01*
X0Y300D02*
X8Y300D01*
X392Y300D02*
X400Y300D01*
X444Y300D02*
X450Y300D01*
X3140Y300D02*
X3148Y300D01*
X0Y299D02*
X8Y299D01*
X393Y299D02*
X401Y299D01*
X444Y299D02*
X450Y299D01*
X3140Y299D02*
X3148Y299D01*
X0Y298D02*
X8Y298D01*
X394Y298D02*
X402Y298D01*
X444Y298D02*
X450Y298D01*
X2567Y298D02*
X2590Y298D01*
X2614Y298D02*
X2642Y298D01*
X3017Y298D02*
X3040Y298D01*
X3064Y298D02*
X3092Y298D01*
X3140Y298D02*
X3148Y298D01*
X0Y297D02*
X8Y297D01*
X395Y297D02*
X403Y297D01*
X444Y297D02*
X450Y297D01*
X2566Y297D02*
X2592Y297D01*
X2613Y297D02*
X2644Y297D01*
X3016Y297D02*
X3042Y297D01*
X3063Y297D02*
X3093Y297D01*
X3140Y297D02*
X3148Y297D01*
X0Y296D02*
X8Y296D01*
X395Y296D02*
X403Y296D01*
X444Y296D02*
X450Y296D01*
X459Y296D02*
X462Y296D01*
X2565Y296D02*
X2593Y296D01*
X2613Y296D02*
X2645Y296D01*
X3014Y296D02*
X3043Y296D01*
X3063Y296D02*
X3094Y296D01*
X3140Y296D02*
X3148Y296D01*
X0Y295D02*
X8Y295D01*
X396Y295D02*
X404Y295D01*
X444Y295D02*
X450Y295D01*
X459Y295D02*
X463Y295D01*
X2564Y295D02*
X2594Y295D01*
X2613Y295D02*
X2645Y295D01*
X3014Y295D02*
X3044Y295D01*
X3063Y295D02*
X3095Y295D01*
X3140Y295D02*
X3148Y295D01*
X0Y294D02*
X8Y294D01*
X397Y294D02*
X405Y294D01*
X444Y294D02*
X450Y294D01*
X458Y294D02*
X464Y294D01*
X1019Y294D02*
X1022Y294D01*
X1139Y294D02*
X1142Y294D01*
X2563Y294D02*
X2595Y294D01*
X2613Y294D02*
X2646Y294D01*
X3013Y294D02*
X3045Y294D01*
X3063Y294D02*
X3096Y294D01*
X3140Y294D02*
X3148Y294D01*
X0Y293D02*
X8Y293D01*
X398Y293D02*
X406Y293D01*
X444Y293D02*
X450Y293D01*
X458Y293D02*
X464Y293D01*
X1018Y293D02*
X1023Y293D01*
X1138Y293D02*
X1143Y293D01*
X2563Y293D02*
X2595Y293D01*
X2613Y293D02*
X2646Y293D01*
X3013Y293D02*
X3045Y293D01*
X3063Y293D02*
X3096Y293D01*
X3140Y293D02*
X3148Y293D01*
X0Y292D02*
X8Y292D01*
X398Y292D02*
X406Y292D01*
X444Y292D02*
X450Y292D01*
X458Y292D02*
X464Y292D01*
X982Y292D02*
X996Y292D01*
X1018Y292D02*
X1023Y292D01*
X1043Y292D02*
X1044Y292D01*
X1102Y292D02*
X1117Y292D01*
X1138Y292D02*
X1143Y292D01*
X1224Y292D02*
X1232Y292D01*
X2563Y292D02*
X2596Y292D01*
X2615Y292D02*
X2646Y292D01*
X3013Y292D02*
X3046Y292D01*
X3065Y292D02*
X3096Y292D01*
X3140Y292D02*
X3148Y292D01*
X0Y291D02*
X8Y291D01*
X399Y291D02*
X407Y291D01*
X444Y291D02*
X450Y291D01*
X458Y291D02*
X464Y291D01*
X982Y291D02*
X998Y291D01*
X1018Y291D02*
X1023Y291D01*
X1042Y291D02*
X1045Y291D01*
X1102Y291D02*
X1119Y291D01*
X1138Y291D02*
X1143Y291D01*
X1224Y291D02*
X1233Y291D01*
X2563Y291D02*
X2569Y291D01*
X2589Y291D02*
X2596Y291D01*
X2640Y291D02*
X2646Y291D01*
X3012Y291D02*
X3019Y291D01*
X3039Y291D02*
X3046Y291D01*
X3090Y291D02*
X3096Y291D01*
X3140Y291D02*
X3148Y291D01*
X0Y290D02*
X8Y290D01*
X400Y290D02*
X408Y290D01*
X444Y290D02*
X450Y290D01*
X458Y290D02*
X464Y290D01*
X982Y290D02*
X999Y290D01*
X1018Y290D02*
X1023Y290D01*
X1042Y290D02*
X1045Y290D01*
X1102Y290D02*
X1120Y290D01*
X1138Y290D02*
X1143Y290D01*
X1223Y290D02*
X1233Y290D01*
X2563Y290D02*
X2569Y290D01*
X2590Y290D02*
X2596Y290D01*
X2640Y290D02*
X2646Y290D01*
X3013Y290D02*
X3019Y290D01*
X3040Y290D02*
X3046Y290D01*
X3090Y290D02*
X3096Y290D01*
X3140Y290D02*
X3148Y290D01*
X0Y289D02*
X8Y289D01*
X401Y289D02*
X409Y289D01*
X444Y289D02*
X450Y289D01*
X458Y289D02*
X464Y289D01*
X982Y289D02*
X1000Y289D01*
X1019Y289D02*
X1023Y289D01*
X1042Y289D02*
X1045Y289D01*
X1102Y289D02*
X1121Y289D01*
X1138Y289D02*
X1142Y289D01*
X1224Y289D02*
X1233Y289D01*
X2563Y289D02*
X2570Y289D01*
X2590Y289D02*
X2596Y289D01*
X2640Y289D02*
X2646Y289D01*
X3013Y289D02*
X3020Y289D01*
X3040Y289D02*
X3046Y289D01*
X3090Y289D02*
X3096Y289D01*
X3140Y289D02*
X3148Y289D01*
X0Y288D02*
X8Y288D01*
X402Y288D02*
X410Y288D01*
X444Y288D02*
X450Y288D01*
X458Y288D02*
X464Y288D01*
X982Y288D02*
X985Y288D01*
X995Y288D02*
X1001Y288D01*
X1042Y288D02*
X1045Y288D01*
X1102Y288D02*
X1105Y288D01*
X1117Y288D02*
X1121Y288D01*
X1229Y288D02*
X1233Y288D01*
X2563Y288D02*
X2570Y288D01*
X2590Y288D02*
X2596Y288D01*
X2640Y288D02*
X2646Y288D01*
X3013Y288D02*
X3020Y288D01*
X3040Y288D02*
X3046Y288D01*
X3090Y288D02*
X3096Y288D01*
X3140Y288D02*
X3148Y288D01*
X0Y287D02*
X8Y287D01*
X402Y287D02*
X410Y287D01*
X444Y287D02*
X450Y287D01*
X458Y287D02*
X464Y287D01*
X982Y287D02*
X985Y287D01*
X997Y287D02*
X1001Y287D01*
X1042Y287D02*
X1045Y287D01*
X1102Y287D02*
X1105Y287D01*
X1118Y287D02*
X1121Y287D01*
X1230Y287D02*
X1233Y287D01*
X2563Y287D02*
X2571Y287D01*
X2591Y287D02*
X2595Y287D01*
X2640Y287D02*
X2646Y287D01*
X3013Y287D02*
X3021Y287D01*
X3041Y287D02*
X3045Y287D01*
X3090Y287D02*
X3096Y287D01*
X3140Y287D02*
X3148Y287D01*
X0Y286D02*
X8Y286D01*
X403Y286D02*
X411Y286D01*
X444Y286D02*
X450Y286D01*
X458Y286D02*
X464Y286D01*
X982Y286D02*
X985Y286D01*
X998Y286D02*
X1001Y286D01*
X1042Y286D02*
X1045Y286D01*
X1102Y286D02*
X1105Y286D01*
X1118Y286D02*
X1121Y286D01*
X1230Y286D02*
X1233Y286D01*
X2564Y286D02*
X2572Y286D01*
X2592Y286D02*
X2594Y286D01*
X2640Y286D02*
X2646Y286D01*
X3014Y286D02*
X3022Y286D01*
X3042Y286D02*
X3044Y286D01*
X3090Y286D02*
X3096Y286D01*
X3140Y286D02*
X3148Y286D01*
X0Y285D02*
X8Y285D01*
X404Y285D02*
X412Y285D01*
X444Y285D02*
X450Y285D01*
X458Y285D02*
X464Y285D01*
X982Y285D02*
X985Y285D01*
X998Y285D02*
X1001Y285D01*
X1042Y285D02*
X1045Y285D01*
X1102Y285D02*
X1105Y285D01*
X1118Y285D02*
X1121Y285D01*
X1230Y285D02*
X1233Y285D01*
X2565Y285D02*
X2573Y285D01*
X2640Y285D02*
X2646Y285D01*
X3015Y285D02*
X3023Y285D01*
X3090Y285D02*
X3096Y285D01*
X3140Y285D02*
X3148Y285D01*
X0Y284D02*
X8Y284D01*
X381Y284D02*
X385Y284D01*
X405Y284D02*
X413Y284D01*
X444Y284D02*
X450Y284D01*
X458Y284D02*
X464Y284D01*
X982Y284D02*
X985Y284D01*
X998Y284D02*
X1002Y284D01*
X1042Y284D02*
X1045Y284D01*
X1102Y284D02*
X1105Y284D01*
X1118Y284D02*
X1121Y284D01*
X1230Y284D02*
X1233Y284D01*
X2565Y284D02*
X2573Y284D01*
X2640Y284D02*
X2646Y284D01*
X3015Y284D02*
X3023Y284D01*
X3090Y284D02*
X3096Y284D01*
X3140Y284D02*
X3148Y284D01*
X0Y283D02*
X8Y283D01*
X381Y283D02*
X386Y283D01*
X405Y283D02*
X413Y283D01*
X444Y283D02*
X450Y283D01*
X458Y283D02*
X464Y283D01*
X982Y283D02*
X985Y283D01*
X998Y283D02*
X1002Y283D01*
X1015Y283D02*
X1023Y283D01*
X1042Y283D02*
X1045Y283D01*
X1057Y283D02*
X1059Y283D01*
X1077Y283D02*
X1086Y283D01*
X1102Y283D02*
X1105Y283D01*
X1118Y283D02*
X1121Y283D01*
X1134Y283D02*
X1142Y283D01*
X1163Y283D02*
X1164Y283D01*
X1178Y283D02*
X1180Y283D01*
X1197Y283D02*
X1206Y283D01*
X1230Y283D02*
X1233Y283D01*
X1255Y283D02*
X1268Y283D01*
X1318Y283D02*
X1330Y283D01*
X1346Y283D02*
X1356Y283D01*
X1371Y283D02*
X1373Y283D01*
X1376Y283D02*
X1380Y283D01*
X1384Y283D02*
X1387Y283D01*
X2566Y283D02*
X2574Y283D01*
X2640Y283D02*
X2646Y283D01*
X3016Y283D02*
X3024Y283D01*
X3090Y283D02*
X3096Y283D01*
X3140Y283D02*
X3148Y283D01*
X0Y282D02*
X8Y282D01*
X380Y282D02*
X386Y282D01*
X406Y282D02*
X414Y282D01*
X444Y282D02*
X450Y282D01*
X458Y282D02*
X464Y282D01*
X982Y282D02*
X985Y282D01*
X998Y282D02*
X1002Y282D01*
X1014Y282D02*
X1023Y282D01*
X1042Y282D02*
X1045Y282D01*
X1056Y282D02*
X1059Y282D01*
X1075Y282D02*
X1088Y282D01*
X1102Y282D02*
X1105Y282D01*
X1118Y282D02*
X1121Y282D01*
X1134Y282D02*
X1143Y282D01*
X1162Y282D02*
X1165Y282D01*
X1177Y282D02*
X1181Y282D01*
X1195Y282D02*
X1208Y282D01*
X1230Y282D02*
X1233Y282D01*
X1253Y282D02*
X1269Y282D01*
X1317Y282D02*
X1331Y282D01*
X1345Y282D02*
X1357Y282D01*
X1371Y282D02*
X1381Y282D01*
X1383Y282D02*
X1389Y282D01*
X2567Y282D02*
X2575Y282D01*
X2640Y282D02*
X2646Y282D01*
X3017Y282D02*
X3025Y282D01*
X3090Y282D02*
X3096Y282D01*
X3140Y282D02*
X3148Y282D01*
X0Y281D02*
X8Y281D01*
X380Y281D02*
X386Y281D01*
X407Y281D02*
X414Y281D01*
X444Y281D02*
X450Y281D01*
X458Y281D02*
X464Y281D01*
X982Y281D02*
X985Y281D01*
X998Y281D02*
X1001Y281D01*
X1014Y281D02*
X1023Y281D01*
X1042Y281D02*
X1045Y281D01*
X1054Y281D02*
X1059Y281D01*
X1074Y281D02*
X1089Y281D01*
X1102Y281D02*
X1105Y281D01*
X1118Y281D02*
X1121Y281D01*
X1134Y281D02*
X1143Y281D01*
X1162Y281D02*
X1166Y281D01*
X1176Y281D02*
X1181Y281D01*
X1194Y281D02*
X1209Y281D01*
X1230Y281D02*
X1233Y281D01*
X1253Y281D02*
X1270Y281D01*
X1315Y281D02*
X1331Y281D01*
X1343Y281D02*
X1358Y281D01*
X1371Y281D02*
X1390Y281D01*
X2568Y281D02*
X2576Y281D01*
X2640Y281D02*
X2646Y281D01*
X3018Y281D02*
X3026Y281D01*
X3090Y281D02*
X3096Y281D01*
X3140Y281D02*
X3148Y281D01*
X0Y280D02*
X8Y280D01*
X380Y280D02*
X387Y280D01*
X408Y280D02*
X414Y280D01*
X444Y280D02*
X450Y280D01*
X458Y280D02*
X464Y280D01*
X982Y280D02*
X985Y280D01*
X997Y280D02*
X1001Y280D01*
X1015Y280D02*
X1023Y280D01*
X1042Y280D02*
X1045Y280D01*
X1053Y280D02*
X1059Y280D01*
X1073Y280D02*
X1090Y280D01*
X1102Y280D02*
X1105Y280D01*
X1118Y280D02*
X1121Y280D01*
X1134Y280D02*
X1143Y280D01*
X1163Y280D02*
X1167Y280D01*
X1176Y280D02*
X1180Y280D01*
X1193Y280D02*
X1210Y280D01*
X1230Y280D02*
X1233Y280D01*
X1252Y280D02*
X1270Y280D01*
X1314Y280D02*
X1330Y280D01*
X1343Y280D02*
X1359Y280D01*
X1371Y280D02*
X1390Y280D01*
X2569Y280D02*
X2577Y280D01*
X2640Y280D02*
X2646Y280D01*
X3019Y280D02*
X3027Y280D01*
X3090Y280D02*
X3096Y280D01*
X3140Y280D02*
X3148Y280D01*
X0Y279D02*
X8Y279D01*
X381Y279D02*
X414Y279D01*
X434Y279D02*
X464Y279D01*
X982Y279D02*
X985Y279D01*
X996Y279D02*
X1001Y279D01*
X1020Y279D02*
X1023Y279D01*
X1042Y279D02*
X1045Y279D01*
X1052Y279D02*
X1057Y279D01*
X1073Y279D02*
X1077Y279D01*
X1086Y279D02*
X1091Y279D01*
X1102Y279D02*
X1105Y279D01*
X1118Y279D02*
X1121Y279D01*
X1140Y279D02*
X1143Y279D01*
X1163Y279D02*
X1168Y279D01*
X1175Y279D02*
X1179Y279D01*
X1192Y279D02*
X1197Y279D01*
X1206Y279D02*
X1210Y279D01*
X1230Y279D02*
X1233Y279D01*
X1252Y279D02*
X1255Y279D01*
X1267Y279D02*
X1270Y279D01*
X1313Y279D02*
X1319Y279D01*
X1342Y279D02*
X1347Y279D01*
X1355Y279D02*
X1360Y279D01*
X1371Y279D02*
X1376Y279D01*
X1379Y279D02*
X1385Y279D01*
X1387Y279D02*
X1390Y279D01*
X2569Y279D02*
X2577Y279D01*
X2640Y279D02*
X2646Y279D01*
X3019Y279D02*
X3027Y279D01*
X3090Y279D02*
X3096Y279D01*
X3140Y279D02*
X3148Y279D01*
X0Y278D02*
X8Y278D01*
X381Y278D02*
X413Y278D01*
X432Y278D02*
X464Y278D01*
X982Y278D02*
X1000Y278D01*
X1020Y278D02*
X1023Y278D01*
X1042Y278D02*
X1045Y278D01*
X1051Y278D02*
X1056Y278D01*
X1072Y278D02*
X1076Y278D01*
X1087Y278D02*
X1091Y278D01*
X1102Y278D02*
X1105Y278D01*
X1118Y278D02*
X1121Y278D01*
X1140Y278D02*
X1143Y278D01*
X1164Y278D02*
X1169Y278D01*
X1174Y278D02*
X1178Y278D01*
X1192Y278D02*
X1196Y278D01*
X1207Y278D02*
X1211Y278D01*
X1230Y278D02*
X1233Y278D01*
X1252Y278D02*
X1255Y278D01*
X1268Y278D02*
X1269Y278D01*
X1312Y278D02*
X1317Y278D01*
X1341Y278D02*
X1345Y278D01*
X1357Y278D02*
X1360Y278D01*
X1371Y278D02*
X1375Y278D01*
X1379Y278D02*
X1383Y278D01*
X1387Y278D02*
X1390Y278D01*
X2570Y278D02*
X2578Y278D01*
X2640Y278D02*
X2646Y278D01*
X3020Y278D02*
X3028Y278D01*
X3090Y278D02*
X3096Y278D01*
X3140Y278D02*
X3148Y278D01*
X0Y277D02*
X8Y277D01*
X381Y277D02*
X413Y277D01*
X431Y277D02*
X464Y277D01*
X982Y277D02*
X999Y277D01*
X1020Y277D02*
X1023Y277D01*
X1042Y277D02*
X1045Y277D01*
X1050Y277D02*
X1055Y277D01*
X1072Y277D02*
X1075Y277D01*
X1088Y277D02*
X1091Y277D01*
X1102Y277D02*
X1105Y277D01*
X1117Y277D02*
X1121Y277D01*
X1140Y277D02*
X1143Y277D01*
X1165Y277D02*
X1170Y277D01*
X1173Y277D02*
X1178Y277D01*
X1192Y277D02*
X1195Y277D01*
X1208Y277D02*
X1211Y277D01*
X1230Y277D02*
X1233Y277D01*
X1252Y277D02*
X1256Y277D01*
X1312Y277D02*
X1316Y277D01*
X1341Y277D02*
X1345Y277D01*
X1357Y277D02*
X1361Y277D01*
X1371Y277D02*
X1374Y277D01*
X1379Y277D02*
X1383Y277D01*
X1387Y277D02*
X1390Y277D01*
X2571Y277D02*
X2579Y277D01*
X2640Y277D02*
X2646Y277D01*
X3021Y277D02*
X3029Y277D01*
X3090Y277D02*
X3096Y277D01*
X3140Y277D02*
X3148Y277D01*
X0Y276D02*
X8Y276D01*
X382Y276D02*
X413Y276D01*
X431Y276D02*
X464Y276D01*
X982Y276D02*
X999Y276D01*
X1020Y276D02*
X1023Y276D01*
X1042Y276D02*
X1045Y276D01*
X1049Y276D02*
X1054Y276D01*
X1072Y276D02*
X1075Y276D01*
X1088Y276D02*
X1091Y276D01*
X1102Y276D02*
X1121Y276D01*
X1140Y276D02*
X1143Y276D01*
X1166Y276D02*
X1170Y276D01*
X1172Y276D02*
X1177Y276D01*
X1191Y276D02*
X1195Y276D01*
X1208Y276D02*
X1211Y276D01*
X1230Y276D02*
X1233Y276D01*
X1252Y276D02*
X1259Y276D01*
X1311Y276D02*
X1315Y276D01*
X1341Y276D02*
X1344Y276D01*
X1358Y276D02*
X1361Y276D01*
X1371Y276D02*
X1374Y276D01*
X1379Y276D02*
X1382Y276D01*
X1387Y276D02*
X1390Y276D01*
X2572Y276D02*
X2580Y276D01*
X2640Y276D02*
X2646Y276D01*
X3022Y276D02*
X3030Y276D01*
X3089Y276D02*
X3096Y276D01*
X3140Y276D02*
X3148Y276D01*
X0Y275D02*
X8Y275D01*
X383Y275D02*
X412Y275D01*
X431Y275D02*
X464Y275D01*
X982Y275D02*
X1000Y275D01*
X1020Y275D02*
X1023Y275D01*
X1042Y275D02*
X1045Y275D01*
X1047Y275D02*
X1053Y275D01*
X1072Y275D02*
X1075Y275D01*
X1088Y275D02*
X1091Y275D01*
X1102Y275D02*
X1120Y275D01*
X1140Y275D02*
X1143Y275D01*
X1167Y275D02*
X1176Y275D01*
X1191Y275D02*
X1195Y275D01*
X1208Y275D02*
X1211Y275D01*
X1230Y275D02*
X1233Y275D01*
X1253Y275D02*
X1261Y275D01*
X1311Y275D02*
X1314Y275D01*
X1341Y275D02*
X1344Y275D01*
X1358Y275D02*
X1361Y275D01*
X1371Y275D02*
X1374Y275D01*
X1379Y275D02*
X1382Y275D01*
X1387Y275D02*
X1390Y275D01*
X2572Y275D02*
X2581Y275D01*
X2640Y275D02*
X2646Y275D01*
X3022Y275D02*
X3030Y275D01*
X3073Y275D02*
X3096Y275D01*
X3140Y275D02*
X3148Y275D01*
X0Y274D02*
X8Y274D01*
X384Y274D02*
X411Y274D01*
X431Y274D02*
X464Y274D01*
X982Y274D02*
X985Y274D01*
X995Y274D02*
X1001Y274D01*
X1020Y274D02*
X1023Y274D01*
X1042Y274D02*
X1052Y274D01*
X1072Y274D02*
X1075Y274D01*
X1088Y274D02*
X1091Y274D01*
X1102Y274D02*
X1119Y274D01*
X1140Y274D02*
X1143Y274D01*
X1168Y274D02*
X1175Y274D01*
X1191Y274D02*
X1195Y274D01*
X1208Y274D02*
X1211Y274D01*
X1230Y274D02*
X1233Y274D01*
X1254Y274D02*
X1263Y274D01*
X1311Y274D02*
X1314Y274D01*
X1341Y274D02*
X1344Y274D01*
X1358Y274D02*
X1361Y274D01*
X1371Y274D02*
X1374Y274D01*
X1379Y274D02*
X1382Y274D01*
X1387Y274D02*
X1390Y274D01*
X2573Y274D02*
X2581Y274D01*
X2616Y274D02*
X2646Y274D01*
X3023Y274D02*
X3031Y274D01*
X3071Y274D02*
X3095Y274D01*
X3140Y274D02*
X3148Y274D01*
X0Y273D02*
X8Y273D01*
X385Y273D02*
X410Y273D01*
X432Y273D02*
X463Y273D01*
X982Y273D02*
X985Y273D01*
X997Y273D02*
X1001Y273D01*
X1020Y273D02*
X1023Y273D01*
X1042Y273D02*
X1051Y273D01*
X1072Y273D02*
X1091Y273D01*
X1102Y273D02*
X1117Y273D01*
X1140Y273D02*
X1143Y273D01*
X1168Y273D02*
X1174Y273D01*
X1191Y273D02*
X1211Y273D01*
X1230Y273D02*
X1233Y273D01*
X1256Y273D02*
X1266Y273D01*
X1289Y273D02*
X1293Y273D01*
X1311Y273D02*
X1314Y273D01*
X1341Y273D02*
X1344Y273D01*
X1358Y273D02*
X1361Y273D01*
X1371Y273D02*
X1374Y273D01*
X1379Y273D02*
X1382Y273D01*
X1387Y273D02*
X1391Y273D01*
X2574Y273D02*
X2582Y273D01*
X2615Y273D02*
X2646Y273D01*
X3024Y273D02*
X3032Y273D01*
X3070Y273D02*
X3095Y273D01*
X3140Y273D02*
X3148Y273D01*
X0Y272D02*
X8Y272D01*
X390Y272D02*
X406Y272D01*
X434Y272D02*
X460Y272D01*
X982Y272D02*
X985Y272D01*
X998Y272D02*
X1001Y272D01*
X1020Y272D02*
X1023Y272D01*
X1042Y272D02*
X1051Y272D01*
X1072Y272D02*
X1091Y272D01*
X1102Y272D02*
X1105Y272D01*
X1140Y272D02*
X1143Y272D01*
X1169Y272D02*
X1174Y272D01*
X1191Y272D02*
X1211Y272D01*
X1230Y272D02*
X1233Y272D01*
X1258Y272D02*
X1268Y272D01*
X1288Y272D02*
X1294Y272D01*
X1311Y272D02*
X1314Y272D01*
X1341Y272D02*
X1344Y272D01*
X1358Y272D02*
X1361Y272D01*
X1371Y272D02*
X1374Y272D01*
X1379Y272D02*
X1382Y272D01*
X1387Y272D02*
X1391Y272D01*
X2575Y272D02*
X2583Y272D01*
X2614Y272D02*
X2646Y272D01*
X3025Y272D02*
X3033Y272D01*
X3070Y272D02*
X3094Y272D01*
X3140Y272D02*
X3148Y272D01*
X0Y271D02*
X8Y271D01*
X982Y271D02*
X985Y271D01*
X998Y271D02*
X1001Y271D01*
X1020Y271D02*
X1023Y271D01*
X1042Y271D02*
X1052Y271D01*
X1072Y271D02*
X1091Y271D01*
X1102Y271D02*
X1105Y271D01*
X1140Y271D02*
X1143Y271D01*
X1168Y271D02*
X1175Y271D01*
X1191Y271D02*
X1211Y271D01*
X1230Y271D02*
X1233Y271D01*
X1261Y271D02*
X1269Y271D01*
X1287Y271D02*
X1295Y271D01*
X1311Y271D02*
X1314Y271D01*
X1341Y271D02*
X1344Y271D01*
X1358Y271D02*
X1361Y271D01*
X1371Y271D02*
X1374Y271D01*
X1379Y271D02*
X1382Y271D01*
X1387Y271D02*
X1391Y271D01*
X2576Y271D02*
X2584Y271D01*
X2613Y271D02*
X2645Y271D01*
X3026Y271D02*
X3034Y271D01*
X3070Y271D02*
X3094Y271D01*
X3140Y271D02*
X3148Y271D01*
X0Y270D02*
X8Y270D01*
X982Y270D02*
X985Y270D01*
X998Y270D02*
X1002Y270D01*
X1020Y270D02*
X1023Y270D01*
X1042Y270D02*
X1053Y270D01*
X1072Y270D02*
X1091Y270D01*
X1102Y270D02*
X1105Y270D01*
X1140Y270D02*
X1143Y270D01*
X1167Y270D02*
X1175Y270D01*
X1191Y270D02*
X1211Y270D01*
X1230Y270D02*
X1233Y270D01*
X1263Y270D02*
X1270Y270D01*
X1287Y270D02*
X1295Y270D01*
X1311Y270D02*
X1314Y270D01*
X1341Y270D02*
X1344Y270D01*
X1358Y270D02*
X1361Y270D01*
X1371Y270D02*
X1374Y270D01*
X1379Y270D02*
X1382Y270D01*
X1387Y270D02*
X1391Y270D01*
X2576Y270D02*
X2584Y270D01*
X2613Y270D02*
X2644Y270D01*
X3026Y270D02*
X3034Y270D01*
X3070Y270D02*
X3095Y270D01*
X3140Y270D02*
X3148Y270D01*
X0Y269D02*
X8Y269D01*
X982Y269D02*
X985Y269D01*
X998Y269D02*
X1002Y269D01*
X1020Y269D02*
X1023Y269D01*
X1042Y269D02*
X1046Y269D01*
X1049Y269D02*
X1055Y269D01*
X1072Y269D02*
X1090Y269D01*
X1102Y269D02*
X1105Y269D01*
X1140Y269D02*
X1143Y269D01*
X1166Y269D02*
X1176Y269D01*
X1191Y269D02*
X1209Y269D01*
X1230Y269D02*
X1233Y269D01*
X1265Y269D02*
X1270Y269D01*
X1287Y269D02*
X1295Y269D01*
X1311Y269D02*
X1314Y269D01*
X1341Y269D02*
X1344Y269D01*
X1358Y269D02*
X1361Y269D01*
X1371Y269D02*
X1374Y269D01*
X1379Y269D02*
X1382Y269D01*
X1388Y269D02*
X1391Y269D01*
X2577Y269D02*
X2585Y269D01*
X2613Y269D02*
X2643Y269D01*
X3027Y269D02*
X3035Y269D01*
X3071Y269D02*
X3095Y269D01*
X3140Y269D02*
X3148Y269D01*
X0Y268D02*
X8Y268D01*
X982Y268D02*
X985Y268D01*
X998Y268D02*
X1002Y268D01*
X1020Y268D02*
X1023Y268D01*
X1042Y268D02*
X1045Y268D01*
X1050Y268D02*
X1056Y268D01*
X1072Y268D02*
X1075Y268D01*
X1102Y268D02*
X1105Y268D01*
X1140Y268D02*
X1143Y268D01*
X1166Y268D02*
X1170Y268D01*
X1173Y268D02*
X1177Y268D01*
X1191Y268D02*
X1195Y268D01*
X1230Y268D02*
X1233Y268D01*
X1267Y268D02*
X1271Y268D01*
X1287Y268D02*
X1295Y268D01*
X1311Y268D02*
X1315Y268D01*
X1341Y268D02*
X1344Y268D01*
X1358Y268D02*
X1361Y268D01*
X1371Y268D02*
X1374Y268D01*
X1379Y268D02*
X1382Y268D01*
X1388Y268D02*
X1391Y268D01*
X2578Y268D02*
X2586Y268D01*
X2613Y268D02*
X2619Y268D01*
X3028Y268D02*
X3036Y268D01*
X3087Y268D02*
X3096Y268D01*
X3140Y268D02*
X3148Y268D01*
X0Y267D02*
X8Y267D01*
X982Y267D02*
X985Y267D01*
X998Y267D02*
X1001Y267D01*
X1020Y267D02*
X1023Y267D01*
X1042Y267D02*
X1045Y267D01*
X1052Y267D02*
X1057Y267D01*
X1072Y267D02*
X1075Y267D01*
X1102Y267D02*
X1105Y267D01*
X1140Y267D02*
X1143Y267D01*
X1165Y267D02*
X1169Y267D01*
X1173Y267D02*
X1178Y267D01*
X1192Y267D02*
X1195Y267D01*
X1230Y267D02*
X1233Y267D01*
X1268Y267D02*
X1271Y267D01*
X1287Y267D02*
X1295Y267D01*
X1312Y267D02*
X1316Y267D01*
X1341Y267D02*
X1344Y267D01*
X1357Y267D02*
X1361Y267D01*
X1371Y267D02*
X1374Y267D01*
X1379Y267D02*
X1382Y267D01*
X1388Y267D02*
X1391Y267D01*
X2579Y267D02*
X2587Y267D01*
X2613Y267D02*
X2619Y267D01*
X3029Y267D02*
X3037Y267D01*
X3089Y267D02*
X3096Y267D01*
X3140Y267D02*
X3148Y267D01*
X0Y266D02*
X8Y266D01*
X982Y266D02*
X985Y266D01*
X997Y266D02*
X1001Y266D01*
X1020Y266D02*
X1023Y266D01*
X1042Y266D02*
X1045Y266D01*
X1053Y266D02*
X1058Y266D01*
X1072Y266D02*
X1076Y266D01*
X1102Y266D02*
X1105Y266D01*
X1140Y266D02*
X1143Y266D01*
X1164Y266D02*
X1168Y266D01*
X1174Y266D02*
X1179Y266D01*
X1192Y266D02*
X1195Y266D01*
X1230Y266D02*
X1233Y266D01*
X1253Y266D02*
X1253Y266D01*
X1268Y266D02*
X1271Y266D01*
X1288Y266D02*
X1294Y266D01*
X1312Y266D02*
X1317Y266D01*
X1341Y266D02*
X1345Y266D01*
X1357Y266D02*
X1360Y266D01*
X1371Y266D02*
X1374Y266D01*
X1379Y266D02*
X1382Y266D01*
X1388Y266D02*
X1391Y266D01*
X2579Y266D02*
X2588Y266D01*
X2613Y266D02*
X2619Y266D01*
X3029Y266D02*
X3037Y266D01*
X3090Y266D02*
X3096Y266D01*
X3140Y266D02*
X3148Y266D01*
X0Y265D02*
X8Y265D01*
X982Y265D02*
X985Y265D01*
X996Y265D02*
X1001Y265D01*
X1020Y265D02*
X1023Y265D01*
X1042Y265D02*
X1045Y265D01*
X1054Y265D02*
X1059Y265D01*
X1072Y265D02*
X1077Y265D01*
X1102Y265D02*
X1105Y265D01*
X1140Y265D02*
X1143Y265D01*
X1163Y265D02*
X1168Y265D01*
X1175Y265D02*
X1180Y265D01*
X1192Y265D02*
X1197Y265D01*
X1230Y265D02*
X1233Y265D01*
X1252Y265D02*
X1255Y265D01*
X1267Y265D02*
X1271Y265D01*
X1313Y265D02*
X1318Y265D01*
X1342Y265D02*
X1346Y265D01*
X1356Y265D02*
X1360Y265D01*
X1371Y265D02*
X1374Y265D01*
X1379Y265D02*
X1382Y265D01*
X1388Y265D02*
X1391Y265D01*
X2580Y265D02*
X2588Y265D01*
X2613Y265D02*
X2619Y265D01*
X3030Y265D02*
X3038Y265D01*
X3090Y265D02*
X3096Y265D01*
X3140Y265D02*
X3148Y265D01*
X0Y264D02*
X8Y264D01*
X982Y264D02*
X1000Y264D01*
X1015Y264D02*
X1028Y264D01*
X1042Y264D02*
X1045Y264D01*
X1055Y264D02*
X1060Y264D01*
X1073Y264D02*
X1090Y264D01*
X1102Y264D02*
X1105Y264D01*
X1135Y264D02*
X1148Y264D01*
X1162Y264D02*
X1167Y264D01*
X1176Y264D02*
X1180Y264D01*
X1193Y264D02*
X1210Y264D01*
X1224Y264D02*
X1238Y264D01*
X1251Y264D02*
X1270Y264D01*
X1314Y264D02*
X1330Y264D01*
X1342Y264D02*
X1359Y264D01*
X1371Y264D02*
X1374Y264D01*
X1379Y264D02*
X1382Y264D01*
X1388Y264D02*
X1391Y264D01*
X2581Y264D02*
X2589Y264D01*
X2613Y264D02*
X2619Y264D01*
X3031Y264D02*
X3039Y264D01*
X3090Y264D02*
X3096Y264D01*
X3140Y264D02*
X3148Y264D01*
X0Y263D02*
X8Y263D01*
X982Y263D02*
X999Y263D01*
X1014Y263D02*
X1029Y263D01*
X1042Y263D02*
X1045Y263D01*
X1056Y263D02*
X1061Y263D01*
X1074Y263D02*
X1091Y263D01*
X1102Y263D02*
X1105Y263D01*
X1134Y263D02*
X1149Y263D01*
X1162Y263D02*
X1166Y263D01*
X1177Y263D02*
X1181Y263D01*
X1194Y263D02*
X1211Y263D01*
X1224Y263D02*
X1239Y263D01*
X1252Y263D02*
X1270Y263D01*
X1315Y263D02*
X1331Y263D01*
X1343Y263D02*
X1359Y263D01*
X1371Y263D02*
X1374Y263D01*
X1379Y263D02*
X1382Y263D01*
X1388Y263D02*
X1391Y263D01*
X2582Y263D02*
X2590Y263D01*
X2613Y263D02*
X2619Y263D01*
X3032Y263D02*
X3040Y263D01*
X3090Y263D02*
X3096Y263D01*
X3140Y263D02*
X3148Y263D01*
X0Y262D02*
X8Y262D01*
X982Y262D02*
X998Y262D01*
X1014Y262D02*
X1029Y262D01*
X1042Y262D02*
X1045Y262D01*
X1057Y262D02*
X1061Y262D01*
X1075Y262D02*
X1091Y262D01*
X1102Y262D02*
X1105Y262D01*
X1134Y262D02*
X1149Y262D01*
X1162Y262D02*
X1165Y262D01*
X1178Y262D02*
X1181Y262D01*
X1195Y262D02*
X1211Y262D01*
X1223Y262D02*
X1239Y262D01*
X1253Y262D02*
X1269Y262D01*
X1316Y262D02*
X1331Y262D01*
X1344Y262D02*
X1357Y262D01*
X1371Y262D02*
X1374Y262D01*
X1379Y262D02*
X1382Y262D01*
X1388Y262D02*
X1391Y262D01*
X2583Y262D02*
X2591Y262D01*
X2613Y262D02*
X2619Y262D01*
X3032Y262D02*
X3041Y262D01*
X3090Y262D02*
X3096Y262D01*
X3140Y262D02*
X3148Y262D01*
X0Y261D02*
X8Y261D01*
X982Y261D02*
X997Y261D01*
X1014Y261D02*
X1029Y261D01*
X1042Y261D02*
X1045Y261D01*
X1059Y261D02*
X1061Y261D01*
X1076Y261D02*
X1091Y261D01*
X1102Y261D02*
X1104Y261D01*
X1134Y261D02*
X1149Y261D01*
X1162Y261D02*
X1164Y261D01*
X1178Y261D02*
X1181Y261D01*
X1196Y261D02*
X1211Y261D01*
X1224Y261D02*
X1238Y261D01*
X1254Y261D02*
X1268Y261D01*
X1318Y261D02*
X1330Y261D01*
X1346Y261D02*
X1356Y261D01*
X1371Y261D02*
X1373Y261D01*
X1380Y261D02*
X1382Y261D01*
X1388Y261D02*
X1390Y261D01*
X2583Y261D02*
X2591Y261D01*
X2613Y261D02*
X2619Y261D01*
X3033Y261D02*
X3041Y261D01*
X3090Y261D02*
X3096Y261D01*
X3140Y261D02*
X3148Y261D01*
X0Y260D02*
X8Y260D01*
X2584Y260D02*
X2592Y260D01*
X2613Y260D02*
X2619Y260D01*
X3034Y260D02*
X3042Y260D01*
X3090Y260D02*
X3096Y260D01*
X3140Y260D02*
X3148Y260D01*
X0Y259D02*
X8Y259D01*
X2585Y259D02*
X2593Y259D01*
X2613Y259D02*
X2619Y259D01*
X3035Y259D02*
X3043Y259D01*
X3090Y259D02*
X3096Y259D01*
X3140Y259D02*
X3148Y259D01*
X0Y258D02*
X8Y258D01*
X2586Y258D02*
X2594Y258D01*
X2613Y258D02*
X2619Y258D01*
X3036Y258D02*
X3044Y258D01*
X3090Y258D02*
X3096Y258D01*
X3140Y258D02*
X3148Y258D01*
X0Y257D02*
X8Y257D01*
X2565Y257D02*
X2566Y257D01*
X2586Y257D02*
X2594Y257D01*
X2613Y257D02*
X2619Y257D01*
X3014Y257D02*
X3016Y257D01*
X3036Y257D02*
X3044Y257D01*
X3090Y257D02*
X3096Y257D01*
X3140Y257D02*
X3148Y257D01*
X0Y256D02*
X8Y256D01*
X2563Y256D02*
X2568Y256D01*
X2587Y256D02*
X2595Y256D01*
X2613Y256D02*
X2619Y256D01*
X3013Y256D02*
X3018Y256D01*
X3037Y256D02*
X3045Y256D01*
X3090Y256D02*
X3096Y256D01*
X3140Y256D02*
X3148Y256D01*
X0Y255D02*
X8Y255D01*
X2563Y255D02*
X2568Y255D01*
X2588Y255D02*
X2596Y255D01*
X2613Y255D02*
X2619Y255D01*
X3013Y255D02*
X3018Y255D01*
X3038Y255D02*
X3046Y255D01*
X3090Y255D02*
X3096Y255D01*
X3140Y255D02*
X3148Y255D01*
X0Y254D02*
X8Y254D01*
X2563Y254D02*
X2568Y254D01*
X2589Y254D02*
X2596Y254D01*
X2613Y254D02*
X2619Y254D01*
X3012Y254D02*
X3018Y254D01*
X3039Y254D02*
X3046Y254D01*
X3090Y254D02*
X3096Y254D01*
X3140Y254D02*
X3148Y254D01*
X0Y253D02*
X8Y253D01*
X2563Y253D02*
X2569Y253D01*
X2590Y253D02*
X2596Y253D01*
X2613Y253D02*
X2619Y253D01*
X3012Y253D02*
X3019Y253D01*
X3039Y253D02*
X3046Y253D01*
X3090Y253D02*
X3096Y253D01*
X3140Y253D02*
X3148Y253D01*
X0Y252D02*
X8Y252D01*
X2563Y252D02*
X2569Y252D01*
X2590Y252D02*
X2596Y252D01*
X2613Y252D02*
X2619Y252D01*
X3013Y252D02*
X3019Y252D01*
X3040Y252D02*
X3046Y252D01*
X3090Y252D02*
X3096Y252D01*
X3140Y252D02*
X3148Y252D01*
X0Y251D02*
X8Y251D01*
X2563Y251D02*
X2596Y251D01*
X2613Y251D02*
X2644Y251D01*
X3013Y251D02*
X3046Y251D01*
X3064Y251D02*
X3096Y251D01*
X3140Y251D02*
X3148Y251D01*
X0Y250D02*
X8Y250D01*
X2563Y250D02*
X2596Y250D01*
X2613Y250D02*
X2646Y250D01*
X3013Y250D02*
X3046Y250D01*
X3063Y250D02*
X3096Y250D01*
X3140Y250D02*
X3148Y250D01*
X0Y249D02*
X8Y249D01*
X2564Y249D02*
X2595Y249D01*
X2613Y249D02*
X2646Y249D01*
X3014Y249D02*
X3045Y249D01*
X3063Y249D02*
X3096Y249D01*
X3140Y249D02*
X3148Y249D01*
X0Y248D02*
X8Y248D01*
X2565Y248D02*
X2595Y248D01*
X2613Y248D02*
X2646Y248D01*
X3015Y248D02*
X3045Y248D01*
X3063Y248D02*
X3095Y248D01*
X3140Y248D02*
X3148Y248D01*
X0Y247D02*
X8Y247D01*
X2566Y247D02*
X2594Y247D01*
X2613Y247D02*
X2646Y247D01*
X3015Y247D02*
X3044Y247D01*
X3063Y247D02*
X3094Y247D01*
X3140Y247D02*
X3148Y247D01*
X0Y246D02*
X8Y246D01*
X2567Y246D02*
X2593Y246D01*
X2613Y246D02*
X2646Y246D01*
X3017Y246D02*
X3043Y246D01*
X3063Y246D02*
X3093Y246D01*
X3140Y246D02*
X3148Y246D01*
X0Y245D02*
X8Y245D01*
X2569Y245D02*
X2591Y245D01*
X2613Y245D02*
X2645Y245D01*
X3019Y245D02*
X3041Y245D01*
X3064Y245D02*
X3092Y245D01*
X3140Y245D02*
X3148Y245D01*
X0Y244D02*
X8Y244D01*
X3140Y244D02*
X3148Y244D01*
X0Y243D02*
X8Y243D01*
X3140Y243D02*
X3148Y243D01*
X0Y242D02*
X8Y242D01*
X3140Y242D02*
X3148Y242D01*
X0Y241D02*
X8Y241D01*
X3140Y241D02*
X3148Y241D01*
X0Y240D02*
X8Y240D01*
X3140Y240D02*
X3148Y240D01*
X0Y239D02*
X8Y239D01*
X3140Y239D02*
X3148Y239D01*
X0Y238D02*
X8Y238D01*
X3140Y238D02*
X3148Y238D01*
X0Y237D02*
X8Y237D01*
X3140Y237D02*
X3148Y237D01*
X0Y236D02*
X8Y236D01*
X3140Y236D02*
X3148Y236D01*
X0Y235D02*
X8Y235D01*
X3140Y235D02*
X3148Y235D01*
X0Y234D02*
X8Y234D01*
X3140Y234D02*
X3148Y234D01*
X0Y233D02*
X8Y233D01*
X3140Y233D02*
X3148Y233D01*
X0Y232D02*
X8Y232D01*
X3140Y232D02*
X3148Y232D01*
X0Y231D02*
X8Y231D01*
X3140Y231D02*
X3148Y231D01*
X0Y230D02*
X8Y230D01*
X3140Y230D02*
X3148Y230D01*
X0Y229D02*
X8Y229D01*
X3140Y229D02*
X3148Y229D01*
X0Y228D02*
X8Y228D01*
X3140Y228D02*
X3148Y228D01*
X0Y227D02*
X8Y227D01*
X3140Y227D02*
X3148Y227D01*
X0Y226D02*
X8Y226D01*
X3140Y226D02*
X3148Y226D01*
X0Y225D02*
X8Y225D01*
X3140Y225D02*
X3148Y225D01*
X0Y224D02*
X8Y224D01*
X1008Y224D02*
X1011Y224D01*
X1110Y224D02*
X1112Y224D01*
X3140Y224D02*
X3148Y224D01*
X0Y223D02*
X8Y223D01*
X984Y223D02*
X993Y223D01*
X1008Y223D02*
X1011Y223D01*
X1025Y223D02*
X1025Y223D01*
X1085Y223D02*
X1095Y223D01*
X1109Y223D02*
X1112Y223D01*
X1168Y223D02*
X1172Y223D01*
X1329Y223D02*
X1339Y223D01*
X1371Y223D02*
X1380Y223D01*
X3140Y223D02*
X3148Y223D01*
X0Y222D02*
X8Y222D01*
X984Y222D02*
X994Y222D01*
X1008Y222D02*
X1011Y222D01*
X1024Y222D02*
X1026Y222D01*
X1085Y222D02*
X1096Y222D01*
X1109Y222D02*
X1112Y222D01*
X1167Y222D02*
X1173Y222D01*
X1328Y222D02*
X1340Y222D01*
X1371Y222D02*
X1381Y222D01*
X3140Y222D02*
X3148Y222D01*
X0Y221D02*
X8Y221D01*
X984Y221D02*
X995Y221D01*
X1008Y221D02*
X1011Y221D01*
X1024Y221D02*
X1026Y221D01*
X1085Y221D02*
X1097Y221D01*
X1110Y221D02*
X1112Y221D01*
X1168Y221D02*
X1173Y221D01*
X1328Y221D02*
X1341Y221D01*
X1371Y221D02*
X1381Y221D01*
X3140Y221D02*
X3148Y221D01*
X0Y220D02*
X8Y220D01*
X984Y220D02*
X985Y220D01*
X993Y220D02*
X996Y220D01*
X1024Y220D02*
X1026Y220D01*
X1085Y220D02*
X1087Y220D01*
X1095Y220D02*
X1098Y220D01*
X1171Y220D02*
X1173Y220D01*
X1328Y220D02*
X1330Y220D01*
X1339Y220D02*
X1341Y220D01*
X1371Y220D02*
X1373Y220D01*
X3140Y220D02*
X3148Y220D01*
X0Y219D02*
X8Y219D01*
X984Y219D02*
X985Y219D01*
X994Y219D02*
X996Y219D01*
X1024Y219D02*
X1026Y219D01*
X1085Y219D02*
X1087Y219D01*
X1096Y219D02*
X1098Y219D01*
X1171Y219D02*
X1173Y219D01*
X1328Y219D02*
X1330Y219D01*
X1339Y219D02*
X1341Y219D01*
X1371Y219D02*
X1373Y219D01*
X3140Y219D02*
X3148Y219D01*
X0Y218D02*
X8Y218D01*
X984Y218D02*
X985Y218D01*
X995Y218D02*
X996Y218D01*
X1024Y218D02*
X1026Y218D01*
X1085Y218D02*
X1087Y218D01*
X1096Y218D02*
X1098Y218D01*
X1171Y218D02*
X1173Y218D01*
X1328Y218D02*
X1330Y218D01*
X1339Y218D02*
X1341Y218D01*
X1371Y218D02*
X1373Y218D01*
X3140Y218D02*
X3148Y218D01*
X0Y217D02*
X8Y217D01*
X984Y217D02*
X985Y217D01*
X995Y217D02*
X996Y217D01*
X1006Y217D02*
X1011Y217D01*
X1024Y217D02*
X1026Y217D01*
X1034Y217D02*
X1035Y217D01*
X1048Y217D02*
X1054Y217D01*
X1085Y217D02*
X1087Y217D01*
X1096Y217D02*
X1098Y217D01*
X1107Y217D02*
X1112Y217D01*
X1126Y217D02*
X1127Y217D01*
X1137Y217D02*
X1137Y217D01*
X1149Y217D02*
X1155Y217D01*
X1171Y217D02*
X1173Y217D01*
X1207Y217D02*
X1207Y217D01*
X1212Y217D02*
X1217Y217D01*
X1230Y217D02*
X1236Y217D01*
X1250Y217D02*
X1257Y217D01*
X1268Y217D02*
X1268Y217D01*
X1273Y217D02*
X1277Y217D01*
X1308Y217D02*
X1309Y217D01*
X1319Y217D02*
X1320Y217D01*
X1328Y217D02*
X1330Y217D01*
X1339Y217D02*
X1341Y217D01*
X1371Y217D02*
X1373Y217D01*
X3140Y217D02*
X3148Y217D01*
X0Y216D02*
X8Y216D01*
X984Y216D02*
X985Y216D01*
X995Y216D02*
X996Y216D01*
X1005Y216D02*
X1011Y216D01*
X1024Y216D02*
X1026Y216D01*
X1033Y216D02*
X1035Y216D01*
X1046Y216D02*
X1055Y216D01*
X1085Y216D02*
X1087Y216D01*
X1096Y216D02*
X1098Y216D01*
X1106Y216D02*
X1112Y216D01*
X1126Y216D02*
X1128Y216D01*
X1136Y216D02*
X1138Y216D01*
X1148Y216D02*
X1156Y216D01*
X1171Y216D02*
X1173Y216D01*
X1206Y216D02*
X1208Y216D01*
X1211Y216D02*
X1218Y216D01*
X1228Y216D02*
X1237Y216D01*
X1250Y216D02*
X1258Y216D01*
X1267Y216D02*
X1269Y216D01*
X1272Y216D02*
X1279Y216D01*
X1307Y216D02*
X1309Y216D01*
X1319Y216D02*
X1320Y216D01*
X1328Y216D02*
X1330Y216D01*
X1339Y216D02*
X1341Y216D01*
X1371Y216D02*
X1373Y216D01*
X3140Y216D02*
X3148Y216D01*
X0Y215D02*
X8Y215D01*
X984Y215D02*
X985Y215D01*
X994Y215D02*
X996Y215D01*
X1006Y215D02*
X1011Y215D01*
X1024Y215D02*
X1026Y215D01*
X1032Y215D02*
X1035Y215D01*
X1045Y215D02*
X1056Y215D01*
X1085Y215D02*
X1087Y215D01*
X1096Y215D02*
X1098Y215D01*
X1107Y215D02*
X1112Y215D01*
X1126Y215D02*
X1129Y215D01*
X1135Y215D02*
X1137Y215D01*
X1147Y215D02*
X1157Y215D01*
X1171Y215D02*
X1173Y215D01*
X1206Y215D02*
X1208Y215D01*
X1210Y215D02*
X1219Y215D01*
X1227Y215D02*
X1238Y215D01*
X1250Y215D02*
X1259Y215D01*
X1267Y215D02*
X1269Y215D01*
X1271Y215D02*
X1279Y215D01*
X1307Y215D02*
X1309Y215D01*
X1319Y215D02*
X1320Y215D01*
X1328Y215D02*
X1330Y215D01*
X1339Y215D02*
X1341Y215D01*
X1371Y215D02*
X1373Y215D01*
X3140Y215D02*
X3148Y215D01*
X0Y214D02*
X8Y214D01*
X984Y214D02*
X986Y214D01*
X993Y214D02*
X996Y214D01*
X1009Y214D02*
X1011Y214D01*
X1024Y214D02*
X1026Y214D01*
X1031Y214D02*
X1034Y214D01*
X1045Y214D02*
X1047Y214D01*
X1054Y214D02*
X1057Y214D01*
X1085Y214D02*
X1087Y214D01*
X1096Y214D02*
X1098Y214D01*
X1111Y214D02*
X1112Y214D01*
X1127Y214D02*
X1129Y214D01*
X1134Y214D02*
X1137Y214D01*
X1146Y214D02*
X1148Y214D01*
X1155Y214D02*
X1158Y214D01*
X1171Y214D02*
X1173Y214D01*
X1206Y214D02*
X1212Y214D01*
X1217Y214D02*
X1219Y214D01*
X1227Y214D02*
X1229Y214D01*
X1236Y214D02*
X1239Y214D01*
X1257Y214D02*
X1259Y214D01*
X1267Y214D02*
X1273Y214D01*
X1278Y214D02*
X1280Y214D01*
X1307Y214D02*
X1309Y214D01*
X1319Y214D02*
X1320Y214D01*
X1328Y214D02*
X1330Y214D01*
X1339Y214D02*
X1341Y214D01*
X1371Y214D02*
X1373Y214D01*
X3140Y214D02*
X3148Y214D01*
X0Y213D02*
X8Y213D01*
X984Y213D02*
X995Y213D01*
X1009Y213D02*
X1011Y213D01*
X1024Y213D02*
X1026Y213D01*
X1029Y213D02*
X1033Y213D01*
X1044Y213D02*
X1046Y213D01*
X1055Y213D02*
X1057Y213D01*
X1085Y213D02*
X1087Y213D01*
X1095Y213D02*
X1097Y213D01*
X1111Y213D02*
X1112Y213D01*
X1128Y213D02*
X1130Y213D01*
X1133Y213D02*
X1136Y213D01*
X1146Y213D02*
X1148Y213D01*
X1156Y213D02*
X1158Y213D01*
X1171Y213D02*
X1173Y213D01*
X1206Y213D02*
X1211Y213D01*
X1217Y213D02*
X1219Y213D01*
X1227Y213D02*
X1229Y213D01*
X1237Y213D02*
X1239Y213D01*
X1257Y213D02*
X1259Y213D01*
X1267Y213D02*
X1272Y213D01*
X1278Y213D02*
X1280Y213D01*
X1308Y213D02*
X1310Y213D01*
X1318Y213D02*
X1320Y213D01*
X1328Y213D02*
X1330Y213D01*
X1339Y213D02*
X1341Y213D01*
X1371Y213D02*
X1380Y213D01*
X3140Y213D02*
X3148Y213D01*
X0Y212D02*
X8Y212D01*
X984Y212D02*
X995Y212D01*
X1009Y212D02*
X1011Y212D01*
X1024Y212D02*
X1026Y212D01*
X1028Y212D02*
X1032Y212D01*
X1044Y212D02*
X1046Y212D01*
X1055Y212D02*
X1057Y212D01*
X1085Y212D02*
X1097Y212D01*
X1111Y212D02*
X1112Y212D01*
X1128Y212D02*
X1135Y212D01*
X1145Y212D02*
X1147Y212D01*
X1157Y212D02*
X1158Y212D01*
X1171Y212D02*
X1173Y212D01*
X1206Y212D02*
X1210Y212D01*
X1217Y212D02*
X1219Y212D01*
X1226Y212D02*
X1228Y212D01*
X1238Y212D02*
X1239Y212D01*
X1257Y212D02*
X1259Y212D01*
X1267Y212D02*
X1270Y212D01*
X1278Y212D02*
X1280Y212D01*
X1308Y212D02*
X1310Y212D01*
X1318Y212D02*
X1320Y212D01*
X1328Y212D02*
X1330Y212D01*
X1339Y212D02*
X1341Y212D01*
X1371Y212D02*
X1381Y212D01*
X3140Y212D02*
X3148Y212D01*
X0Y211D02*
X8Y211D01*
X984Y211D02*
X986Y211D01*
X992Y211D02*
X996Y211D01*
X1009Y211D02*
X1011Y211D01*
X1024Y211D02*
X1030Y211D01*
X1044Y211D02*
X1046Y211D01*
X1055Y211D02*
X1057Y211D01*
X1085Y211D02*
X1096Y211D01*
X1111Y211D02*
X1112Y211D01*
X1129Y211D02*
X1134Y211D01*
X1145Y211D02*
X1147Y211D01*
X1157Y211D02*
X1158Y211D01*
X1171Y211D02*
X1173Y211D01*
X1206Y211D02*
X1209Y211D01*
X1226Y211D02*
X1228Y211D01*
X1238Y211D02*
X1239Y211D01*
X1249Y211D02*
X1259Y211D01*
X1267Y211D02*
X1269Y211D01*
X1308Y211D02*
X1311Y211D01*
X1317Y211D02*
X1319Y211D01*
X1328Y211D02*
X1330Y211D01*
X1339Y211D02*
X1341Y211D01*
X1379Y211D02*
X1381Y211D01*
X3140Y211D02*
X3148Y211D01*
X0Y210D02*
X8Y210D01*
X984Y210D02*
X985Y210D01*
X994Y210D02*
X996Y210D01*
X1009Y210D02*
X1011Y210D01*
X1024Y210D02*
X1030Y210D01*
X1044Y210D02*
X1057Y210D01*
X1085Y210D02*
X1094Y210D01*
X1111Y210D02*
X1112Y210D01*
X1130Y210D02*
X1133Y210D01*
X1145Y210D02*
X1158Y210D01*
X1171Y210D02*
X1173Y210D01*
X1206Y210D02*
X1208Y210D01*
X1226Y210D02*
X1239Y210D01*
X1248Y210D02*
X1259Y210D01*
X1267Y210D02*
X1269Y210D01*
X1309Y210D02*
X1311Y210D01*
X1317Y210D02*
X1319Y210D01*
X1328Y210D02*
X1330Y210D01*
X1339Y210D02*
X1341Y210D01*
X1353Y210D02*
X1356Y210D01*
X1379Y210D02*
X1381Y210D01*
X3140Y210D02*
X3148Y210D01*
X0Y209D02*
X8Y209D01*
X984Y209D02*
X985Y209D01*
X994Y209D02*
X996Y209D01*
X1009Y209D02*
X1011Y209D01*
X1024Y209D02*
X1031Y209D01*
X1044Y209D02*
X1057Y209D01*
X1085Y209D02*
X1087Y209D01*
X1111Y209D02*
X1112Y209D01*
X1130Y209D02*
X1134Y209D01*
X1145Y209D02*
X1158Y209D01*
X1171Y209D02*
X1173Y209D01*
X1206Y209D02*
X1208Y209D01*
X1226Y209D02*
X1239Y209D01*
X1247Y209D02*
X1259Y209D01*
X1267Y209D02*
X1269Y209D01*
X1309Y209D02*
X1311Y209D01*
X1316Y209D02*
X1318Y209D01*
X1328Y209D02*
X1330Y209D01*
X1339Y209D02*
X1341Y209D01*
X1352Y209D02*
X1357Y209D01*
X1379Y209D02*
X1381Y209D01*
X3140Y209D02*
X3148Y209D01*
X0Y208D02*
X8Y208D01*
X984Y208D02*
X985Y208D01*
X995Y208D02*
X996Y208D01*
X1009Y208D02*
X1011Y208D01*
X1024Y208D02*
X1032Y208D01*
X1044Y208D02*
X1057Y208D01*
X1085Y208D02*
X1087Y208D01*
X1111Y208D02*
X1112Y208D01*
X1129Y208D02*
X1134Y208D01*
X1145Y208D02*
X1158Y208D01*
X1171Y208D02*
X1173Y208D01*
X1206Y208D02*
X1208Y208D01*
X1226Y208D02*
X1239Y208D01*
X1247Y208D02*
X1249Y208D01*
X1257Y208D02*
X1259Y208D01*
X1267Y208D02*
X1269Y208D01*
X1310Y208D02*
X1312Y208D01*
X1316Y208D02*
X1318Y208D01*
X1328Y208D02*
X1330Y208D01*
X1339Y208D02*
X1341Y208D01*
X1352Y208D02*
X1357Y208D01*
X1379Y208D02*
X1381Y208D01*
X3140Y208D02*
X3148Y208D01*
X0Y207D02*
X8Y207D01*
X984Y207D02*
X985Y207D01*
X995Y207D02*
X996Y207D01*
X1009Y207D02*
X1011Y207D01*
X1024Y207D02*
X1026Y207D01*
X1030Y207D02*
X1033Y207D01*
X1044Y207D02*
X1046Y207D01*
X1085Y207D02*
X1087Y207D01*
X1111Y207D02*
X1112Y207D01*
X1128Y207D02*
X1131Y207D01*
X1133Y207D02*
X1135Y207D01*
X1145Y207D02*
X1147Y207D01*
X1171Y207D02*
X1173Y207D01*
X1206Y207D02*
X1208Y207D01*
X1226Y207D02*
X1228Y207D01*
X1247Y207D02*
X1249Y207D01*
X1258Y207D02*
X1260Y207D01*
X1267Y207D02*
X1269Y207D01*
X1310Y207D02*
X1312Y207D01*
X1316Y207D02*
X1318Y207D01*
X1328Y207D02*
X1330Y207D01*
X1339Y207D02*
X1341Y207D01*
X1352Y207D02*
X1357Y207D01*
X1379Y207D02*
X1381Y207D01*
X3140Y207D02*
X3148Y207D01*
X0Y206D02*
X8Y206D01*
X984Y206D02*
X985Y206D01*
X994Y206D02*
X996Y206D01*
X1009Y206D02*
X1011Y206D01*
X1024Y206D02*
X1026Y206D01*
X1031Y206D02*
X1034Y206D01*
X1044Y206D02*
X1046Y206D01*
X1085Y206D02*
X1087Y206D01*
X1111Y206D02*
X1112Y206D01*
X1127Y206D02*
X1130Y206D01*
X1133Y206D02*
X1136Y206D01*
X1146Y206D02*
X1148Y206D01*
X1171Y206D02*
X1173Y206D01*
X1206Y206D02*
X1208Y206D01*
X1227Y206D02*
X1228Y206D01*
X1247Y206D02*
X1249Y206D01*
X1257Y206D02*
X1260Y206D01*
X1267Y206D02*
X1269Y206D01*
X1311Y206D02*
X1313Y206D01*
X1315Y206D02*
X1317Y206D01*
X1328Y206D02*
X1330Y206D01*
X1339Y206D02*
X1341Y206D01*
X1352Y206D02*
X1357Y206D01*
X1379Y206D02*
X1381Y206D01*
X3140Y206D02*
X3148Y206D01*
X0Y205D02*
X8Y205D01*
X984Y205D02*
X985Y205D01*
X994Y205D02*
X996Y205D01*
X1009Y205D02*
X1011Y205D01*
X1024Y205D02*
X1026Y205D01*
X1032Y205D02*
X1035Y205D01*
X1045Y205D02*
X1047Y205D01*
X1085Y205D02*
X1087Y205D01*
X1111Y205D02*
X1112Y205D01*
X1126Y205D02*
X1129Y205D01*
X1134Y205D02*
X1137Y205D01*
X1146Y205D02*
X1148Y205D01*
X1171Y205D02*
X1173Y205D01*
X1206Y205D02*
X1208Y205D01*
X1227Y205D02*
X1229Y205D01*
X1247Y205D02*
X1249Y205D01*
X1256Y205D02*
X1260Y205D01*
X1267Y205D02*
X1269Y205D01*
X1311Y205D02*
X1317Y205D01*
X1328Y205D02*
X1330Y205D01*
X1339Y205D02*
X1341Y205D01*
X1369Y205D02*
X1370Y205D01*
X1379Y205D02*
X1381Y205D01*
X3140Y205D02*
X3148Y205D01*
X0Y204D02*
X8Y204D01*
X984Y204D02*
X995Y204D01*
X1006Y204D02*
X1015Y204D01*
X1024Y204D02*
X1026Y204D01*
X1033Y204D02*
X1036Y204D01*
X1045Y204D02*
X1056Y204D01*
X1085Y204D02*
X1087Y204D01*
X1107Y204D02*
X1116Y204D01*
X1126Y204D02*
X1128Y204D01*
X1135Y204D02*
X1138Y204D01*
X1146Y204D02*
X1158Y204D01*
X1168Y204D02*
X1177Y204D01*
X1206Y204D02*
X1208Y204D01*
X1227Y204D02*
X1239Y204D01*
X1247Y204D02*
X1260Y204D01*
X1267Y204D02*
X1269Y204D01*
X1311Y204D02*
X1316Y204D01*
X1328Y204D02*
X1341Y204D01*
X1368Y204D02*
X1381Y204D01*
X3140Y204D02*
X3148Y204D01*
X0Y203D02*
X8Y203D01*
X984Y203D02*
X995Y203D01*
X1005Y203D02*
X1015Y203D01*
X1024Y203D02*
X1026Y203D01*
X1034Y203D02*
X1037Y203D01*
X1046Y203D02*
X1057Y203D01*
X1085Y203D02*
X1087Y203D01*
X1106Y203D02*
X1116Y203D01*
X1125Y203D02*
X1128Y203D01*
X1136Y203D02*
X1138Y203D01*
X1147Y203D02*
X1158Y203D01*
X1167Y203D02*
X1177Y203D01*
X1206Y203D02*
X1208Y203D01*
X1228Y203D02*
X1239Y203D01*
X1248Y203D02*
X1260Y203D01*
X1267Y203D02*
X1269Y203D01*
X1312Y203D02*
X1316Y203D01*
X1328Y203D02*
X1340Y203D01*
X1369Y203D02*
X1381Y203D01*
X3140Y203D02*
X3148Y203D01*
X0Y202D02*
X8Y202D01*
X984Y202D02*
X993Y202D01*
X1006Y202D02*
X1015Y202D01*
X1025Y202D02*
X1025Y202D01*
X1035Y202D02*
X1036Y202D01*
X1048Y202D02*
X1057Y202D01*
X1085Y202D02*
X1086Y202D01*
X1107Y202D02*
X1116Y202D01*
X1126Y202D02*
X1127Y202D01*
X1137Y202D02*
X1138Y202D01*
X1149Y202D02*
X1158Y202D01*
X1168Y202D02*
X1177Y202D01*
X1207Y202D02*
X1208Y202D01*
X1230Y202D02*
X1239Y202D01*
X1249Y202D02*
X1255Y202D01*
X1258Y202D02*
X1259Y202D01*
X1267Y202D02*
X1268Y202D01*
X1313Y202D02*
X1315Y202D01*
X1329Y202D02*
X1339Y202D01*
X1371Y202D02*
X1380Y202D01*
X3140Y202D02*
X3148Y202D01*
X0Y201D02*
X8Y201D01*
X3140Y201D02*
X3148Y201D01*
X0Y200D02*
X8Y200D01*
X3140Y200D02*
X3148Y200D01*
X0Y199D02*
X8Y199D01*
X3140Y199D02*
X3148Y199D01*
X0Y198D02*
X8Y198D01*
X3140Y198D02*
X3148Y198D01*
X0Y197D02*
X8Y197D01*
X3140Y197D02*
X3148Y197D01*
X0Y196D02*
X8Y196D01*
X3140Y196D02*
X3148Y196D01*
X0Y195D02*
X8Y195D01*
X3140Y195D02*
X3148Y195D01*
X0Y194D02*
X8Y194D01*
X3140Y194D02*
X3148Y194D01*
X0Y193D02*
X8Y193D01*
X3140Y193D02*
X3148Y193D01*
X0Y192D02*
X8Y192D01*
X3140Y192D02*
X3148Y192D01*
X0Y191D02*
X8Y191D01*
X3140Y191D02*
X3148Y191D01*
X0Y190D02*
X8Y190D01*
X3140Y190D02*
X3148Y190D01*
X0Y189D02*
X8Y189D01*
X3140Y189D02*
X3148Y189D01*
X0Y188D02*
X8Y188D01*
X3140Y188D02*
X3148Y188D01*
X0Y187D02*
X8Y187D01*
X3140Y187D02*
X3148Y187D01*
X0Y186D02*
X8Y186D01*
X3140Y186D02*
X3148Y186D01*
X0Y185D02*
X8Y185D01*
X3140Y185D02*
X3148Y185D01*
X0Y184D02*
X8Y184D01*
X3140Y184D02*
X3148Y184D01*
X0Y183D02*
X8Y183D01*
X3140Y183D02*
X3148Y183D01*
X0Y182D02*
X8Y182D01*
X3140Y182D02*
X3148Y182D01*
X0Y181D02*
X8Y181D01*
X3140Y181D02*
X3148Y181D01*
X0Y180D02*
X8Y180D01*
X3140Y180D02*
X3148Y180D01*
X0Y179D02*
X8Y179D01*
X3140Y179D02*
X3148Y179D01*
X0Y178D02*
X8Y178D01*
X3140Y178D02*
X3148Y178D01*
X0Y177D02*
X8Y177D01*
X3140Y177D02*
X3148Y177D01*
X0Y176D02*
X8Y176D01*
X3140Y176D02*
X3148Y176D01*
X0Y175D02*
X8Y175D01*
X3140Y175D02*
X3148Y175D01*
X0Y174D02*
X8Y174D01*
X3140Y174D02*
X3148Y174D01*
X0Y173D02*
X8Y173D01*
X3140Y173D02*
X3148Y173D01*
X0Y172D02*
X8Y172D01*
X3140Y172D02*
X3148Y172D01*
X0Y171D02*
X8Y171D01*
X3140Y171D02*
X3148Y171D01*
X0Y170D02*
X8Y170D01*
X3140Y170D02*
X3148Y170D01*
X0Y169D02*
X8Y169D01*
X3140Y169D02*
X3148Y169D01*
X0Y168D02*
X8Y168D01*
X3140Y168D02*
X3148Y168D01*
X0Y167D02*
X8Y167D01*
X3140Y167D02*
X3148Y167D01*
X0Y166D02*
X8Y166D01*
X3140Y166D02*
X3148Y166D01*
X0Y165D02*
X8Y165D01*
X3140Y165D02*
X3148Y165D01*
X0Y164D02*
X8Y164D01*
X3140Y164D02*
X3148Y164D01*
X0Y163D02*
X8Y163D01*
X3140Y163D02*
X3148Y163D01*
X0Y162D02*
X8Y162D01*
X3140Y162D02*
X3148Y162D01*
X0Y161D02*
X8Y161D01*
X3140Y161D02*
X3148Y161D01*
X0Y160D02*
X8Y160D01*
X3140Y160D02*
X3148Y160D01*
X0Y159D02*
X8Y159D01*
X3140Y159D02*
X3148Y159D01*
X0Y158D02*
X8Y158D01*
X3140Y158D02*
X3148Y158D01*
X0Y157D02*
X8Y157D01*
X3140Y157D02*
X3148Y157D01*
X0Y156D02*
X8Y156D01*
X3140Y156D02*
X3148Y156D01*
X0Y155D02*
X8Y155D01*
X3140Y155D02*
X3148Y155D01*
X0Y154D02*
X8Y154D01*
X3140Y154D02*
X3148Y154D01*
X0Y153D02*
X8Y153D01*
X3140Y153D02*
X3148Y153D01*
X0Y152D02*
X8Y152D01*
X3140Y152D02*
X3148Y152D01*
X0Y151D02*
X8Y151D01*
X3140Y151D02*
X3148Y151D01*
X0Y150D02*
X8Y150D01*
X3140Y150D02*
X3148Y150D01*
X0Y149D02*
X8Y149D01*
X3140Y149D02*
X3148Y149D01*
X0Y148D02*
X8Y148D01*
X3140Y148D02*
X3148Y148D01*
X0Y147D02*
X8Y147D01*
X3140Y147D02*
X3148Y147D01*
X0Y146D02*
X8Y146D01*
X3140Y146D02*
X3148Y146D01*
X0Y145D02*
X8Y145D01*
X3140Y145D02*
X3148Y145D01*
X0Y144D02*
X8Y144D01*
X3140Y144D02*
X3148Y144D01*
X0Y143D02*
X8Y143D01*
X3140Y143D02*
X3148Y143D01*
X0Y142D02*
X8Y142D01*
X3140Y142D02*
X3148Y142D01*
X0Y141D02*
X8Y141D01*
X3140Y141D02*
X3148Y141D01*
X0Y140D02*
X8Y140D01*
X3140Y140D02*
X3148Y140D01*
X0Y139D02*
X8Y139D01*
X3140Y139D02*
X3148Y139D01*
X0Y138D02*
X8Y138D01*
X3140Y138D02*
X3148Y138D01*
X0Y137D02*
X8Y137D01*
X3140Y137D02*
X3148Y137D01*
X0Y136D02*
X8Y136D01*
X3140Y136D02*
X3148Y136D01*
X0Y135D02*
X8Y135D01*
X3140Y135D02*
X3148Y135D01*
X0Y134D02*
X8Y134D01*
X3140Y134D02*
X3148Y134D01*
X0Y133D02*
X8Y133D01*
X3140Y133D02*
X3148Y133D01*
X0Y132D02*
X8Y132D01*
X3140Y132D02*
X3148Y132D01*
X0Y131D02*
X8Y131D01*
X3140Y131D02*
X3148Y131D01*
X0Y130D02*
X8Y130D01*
X3140Y130D02*
X3148Y130D01*
X0Y129D02*
X8Y129D01*
X3140Y129D02*
X3148Y129D01*
X0Y128D02*
X8Y128D01*
X3140Y128D02*
X3148Y128D01*
X0Y127D02*
X8Y127D01*
X3140Y127D02*
X3148Y127D01*
X0Y126D02*
X8Y126D01*
X3140Y126D02*
X3148Y126D01*
X0Y125D02*
X8Y125D01*
X3140Y125D02*
X3148Y125D01*
X0Y124D02*
X8Y124D01*
X3140Y124D02*
X3148Y124D01*
X0Y123D02*
X8Y123D01*
X3140Y123D02*
X3148Y123D01*
X0Y122D02*
X8Y122D01*
X3140Y122D02*
X3148Y122D01*
X0Y121D02*
X8Y121D01*
X1410Y121D02*
X1425Y121D01*
X1725Y121D02*
X1740Y121D01*
X3140Y121D02*
X3148Y121D01*
X0Y120D02*
X8Y120D01*
X1410Y120D02*
X1425Y120D01*
X1725Y120D02*
X1740Y120D01*
X3140Y120D02*
X3148Y120D01*
X0Y119D02*
X8Y119D01*
X1410Y119D02*
X1425Y119D01*
X1725Y119D02*
X1740Y119D01*
X3140Y119D02*
X3148Y119D01*
X0Y118D02*
X8Y118D01*
X1410Y118D02*
X1425Y118D01*
X1725Y118D02*
X1740Y118D01*
X3140Y118D02*
X3148Y118D01*
X0Y117D02*
X8Y117D01*
X1410Y117D02*
X1425Y117D01*
X1725Y117D02*
X1740Y117D01*
X3140Y117D02*
X3148Y117D01*
X0Y116D02*
X8Y116D01*
X1410Y116D02*
X1425Y116D01*
X1725Y116D02*
X1740Y116D01*
X3140Y116D02*
X3148Y116D01*
X0Y115D02*
X8Y115D01*
X1410Y115D02*
X1425Y115D01*
X1725Y115D02*
X1740Y115D01*
X3140Y115D02*
X3148Y115D01*
X0Y114D02*
X8Y114D01*
X1410Y114D02*
X1425Y114D01*
X1725Y114D02*
X1740Y114D01*
X3140Y114D02*
X3148Y114D01*
X0Y113D02*
X8Y113D01*
X1410Y113D02*
X1425Y113D01*
X1725Y113D02*
X1740Y113D01*
X3140Y113D02*
X3148Y113D01*
X0Y112D02*
X8Y112D01*
X1410Y112D02*
X1425Y112D01*
X1725Y112D02*
X1740Y112D01*
X3140Y112D02*
X3148Y112D01*
X0Y111D02*
X8Y111D01*
X1410Y111D02*
X1425Y111D01*
X1725Y111D02*
X1740Y111D01*
X3140Y111D02*
X3148Y111D01*
X0Y110D02*
X8Y110D01*
X1410Y110D02*
X1425Y110D01*
X1725Y110D02*
X1740Y110D01*
X3140Y110D02*
X3148Y110D01*
X0Y109D02*
X8Y109D01*
X1410Y109D02*
X1425Y109D01*
X1725Y109D02*
X1740Y109D01*
X3140Y109D02*
X3148Y109D01*
X0Y108D02*
X8Y108D01*
X1410Y108D02*
X1425Y108D01*
X1725Y108D02*
X1740Y108D01*
X3140Y108D02*
X3148Y108D01*
X0Y107D02*
X8Y107D01*
X1410Y107D02*
X1425Y107D01*
X1725Y107D02*
X1740Y107D01*
X3140Y107D02*
X3148Y107D01*
X0Y106D02*
X8Y106D01*
X1410Y106D02*
X1425Y106D01*
X1725Y106D02*
X1740Y106D01*
X3140Y106D02*
X3148Y106D01*
X0Y105D02*
X8Y105D01*
X1410Y105D02*
X1425Y105D01*
X1725Y105D02*
X1740Y105D01*
X3140Y105D02*
X3148Y105D01*
X0Y104D02*
X8Y104D01*
X1410Y104D02*
X1425Y104D01*
X1725Y104D02*
X1740Y104D01*
X3140Y104D02*
X3148Y104D01*
X0Y103D02*
X8Y103D01*
X1410Y103D02*
X1425Y103D01*
X1725Y103D02*
X1740Y103D01*
X3140Y103D02*
X3148Y103D01*
X0Y102D02*
X8Y102D01*
X1410Y102D02*
X1425Y102D01*
X1725Y102D02*
X1740Y102D01*
X3140Y102D02*
X3148Y102D01*
X0Y101D02*
X8Y101D01*
X1410Y101D02*
X1425Y101D01*
X1725Y101D02*
X1740Y101D01*
X3140Y101D02*
X3148Y101D01*
X0Y100D02*
X8Y100D01*
X1410Y100D02*
X1425Y100D01*
X1725Y100D02*
X1740Y100D01*
X3140Y100D02*
X3148Y100D01*
X0Y99D02*
X8Y99D01*
X1410Y99D02*
X1425Y99D01*
X1725Y99D02*
X1740Y99D01*
X3140Y99D02*
X3148Y99D01*
X0Y98D02*
X8Y98D01*
X1410Y98D02*
X1425Y98D01*
X1725Y98D02*
X1740Y98D01*
X3140Y98D02*
X3148Y98D01*
X0Y97D02*
X8Y97D01*
X1410Y97D02*
X1425Y97D01*
X1725Y97D02*
X1740Y97D01*
X3140Y97D02*
X3148Y97D01*
X0Y96D02*
X8Y96D01*
X1410Y96D02*
X1425Y96D01*
X1725Y96D02*
X1740Y96D01*
X3140Y96D02*
X3148Y96D01*
X0Y95D02*
X8Y95D01*
X1410Y95D02*
X1425Y95D01*
X1725Y95D02*
X1740Y95D01*
X3140Y95D02*
X3148Y95D01*
X0Y94D02*
X8Y94D01*
X1410Y94D02*
X1425Y94D01*
X1725Y94D02*
X1740Y94D01*
X3140Y94D02*
X3148Y94D01*
X0Y93D02*
X8Y93D01*
X1410Y93D02*
X1425Y93D01*
X1725Y93D02*
X1740Y93D01*
X3140Y93D02*
X3148Y93D01*
X0Y92D02*
X8Y92D01*
X1410Y92D02*
X1425Y92D01*
X1725Y92D02*
X1740Y92D01*
X3140Y92D02*
X3148Y92D01*
X0Y91D02*
X8Y91D01*
X1410Y91D02*
X1425Y91D01*
X1725Y91D02*
X1740Y91D01*
X3140Y91D02*
X3148Y91D01*
X0Y90D02*
X8Y90D01*
X1410Y90D02*
X1425Y90D01*
X1725Y90D02*
X1740Y90D01*
X3140Y90D02*
X3148Y90D01*
X0Y89D02*
X8Y89D01*
X1410Y89D02*
X1425Y89D01*
X1725Y89D02*
X1740Y89D01*
X3140Y89D02*
X3148Y89D01*
X0Y88D02*
X8Y88D01*
X1410Y88D02*
X1425Y88D01*
X1725Y88D02*
X1740Y88D01*
X3140Y88D02*
X3148Y88D01*
X0Y87D02*
X8Y87D01*
X1410Y87D02*
X1425Y87D01*
X1725Y87D02*
X1740Y87D01*
X3140Y87D02*
X3148Y87D01*
X0Y86D02*
X8Y86D01*
X1410Y86D02*
X1425Y86D01*
X1725Y86D02*
X1740Y86D01*
X3140Y86D02*
X3148Y86D01*
X0Y85D02*
X8Y85D01*
X1410Y85D02*
X1425Y85D01*
X1725Y85D02*
X1740Y85D01*
X3140Y85D02*
X3148Y85D01*
X0Y84D02*
X8Y84D01*
X1410Y84D02*
X1425Y84D01*
X1725Y84D02*
X1740Y84D01*
X3140Y84D02*
X3148Y84D01*
X0Y83D02*
X8Y83D01*
X1410Y83D02*
X1425Y83D01*
X1725Y83D02*
X1740Y83D01*
X3140Y83D02*
X3148Y83D01*
X0Y82D02*
X8Y82D01*
X1410Y82D02*
X1425Y82D01*
X1725Y82D02*
X1740Y82D01*
X3140Y82D02*
X3148Y82D01*
X0Y81D02*
X8Y81D01*
X1410Y81D02*
X1425Y81D01*
X1725Y81D02*
X1740Y81D01*
X3140Y81D02*
X3148Y81D01*
X0Y80D02*
X8Y80D01*
X1410Y80D02*
X1425Y80D01*
X1725Y80D02*
X1740Y80D01*
X3140Y80D02*
X3148Y80D01*
X0Y79D02*
X8Y79D01*
X1410Y79D02*
X1425Y79D01*
X1725Y79D02*
X1740Y79D01*
X3140Y79D02*
X3148Y79D01*
X0Y78D02*
X8Y78D01*
X1410Y78D02*
X1425Y78D01*
X1725Y78D02*
X1740Y78D01*
X3140Y78D02*
X3148Y78D01*
X0Y77D02*
X8Y77D01*
X1410Y77D02*
X1425Y77D01*
X1725Y77D02*
X1740Y77D01*
X3140Y77D02*
X3148Y77D01*
X0Y76D02*
X8Y76D01*
X1410Y76D02*
X1425Y76D01*
X1725Y76D02*
X1740Y76D01*
X3140Y76D02*
X3148Y76D01*
X0Y75D02*
X8Y75D01*
X1410Y75D02*
X1425Y75D01*
X1725Y75D02*
X1740Y75D01*
X3140Y75D02*
X3148Y75D01*
X0Y74D02*
X8Y74D01*
X1410Y74D02*
X1425Y74D01*
X1725Y74D02*
X1740Y74D01*
X3140Y74D02*
X3148Y74D01*
X0Y73D02*
X8Y73D01*
X1410Y73D02*
X1425Y73D01*
X1725Y73D02*
X1740Y73D01*
X3140Y73D02*
X3148Y73D01*
X0Y72D02*
X8Y72D01*
X1410Y72D02*
X1425Y72D01*
X1725Y72D02*
X1740Y72D01*
X3140Y72D02*
X3148Y72D01*
X0Y71D02*
X8Y71D01*
X1410Y71D02*
X1425Y71D01*
X1725Y71D02*
X1740Y71D01*
X3140Y71D02*
X3148Y71D01*
X0Y70D02*
X8Y70D01*
X1410Y70D02*
X1425Y70D01*
X1725Y70D02*
X1740Y70D01*
X3140Y70D02*
X3148Y70D01*
X0Y69D02*
X8Y69D01*
X1410Y69D02*
X1425Y69D01*
X1725Y69D02*
X1740Y69D01*
X3140Y69D02*
X3148Y69D01*
X0Y68D02*
X8Y68D01*
X1410Y68D02*
X1425Y68D01*
X1725Y68D02*
X1740Y68D01*
X3140Y68D02*
X3148Y68D01*
X0Y67D02*
X8Y67D01*
X1298Y67D02*
X1299Y67D01*
X1351Y67D02*
X1358Y67D01*
X1381Y67D02*
X1388Y67D01*
X1410Y67D02*
X1425Y67D01*
X1725Y67D02*
X1740Y67D01*
X3140Y67D02*
X3148Y67D01*
X0Y66D02*
X8Y66D01*
X1297Y66D02*
X1300Y66D01*
X1349Y66D02*
X1359Y66D01*
X1379Y66D02*
X1389Y66D01*
X1410Y66D02*
X1425Y66D01*
X1725Y66D02*
X1740Y66D01*
X3140Y66D02*
X3148Y66D01*
X0Y65D02*
X8Y65D01*
X1296Y65D02*
X1300Y65D01*
X1347Y65D02*
X1359Y65D01*
X1377Y65D02*
X1389Y65D01*
X1410Y65D02*
X1425Y65D01*
X1725Y65D02*
X1740Y65D01*
X3140Y65D02*
X3148Y65D01*
X0Y64D02*
X8Y64D01*
X1295Y64D02*
X1299Y64D01*
X1347Y64D02*
X1358Y64D01*
X1377Y64D02*
X1389Y64D01*
X1410Y64D02*
X1425Y64D01*
X1725Y64D02*
X1740Y64D01*
X3140Y64D02*
X3148Y64D01*
X0Y63D02*
X8Y63D01*
X1295Y63D02*
X1299Y63D01*
X1346Y63D02*
X1351Y63D01*
X1376Y63D02*
X1381Y63D01*
X1410Y63D02*
X1425Y63D01*
X1725Y63D02*
X1740Y63D01*
X3140Y63D02*
X3148Y63D01*
X0Y62D02*
X8Y62D01*
X1294Y62D02*
X1298Y62D01*
X1346Y62D02*
X1349Y62D01*
X1376Y62D02*
X1380Y62D01*
X1410Y62D02*
X1425Y62D01*
X1725Y62D02*
X1740Y62D01*
X3140Y62D02*
X3148Y62D01*
X0Y61D02*
X8Y61D01*
X1294Y61D02*
X1298Y61D01*
X1345Y61D02*
X1349Y61D01*
X1376Y61D02*
X1379Y61D01*
X1410Y61D02*
X1425Y61D01*
X1725Y61D02*
X1740Y61D01*
X3140Y61D02*
X3148Y61D01*
X0Y60D02*
X8Y60D01*
X1293Y60D02*
X1297Y60D01*
X1345Y60D02*
X1349Y60D01*
X1375Y60D02*
X1379Y60D01*
X1410Y60D02*
X1425Y60D01*
X1725Y60D02*
X1740Y60D01*
X3140Y60D02*
X3148Y60D01*
X0Y59D02*
X8Y59D01*
X1293Y59D02*
X1296Y59D01*
X1345Y59D02*
X1349Y59D01*
X1375Y59D02*
X1379Y59D01*
X1410Y59D02*
X1425Y59D01*
X1725Y59D02*
X1740Y59D01*
X3140Y59D02*
X3148Y59D01*
X0Y58D02*
X8Y58D01*
X1225Y58D02*
X1234Y58D01*
X1251Y58D02*
X1252Y58D01*
X1259Y58D02*
X1265Y58D01*
X1292Y58D02*
X1296Y58D01*
X1315Y58D02*
X1324Y58D01*
X1342Y58D02*
X1354Y58D01*
X1372Y58D02*
X1384Y58D01*
X1410Y58D02*
X1425Y58D01*
X1725Y58D02*
X1740Y58D01*
X3140Y58D02*
X3148Y58D01*
X0Y57D02*
X8Y57D01*
X1223Y57D02*
X1236Y57D01*
X1250Y57D02*
X1253Y57D01*
X1257Y57D02*
X1267Y57D01*
X1291Y57D02*
X1295Y57D01*
X1314Y57D02*
X1326Y57D01*
X1341Y57D02*
X1355Y57D01*
X1371Y57D02*
X1385Y57D01*
X1410Y57D02*
X1425Y57D01*
X1725Y57D02*
X1740Y57D01*
X3140Y57D02*
X3148Y57D01*
X0Y56D02*
X8Y56D01*
X1222Y56D02*
X1237Y56D01*
X1250Y56D02*
X1253Y56D01*
X1256Y56D02*
X1268Y56D01*
X1291Y56D02*
X1295Y56D01*
X1313Y56D02*
X1327Y56D01*
X1341Y56D02*
X1355Y56D01*
X1371Y56D02*
X1385Y56D01*
X1410Y56D02*
X1425Y56D01*
X1725Y56D02*
X1740Y56D01*
X3140Y56D02*
X3148Y56D01*
X0Y55D02*
X8Y55D01*
X1221Y55D02*
X1238Y55D01*
X1250Y55D02*
X1268Y55D01*
X1290Y55D02*
X1294Y55D01*
X1312Y55D02*
X1328Y55D01*
X1342Y55D02*
X1354Y55D01*
X1372Y55D02*
X1384Y55D01*
X1410Y55D02*
X1425Y55D01*
X1725Y55D02*
X1740Y55D01*
X3140Y55D02*
X3148Y55D01*
X0Y54D02*
X8Y54D01*
X1221Y54D02*
X1225Y54D01*
X1234Y54D02*
X1239Y54D01*
X1250Y54D02*
X1259Y54D01*
X1265Y54D02*
X1269Y54D01*
X1290Y54D02*
X1293Y54D01*
X1311Y54D02*
X1316Y54D01*
X1324Y54D02*
X1329Y54D01*
X1345Y54D02*
X1349Y54D01*
X1375Y54D02*
X1379Y54D01*
X1410Y54D02*
X1425Y54D01*
X1725Y54D02*
X1740Y54D01*
X3140Y54D02*
X3148Y54D01*
X0Y53D02*
X8Y53D01*
X1220Y53D02*
X1224Y53D01*
X1235Y53D02*
X1239Y53D01*
X1250Y53D02*
X1258Y53D01*
X1266Y53D02*
X1269Y53D01*
X1289Y53D02*
X1293Y53D01*
X1310Y53D02*
X1315Y53D01*
X1326Y53D02*
X1329Y53D01*
X1345Y53D02*
X1349Y53D01*
X1375Y53D02*
X1379Y53D01*
X1410Y53D02*
X1425Y53D01*
X1725Y53D02*
X1740Y53D01*
X3140Y53D02*
X3148Y53D01*
X0Y52D02*
X8Y52D01*
X1220Y52D02*
X1223Y52D01*
X1236Y52D02*
X1239Y52D01*
X1250Y52D02*
X1256Y52D01*
X1266Y52D02*
X1269Y52D01*
X1288Y52D02*
X1292Y52D01*
X1310Y52D02*
X1314Y52D01*
X1326Y52D02*
X1330Y52D01*
X1345Y52D02*
X1349Y52D01*
X1375Y52D02*
X1379Y52D01*
X1410Y52D02*
X1425Y52D01*
X1725Y52D02*
X1740Y52D01*
X3140Y52D02*
X3148Y52D01*
X0Y51D02*
X8Y51D01*
X1220Y51D02*
X1223Y51D01*
X1236Y51D02*
X1239Y51D01*
X1250Y51D02*
X1255Y51D01*
X1266Y51D02*
X1269Y51D01*
X1288Y51D02*
X1292Y51D01*
X1310Y51D02*
X1313Y51D01*
X1327Y51D02*
X1330Y51D01*
X1345Y51D02*
X1349Y51D01*
X1375Y51D02*
X1379Y51D01*
X1410Y51D02*
X1425Y51D01*
X1725Y51D02*
X1740Y51D01*
X3140Y51D02*
X3148Y51D01*
X0Y50D02*
X8Y50D01*
X1220Y50D02*
X1223Y50D01*
X1236Y50D02*
X1240Y50D01*
X1250Y50D02*
X1253Y50D01*
X1266Y50D02*
X1269Y50D01*
X1287Y50D02*
X1291Y50D01*
X1310Y50D02*
X1313Y50D01*
X1327Y50D02*
X1330Y50D01*
X1345Y50D02*
X1349Y50D01*
X1375Y50D02*
X1379Y50D01*
X1410Y50D02*
X1425Y50D01*
X1725Y50D02*
X1740Y50D01*
X3140Y50D02*
X3148Y50D01*
X0Y49D02*
X8Y49D01*
X1220Y49D02*
X1223Y49D01*
X1236Y49D02*
X1240Y49D01*
X1250Y49D02*
X1253Y49D01*
X1266Y49D02*
X1269Y49D01*
X1287Y49D02*
X1291Y49D01*
X1310Y49D02*
X1313Y49D01*
X1327Y49D02*
X1330Y49D01*
X1345Y49D02*
X1349Y49D01*
X1375Y49D02*
X1379Y49D01*
X1410Y49D02*
X1425Y49D01*
X1725Y49D02*
X1740Y49D01*
X3140Y49D02*
X3148Y49D01*
X0Y48D02*
X8Y48D01*
X1220Y48D02*
X1223Y48D01*
X1236Y48D02*
X1240Y48D01*
X1250Y48D02*
X1253Y48D01*
X1266Y48D02*
X1269Y48D01*
X1286Y48D02*
X1290Y48D01*
X1310Y48D02*
X1313Y48D01*
X1327Y48D02*
X1330Y48D01*
X1345Y48D02*
X1349Y48D01*
X1375Y48D02*
X1379Y48D01*
X1410Y48D02*
X1425Y48D01*
X1725Y48D02*
X1740Y48D01*
X3140Y48D02*
X3148Y48D01*
X0Y47D02*
X8Y47D01*
X1220Y47D02*
X1223Y47D01*
X1236Y47D02*
X1240Y47D01*
X1250Y47D02*
X1253Y47D01*
X1266Y47D02*
X1269Y47D01*
X1285Y47D02*
X1289Y47D01*
X1310Y47D02*
X1313Y47D01*
X1327Y47D02*
X1330Y47D01*
X1345Y47D02*
X1349Y47D01*
X1375Y47D02*
X1379Y47D01*
X1410Y47D02*
X1425Y47D01*
X1725Y47D02*
X1740Y47D01*
X3140Y47D02*
X3148Y47D01*
X0Y46D02*
X8Y46D01*
X1220Y46D02*
X1223Y46D01*
X1236Y46D02*
X1240Y46D01*
X1250Y46D02*
X1253Y46D01*
X1266Y46D02*
X1269Y46D01*
X1285Y46D02*
X1289Y46D01*
X1310Y46D02*
X1313Y46D01*
X1327Y46D02*
X1330Y46D01*
X1345Y46D02*
X1349Y46D01*
X1375Y46D02*
X1379Y46D01*
X1410Y46D02*
X1425Y46D01*
X1725Y46D02*
X1740Y46D01*
X3140Y46D02*
X3148Y46D01*
X0Y45D02*
X8Y45D01*
X1220Y45D02*
X1223Y45D01*
X1236Y45D02*
X1240Y45D01*
X1250Y45D02*
X1253Y45D01*
X1266Y45D02*
X1269Y45D01*
X1284Y45D02*
X1288Y45D01*
X1310Y45D02*
X1313Y45D01*
X1327Y45D02*
X1330Y45D01*
X1345Y45D02*
X1349Y45D01*
X1375Y45D02*
X1379Y45D01*
X1410Y45D02*
X1425Y45D01*
X1725Y45D02*
X1740Y45D01*
X3140Y45D02*
X3148Y45D01*
X0Y44D02*
X8Y44D01*
X1220Y44D02*
X1223Y44D01*
X1236Y44D02*
X1240Y44D01*
X1250Y44D02*
X1253Y44D01*
X1266Y44D02*
X1269Y44D01*
X1284Y44D02*
X1288Y44D01*
X1310Y44D02*
X1313Y44D01*
X1327Y44D02*
X1330Y44D01*
X1345Y44D02*
X1349Y44D01*
X1375Y44D02*
X1379Y44D01*
X1410Y44D02*
X1425Y44D01*
X1725Y44D02*
X1740Y44D01*
X3140Y44D02*
X3148Y44D01*
X0Y43D02*
X8Y43D01*
X1220Y43D02*
X1223Y43D01*
X1236Y43D02*
X1240Y43D01*
X1250Y43D02*
X1253Y43D01*
X1266Y43D02*
X1269Y43D01*
X1283Y43D02*
X1287Y43D01*
X1310Y43D02*
X1313Y43D01*
X1327Y43D02*
X1330Y43D01*
X1345Y43D02*
X1349Y43D01*
X1375Y43D02*
X1379Y43D01*
X1410Y43D02*
X1425Y43D01*
X1725Y43D02*
X1740Y43D01*
X3140Y43D02*
X3148Y43D01*
X0Y42D02*
X8Y42D01*
X1220Y42D02*
X1223Y42D01*
X1236Y42D02*
X1239Y42D01*
X1250Y42D02*
X1253Y42D01*
X1266Y42D02*
X1269Y42D01*
X1283Y42D02*
X1286Y42D01*
X1310Y42D02*
X1313Y42D01*
X1327Y42D02*
X1330Y42D01*
X1345Y42D02*
X1349Y42D01*
X1375Y42D02*
X1379Y42D01*
X1410Y42D02*
X1425Y42D01*
X1725Y42D02*
X1740Y42D01*
X3140Y42D02*
X3148Y42D01*
X0Y41D02*
X8Y41D01*
X1220Y41D02*
X1224Y41D01*
X1236Y41D02*
X1239Y41D01*
X1250Y41D02*
X1253Y41D01*
X1266Y41D02*
X1269Y41D01*
X1282Y41D02*
X1286Y41D01*
X1310Y41D02*
X1314Y41D01*
X1326Y41D02*
X1330Y41D01*
X1345Y41D02*
X1349Y41D01*
X1375Y41D02*
X1379Y41D01*
X1410Y41D02*
X1425Y41D01*
X1725Y41D02*
X1740Y41D01*
X3140Y41D02*
X3148Y41D01*
X0Y40D02*
X8Y40D01*
X1220Y40D02*
X1225Y40D01*
X1235Y40D02*
X1239Y40D01*
X1250Y40D02*
X1253Y40D01*
X1266Y40D02*
X1269Y40D01*
X1281Y40D02*
X1285Y40D01*
X1311Y40D02*
X1315Y40D01*
X1325Y40D02*
X1329Y40D01*
X1345Y40D02*
X1349Y40D01*
X1375Y40D02*
X1379Y40D01*
X1410Y40D02*
X1425Y40D01*
X1725Y40D02*
X1740Y40D01*
X3140Y40D02*
X3148Y40D01*
X0Y39D02*
X8Y39D01*
X1221Y39D02*
X1238Y39D01*
X1250Y39D02*
X1253Y39D01*
X1266Y39D02*
X1270Y39D01*
X1281Y39D02*
X1285Y39D01*
X1311Y39D02*
X1329Y39D01*
X1345Y39D02*
X1349Y39D01*
X1375Y39D02*
X1379Y39D01*
X1410Y39D02*
X1425Y39D01*
X1725Y39D02*
X1740Y39D01*
X3140Y39D02*
X3148Y39D01*
X0Y38D02*
X8Y38D01*
X1222Y38D02*
X1238Y38D01*
X1250Y38D02*
X1253Y38D01*
X1266Y38D02*
X1270Y38D01*
X1280Y38D02*
X1284Y38D01*
X1312Y38D02*
X1328Y38D01*
X1345Y38D02*
X1349Y38D01*
X1375Y38D02*
X1379Y38D01*
X1410Y38D02*
X1425Y38D01*
X1725Y38D02*
X1740Y38D01*
X3140Y38D02*
X3148Y38D01*
X0Y37D02*
X8Y37D01*
X1223Y37D02*
X1237Y37D01*
X1250Y37D02*
X1253Y37D01*
X1266Y37D02*
X1270Y37D01*
X1280Y37D02*
X1284Y37D01*
X1313Y37D02*
X1327Y37D01*
X1345Y37D02*
X1349Y37D01*
X1375Y37D02*
X1379Y37D01*
X1410Y37D02*
X1425Y37D01*
X1725Y37D02*
X1740Y37D01*
X3140Y37D02*
X3148Y37D01*
X0Y36D02*
X8Y36D01*
X1224Y36D02*
X1235Y36D01*
X1250Y36D02*
X1253Y36D01*
X1267Y36D02*
X1269Y36D01*
X1280Y36D02*
X1283Y36D01*
X1314Y36D02*
X1326Y36D01*
X1346Y36D02*
X1348Y36D01*
X1376Y36D02*
X1378Y36D01*
X1410Y36D02*
X1425Y36D01*
X1725Y36D02*
X1740Y36D01*
X3140Y36D02*
X3148Y36D01*
X0Y35D02*
X8Y35D01*
X1226Y35D02*
X1233Y35D01*
X1251Y35D02*
X1252Y35D01*
X1268Y35D02*
X1268Y35D01*
X1281Y35D02*
X1282Y35D01*
X1317Y35D02*
X1323Y35D01*
X1347Y35D02*
X1347Y35D01*
X1377Y35D02*
X1377Y35D01*
X1410Y35D02*
X1425Y35D01*
X1725Y35D02*
X1740Y35D01*
X3140Y35D02*
X3148Y35D01*
X0Y34D02*
X8Y34D01*
X1410Y34D02*
X1425Y34D01*
X1725Y34D02*
X1740Y34D01*
X3140Y34D02*
X3148Y34D01*
X0Y33D02*
X8Y33D01*
X1410Y33D02*
X1425Y33D01*
X1725Y33D02*
X1740Y33D01*
X3140Y33D02*
X3148Y33D01*
X0Y32D02*
X8Y32D01*
X1410Y32D02*
X1425Y32D01*
X1725Y32D02*
X1740Y32D01*
X3140Y32D02*
X3148Y32D01*
X0Y31D02*
X8Y31D01*
X1410Y31D02*
X1425Y31D01*
X1725Y31D02*
X1740Y31D01*
X3140Y31D02*
X3148Y31D01*
X0Y30D02*
X8Y30D01*
X1410Y30D02*
X1425Y30D01*
X1725Y30D02*
X1740Y30D01*
X3140Y30D02*
X3148Y30D01*
X0Y29D02*
X8Y29D01*
X1410Y29D02*
X1425Y29D01*
X1725Y29D02*
X1740Y29D01*
X3140Y29D02*
X3148Y29D01*
X0Y28D02*
X8Y28D01*
X1410Y28D02*
X1425Y28D01*
X1725Y28D02*
X1740Y28D01*
X3140Y28D02*
X3148Y28D01*
X0Y27D02*
X8Y27D01*
X1410Y27D02*
X1425Y27D01*
X1725Y27D02*
X1740Y27D01*
X3140Y27D02*
X3148Y27D01*
X0Y26D02*
X8Y26D01*
X1410Y26D02*
X1425Y26D01*
X1725Y26D02*
X1740Y26D01*
X3140Y26D02*
X3148Y26D01*
X0Y25D02*
X8Y25D01*
X1410Y25D02*
X1425Y25D01*
X1725Y25D02*
X1740Y25D01*
X3140Y25D02*
X3148Y25D01*
X0Y24D02*
X8Y24D01*
X1410Y24D02*
X1425Y24D01*
X1725Y24D02*
X1740Y24D01*
X3140Y24D02*
X3148Y24D01*
X0Y23D02*
X8Y23D01*
X1410Y23D02*
X1425Y23D01*
X1725Y23D02*
X1740Y23D01*
X3140Y23D02*
X3148Y23D01*
X0Y22D02*
X8Y22D01*
X1410Y22D02*
X1425Y22D01*
X1725Y22D02*
X1740Y22D01*
X3140Y22D02*
X3148Y22D01*
X0Y21D02*
X8Y21D01*
X1410Y21D02*
X1425Y21D01*
X1725Y21D02*
X1740Y21D01*
X3140Y21D02*
X3148Y21D01*
X0Y20D02*
X8Y20D01*
X1410Y20D02*
X1425Y20D01*
X1725Y20D02*
X1740Y20D01*
X3140Y20D02*
X3148Y20D01*
X0Y19D02*
X8Y19D01*
X1410Y19D02*
X1425Y19D01*
X1725Y19D02*
X1740Y19D01*
X3140Y19D02*
X3148Y19D01*
X0Y18D02*
X8Y18D01*
X1410Y18D02*
X1425Y18D01*
X1725Y18D02*
X1740Y18D01*
X3140Y18D02*
X3148Y18D01*
X0Y17D02*
X8Y17D01*
X1410Y17D02*
X1425Y17D01*
X1725Y17D02*
X1740Y17D01*
X3140Y17D02*
X3148Y17D01*
X0Y16D02*
X8Y16D01*
X1410Y16D02*
X1425Y16D01*
X1725Y16D02*
X1740Y16D01*
X3140Y16D02*
X3148Y16D01*
X0Y15D02*
X8Y15D01*
X1410Y15D02*
X1425Y15D01*
X1725Y15D02*
X1740Y15D01*
X3140Y15D02*
X3148Y15D01*
X0Y14D02*
X8Y14D01*
X1410Y14D02*
X1425Y14D01*
X1725Y14D02*
X1740Y14D01*
X3140Y14D02*
X3148Y14D01*
X0Y13D02*
X8Y13D01*
X1410Y13D02*
X1425Y13D01*
X1725Y13D02*
X1740Y13D01*
X3140Y13D02*
X3148Y13D01*
X0Y12D02*
X8Y12D01*
X1410Y12D02*
X1425Y12D01*
X1725Y12D02*
X1740Y12D01*
X3140Y12D02*
X3148Y12D01*
X0Y11D02*
X8Y11D01*
X1410Y11D02*
X1425Y11D01*
X1725Y11D02*
X1740Y11D01*
X3140Y11D02*
X3148Y11D01*
X0Y10D02*
X8Y10D01*
X1410Y10D02*
X1425Y10D01*
X1725Y10D02*
X1740Y10D01*
X3140Y10D02*
X3148Y10D01*
X0Y9D02*
X3148Y9D01*
X0Y8D02*
X3148Y8D01*
X0Y7D02*
X3148Y7D01*
X0Y6D02*
X3148Y6D01*
X0Y5D02*
X3148Y5D01*
X0Y4D02*
X3148Y4D01*
X0Y3D02*
X3148Y3D01*
X0Y2D02*
X3148Y2D01*
X0Y1D02*
X3148Y1D01*
X208Y0D02*
X218Y0D01*
X344Y0D02*
X355Y0D01*
X1410Y0D02*
X1740Y0D01*
X2307Y0D02*
X2318Y0D01*
X2444Y0D02*
X2455Y0D01*
X2757Y0D02*
X2768Y0D01*
X2894Y0D02*
X2905Y0D01*
X208Y-1D02*
X219Y-1D01*
X344Y-1D02*
X355Y-1D01*
X1410Y-1D02*
X1740Y-1D01*
X2307Y-1D02*
X2318Y-1D01*
X2444Y-1D02*
X2455Y-1D01*
X2757Y-1D02*
X2768Y-1D01*
X2894Y-1D02*
X2905Y-1D01*
D02*
G04 End of Silk1*
M02*