<?xml version='1.0' encoding='UTF-8' standalone='no'?>
<!-- Created with Fritzing (http://www.fritzing.org/) -->
<svg xmlns="http://www.w3.org/2000/svg" xmlns:svg="http://www.w3.org/2000/svg" viewBox="0 0 170.079 70.8661" baseProfile="tiny" height="0.984252in" version="1.2" x="0in" width="2.3622in" y="0in" >
 <g transform="matrix(-1, 0, 0, 1, 170.079, 0)">
  <g partID="854390060">
   <g transform="matrix(1, 0, 0, 1, 0, -771.024)">
    <g id="board">
     <g style="display:inline">
      <path stroke="black" stroke-width="0.5" id="boardoutline" d="m0,771.023,0,70.8672,45.3547,0,0,-14.1734,42.5188,0,0,14.1734,82.2047,0,0,-70.8672,-170.078,0z" style="stroke-miterlimit:4;stroke-dasharray:none;" fill-opacity="1" stroke-opacity="1" fill="none"/>
     </g>
    </g>
   </g>
  </g>
  <g partID="854368771">
   <g transform="translate(0.689532,3.5561)">
    <g id="copper1" >
     <circle stroke="black" r="3.11811" stroke-width="0" id="nonconn0" cx="4.71811" cy="4.71811" fill="black" />
    </g>
   </g>
  </g>
  <g partID="854369641">
   <g transform="translate(159.089,61.1561)">
    <g id="copper1" >
     <circle stroke="black" r="3.11811" stroke-width="0" id="nonconn0" cx="4.71811" cy="4.71811" fill="black" />
    </g>
   </g>
  </g>
  <g partID="854368801">
   <g transform="translate(0.689532,61.1561)">
    <g id="copper1" >
     <circle stroke="black" r="3.11811" stroke-width="0" id="nonconn0" cx="4.71811" cy="4.71811" fill="black" />
    </g>
   </g>
  </g>
  <g partID="854369611">
   <g transform="translate(159.089,3.5561)">
    <g id="copper1" >
     <circle stroke="black" r="3.11811" stroke-width="0" id="nonconn0" cx="4.71811" cy="4.71811" fill="black" />
    </g>
   </g>
  </g>
  <g partID="98282">
   <g transform="translate(89.1077,19.5782)">
    <g id="copper1" >
     <!-- <rect width="55" x="10" y="15.5" fill="none" height="55" stroke="rgb(255, 191, 0)" stroke-width="20" />  -->
     <circle stroke="black" r="1.98" stroke-width="1.44" id="connector0pin" cx="2.7" cy="3.096" fill="none" />
     <circle stroke="black" r="1.98" stroke-width="1.44" id="connector1pin" cx="31.5" cy="3.096" fill="none" />
    </g>
   </g>
  </g>
  <g partID="88892">
   <g transform="translate(154.448,17.6342)">
    <g transform="matrix(0,1,-1,0,0,0)">
     <g id="copper1" >
      <g id="copper0" >
       <circle stroke="black" r="2.088" stroke-width="1.44" id="connector0pin" cx="5.04" cy="5.04" fill="none" />
       <circle stroke="black" r="2.088" stroke-width="1.44" id="connector1pin" cx="5.04" cy="12.24" fill="none" />
       <circle stroke="black" r="2.088" stroke-width="1.44" id="connector2pin" cx="5.04" cy="19.44" fill="none" />
      </g>
     </g>
    </g>
   </g>
  </g>
  <g partID="88312">
   <g transform="translate(82.4477,17.6342)">
    <g transform="matrix(0,1,-1,0,0,0)">
     <g id="copper1" >
      <g id="copper0" >
       <circle stroke="black" r="2.088" stroke-width="1.44" id="connector0pin" cx="5.04" cy="5.04" fill="none" />
       <circle stroke="black" r="2.088" stroke-width="1.44" id="connector1pin" cx="5.04" cy="12.24" fill="none" />
       <circle stroke="black" r="2.088" stroke-width="1.44" id="connector2pin" cx="5.04" cy="19.44" fill="none" />
       <circle stroke="black" r="2.088" stroke-width="1.44" id="connector3pin" cx="5.04" cy="26.64" fill="none" />
       <circle stroke="black" r="2.088" stroke-width="1.44" id="connector4pin" cx="5.04" cy="33.84" fill="none" />
       <circle stroke="black" r="2.088" stroke-width="1.44" id="connector5pin" cx="5.04" cy="41.04" fill="none" />
      </g>
     </g>
    </g>
   </g>
  </g>
  <g partID="68062">
   <g transform="translate(10.187,50.2718)">
    <g id="copper1" >
     <g id="copper0" >
      <circle stroke="black" r="1.98" stroke-width="1.44" id="connector0pad" cx="20.8462" cy="15.6024" fill="none" />
      <circle stroke="black" r="1.98" stroke-width="1.44" id="connector1pad" cx="2.42064" cy="15.6024" fill="none" />
      <circle stroke="black" r="1.98" stroke-width="1.44" id="connector2pad" cx="20.8462" cy="2.84616" fill="none" />
      <circle stroke="black" r="1.98" stroke-width="1.44" id="connector3pad" cx="2.42064" cy="2.84616" fill="none" />
     </g>
    </g>
   </g>
  </g>
  <g partID="68092">
   <g transform="translate(99.7613,50.2718)">
    <g transform="matrix(1,0,0,1,0,0)">
     <g id="copper1" >
      <g id="copper0" >
       <circle stroke="black" r="1.98" stroke-width="1.44" id="connector0pad" cx="20.8462" cy="15.6024" fill="none" />
       <circle stroke="black" r="1.98" stroke-width="1.44" id="connector1pad" cx="2.42064" cy="15.6024" fill="none" />
       <circle stroke="black" r="1.98" stroke-width="1.44" id="connector2pad" cx="20.8462" cy="2.84616" fill="none" />
       <circle stroke="black" r="1.98" stroke-width="1.44" id="connector3pad" cx="2.42064" cy="2.84616" fill="none" />
      </g>
     </g>
    </g>
   </g>
  </g>
  <g partID="68122">
   <g transform="translate(132.587,50.2718)">
    <g transform="matrix(1,0,0,1,0,0)">
     <g id="copper1" >
      <g id="copper0" >
       <circle stroke="black" r="1.98" stroke-width="1.44" id="connector0pad" cx="20.8462" cy="15.6024" fill="none" />
       <circle stroke="black" r="1.98" stroke-width="1.44" id="connector1pad" cx="2.42064" cy="15.6024" fill="none" />
       <circle stroke="black" r="1.98" stroke-width="1.44" id="connector2pad" cx="20.8462" cy="2.84616" fill="none" />
       <circle stroke="black" r="1.98" stroke-width="1.44" id="connector3pad" cx="2.42064" cy="2.84616" fill="none" />
      </g>
     </g>
    </g>
   </g>
  </g>
  <g partID="68152">
   <g transform="translate(45.9077,41.1782)">
    <g id="copper1" >
     <!-- <rect width="55" x="10" y="15.5" fill="none" height="55" stroke="rgb(255, 191, 0)" stroke-width="20" />  -->
     <circle stroke="black" r="1.98" stroke-width="1.44" id="connector0pin" cx="2.7" cy="3.096" fill="none" />
     <circle stroke="black" r="1.98" stroke-width="1.44" id="connector1pin" cx="31.5" cy="3.096" fill="none" />
    </g>
   </g>
  </g>
  <g partID="854377810">
   <line stroke="black" stroke-width="1.728" stroke-linecap="round" y1="22.6742" y2="22.6742" x1="12.6077" x2="39.2397"/>
  </g>
  <g partID="854377540">
   <line stroke="black" stroke-width="1.728" stroke-linecap="round" y1="51.058" y2="22.6742" x1="12.6077" x2="12.6077"/>
  </g>
  <g partID="854372910">
   <line stroke="black" stroke-width="1.728" stroke-linecap="round" y1="22.6742" y2="22.6742" x1="79.5757" x2="89.7477"/>
  </g>
  <g partID="854372840">
   <line stroke="black" stroke-width="1.728" stroke-linecap="round" y1="22.6742" y2="22.6742" x1="132.84" x2="122.668"/>
  </g>
  <g partID="854371290">
   <line stroke="black" stroke-width="1.728" stroke-linecap="round" y1="29.8742" y2="51.0579" x1="135.008" x2="135.008"/>
  </g>
  <g partID="854371220">
   <line stroke="black" stroke-width="1.728" stroke-linecap="round" y1="29.8742" y2="29.8742" x1="70.2077" x2="135.008"/>
  </g>
  <g partID="854371150">
   <line stroke="black" stroke-width="1.728" stroke-linecap="round" y1="24.8422" y2="29.8742" x1="70.2077" x2="70.2077"/>
  </g>
  <g partID="854370870">
   <line stroke="black" stroke-width="1.728" stroke-linecap="round" y1="24.8422" y2="42.2142" x1="48.6077" x2="48.6077"/>
  </g>
  <g partID="854388150">
   <line stroke="black" stroke-width="1.728" stroke-linecap="round" y1="8.27423" y2="8.27423" x1="142.208" x2="48.6077"/>
  </g>
  <g partID="854388040">
   <line stroke="black" stroke-width="1.728" stroke-linecap="round" y1="8.27423" y2="20.5062" x1="48.6077" x2="48.6077"/>
  </g>
  <g partID="854387930">
   <line stroke="black" stroke-width="1.728" stroke-linecap="round" y1="20.5062" y2="8.27423" x1="142.208" x2="142.208"/>
  </g>
  <g partID="854389790">
   <line stroke="black" stroke-width="1.728" stroke-linecap="round" y1="58.6742" y2="65.8742" x1="34.2077" x2="34.2077"/>
  </g>
  <g partID="854389640">
   <line stroke="black" stroke-width="1.728" stroke-linecap="round" y1="58.6742" y2="58.6742" x1="41.4077" x2="34.2077"/>
  </g>
  <g partID="854389340">
   <line stroke="black" stroke-width="1.728" stroke-linecap="round" y1="51.4742" y2="58.6742" x1="41.4077" x2="41.4077"/>
  </g>
  <g partID="854389490">
   <line stroke="black" stroke-width="1.728" stroke-linecap="round" y1="65.8742" y2="65.8742" x1="34.2077" x2="33.0932"/>
  </g>
  <g partID="854384530">
   <line stroke="black" stroke-width="1.728" stroke-linecap="round" y1="51.4742" y2="51.4742" x1="77.4077" x2="41.4077"/>
  </g>
  <g partID="854389190">
   <line stroke="black" stroke-width="1.728" stroke-linecap="round" y1="51.4742" y2="58.6742" x1="91.8077" x2="91.8077"/>
  </g>
  <g partID="854389040">
   <line stroke="black" stroke-width="1.728" stroke-linecap="round" y1="65.8742" y2="65.8742" x1="99.0077" x2="100.122"/>
  </g>
  <g partID="854384420">
   <line stroke="black" stroke-width="1.728" stroke-linecap="round" y1="51.4742" y2="51.4742" x1="77.4077" x2="91.8077"/>
  </g>
  <g partID="854388890">
   <line stroke="black" stroke-width="1.728" stroke-linecap="round" y1="58.6742" y2="65.8742" x1="99.0077" x2="99.0077"/>
  </g>
  <g partID="854388740">
   <line stroke="black" stroke-width="1.728" stroke-linecap="round" y1="58.6742" y2="58.6742" x1="91.8077" x2="99.0077"/>
  </g>
  <g partID="854384310">
   <line stroke="black" stroke-width="1.728" stroke-linecap="round" y1="46.3342" y2="51.4742" x1="77.4077" x2="77.4077"/>
  </g>
  <g partID="854384240">
   <line stroke="black" stroke-width="1.728" stroke-linecap="round" y1="65.8742" y2="65.8742" x1="127.808" x2="132.947"/>
  </g>
  <g partID="854384170">
   <line stroke="black" stroke-width="1.728" stroke-linecap="round" y1="44.2742" y2="65.8742" x1="127.808" x2="127.808"/>
  </g>
  <g partID="854384100">
   <line stroke="black" stroke-width="1.728" stroke-linecap="round" y1="44.2742" y2="44.2742" x1="79.4677" x2="127.808"/>
  </g>
 </g>
</svg>
