<?xml version='1.0' encoding='UTF-8' standalone='no'?>
<!-- Created with Fritzing (http://www.fritzing.org/) -->
<svg xmlns="http://www.w3.org/2000/svg" baseProfile="tiny" y="0in" x="0in" height="0.984252in" width="2.3622in" version="1.2" xmlns:svg="http://www.w3.org/2000/svg" viewBox="0 0 170.078 70.8661" >
 <g partID="854390062">
  <g transform="matrix(1, 0, 0, 1, 0, -771.024)">
   <g id="silkscreen">
    <path fill="none" d="m0.141331,771.165,0,70.5835,45.2794,0,0,-14.1167,42.4482,0,0,14.1167,82.0682,0,0,-70.5835,-169.796,0z" stroke-opacity="1" stroke-width="0.282661" stroke="black" fill-opacity="1" style="stroke-miterlimit:4;stroke-dasharray:none;"/>
   </g>
  </g>
 </g>
 <g partID="854390060">
  <g transform="matrix(1, 0, 0, 1, 0, -771.024)">
   <g id="board">
    <g style="display:inline">
     <path id="boardoutline" fill="none" d="m0,771.023,0,70.8672,45.3546,0,0,-14.1734,42.5187,0,0,14.1734,82.2045,0,0,-70.8672,-170.078,0z" stroke-opacity="1" stroke-width="0.5" stroke="black" fill-opacity="1" style="stroke-miterlimit:4;stroke-dasharray:none;"/>
    </g>
   </g>
  </g>
 </g>
 <g partID="854408490">
  <g transform="translate(10.7809,7.54932)">
   <g id="silkscreen">
    <defs id="defs2"/>
    <metadata id="metadata5">
     <rdf:RDF xmlns:rdf="http://www.w3.org/1999/02/22-rdf-syntax-ns#">
      <cc:Work xmlns:cc="http://creativecommons.org/ns#" xmlns:rdf="http://www.w3.org/1999/02/22-rdf-syntax-ns#" rdf:about="">
       <dc:format xmlns:dc="http://purl.org/dc/elements/1.1/">image/svg+xml</dc:format>
       <dc:type xmlns:dc="http://purl.org/dc/elements/1.1/" xmlns:rdf="http://www.w3.org/1999/02/22-rdf-syntax-ns#" rdf:resource="http://purl.org/dc/dcmitype/StillImage"/>
       <dc:title xmlns:dc="http://purl.org/dc/elements/1.1/"/>
      </cc:Work>
     </rdf:RDF>
    </metadata>
    <g transform="matrix(1, 0, 0, 1, -9.3945, -4.02614)">
     <g>
      <g id="layer1">
       <rect id="rect861" fill="black" y="6.99809" x="18.2242" height="2.27803" stroke-opacity="1.0" stroke-width="0.0860987" stroke="black" width="2.27803" fill-opacity="1.0" style="stroke-linejoin:miter;stroke-miterlimit:4;stroke-dasharray:none;"/>
       <rect id="rect863" fill="black" y="6.99809" x="15.2953" height="2.27803" stroke-opacity="1.0" stroke-width="0.0860987" stroke="black" width="2.27803" fill-opacity="1.0" style="stroke-linejoin:miter;stroke-miterlimit:4;stroke-dasharray:none;"/>
       <rect id="rect834" fill="black" y="6.99809" x="24.082" height="2.27803" stroke-opacity="1.0" stroke-width="0.0860987" stroke="black" width="2.27803" fill-opacity="1.0" style="stroke-linejoin:miter;stroke-miterlimit:4;stroke-dasharray:none;"/>
       <rect id="rect836" fill="black" y="6.99809" x="21.1531" height="2.27803" stroke-opacity="1.0" stroke-width="0.0860987" stroke="black" width="2.27803" fill-opacity="1.0" style="stroke-linejoin:miter;stroke-miterlimit:4;stroke-dasharray:none;"/>
       <rect id="rect838" fill="black" y="6.99809" x="27.0109" height="2.27803" stroke-opacity="1.0" stroke-width="0.0860987" stroke="black" width="2.27803" fill-opacity="1.0" style="stroke-linejoin:miter;stroke-miterlimit:4;stroke-dasharray:none;"/>
       <rect id="rect846" fill="black" y="4.06919" x="15.2953" height="2.27803" stroke-opacity="1.0" stroke-width="0.0860987" stroke="black" width="2.27803" fill-opacity="1.0" style="stroke-linejoin:miter;stroke-miterlimit:4;stroke-dasharray:none;"/>
       <rect id="rect872-1" fill="black" y="14.2878" x="13.8634" height="2.27803" stroke-opacity="1.0" stroke-width="0.0860988" stroke="black" width="2.27803" fill-opacity="1.0" style="stroke-linejoin:miter;stroke-miterlimit:4;stroke-dasharray:none;"/>
       <rect id="rect872-1-6" fill="black" y="14.2878" x="28.5079" height="2.27803" stroke-opacity="1.0" stroke-width="0.0860988" stroke="black" width="2.27803" fill-opacity="1.0" style="stroke-linejoin:miter;stroke-miterlimit:4;stroke-dasharray:none;"/>
      </g>
     </g>
    </g>
   </g>
  </g>
 </g>
 <g partID="854408330">
  <g transform="translate(14.7377,29.8001)">
   <g id="silkscreen">
    <text id="label" fill="black" font-family="OCRA" y="1.81483" x="9.07416" text-anchor="middle" xmlns:xml="http://www.w3.org/XML/1998/namespace" stroke-width="0" font-size="2.01648" xml:space="preserve">rear v0.1</text>
   </g>
  </g>
 </g>
 <g partID="854407740">
  <g transform="translate(3.78933,26.4289)">
   <g id="silkscreen">
    <text id="label" fill="black" font-family="OCRA" y="2.68294" x="20.8673" text-anchor="middle" xmlns:xml="http://www.w3.org/XML/1998/namespace" stroke-width="0" font-size="2.98105" xml:space="preserve">BikePixels.com</text>
   </g>
  </g>
 </g>
 <g partID="98281">
  <g transform="translate(89.1077,19.5782)">
   <g id="silkscreen">
    <line y2="3.096" stroke-width="0.72" stroke="black" x1="5.4" x2="10.584" y1="3.096"/>
    <line y2="3.096" stroke-width="0.72" stroke="black" x1="24.984" x2="28.8" y1="3.096"/>
    <line y2="0.72" stroke-width="0.72" stroke="black" x1="10.584" x2="24.984" y1="0.72"/>
    <line y2="5.472" stroke-width="0.72" stroke="black" x1="24.984" x2="24.984" y1="0.72"/>
    <line y2="5.472" stroke-width="0.72" stroke="black" x1="24.984" x2="10.584" y1="5.472"/>
    <line y2="0.72" stroke-width="0.72" stroke="black" x1="10.584" x2="10.584" y1="5.472"/>
   </g>
  </g>
 </g>
 <g partID="88891">
  <g transform="translate(147.248,17.6342)">
   <g transform="matrix(0,1,-1,0,0,0)">
    <g id="silkscreen">
     <line y2="23.04" stroke-width="0.72" stroke="black" x1="1.44" x2="1.44" y1="1.44"/>
     <line y2="23.04" stroke-width="0.72" stroke="black" x1="1.44" x2="8.64" y1="23.04"/>
     <line y2="1.44" stroke-width="0.72" stroke="black" x1="8.64" x2="8.64" y1="23.04"/>
     <line y2="1.44" stroke-width="0.72" stroke="black" x1="8.64" x2="1.44" y1="1.44"/>
     <line y2="1.44" stroke-width="0.36" stroke="black" x1="1.44" x2="3.96" y1="3.96"/>
     <!-- 120 -->
    </g>
   </g>
  </g>
 </g>
 <g partID="88311">
  <g transform="translate(89.6477,17.6342)">
   <g transform="matrix(0,1,-1,0,0,0)">
    <g id="silkscreen">
     <line y2="44.64" stroke-width="0.72" stroke="black" x1="1.44" x2="1.44" y1="1.44"/>
     <line y2="44.64" stroke-width="0.72" stroke="black" x1="1.44" x2="8.64" y1="44.64"/>
     <line y2="1.44" stroke-width="0.72" stroke="black" x1="8.64" x2="8.64" y1="44.64"/>
     <line y2="1.44" stroke-width="0.72" stroke="black" x1="8.64" x2="1.44" y1="1.44"/>
     <line y2="1.44" stroke-width="0.36" stroke="black" x1="1.44" x2="3.96" y1="3.96"/>
     <!-- 120 -->
    </g>
   </g>
  </g>
 </g>
 <g partID="68061">
  <g transform="translate(10.187,50.2718)">
   <g id="silkscreen">
    <line y2="12.0586" stroke-width="0.72" stroke="black" x1="20.137" x2="20.137" y1="6.38928"/>
    <line y2="0.72" stroke-width="0.72" stroke="black" x1="5.96376" x2="18.0115" y1="0.72"/>
    <line y2="17.7278" stroke-width="0.72" stroke="black" x1="5.96376" x2="18.0115" y1="17.7278"/>
    <line y2="12.0586" stroke-width="0.72" stroke="black" x1="3.12912" x2="3.12912" y1="6.38928"/>
    <line y2="10.6416" stroke-width="0.72" stroke="black" x1="11.633" x2="11.633" y1="7.80696"/>
    <line y2="9.22392" stroke-width="0.72" stroke="black" x1="13.0507" x2="10.2161" y1="9.22392"/>
   </g>
  </g>
 </g>
 <g partID="854390062">
  <g transform="matrix(1, 0, 0, 1, 0, -771.024)">
   <g id="silkscreen">
    <path fill="none" d="m0.141331,771.165,0,70.5835,45.2794,0,0,-14.1167,42.4482,0,0,14.1167,82.0682,0,0,-70.5835,-169.796,0z" stroke-opacity="1" stroke-width="0.282661" stroke="black" fill-opacity="1" style="stroke-miterlimit:4;stroke-dasharray:none;"/>
   </g>
  </g>
 </g>
 <g partID="68091">
  <g transform="translate(99.7613,50.2718)">
   <g transform="matrix(1,0,0,1,0,0)">
    <g id="silkscreen">
     <line y2="12.0586" stroke-width="0.72" stroke="black" x1="20.137" x2="20.137" y1="6.38928"/>
     <line y2="0.72" stroke-width="0.72" stroke="black" x1="5.96376" x2="18.0115" y1="0.72"/>
     <line y2="17.7278" stroke-width="0.72" stroke="black" x1="5.96376" x2="18.0115" y1="17.7278"/>
     <line y2="12.0586" stroke-width="0.72" stroke="black" x1="3.12912" x2="3.12912" y1="6.38928"/>
     <line y2="10.6416" stroke-width="0.72" stroke="black" x1="11.633" x2="11.633" y1="7.80696"/>
     <line y2="9.22392" stroke-width="0.72" stroke="black" x1="13.0507" x2="10.2161" y1="9.22392"/>
    </g>
   </g>
  </g>
 </g>
 <g partID="68121">
  <g transform="translate(132.587,50.2718)">
   <g transform="matrix(1,0,0,1,0,0)">
    <g id="silkscreen">
     <line y2="12.0586" stroke-width="0.72" stroke="black" x1="20.137" x2="20.137" y1="6.38928"/>
     <line y2="0.72" stroke-width="0.72" stroke="black" x1="5.96376" x2="18.0115" y1="0.72"/>
     <line y2="17.7278" stroke-width="0.72" stroke="black" x1="5.96376" x2="18.0115" y1="17.7278"/>
     <line y2="12.0586" stroke-width="0.72" stroke="black" x1="3.12912" x2="3.12912" y1="6.38928"/>
     <line y2="10.6416" stroke-width="0.72" stroke="black" x1="11.633" x2="11.633" y1="7.80696"/>
     <line y2="9.22392" stroke-width="0.72" stroke="black" x1="13.0507" x2="10.2161" y1="9.22392"/>
    </g>
   </g>
  </g>
 </g>
 <g partID="854396001">
  <g transform="translate(31.5077,41.1782)">
   <g id="silkscreen">
    <line y2="3.096" stroke-width="0.72" stroke="black" x1="5.4" x2="10.584" y1="3.096"/>
    <line y2="3.096" stroke-width="0.72" stroke="black" x1="24.984" x2="28.8" y1="3.096"/>
    <line y2="0.72" stroke-width="0.72" stroke="black" x1="10.584" x2="24.984" y1="0.72"/>
    <line y2="5.472" stroke-width="0.72" stroke="black" x1="24.984" x2="24.984" y1="0.72"/>
    <line y2="5.472" stroke-width="0.72" stroke="black" x1="24.984" x2="10.584" y1="5.472"/>
    <line y2="0.72" stroke-width="0.72" stroke="black" x1="10.584" x2="10.584" y1="5.472"/>
   </g>
  </g>
 </g>
 <g partID="854391281">
  <g transform="translate(74.7077,41.1782)">
   <g id="silkscreen">
    <line y2="3.096" stroke-width="0.72" stroke="black" x1="5.4" x2="10.584" y1="3.096"/>
    <line y2="3.096" stroke-width="0.72" stroke="black" x1="24.984" x2="28.8" y1="3.096"/>
    <line y2="0.72" stroke-width="0.72" stroke="black" x1="10.584" x2="24.984" y1="0.72"/>
    <line y2="5.472" stroke-width="0.72" stroke="black" x1="24.984" x2="24.984" y1="0.72"/>
    <line y2="5.472" stroke-width="0.72" stroke="black" x1="24.984" x2="10.584" y1="5.472"/>
    <line y2="0.72" stroke-width="0.72" stroke="black" x1="10.584" x2="10.584" y1="5.472"/>
   </g>
  </g>
 </g>
 <g partID="854391011">
  <g transform="translate(74.7077,33.9782)">
   <g id="silkscreen">
    <line y2="3.096" stroke-width="0.72" stroke="black" x1="5.4" x2="10.584" y1="3.096"/>
    <line y2="3.096" stroke-width="0.72" stroke="black" x1="24.984" x2="28.8" y1="3.096"/>
    <line y2="0.72" stroke-width="0.72" stroke="black" x1="10.584" x2="24.984" y1="0.72"/>
    <line y2="5.472" stroke-width="0.72" stroke="black" x1="24.984" x2="24.984" y1="0.72"/>
    <line y2="5.472" stroke-width="0.72" stroke="black" x1="24.984" x2="10.584" y1="5.472"/>
    <line y2="0.72" stroke-width="0.72" stroke="black" x1="10.584" x2="10.584" y1="5.472"/>
   </g>
  </g>
 </g>
 <g id="partLabel" partID="68120">
  <g transform="translate(157.464,63.3644)">
   <g transform="matrix(0,-1,1,0,0,0)">
    <g id="silkscreenLabel" fill="#000000" font-family="'OCRA'" font-style="normal" font-weight="normal" stroke="none" font-size="3" fill-opacity="1">
     <text y="2.25" x="0">Brg+</text>
    </g>
   </g>
  </g>
 </g>
 <g id="partLabel" partID="68060">
  <g transform="translate(17.5853,46.1829)">
   <g id="silkscreenLabel" fill="#000000" font-family="'OCRA'" font-style="normal" font-weight="normal" stroke="none" font-size="3" fill-opacity="1">
    <text y="2.25" x="0">mode</text>
   </g>
  </g>
 </g>
 <g id="partLabel" partID="68090">
  <g transform="translate(96.0253,63.7253)">
   <g transform="matrix(0,-1,1,0,0,0)">
    <g id="silkscreenLabel" fill="#000000" font-family="'OCRA'" font-style="normal" font-weight="normal" stroke="none" font-size="3" fill-opacity="1">
     <text y="2.25" x="0">Brg-</text>
    </g>
   </g>
  </g>
 </g>
 <g id="partLabel" partID="88310">
  <g transform="translate(59.1305,28.4563)">
   <g id="silkscreenLabel" fill="#000000" font-family="'OCRA'" font-style="normal" font-weight="normal" stroke="none" font-size="5" fill-opacity="1">
    <text y="3.75" x="0">J1</text>
   </g>
  </g>
 </g>
 <g id="partLabel" partID="854391010">
  <g transform="translate(80.4109,32.6142)">
   <g id="silkscreenLabel" fill="#000000" font-family="'OCRA'" font-style="normal" font-weight="normal" stroke="none" font-size="3" fill-opacity="1">
    <text y="2.25" x="0">R2</text>
   </g>
  </g>
 </g>
 <g id="partLabel" partID="854396000">
  <g transform="translate(36.3473,40.0062)">
   <g id="silkscreenLabel" fill="#000000" font-family="'OCRA'" font-style="normal" font-weight="normal" stroke="none" font-size="3" fill-opacity="1">
    <text y="2.25" x="0">R4</text>
   </g>
  </g>
 </g>
 <g id="partLabel" partID="854391280">
  <g transform="translate(80.7837,39.9977)">
   <g id="silkscreenLabel" fill="#000000" font-family="'OCRA'" font-style="normal" font-weight="normal" stroke="none" font-size="3" fill-opacity="1">
    <text y="2.25" x="0">R3</text>
   </g>
  </g>
 </g>
 <g id="partLabel" partID="88890">
  <g transform="translate(138.066,28.1299)">
   <g id="silkscreenLabel" fill="#000000" font-family="'OCRA'" font-style="normal" font-weight="normal" stroke="none" font-size="5" fill-opacity="1">
    <text y="3.75" x="0">J2</text>
   </g>
  </g>
 </g>
 <g id="partLabel" partID="98280">
  <g transform="translate(94.7605,18.1225)">
   <g id="silkscreenLabel" fill="#000000" font-family="'OCRA'" font-style="normal" font-weight="normal" stroke="none" font-size="3" fill-opacity="1">
    <text y="2.25" x="0">R1</text>
   </g>
  </g>
 </g>
 <g partID="854368771">
  <g transform="translate(0.973,1.02135)">
   <g id="copper1">
    <circle id="nonconn0" fill="white" r="2.83465" cy="4.43465" stroke-width="0.72" stroke="white" cx="4.43465"/>
   </g>
  </g>
 </g>
 <g partID="854369641">
  <g transform="translate(160.397,61.4395)">
   <g id="copper1">
    <circle id="nonconn0" fill="white" r="2.83465" cy="4.43465" stroke-width="0.72" stroke="white" cx="4.43465"/>
   </g>
  </g>
 </g>
 <g partID="854368801">
  <g transform="translate(0.972992,61.4395)">
   <g id="copper1">
    <circle id="nonconn0" fill="white" r="2.83465" cy="4.43465" stroke-width="0.72" stroke="white" cx="4.43465"/>
   </g>
  </g>
 </g>
 <g partID="854369611">
  <g transform="translate(160.397,1.02134)">
   <g id="copper1">
    <circle id="nonconn0" fill="white" r="2.83465" cy="4.43465" stroke-width="0.72" stroke="white" cx="4.43465"/>
   </g>
  </g>
 </g>
 <g partID="98282">
  <g transform="translate(89.1077,19.5782)">
   <g id="copper1">
    <!-- <rect width="55" x="10" y="15.5" fill="none" height="55" stroke="rgb(255, 191, 0)" stroke-width="20" />  -->
    <circle id="connector0pin" fill="white" r="1.98" cy="3.096" stroke-width="2.16" stroke="white" cx="2.7"/>
    <circle id="connector1pin" fill="white" r="1.98" cy="3.096" stroke-width="2.16" stroke="white" cx="31.5"/>
   </g>
  </g>
 </g>
 <g partID="88892">
  <g transform="translate(147.248,17.6342)">
   <g transform="matrix(0,1,-1,0,0,0)">
    <g id="copper1">
     <g id="copper0">
      <circle id="connector0pin" fill="white" r="2.088" cy="5.04" stroke-width="2.16" stroke="white" cx="5.04"/>
      <circle id="connector1pin" fill="white" r="2.088" cy="12.24" stroke-width="2.16" stroke="white" cx="5.04"/>
      <circle id="connector2pin" fill="white" r="2.088" cy="19.44" stroke-width="2.16" stroke="white" cx="5.04"/>
     </g>
    </g>
   </g>
  </g>
 </g>
 <g partID="88312">
  <g transform="translate(89.6477,17.6342)">
   <g transform="matrix(0,1,-1,0,0,0)">
    <g id="copper1">
     <g id="copper0">
      <circle id="connector0pin" fill="white" r="2.088" cy="5.04" stroke-width="2.16" stroke="white" cx="5.04"/>
      <circle id="connector1pin" fill="white" r="2.088" cy="12.24" stroke-width="2.16" stroke="white" cx="5.04"/>
      <circle id="connector2pin" fill="white" r="2.088" cy="19.44" stroke-width="2.16" stroke="white" cx="5.04"/>
      <circle id="connector3pin" fill="white" r="2.088" cy="26.64" stroke-width="2.16" stroke="white" cx="5.04"/>
      <circle id="connector4pin" fill="white" r="2.088" cy="33.84" stroke-width="2.16" stroke="white" cx="5.04"/>
      <circle id="connector5pin" fill="white" r="2.088" cy="41.04" stroke-width="2.16" stroke="white" cx="5.04"/>
     </g>
    </g>
   </g>
  </g>
 </g>
 <g partID="68062">
  <g transform="translate(10.187,50.2718)">
   <g id="copper1">
    <g id="copper0">
     <circle id="connector0pad" fill="white" r="1.98" cy="15.6024" stroke-width="2.16" stroke="white" cx="20.8462"/>
     <circle id="connector1pad" fill="white" r="1.98" cy="15.6024" stroke-width="2.16" stroke="white" cx="2.42064"/>
     <circle id="connector2pad" fill="white" r="1.98" cy="2.84616" stroke-width="2.16" stroke="white" cx="20.8462"/>
     <circle id="connector3pad" fill="white" r="1.98" cy="2.84616" stroke-width="2.16" stroke="white" cx="2.42064"/>
    </g>
   </g>
  </g>
 </g>
 <g partID="68092">
  <g transform="translate(99.7613,50.2718)">
   <g transform="matrix(1,0,0,1,0,0)">
    <g id="copper1">
     <g id="copper0">
      <circle id="connector0pad" fill="white" r="1.98" cy="15.6024" stroke-width="2.16" stroke="white" cx="20.8462"/>
      <circle id="connector1pad" fill="white" r="1.98" cy="15.6024" stroke-width="2.16" stroke="white" cx="2.42064"/>
      <circle id="connector2pad" fill="white" r="1.98" cy="2.84616" stroke-width="2.16" stroke="white" cx="20.8462"/>
      <circle id="connector3pad" fill="white" r="1.98" cy="2.84616" stroke-width="2.16" stroke="white" cx="2.42064"/>
     </g>
    </g>
   </g>
  </g>
 </g>
 <g partID="68122">
  <g transform="translate(132.587,50.2718)">
   <g transform="matrix(1,0,0,1,0,0)">
    <g id="copper1">
     <g id="copper0">
      <circle id="connector0pad" fill="white" r="1.98" cy="15.6024" stroke-width="2.16" stroke="white" cx="20.8462"/>
      <circle id="connector1pad" fill="white" r="1.98" cy="15.6024" stroke-width="2.16" stroke="white" cx="2.42064"/>
      <circle id="connector2pad" fill="white" r="1.98" cy="2.84616" stroke-width="2.16" stroke="white" cx="20.8462"/>
      <circle id="connector3pad" fill="white" r="1.98" cy="2.84616" stroke-width="2.16" stroke="white" cx="2.42064"/>
     </g>
    </g>
   </g>
  </g>
 </g>
 <g partID="854396002">
  <g transform="translate(31.5077,41.1782)">
   <g id="copper1">
    <!-- <rect width="55" x="10" y="15.5" fill="none" height="55" stroke="rgb(255, 191, 0)" stroke-width="20" />  -->
    <circle id="connector0pin" fill="white" r="1.98" cy="3.096" stroke-width="2.16" stroke="white" cx="2.7"/>
    <circle id="connector1pin" fill="white" r="1.98" cy="3.096" stroke-width="2.16" stroke="white" cx="31.5"/>
   </g>
  </g>
 </g>
 <g partID="854391282">
  <g transform="translate(74.7077,41.1782)">
   <g id="copper1">
    <!-- <rect width="55" x="10" y="15.5" fill="none" height="55" stroke="rgb(255, 191, 0)" stroke-width="20" />  -->
    <circle id="connector0pin" fill="white" r="1.98" cy="3.096" stroke-width="2.16" stroke="white" cx="2.7"/>
    <circle id="connector1pin" fill="white" r="1.98" cy="3.096" stroke-width="2.16" stroke="white" cx="31.5"/>
   </g>
  </g>
 </g>
 <g partID="854391012">
  <g transform="translate(74.7077,33.9782)">
   <g id="copper1">
    <!-- <rect width="55" x="10" y="15.5" fill="none" height="55" stroke="rgb(255, 191, 0)" stroke-width="20" />  -->
    <circle id="connector0pin" fill="white" r="1.98" cy="3.096" stroke-width="2.16" stroke="white" cx="2.7"/>
    <circle id="connector1pin" fill="white" r="1.98" cy="3.096" stroke-width="2.16" stroke="white" cx="31.5"/>
   </g>
  </g>
 </g>
</svg>
