<?xml version='1.0' encoding='UTF-8' standalone='no'?>
<!-- Created with Fritzing (http://www.fritzing.org/) -->
<svg xmlns="http://www.w3.org/2000/svg" baseProfile="tiny" y="0in" x="0in" height="0.984252in" width="2.3622in" version="1.2" xmlns:svg="http://www.w3.org/2000/svg" viewBox="0 0 170.078 70.8661" >
 <g partID="854390060">
  <g transform="matrix(1, 0, 0, 1, 0, -771.024)">
   <g id="board">
    <g style="display:inline">
     <path id="boardoutline" fill="none" d="m0,771.023,0,70.8672,45.3546,0,0,-14.1734,42.5187,0,0,14.1734,82.2045,0,0,-70.8672,-170.078,0z" stroke-opacity="1" stroke-width="0.5" stroke="black" fill-opacity="1" style="stroke-miterlimit:4;stroke-dasharray:none;"/>
    </g>
   </g>
  </g>
 </g>
 <g partID="854368770">
  <g transform="translate(0.973,1.02135)">
   <g id="copper0" >
    <circle id="nonconn0" fill="black" r="2.83465" cy="4.43465" stroke-width="0" stroke="black" cx="4.43465" />
   </g>
  </g>
 </g>
 <g partID="854369640">
  <g transform="translate(160.397,61.4395)">
   <g id="copper0" >
    <circle id="nonconn0" fill="black" r="2.83465" cy="4.43465" stroke-width="0" stroke="black" cx="4.43465" />
   </g>
  </g>
 </g>
 <g partID="854368800">
  <g transform="translate(0.972992,61.4395)">
   <g id="copper0" >
    <circle id="nonconn0" fill="black" r="2.83465" cy="4.43465" stroke-width="0" stroke="black" cx="4.43465" />
   </g>
  </g>
 </g>
 <g partID="854369610">
  <g transform="translate(160.397,1.02134)">
   <g id="copper0" >
    <circle id="nonconn0" fill="black" r="2.83465" cy="4.43465" stroke-width="0" stroke="black" cx="4.43465" />
   </g>
  </g>
 </g>
 <g partID="98280">
  <g transform="translate(89.1077,19.5782)">
   <g id="copper0" >
    <g id="copper1" >
     <!-- <rect width="55" x="10" y="15.5" fill="none" height="55" stroke="rgb(255, 191, 0)" stroke-width="20" />  -->
     <circle id="connector0pin" fill="none" r="1.98" cy="3.096" stroke-width="1.44" stroke="black" cx="2.7" />
     <circle id="connector1pin" fill="none" r="1.98" cy="3.096" stroke-width="1.44" stroke="black" cx="31.5" />
    </g>
   </g>
  </g>
 </g>
 <g partID="88890">
  <g transform="translate(147.248,17.6342)">
   <g transform="matrix(0,1,-1,0,0,0)">
    <g id="copper0" >
     <circle id="connector0pin" fill="none" r="2.088" cy="5.04" stroke-width="1.44" stroke="black" cx="5.04" />
     <circle id="connector1pin" fill="none" r="2.088" cy="12.24" stroke-width="1.44" stroke="black" cx="5.04" />
     <circle id="connector2pin" fill="none" r="2.088" cy="19.44" stroke-width="1.44" stroke="black" cx="5.04" />
    </g>
   </g>
  </g>
 </g>
 <g partID="88310">
  <g transform="translate(89.6477,17.6342)">
   <g transform="matrix(0,1,-1,0,0,0)">
    <g id="copper0" >
     <circle id="connector0pin" fill="none" r="2.088" cy="5.04" stroke-width="1.44" stroke="black" cx="5.04" />
     <circle id="connector1pin" fill="none" r="2.088" cy="12.24" stroke-width="1.44" stroke="black" cx="5.04" />
     <circle id="connector2pin" fill="none" r="2.088" cy="19.44" stroke-width="1.44" stroke="black" cx="5.04" />
     <circle id="connector3pin" fill="none" r="2.088" cy="26.64" stroke-width="1.44" stroke="black" cx="5.04" />
     <circle id="connector4pin" fill="none" r="2.088" cy="33.84" stroke-width="1.44" stroke="black" cx="5.04" />
     <circle id="connector5pin" fill="none" r="2.088" cy="41.04" stroke-width="1.44" stroke="black" cx="5.04" />
    </g>
   </g>
  </g>
 </g>
 <g partID="68060">
  <g transform="translate(10.187,50.2718)">
   <g id="copper0" >
    <circle id="connector0pad" fill="none" r="1.98" cy="15.6024" stroke-width="1.44" stroke="black" cx="20.8462" />
    <circle id="connector1pad" fill="none" r="1.98" cy="15.6024" stroke-width="1.44" stroke="black" cx="2.42064" />
    <circle id="connector2pad" fill="none" r="1.98" cy="2.84616" stroke-width="1.44" stroke="black" cx="20.8462" />
    <circle id="connector3pad" fill="none" r="1.98" cy="2.84616" stroke-width="1.44" stroke="black" cx="2.42064" />
   </g>
  </g>
 </g>
 <g partID="68090">
  <g transform="translate(99.7613,50.2718)">
   <g transform="matrix(1,0,0,1,0,0)">
    <g id="copper0" >
     <circle id="connector0pad" fill="none" r="1.98" cy="15.6024" stroke-width="1.44" stroke="black" cx="20.8462" />
     <circle id="connector1pad" fill="none" r="1.98" cy="15.6024" stroke-width="1.44" stroke="black" cx="2.42064" />
     <circle id="connector2pad" fill="none" r="1.98" cy="2.84616" stroke-width="1.44" stroke="black" cx="20.8462" />
     <circle id="connector3pad" fill="none" r="1.98" cy="2.84616" stroke-width="1.44" stroke="black" cx="2.42064" />
    </g>
   </g>
  </g>
 </g>
 <g partID="68120">
  <g transform="translate(132.587,50.2718)">
   <g transform="matrix(1,0,0,1,0,0)">
    <g id="copper0" >
     <circle id="connector0pad" fill="none" r="1.98" cy="15.6024" stroke-width="1.44" stroke="black" cx="20.8462" />
     <circle id="connector1pad" fill="none" r="1.98" cy="15.6024" stroke-width="1.44" stroke="black" cx="2.42064" />
     <circle id="connector2pad" fill="none" r="1.98" cy="2.84616" stroke-width="1.44" stroke="black" cx="20.8462" />
     <circle id="connector3pad" fill="none" r="1.98" cy="2.84616" stroke-width="1.44" stroke="black" cx="2.42064" />
    </g>
   </g>
  </g>
 </g>
 <g partID="854396000">
  <g transform="translate(31.5077,41.1782)">
   <g id="copper0" >
    <g id="copper1" >
     <!-- <rect width="55" x="10" y="15.5" fill="none" height="55" stroke="rgb(255, 191, 0)" stroke-width="20" />  -->
     <circle id="connector0pin" fill="none" r="1.98" cy="3.096" stroke-width="1.44" stroke="black" cx="2.7" />
     <circle id="connector1pin" fill="none" r="1.98" cy="3.096" stroke-width="1.44" stroke="black" cx="31.5" />
    </g>
   </g>
  </g>
 </g>
 <g partID="854391280">
  <g transform="translate(74.7077,41.1782)">
   <g id="copper0" >
    <g id="copper1" >
     <!-- <rect width="55" x="10" y="15.5" fill="none" height="55" stroke="rgb(255, 191, 0)" stroke-width="20" />  -->
     <circle id="connector0pin" fill="none" r="1.98" cy="3.096" stroke-width="1.44" stroke="black" cx="2.7" />
     <circle id="connector1pin" fill="none" r="1.98" cy="3.096" stroke-width="1.44" stroke="black" cx="31.5" />
    </g>
   </g>
  </g>
 </g>
 <g partID="854391010">
  <g transform="translate(74.7077,33.9782)">
   <g id="copper0" >
    <g id="copper1" >
     <!-- <rect width="55" x="10" y="15.5" fill="none" height="55" stroke="rgb(255, 191, 0)" stroke-width="20" />  -->
     <circle id="connector0pin" fill="none" r="1.98" cy="3.096" stroke-width="1.44" stroke="black" cx="2.7" />
     <circle id="connector1pin" fill="none" r="1.98" cy="3.096" stroke-width="1.44" stroke="black" cx="31.5" />
    </g>
   </g>
  </g>
 </g>
 <g partID="854395060">
  <line y2="65.7496" stroke-width="1.728" stroke="black" x1="132.948" x2="127.839" y1="65.8384" stroke-linecap="round"/>
 </g>
 <g partID="854395270">
  <line y2="44.2648" stroke-width="1.728" stroke="black" x1="127.838" x2="127.779" y1="65.7496" stroke-linecap="round"/>
 </g>
 <g partID="854395340">
  <line y2="65.8387" stroke-width="1.728" stroke="black" x1="127.838" x2="122.667" y1="65.7496" stroke-linecap="round"/>
 </g>
 <g partID="854402740">
  <line y2="8.30614" stroke-width="1.728" stroke="black" x1="149.476" x2="149.476" y1="22.77" stroke-linecap="round"/>
 </g>
 <g partID="854402590">
  <line y2="22.77" stroke-width="1.728" stroke="black" x1="149.476" x2="149.476" y1="44.2649" stroke-linecap="round"/>
 </g>
 <g partID="854402440">
  <line y2="8.30614" stroke-width="1.728" stroke="black" x1="149.476" x2="77.3573" y1="8.30614" stroke-linecap="round"/>
 </g>
 <g partID="854400700">
  <line y2="44.2649" stroke-width="1.728" stroke="black" x1="127.78" x2="149.475" y1="44.2649" stroke-linecap="round"/>
 </g>
 <g partID="854401420">
  <line y2="20.5062" stroke-width="1.728" stroke="black" x1="77.3569" x2="77.4" y1="8.30614" stroke-linecap="round"/>
 </g>
 <g partID="854401230">
  <line y2="8.30614" stroke-width="1.728" stroke="black" x1="41.3983" x2="41.3983" y1="65.9606" stroke-linecap="round"/>
 </g>
 <g partID="854401040">
  <line y2="8.30614" stroke-width="1.728" stroke="black" x1="41.3983" x2="77.357" y1="8.30614" stroke-linecap="round"/>
 </g>
 <g partID="854400850">
  <line y2="65.9606" stroke-width="1.728" stroke="black" x1="33.0931" x2="41.3983" y1="65.8914" stroke-linecap="round"/>
 </g>
 <g partID="854402890">
  <line y2="22.7028" stroke-width="1.728" stroke="black" x1="149.476" x2="144.376" y1="22.77" stroke-linecap="round"/>
 </g>
 <g partID="854409130">
  <line y2="52.2002" stroke-width="1.728" stroke="black" x1="98.9725" x2="100.338" y1="51.5207" stroke-linecap="round"/>
 </g>
 <g partID="854409020">
  <line y2="51.5207" stroke-width="1.728" stroke="black" x1="55.8425" x2="98.9723" y1="51.5207" stroke-linecap="round"/>
 </g>
 <g partID="854408910">
  <line y2="51.5207" stroke-width="1.728" stroke="black" x1="55.8103" x2="55.8425" y1="24.8422" stroke-linecap="round"/>
 </g>
</svg>
