<?xml version="1.0"?>
<!DOCTYPE svg PUBLIC "-//W3C//DTD SVG 1.1//EN" "http://www.w3.org/Graphics/SVG/1.1/DTD/svg11.dtd">
<svg width="83.232mm" height="84.232mm" viewBox="0 0 83.232 84.232" xmlns="http://www.w3.org/2000/svg" version="1.1">
<g id="Shape2DView" transform="translate(41.616000,42.116000) scale(1,-1)">
<path id="Shape2DView_nwe0000"  d="M 2.7 -40.3 L 2.7 -40.1 " stroke="#191919" stroke-width="0.35 px" style="stroke-width:0.35;stroke-miterlimit:4;stroke-dasharray:none;fill:none;fill-rule: evenodd "/>
<path id="Shape2DView_nwe0001"  d="M 2.700000000000001 -40.3 A 1 1 0 0 1 3.7 -41.3" stroke="#191919" stroke-width="0.35 px" style="stroke-width:0.35;stroke-miterlimit:4;stroke-dasharray:none;fill:none;fill-rule: evenodd "/>
<path id="Shape2DView_nwe0002"  d="M 2.7 -40.1 L -2.7 -40.1 " stroke="#191919" stroke-width="0.35 px" style="stroke-width:0.35;stroke-miterlimit:4;stroke-dasharray:none;fill:none;fill-rule: evenodd "/>
<path id="Shape2DView_nwe0003"  d="M 3.700000000000003 -41.3 L 39.8 -41.3 " stroke="#191919" stroke-width="0.35 px" style="stroke-width:0.35;stroke-miterlimit:4;stroke-dasharray:none;fill:none;fill-rule: evenodd "/>
<path id="Shape2DView_nwe0004"  d="M -2.7 -40.1 L -2.7 -40.3 " stroke="#191919" stroke-width="0.35 px" style="stroke-width:0.35;stroke-miterlimit:4;stroke-dasharray:none;fill:none;fill-rule: evenodd "/>
<path id="Shape2DView_nwe0005"  d="M 39.8 -41.3 A 1 1 0 0 1 40.8 -40.3" stroke="#191919" stroke-width="0.35 px" style="stroke-width:0.35;stroke-miterlimit:4;stroke-dasharray:none;fill:none;fill-rule: evenodd "/>
<path id="Shape2DView_nwe0006"  d="M -2.700000000000001 -40.3 A 1 1 0 0 0 -3.7 -41.3" stroke="#191919" stroke-width="0.35 px" style="stroke-width:0.35;stroke-miterlimit:4;stroke-dasharray:none;fill:none;fill-rule: evenodd "/>
<path id="Shape2DView_nwe0007"  d="M 40.8 -40.3 L 40.8 40.3 " stroke="#191919" stroke-width="0.35 px" style="stroke-width:0.35;stroke-miterlimit:4;stroke-dasharray:none;fill:none;fill-rule: evenodd "/>
<path id="Shape2DView_nwe0008"  d="M -39.8 -41.3 L -3.700000000000003 -41.3 " stroke="#191919" stroke-width="0.35 px" style="stroke-width:0.35;stroke-miterlimit:4;stroke-dasharray:none;fill:none;fill-rule: evenodd "/>
<path id="Shape2DView_nwe0009"  d="M 39.8 41.3 A 1 1 0 0 0 40.8 40.3" stroke="#191919" stroke-width="0.35 px" style="stroke-width:0.35;stroke-miterlimit:4;stroke-dasharray:none;fill:none;fill-rule: evenodd "/>
<path id="Shape2DView_nwe0010"  d="M -39.8 -41.3 A 1 1 0 0 0 -40.8 -40.3" stroke="#191919" stroke-width="0.35 px" style="stroke-width:0.35;stroke-miterlimit:4;stroke-dasharray:none;fill:none;fill-rule: evenodd "/>
<path id="Shape2DView_nwe0011"  d="M 39.8 41.3 L -39.8 41.3 " stroke="#191919" stroke-width="0.35 px" style="stroke-width:0.35;stroke-miterlimit:4;stroke-dasharray:none;fill:none;fill-rule: evenodd "/>
<path id="Shape2DView_nwe0012"  d="M -40.8 40.3 L -40.8 -40.3 " stroke="#191919" stroke-width="0.35 px" style="stroke-width:0.35;stroke-miterlimit:4;stroke-dasharray:none;fill:none;fill-rule: evenodd "/>
<path id="Shape2DView_nwe0013"  d="M -40.8 40.3 A 1 1 0 0 0 -39.8 41.3" stroke="#191919" stroke-width="0.35 px" style="stroke-width:0.35;stroke-miterlimit:4;stroke-dasharray:none;fill:none;fill-rule: evenodd "/>
<title>b'Shape2DView'</title>
</g>
</svg>