G04 MADE WITH FRITZING*
G04 WWW.FRITZING.ORG*
G04 DOUBLE SIDED*
G04 HOLES PLATED*
G04 CONTOUR ON CENTER OF CONTOUR VECTOR*
%ASAXBY*%
%FSLAX23Y23*%
%MOIN*%
%OFA0B0*%
%SFA1.0B1.0*%
%ADD10C,0.008*%
%LNCONTOUR*%
G90*
G70*
G54D10*
X0Y1181D02*
X0Y1180D01*
X0Y1D01*
X1Y1D01*
X2Y1D01*
X3Y1D01*
X4Y1D01*
X5Y1D01*
X6Y1D01*
X7Y1D01*
X8Y1D01*
X9Y1D01*
X10Y1D01*
X11Y1D01*
X12Y1D01*
X13Y1D01*
X14Y1D01*
X15Y1D01*
X16Y1D01*
X17Y1D01*
X18Y1D01*
X19Y1D01*
X20Y1D01*
X21Y1D01*
X22Y1D01*
X23Y1D01*
X24Y1D01*
X25Y1D01*
X26Y1D01*
X27Y1D01*
X28Y1D01*
X29Y1D01*
X30Y1D01*
X31Y1D01*
X32Y1D01*
X33Y1D01*
X34Y1D01*
X35Y1D01*
X36Y1D01*
X37Y1D01*
X38Y1D01*
X39Y1D01*
X40Y1D01*
X41Y1D01*
X42Y1D01*
X43Y1D01*
X44Y1D01*
X45Y1D01*
X46Y1D01*
X47Y1D01*
X48Y1D01*
X49Y1D01*
X50Y1D01*
X51Y1D01*
X52Y1D01*
X53Y1D01*
X54Y1D01*
X55Y1D01*
X56Y1D01*
X57Y1D01*
X58Y1D01*
X59Y1D01*
X60Y1D01*
X61Y1D01*
X62Y1D01*
X63Y1D01*
X64Y1D01*
X65Y1D01*
X66Y1D01*
X67Y1D01*
X68Y1D01*
X69Y1D01*
X70Y1D01*
X71Y1D01*
X72Y1D01*
X73Y1D01*
X74Y1D01*
X75Y1D01*
X76Y1D01*
X77Y1D01*
X78Y1D01*
X79Y1D01*
X80Y1D01*
X81Y1D01*
X82Y1D01*
X83Y1D01*
X84Y1D01*
X85Y1D01*
X86Y1D01*
X87Y1D01*
X88Y1D01*
X89Y1D01*
X90Y1D01*
X91Y1D01*
X92Y1D01*
X93Y1D01*
X94Y1D01*
X95Y1D01*
X96Y1D01*
X97Y1D01*
X98Y1D01*
X99Y1D01*
X100Y1D01*
X101Y1D01*
X102Y1D01*
X103Y1D01*
X104Y1D01*
X105Y1D01*
X106Y1D01*
X107Y1D01*
X108Y1D01*
X109Y1D01*
X110Y1D01*
X111Y1D01*
X112Y1D01*
X113Y1D01*
X114Y1D01*
X115Y1D01*
X116Y1D01*
X117Y1D01*
X118Y1D01*
X119Y1D01*
X120Y1D01*
X121Y1D01*
X122Y1D01*
X123Y1D01*
X124Y1D01*
X125Y1D01*
X126Y1D01*
X127Y1D01*
X128Y1D01*
X129Y1D01*
X130Y1D01*
X131Y1D01*
X132Y1D01*
X133Y1D01*
X134Y1D01*
X135Y1D01*
X136Y1D01*
X137Y1D01*
X138Y1D01*
X139Y1D01*
X140Y1D01*
X141Y1D01*
X142Y1D01*
X143Y1D01*
X144Y1D01*
X145Y1D01*
X146Y1D01*
X147Y1D01*
X148Y1D01*
X149Y1D01*
X150Y1D01*
X151Y1D01*
X152Y1D01*
X153Y1D01*
X154Y1D01*
X155Y1D01*
X156Y1D01*
X157Y1D01*
X158Y1D01*
X159Y1D01*
X160Y1D01*
X161Y1D01*
X162Y1D01*
X163Y1D01*
X164Y1D01*
X165Y1D01*
X166Y1D01*
X167Y1D01*
X168Y1D01*
X169Y1D01*
X170Y1D01*
X171Y1D01*
X172Y1D01*
X173Y1D01*
X174Y1D01*
X175Y1D01*
X176Y1D01*
X177Y1D01*
X178Y1D01*
X179Y1D01*
X180Y1D01*
X181Y1D01*
X182Y1D01*
X183Y1D01*
X184Y1D01*
X185Y1D01*
X186Y1D01*
X187Y1D01*
X188Y1D01*
X189Y1D01*
X190Y1D01*
X191Y1D01*
X192Y1D01*
X193Y1D01*
X194Y1D01*
X195Y1D01*
X196Y1D01*
X197Y1D01*
X198Y1D01*
X199Y1D01*
X200Y1D01*
X201Y1D01*
X202Y1D01*
X203Y1D01*
X204Y1D01*
X205Y1D01*
X206Y1D01*
X207Y1D01*
X208Y1D01*
X209Y1D01*
X210Y1D01*
X211Y1D01*
X212Y1D01*
X213Y1D01*
X214Y1D01*
X215Y1D01*
X216Y1D01*
X217Y1D01*
X218Y1D01*
X219Y1D01*
X220Y1D01*
X221Y1D01*
X222Y1D01*
X223Y1D01*
X224Y1D01*
X225Y1D01*
X226Y1D01*
X227Y1D01*
X228Y1D01*
X229Y1D01*
X230Y1D01*
X231Y1D01*
X232Y1D01*
X233Y1D01*
X234Y1D01*
X235Y1D01*
X236Y1D01*
X237Y1D01*
X238Y1D01*
X239Y1D01*
X240Y1D01*
X241Y1D01*
X242Y1D01*
X243Y1D01*
X244Y1D01*
X245Y1D01*
X246Y1D01*
X247Y1D01*
X248Y1D01*
X249Y1D01*
X250Y1D01*
X251Y1D01*
X252Y1D01*
X253Y1D01*
X254Y1D01*
X255Y1D01*
X256Y1D01*
X257Y1D01*
X258Y1D01*
X259Y1D01*
X260Y1D01*
X261Y1D01*
X262Y1D01*
X263Y1D01*
X264Y1D01*
X265Y1D01*
X266Y1D01*
X267Y1D01*
X268Y1D01*
X269Y1D01*
X270Y1D01*
X271Y1D01*
X272Y1D01*
X273Y1D01*
X274Y1D01*
X275Y1D01*
X276Y1D01*
X277Y1D01*
X278Y1D01*
X279Y1D01*
X280Y1D01*
X281Y1D01*
X282Y1D01*
X283Y1D01*
X284Y1D01*
X285Y1D01*
X286Y1D01*
X287Y1D01*
X288Y1D01*
X289Y1D01*
X290Y1D01*
X291Y1D01*
X292Y1D01*
X293Y1D01*
X294Y1D01*
X295Y1D01*
X296Y1D01*
X297Y1D01*
X298Y1D01*
X299Y1D01*
X300Y1D01*
X301Y1D01*
X302Y1D01*
X303Y1D01*
X304Y1D01*
X305Y1D01*
X306Y1D01*
X307Y1D01*
X308Y1D01*
X309Y1D01*
X310Y1D01*
X311Y1D01*
X312Y1D01*
X313Y1D01*
X314Y1D01*
X315Y1D01*
X316Y1D01*
X317Y1D01*
X318Y1D01*
X319Y1D01*
X320Y1D01*
X321Y1D01*
X322Y1D01*
X323Y1D01*
X324Y1D01*
X325Y1D01*
X326Y1D01*
X327Y1D01*
X328Y1D01*
X329Y1D01*
X330Y1D01*
X331Y1D01*
X332Y1D01*
X333Y1D01*
X334Y1D01*
X335Y1D01*
X336Y1D01*
X337Y1D01*
X338Y1D01*
X339Y1D01*
X340Y1D01*
X341Y1D01*
X342Y1D01*
X343Y1D01*
X344Y1D01*
X345Y1D01*
X346Y1D01*
X347Y1D01*
X348Y1D01*
X349Y1D01*
X350Y1D01*
X351Y1D01*
X352Y1D01*
X353Y1D01*
X354Y1D01*
X355Y1D01*
X356Y1D01*
X357Y1D01*
X358Y1D01*
X359Y1D01*
X360Y1D01*
X361Y1D01*
X362Y1D01*
X363Y1D01*
X364Y1D01*
X365Y1D01*
X366Y1D01*
X367Y1D01*
X368Y1D01*
X369Y1D01*
X370Y1D01*
X371Y1D01*
X372Y1D01*
X373Y1D01*
X374Y1D01*
X375Y1D01*
X376Y1D01*
X377Y1D01*
X378Y1D01*
X379Y1D01*
X380Y1D01*
X381Y1D01*
X382Y1D01*
X383Y1D01*
X384Y1D01*
X385Y1D01*
X386Y1D01*
X387Y1D01*
X388Y1D01*
X389Y1D01*
X390Y1D01*
X391Y1D01*
X392Y1D01*
X393Y1D01*
X394Y1D01*
X395Y1D01*
X396Y1D01*
X397Y1D01*
X398Y1D01*
X399Y1D01*
X400Y1D01*
X401Y1D01*
X402Y1D01*
X403Y1D01*
X404Y1D01*
X405Y1D01*
X406Y1D01*
X407Y1D01*
X408Y1D01*
X409Y1D01*
X410Y1D01*
X411Y1D01*
X412Y1D01*
X413Y1D01*
X414Y1D01*
X415Y1D01*
X416Y1D01*
X417Y1D01*
X418Y1D01*
X419Y1D01*
X420Y1D01*
X421Y1D01*
X422Y1D01*
X423Y1D01*
X424Y1D01*
X425Y1D01*
X426Y1D01*
X427Y1D01*
X428Y1D01*
X429Y1D01*
X430Y1D01*
X431Y1D01*
X432Y1D01*
X433Y1D01*
X434Y1D01*
X435Y1D01*
X436Y1D01*
X437Y1D01*
X438Y1D01*
X439Y1D01*
X440Y1D01*
X441Y1D01*
X442Y1D01*
X443Y1D01*
X444Y1D01*
X445Y1D01*
X446Y1D01*
X447Y1D01*
X448Y1D01*
X449Y1D01*
X450Y1D01*
X451Y1D01*
X452Y1D01*
X453Y1D01*
X454Y1D01*
X455Y1D01*
X456Y1D01*
X457Y1D01*
X458Y1D01*
X459Y1D01*
X460Y1D01*
X461Y1D01*
X462Y1D01*
X463Y1D01*
X464Y1D01*
X465Y1D01*
X466Y1D01*
X467Y1D01*
X468Y1D01*
X469Y1D01*
X470Y1D01*
X471Y1D01*
X472Y1D01*
X473Y1D01*
X474Y1D01*
X475Y1D01*
X476Y1D01*
X477Y1D01*
X478Y1D01*
X479Y1D01*
X480Y1D01*
X481Y1D01*
X482Y1D01*
X483Y1D01*
X484Y1D01*
X485Y1D01*
X486Y1D01*
X487Y1D01*
X488Y1D01*
X489Y1D01*
X490Y1D01*
X491Y1D01*
X492Y1D01*
X493Y1D01*
X494Y1D01*
X495Y1D01*
X496Y1D01*
X497Y1D01*
X498Y1D01*
X499Y1D01*
X500Y1D01*
X501Y1D01*
X502Y1D01*
X503Y1D01*
X504Y1D01*
X505Y1D01*
X506Y1D01*
X507Y1D01*
X508Y1D01*
X509Y1D01*
X510Y1D01*
X511Y1D01*
X512Y1D01*
X513Y1D01*
X514Y1D01*
X515Y1D01*
X516Y1D01*
X517Y1D01*
X518Y1D01*
X519Y1D01*
X520Y1D01*
X521Y1D01*
X522Y1D01*
X523Y1D01*
X524Y1D01*
X525Y1D01*
X526Y1D01*
X527Y1D01*
X528Y1D01*
X529Y1D01*
X530Y1D01*
X531Y1D01*
X532Y1D01*
X533Y1D01*
X534Y1D01*
X535Y1D01*
X536Y1D01*
X537Y1D01*
X538Y1D01*
X539Y1D01*
X540Y1D01*
X541Y1D01*
X542Y1D01*
X543Y1D01*
X544Y1D01*
X545Y1D01*
X546Y1D01*
X547Y1D01*
X548Y1D01*
X549Y1D01*
X550Y1D01*
X551Y1D01*
X552Y1D01*
X553Y1D01*
X554Y1D01*
X555Y1D01*
X556Y1D01*
X557Y1D01*
X558Y1D01*
X559Y1D01*
X560Y1D01*
X561Y1D01*
X562Y1D01*
X563Y1D01*
X564Y1D01*
X565Y1D01*
X566Y1D01*
X567Y1D01*
X568Y1D01*
X569Y1D01*
X570Y1D01*
X571Y1D01*
X572Y1D01*
X573Y1D01*
X574Y1D01*
X575Y1D01*
X576Y1D01*
X577Y1D01*
X578Y1D01*
X579Y1D01*
X580Y1D01*
X581Y1D01*
X582Y1D01*
X583Y1D01*
X584Y1D01*
X585Y1D01*
X586Y1D01*
X587Y1D01*
X588Y1D01*
X589Y1D01*
X590Y1D01*
X591Y1D01*
X592Y1D01*
X593Y1D01*
X594Y1D01*
X595Y1D01*
X596Y1D01*
X597Y1D01*
X598Y1D01*
X599Y1D01*
X600Y1D01*
X601Y1D01*
X602Y1D01*
X603Y1D01*
X604Y1D01*
X605Y1D01*
X606Y1D01*
X607Y1D01*
X608Y1D01*
X609Y1D01*
X610Y1D01*
X611Y1D01*
X612Y1D01*
X613Y1D01*
X614Y1D01*
X615Y1D01*
X616Y1D01*
X617Y1D01*
X618Y1D01*
X619Y1D01*
X620Y1D01*
X621Y1D01*
X622Y1D01*
X623Y1D01*
X624Y1D01*
X625Y1D01*
X626Y1D01*
X627Y1D01*
X628Y1D01*
X629Y1D01*
X630Y1D01*
X631Y1D01*
X632Y1D01*
X633Y1D01*
X634Y1D01*
X635Y1D01*
X636Y1D01*
X637Y1D01*
X638Y1D01*
X639Y1D01*
X640Y1D01*
X641Y1D01*
X642Y1D01*
X643Y1D01*
X644Y1D01*
X645Y1D01*
X646Y1D01*
X647Y1D01*
X648Y1D01*
X649Y1D01*
X650Y1D01*
X651Y1D01*
X652Y1D01*
X653Y1D01*
X654Y1D01*
X655Y1D01*
X656Y1D01*
X657Y1D01*
X658Y1D01*
X659Y1D01*
X660Y1D01*
X661Y1D01*
X662Y1D01*
X663Y1D01*
X664Y1D01*
X665Y1D01*
X666Y1D01*
X667Y1D01*
X668Y1D01*
X669Y1D01*
X670Y1D01*
X671Y1D01*
X672Y1D01*
X673Y1D01*
X674Y1D01*
X675Y1D01*
X676Y1D01*
X677Y1D01*
X678Y1D01*
X679Y1D01*
X680Y1D01*
X681Y1D01*
X682Y1D01*
X683Y1D01*
X684Y1D01*
X685Y1D01*
X686Y1D01*
X687Y1D01*
X688Y1D01*
X689Y1D01*
X690Y1D01*
X691Y1D01*
X692Y1D01*
X693Y1D01*
X694Y1D01*
X695Y1D01*
X696Y1D01*
X697Y1D01*
X698Y1D01*
X699Y1D01*
X700Y1D01*
X701Y1D01*
X702Y1D01*
X703Y1D01*
X704Y1D01*
X705Y1D01*
X706Y1D01*
X707Y1D01*
X708Y1D01*
X709Y1D01*
X710Y1D01*
X711Y1D01*
X712Y1D01*
X713Y1D01*
X714Y1D01*
X715Y1D01*
X716Y1D01*
X717Y1D01*
X718Y1D01*
X719Y1D01*
X720Y1D01*
X721Y1D01*
X722Y1D01*
X723Y1D01*
X724Y1D01*
X725Y1D01*
X726Y1D01*
X727Y1D01*
X728Y1D01*
X729Y1D01*
X730Y1D01*
X731Y1D01*
X732Y1D01*
X733Y1D01*
X734Y1D01*
X735Y1D01*
X736Y1D01*
X737Y1D01*
X738Y1D01*
X739Y1D01*
X740Y1D01*
X741Y1D01*
X742Y1D01*
X743Y1D01*
X744Y1D01*
X745Y1D01*
X746Y1D01*
X747Y1D01*
X748Y1D01*
X749Y1D01*
X750Y1D01*
X751Y1D01*
X752Y1D01*
X753Y1D01*
X754Y1D01*
X755Y1D01*
X756Y1D01*
X757Y1D01*
X758Y1D01*
X759Y1D01*
X760Y1D01*
X761Y1D01*
X762Y1D01*
X763Y1D01*
X764Y1D01*
X765Y1D01*
X766Y1D01*
X767Y1D01*
X768Y1D01*
X769Y1D01*
X770Y1D01*
X771Y1D01*
X772Y1D01*
X773Y1D01*
X774Y1D01*
X775Y1D01*
X776Y1D01*
X777Y1D01*
X778Y1D01*
X779Y1D01*
X780Y1D01*
X781Y1D01*
X782Y1D01*
X783Y1D01*
X784Y1D01*
X785Y1D01*
X786Y1D01*
X787Y1D01*
X788Y1D01*
X789Y1D01*
X790Y1D01*
X791Y1D01*
X792Y1D01*
X793Y1D01*
X794Y1D01*
X795Y1D01*
X796Y1D01*
X797Y1D01*
X798Y1D01*
X799Y1D01*
X800Y1D01*
X801Y1D01*
X802Y1D01*
X803Y1D01*
X804Y1D01*
X805Y1D01*
X806Y1D01*
X807Y1D01*
X808Y1D01*
X809Y1D01*
X810Y1D01*
X811Y1D01*
X812Y1D01*
X813Y1D01*
X814Y1D01*
X815Y1D01*
X816Y1D01*
X817Y1D01*
X818Y1D01*
X819Y1D01*
X820Y1D01*
X821Y1D01*
X822Y1D01*
X823Y1D01*
X824Y1D01*
X825Y1D01*
X826Y1D01*
X827Y1D01*
X828Y1D01*
X829Y1D01*
X830Y1D01*
X831Y1D01*
X832Y1D01*
X833Y1D01*
X834Y1D01*
X835Y1D01*
X836Y1D01*
X837Y1D01*
X838Y1D01*
X839Y1D01*
X840Y1D01*
X841Y1D01*
X842Y1D01*
X843Y1D01*
X844Y1D01*
X845Y1D01*
X846Y1D01*
X847Y1D01*
X848Y1D01*
X849Y1D01*
X850Y1D01*
X851Y1D01*
X852Y1D01*
X853Y1D01*
X854Y1D01*
X855Y1D01*
X856Y1D01*
X857Y1D01*
X858Y1D01*
X859Y1D01*
X860Y1D01*
X861Y1D01*
X862Y1D01*
X863Y1D01*
X864Y1D01*
X865Y1D01*
X866Y1D01*
X867Y1D01*
X868Y1D01*
X869Y1D01*
X870Y1D01*
X871Y1D01*
X872Y1D01*
X873Y1D01*
X874Y1D01*
X875Y1D01*
X876Y1D01*
X877Y1D01*
X878Y1D01*
X879Y1D01*
X880Y1D01*
X881Y1D01*
X882Y1D01*
X883Y1D01*
X884Y1D01*
X885Y1D01*
X886Y1D01*
X887Y1D01*
X888Y1D01*
X889Y1D01*
X890Y1D01*
X891Y1D01*
X892Y1D01*
X893Y1D01*
X894Y1D01*
X895Y1D01*
X896Y1D01*
X897Y1D01*
X898Y1D01*
X899Y1D01*
X900Y1D01*
X901Y1D01*
X902Y1D01*
X903Y1D01*
X904Y1D01*
X905Y1D01*
X906Y1D01*
X907Y1D01*
X908Y1D01*
X909Y1D01*
X910Y1D01*
X911Y1D01*
X912Y1D01*
X913Y1D01*
X914Y1D01*
X915Y1D01*
X916Y1D01*
X917Y1D01*
X918Y1D01*
X919Y1D01*
X920Y1D01*
X921Y1D01*
X922Y1D01*
X923Y1D01*
X924Y1D01*
X925Y1D01*
X926Y1D01*
X927Y1D01*
X928Y1D01*
X929Y1D01*
X930Y1D01*
X931Y1D01*
X932Y1D01*
X933Y1D01*
X934Y1D01*
X935Y1D01*
X936Y1D01*
X937Y1D01*
X938Y1D01*
X939Y1D01*
X940Y1D01*
X941Y1D01*
X942Y1D01*
X943Y1D01*
X944Y1D01*
X945Y1D01*
X946Y1D01*
X947Y1D01*
X948Y1D01*
X949Y1D01*
X950Y1D01*
X951Y1D01*
X952Y1D01*
X953Y1D01*
X954Y1D01*
X955Y1D01*
X956Y1D01*
X957Y1D01*
X958Y1D01*
X959Y1D01*
X960Y1D01*
X961Y1D01*
X962Y1D01*
X963Y1D01*
X964Y1D01*
X965Y1D01*
X966Y1D01*
X967Y1D01*
X968Y1D01*
X969Y1D01*
X970Y1D01*
X971Y1D01*
X972Y1D01*
X973Y1D01*
X974Y1D01*
X975Y1D01*
X976Y1D01*
X977Y1D01*
X978Y1D01*
X979Y1D01*
X980Y1D01*
X981Y1D01*
X982Y1D01*
X983Y1D01*
X984Y1D01*
X985Y1D01*
X986Y1D01*
X987Y1D01*
X988Y1D01*
X989Y1D01*
X990Y1D01*
X991Y1D01*
X992Y1D01*
X993Y1D01*
X994Y1D01*
X995Y1D01*
X996Y1D01*
X997Y1D01*
X998Y1D01*
X999Y1D01*
X1000Y1D01*
X1001Y1D01*
X1002Y1D01*
X1003Y1D01*
X1004Y1D01*
X1005Y1D01*
X1006Y1D01*
X1007Y1D01*
X1008Y1D01*
X1009Y1D01*
X1010Y1D01*
X1011Y1D01*
X1012Y1D01*
X1013Y1D01*
X1014Y1D01*
X1015Y1D01*
X1016Y1D01*
X1017Y1D01*
X1018Y1D01*
X1019Y1D01*
X1020Y1D01*
X1021Y1D01*
X1022Y1D01*
X1023Y1D01*
X1024Y1D01*
X1025Y1D01*
X1026Y1D01*
X1027Y1D01*
X1028Y1D01*
X1029Y1D01*
X1030Y1D01*
X1031Y1D01*
X1032Y1D01*
X1033Y1D01*
X1034Y1D01*
X1035Y1D01*
X1036Y1D01*
X1037Y1D01*
X1038Y1D01*
X1039Y1D01*
X1040Y1D01*
X1041Y1D01*
X1042Y1D01*
X1043Y1D01*
X1044Y1D01*
X1045Y1D01*
X1046Y1D01*
X1047Y1D01*
X1048Y1D01*
X1049Y1D01*
X1050Y1D01*
X1051Y1D01*
X1052Y1D01*
X1053Y1D01*
X1054Y1D01*
X1055Y1D01*
X1056Y1D01*
X1057Y1D01*
X1058Y1D01*
X1059Y1D01*
X1060Y1D01*
X1061Y1D01*
X1062Y1D01*
X1063Y1D01*
X1064Y1D01*
X1065Y1D01*
X1066Y1D01*
X1067Y1D01*
X1068Y1D01*
X1069Y1D01*
X1070Y1D01*
X1071Y1D01*
X1072Y1D01*
X1073Y1D01*
X1074Y1D01*
X1075Y1D01*
X1076Y1D01*
X1077Y1D01*
X1078Y1D01*
X1079Y1D01*
X1080Y1D01*
X1081Y1D01*
X1082Y1D01*
X1083Y1D01*
X1084Y1D01*
X1085Y1D01*
X1086Y1D01*
X1087Y1D01*
X1088Y1D01*
X1089Y1D01*
X1090Y1D01*
X1091Y1D01*
X1092Y1D01*
X1093Y1D01*
X1094Y1D01*
X1095Y1D01*
X1096Y1D01*
X1097Y1D01*
X1098Y1D01*
X1099Y1D01*
X1100Y1D01*
X1101Y1D01*
X1102Y1D01*
X1103Y1D01*
X1104Y1D01*
X1105Y1D01*
X1106Y1D01*
X1107Y1D01*
X1108Y1D01*
X1109Y1D01*
X1110Y1D01*
X1111Y1D01*
X1112Y1D01*
X1113Y1D01*
X1114Y1D01*
X1115Y1D01*
X1116Y1D01*
X1117Y1D01*
X1118Y1D01*
X1119Y1D01*
X1120Y1D01*
X1121Y1D01*
X1122Y1D01*
X1123Y1D01*
X1124Y1D01*
X1125Y1D01*
X1126Y1D01*
X1127Y1D01*
X1128Y1D01*
X1129Y1D01*
X1130Y1D01*
X1131Y1D01*
X1132Y1D01*
X1133Y1D01*
X1134Y1D01*
X1135Y1D01*
X1136Y1D01*
X1137Y1D01*
X1138Y1D01*
X1139Y1D01*
X1140Y1D01*
X1141Y1D01*
X1142Y1D01*
X1143Y1D01*
X1144Y1D01*
X1145Y1D01*
X1146Y1D01*
X1147Y1D01*
X1148Y1D01*
X1149Y1D01*
X1150Y1D01*
X1151Y1D01*
X1152Y1D01*
X1153Y1D01*
X1154Y1D01*
X1155Y1D01*
X1156Y1D01*
X1157Y1D01*
X1158Y1D01*
X1159Y1D01*
X1160Y1D01*
X1161Y1D01*
X1162Y1D01*
X1163Y1D01*
X1164Y1D01*
X1165Y1D01*
X1166Y1D01*
X1167Y1D01*
X1168Y1D01*
X1169Y1D01*
X1170Y1D01*
X1171Y1D01*
X1172Y1D01*
X1173Y1D01*
X1174Y1D01*
X1175Y1D01*
X1176Y1D01*
X1177Y1D01*
X1178Y1D01*
X1179Y1D01*
X1180Y1D01*
X1180Y1181D01*
X1179Y1181D01*
X1178Y1181D01*
X1177Y1181D01*
X1176Y1181D01*
X1175Y1181D01*
X1174Y1181D01*
X1173Y1181D01*
X1172Y1181D01*
X1171Y1181D01*
X1170Y1181D01*
X1169Y1181D01*
X1168Y1181D01*
X1167Y1181D01*
X1166Y1181D01*
X1165Y1181D01*
X1164Y1181D01*
X1163Y1181D01*
X1162Y1181D01*
X1161Y1181D01*
X1160Y1181D01*
X1159Y1181D01*
X1158Y1181D01*
X1157Y1181D01*
X1156Y1181D01*
X1155Y1181D01*
X1154Y1181D01*
X1153Y1181D01*
X1152Y1181D01*
X1151Y1181D01*
X1150Y1181D01*
X1149Y1181D01*
X1148Y1181D01*
X1147Y1181D01*
X1146Y1181D01*
X1145Y1181D01*
X1144Y1181D01*
X1143Y1181D01*
X1142Y1181D01*
X1141Y1181D01*
X1140Y1181D01*
X1139Y1181D01*
X1138Y1181D01*
X1137Y1181D01*
X1136Y1181D01*
X1135Y1181D01*
X1134Y1181D01*
X1133Y1181D01*
X1132Y1181D01*
X1131Y1181D01*
X1130Y1181D01*
X1129Y1181D01*
X1128Y1181D01*
X1127Y1181D01*
X1126Y1181D01*
X1125Y1181D01*
X1124Y1181D01*
X1123Y1181D01*
X1122Y1181D01*
X1121Y1181D01*
X1120Y1181D01*
X1119Y1181D01*
X1118Y1181D01*
X1117Y1181D01*
X1116Y1181D01*
X1115Y1181D01*
X1114Y1181D01*
X1113Y1181D01*
X1112Y1181D01*
X1111Y1181D01*
X1110Y1181D01*
X1109Y1181D01*
X1108Y1181D01*
X1107Y1181D01*
X1106Y1181D01*
X1105Y1181D01*
X1104Y1181D01*
X1103Y1181D01*
X1102Y1181D01*
X1101Y1181D01*
X1100Y1181D01*
X1099Y1181D01*
X1098Y1181D01*
X1097Y1181D01*
X1096Y1181D01*
X1095Y1181D01*
X1094Y1181D01*
X1093Y1181D01*
X1092Y1181D01*
X1091Y1181D01*
X1090Y1181D01*
X1089Y1181D01*
X1088Y1181D01*
X1087Y1181D01*
X1086Y1181D01*
X1085Y1181D01*
X1084Y1181D01*
X1083Y1181D01*
X1082Y1181D01*
X1081Y1181D01*
X1080Y1181D01*
X1079Y1181D01*
X1078Y1181D01*
X1077Y1181D01*
X1076Y1181D01*
X1075Y1181D01*
X1074Y1181D01*
X1073Y1181D01*
X1072Y1181D01*
X1071Y1181D01*
X1070Y1181D01*
X1069Y1181D01*
X1068Y1181D01*
X1067Y1181D01*
X1066Y1181D01*
X1065Y1181D01*
X1064Y1181D01*
X1063Y1181D01*
X1062Y1181D01*
X1061Y1181D01*
X1060Y1181D01*
X1059Y1181D01*
X1058Y1181D01*
X1057Y1181D01*
X1056Y1181D01*
X1055Y1181D01*
X1054Y1181D01*
X1053Y1181D01*
X1052Y1181D01*
X1051Y1181D01*
X1050Y1181D01*
X1049Y1181D01*
X1048Y1181D01*
X1047Y1181D01*
X1046Y1181D01*
X1045Y1181D01*
X1044Y1181D01*
X1043Y1181D01*
X1042Y1181D01*
X1041Y1181D01*
X1040Y1181D01*
X1039Y1181D01*
X1038Y1181D01*
X1037Y1181D01*
X1036Y1181D01*
X1035Y1181D01*
X1034Y1181D01*
X1033Y1181D01*
X1032Y1181D01*
X1031Y1181D01*
X1030Y1181D01*
X1029Y1181D01*
X1028Y1181D01*
X1027Y1181D01*
X1026Y1181D01*
X1025Y1181D01*
X1024Y1181D01*
X1023Y1181D01*
X1022Y1181D01*
X1021Y1181D01*
X1020Y1181D01*
X1019Y1181D01*
X1018Y1181D01*
X1017Y1181D01*
X1016Y1181D01*
X1015Y1181D01*
X1014Y1181D01*
X1013Y1181D01*
X1012Y1181D01*
X1011Y1181D01*
X1010Y1181D01*
X1009Y1181D01*
X1008Y1181D01*
X1007Y1181D01*
X1006Y1181D01*
X1005Y1181D01*
X1004Y1181D01*
X1003Y1181D01*
X1002Y1181D01*
X1001Y1181D01*
X1000Y1181D01*
X999Y1181D01*
X998Y1181D01*
X997Y1181D01*
X996Y1181D01*
X995Y1181D01*
X994Y1181D01*
X993Y1181D01*
X992Y1181D01*
X991Y1181D01*
X990Y1181D01*
X989Y1181D01*
X988Y1181D01*
X987Y1181D01*
X986Y1181D01*
X985Y1181D01*
X984Y1181D01*
X983Y1181D01*
X982Y1181D01*
X981Y1181D01*
X980Y1181D01*
X979Y1181D01*
X978Y1181D01*
X977Y1181D01*
X976Y1181D01*
X975Y1181D01*
X974Y1181D01*
X973Y1181D01*
X972Y1181D01*
X971Y1181D01*
X970Y1181D01*
X969Y1181D01*
X968Y1181D01*
X967Y1181D01*
X966Y1181D01*
X965Y1181D01*
X964Y1181D01*
X963Y1181D01*
X962Y1181D01*
X961Y1181D01*
X960Y1181D01*
X959Y1181D01*
X958Y1181D01*
X957Y1181D01*
X956Y1181D01*
X955Y1181D01*
X954Y1181D01*
X953Y1181D01*
X952Y1181D01*
X951Y1181D01*
X950Y1181D01*
X949Y1181D01*
X948Y1181D01*
X947Y1181D01*
X946Y1181D01*
X945Y1181D01*
X944Y1181D01*
X943Y1181D01*
X942Y1181D01*
X941Y1181D01*
X940Y1181D01*
X939Y1181D01*
X938Y1181D01*
X937Y1181D01*
X936Y1181D01*
X935Y1181D01*
X934Y1181D01*
X933Y1181D01*
X932Y1181D01*
X931Y1181D01*
X930Y1181D01*
X929Y1181D01*
X928Y1181D01*
X927Y1181D01*
X926Y1181D01*
X925Y1181D01*
X924Y1181D01*
X923Y1181D01*
X922Y1181D01*
X921Y1181D01*
X920Y1181D01*
X919Y1181D01*
X918Y1181D01*
X917Y1181D01*
X916Y1181D01*
X915Y1181D01*
X914Y1181D01*
X913Y1181D01*
X912Y1181D01*
X911Y1181D01*
X910Y1181D01*
X909Y1181D01*
X908Y1181D01*
X907Y1181D01*
X906Y1181D01*
X905Y1181D01*
X904Y1181D01*
X903Y1181D01*
X902Y1181D01*
X901Y1181D01*
X900Y1181D01*
X899Y1181D01*
X898Y1181D01*
X897Y1181D01*
X896Y1181D01*
X895Y1181D01*
X894Y1181D01*
X893Y1181D01*
X892Y1181D01*
X891Y1181D01*
X890Y1181D01*
X889Y1181D01*
X888Y1181D01*
X887Y1181D01*
X886Y1181D01*
X885Y1181D01*
X884Y1181D01*
X883Y1181D01*
X882Y1181D01*
X881Y1181D01*
X880Y1181D01*
X879Y1181D01*
X878Y1181D01*
X877Y1181D01*
X876Y1181D01*
X875Y1181D01*
X874Y1181D01*
X873Y1181D01*
X872Y1181D01*
X871Y1181D01*
X870Y1181D01*
X869Y1181D01*
X868Y1181D01*
X867Y1181D01*
X866Y1181D01*
X865Y1181D01*
X864Y1181D01*
X863Y1181D01*
X862Y1181D01*
X861Y1181D01*
X860Y1181D01*
X859Y1181D01*
X858Y1181D01*
X857Y1181D01*
X856Y1181D01*
X855Y1181D01*
X854Y1181D01*
X853Y1181D01*
X852Y1181D01*
X851Y1181D01*
X850Y1181D01*
X849Y1181D01*
X848Y1181D01*
X847Y1181D01*
X846Y1181D01*
X845Y1181D01*
X844Y1181D01*
X843Y1181D01*
X842Y1181D01*
X841Y1181D01*
X840Y1181D01*
X839Y1181D01*
X838Y1181D01*
X837Y1181D01*
X836Y1181D01*
X835Y1181D01*
X834Y1181D01*
X833Y1181D01*
X832Y1181D01*
X831Y1181D01*
X830Y1181D01*
X829Y1181D01*
X828Y1181D01*
X827Y1181D01*
X826Y1181D01*
X825Y1181D01*
X824Y1181D01*
X823Y1181D01*
X822Y1181D01*
X821Y1181D01*
X820Y1181D01*
X819Y1181D01*
X818Y1181D01*
X817Y1181D01*
X816Y1181D01*
X815Y1181D01*
X814Y1181D01*
X813Y1181D01*
X812Y1181D01*
X811Y1181D01*
X810Y1181D01*
X809Y1181D01*
X808Y1181D01*
X807Y1181D01*
X806Y1181D01*
X805Y1181D01*
X804Y1181D01*
X803Y1181D01*
X802Y1181D01*
X801Y1181D01*
X800Y1181D01*
X799Y1181D01*
X798Y1181D01*
X797Y1181D01*
X796Y1181D01*
X795Y1181D01*
X794Y1181D01*
X793Y1181D01*
X792Y1181D01*
X791Y1181D01*
X790Y1181D01*
X789Y1181D01*
X788Y1181D01*
X787Y1181D01*
X786Y1181D01*
X785Y1181D01*
X784Y1181D01*
X783Y1181D01*
X782Y1181D01*
X781Y1181D01*
X780Y1181D01*
X779Y1181D01*
X778Y1181D01*
X777Y1181D01*
X776Y1181D01*
X775Y1181D01*
X774Y1181D01*
X773Y1181D01*
X772Y1181D01*
X771Y1181D01*
X770Y1181D01*
X769Y1181D01*
X768Y1181D01*
X767Y1181D01*
X766Y1181D01*
X765Y1181D01*
X764Y1181D01*
X763Y1181D01*
X762Y1181D01*
X761Y1181D01*
X760Y1181D01*
X759Y1181D01*
X758Y1181D01*
X757Y1181D01*
X756Y1181D01*
X755Y1181D01*
X754Y1181D01*
X753Y1181D01*
X752Y1181D01*
X751Y1181D01*
X750Y1181D01*
X749Y1181D01*
X748Y1181D01*
X747Y1181D01*
X746Y1181D01*
X745Y1181D01*
X744Y1181D01*
X743Y1181D01*
X742Y1181D01*
X741Y1181D01*
X740Y1181D01*
X739Y1181D01*
X738Y1181D01*
X737Y1181D01*
X736Y1181D01*
X735Y1181D01*
X734Y1181D01*
X733Y1181D01*
X732Y1181D01*
X731Y1181D01*
X730Y1181D01*
X729Y1181D01*
X728Y1181D01*
X727Y1181D01*
X726Y1181D01*
X725Y1181D01*
X724Y1181D01*
X723Y1181D01*
X722Y1181D01*
X721Y1181D01*
X720Y1181D01*
X719Y1181D01*
X718Y1181D01*
X717Y1181D01*
X716Y1181D01*
X715Y1181D01*
X714Y1181D01*
X713Y1181D01*
X712Y1181D01*
X711Y1181D01*
X710Y1181D01*
X709Y1181D01*
X708Y1181D01*
X707Y1181D01*
X706Y1181D01*
X705Y1181D01*
X704Y1181D01*
X703Y1181D01*
X702Y1181D01*
X701Y1181D01*
X700Y1181D01*
X699Y1181D01*
X698Y1181D01*
X697Y1181D01*
X696Y1181D01*
X695Y1181D01*
X694Y1181D01*
X693Y1181D01*
X692Y1181D01*
X691Y1181D01*
X690Y1181D01*
X689Y1181D01*
X688Y1181D01*
X687Y1181D01*
X686Y1181D01*
X685Y1181D01*
X684Y1181D01*
X683Y1181D01*
X682Y1181D01*
X681Y1181D01*
X680Y1181D01*
X679Y1181D01*
X678Y1181D01*
X677Y1181D01*
X676Y1181D01*
X675Y1181D01*
X674Y1181D01*
X673Y1181D01*
X672Y1181D01*
X671Y1181D01*
X670Y1181D01*
X669Y1181D01*
X668Y1181D01*
X667Y1181D01*
X666Y1181D01*
X665Y1181D01*
X664Y1181D01*
X663Y1181D01*
X662Y1181D01*
X661Y1181D01*
X660Y1181D01*
X659Y1181D01*
X658Y1181D01*
X657Y1181D01*
X656Y1181D01*
X655Y1181D01*
X654Y1181D01*
X653Y1181D01*
X652Y1181D01*
X651Y1181D01*
X650Y1181D01*
X649Y1181D01*
X648Y1181D01*
X647Y1181D01*
X646Y1181D01*
X645Y1181D01*
X644Y1181D01*
X643Y1181D01*
X642Y1181D01*
X641Y1181D01*
X640Y1181D01*
X639Y1181D01*
X638Y1181D01*
X637Y1181D01*
X636Y1181D01*
X635Y1181D01*
X634Y1181D01*
X633Y1181D01*
X632Y1181D01*
X631Y1181D01*
X630Y1181D01*
X629Y1181D01*
X628Y1181D01*
X627Y1181D01*
X626Y1181D01*
X625Y1181D01*
X624Y1181D01*
X623Y1181D01*
X622Y1181D01*
X621Y1181D01*
X620Y1181D01*
X619Y1181D01*
X618Y1181D01*
X617Y1181D01*
X616Y1181D01*
X615Y1181D01*
X614Y1181D01*
X613Y1181D01*
X612Y1181D01*
X611Y1181D01*
X610Y1181D01*
X609Y1181D01*
X608Y1181D01*
X607Y1181D01*
X606Y1181D01*
X605Y1181D01*
X604Y1181D01*
X603Y1181D01*
X602Y1181D01*
X601Y1181D01*
X600Y1181D01*
X599Y1181D01*
X598Y1181D01*
X597Y1181D01*
X596Y1181D01*
X595Y1181D01*
X594Y1181D01*
X593Y1181D01*
X592Y1181D01*
X591Y1181D01*
X590Y1181D01*
X589Y1181D01*
X588Y1181D01*
X587Y1181D01*
X586Y1181D01*
X585Y1181D01*
X584Y1181D01*
X583Y1181D01*
X582Y1181D01*
X581Y1181D01*
X580Y1181D01*
X579Y1181D01*
X578Y1181D01*
X577Y1181D01*
X576Y1181D01*
X575Y1181D01*
X574Y1181D01*
X573Y1181D01*
X572Y1181D01*
X571Y1181D01*
X570Y1181D01*
X569Y1181D01*
X568Y1181D01*
X567Y1181D01*
X566Y1181D01*
X565Y1181D01*
X564Y1181D01*
X563Y1181D01*
X562Y1181D01*
X561Y1181D01*
X560Y1181D01*
X559Y1181D01*
X558Y1181D01*
X557Y1181D01*
X556Y1181D01*
X555Y1181D01*
X554Y1181D01*
X553Y1181D01*
X552Y1181D01*
X551Y1181D01*
X550Y1181D01*
X549Y1181D01*
X548Y1181D01*
X547Y1181D01*
X546Y1181D01*
X545Y1181D01*
X544Y1181D01*
X543Y1181D01*
X542Y1181D01*
X541Y1181D01*
X540Y1181D01*
X539Y1181D01*
X538Y1181D01*
X537Y1181D01*
X536Y1181D01*
X535Y1181D01*
X534Y1181D01*
X533Y1181D01*
X532Y1181D01*
X531Y1181D01*
X530Y1181D01*
X529Y1181D01*
X528Y1181D01*
X527Y1181D01*
X526Y1181D01*
X525Y1181D01*
X524Y1181D01*
X523Y1181D01*
X522Y1181D01*
X521Y1181D01*
X520Y1181D01*
X519Y1181D01*
X518Y1181D01*
X517Y1181D01*
X516Y1181D01*
X515Y1181D01*
X514Y1181D01*
X513Y1181D01*
X512Y1181D01*
X511Y1181D01*
X510Y1181D01*
X509Y1181D01*
X508Y1181D01*
X507Y1181D01*
X506Y1181D01*
X505Y1181D01*
X504Y1181D01*
X503Y1181D01*
X502Y1181D01*
X501Y1181D01*
X500Y1181D01*
X499Y1181D01*
X498Y1181D01*
X497Y1181D01*
X496Y1181D01*
X495Y1181D01*
X494Y1181D01*
X493Y1181D01*
X492Y1181D01*
X491Y1181D01*
X490Y1181D01*
X489Y1181D01*
X488Y1181D01*
X487Y1181D01*
X486Y1181D01*
X485Y1181D01*
X484Y1181D01*
X483Y1181D01*
X482Y1181D01*
X481Y1181D01*
X480Y1181D01*
X479Y1181D01*
X478Y1181D01*
X477Y1181D01*
X476Y1181D01*
X475Y1181D01*
X474Y1181D01*
X473Y1181D01*
X472Y1181D01*
X471Y1181D01*
X470Y1181D01*
X469Y1181D01*
X468Y1181D01*
X467Y1181D01*
X466Y1181D01*
X465Y1181D01*
X464Y1181D01*
X463Y1181D01*
X462Y1181D01*
X461Y1181D01*
X460Y1181D01*
X459Y1181D01*
X458Y1181D01*
X457Y1181D01*
X456Y1181D01*
X455Y1181D01*
X454Y1181D01*
X453Y1181D01*
X452Y1181D01*
X451Y1181D01*
X450Y1181D01*
X449Y1181D01*
X448Y1181D01*
X447Y1181D01*
X446Y1181D01*
X445Y1181D01*
X444Y1181D01*
X443Y1181D01*
X442Y1181D01*
X441Y1181D01*
X440Y1181D01*
X439Y1181D01*
X438Y1181D01*
X437Y1181D01*
X436Y1181D01*
X435Y1181D01*
X434Y1181D01*
X433Y1181D01*
X432Y1181D01*
X431Y1181D01*
X430Y1181D01*
X429Y1181D01*
X428Y1181D01*
X427Y1181D01*
X426Y1181D01*
X425Y1181D01*
X424Y1181D01*
X423Y1181D01*
X422Y1181D01*
X421Y1181D01*
X420Y1181D01*
X419Y1181D01*
X418Y1181D01*
X417Y1181D01*
X416Y1181D01*
X415Y1181D01*
X414Y1181D01*
X413Y1181D01*
X412Y1181D01*
X411Y1181D01*
X410Y1181D01*
X409Y1181D01*
X408Y1181D01*
X407Y1181D01*
X406Y1181D01*
X405Y1181D01*
X404Y1181D01*
X403Y1181D01*
X402Y1181D01*
X401Y1181D01*
X400Y1181D01*
X399Y1181D01*
X398Y1181D01*
X397Y1181D01*
X396Y1181D01*
X395Y1181D01*
X394Y1181D01*
X393Y1181D01*
X392Y1181D01*
X391Y1181D01*
X390Y1181D01*
X389Y1181D01*
X388Y1181D01*
X387Y1181D01*
X386Y1181D01*
X385Y1181D01*
X384Y1181D01*
X383Y1181D01*
X382Y1181D01*
X381Y1181D01*
X380Y1181D01*
X379Y1181D01*
X378Y1181D01*
X377Y1181D01*
X376Y1181D01*
X375Y1181D01*
X374Y1181D01*
X373Y1181D01*
X372Y1181D01*
X371Y1181D01*
X370Y1181D01*
X369Y1181D01*
X368Y1181D01*
X367Y1181D01*
X366Y1181D01*
X365Y1181D01*
X364Y1181D01*
X363Y1181D01*
X362Y1181D01*
X361Y1181D01*
X360Y1181D01*
X359Y1181D01*
X358Y1181D01*
X357Y1181D01*
X356Y1181D01*
X355Y1181D01*
X354Y1181D01*
X353Y1181D01*
X352Y1181D01*
X351Y1181D01*
X350Y1181D01*
X349Y1181D01*
X348Y1181D01*
X347Y1181D01*
X346Y1181D01*
X345Y1181D01*
X344Y1181D01*
X343Y1181D01*
X342Y1181D01*
X341Y1181D01*
X340Y1181D01*
X339Y1181D01*
X338Y1181D01*
X337Y1181D01*
X336Y1181D01*
X335Y1181D01*
X334Y1181D01*
X333Y1181D01*
X332Y1181D01*
X331Y1181D01*
X330Y1181D01*
X329Y1181D01*
X328Y1181D01*
X327Y1181D01*
X326Y1181D01*
X325Y1181D01*
X324Y1181D01*
X323Y1181D01*
X322Y1181D01*
X321Y1181D01*
X320Y1181D01*
X319Y1181D01*
X318Y1181D01*
X317Y1181D01*
X316Y1181D01*
X315Y1181D01*
X314Y1181D01*
X313Y1181D01*
X312Y1181D01*
X311Y1181D01*
X310Y1181D01*
X309Y1181D01*
X308Y1181D01*
X307Y1181D01*
X306Y1181D01*
X305Y1181D01*
X304Y1181D01*
X303Y1181D01*
X302Y1181D01*
X301Y1181D01*
X300Y1181D01*
X299Y1181D01*
X298Y1181D01*
X297Y1181D01*
X296Y1181D01*
X295Y1181D01*
X294Y1181D01*
X293Y1181D01*
X292Y1181D01*
X291Y1181D01*
X290Y1181D01*
X289Y1181D01*
X288Y1181D01*
X287Y1181D01*
X286Y1181D01*
X285Y1181D01*
X284Y1181D01*
X283Y1181D01*
X282Y1181D01*
X281Y1181D01*
X280Y1181D01*
X279Y1181D01*
X278Y1181D01*
X277Y1181D01*
X276Y1181D01*
X275Y1181D01*
X274Y1181D01*
X273Y1181D01*
X272Y1181D01*
X271Y1181D01*
X270Y1181D01*
X269Y1181D01*
X268Y1181D01*
X267Y1181D01*
X266Y1181D01*
X265Y1181D01*
X264Y1181D01*
X263Y1181D01*
X262Y1181D01*
X261Y1181D01*
X260Y1181D01*
X259Y1181D01*
X258Y1181D01*
X257Y1181D01*
X256Y1181D01*
X255Y1181D01*
X254Y1181D01*
X253Y1181D01*
X252Y1181D01*
X251Y1181D01*
X250Y1181D01*
X249Y1181D01*
X248Y1181D01*
X247Y1181D01*
X246Y1181D01*
X245Y1181D01*
X244Y1181D01*
X243Y1181D01*
X242Y1181D01*
X241Y1181D01*
X240Y1181D01*
X239Y1181D01*
X238Y1181D01*
X237Y1181D01*
X236Y1181D01*
X235Y1181D01*
X234Y1181D01*
X233Y1181D01*
X232Y1181D01*
X231Y1181D01*
X230Y1181D01*
X229Y1181D01*
X228Y1181D01*
X227Y1181D01*
X226Y1181D01*
X225Y1181D01*
X224Y1181D01*
X223Y1181D01*
X222Y1181D01*
X221Y1181D01*
X220Y1181D01*
X219Y1181D01*
X218Y1181D01*
X217Y1181D01*
X216Y1181D01*
X215Y1181D01*
X214Y1181D01*
X213Y1181D01*
X212Y1181D01*
X211Y1181D01*
X210Y1181D01*
X209Y1181D01*
X208Y1181D01*
X207Y1181D01*
X206Y1181D01*
X205Y1181D01*
X204Y1181D01*
X203Y1181D01*
X202Y1181D01*
X201Y1181D01*
X200Y1181D01*
X199Y1181D01*
X198Y1181D01*
X197Y1181D01*
X196Y1181D01*
X195Y1181D01*
X194Y1181D01*
X193Y1181D01*
X192Y1181D01*
X191Y1181D01*
X190Y1181D01*
X189Y1181D01*
X188Y1181D01*
X187Y1181D01*
X186Y1181D01*
X185Y1181D01*
X184Y1181D01*
X183Y1181D01*
X182Y1181D01*
X181Y1181D01*
X180Y1181D01*
X179Y1181D01*
X178Y1181D01*
X177Y1181D01*
X176Y1181D01*
X175Y1181D01*
X174Y1181D01*
X173Y1181D01*
X172Y1181D01*
X171Y1181D01*
X170Y1181D01*
X169Y1181D01*
X168Y1181D01*
X167Y1181D01*
X166Y1181D01*
X165Y1181D01*
X164Y1181D01*
X163Y1181D01*
X162Y1181D01*
X161Y1181D01*
X160Y1181D01*
X159Y1181D01*
X158Y1181D01*
X157Y1181D01*
X156Y1181D01*
X155Y1181D01*
X154Y1181D01*
X153Y1181D01*
X152Y1181D01*
X151Y1181D01*
X150Y1181D01*
X149Y1181D01*
X148Y1181D01*
X147Y1181D01*
X146Y1181D01*
X145Y1181D01*
X144Y1181D01*
X143Y1181D01*
X142Y1181D01*
X141Y1181D01*
X140Y1181D01*
X139Y1181D01*
X138Y1181D01*
X137Y1181D01*
X136Y1181D01*
X135Y1181D01*
X134Y1181D01*
X133Y1181D01*
X132Y1181D01*
X131Y1181D01*
X130Y1181D01*
X129Y1181D01*
X128Y1181D01*
X127Y1181D01*
X126Y1181D01*
X125Y1181D01*
X124Y1181D01*
X123Y1181D01*
X122Y1181D01*
X121Y1181D01*
X120Y1181D01*
X119Y1181D01*
X118Y1181D01*
X117Y1181D01*
X116Y1181D01*
X115Y1181D01*
X114Y1181D01*
X113Y1181D01*
X112Y1181D01*
X111Y1181D01*
X110Y1181D01*
X109Y1181D01*
X108Y1181D01*
X107Y1181D01*
X106Y1181D01*
X105Y1181D01*
X104Y1181D01*
X103Y1181D01*
X102Y1181D01*
X101Y1181D01*
X100Y1181D01*
X99Y1181D01*
X98Y1181D01*
X97Y1181D01*
X96Y1181D01*
X95Y1181D01*
X94Y1181D01*
X93Y1181D01*
X92Y1181D01*
X91Y1181D01*
X90Y1181D01*
X89Y1181D01*
X88Y1181D01*
X87Y1181D01*
X86Y1181D01*
X85Y1181D01*
X84Y1181D01*
X83Y1181D01*
X82Y1181D01*
X81Y1181D01*
X80Y1181D01*
X79Y1181D01*
X78Y1181D01*
X77Y1181D01*
X76Y1181D01*
X75Y1181D01*
X74Y1181D01*
X73Y1181D01*
X72Y1181D01*
X71Y1181D01*
X70Y1181D01*
X69Y1181D01*
X68Y1181D01*
X67Y1181D01*
X66Y1181D01*
X65Y1181D01*
X64Y1181D01*
X63Y1181D01*
X62Y1181D01*
X61Y1181D01*
X60Y1181D01*
X59Y1181D01*
X58Y1181D01*
X57Y1181D01*
X56Y1181D01*
X55Y1181D01*
X54Y1181D01*
X53Y1181D01*
X52Y1181D01*
X51Y1181D01*
X50Y1181D01*
X49Y1181D01*
X48Y1181D01*
X47Y1181D01*
X46Y1181D01*
X45Y1181D01*
X44Y1181D01*
X43Y1181D01*
X42Y1181D01*
X41Y1181D01*
X40Y1181D01*
X39Y1181D01*
X38Y1181D01*
X37Y1181D01*
X36Y1181D01*
X35Y1181D01*
X34Y1181D01*
X33Y1181D01*
X32Y1181D01*
X31Y1181D01*
X30Y1181D01*
X29Y1181D01*
X28Y1181D01*
X27Y1181D01*
X26Y1181D01*
X25Y1181D01*
X24Y1181D01*
X23Y1181D01*
X22Y1181D01*
X21Y1181D01*
X20Y1181D01*
X19Y1181D01*
X18Y1181D01*
X17Y1181D01*
X16Y1181D01*
X15Y1181D01*
X14Y1181D01*
X13Y1181D01*
X12Y1181D01*
X11Y1181D01*
X10Y1181D01*
X9Y1181D01*
X8Y1181D01*
X7Y1181D01*
X6Y1181D01*
X5Y1181D01*
X4Y1181D01*
X3Y1181D01*
X2Y1181D01*
X1Y1181D01*
X0Y1181D01*
D02*
G04 End of contour*
M02*