G04 MADE WITH FRITZING*
G04 WWW.FRITZING.ORG*
G04 DOUBLE SIDED*
G04 HOLES PLATED*
G04 CONTOUR ON CENTER OF CONTOUR VECTOR*
%ASAXBY*%
%FSLAX23Y23*%
%MOIN*%
%OFA0B0*%
%SFA1.0B1.0*%
%ADD10R,0.033049X0.033049*%
%ADD11R,0.033050X0.033049*%
%ADD12R,0.033049X0.033050*%
%ADD13R,0.033050X0.033050*%
%ADD14C,0.010000*%
%ADD15R,0.001000X0.001000*%
%LNSILK1*%
G90*
G70*
G54D10*
X921Y1087D03*
G54D11*
X880Y1087D03*
G54D10*
X1003Y1087D03*
X962Y1087D03*
X1044Y1087D03*
G54D12*
X880Y1128D03*
G54D13*
X860Y985D03*
X1065Y985D03*
G54D14*
X740Y123D02*
X440Y123D01*
D02*
X440Y123D02*
X440Y23D01*
D02*
X440Y23D02*
X740Y23D01*
D02*
X740Y23D02*
X740Y123D01*
D02*
X500Y606D02*
X700Y606D01*
D02*
X700Y606D02*
X700Y540D01*
D02*
X700Y540D02*
X500Y540D01*
D02*
X500Y540D02*
X500Y606D01*
D02*
X940Y823D02*
X240Y823D01*
D02*
X240Y823D02*
X240Y723D01*
D02*
X240Y723D02*
X940Y723D01*
D02*
X940Y723D02*
X940Y823D01*
D02*
X423Y364D02*
X423Y164D01*
D02*
X423Y164D02*
X357Y164D01*
D02*
X357Y164D02*
X357Y364D01*
D02*
X357Y364D02*
X423Y364D01*
D02*
X823Y364D02*
X823Y164D01*
D02*
X823Y164D02*
X757Y164D01*
D02*
X757Y164D02*
X757Y364D01*
D02*
X757Y364D02*
X823Y364D01*
G54D15*
X0Y1177D02*
X3Y1177D01*
X0Y1176D02*
X3Y1176D01*
X0Y1175D02*
X3Y1175D01*
X0Y1174D02*
X3Y1174D01*
X0Y1173D02*
X3Y1173D01*
X0Y1172D02*
X3Y1172D01*
X0Y1171D02*
X3Y1171D01*
X0Y1170D02*
X3Y1170D01*
X433Y1170D02*
X762Y1170D01*
X0Y1169D02*
X3Y1169D01*
X433Y1169D02*
X763Y1169D01*
X0Y1168D02*
X3Y1168D01*
X433Y1168D02*
X763Y1168D01*
X0Y1167D02*
X3Y1167D01*
X433Y1167D02*
X763Y1167D01*
X0Y1166D02*
X3Y1166D01*
X433Y1166D02*
X763Y1166D01*
X0Y1165D02*
X3Y1165D01*
X433Y1165D02*
X763Y1165D01*
X0Y1164D02*
X3Y1164D01*
X433Y1164D02*
X763Y1164D01*
X0Y1163D02*
X3Y1163D01*
X433Y1163D02*
X763Y1163D01*
X0Y1162D02*
X3Y1162D01*
X433Y1162D02*
X763Y1162D01*
X0Y1161D02*
X3Y1161D01*
X433Y1161D02*
X763Y1161D01*
X0Y1160D02*
X3Y1160D01*
X433Y1160D02*
X763Y1160D01*
X0Y1159D02*
X3Y1159D01*
X433Y1159D02*
X763Y1159D01*
X0Y1158D02*
X3Y1158D01*
X433Y1158D02*
X763Y1158D01*
X0Y1157D02*
X3Y1157D01*
X433Y1157D02*
X763Y1157D01*
X0Y1156D02*
X3Y1156D01*
X433Y1156D02*
X763Y1156D01*
X0Y1155D02*
X3Y1155D01*
X433Y1155D02*
X763Y1155D01*
X0Y1154D02*
X3Y1154D01*
X433Y1154D02*
X448Y1154D01*
X748Y1154D02*
X763Y1154D01*
X0Y1153D02*
X3Y1153D01*
X433Y1153D02*
X448Y1153D01*
X748Y1153D02*
X763Y1153D01*
X0Y1152D02*
X3Y1152D01*
X433Y1152D02*
X448Y1152D01*
X748Y1152D02*
X763Y1152D01*
X0Y1151D02*
X3Y1151D01*
X433Y1151D02*
X448Y1151D01*
X748Y1151D02*
X763Y1151D01*
X0Y1150D02*
X3Y1150D01*
X48Y1150D02*
X48Y1150D01*
X149Y1150D02*
X149Y1150D01*
X433Y1150D02*
X448Y1150D01*
X748Y1150D02*
X763Y1150D01*
X0Y1149D02*
X3Y1149D01*
X46Y1149D02*
X49Y1149D01*
X148Y1149D02*
X151Y1149D01*
X433Y1149D02*
X448Y1149D01*
X748Y1149D02*
X763Y1149D01*
X0Y1148D02*
X3Y1148D01*
X22Y1148D02*
X32Y1148D01*
X46Y1148D02*
X50Y1148D01*
X63Y1148D02*
X64Y1148D01*
X123Y1148D02*
X134Y1148D01*
X147Y1148D02*
X151Y1148D01*
X206Y1148D02*
X211Y1148D01*
X250Y1148D02*
X257Y1148D01*
X387Y1148D02*
X394Y1148D01*
X433Y1148D02*
X448Y1148D01*
X748Y1148D02*
X763Y1148D01*
X0Y1147D02*
X3Y1147D01*
X22Y1147D02*
X33Y1147D01*
X46Y1147D02*
X49Y1147D01*
X62Y1147D02*
X64Y1147D01*
X123Y1147D02*
X135Y1147D01*
X148Y1147D02*
X151Y1147D01*
X206Y1147D02*
X211Y1147D01*
X249Y1147D02*
X257Y1147D01*
X329Y1147D02*
X330Y1147D01*
X386Y1147D02*
X394Y1147D01*
X433Y1147D02*
X448Y1147D01*
X748Y1147D02*
X763Y1147D01*
X0Y1146D02*
X3Y1146D01*
X22Y1146D02*
X24Y1146D01*
X30Y1146D02*
X34Y1146D01*
X62Y1146D02*
X64Y1146D01*
X123Y1146D02*
X125Y1146D01*
X133Y1146D02*
X136Y1146D01*
X209Y1146D02*
X211Y1146D01*
X249Y1146D02*
X252Y1146D01*
X328Y1146D02*
X330Y1146D01*
X391Y1146D02*
X394Y1146D01*
X433Y1146D02*
X448Y1146D01*
X748Y1146D02*
X763Y1146D01*
X0Y1145D02*
X3Y1145D01*
X22Y1145D02*
X24Y1145D01*
X32Y1145D02*
X35Y1145D01*
X62Y1145D02*
X64Y1145D01*
X123Y1145D02*
X125Y1145D01*
X134Y1145D02*
X136Y1145D01*
X210Y1145D02*
X211Y1145D01*
X248Y1145D02*
X250Y1145D01*
X328Y1145D02*
X330Y1145D01*
X392Y1145D02*
X394Y1145D01*
X433Y1145D02*
X448Y1145D01*
X748Y1145D02*
X763Y1145D01*
X0Y1144D02*
X3Y1144D01*
X22Y1144D02*
X24Y1144D01*
X33Y1144D02*
X35Y1144D01*
X62Y1144D02*
X64Y1144D01*
X123Y1144D02*
X125Y1144D01*
X134Y1144D02*
X136Y1144D01*
X210Y1144D02*
X211Y1144D01*
X248Y1144D02*
X250Y1144D01*
X328Y1144D02*
X330Y1144D01*
X392Y1144D02*
X394Y1144D01*
X433Y1144D02*
X448Y1144D01*
X748Y1144D02*
X763Y1144D01*
X0Y1143D02*
X3Y1143D01*
X22Y1143D02*
X24Y1143D01*
X33Y1143D02*
X35Y1143D01*
X62Y1143D02*
X64Y1143D01*
X123Y1143D02*
X125Y1143D01*
X134Y1143D02*
X136Y1143D01*
X210Y1143D02*
X211Y1143D01*
X248Y1143D02*
X250Y1143D01*
X328Y1143D02*
X331Y1143D01*
X392Y1143D02*
X394Y1143D01*
X433Y1143D02*
X448Y1143D01*
X748Y1143D02*
X763Y1143D01*
X0Y1142D02*
X3Y1142D01*
X22Y1142D02*
X24Y1142D01*
X33Y1142D02*
X35Y1142D01*
X44Y1142D02*
X49Y1142D01*
X62Y1142D02*
X64Y1142D01*
X72Y1142D02*
X74Y1142D01*
X85Y1142D02*
X93Y1142D01*
X123Y1142D02*
X125Y1142D01*
X134Y1142D02*
X136Y1142D01*
X145Y1142D02*
X151Y1142D01*
X164Y1142D02*
X166Y1142D01*
X174Y1142D02*
X176Y1142D01*
X187Y1142D02*
X194Y1142D01*
X210Y1142D02*
X211Y1142D01*
X245Y1142D02*
X254Y1142D01*
X265Y1142D02*
X266Y1142D01*
X270Y1142D02*
X276Y1142D01*
X288Y1142D02*
X295Y1142D01*
X306Y1142D02*
X307Y1142D01*
X310Y1142D02*
X316Y1142D01*
X326Y1142D02*
X337Y1142D01*
X366Y1142D02*
X368Y1142D01*
X377Y1142D02*
X379Y1142D01*
X392Y1142D02*
X394Y1142D01*
X433Y1142D02*
X448Y1142D01*
X748Y1142D02*
X763Y1142D01*
X0Y1141D02*
X3Y1141D01*
X22Y1141D02*
X24Y1141D01*
X33Y1141D02*
X35Y1141D01*
X44Y1141D02*
X50Y1141D01*
X62Y1141D02*
X64Y1141D01*
X71Y1141D02*
X74Y1141D01*
X84Y1141D02*
X94Y1141D01*
X123Y1141D02*
X125Y1141D01*
X134Y1141D02*
X136Y1141D01*
X145Y1141D02*
X151Y1141D01*
X164Y1141D02*
X167Y1141D01*
X174Y1141D02*
X176Y1141D01*
X185Y1141D02*
X195Y1141D01*
X210Y1141D02*
X211Y1141D01*
X245Y1141D02*
X254Y1141D01*
X265Y1141D02*
X267Y1141D01*
X269Y1141D02*
X277Y1141D01*
X287Y1141D02*
X297Y1141D01*
X305Y1141D02*
X307Y1141D01*
X309Y1141D02*
X317Y1141D01*
X326Y1141D02*
X337Y1141D01*
X366Y1141D02*
X368Y1141D01*
X377Y1141D02*
X379Y1141D01*
X392Y1141D02*
X394Y1141D01*
X433Y1141D02*
X448Y1141D01*
X748Y1141D02*
X763Y1141D01*
X0Y1140D02*
X3Y1140D01*
X22Y1140D02*
X24Y1140D01*
X32Y1140D02*
X34Y1140D01*
X47Y1140D02*
X50Y1140D01*
X62Y1140D02*
X64Y1140D01*
X70Y1140D02*
X73Y1140D01*
X83Y1140D02*
X87Y1140D01*
X92Y1140D02*
X95Y1140D01*
X123Y1140D02*
X125Y1140D01*
X134Y1140D02*
X136Y1140D01*
X149Y1140D02*
X151Y1140D01*
X165Y1140D02*
X167Y1140D01*
X173Y1140D02*
X175Y1140D01*
X185Y1140D02*
X188Y1140D01*
X193Y1140D02*
X196Y1140D01*
X210Y1140D02*
X211Y1140D01*
X248Y1140D02*
X250Y1140D01*
X265Y1140D02*
X271Y1140D01*
X275Y1140D02*
X278Y1140D01*
X286Y1140D02*
X289Y1140D01*
X294Y1140D02*
X297Y1140D01*
X305Y1140D02*
X312Y1140D01*
X315Y1140D02*
X318Y1140D01*
X328Y1140D02*
X331Y1140D01*
X366Y1140D02*
X368Y1140D01*
X377Y1140D02*
X379Y1140D01*
X392Y1140D02*
X394Y1140D01*
X433Y1140D02*
X448Y1140D01*
X748Y1140D02*
X763Y1140D01*
X0Y1139D02*
X3Y1139D01*
X22Y1139D02*
X34Y1139D01*
X48Y1139D02*
X50Y1139D01*
X62Y1139D02*
X64Y1139D01*
X68Y1139D02*
X72Y1139D01*
X83Y1139D02*
X85Y1139D01*
X93Y1139D02*
X95Y1139D01*
X123Y1139D02*
X125Y1139D01*
X134Y1139D02*
X136Y1139D01*
X149Y1139D02*
X151Y1139D01*
X166Y1139D02*
X168Y1139D01*
X172Y1139D02*
X175Y1139D01*
X184Y1139D02*
X186Y1139D01*
X194Y1139D02*
X197Y1139D01*
X210Y1139D02*
X211Y1139D01*
X248Y1139D02*
X250Y1139D01*
X265Y1139D02*
X270Y1139D01*
X276Y1139D02*
X278Y1139D01*
X285Y1139D02*
X288Y1139D01*
X296Y1139D02*
X298Y1139D01*
X305Y1139D02*
X310Y1139D01*
X316Y1139D02*
X318Y1139D01*
X328Y1139D02*
X330Y1139D01*
X366Y1139D02*
X368Y1139D01*
X377Y1139D02*
X379Y1139D01*
X392Y1139D02*
X394Y1139D01*
X433Y1139D02*
X448Y1139D01*
X748Y1139D02*
X763Y1139D01*
X0Y1138D02*
X3Y1138D01*
X22Y1138D02*
X33Y1138D01*
X48Y1138D02*
X50Y1138D01*
X62Y1138D02*
X64Y1138D01*
X67Y1138D02*
X71Y1138D01*
X83Y1138D02*
X85Y1138D01*
X94Y1138D02*
X96Y1138D01*
X123Y1138D02*
X136Y1138D01*
X149Y1138D02*
X151Y1138D01*
X166Y1138D02*
X169Y1138D01*
X171Y1138D02*
X174Y1138D01*
X184Y1138D02*
X186Y1138D01*
X195Y1138D02*
X197Y1138D01*
X210Y1138D02*
X211Y1138D01*
X248Y1138D02*
X250Y1138D01*
X265Y1138D02*
X269Y1138D01*
X276Y1138D02*
X278Y1138D01*
X285Y1138D02*
X287Y1138D01*
X296Y1138D02*
X298Y1138D01*
X305Y1138D02*
X308Y1138D01*
X316Y1138D02*
X318Y1138D01*
X328Y1138D02*
X330Y1138D01*
X366Y1138D02*
X369Y1138D01*
X377Y1138D02*
X379Y1138D01*
X392Y1138D02*
X394Y1138D01*
X433Y1138D02*
X448Y1138D01*
X748Y1138D02*
X763Y1138D01*
X0Y1137D02*
X3Y1137D01*
X22Y1137D02*
X34Y1137D01*
X48Y1137D02*
X50Y1137D01*
X62Y1137D02*
X64Y1137D01*
X66Y1137D02*
X69Y1137D01*
X83Y1137D02*
X84Y1137D01*
X94Y1137D02*
X96Y1137D01*
X123Y1137D02*
X135Y1137D01*
X149Y1137D02*
X151Y1137D01*
X167Y1137D02*
X173Y1137D01*
X184Y1137D02*
X186Y1137D01*
X195Y1137D02*
X197Y1137D01*
X210Y1137D02*
X211Y1137D01*
X248Y1137D02*
X250Y1137D01*
X265Y1137D02*
X268Y1137D01*
X276Y1137D02*
X277Y1137D01*
X285Y1137D02*
X287Y1137D01*
X296Y1137D02*
X298Y1137D01*
X305Y1137D02*
X307Y1137D01*
X316Y1137D02*
X318Y1137D01*
X328Y1137D02*
X330Y1137D01*
X367Y1137D02*
X369Y1137D01*
X376Y1137D02*
X378Y1137D01*
X392Y1137D02*
X394Y1137D01*
X433Y1137D02*
X448Y1137D01*
X748Y1137D02*
X763Y1137D01*
X0Y1136D02*
X3Y1136D01*
X22Y1136D02*
X24Y1136D01*
X32Y1136D02*
X34Y1136D01*
X48Y1136D02*
X50Y1136D01*
X62Y1136D02*
X68Y1136D01*
X83Y1136D02*
X85Y1136D01*
X94Y1136D02*
X96Y1136D01*
X123Y1136D02*
X134Y1136D01*
X149Y1136D02*
X151Y1136D01*
X168Y1136D02*
X172Y1136D01*
X184Y1136D02*
X186Y1136D01*
X195Y1136D02*
X197Y1136D01*
X210Y1136D02*
X211Y1136D01*
X248Y1136D02*
X250Y1136D01*
X265Y1136D02*
X267Y1136D01*
X285Y1136D02*
X287Y1136D01*
X296Y1136D02*
X298Y1136D01*
X305Y1136D02*
X307Y1136D01*
X316Y1136D02*
X318Y1136D01*
X328Y1136D02*
X330Y1136D01*
X367Y1136D02*
X369Y1136D01*
X376Y1136D02*
X378Y1136D01*
X392Y1136D02*
X394Y1136D01*
X398Y1136D02*
X399Y1136D01*
X433Y1136D02*
X448Y1136D01*
X748Y1136D02*
X763Y1136D01*
X0Y1135D02*
X3Y1135D01*
X22Y1135D02*
X24Y1135D01*
X33Y1135D02*
X35Y1135D01*
X48Y1135D02*
X50Y1135D01*
X62Y1135D02*
X68Y1135D01*
X83Y1135D02*
X96Y1135D01*
X123Y1135D02*
X125Y1135D01*
X149Y1135D02*
X151Y1135D01*
X169Y1135D02*
X172Y1135D01*
X184Y1135D02*
X197Y1135D01*
X210Y1135D02*
X211Y1135D01*
X248Y1135D02*
X250Y1135D01*
X265Y1135D02*
X267Y1135D01*
X285Y1135D02*
X287Y1135D01*
X296Y1135D02*
X298Y1135D01*
X305Y1135D02*
X307Y1135D01*
X316Y1135D02*
X318Y1135D01*
X328Y1135D02*
X330Y1135D01*
X368Y1135D02*
X370Y1135D01*
X375Y1135D02*
X377Y1135D01*
X392Y1135D02*
X394Y1135D01*
X397Y1135D02*
X399Y1135D01*
X433Y1135D02*
X448Y1135D01*
X748Y1135D02*
X763Y1135D01*
X0Y1134D02*
X3Y1134D01*
X22Y1134D02*
X24Y1134D01*
X33Y1134D02*
X35Y1134D01*
X48Y1134D02*
X50Y1134D01*
X62Y1134D02*
X70Y1134D01*
X83Y1134D02*
X95Y1134D01*
X123Y1134D02*
X125Y1134D01*
X149Y1134D02*
X151Y1134D01*
X168Y1134D02*
X172Y1134D01*
X184Y1134D02*
X197Y1134D01*
X210Y1134D02*
X211Y1134D01*
X248Y1134D02*
X250Y1134D01*
X265Y1134D02*
X267Y1134D01*
X285Y1134D02*
X287Y1134D01*
X296Y1134D02*
X298Y1134D01*
X305Y1134D02*
X307Y1134D01*
X316Y1134D02*
X318Y1134D01*
X328Y1134D02*
X330Y1134D01*
X368Y1134D02*
X370Y1134D01*
X375Y1134D02*
X377Y1134D01*
X392Y1134D02*
X394Y1134D01*
X397Y1134D02*
X399Y1134D01*
X433Y1134D02*
X448Y1134D01*
X748Y1134D02*
X763Y1134D01*
X0Y1133D02*
X3Y1133D01*
X22Y1133D02*
X24Y1133D01*
X33Y1133D02*
X35Y1133D01*
X48Y1133D02*
X50Y1133D01*
X62Y1133D02*
X65Y1133D01*
X67Y1133D02*
X71Y1133D01*
X83Y1133D02*
X94Y1133D01*
X123Y1133D02*
X125Y1133D01*
X149Y1133D02*
X151Y1133D01*
X167Y1133D02*
X173Y1133D01*
X184Y1133D02*
X195Y1133D01*
X210Y1133D02*
X211Y1133D01*
X248Y1133D02*
X250Y1133D01*
X265Y1133D02*
X267Y1133D01*
X285Y1133D02*
X287Y1133D01*
X296Y1133D02*
X298Y1133D01*
X305Y1133D02*
X307Y1133D01*
X316Y1133D02*
X318Y1133D01*
X328Y1133D02*
X330Y1133D01*
X369Y1133D02*
X371Y1133D01*
X374Y1133D02*
X376Y1133D01*
X392Y1133D02*
X394Y1133D01*
X397Y1133D02*
X399Y1133D01*
X433Y1133D02*
X448Y1133D01*
X748Y1133D02*
X763Y1133D01*
X0Y1132D02*
X3Y1132D01*
X22Y1132D02*
X24Y1132D01*
X33Y1132D02*
X35Y1132D01*
X48Y1132D02*
X50Y1132D01*
X62Y1132D02*
X64Y1132D01*
X69Y1132D02*
X72Y1132D01*
X83Y1132D02*
X84Y1132D01*
X123Y1132D02*
X125Y1132D01*
X149Y1132D02*
X151Y1132D01*
X166Y1132D02*
X169Y1132D01*
X171Y1132D02*
X174Y1132D01*
X184Y1132D02*
X186Y1132D01*
X210Y1132D02*
X211Y1132D01*
X248Y1132D02*
X250Y1132D01*
X265Y1132D02*
X267Y1132D01*
X285Y1132D02*
X287Y1132D01*
X296Y1132D02*
X298Y1132D01*
X305Y1132D02*
X307Y1132D01*
X316Y1132D02*
X318Y1132D01*
X328Y1132D02*
X330Y1132D01*
X338Y1132D02*
X338Y1132D01*
X369Y1132D02*
X371Y1132D01*
X374Y1132D02*
X376Y1132D01*
X392Y1132D02*
X394Y1132D01*
X397Y1132D02*
X399Y1132D01*
X433Y1132D02*
X448Y1132D01*
X748Y1132D02*
X763Y1132D01*
X0Y1131D02*
X3Y1131D01*
X22Y1131D02*
X24Y1131D01*
X32Y1131D02*
X35Y1131D01*
X48Y1131D02*
X50Y1131D01*
X62Y1131D02*
X64Y1131D01*
X70Y1131D02*
X73Y1131D01*
X83Y1131D02*
X85Y1131D01*
X123Y1131D02*
X125Y1131D01*
X149Y1131D02*
X151Y1131D01*
X165Y1131D02*
X168Y1131D01*
X172Y1131D02*
X175Y1131D01*
X184Y1131D02*
X186Y1131D01*
X210Y1131D02*
X211Y1131D01*
X248Y1131D02*
X250Y1131D01*
X265Y1131D02*
X267Y1131D01*
X285Y1131D02*
X287Y1131D01*
X296Y1131D02*
X298Y1131D01*
X305Y1131D02*
X307Y1131D01*
X316Y1131D02*
X318Y1131D01*
X328Y1131D02*
X330Y1131D01*
X337Y1131D02*
X338Y1131D01*
X369Y1131D02*
X376Y1131D01*
X392Y1131D02*
X394Y1131D01*
X397Y1131D02*
X399Y1131D01*
X433Y1131D02*
X448Y1131D01*
X748Y1131D02*
X763Y1131D01*
X0Y1130D02*
X3Y1130D01*
X22Y1130D02*
X24Y1130D01*
X31Y1130D02*
X34Y1130D01*
X47Y1130D02*
X50Y1130D01*
X62Y1130D02*
X64Y1130D01*
X71Y1130D02*
X74Y1130D01*
X83Y1130D02*
X86Y1130D01*
X123Y1130D02*
X125Y1130D01*
X149Y1130D02*
X151Y1130D01*
X164Y1130D02*
X167Y1130D01*
X173Y1130D02*
X176Y1130D01*
X184Y1130D02*
X188Y1130D01*
X209Y1130D02*
X212Y1130D01*
X248Y1130D02*
X250Y1130D01*
X265Y1130D02*
X267Y1130D01*
X286Y1130D02*
X289Y1130D01*
X294Y1130D02*
X297Y1130D01*
X305Y1130D02*
X307Y1130D01*
X316Y1130D02*
X318Y1130D01*
X329Y1130D02*
X331Y1130D01*
X336Y1130D02*
X338Y1130D01*
X370Y1130D02*
X375Y1130D01*
X392Y1130D02*
X394Y1130D01*
X397Y1130D02*
X399Y1130D01*
X433Y1130D02*
X448Y1130D01*
X748Y1130D02*
X763Y1130D01*
X0Y1129D02*
X3Y1129D01*
X22Y1129D02*
X33Y1129D01*
X44Y1129D02*
X53Y1129D01*
X62Y1129D02*
X64Y1129D01*
X72Y1129D02*
X75Y1129D01*
X84Y1129D02*
X95Y1129D01*
X123Y1129D02*
X125Y1129D01*
X145Y1129D02*
X155Y1129D01*
X164Y1129D02*
X166Y1129D01*
X174Y1129D02*
X176Y1129D01*
X185Y1129D02*
X197Y1129D01*
X206Y1129D02*
X215Y1129D01*
X248Y1129D02*
X250Y1129D01*
X265Y1129D02*
X267Y1129D01*
X286Y1129D02*
X297Y1129D01*
X305Y1129D02*
X307Y1129D01*
X316Y1129D02*
X318Y1129D01*
X329Y1129D02*
X338Y1129D01*
X370Y1129D02*
X375Y1129D01*
X387Y1129D02*
X399Y1129D01*
X433Y1129D02*
X448Y1129D01*
X748Y1129D02*
X763Y1129D01*
X0Y1128D02*
X3Y1128D01*
X22Y1128D02*
X32Y1128D01*
X44Y1128D02*
X53Y1128D01*
X63Y1128D02*
X64Y1128D01*
X73Y1128D02*
X75Y1128D01*
X85Y1128D02*
X95Y1128D01*
X123Y1128D02*
X125Y1128D01*
X145Y1128D02*
X155Y1128D01*
X164Y1128D02*
X166Y1128D01*
X175Y1128D02*
X176Y1128D01*
X186Y1128D02*
X197Y1128D01*
X206Y1128D02*
X215Y1128D01*
X248Y1128D02*
X250Y1128D01*
X265Y1128D02*
X266Y1128D01*
X288Y1128D02*
X295Y1128D01*
X305Y1128D02*
X307Y1128D01*
X317Y1128D02*
X318Y1128D01*
X330Y1128D02*
X337Y1128D01*
X371Y1128D02*
X374Y1128D01*
X386Y1128D02*
X399Y1128D01*
X433Y1128D02*
X448Y1128D01*
X748Y1128D02*
X763Y1128D01*
X0Y1127D02*
X3Y1127D01*
X22Y1127D02*
X29Y1127D01*
X45Y1127D02*
X52Y1127D01*
X88Y1127D02*
X94Y1127D01*
X147Y1127D02*
X153Y1127D01*
X189Y1127D02*
X195Y1127D01*
X207Y1127D02*
X214Y1127D01*
X291Y1127D02*
X293Y1127D01*
X333Y1127D02*
X334Y1127D01*
X372Y1127D02*
X373Y1127D01*
X388Y1127D02*
X397Y1127D01*
X433Y1127D02*
X448Y1127D01*
X748Y1127D02*
X763Y1127D01*
X0Y1126D02*
X3Y1126D01*
X433Y1126D02*
X448Y1126D01*
X748Y1126D02*
X763Y1126D01*
X0Y1125D02*
X3Y1125D01*
X433Y1125D02*
X448Y1125D01*
X748Y1125D02*
X763Y1125D01*
X0Y1124D02*
X3Y1124D01*
X433Y1124D02*
X448Y1124D01*
X748Y1124D02*
X763Y1124D01*
X0Y1123D02*
X3Y1123D01*
X433Y1123D02*
X448Y1123D01*
X748Y1123D02*
X763Y1123D01*
X0Y1122D02*
X3Y1122D01*
X433Y1122D02*
X448Y1122D01*
X748Y1122D02*
X763Y1122D01*
X0Y1121D02*
X3Y1121D01*
X433Y1121D02*
X448Y1121D01*
X748Y1121D02*
X763Y1121D01*
X0Y1120D02*
X3Y1120D01*
X433Y1120D02*
X448Y1120D01*
X748Y1120D02*
X763Y1120D01*
X0Y1119D02*
X3Y1119D01*
X433Y1119D02*
X448Y1119D01*
X748Y1119D02*
X763Y1119D01*
X0Y1118D02*
X3Y1118D01*
X433Y1118D02*
X448Y1118D01*
X748Y1118D02*
X763Y1118D01*
X0Y1117D02*
X3Y1117D01*
X433Y1117D02*
X448Y1117D01*
X748Y1117D02*
X763Y1117D01*
X0Y1116D02*
X3Y1116D01*
X433Y1116D02*
X448Y1116D01*
X748Y1116D02*
X763Y1116D01*
X0Y1115D02*
X3Y1115D01*
X433Y1115D02*
X448Y1115D01*
X748Y1115D02*
X763Y1115D01*
X0Y1114D02*
X3Y1114D01*
X433Y1114D02*
X448Y1114D01*
X748Y1114D02*
X763Y1114D01*
X0Y1113D02*
X3Y1113D01*
X433Y1113D02*
X448Y1113D01*
X748Y1113D02*
X763Y1113D01*
X0Y1112D02*
X3Y1112D01*
X433Y1112D02*
X448Y1112D01*
X748Y1112D02*
X763Y1112D01*
X0Y1111D02*
X3Y1111D01*
X433Y1111D02*
X448Y1111D01*
X748Y1111D02*
X763Y1111D01*
X0Y1110D02*
X3Y1110D01*
X433Y1110D02*
X448Y1110D01*
X748Y1110D02*
X763Y1110D01*
X0Y1109D02*
X3Y1109D01*
X433Y1109D02*
X448Y1109D01*
X748Y1109D02*
X763Y1109D01*
X0Y1108D02*
X3Y1108D01*
X433Y1108D02*
X448Y1108D01*
X748Y1108D02*
X763Y1108D01*
X0Y1107D02*
X3Y1107D01*
X22Y1107D02*
X23Y1107D01*
X33Y1107D02*
X34Y1107D01*
X63Y1107D02*
X73Y1107D01*
X221Y1107D02*
X232Y1107D01*
X242Y1107D02*
X253Y1107D01*
X261Y1107D02*
X273Y1107D01*
X282Y1107D02*
X293Y1107D01*
X433Y1107D02*
X448Y1107D01*
X748Y1107D02*
X763Y1107D01*
X0Y1106D02*
X3Y1106D01*
X22Y1106D02*
X23Y1106D01*
X31Y1106D02*
X34Y1106D01*
X62Y1106D02*
X74Y1106D01*
X85Y1106D02*
X86Y1106D01*
X221Y1106D02*
X233Y1106D01*
X241Y1106D02*
X253Y1106D01*
X261Y1106D02*
X274Y1106D01*
X282Y1106D02*
X294Y1106D01*
X433Y1106D02*
X448Y1106D01*
X748Y1106D02*
X763Y1106D01*
X0Y1105D02*
X3Y1105D01*
X21Y1105D02*
X23Y1105D01*
X30Y1105D02*
X34Y1105D01*
X62Y1105D02*
X75Y1105D01*
X85Y1105D02*
X87Y1105D01*
X222Y1105D02*
X233Y1105D01*
X241Y1105D02*
X254Y1105D01*
X262Y1105D02*
X274Y1105D01*
X281Y1105D02*
X294Y1105D01*
X433Y1105D02*
X448Y1105D01*
X748Y1105D02*
X763Y1105D01*
X0Y1104D02*
X3Y1104D01*
X21Y1104D02*
X23Y1104D01*
X29Y1104D02*
X32Y1104D01*
X62Y1104D02*
X64Y1104D01*
X73Y1104D02*
X75Y1104D01*
X85Y1104D02*
X87Y1104D01*
X186Y1104D02*
X191Y1104D01*
X232Y1104D02*
X234Y1104D01*
X241Y1104D02*
X243Y1104D01*
X252Y1104D02*
X254Y1104D01*
X272Y1104D02*
X274Y1104D01*
X281Y1104D02*
X283Y1104D01*
X292Y1104D02*
X294Y1104D01*
X433Y1104D02*
X448Y1104D01*
X748Y1104D02*
X763Y1104D01*
X0Y1103D02*
X3Y1103D01*
X21Y1103D02*
X23Y1103D01*
X28Y1103D02*
X31Y1103D01*
X62Y1103D02*
X65Y1103D01*
X74Y1103D02*
X74Y1103D01*
X85Y1103D02*
X87Y1103D01*
X184Y1103D02*
X187Y1103D01*
X189Y1103D02*
X192Y1103D01*
X232Y1103D02*
X234Y1103D01*
X241Y1103D02*
X243Y1103D01*
X252Y1103D02*
X254Y1103D01*
X272Y1103D02*
X274Y1103D01*
X281Y1103D02*
X283Y1103D01*
X292Y1103D02*
X294Y1103D01*
X433Y1103D02*
X448Y1103D01*
X748Y1103D02*
X763Y1103D01*
X0Y1102D02*
X3Y1102D01*
X21Y1102D02*
X23Y1102D01*
X27Y1102D02*
X30Y1102D01*
X63Y1102D02*
X66Y1102D01*
X85Y1102D02*
X87Y1102D01*
X123Y1102D02*
X124Y1102D01*
X128Y1102D02*
X131Y1102D01*
X183Y1102D02*
X184Y1102D01*
X192Y1102D02*
X194Y1102D01*
X232Y1102D02*
X234Y1102D01*
X241Y1102D02*
X243Y1102D01*
X252Y1102D02*
X254Y1102D01*
X272Y1102D02*
X274Y1102D01*
X281Y1102D02*
X283Y1102D01*
X292Y1102D02*
X294Y1102D01*
X433Y1102D02*
X448Y1102D01*
X748Y1102D02*
X763Y1102D01*
X0Y1101D02*
X3Y1101D01*
X21Y1101D02*
X23Y1101D01*
X26Y1101D02*
X29Y1101D01*
X64Y1101D02*
X66Y1101D01*
X82Y1101D02*
X93Y1101D01*
X105Y1101D02*
X113Y1101D01*
X123Y1101D02*
X132Y1101D01*
X146Y1101D02*
X154Y1101D01*
X182Y1101D02*
X183Y1101D01*
X188Y1101D02*
X190Y1101D01*
X194Y1101D02*
X195Y1101D01*
X232Y1101D02*
X234Y1101D01*
X241Y1101D02*
X243Y1101D01*
X252Y1101D02*
X254Y1101D01*
X272Y1101D02*
X274Y1101D01*
X281Y1101D02*
X283Y1101D01*
X292Y1101D02*
X294Y1101D01*
X433Y1101D02*
X448Y1101D01*
X748Y1101D02*
X763Y1101D01*
X0Y1100D02*
X3Y1100D01*
X21Y1100D02*
X28Y1100D01*
X65Y1100D02*
X67Y1100D01*
X82Y1100D02*
X94Y1100D01*
X104Y1100D02*
X114Y1100D01*
X123Y1100D02*
X133Y1100D01*
X146Y1100D02*
X155Y1100D01*
X181Y1100D02*
X182Y1100D01*
X185Y1100D02*
X191Y1100D01*
X195Y1100D02*
X195Y1100D01*
X232Y1100D02*
X234Y1100D01*
X241Y1100D02*
X243Y1100D01*
X252Y1100D02*
X254Y1100D01*
X272Y1100D02*
X274Y1100D01*
X281Y1100D02*
X283Y1100D01*
X292Y1100D02*
X294Y1100D01*
X433Y1100D02*
X448Y1100D01*
X748Y1100D02*
X763Y1100D01*
X0Y1099D02*
X3Y1099D01*
X21Y1099D02*
X27Y1099D01*
X65Y1099D02*
X68Y1099D01*
X84Y1099D02*
X92Y1099D01*
X103Y1099D02*
X115Y1099D01*
X123Y1099D02*
X127Y1099D01*
X131Y1099D02*
X134Y1099D01*
X147Y1099D02*
X155Y1099D01*
X181Y1099D02*
X181Y1099D01*
X185Y1099D02*
X186Y1099D01*
X195Y1099D02*
X196Y1099D01*
X232Y1099D02*
X234Y1099D01*
X241Y1099D02*
X243Y1099D01*
X252Y1099D02*
X254Y1099D01*
X272Y1099D02*
X274Y1099D01*
X281Y1099D02*
X283Y1099D01*
X292Y1099D02*
X294Y1099D01*
X433Y1099D02*
X448Y1099D01*
X748Y1099D02*
X763Y1099D01*
X0Y1098D02*
X3Y1098D01*
X21Y1098D02*
X25Y1098D01*
X66Y1098D02*
X69Y1098D01*
X85Y1098D02*
X87Y1098D01*
X103Y1098D02*
X105Y1098D01*
X113Y1098D02*
X115Y1098D01*
X123Y1098D02*
X126Y1098D01*
X132Y1098D02*
X135Y1098D01*
X154Y1098D02*
X156Y1098D01*
X181Y1098D02*
X181Y1098D01*
X184Y1098D02*
X185Y1098D01*
X195Y1098D02*
X196Y1098D01*
X222Y1098D02*
X233Y1098D01*
X241Y1098D02*
X243Y1098D01*
X252Y1098D02*
X254Y1098D01*
X263Y1098D02*
X274Y1098D01*
X281Y1098D02*
X283Y1098D01*
X292Y1098D02*
X294Y1098D01*
X433Y1098D02*
X448Y1098D01*
X748Y1098D02*
X763Y1098D01*
X0Y1097D02*
X3Y1097D01*
X21Y1097D02*
X24Y1097D01*
X67Y1097D02*
X70Y1097D01*
X85Y1097D02*
X87Y1097D01*
X103Y1097D02*
X104Y1097D01*
X114Y1097D02*
X115Y1097D01*
X123Y1097D02*
X125Y1097D01*
X133Y1097D02*
X136Y1097D01*
X154Y1097D02*
X156Y1097D01*
X180Y1097D02*
X181Y1097D01*
X184Y1097D02*
X185Y1097D01*
X196Y1097D02*
X196Y1097D01*
X221Y1097D02*
X233Y1097D01*
X241Y1097D02*
X243Y1097D01*
X252Y1097D02*
X254Y1097D01*
X262Y1097D02*
X274Y1097D01*
X281Y1097D02*
X283Y1097D01*
X292Y1097D02*
X294Y1097D01*
X433Y1097D02*
X448Y1097D01*
X748Y1097D02*
X763Y1097D01*
X0Y1096D02*
X3Y1096D01*
X21Y1096D02*
X25Y1096D01*
X68Y1096D02*
X70Y1096D01*
X85Y1096D02*
X87Y1096D01*
X102Y1096D02*
X104Y1096D01*
X114Y1096D02*
X115Y1096D01*
X123Y1096D02*
X125Y1096D01*
X134Y1096D02*
X136Y1096D01*
X154Y1096D02*
X156Y1096D01*
X180Y1096D02*
X181Y1096D01*
X184Y1096D02*
X185Y1096D01*
X196Y1096D02*
X196Y1096D01*
X221Y1096D02*
X232Y1096D01*
X241Y1096D02*
X243Y1096D01*
X252Y1096D02*
X254Y1096D01*
X261Y1096D02*
X273Y1096D01*
X281Y1096D02*
X283Y1096D01*
X292Y1096D02*
X294Y1096D01*
X433Y1096D02*
X448Y1096D01*
X748Y1096D02*
X763Y1096D01*
X0Y1095D02*
X3Y1095D01*
X21Y1095D02*
X26Y1095D01*
X69Y1095D02*
X71Y1095D01*
X85Y1095D02*
X87Y1095D01*
X102Y1095D02*
X104Y1095D01*
X114Y1095D02*
X115Y1095D01*
X123Y1095D02*
X125Y1095D01*
X134Y1095D02*
X136Y1095D01*
X145Y1095D02*
X156Y1095D01*
X180Y1095D02*
X181Y1095D01*
X184Y1095D02*
X185Y1095D01*
X196Y1095D02*
X196Y1095D01*
X221Y1095D02*
X222Y1095D01*
X241Y1095D02*
X243Y1095D01*
X252Y1095D02*
X254Y1095D01*
X261Y1095D02*
X263Y1095D01*
X281Y1095D02*
X283Y1095D01*
X292Y1095D02*
X294Y1095D01*
X433Y1095D02*
X448Y1095D01*
X601Y1095D02*
X601Y1095D01*
X655Y1095D02*
X660Y1095D01*
X685Y1095D02*
X691Y1095D01*
X748Y1095D02*
X763Y1095D01*
X0Y1094D02*
X3Y1094D01*
X21Y1094D02*
X27Y1094D01*
X46Y1094D02*
X50Y1094D01*
X69Y1094D02*
X72Y1094D01*
X85Y1094D02*
X87Y1094D01*
X102Y1094D02*
X104Y1094D01*
X114Y1094D02*
X115Y1094D01*
X123Y1094D02*
X125Y1094D01*
X134Y1094D02*
X136Y1094D01*
X144Y1094D02*
X156Y1094D01*
X181Y1094D02*
X181Y1094D01*
X184Y1094D02*
X185Y1094D01*
X195Y1094D02*
X196Y1094D01*
X221Y1094D02*
X222Y1094D01*
X241Y1094D02*
X243Y1094D01*
X252Y1094D02*
X254Y1094D01*
X261Y1094D02*
X263Y1094D01*
X281Y1094D02*
X283Y1094D01*
X292Y1094D02*
X294Y1094D01*
X433Y1094D02*
X448Y1094D01*
X600Y1094D02*
X603Y1094D01*
X652Y1094D02*
X662Y1094D01*
X682Y1094D02*
X692Y1094D01*
X748Y1094D02*
X763Y1094D01*
X0Y1093D02*
X3Y1093D01*
X21Y1093D02*
X23Y1093D01*
X25Y1093D02*
X29Y1093D01*
X46Y1093D02*
X51Y1093D01*
X70Y1093D02*
X73Y1093D01*
X85Y1093D02*
X87Y1093D01*
X102Y1093D02*
X104Y1093D01*
X114Y1093D02*
X115Y1093D01*
X123Y1093D02*
X125Y1093D01*
X134Y1093D02*
X136Y1093D01*
X143Y1093D02*
X146Y1093D01*
X152Y1093D02*
X156Y1093D01*
X181Y1093D02*
X181Y1093D01*
X185Y1093D02*
X186Y1093D01*
X195Y1093D02*
X196Y1093D01*
X221Y1093D02*
X222Y1093D01*
X241Y1093D02*
X243Y1093D01*
X252Y1093D02*
X254Y1093D01*
X261Y1093D02*
X263Y1093D01*
X281Y1093D02*
X283Y1093D01*
X292Y1093D02*
X294Y1093D01*
X433Y1093D02*
X448Y1093D01*
X599Y1093D02*
X603Y1093D01*
X651Y1093D02*
X662Y1093D01*
X681Y1093D02*
X692Y1093D01*
X748Y1093D02*
X763Y1093D01*
X0Y1092D02*
X3Y1092D01*
X21Y1092D02*
X23Y1092D01*
X26Y1092D02*
X30Y1092D01*
X46Y1092D02*
X51Y1092D01*
X71Y1092D02*
X74Y1092D01*
X85Y1092D02*
X87Y1092D01*
X102Y1092D02*
X104Y1092D01*
X114Y1092D02*
X115Y1092D01*
X123Y1092D02*
X125Y1092D01*
X134Y1092D02*
X136Y1092D01*
X143Y1092D02*
X145Y1092D01*
X154Y1092D02*
X156Y1092D01*
X181Y1092D02*
X182Y1092D01*
X186Y1092D02*
X191Y1092D01*
X194Y1092D02*
X195Y1092D01*
X221Y1092D02*
X222Y1092D01*
X241Y1092D02*
X243Y1092D01*
X252Y1092D02*
X254Y1092D01*
X261Y1092D02*
X263Y1092D01*
X281Y1092D02*
X283Y1092D01*
X292Y1092D02*
X294Y1092D01*
X433Y1092D02*
X448Y1092D01*
X599Y1092D02*
X603Y1092D01*
X650Y1092D02*
X662Y1092D01*
X680Y1092D02*
X692Y1092D01*
X748Y1092D02*
X763Y1092D01*
X0Y1091D02*
X3Y1091D01*
X21Y1091D02*
X23Y1091D01*
X28Y1091D02*
X31Y1091D01*
X46Y1091D02*
X50Y1091D01*
X63Y1091D02*
X63Y1091D01*
X72Y1091D02*
X74Y1091D01*
X85Y1091D02*
X87Y1091D01*
X103Y1091D02*
X104Y1091D01*
X114Y1091D02*
X115Y1091D01*
X123Y1091D02*
X125Y1091D01*
X134Y1091D02*
X136Y1091D01*
X143Y1091D02*
X145Y1091D01*
X154Y1091D02*
X156Y1091D01*
X182Y1091D02*
X183Y1091D01*
X189Y1091D02*
X189Y1091D01*
X194Y1091D02*
X194Y1091D01*
X221Y1091D02*
X222Y1091D01*
X241Y1091D02*
X243Y1091D01*
X252Y1091D02*
X254Y1091D01*
X261Y1091D02*
X263Y1091D01*
X281Y1091D02*
X283Y1091D01*
X292Y1091D02*
X294Y1091D01*
X433Y1091D02*
X448Y1091D01*
X598Y1091D02*
X602Y1091D01*
X649Y1091D02*
X660Y1091D01*
X679Y1091D02*
X691Y1091D01*
X748Y1091D02*
X763Y1091D01*
X0Y1090D02*
X3Y1090D01*
X21Y1090D02*
X23Y1090D01*
X29Y1090D02*
X32Y1090D01*
X46Y1090D02*
X50Y1090D01*
X62Y1090D02*
X64Y1090D01*
X72Y1090D02*
X75Y1090D01*
X85Y1090D02*
X87Y1090D01*
X93Y1090D02*
X95Y1090D01*
X103Y1090D02*
X105Y1090D01*
X113Y1090D02*
X115Y1090D01*
X123Y1090D02*
X126Y1090D01*
X133Y1090D02*
X135Y1090D01*
X143Y1090D02*
X145Y1090D01*
X153Y1090D02*
X156Y1090D01*
X183Y1090D02*
X184Y1090D01*
X192Y1090D02*
X194Y1090D01*
X221Y1090D02*
X222Y1090D01*
X241Y1090D02*
X243Y1090D01*
X252Y1090D02*
X254Y1090D01*
X261Y1090D02*
X263Y1090D01*
X281Y1090D02*
X283Y1090D01*
X292Y1090D02*
X294Y1090D01*
X433Y1090D02*
X448Y1090D01*
X598Y1090D02*
X601Y1090D01*
X649Y1090D02*
X653Y1090D01*
X679Y1090D02*
X683Y1090D01*
X748Y1090D02*
X763Y1090D01*
X0Y1089D02*
X3Y1089D01*
X21Y1089D02*
X23Y1089D01*
X30Y1089D02*
X33Y1089D01*
X62Y1089D02*
X64Y1089D01*
X73Y1089D02*
X75Y1089D01*
X85Y1089D02*
X88Y1089D01*
X93Y1089D02*
X95Y1089D01*
X103Y1089D02*
X106Y1089D01*
X112Y1089D02*
X115Y1089D01*
X123Y1089D02*
X127Y1089D01*
X132Y1089D02*
X135Y1089D01*
X143Y1089D02*
X146Y1089D01*
X151Y1089D02*
X156Y1089D01*
X184Y1089D02*
X192Y1089D01*
X221Y1089D02*
X223Y1089D01*
X241Y1089D02*
X243Y1089D01*
X252Y1089D02*
X254Y1089D01*
X261Y1089D02*
X263Y1089D01*
X281Y1089D02*
X283Y1089D01*
X292Y1089D02*
X294Y1089D01*
X433Y1089D02*
X448Y1089D01*
X597Y1089D02*
X601Y1089D01*
X649Y1089D02*
X652Y1089D01*
X679Y1089D02*
X682Y1089D01*
X748Y1089D02*
X763Y1089D01*
X0Y1088D02*
X3Y1088D01*
X21Y1088D02*
X23Y1088D01*
X31Y1088D02*
X34Y1088D01*
X62Y1088D02*
X75Y1088D01*
X86Y1088D02*
X95Y1088D01*
X104Y1088D02*
X114Y1088D01*
X123Y1088D02*
X134Y1088D01*
X144Y1088D02*
X156Y1088D01*
X186Y1088D02*
X190Y1088D01*
X221Y1088D02*
X233Y1088D01*
X241Y1088D02*
X254Y1088D01*
X261Y1088D02*
X274Y1088D01*
X281Y1088D02*
X294Y1088D01*
X433Y1088D02*
X448Y1088D01*
X596Y1088D02*
X600Y1088D01*
X649Y1088D02*
X652Y1088D01*
X679Y1088D02*
X682Y1088D01*
X748Y1088D02*
X763Y1088D01*
X0Y1087D02*
X3Y1087D01*
X22Y1087D02*
X23Y1087D01*
X32Y1087D02*
X34Y1087D01*
X63Y1087D02*
X74Y1087D01*
X86Y1087D02*
X94Y1087D01*
X105Y1087D02*
X113Y1087D01*
X123Y1087D02*
X133Y1087D01*
X144Y1087D02*
X156Y1087D01*
X221Y1087D02*
X233Y1087D01*
X242Y1087D02*
X253Y1087D01*
X261Y1087D02*
X274Y1087D01*
X282Y1087D02*
X294Y1087D01*
X433Y1087D02*
X448Y1087D01*
X596Y1087D02*
X600Y1087D01*
X649Y1087D02*
X652Y1087D01*
X679Y1087D02*
X682Y1087D01*
X748Y1087D02*
X763Y1087D01*
X0Y1086D02*
X3Y1086D01*
X65Y1086D02*
X72Y1086D01*
X89Y1086D02*
X92Y1086D01*
X107Y1086D02*
X111Y1086D01*
X123Y1086D02*
X125Y1086D01*
X127Y1086D02*
X131Y1086D01*
X147Y1086D02*
X151Y1086D01*
X221Y1086D02*
X232Y1086D01*
X243Y1086D02*
X251Y1086D01*
X261Y1086D02*
X273Y1086D01*
X284Y1086D02*
X292Y1086D01*
X433Y1086D02*
X448Y1086D01*
X529Y1086D02*
X537Y1086D01*
X554Y1086D02*
X555Y1086D01*
X563Y1086D02*
X568Y1086D01*
X595Y1086D02*
X599Y1086D01*
X619Y1086D02*
X627Y1086D01*
X646Y1086D02*
X657Y1086D01*
X676Y1086D02*
X687Y1086D01*
X748Y1086D02*
X763Y1086D01*
X0Y1085D02*
X3Y1085D01*
X123Y1085D02*
X125Y1085D01*
X433Y1085D02*
X448Y1085D01*
X527Y1085D02*
X539Y1085D01*
X553Y1085D02*
X556Y1085D01*
X561Y1085D02*
X570Y1085D01*
X595Y1085D02*
X599Y1085D01*
X617Y1085D02*
X629Y1085D01*
X645Y1085D02*
X658Y1085D01*
X675Y1085D02*
X688Y1085D01*
X748Y1085D02*
X763Y1085D01*
X0Y1084D02*
X3Y1084D01*
X123Y1084D02*
X125Y1084D01*
X433Y1084D02*
X448Y1084D01*
X526Y1084D02*
X540Y1084D01*
X553Y1084D02*
X556Y1084D01*
X559Y1084D02*
X571Y1084D01*
X594Y1084D02*
X598Y1084D01*
X616Y1084D02*
X630Y1084D01*
X644Y1084D02*
X658Y1084D01*
X675Y1084D02*
X688Y1084D01*
X748Y1084D02*
X763Y1084D01*
X0Y1083D02*
X3Y1083D01*
X123Y1083D02*
X125Y1083D01*
X433Y1083D02*
X448Y1083D01*
X525Y1083D02*
X541Y1083D01*
X553Y1083D02*
X571Y1083D01*
X593Y1083D02*
X597Y1083D01*
X615Y1083D02*
X631Y1083D01*
X645Y1083D02*
X658Y1083D01*
X675Y1083D02*
X688Y1083D01*
X748Y1083D02*
X763Y1083D01*
X0Y1082D02*
X3Y1082D01*
X123Y1082D02*
X125Y1082D01*
X433Y1082D02*
X448Y1082D01*
X524Y1082D02*
X529Y1082D01*
X536Y1082D02*
X542Y1082D01*
X553Y1082D02*
X563Y1082D01*
X567Y1082D02*
X572Y1082D01*
X593Y1082D02*
X597Y1082D01*
X614Y1082D02*
X620Y1082D01*
X626Y1082D02*
X632Y1082D01*
X648Y1082D02*
X652Y1082D01*
X678Y1082D02*
X682Y1082D01*
X748Y1082D02*
X763Y1082D01*
X0Y1081D02*
X3Y1081D01*
X123Y1081D02*
X124Y1081D01*
X433Y1081D02*
X448Y1081D01*
X523Y1081D02*
X528Y1081D01*
X538Y1081D02*
X542Y1081D01*
X553Y1081D02*
X561Y1081D01*
X569Y1081D02*
X572Y1081D01*
X592Y1081D02*
X596Y1081D01*
X614Y1081D02*
X618Y1081D01*
X628Y1081D02*
X633Y1081D01*
X649Y1081D02*
X652Y1081D01*
X679Y1081D02*
X682Y1081D01*
X748Y1081D02*
X763Y1081D01*
X0Y1080D02*
X3Y1080D01*
X433Y1080D02*
X448Y1080D01*
X523Y1080D02*
X527Y1080D01*
X539Y1080D02*
X543Y1080D01*
X553Y1080D02*
X560Y1080D01*
X569Y1080D02*
X572Y1080D01*
X592Y1080D02*
X596Y1080D01*
X613Y1080D02*
X617Y1080D01*
X629Y1080D02*
X633Y1080D01*
X649Y1080D02*
X652Y1080D01*
X679Y1080D02*
X682Y1080D01*
X748Y1080D02*
X763Y1080D01*
X0Y1079D02*
X3Y1079D01*
X433Y1079D02*
X448Y1079D01*
X523Y1079D02*
X526Y1079D01*
X539Y1079D02*
X543Y1079D01*
X553Y1079D02*
X558Y1079D01*
X569Y1079D02*
X572Y1079D01*
X591Y1079D02*
X595Y1079D01*
X613Y1079D02*
X617Y1079D01*
X630Y1079D02*
X633Y1079D01*
X649Y1079D02*
X652Y1079D01*
X679Y1079D02*
X682Y1079D01*
X748Y1079D02*
X763Y1079D01*
X0Y1078D02*
X3Y1078D01*
X433Y1078D02*
X448Y1078D01*
X523Y1078D02*
X526Y1078D01*
X539Y1078D02*
X543Y1078D01*
X553Y1078D02*
X557Y1078D01*
X569Y1078D02*
X572Y1078D01*
X591Y1078D02*
X594Y1078D01*
X613Y1078D02*
X616Y1078D01*
X630Y1078D02*
X633Y1078D01*
X649Y1078D02*
X652Y1078D01*
X679Y1078D02*
X682Y1078D01*
X748Y1078D02*
X763Y1078D01*
X0Y1077D02*
X3Y1077D01*
X433Y1077D02*
X448Y1077D01*
X523Y1077D02*
X526Y1077D01*
X539Y1077D02*
X543Y1077D01*
X553Y1077D02*
X556Y1077D01*
X569Y1077D02*
X572Y1077D01*
X590Y1077D02*
X594Y1077D01*
X613Y1077D02*
X616Y1077D01*
X630Y1077D02*
X633Y1077D01*
X649Y1077D02*
X652Y1077D01*
X679Y1077D02*
X682Y1077D01*
X748Y1077D02*
X763Y1077D01*
X0Y1076D02*
X3Y1076D01*
X433Y1076D02*
X448Y1076D01*
X523Y1076D02*
X526Y1076D01*
X539Y1076D02*
X543Y1076D01*
X553Y1076D02*
X556Y1076D01*
X569Y1076D02*
X572Y1076D01*
X589Y1076D02*
X593Y1076D01*
X613Y1076D02*
X616Y1076D01*
X630Y1076D02*
X633Y1076D01*
X649Y1076D02*
X652Y1076D01*
X679Y1076D02*
X682Y1076D01*
X748Y1076D02*
X763Y1076D01*
X0Y1075D02*
X3Y1075D01*
X433Y1075D02*
X448Y1075D01*
X523Y1075D02*
X526Y1075D01*
X539Y1075D02*
X543Y1075D01*
X553Y1075D02*
X556Y1075D01*
X569Y1075D02*
X572Y1075D01*
X589Y1075D02*
X593Y1075D01*
X613Y1075D02*
X616Y1075D01*
X630Y1075D02*
X633Y1075D01*
X649Y1075D02*
X652Y1075D01*
X679Y1075D02*
X682Y1075D01*
X748Y1075D02*
X763Y1075D01*
X0Y1074D02*
X3Y1074D01*
X433Y1074D02*
X448Y1074D01*
X523Y1074D02*
X526Y1074D01*
X539Y1074D02*
X543Y1074D01*
X553Y1074D02*
X556Y1074D01*
X569Y1074D02*
X572Y1074D01*
X588Y1074D02*
X592Y1074D01*
X613Y1074D02*
X616Y1074D01*
X630Y1074D02*
X633Y1074D01*
X649Y1074D02*
X652Y1074D01*
X679Y1074D02*
X682Y1074D01*
X748Y1074D02*
X763Y1074D01*
X0Y1073D02*
X3Y1073D01*
X433Y1073D02*
X448Y1073D01*
X523Y1073D02*
X526Y1073D01*
X539Y1073D02*
X543Y1073D01*
X553Y1073D02*
X556Y1073D01*
X569Y1073D02*
X572Y1073D01*
X588Y1073D02*
X592Y1073D01*
X613Y1073D02*
X616Y1073D01*
X630Y1073D02*
X633Y1073D01*
X649Y1073D02*
X652Y1073D01*
X679Y1073D02*
X682Y1073D01*
X748Y1073D02*
X763Y1073D01*
X0Y1072D02*
X3Y1072D01*
X433Y1072D02*
X448Y1072D01*
X523Y1072D02*
X526Y1072D01*
X539Y1072D02*
X543Y1072D01*
X553Y1072D02*
X556Y1072D01*
X569Y1072D02*
X573Y1072D01*
X587Y1072D02*
X591Y1072D01*
X613Y1072D02*
X616Y1072D01*
X630Y1072D02*
X633Y1072D01*
X649Y1072D02*
X652Y1072D01*
X679Y1072D02*
X682Y1072D01*
X748Y1072D02*
X763Y1072D01*
X0Y1071D02*
X3Y1071D01*
X433Y1071D02*
X448Y1071D01*
X523Y1071D02*
X526Y1071D01*
X539Y1071D02*
X543Y1071D01*
X553Y1071D02*
X556Y1071D01*
X569Y1071D02*
X573Y1071D01*
X586Y1071D02*
X590Y1071D01*
X613Y1071D02*
X616Y1071D01*
X630Y1071D02*
X633Y1071D01*
X649Y1071D02*
X652Y1071D01*
X679Y1071D02*
X682Y1071D01*
X748Y1071D02*
X763Y1071D01*
X0Y1070D02*
X3Y1070D01*
X433Y1070D02*
X448Y1070D01*
X523Y1070D02*
X526Y1070D01*
X539Y1070D02*
X543Y1070D01*
X553Y1070D02*
X556Y1070D01*
X569Y1070D02*
X573Y1070D01*
X586Y1070D02*
X590Y1070D01*
X613Y1070D02*
X617Y1070D01*
X630Y1070D02*
X633Y1070D01*
X649Y1070D02*
X652Y1070D01*
X679Y1070D02*
X682Y1070D01*
X748Y1070D02*
X763Y1070D01*
X0Y1069D02*
X3Y1069D01*
X433Y1069D02*
X448Y1069D01*
X523Y1069D02*
X527Y1069D01*
X539Y1069D02*
X543Y1069D01*
X553Y1069D02*
X556Y1069D01*
X569Y1069D02*
X573Y1069D01*
X585Y1069D02*
X589Y1069D01*
X613Y1069D02*
X617Y1069D01*
X629Y1069D02*
X633Y1069D01*
X649Y1069D02*
X652Y1069D01*
X679Y1069D02*
X682Y1069D01*
X748Y1069D02*
X763Y1069D01*
X0Y1068D02*
X3Y1068D01*
X433Y1068D02*
X448Y1068D01*
X523Y1068D02*
X527Y1068D01*
X538Y1068D02*
X542Y1068D01*
X553Y1068D02*
X556Y1068D01*
X569Y1068D02*
X573Y1068D01*
X585Y1068D02*
X589Y1068D01*
X614Y1068D02*
X618Y1068D01*
X628Y1068D02*
X633Y1068D01*
X649Y1068D02*
X652Y1068D01*
X679Y1068D02*
X682Y1068D01*
X748Y1068D02*
X763Y1068D01*
X0Y1067D02*
X3Y1067D01*
X433Y1067D02*
X448Y1067D01*
X524Y1067D02*
X529Y1067D01*
X537Y1067D02*
X542Y1067D01*
X553Y1067D02*
X556Y1067D01*
X569Y1067D02*
X573Y1067D01*
X584Y1067D02*
X588Y1067D01*
X614Y1067D02*
X619Y1067D01*
X627Y1067D02*
X632Y1067D01*
X649Y1067D02*
X652Y1067D01*
X679Y1067D02*
X682Y1067D01*
X748Y1067D02*
X763Y1067D01*
X0Y1066D02*
X3Y1066D01*
X433Y1066D02*
X448Y1066D01*
X524Y1066D02*
X541Y1066D01*
X553Y1066D02*
X556Y1066D01*
X570Y1066D02*
X573Y1066D01*
X584Y1066D02*
X587Y1066D01*
X615Y1066D02*
X631Y1066D01*
X649Y1066D02*
X652Y1066D01*
X679Y1066D02*
X682Y1066D01*
X748Y1066D02*
X763Y1066D01*
X0Y1065D02*
X3Y1065D01*
X433Y1065D02*
X448Y1065D01*
X526Y1065D02*
X540Y1065D01*
X553Y1065D02*
X556Y1065D01*
X570Y1065D02*
X573Y1065D01*
X583Y1065D02*
X587Y1065D01*
X616Y1065D02*
X630Y1065D01*
X649Y1065D02*
X652Y1065D01*
X679Y1065D02*
X682Y1065D01*
X748Y1065D02*
X763Y1065D01*
X0Y1064D02*
X3Y1064D01*
X433Y1064D02*
X448Y1064D01*
X527Y1064D02*
X539Y1064D01*
X553Y1064D02*
X556Y1064D01*
X570Y1064D02*
X573Y1064D01*
X583Y1064D02*
X586Y1064D01*
X617Y1064D02*
X629Y1064D01*
X649Y1064D02*
X652Y1064D01*
X679Y1064D02*
X682Y1064D01*
X748Y1064D02*
X763Y1064D01*
X0Y1063D02*
X3Y1063D01*
X433Y1063D02*
X448Y1063D01*
X529Y1063D02*
X537Y1063D01*
X554Y1063D02*
X555Y1063D01*
X571Y1063D02*
X572Y1063D01*
X584Y1063D02*
X585Y1063D01*
X619Y1063D02*
X627Y1063D01*
X650Y1063D02*
X651Y1063D01*
X680Y1063D02*
X681Y1063D01*
X748Y1063D02*
X763Y1063D01*
X0Y1062D02*
X3Y1062D01*
X433Y1062D02*
X448Y1062D01*
X748Y1062D02*
X763Y1062D01*
X0Y1061D02*
X3Y1061D01*
X433Y1061D02*
X448Y1061D01*
X748Y1061D02*
X763Y1061D01*
X0Y1060D02*
X3Y1060D01*
X433Y1060D02*
X448Y1060D01*
X748Y1060D02*
X763Y1060D01*
X0Y1059D02*
X3Y1059D01*
X433Y1059D02*
X448Y1059D01*
X748Y1059D02*
X763Y1059D01*
X0Y1058D02*
X3Y1058D01*
X433Y1058D02*
X448Y1058D01*
X748Y1058D02*
X763Y1058D01*
X0Y1057D02*
X3Y1057D01*
X433Y1057D02*
X448Y1057D01*
X748Y1057D02*
X763Y1057D01*
X0Y1056D02*
X3Y1056D01*
X433Y1056D02*
X448Y1056D01*
X748Y1056D02*
X763Y1056D01*
X0Y1055D02*
X3Y1055D01*
X433Y1055D02*
X448Y1055D01*
X748Y1055D02*
X763Y1055D01*
X0Y1054D02*
X3Y1054D01*
X433Y1054D02*
X448Y1054D01*
X748Y1054D02*
X763Y1054D01*
X0Y1053D02*
X3Y1053D01*
X433Y1053D02*
X448Y1053D01*
X748Y1053D02*
X763Y1053D01*
X0Y1052D02*
X3Y1052D01*
X433Y1052D02*
X448Y1052D01*
X748Y1052D02*
X763Y1052D01*
X0Y1051D02*
X3Y1051D01*
X433Y1051D02*
X448Y1051D01*
X748Y1051D02*
X763Y1051D01*
X0Y1050D02*
X3Y1050D01*
X433Y1050D02*
X448Y1050D01*
X748Y1050D02*
X763Y1050D01*
X0Y1049D02*
X3Y1049D01*
X433Y1049D02*
X448Y1049D01*
X748Y1049D02*
X763Y1049D01*
X0Y1048D02*
X3Y1048D01*
X433Y1048D02*
X448Y1048D01*
X748Y1048D02*
X763Y1048D01*
X0Y1047D02*
X3Y1047D01*
X433Y1047D02*
X448Y1047D01*
X748Y1047D02*
X763Y1047D01*
X0Y1046D02*
X3Y1046D01*
X433Y1046D02*
X448Y1046D01*
X748Y1046D02*
X763Y1046D01*
X0Y1045D02*
X3Y1045D01*
X433Y1045D02*
X448Y1045D01*
X748Y1045D02*
X763Y1045D01*
X0Y1044D02*
X3Y1044D01*
X433Y1044D02*
X448Y1044D01*
X748Y1044D02*
X763Y1044D01*
X0Y1043D02*
X3Y1043D01*
X433Y1043D02*
X448Y1043D01*
X748Y1043D02*
X763Y1043D01*
X0Y1042D02*
X3Y1042D01*
X433Y1042D02*
X448Y1042D01*
X748Y1042D02*
X763Y1042D01*
X0Y1041D02*
X3Y1041D01*
X433Y1041D02*
X448Y1041D01*
X748Y1041D02*
X763Y1041D01*
X0Y1040D02*
X3Y1040D01*
X433Y1040D02*
X448Y1040D01*
X748Y1040D02*
X763Y1040D01*
X0Y1039D02*
X3Y1039D01*
X433Y1039D02*
X448Y1039D01*
X748Y1039D02*
X763Y1039D01*
X0Y1038D02*
X3Y1038D01*
X433Y1038D02*
X448Y1038D01*
X748Y1038D02*
X763Y1038D01*
X0Y1037D02*
X3Y1037D01*
X433Y1037D02*
X448Y1037D01*
X748Y1037D02*
X763Y1037D01*
X0Y1036D02*
X3Y1036D01*
X0Y1035D02*
X3Y1035D01*
X0Y1034D02*
X3Y1034D01*
X0Y1033D02*
X3Y1033D01*
X0Y1032D02*
X3Y1032D01*
X0Y1031D02*
X3Y1031D01*
X0Y1030D02*
X3Y1030D01*
X0Y1029D02*
X3Y1029D01*
X0Y1028D02*
X3Y1028D01*
X0Y1027D02*
X3Y1027D01*
X0Y1026D02*
X3Y1026D01*
X0Y1025D02*
X3Y1025D01*
X0Y1024D02*
X3Y1024D01*
X0Y1023D02*
X3Y1023D01*
X0Y1022D02*
X3Y1022D01*
X0Y1021D02*
X3Y1021D01*
X0Y1020D02*
X3Y1020D01*
X0Y1019D02*
X3Y1019D01*
X0Y1018D02*
X3Y1018D01*
X0Y1017D02*
X3Y1017D01*
X0Y1016D02*
X3Y1016D01*
X0Y1015D02*
X3Y1015D01*
X0Y1014D02*
X3Y1014D01*
X0Y1013D02*
X3Y1013D01*
X0Y1012D02*
X3Y1012D01*
X0Y1011D02*
X3Y1011D01*
X0Y1010D02*
X3Y1010D01*
X0Y1009D02*
X3Y1009D01*
X0Y1008D02*
X3Y1008D01*
X0Y1007D02*
X3Y1007D01*
X0Y1006D02*
X3Y1006D01*
X0Y1005D02*
X3Y1005D01*
X0Y1004D02*
X3Y1004D01*
X0Y1003D02*
X3Y1003D01*
X0Y1002D02*
X3Y1002D01*
X0Y1001D02*
X3Y1001D01*
X0Y1000D02*
X3Y1000D01*
X0Y999D02*
X3Y999D01*
X0Y998D02*
X3Y998D01*
X0Y997D02*
X3Y997D01*
X0Y996D02*
X3Y996D01*
X0Y995D02*
X3Y995D01*
X0Y994D02*
X3Y994D01*
X0Y993D02*
X3Y993D01*
X0Y992D02*
X3Y992D01*
X0Y991D02*
X3Y991D01*
X0Y990D02*
X3Y990D01*
X0Y989D02*
X3Y989D01*
X0Y988D02*
X3Y988D01*
X0Y987D02*
X3Y987D01*
X0Y986D02*
X3Y986D01*
X0Y985D02*
X3Y985D01*
X0Y984D02*
X3Y984D01*
X0Y983D02*
X3Y983D01*
X0Y982D02*
X3Y982D01*
X0Y981D02*
X3Y981D01*
X0Y980D02*
X3Y980D01*
X0Y979D02*
X3Y979D01*
X0Y978D02*
X3Y978D01*
X0Y977D02*
X3Y977D01*
X0Y976D02*
X3Y976D01*
X0Y975D02*
X3Y975D01*
X0Y974D02*
X3Y974D01*
X0Y973D02*
X3Y973D01*
X0Y972D02*
X3Y972D01*
X0Y971D02*
X3Y971D01*
X0Y970D02*
X3Y970D01*
X0Y969D02*
X3Y969D01*
X0Y968D02*
X3Y968D01*
X0Y967D02*
X3Y967D01*
X0Y966D02*
X3Y966D01*
X0Y965D02*
X3Y965D01*
X0Y964D02*
X3Y964D01*
X0Y963D02*
X3Y963D01*
X0Y962D02*
X3Y962D01*
X0Y961D02*
X3Y961D01*
X0Y960D02*
X3Y960D01*
X0Y959D02*
X3Y959D01*
X0Y958D02*
X3Y958D01*
X0Y957D02*
X3Y957D01*
X0Y956D02*
X3Y956D01*
X0Y955D02*
X3Y955D01*
X0Y954D02*
X3Y954D01*
X0Y953D02*
X3Y953D01*
X0Y952D02*
X3Y952D01*
X0Y951D02*
X3Y951D01*
X0Y950D02*
X3Y950D01*
X0Y949D02*
X3Y949D01*
X0Y948D02*
X3Y948D01*
X0Y947D02*
X3Y947D01*
X0Y946D02*
X3Y946D01*
X0Y945D02*
X3Y945D01*
X0Y944D02*
X3Y944D01*
X0Y943D02*
X3Y943D01*
X0Y942D02*
X3Y942D01*
X0Y941D02*
X3Y941D01*
X0Y940D02*
X3Y940D01*
X0Y939D02*
X3Y939D01*
X0Y938D02*
X3Y938D01*
X0Y937D02*
X3Y937D01*
X0Y936D02*
X3Y936D01*
X0Y935D02*
X3Y935D01*
X0Y934D02*
X3Y934D01*
X0Y933D02*
X3Y933D01*
X0Y932D02*
X3Y932D01*
X0Y931D02*
X3Y931D01*
X0Y930D02*
X3Y930D01*
X0Y929D02*
X3Y929D01*
X0Y928D02*
X3Y928D01*
X0Y927D02*
X3Y927D01*
X0Y926D02*
X3Y926D01*
X0Y925D02*
X3Y925D01*
X0Y924D02*
X3Y924D01*
X0Y923D02*
X3Y923D01*
X0Y922D02*
X3Y922D01*
X0Y921D02*
X3Y921D01*
X0Y920D02*
X3Y920D01*
X0Y919D02*
X3Y919D01*
X0Y918D02*
X3Y918D01*
X0Y917D02*
X3Y917D01*
X0Y916D02*
X3Y916D01*
X0Y915D02*
X3Y915D01*
X0Y914D02*
X3Y914D01*
X0Y913D02*
X3Y913D01*
X0Y912D02*
X3Y912D01*
X0Y911D02*
X3Y911D01*
X0Y910D02*
X3Y910D01*
X0Y909D02*
X3Y909D01*
X0Y908D02*
X3Y908D01*
X0Y907D02*
X3Y907D01*
X0Y906D02*
X3Y906D01*
X0Y905D02*
X3Y905D01*
X0Y904D02*
X3Y904D01*
X0Y903D02*
X3Y903D01*
X0Y902D02*
X3Y902D01*
X0Y901D02*
X3Y901D01*
X0Y900D02*
X3Y900D01*
X0Y899D02*
X3Y899D01*
X0Y898D02*
X3Y898D01*
X0Y897D02*
X3Y897D01*
X0Y896D02*
X3Y896D01*
X0Y895D02*
X3Y895D01*
X0Y894D02*
X3Y894D01*
X0Y893D02*
X3Y893D01*
X0Y892D02*
X3Y892D01*
X0Y891D02*
X3Y891D01*
X0Y890D02*
X3Y890D01*
X0Y889D02*
X3Y889D01*
X0Y888D02*
X3Y888D01*
X0Y887D02*
X3Y887D01*
X0Y886D02*
X3Y886D01*
X793Y886D02*
X797Y886D01*
X912Y886D02*
X916Y886D01*
X0Y885D02*
X3Y885D01*
X792Y885D02*
X797Y885D01*
X912Y885D02*
X917Y885D01*
X0Y884D02*
X3Y884D01*
X756Y884D02*
X771Y884D01*
X792Y884D02*
X797Y884D01*
X816Y884D02*
X819Y884D01*
X876Y884D02*
X892Y884D01*
X912Y884D02*
X917Y884D01*
X998Y884D02*
X1006Y884D01*
X0Y883D02*
X3Y883D01*
X756Y883D02*
X773Y883D01*
X792Y883D02*
X797Y883D01*
X816Y883D02*
X819Y883D01*
X876Y883D02*
X894Y883D01*
X912Y883D02*
X917Y883D01*
X998Y883D02*
X1007Y883D01*
X0Y882D02*
X3Y882D01*
X756Y882D02*
X774Y882D01*
X792Y882D02*
X797Y882D01*
X816Y882D02*
X819Y882D01*
X876Y882D02*
X894Y882D01*
X912Y882D02*
X917Y882D01*
X998Y882D02*
X1007Y882D01*
X0Y881D02*
X3Y881D01*
X756Y881D02*
X774Y881D01*
X793Y881D02*
X796Y881D01*
X816Y881D02*
X819Y881D01*
X876Y881D02*
X895Y881D01*
X913Y881D02*
X916Y881D01*
X999Y881D02*
X1007Y881D01*
X0Y880D02*
X3Y880D01*
X756Y880D02*
X759Y880D01*
X771Y880D02*
X775Y880D01*
X816Y880D02*
X819Y880D01*
X876Y880D02*
X879Y880D01*
X892Y880D02*
X895Y880D01*
X1004Y880D02*
X1007Y880D01*
X0Y879D02*
X3Y879D01*
X756Y879D02*
X759Y879D01*
X772Y879D02*
X775Y879D01*
X816Y879D02*
X819Y879D01*
X876Y879D02*
X879Y879D01*
X892Y879D02*
X895Y879D01*
X1004Y879D02*
X1007Y879D01*
X0Y878D02*
X3Y878D01*
X756Y878D02*
X759Y878D01*
X772Y878D02*
X776Y878D01*
X816Y878D02*
X819Y878D01*
X876Y878D02*
X879Y878D01*
X892Y878D02*
X895Y878D01*
X1004Y878D02*
X1007Y878D01*
X0Y877D02*
X3Y877D01*
X756Y877D02*
X759Y877D01*
X772Y877D02*
X776Y877D01*
X816Y877D02*
X819Y877D01*
X876Y877D02*
X879Y877D01*
X892Y877D02*
X895Y877D01*
X1004Y877D02*
X1007Y877D01*
X0Y876D02*
X3Y876D01*
X756Y876D02*
X759Y876D01*
X772Y876D02*
X776Y876D01*
X789Y876D02*
X796Y876D01*
X816Y876D02*
X819Y876D01*
X832Y876D02*
X832Y876D01*
X852Y876D02*
X859Y876D01*
X876Y876D02*
X879Y876D01*
X892Y876D02*
X895Y876D01*
X909Y876D02*
X916Y876D01*
X937Y876D02*
X938Y876D01*
X953Y876D02*
X953Y876D01*
X972Y876D02*
X979Y876D01*
X1004Y876D02*
X1007Y876D01*
X1030Y876D02*
X1041Y876D01*
X1094Y876D02*
X1104Y876D01*
X1122Y876D02*
X1129Y876D01*
X1146Y876D02*
X1146Y876D01*
X1151Y876D02*
X1153Y876D01*
X1160Y876D02*
X1160Y876D01*
X0Y875D02*
X3Y875D01*
X756Y875D02*
X759Y875D01*
X772Y875D02*
X776Y875D01*
X788Y875D02*
X797Y875D01*
X816Y875D02*
X819Y875D01*
X830Y875D02*
X833Y875D01*
X850Y875D02*
X861Y875D01*
X876Y875D02*
X879Y875D01*
X892Y875D02*
X895Y875D01*
X908Y875D02*
X917Y875D01*
X936Y875D02*
X939Y875D01*
X952Y875D02*
X955Y875D01*
X970Y875D02*
X981Y875D01*
X1004Y875D02*
X1007Y875D01*
X1028Y875D02*
X1043Y875D01*
X1091Y875D02*
X1105Y875D01*
X1119Y875D02*
X1131Y875D01*
X1145Y875D02*
X1155Y875D01*
X1157Y875D02*
X1162Y875D01*
X0Y874D02*
X3Y874D01*
X756Y874D02*
X759Y874D01*
X772Y874D02*
X776Y874D01*
X788Y874D02*
X797Y874D01*
X816Y874D02*
X819Y874D01*
X829Y874D02*
X833Y874D01*
X849Y874D02*
X863Y874D01*
X876Y874D02*
X879Y874D01*
X892Y874D02*
X895Y874D01*
X908Y874D02*
X917Y874D01*
X936Y874D02*
X940Y874D01*
X951Y874D02*
X955Y874D01*
X968Y874D02*
X982Y874D01*
X1004Y874D02*
X1007Y874D01*
X1027Y874D02*
X1044Y874D01*
X1090Y874D02*
X1105Y874D01*
X1118Y874D02*
X1132Y874D01*
X1145Y874D02*
X1163Y874D01*
X0Y873D02*
X3Y873D01*
X756Y873D02*
X759Y873D01*
X772Y873D02*
X775Y873D01*
X788Y873D02*
X797Y873D01*
X816Y873D02*
X819Y873D01*
X828Y873D02*
X833Y873D01*
X848Y873D02*
X864Y873D01*
X876Y873D02*
X879Y873D01*
X892Y873D02*
X895Y873D01*
X908Y873D02*
X917Y873D01*
X936Y873D02*
X941Y873D01*
X950Y873D02*
X954Y873D01*
X967Y873D02*
X983Y873D01*
X1004Y873D02*
X1007Y873D01*
X1026Y873D02*
X1044Y873D01*
X1089Y873D02*
X1105Y873D01*
X1117Y873D02*
X1133Y873D01*
X1145Y873D02*
X1164Y873D01*
X0Y872D02*
X3Y872D01*
X756Y872D02*
X759Y872D01*
X771Y872D02*
X775Y872D01*
X794Y872D02*
X797Y872D01*
X816Y872D02*
X819Y872D01*
X827Y872D02*
X832Y872D01*
X847Y872D02*
X853Y872D01*
X859Y872D02*
X864Y872D01*
X876Y872D02*
X879Y872D01*
X892Y872D02*
X895Y872D01*
X913Y872D02*
X917Y872D01*
X937Y872D02*
X942Y872D01*
X949Y872D02*
X954Y872D01*
X967Y872D02*
X972Y872D01*
X978Y872D02*
X984Y872D01*
X1004Y872D02*
X1007Y872D01*
X1026Y872D02*
X1030Y872D01*
X1040Y872D02*
X1045Y872D01*
X1088Y872D02*
X1094Y872D01*
X1116Y872D02*
X1122Y872D01*
X1128Y872D02*
X1134Y872D01*
X1145Y872D02*
X1164Y872D01*
X0Y871D02*
X3Y871D01*
X756Y871D02*
X760Y871D01*
X768Y871D02*
X775Y871D01*
X794Y871D02*
X797Y871D01*
X816Y871D02*
X819Y871D01*
X825Y871D02*
X831Y871D01*
X846Y871D02*
X851Y871D01*
X861Y871D02*
X865Y871D01*
X876Y871D02*
X879Y871D01*
X892Y871D02*
X895Y871D01*
X914Y871D02*
X917Y871D01*
X938Y871D02*
X942Y871D01*
X948Y871D02*
X953Y871D01*
X966Y871D02*
X970Y871D01*
X981Y871D02*
X985Y871D01*
X1004Y871D02*
X1007Y871D01*
X1026Y871D02*
X1029Y871D01*
X1042Y871D02*
X1044Y871D01*
X1087Y871D02*
X1092Y871D01*
X1116Y871D02*
X1120Y871D01*
X1130Y871D02*
X1134Y871D01*
X1145Y871D02*
X1150Y871D01*
X1153Y871D02*
X1158Y871D01*
X1161Y871D02*
X1164Y871D01*
X0Y870D02*
X3Y870D01*
X756Y870D02*
X774Y870D01*
X794Y870D02*
X797Y870D01*
X816Y870D02*
X819Y870D01*
X824Y870D02*
X830Y870D01*
X846Y870D02*
X850Y870D01*
X862Y870D02*
X865Y870D01*
X876Y870D02*
X879Y870D01*
X892Y870D02*
X895Y870D01*
X914Y870D02*
X917Y870D01*
X939Y870D02*
X943Y870D01*
X948Y870D02*
X952Y870D01*
X966Y870D02*
X969Y870D01*
X981Y870D02*
X985Y870D01*
X1004Y870D02*
X1007Y870D01*
X1026Y870D02*
X1030Y870D01*
X1086Y870D02*
X1091Y870D01*
X1115Y870D02*
X1119Y870D01*
X1131Y870D02*
X1135Y870D01*
X1145Y870D02*
X1149Y870D01*
X1153Y870D02*
X1157Y870D01*
X1161Y870D02*
X1164Y870D01*
X0Y869D02*
X3Y869D01*
X756Y869D02*
X773Y869D01*
X794Y869D02*
X797Y869D01*
X816Y869D02*
X819Y869D01*
X823Y869D02*
X829Y869D01*
X846Y869D02*
X849Y869D01*
X862Y869D02*
X865Y869D01*
X876Y869D02*
X895Y869D01*
X914Y869D02*
X917Y869D01*
X940Y869D02*
X944Y869D01*
X947Y869D02*
X951Y869D01*
X966Y869D02*
X969Y869D01*
X982Y869D02*
X985Y869D01*
X1004Y869D02*
X1007Y869D01*
X1026Y869D02*
X1032Y869D01*
X1086Y869D02*
X1090Y869D01*
X1115Y869D02*
X1118Y869D01*
X1132Y869D02*
X1135Y869D01*
X1145Y869D02*
X1148Y869D01*
X1153Y869D02*
X1157Y869D01*
X1161Y869D02*
X1165Y869D01*
X0Y868D02*
X3Y868D01*
X756Y868D02*
X774Y868D01*
X794Y868D02*
X797Y868D01*
X816Y868D02*
X819Y868D01*
X822Y868D02*
X827Y868D01*
X846Y868D02*
X849Y868D01*
X862Y868D02*
X865Y868D01*
X876Y868D02*
X894Y868D01*
X914Y868D02*
X917Y868D01*
X940Y868D02*
X950Y868D01*
X966Y868D02*
X969Y868D01*
X982Y868D02*
X985Y868D01*
X1004Y868D02*
X1007Y868D01*
X1027Y868D02*
X1034Y868D01*
X1085Y868D02*
X1089Y868D01*
X1115Y868D02*
X1118Y868D01*
X1132Y868D02*
X1135Y868D01*
X1145Y868D02*
X1148Y868D01*
X1153Y868D02*
X1157Y868D01*
X1161Y868D02*
X1165Y868D01*
X0Y867D02*
X3Y867D01*
X756Y867D02*
X774Y867D01*
X794Y867D02*
X797Y867D01*
X816Y867D02*
X819Y867D01*
X821Y867D02*
X826Y867D01*
X846Y867D02*
X849Y867D01*
X862Y867D02*
X865Y867D01*
X876Y867D02*
X894Y867D01*
X914Y867D02*
X917Y867D01*
X941Y867D02*
X949Y867D01*
X966Y867D02*
X969Y867D01*
X982Y867D02*
X985Y867D01*
X1004Y867D02*
X1007Y867D01*
X1028Y867D02*
X1036Y867D01*
X1085Y867D02*
X1088Y867D01*
X1115Y867D02*
X1118Y867D01*
X1132Y867D02*
X1135Y867D01*
X1145Y867D02*
X1148Y867D01*
X1153Y867D02*
X1157Y867D01*
X1161Y867D02*
X1165Y867D01*
X0Y866D02*
X3Y866D01*
X756Y866D02*
X759Y866D01*
X771Y866D02*
X775Y866D01*
X794Y866D02*
X797Y866D01*
X816Y866D02*
X825Y866D01*
X846Y866D02*
X849Y866D01*
X862Y866D02*
X865Y866D01*
X876Y866D02*
X892Y866D01*
X914Y866D02*
X917Y866D01*
X942Y866D02*
X949Y866D01*
X966Y866D02*
X969Y866D01*
X982Y866D02*
X985Y866D01*
X1004Y866D02*
X1007Y866D01*
X1029Y866D02*
X1039Y866D01*
X1085Y866D02*
X1088Y866D01*
X1115Y866D02*
X1118Y866D01*
X1132Y866D02*
X1135Y866D01*
X1145Y866D02*
X1148Y866D01*
X1153Y866D02*
X1157Y866D01*
X1161Y866D02*
X1165Y866D01*
X0Y865D02*
X3Y865D01*
X756Y865D02*
X759Y865D01*
X772Y865D02*
X775Y865D01*
X794Y865D02*
X797Y865D01*
X816Y865D02*
X825Y865D01*
X846Y865D02*
X865Y865D01*
X876Y865D02*
X889Y865D01*
X914Y865D02*
X917Y865D01*
X943Y865D02*
X948Y865D01*
X966Y865D02*
X985Y865D01*
X1004Y865D02*
X1007Y865D01*
X1031Y865D02*
X1041Y865D01*
X1062Y865D02*
X1068Y865D01*
X1085Y865D02*
X1088Y865D01*
X1115Y865D02*
X1118Y865D01*
X1132Y865D02*
X1135Y865D01*
X1145Y865D02*
X1148Y865D01*
X1153Y865D02*
X1157Y865D01*
X1161Y865D02*
X1165Y865D01*
X0Y864D02*
X3Y864D01*
X756Y864D02*
X759Y864D01*
X772Y864D02*
X776Y864D01*
X794Y864D02*
X797Y864D01*
X816Y864D02*
X826Y864D01*
X846Y864D02*
X865Y864D01*
X876Y864D02*
X879Y864D01*
X914Y864D02*
X917Y864D01*
X943Y864D02*
X948Y864D01*
X966Y864D02*
X985Y864D01*
X1004Y864D02*
X1007Y864D01*
X1034Y864D02*
X1043Y864D01*
X1062Y864D02*
X1069Y864D01*
X1085Y864D02*
X1088Y864D01*
X1115Y864D02*
X1118Y864D01*
X1132Y864D02*
X1135Y864D01*
X1145Y864D02*
X1148Y864D01*
X1153Y864D02*
X1157Y864D01*
X1162Y864D02*
X1165Y864D01*
X0Y863D02*
X3Y863D01*
X756Y863D02*
X759Y863D01*
X772Y863D02*
X776Y863D01*
X794Y863D02*
X797Y863D01*
X816Y863D02*
X827Y863D01*
X846Y863D02*
X865Y863D01*
X876Y863D02*
X879Y863D01*
X914Y863D02*
X917Y863D01*
X942Y863D02*
X949Y863D01*
X966Y863D02*
X985Y863D01*
X1004Y863D02*
X1007Y863D01*
X1036Y863D02*
X1044Y863D01*
X1061Y863D02*
X1069Y863D01*
X1085Y863D02*
X1088Y863D01*
X1115Y863D02*
X1118Y863D01*
X1132Y863D02*
X1135Y863D01*
X1145Y863D02*
X1148Y863D01*
X1153Y863D02*
X1157Y863D01*
X1162Y863D02*
X1165Y863D01*
X0Y862D02*
X3Y862D01*
X756Y862D02*
X759Y862D01*
X772Y862D02*
X776Y862D01*
X794Y862D02*
X797Y862D01*
X816Y862D02*
X820Y862D01*
X823Y862D02*
X828Y862D01*
X846Y862D02*
X865Y862D01*
X876Y862D02*
X879Y862D01*
X914Y862D02*
X917Y862D01*
X941Y862D02*
X950Y862D01*
X966Y862D02*
X984Y862D01*
X1004Y862D02*
X1007Y862D01*
X1038Y862D02*
X1044Y862D01*
X1061Y862D02*
X1069Y862D01*
X1085Y862D02*
X1088Y862D01*
X1115Y862D02*
X1118Y862D01*
X1132Y862D02*
X1135Y862D01*
X1145Y862D02*
X1148Y862D01*
X1153Y862D02*
X1157Y862D01*
X1162Y862D02*
X1165Y862D01*
X0Y861D02*
X3Y861D01*
X756Y861D02*
X759Y861D01*
X772Y861D02*
X776Y861D01*
X794Y861D02*
X797Y861D01*
X816Y861D02*
X819Y861D01*
X824Y861D02*
X829Y861D01*
X846Y861D02*
X849Y861D01*
X876Y861D02*
X879Y861D01*
X914Y861D02*
X917Y861D01*
X940Y861D02*
X951Y861D01*
X966Y861D02*
X969Y861D01*
X1004Y861D02*
X1007Y861D01*
X1041Y861D02*
X1045Y861D01*
X1061Y861D02*
X1069Y861D01*
X1085Y861D02*
X1089Y861D01*
X1115Y861D02*
X1118Y861D01*
X1132Y861D02*
X1135Y861D01*
X1145Y861D02*
X1148Y861D01*
X1153Y861D02*
X1157Y861D01*
X1162Y861D02*
X1165Y861D01*
X0Y860D02*
X3Y860D01*
X756Y860D02*
X759Y860D01*
X772Y860D02*
X776Y860D01*
X794Y860D02*
X797Y860D01*
X816Y860D02*
X819Y860D01*
X825Y860D02*
X831Y860D01*
X846Y860D02*
X849Y860D01*
X876Y860D02*
X879Y860D01*
X914Y860D02*
X917Y860D01*
X939Y860D02*
X944Y860D01*
X947Y860D02*
X952Y860D01*
X966Y860D02*
X969Y860D01*
X1004Y860D02*
X1007Y860D01*
X1041Y860D02*
X1045Y860D01*
X1061Y860D02*
X1069Y860D01*
X1086Y860D02*
X1090Y860D01*
X1115Y860D02*
X1118Y860D01*
X1132Y860D02*
X1135Y860D01*
X1145Y860D02*
X1148Y860D01*
X1153Y860D02*
X1157Y860D01*
X1162Y860D02*
X1165Y860D01*
X0Y859D02*
X3Y859D01*
X756Y859D02*
X759Y859D01*
X772Y859D02*
X775Y859D01*
X794Y859D02*
X797Y859D01*
X816Y859D02*
X819Y859D01*
X826Y859D02*
X832Y859D01*
X846Y859D02*
X849Y859D01*
X876Y859D02*
X879Y859D01*
X914Y859D02*
X917Y859D01*
X938Y859D02*
X943Y859D01*
X948Y859D02*
X952Y859D01*
X966Y859D02*
X969Y859D01*
X1004Y859D02*
X1007Y859D01*
X1042Y859D02*
X1045Y859D01*
X1062Y859D02*
X1068Y859D01*
X1086Y859D02*
X1091Y859D01*
X1115Y859D02*
X1119Y859D01*
X1131Y859D02*
X1135Y859D01*
X1145Y859D02*
X1148Y859D01*
X1153Y859D02*
X1157Y859D01*
X1162Y859D02*
X1165Y859D01*
X0Y858D02*
X3Y858D01*
X756Y858D02*
X759Y858D01*
X771Y858D02*
X775Y858D01*
X794Y858D02*
X797Y858D01*
X816Y858D02*
X819Y858D01*
X827Y858D02*
X833Y858D01*
X846Y858D02*
X850Y858D01*
X876Y858D02*
X879Y858D01*
X914Y858D02*
X917Y858D01*
X938Y858D02*
X942Y858D01*
X949Y858D02*
X953Y858D01*
X966Y858D02*
X970Y858D01*
X1004Y858D02*
X1007Y858D01*
X1026Y858D02*
X1028Y858D01*
X1041Y858D02*
X1045Y858D01*
X1063Y858D02*
X1067Y858D01*
X1087Y858D02*
X1092Y858D01*
X1116Y858D02*
X1120Y858D01*
X1130Y858D02*
X1134Y858D01*
X1145Y858D02*
X1148Y858D01*
X1153Y858D02*
X1157Y858D01*
X1162Y858D02*
X1165Y858D01*
X0Y857D02*
X3Y857D01*
X756Y857D02*
X760Y857D01*
X769Y857D02*
X775Y857D01*
X794Y857D02*
X798Y857D01*
X816Y857D02*
X819Y857D01*
X829Y857D02*
X834Y857D01*
X847Y857D02*
X852Y857D01*
X876Y857D02*
X879Y857D01*
X914Y857D02*
X917Y857D01*
X937Y857D02*
X941Y857D01*
X950Y857D02*
X954Y857D01*
X966Y857D02*
X972Y857D01*
X1003Y857D02*
X1007Y857D01*
X1025Y857D02*
X1030Y857D01*
X1040Y857D02*
X1045Y857D01*
X1088Y857D02*
X1093Y857D01*
X1116Y857D02*
X1121Y857D01*
X1129Y857D02*
X1134Y857D01*
X1145Y857D02*
X1148Y857D01*
X1153Y857D02*
X1157Y857D01*
X1162Y857D02*
X1165Y857D01*
X0Y856D02*
X3Y856D01*
X756Y856D02*
X774Y856D01*
X788Y856D02*
X803Y856D01*
X816Y856D02*
X819Y856D01*
X830Y856D02*
X835Y856D01*
X847Y856D02*
X865Y856D01*
X876Y856D02*
X879Y856D01*
X908Y856D02*
X923Y856D01*
X936Y856D02*
X940Y856D01*
X950Y856D02*
X955Y856D01*
X967Y856D02*
X985Y856D01*
X998Y856D02*
X1013Y856D01*
X1026Y856D02*
X1044Y856D01*
X1089Y856D02*
X1104Y856D01*
X1117Y856D02*
X1133Y856D01*
X1145Y856D02*
X1148Y856D01*
X1153Y856D02*
X1157Y856D01*
X1162Y856D02*
X1165Y856D01*
X0Y855D02*
X3Y855D01*
X756Y855D02*
X773Y855D01*
X788Y855D02*
X803Y855D01*
X816Y855D02*
X819Y855D01*
X831Y855D02*
X835Y855D01*
X848Y855D02*
X865Y855D01*
X876Y855D02*
X879Y855D01*
X908Y855D02*
X923Y855D01*
X936Y855D02*
X940Y855D01*
X951Y855D02*
X955Y855D01*
X968Y855D02*
X985Y855D01*
X998Y855D02*
X1013Y855D01*
X1026Y855D02*
X1043Y855D01*
X1090Y855D02*
X1105Y855D01*
X1118Y855D02*
X1132Y855D01*
X1145Y855D02*
X1148Y855D01*
X1153Y855D02*
X1157Y855D01*
X1162Y855D02*
X1165Y855D01*
X0Y854D02*
X3Y854D01*
X756Y854D02*
X772Y854D01*
X788Y854D02*
X803Y854D01*
X816Y854D02*
X819Y854D01*
X832Y854D02*
X835Y854D01*
X850Y854D02*
X865Y854D01*
X876Y854D02*
X879Y854D01*
X908Y854D02*
X923Y854D01*
X936Y854D02*
X939Y854D01*
X952Y854D02*
X955Y854D01*
X969Y854D02*
X985Y854D01*
X998Y854D02*
X1013Y854D01*
X1027Y854D02*
X1042Y854D01*
X1091Y854D02*
X1105Y854D01*
X1119Y854D02*
X1131Y854D01*
X1145Y854D02*
X1148Y854D01*
X1154Y854D02*
X1156Y854D01*
X1162Y854D02*
X1165Y854D01*
X0Y853D02*
X3Y853D01*
X756Y853D02*
X769Y853D01*
X789Y853D02*
X802Y853D01*
X817Y853D02*
X818Y853D01*
X833Y853D02*
X834Y853D01*
X852Y853D02*
X864Y853D01*
X877Y853D02*
X878Y853D01*
X909Y853D02*
X922Y853D01*
X937Y853D02*
X938Y853D01*
X953Y853D02*
X954Y853D01*
X971Y853D02*
X984Y853D01*
X999Y853D02*
X1012Y853D01*
X1030Y853D02*
X1041Y853D01*
X1093Y853D02*
X1104Y853D01*
X1121Y853D02*
X1129Y853D01*
X1146Y853D02*
X1147Y853D01*
X1154Y853D02*
X1155Y853D01*
X1163Y853D02*
X1164Y853D01*
X0Y852D02*
X3Y852D01*
X0Y851D02*
X3Y851D01*
X0Y850D02*
X3Y850D01*
X0Y849D02*
X3Y849D01*
X0Y848D02*
X3Y848D01*
X0Y847D02*
X3Y847D01*
X0Y846D02*
X3Y846D01*
X0Y845D02*
X3Y845D01*
X0Y844D02*
X3Y844D01*
X0Y843D02*
X3Y843D01*
X0Y842D02*
X3Y842D01*
X0Y841D02*
X3Y841D01*
X0Y840D02*
X3Y840D01*
X0Y839D02*
X3Y839D01*
X0Y838D02*
X3Y838D01*
X0Y837D02*
X3Y837D01*
X0Y836D02*
X3Y836D01*
X0Y835D02*
X3Y835D01*
X0Y834D02*
X3Y834D01*
X0Y833D02*
X3Y833D01*
X0Y832D02*
X3Y832D01*
X0Y831D02*
X3Y831D01*
X0Y830D02*
X3Y830D01*
X0Y829D02*
X3Y829D01*
X0Y828D02*
X3Y828D01*
X0Y827D02*
X3Y827D01*
X0Y826D02*
X3Y826D01*
X0Y825D02*
X3Y825D01*
X0Y824D02*
X3Y824D01*
X906Y824D02*
X907Y824D01*
X0Y823D02*
X3Y823D01*
X905Y823D02*
X908Y823D01*
X0Y822D02*
X3Y822D01*
X904Y822D02*
X909Y822D01*
X0Y821D02*
X3Y821D01*
X904Y821D02*
X910Y821D01*
X0Y820D02*
X3Y820D01*
X905Y820D02*
X911Y820D01*
X0Y819D02*
X3Y819D01*
X906Y819D02*
X912Y819D01*
X0Y818D02*
X3Y818D01*
X907Y818D02*
X913Y818D01*
X0Y817D02*
X3Y817D01*
X908Y817D02*
X914Y817D01*
X0Y816D02*
X3Y816D01*
X909Y816D02*
X915Y816D01*
X0Y815D02*
X3Y815D01*
X910Y815D02*
X916Y815D01*
X0Y814D02*
X3Y814D01*
X911Y814D02*
X917Y814D01*
X0Y813D02*
X3Y813D01*
X912Y813D02*
X918Y813D01*
X0Y812D02*
X3Y812D01*
X913Y812D02*
X919Y812D01*
X0Y811D02*
X3Y811D01*
X914Y811D02*
X920Y811D01*
X0Y810D02*
X3Y810D01*
X915Y810D02*
X921Y810D01*
X0Y809D02*
X3Y809D01*
X916Y809D02*
X922Y809D01*
X0Y808D02*
X3Y808D01*
X917Y808D02*
X923Y808D01*
X0Y807D02*
X3Y807D01*
X919Y807D02*
X924Y807D01*
X0Y806D02*
X3Y806D01*
X920Y806D02*
X925Y806D01*
X0Y805D02*
X3Y805D01*
X921Y805D02*
X926Y805D01*
X0Y804D02*
X3Y804D01*
X922Y804D02*
X927Y804D01*
X0Y803D02*
X3Y803D01*
X923Y803D02*
X928Y803D01*
X0Y802D02*
X3Y802D01*
X924Y802D02*
X929Y802D01*
X0Y801D02*
X3Y801D01*
X925Y801D02*
X930Y801D01*
X0Y800D02*
X3Y800D01*
X925Y800D02*
X931Y800D01*
X0Y799D02*
X3Y799D01*
X926Y799D02*
X932Y799D01*
X0Y798D02*
X3Y798D01*
X927Y798D02*
X933Y798D01*
X0Y797D02*
X3Y797D01*
X928Y797D02*
X934Y797D01*
X0Y796D02*
X3Y796D01*
X929Y796D02*
X935Y796D01*
X0Y795D02*
X3Y795D01*
X930Y795D02*
X936Y795D01*
X0Y794D02*
X3Y794D01*
X931Y794D02*
X937Y794D01*
X0Y793D02*
X3Y793D01*
X932Y793D02*
X938Y793D01*
X0Y792D02*
X3Y792D01*
X933Y792D02*
X939Y792D01*
X0Y791D02*
X3Y791D01*
X934Y791D02*
X940Y791D01*
X0Y790D02*
X3Y790D01*
X935Y790D02*
X941Y790D01*
X0Y789D02*
X3Y789D01*
X936Y789D02*
X940Y789D01*
X0Y788D02*
X3Y788D01*
X937Y788D02*
X939Y788D01*
X0Y787D02*
X3Y787D01*
X938Y787D02*
X938Y787D01*
X0Y786D02*
X3Y786D01*
X0Y785D02*
X3Y785D01*
X0Y784D02*
X3Y784D01*
X0Y783D02*
X3Y783D01*
X0Y782D02*
X3Y782D01*
X0Y781D02*
X3Y781D01*
X0Y780D02*
X3Y780D01*
X0Y779D02*
X3Y779D01*
X0Y778D02*
X3Y778D01*
X0Y777D02*
X3Y777D01*
X0Y776D02*
X3Y776D01*
X0Y775D02*
X3Y775D01*
X0Y774D02*
X3Y774D01*
X0Y773D02*
X3Y773D01*
X0Y772D02*
X3Y772D01*
X0Y771D02*
X3Y771D01*
X0Y770D02*
X3Y770D01*
X0Y769D02*
X3Y769D01*
X0Y768D02*
X3Y768D01*
X0Y767D02*
X3Y767D01*
X0Y766D02*
X3Y766D01*
X0Y765D02*
X3Y765D01*
X0Y764D02*
X3Y764D01*
X0Y763D02*
X3Y763D01*
X0Y762D02*
X3Y762D01*
X0Y761D02*
X3Y761D01*
X0Y760D02*
X3Y760D01*
X0Y759D02*
X3Y759D01*
X0Y758D02*
X3Y758D01*
X0Y757D02*
X3Y757D01*
X0Y756D02*
X3Y756D01*
X0Y755D02*
X3Y755D01*
X0Y754D02*
X3Y754D01*
X0Y753D02*
X3Y753D01*
X0Y752D02*
X3Y752D01*
X0Y751D02*
X3Y751D01*
X0Y750D02*
X3Y750D01*
X0Y749D02*
X3Y749D01*
X0Y748D02*
X3Y748D01*
X0Y747D02*
X3Y747D01*
X0Y746D02*
X3Y746D01*
X0Y745D02*
X3Y745D01*
X0Y744D02*
X3Y744D01*
X0Y743D02*
X3Y743D01*
X0Y742D02*
X3Y742D01*
X0Y741D02*
X3Y741D01*
X0Y740D02*
X3Y740D01*
X0Y739D02*
X3Y739D01*
X0Y738D02*
X3Y738D01*
X0Y737D02*
X3Y737D01*
X0Y736D02*
X3Y736D01*
X0Y735D02*
X3Y735D01*
X0Y734D02*
X3Y734D01*
X0Y733D02*
X3Y733D01*
X42Y733D02*
X121Y733D01*
X1058Y733D02*
X1138Y733D01*
X0Y732D02*
X3Y732D01*
X40Y732D02*
X124Y732D01*
X1056Y732D02*
X1140Y732D01*
X0Y731D02*
X3Y731D01*
X38Y731D02*
X125Y731D01*
X1055Y731D02*
X1141Y731D01*
X0Y730D02*
X3Y730D01*
X38Y730D02*
X126Y730D01*
X1054Y730D02*
X1142Y730D01*
X0Y729D02*
X3Y729D01*
X37Y729D02*
X126Y729D01*
X1054Y729D02*
X1143Y729D01*
X0Y728D02*
X3Y728D01*
X37Y728D02*
X126Y728D01*
X1053Y728D02*
X1143Y728D01*
X0Y727D02*
X3Y727D01*
X37Y727D02*
X126Y727D01*
X1053Y727D02*
X1143Y727D01*
X0Y726D02*
X3Y726D01*
X37Y726D02*
X126Y726D01*
X1053Y726D02*
X1143Y726D01*
X0Y725D02*
X3Y725D01*
X37Y725D02*
X126Y725D01*
X1054Y725D02*
X1142Y725D01*
X0Y724D02*
X3Y724D01*
X38Y724D02*
X125Y724D01*
X1054Y724D02*
X1142Y724D01*
X0Y723D02*
X3Y723D01*
X39Y723D02*
X125Y723D01*
X1055Y723D02*
X1141Y723D01*
X0Y722D02*
X3Y722D01*
X40Y722D02*
X123Y722D01*
X1057Y722D02*
X1140Y722D01*
X0Y721D02*
X3Y721D01*
X0Y720D02*
X3Y720D01*
X0Y719D02*
X3Y719D01*
X0Y718D02*
X3Y718D01*
X0Y717D02*
X3Y717D01*
X0Y716D02*
X3Y716D01*
X0Y715D02*
X3Y715D01*
X0Y714D02*
X3Y714D01*
X0Y713D02*
X3Y713D01*
X0Y712D02*
X3Y712D01*
X0Y711D02*
X3Y711D01*
X0Y710D02*
X3Y710D01*
X0Y709D02*
X3Y709D01*
X0Y708D02*
X3Y708D01*
X0Y707D02*
X3Y707D01*
X0Y706D02*
X3Y706D01*
X0Y705D02*
X3Y705D01*
X0Y704D02*
X3Y704D01*
X0Y703D02*
X3Y703D01*
X31Y703D02*
X34Y703D01*
X139Y703D02*
X143Y703D01*
X1145Y703D02*
X1149Y703D01*
X0Y702D02*
X3Y702D01*
X29Y702D02*
X36Y702D01*
X137Y702D02*
X144Y702D01*
X320Y702D02*
X329Y702D01*
X1144Y702D02*
X1151Y702D01*
X0Y701D02*
X3Y701D01*
X28Y701D02*
X37Y701D01*
X136Y701D02*
X145Y701D01*
X302Y701D02*
X305Y701D01*
X318Y701D02*
X329Y701D01*
X1143Y701D02*
X1152Y701D01*
X0Y700D02*
X3Y700D01*
X28Y700D02*
X37Y700D01*
X136Y700D02*
X146Y700D01*
X302Y700D02*
X305Y700D01*
X318Y700D02*
X329Y700D01*
X1142Y700D02*
X1152Y700D01*
X0Y699D02*
X3Y699D01*
X27Y699D02*
X38Y699D01*
X135Y699D02*
X146Y699D01*
X302Y699D02*
X305Y699D01*
X318Y699D02*
X329Y699D01*
X1142Y699D02*
X1153Y699D01*
X0Y698D02*
X3Y698D01*
X27Y698D02*
X38Y698D01*
X135Y698D02*
X146Y698D01*
X302Y698D02*
X305Y698D01*
X319Y698D02*
X329Y698D01*
X1142Y698D02*
X1153Y698D01*
X0Y697D02*
X3Y697D01*
X27Y697D02*
X38Y697D01*
X135Y697D02*
X146Y697D01*
X302Y697D02*
X305Y697D01*
X326Y697D02*
X329Y697D01*
X1142Y697D02*
X1153Y697D01*
X0Y696D02*
X3Y696D01*
X27Y696D02*
X38Y696D01*
X135Y696D02*
X146Y696D01*
X302Y696D02*
X305Y696D01*
X326Y696D02*
X329Y696D01*
X1142Y696D02*
X1153Y696D01*
X0Y695D02*
X3Y695D01*
X27Y695D02*
X38Y695D01*
X135Y695D02*
X146Y695D01*
X302Y695D02*
X305Y695D01*
X326Y695D02*
X329Y695D01*
X1142Y695D02*
X1153Y695D01*
X0Y694D02*
X3Y694D01*
X27Y694D02*
X38Y694D01*
X135Y694D02*
X146Y694D01*
X302Y694D02*
X305Y694D01*
X326Y694D02*
X329Y694D01*
X1142Y694D02*
X1153Y694D01*
X0Y693D02*
X3Y693D01*
X27Y693D02*
X38Y693D01*
X135Y693D02*
X146Y693D01*
X302Y693D02*
X305Y693D01*
X326Y693D02*
X329Y693D01*
X1037Y693D02*
X1041Y693D01*
X1142Y693D02*
X1153Y693D01*
X0Y692D02*
X3Y692D01*
X27Y692D02*
X38Y692D01*
X135Y692D02*
X146Y692D01*
X302Y692D02*
X305Y692D01*
X326Y692D02*
X329Y692D01*
X1035Y692D02*
X1043Y692D01*
X1142Y692D02*
X1153Y692D01*
X0Y691D02*
X3Y691D01*
X27Y691D02*
X38Y691D01*
X135Y691D02*
X146Y691D01*
X302Y691D02*
X305Y691D01*
X326Y691D02*
X329Y691D01*
X1035Y691D02*
X1043Y691D01*
X1142Y691D02*
X1153Y691D01*
X0Y690D02*
X3Y690D01*
X27Y690D02*
X38Y690D01*
X135Y690D02*
X146Y690D01*
X302Y690D02*
X305Y690D01*
X326Y690D02*
X329Y690D01*
X1034Y690D02*
X1044Y690D01*
X1142Y690D02*
X1153Y690D01*
X0Y689D02*
X3Y689D01*
X27Y689D02*
X38Y689D01*
X135Y689D02*
X146Y689D01*
X302Y689D02*
X305Y689D01*
X326Y689D02*
X329Y689D01*
X1034Y689D02*
X1044Y689D01*
X1142Y689D02*
X1153Y689D01*
X0Y688D02*
X3Y688D01*
X27Y688D02*
X38Y688D01*
X135Y688D02*
X146Y688D01*
X302Y688D02*
X305Y688D01*
X326Y688D02*
X329Y688D01*
X1034Y688D02*
X1044Y688D01*
X1142Y688D02*
X1153Y688D01*
X0Y687D02*
X3Y687D01*
X27Y687D02*
X38Y687D01*
X135Y687D02*
X146Y687D01*
X302Y687D02*
X305Y687D01*
X326Y687D02*
X329Y687D01*
X1034Y687D02*
X1044Y687D01*
X1142Y687D02*
X1153Y687D01*
X0Y686D02*
X3Y686D01*
X27Y686D02*
X38Y686D01*
X135Y686D02*
X146Y686D01*
X302Y686D02*
X305Y686D01*
X326Y686D02*
X329Y686D01*
X1034Y686D02*
X1044Y686D01*
X1142Y686D02*
X1153Y686D01*
X0Y685D02*
X3Y685D01*
X27Y685D02*
X38Y685D01*
X135Y685D02*
X146Y685D01*
X302Y685D02*
X305Y685D01*
X326Y685D02*
X329Y685D01*
X1034Y685D02*
X1044Y685D01*
X1142Y685D02*
X1153Y685D01*
X0Y684D02*
X3Y684D01*
X27Y684D02*
X38Y684D01*
X135Y684D02*
X146Y684D01*
X291Y684D02*
X292Y684D01*
X302Y684D02*
X305Y684D01*
X326Y684D02*
X329Y684D01*
X335Y684D02*
X336Y684D01*
X1034Y684D02*
X1044Y684D01*
X1142Y684D02*
X1153Y684D01*
X0Y683D02*
X3Y683D01*
X27Y683D02*
X38Y683D01*
X135Y683D02*
X146Y683D01*
X290Y683D02*
X293Y683D01*
X302Y683D02*
X305Y683D01*
X326Y683D02*
X329Y683D01*
X334Y683D02*
X337Y683D01*
X1034Y683D02*
X1044Y683D01*
X1142Y683D02*
X1153Y683D01*
X0Y682D02*
X3Y682D01*
X27Y682D02*
X38Y682D01*
X135Y682D02*
X146Y682D01*
X290Y682D02*
X293Y682D01*
X302Y682D02*
X305Y682D01*
X326Y682D02*
X329Y682D01*
X334Y682D02*
X338Y682D01*
X1034Y682D02*
X1044Y682D01*
X1142Y682D02*
X1153Y682D01*
X0Y681D02*
X3Y681D01*
X27Y681D02*
X38Y681D01*
X135Y681D02*
X146Y681D01*
X290Y681D02*
X293Y681D01*
X302Y681D02*
X305Y681D01*
X326Y681D02*
X329Y681D01*
X334Y681D02*
X338Y681D01*
X1034Y681D02*
X1044Y681D01*
X1142Y681D02*
X1153Y681D01*
X0Y680D02*
X3Y680D01*
X27Y680D02*
X38Y680D01*
X135Y680D02*
X146Y680D01*
X290Y680D02*
X293Y680D01*
X302Y680D02*
X305Y680D01*
X326Y680D02*
X329Y680D01*
X334Y680D02*
X338Y680D01*
X1034Y680D02*
X1044Y680D01*
X1142Y680D02*
X1153Y680D01*
X0Y679D02*
X3Y679D01*
X27Y679D02*
X38Y679D01*
X135Y679D02*
X146Y679D01*
X290Y679D02*
X293Y679D01*
X302Y679D02*
X305Y679D01*
X326Y679D02*
X329Y679D01*
X334Y679D02*
X338Y679D01*
X1034Y679D02*
X1044Y679D01*
X1142Y679D02*
X1153Y679D01*
X0Y678D02*
X3Y678D01*
X27Y678D02*
X38Y678D01*
X135Y678D02*
X146Y678D01*
X290Y678D02*
X293Y678D01*
X302Y678D02*
X305Y678D01*
X326Y678D02*
X329Y678D01*
X334Y678D02*
X338Y678D01*
X1034Y678D02*
X1044Y678D01*
X1142Y678D02*
X1153Y678D01*
X0Y677D02*
X3Y677D01*
X27Y677D02*
X38Y677D01*
X135Y677D02*
X146Y677D01*
X290Y677D02*
X293Y677D01*
X302Y677D02*
X305Y677D01*
X326Y677D02*
X329Y677D01*
X334Y677D02*
X338Y677D01*
X1034Y677D02*
X1044Y677D01*
X1142Y677D02*
X1153Y677D01*
X0Y676D02*
X3Y676D01*
X27Y676D02*
X38Y676D01*
X135Y676D02*
X146Y676D01*
X290Y676D02*
X293Y676D01*
X302Y676D02*
X305Y676D01*
X326Y676D02*
X329Y676D01*
X334Y676D02*
X338Y676D01*
X1034Y676D02*
X1044Y676D01*
X1142Y676D02*
X1153Y676D01*
X0Y675D02*
X3Y675D01*
X27Y675D02*
X38Y675D01*
X135Y675D02*
X146Y675D01*
X290Y675D02*
X293Y675D01*
X302Y675D02*
X305Y675D01*
X326Y675D02*
X329Y675D01*
X334Y675D02*
X338Y675D01*
X1034Y675D02*
X1044Y675D01*
X1142Y675D02*
X1153Y675D01*
X0Y674D02*
X3Y674D01*
X27Y674D02*
X38Y674D01*
X135Y674D02*
X146Y674D01*
X290Y674D02*
X294Y674D01*
X301Y674D02*
X305Y674D01*
X326Y674D02*
X329Y674D01*
X334Y674D02*
X338Y674D01*
X1034Y674D02*
X1044Y674D01*
X1142Y674D02*
X1153Y674D01*
X0Y673D02*
X3Y673D01*
X27Y673D02*
X38Y673D01*
X135Y673D02*
X146Y673D01*
X290Y673D02*
X305Y673D01*
X318Y673D02*
X338Y673D01*
X1034Y673D02*
X1044Y673D01*
X1142Y673D02*
X1153Y673D01*
X0Y672D02*
X3Y672D01*
X27Y672D02*
X38Y672D01*
X135Y672D02*
X146Y672D01*
X291Y672D02*
X304Y672D01*
X318Y672D02*
X338Y672D01*
X1034Y672D02*
X1044Y672D01*
X1142Y672D02*
X1153Y672D01*
X0Y671D02*
X3Y671D01*
X27Y671D02*
X38Y671D01*
X135Y671D02*
X146Y671D01*
X292Y671D02*
X303Y671D01*
X318Y671D02*
X337Y671D01*
X1034Y671D02*
X1044Y671D01*
X1142Y671D02*
X1153Y671D01*
X0Y670D02*
X3Y670D01*
X27Y670D02*
X38Y670D01*
X135Y670D02*
X146Y670D01*
X294Y670D02*
X301Y670D01*
X319Y670D02*
X337Y670D01*
X1034Y670D02*
X1044Y670D01*
X1142Y670D02*
X1153Y670D01*
X0Y669D02*
X3Y669D01*
X27Y669D02*
X38Y669D01*
X135Y669D02*
X146Y669D01*
X1034Y669D02*
X1044Y669D01*
X1142Y669D02*
X1153Y669D01*
X0Y668D02*
X3Y668D01*
X27Y668D02*
X38Y668D01*
X135Y668D02*
X146Y668D01*
X1034Y668D02*
X1044Y668D01*
X1142Y668D02*
X1153Y668D01*
X0Y667D02*
X3Y667D01*
X27Y667D02*
X38Y667D01*
X135Y667D02*
X146Y667D01*
X1034Y667D02*
X1044Y667D01*
X1142Y667D02*
X1153Y667D01*
X0Y666D02*
X3Y666D01*
X27Y666D02*
X38Y666D01*
X135Y666D02*
X146Y666D01*
X1034Y666D02*
X1044Y666D01*
X1142Y666D02*
X1153Y666D01*
X0Y665D02*
X3Y665D01*
X27Y665D02*
X38Y665D01*
X135Y665D02*
X146Y665D01*
X1034Y665D02*
X1044Y665D01*
X1142Y665D02*
X1153Y665D01*
X0Y664D02*
X3Y664D01*
X11Y664D02*
X11Y664D01*
X27Y664D02*
X38Y664D01*
X135Y664D02*
X146Y664D01*
X1034Y664D02*
X1044Y664D01*
X1142Y664D02*
X1153Y664D01*
X1168Y664D02*
X1169Y664D01*
X0Y663D02*
X12Y663D01*
X27Y663D02*
X38Y663D01*
X135Y663D02*
X146Y663D01*
X1034Y663D02*
X1044Y663D01*
X1142Y663D02*
X1153Y663D01*
X0Y662D02*
X12Y662D01*
X27Y662D02*
X38Y662D01*
X135Y662D02*
X146Y662D01*
X511Y662D02*
X525Y662D01*
X542Y662D02*
X557Y662D01*
X1034Y662D02*
X1044Y662D01*
X1142Y662D02*
X1153Y662D01*
X0Y661D02*
X12Y661D01*
X27Y661D02*
X38Y661D01*
X135Y661D02*
X146Y661D01*
X510Y661D02*
X527Y661D01*
X541Y661D02*
X559Y661D01*
X1034Y661D02*
X1044Y661D01*
X1142Y661D02*
X1153Y661D01*
X0Y660D02*
X12Y660D01*
X27Y660D02*
X38Y660D01*
X135Y660D02*
X146Y660D01*
X510Y660D02*
X528Y660D01*
X541Y660D02*
X560Y660D01*
X1034Y660D02*
X1044Y660D01*
X1142Y660D02*
X1153Y660D01*
X0Y659D02*
X12Y659D01*
X27Y659D02*
X38Y659D01*
X135Y659D02*
X146Y659D01*
X510Y659D02*
X529Y659D01*
X541Y659D02*
X560Y659D01*
X1034Y659D02*
X1044Y659D01*
X1142Y659D02*
X1153Y659D01*
X0Y658D02*
X12Y658D01*
X27Y658D02*
X38Y658D01*
X135Y658D02*
X146Y658D01*
X510Y658D02*
X530Y658D01*
X543Y658D02*
X560Y658D01*
X1034Y658D02*
X1044Y658D01*
X1142Y658D02*
X1153Y658D01*
X0Y657D02*
X12Y657D01*
X27Y657D02*
X38Y657D01*
X135Y657D02*
X146Y657D01*
X510Y657D02*
X514Y657D01*
X526Y657D02*
X530Y657D01*
X557Y657D02*
X560Y657D01*
X1034Y657D02*
X1044Y657D01*
X1142Y657D02*
X1153Y657D01*
X0Y656D02*
X12Y656D01*
X27Y656D02*
X38Y656D01*
X135Y656D02*
X146Y656D01*
X510Y656D02*
X514Y656D01*
X527Y656D02*
X530Y656D01*
X557Y656D02*
X560Y656D01*
X1034Y656D02*
X1044Y656D01*
X1142Y656D02*
X1153Y656D01*
X0Y655D02*
X13Y655D01*
X27Y655D02*
X38Y655D01*
X135Y655D02*
X146Y655D01*
X510Y655D02*
X514Y655D01*
X527Y655D02*
X530Y655D01*
X557Y655D02*
X560Y655D01*
X1034Y655D02*
X1044Y655D01*
X1142Y655D02*
X1153Y655D01*
X0Y654D02*
X13Y654D01*
X27Y654D02*
X38Y654D01*
X135Y654D02*
X146Y654D01*
X510Y654D02*
X514Y654D01*
X527Y654D02*
X530Y654D01*
X557Y654D02*
X560Y654D01*
X1034Y654D02*
X1044Y654D01*
X1142Y654D02*
X1153Y654D01*
X0Y653D02*
X13Y653D01*
X27Y653D02*
X38Y653D01*
X135Y653D02*
X146Y653D01*
X510Y653D02*
X514Y653D01*
X527Y653D02*
X530Y653D01*
X557Y653D02*
X560Y653D01*
X986Y653D02*
X987Y653D01*
X1034Y653D02*
X1044Y653D01*
X1142Y653D02*
X1153Y653D01*
X0Y652D02*
X8Y652D01*
X27Y652D02*
X38Y652D01*
X135Y652D02*
X146Y652D01*
X510Y652D02*
X514Y652D01*
X526Y652D02*
X530Y652D01*
X557Y652D02*
X560Y652D01*
X983Y652D02*
X988Y652D01*
X1034Y652D02*
X1044Y652D01*
X1142Y652D02*
X1153Y652D01*
X0Y651D02*
X3Y651D01*
X27Y651D02*
X38Y651D01*
X135Y651D02*
X146Y651D01*
X510Y651D02*
X529Y651D01*
X557Y651D02*
X560Y651D01*
X982Y651D02*
X989Y651D01*
X1034Y651D02*
X1044Y651D01*
X1142Y651D02*
X1153Y651D01*
X0Y650D02*
X3Y650D01*
X27Y650D02*
X38Y650D01*
X135Y650D02*
X146Y650D01*
X510Y650D02*
X529Y650D01*
X557Y650D02*
X560Y650D01*
X981Y650D02*
X989Y650D01*
X1034Y650D02*
X1044Y650D01*
X1142Y650D02*
X1153Y650D01*
X0Y649D02*
X3Y649D01*
X27Y649D02*
X38Y649D01*
X135Y649D02*
X146Y649D01*
X510Y649D02*
X528Y649D01*
X557Y649D02*
X560Y649D01*
X981Y649D02*
X987Y649D01*
X1034Y649D02*
X1044Y649D01*
X1142Y649D02*
X1153Y649D01*
X0Y648D02*
X3Y648D01*
X27Y648D02*
X38Y648D01*
X135Y648D02*
X146Y648D01*
X510Y648D02*
X526Y648D01*
X546Y648D02*
X560Y648D01*
X980Y648D02*
X984Y648D01*
X1034Y648D02*
X1044Y648D01*
X1142Y648D02*
X1153Y648D01*
X0Y647D02*
X3Y647D01*
X27Y647D02*
X38Y647D01*
X135Y647D02*
X146Y647D01*
X175Y647D02*
X206Y647D01*
X510Y647D02*
X514Y647D01*
X518Y647D02*
X522Y647D01*
X545Y647D02*
X559Y647D01*
X980Y647D02*
X984Y647D01*
X1034Y647D02*
X1044Y647D01*
X1142Y647D02*
X1153Y647D01*
X0Y646D02*
X3Y646D01*
X27Y646D02*
X38Y646D01*
X135Y646D02*
X146Y646D01*
X175Y646D02*
X206Y646D01*
X510Y646D02*
X514Y646D01*
X518Y646D02*
X522Y646D01*
X545Y646D02*
X559Y646D01*
X980Y646D02*
X983Y646D01*
X1034Y646D02*
X1044Y646D01*
X1142Y646D02*
X1153Y646D01*
X0Y645D02*
X3Y645D01*
X27Y645D02*
X38Y645D01*
X135Y645D02*
X146Y645D01*
X175Y645D02*
X206Y645D01*
X510Y645D02*
X514Y645D01*
X519Y645D02*
X523Y645D01*
X545Y645D02*
X559Y645D01*
X980Y645D02*
X983Y645D01*
X1034Y645D02*
X1044Y645D01*
X1142Y645D02*
X1153Y645D01*
X0Y644D02*
X3Y644D01*
X27Y644D02*
X38Y644D01*
X135Y644D02*
X146Y644D01*
X176Y644D02*
X206Y644D01*
X510Y644D02*
X514Y644D01*
X519Y644D02*
X523Y644D01*
X546Y644D02*
X560Y644D01*
X980Y644D02*
X983Y644D01*
X1034Y644D02*
X1044Y644D01*
X1142Y644D02*
X1153Y644D01*
X0Y643D02*
X3Y643D01*
X27Y643D02*
X38Y643D01*
X135Y643D02*
X146Y643D01*
X200Y643D02*
X206Y643D01*
X510Y643D02*
X514Y643D01*
X520Y643D02*
X524Y643D01*
X557Y643D02*
X560Y643D01*
X980Y643D02*
X984Y643D01*
X1034Y643D02*
X1044Y643D01*
X1142Y643D02*
X1153Y643D01*
X0Y642D02*
X3Y642D01*
X27Y642D02*
X38Y642D01*
X135Y642D02*
X146Y642D01*
X199Y642D02*
X205Y642D01*
X510Y642D02*
X514Y642D01*
X521Y642D02*
X525Y642D01*
X557Y642D02*
X560Y642D01*
X980Y642D02*
X985Y642D01*
X1034Y642D02*
X1044Y642D01*
X1142Y642D02*
X1153Y642D01*
X0Y641D02*
X3Y641D01*
X27Y641D02*
X38Y641D01*
X135Y641D02*
X146Y641D01*
X198Y641D02*
X204Y641D01*
X510Y641D02*
X514Y641D01*
X521Y641D02*
X525Y641D01*
X557Y641D02*
X560Y641D01*
X981Y641D02*
X986Y641D01*
X1034Y641D02*
X1044Y641D01*
X1142Y641D02*
X1153Y641D01*
X0Y640D02*
X3Y640D01*
X27Y640D02*
X38Y640D01*
X135Y640D02*
X146Y640D01*
X196Y640D02*
X203Y640D01*
X510Y640D02*
X514Y640D01*
X522Y640D02*
X526Y640D01*
X557Y640D02*
X560Y640D01*
X982Y640D02*
X986Y640D01*
X1034Y640D02*
X1044Y640D01*
X1142Y640D02*
X1153Y640D01*
X0Y639D02*
X3Y639D01*
X27Y639D02*
X38Y639D01*
X135Y639D02*
X146Y639D01*
X193Y639D02*
X201Y639D01*
X510Y639D02*
X514Y639D01*
X522Y639D02*
X526Y639D01*
X557Y639D02*
X560Y639D01*
X983Y639D02*
X987Y639D01*
X1034Y639D02*
X1044Y639D01*
X1142Y639D02*
X1153Y639D01*
X0Y638D02*
X3Y638D01*
X27Y638D02*
X38Y638D01*
X135Y638D02*
X146Y638D01*
X193Y638D02*
X200Y638D01*
X510Y638D02*
X514Y638D01*
X523Y638D02*
X527Y638D01*
X557Y638D02*
X560Y638D01*
X984Y638D02*
X988Y638D01*
X1034Y638D02*
X1044Y638D01*
X1142Y638D02*
X1153Y638D01*
X0Y637D02*
X3Y637D01*
X27Y637D02*
X38Y637D01*
X135Y637D02*
X146Y637D01*
X193Y637D02*
X200Y637D01*
X510Y637D02*
X514Y637D01*
X523Y637D02*
X527Y637D01*
X557Y637D02*
X560Y637D01*
X984Y637D02*
X989Y637D01*
X1034Y637D02*
X1044Y637D01*
X1142Y637D02*
X1153Y637D01*
X0Y636D02*
X3Y636D01*
X27Y636D02*
X38Y636D01*
X135Y636D02*
X146Y636D01*
X193Y636D02*
X201Y636D01*
X510Y636D02*
X514Y636D01*
X524Y636D02*
X528Y636D01*
X557Y636D02*
X560Y636D01*
X981Y636D02*
X1002Y636D01*
X1034Y636D02*
X1044Y636D01*
X1142Y636D02*
X1153Y636D01*
X0Y635D02*
X3Y635D01*
X27Y635D02*
X38Y635D01*
X135Y635D02*
X146Y635D01*
X196Y635D02*
X203Y635D01*
X510Y635D02*
X514Y635D01*
X525Y635D02*
X529Y635D01*
X557Y635D02*
X560Y635D01*
X980Y635D02*
X1003Y635D01*
X1034Y635D02*
X1044Y635D01*
X1142Y635D02*
X1153Y635D01*
X0Y634D02*
X3Y634D01*
X27Y634D02*
X38Y634D01*
X135Y634D02*
X146Y634D01*
X198Y634D02*
X204Y634D01*
X510Y634D02*
X514Y634D01*
X525Y634D02*
X529Y634D01*
X557Y634D02*
X560Y634D01*
X980Y634D02*
X1003Y634D01*
X1034Y634D02*
X1044Y634D01*
X1142Y634D02*
X1153Y634D01*
X0Y633D02*
X3Y633D01*
X27Y633D02*
X38Y633D01*
X135Y633D02*
X146Y633D01*
X199Y633D02*
X206Y633D01*
X510Y633D02*
X514Y633D01*
X526Y633D02*
X530Y633D01*
X541Y633D02*
X560Y633D01*
X981Y633D02*
X1002Y633D01*
X1034Y633D02*
X1044Y633D01*
X1142Y633D02*
X1153Y633D01*
X0Y632D02*
X3Y632D01*
X27Y632D02*
X38Y632D01*
X135Y632D02*
X146Y632D01*
X201Y632D02*
X206Y632D01*
X510Y632D02*
X514Y632D01*
X526Y632D02*
X530Y632D01*
X541Y632D02*
X560Y632D01*
X1034Y632D02*
X1044Y632D01*
X1142Y632D02*
X1153Y632D01*
X0Y631D02*
X3Y631D01*
X27Y631D02*
X38Y631D01*
X135Y631D02*
X146Y631D01*
X176Y631D02*
X206Y631D01*
X511Y631D02*
X513Y631D01*
X527Y631D02*
X530Y631D01*
X541Y631D02*
X559Y631D01*
X1034Y631D02*
X1044Y631D01*
X1142Y631D02*
X1153Y631D01*
X0Y630D02*
X3Y630D01*
X27Y630D02*
X38Y630D01*
X135Y630D02*
X146Y630D01*
X175Y630D02*
X206Y630D01*
X511Y630D02*
X512Y630D01*
X528Y630D02*
X529Y630D01*
X542Y630D02*
X557Y630D01*
X1034Y630D02*
X1044Y630D01*
X1142Y630D02*
X1153Y630D01*
X0Y629D02*
X3Y629D01*
X27Y629D02*
X38Y629D01*
X135Y629D02*
X146Y629D01*
X175Y629D02*
X206Y629D01*
X1034Y629D02*
X1044Y629D01*
X1142Y629D02*
X1153Y629D01*
X0Y628D02*
X3Y628D01*
X27Y628D02*
X38Y628D01*
X135Y628D02*
X146Y628D01*
X175Y628D02*
X206Y628D01*
X1034Y628D02*
X1044Y628D01*
X1142Y628D02*
X1153Y628D01*
X0Y627D02*
X3Y627D01*
X27Y627D02*
X38Y627D01*
X135Y627D02*
X146Y627D01*
X1034Y627D02*
X1044Y627D01*
X1142Y627D02*
X1153Y627D01*
X0Y626D02*
X3Y626D01*
X27Y626D02*
X38Y626D01*
X135Y626D02*
X146Y626D01*
X1034Y626D02*
X1044Y626D01*
X1142Y626D02*
X1153Y626D01*
X0Y625D02*
X3Y625D01*
X27Y625D02*
X38Y625D01*
X135Y625D02*
X146Y625D01*
X1034Y625D02*
X1044Y625D01*
X1142Y625D02*
X1153Y625D01*
X0Y624D02*
X3Y624D01*
X27Y624D02*
X38Y624D01*
X135Y624D02*
X146Y624D01*
X1034Y624D02*
X1044Y624D01*
X1142Y624D02*
X1153Y624D01*
X0Y623D02*
X3Y623D01*
X27Y623D02*
X38Y623D01*
X135Y623D02*
X146Y623D01*
X1034Y623D02*
X1044Y623D01*
X1142Y623D02*
X1153Y623D01*
X0Y622D02*
X3Y622D01*
X27Y622D02*
X38Y622D01*
X135Y622D02*
X146Y622D01*
X985Y622D02*
X999Y622D01*
X1034Y622D02*
X1044Y622D01*
X1142Y622D02*
X1153Y622D01*
X0Y621D02*
X3Y621D01*
X27Y621D02*
X38Y621D01*
X135Y621D02*
X146Y621D01*
X983Y621D02*
X1000Y621D01*
X1034Y621D02*
X1044Y621D01*
X1142Y621D02*
X1153Y621D01*
X0Y620D02*
X3Y620D01*
X27Y620D02*
X38Y620D01*
X135Y620D02*
X146Y620D01*
X982Y620D02*
X1001Y620D01*
X1034Y620D02*
X1044Y620D01*
X1142Y620D02*
X1153Y620D01*
X0Y619D02*
X3Y619D01*
X27Y619D02*
X38Y619D01*
X135Y619D02*
X146Y619D01*
X982Y619D02*
X1002Y619D01*
X1034Y619D02*
X1044Y619D01*
X1142Y619D02*
X1153Y619D01*
X0Y618D02*
X3Y618D01*
X27Y618D02*
X38Y618D01*
X135Y618D02*
X146Y618D01*
X981Y618D02*
X985Y618D01*
X998Y618D02*
X1002Y618D01*
X1034Y618D02*
X1044Y618D01*
X1142Y618D02*
X1153Y618D01*
X0Y617D02*
X3Y617D01*
X27Y617D02*
X38Y617D01*
X135Y617D02*
X146Y617D01*
X179Y617D02*
X193Y617D01*
X981Y617D02*
X984Y617D01*
X999Y617D02*
X1003Y617D01*
X1034Y617D02*
X1044Y617D01*
X1142Y617D02*
X1153Y617D01*
X0Y616D02*
X3Y616D01*
X27Y616D02*
X38Y616D01*
X135Y616D02*
X146Y616D01*
X178Y616D02*
X194Y616D01*
X980Y616D02*
X984Y616D01*
X999Y616D02*
X1003Y616D01*
X1034Y616D02*
X1044Y616D01*
X1142Y616D02*
X1153Y616D01*
X0Y615D02*
X3Y615D01*
X27Y615D02*
X38Y615D01*
X135Y615D02*
X146Y615D01*
X177Y615D02*
X195Y615D01*
X980Y615D02*
X983Y615D01*
X1000Y615D02*
X1003Y615D01*
X1034Y615D02*
X1044Y615D01*
X1142Y615D02*
X1153Y615D01*
X0Y614D02*
X3Y614D01*
X27Y614D02*
X38Y614D01*
X135Y614D02*
X146Y614D01*
X176Y614D02*
X196Y614D01*
X980Y614D02*
X983Y614D01*
X1000Y614D02*
X1003Y614D01*
X1034Y614D02*
X1044Y614D01*
X1142Y614D02*
X1153Y614D01*
X0Y613D02*
X3Y613D01*
X27Y613D02*
X38Y613D01*
X135Y613D02*
X146Y613D01*
X176Y613D02*
X180Y613D01*
X192Y613D02*
X197Y613D01*
X980Y613D02*
X983Y613D01*
X1000Y613D02*
X1003Y613D01*
X1034Y613D02*
X1044Y613D01*
X1142Y613D02*
X1153Y613D01*
X0Y612D02*
X3Y612D01*
X27Y612D02*
X38Y612D01*
X135Y612D02*
X146Y612D01*
X175Y612D02*
X179Y612D01*
X193Y612D02*
X197Y612D01*
X980Y612D02*
X983Y612D01*
X1000Y612D02*
X1003Y612D01*
X1034Y612D02*
X1044Y612D01*
X1142Y612D02*
X1153Y612D01*
X0Y611D02*
X3Y611D01*
X27Y611D02*
X38Y611D01*
X135Y611D02*
X146Y611D01*
X175Y611D02*
X178Y611D01*
X194Y611D02*
X197Y611D01*
X980Y611D02*
X983Y611D01*
X1000Y611D02*
X1003Y611D01*
X1034Y611D02*
X1044Y611D01*
X1142Y611D02*
X1153Y611D01*
X0Y610D02*
X3Y610D01*
X27Y610D02*
X38Y610D01*
X135Y610D02*
X146Y610D01*
X175Y610D02*
X178Y610D01*
X194Y610D02*
X198Y610D01*
X980Y610D02*
X983Y610D01*
X1000Y610D02*
X1003Y610D01*
X1034Y610D02*
X1044Y610D01*
X1142Y610D02*
X1153Y610D01*
X0Y609D02*
X3Y609D01*
X27Y609D02*
X38Y609D01*
X135Y609D02*
X146Y609D01*
X175Y609D02*
X178Y609D01*
X194Y609D02*
X198Y609D01*
X980Y609D02*
X984Y609D01*
X999Y609D02*
X1003Y609D01*
X1034Y609D02*
X1044Y609D01*
X1142Y609D02*
X1153Y609D01*
X0Y608D02*
X3Y608D01*
X27Y608D02*
X38Y608D01*
X135Y608D02*
X146Y608D01*
X175Y608D02*
X178Y608D01*
X194Y608D02*
X198Y608D01*
X981Y608D02*
X984Y608D01*
X999Y608D02*
X1003Y608D01*
X1034Y608D02*
X1044Y608D01*
X1142Y608D02*
X1153Y608D01*
X0Y607D02*
X3Y607D01*
X27Y607D02*
X38Y607D01*
X135Y607D02*
X146Y607D01*
X175Y607D02*
X178Y607D01*
X194Y607D02*
X198Y607D01*
X981Y607D02*
X985Y607D01*
X998Y607D02*
X1002Y607D01*
X1034Y607D02*
X1044Y607D01*
X1142Y607D02*
X1153Y607D01*
X0Y606D02*
X3Y606D01*
X27Y606D02*
X38Y606D01*
X135Y606D02*
X146Y606D01*
X175Y606D02*
X178Y606D01*
X194Y606D02*
X198Y606D01*
X982Y606D02*
X1002Y606D01*
X1034Y606D02*
X1044Y606D01*
X1142Y606D02*
X1153Y606D01*
X0Y605D02*
X3Y605D01*
X27Y605D02*
X38Y605D01*
X135Y605D02*
X146Y605D01*
X175Y605D02*
X178Y605D01*
X194Y605D02*
X198Y605D01*
X982Y605D02*
X1001Y605D01*
X1034Y605D02*
X1044Y605D01*
X1142Y605D02*
X1153Y605D01*
X0Y604D02*
X3Y604D01*
X27Y604D02*
X38Y604D01*
X135Y604D02*
X146Y604D01*
X175Y604D02*
X178Y604D01*
X194Y604D02*
X197Y604D01*
X983Y604D02*
X1000Y604D01*
X1034Y604D02*
X1044Y604D01*
X1142Y604D02*
X1153Y604D01*
X0Y603D02*
X3Y603D01*
X27Y603D02*
X38Y603D01*
X135Y603D02*
X146Y603D01*
X175Y603D02*
X179Y603D01*
X194Y603D02*
X197Y603D01*
X985Y603D02*
X999Y603D01*
X1034Y603D02*
X1044Y603D01*
X1142Y603D02*
X1153Y603D01*
X0Y602D02*
X3Y602D01*
X27Y602D02*
X38Y602D01*
X135Y602D02*
X146Y602D01*
X176Y602D02*
X180Y602D01*
X193Y602D02*
X197Y602D01*
X1034Y602D02*
X1044Y602D01*
X1142Y602D02*
X1153Y602D01*
X0Y601D02*
X3Y601D01*
X27Y601D02*
X38Y601D01*
X135Y601D02*
X146Y601D01*
X176Y601D02*
X196Y601D01*
X1034Y601D02*
X1044Y601D01*
X1142Y601D02*
X1153Y601D01*
X0Y600D02*
X3Y600D01*
X27Y600D02*
X38Y600D01*
X135Y600D02*
X146Y600D01*
X177Y600D02*
X195Y600D01*
X1034Y600D02*
X1044Y600D01*
X1142Y600D02*
X1153Y600D01*
X0Y599D02*
X3Y599D01*
X27Y599D02*
X38Y599D01*
X135Y599D02*
X146Y599D01*
X178Y599D02*
X194Y599D01*
X1034Y599D02*
X1044Y599D01*
X1142Y599D02*
X1153Y599D01*
X0Y598D02*
X3Y598D01*
X27Y598D02*
X38Y598D01*
X135Y598D02*
X146Y598D01*
X179Y598D02*
X193Y598D01*
X1034Y598D02*
X1044Y598D01*
X1142Y598D02*
X1153Y598D01*
X0Y597D02*
X3Y597D01*
X27Y597D02*
X38Y597D01*
X135Y597D02*
X146Y597D01*
X1034Y597D02*
X1044Y597D01*
X1142Y597D02*
X1153Y597D01*
X0Y596D02*
X3Y596D01*
X27Y596D02*
X38Y596D01*
X135Y596D02*
X146Y596D01*
X1034Y596D02*
X1044Y596D01*
X1142Y596D02*
X1153Y596D01*
X0Y595D02*
X3Y595D01*
X27Y595D02*
X38Y595D01*
X135Y595D02*
X146Y595D01*
X1034Y595D02*
X1044Y595D01*
X1142Y595D02*
X1153Y595D01*
X0Y594D02*
X3Y594D01*
X27Y594D02*
X38Y594D01*
X135Y594D02*
X146Y594D01*
X1034Y594D02*
X1044Y594D01*
X1142Y594D02*
X1153Y594D01*
X0Y593D02*
X3Y593D01*
X27Y593D02*
X38Y593D01*
X135Y593D02*
X146Y593D01*
X1034Y593D02*
X1044Y593D01*
X1142Y593D02*
X1153Y593D01*
X0Y592D02*
X3Y592D01*
X27Y592D02*
X38Y592D01*
X135Y592D02*
X146Y592D01*
X1034Y592D02*
X1044Y592D01*
X1142Y592D02*
X1153Y592D01*
X0Y591D02*
X3Y591D01*
X27Y591D02*
X38Y591D01*
X135Y591D02*
X146Y591D01*
X1034Y591D02*
X1044Y591D01*
X1142Y591D02*
X1153Y591D01*
X0Y590D02*
X3Y590D01*
X27Y590D02*
X38Y590D01*
X135Y590D02*
X146Y590D01*
X1000Y590D02*
X1002Y590D01*
X1034Y590D02*
X1044Y590D01*
X1142Y590D02*
X1153Y590D01*
X0Y589D02*
X3Y589D01*
X27Y589D02*
X38Y589D01*
X135Y589D02*
X146Y589D01*
X1000Y589D02*
X1003Y589D01*
X1034Y589D02*
X1044Y589D01*
X1142Y589D02*
X1153Y589D01*
X0Y588D02*
X3Y588D01*
X27Y588D02*
X38Y588D01*
X135Y588D02*
X146Y588D01*
X1000Y588D02*
X1003Y588D01*
X1034Y588D02*
X1044Y588D01*
X1142Y588D02*
X1153Y588D01*
X0Y587D02*
X3Y587D01*
X27Y587D02*
X38Y587D01*
X135Y587D02*
X146Y587D01*
X180Y587D02*
X193Y587D01*
X1000Y587D02*
X1003Y587D01*
X1034Y587D02*
X1044Y587D01*
X1142Y587D02*
X1153Y587D01*
X0Y586D02*
X3Y586D01*
X27Y586D02*
X38Y586D01*
X135Y586D02*
X146Y586D01*
X178Y586D02*
X194Y586D01*
X1000Y586D02*
X1003Y586D01*
X1034Y586D02*
X1044Y586D01*
X1142Y586D02*
X1153Y586D01*
X0Y585D02*
X3Y585D01*
X27Y585D02*
X38Y585D01*
X135Y585D02*
X146Y585D01*
X177Y585D02*
X195Y585D01*
X1000Y585D02*
X1003Y585D01*
X1034Y585D02*
X1044Y585D01*
X1142Y585D02*
X1153Y585D01*
X0Y584D02*
X3Y584D01*
X27Y584D02*
X38Y584D01*
X135Y584D02*
X146Y584D01*
X176Y584D02*
X196Y584D01*
X972Y584D02*
X1003Y584D01*
X1034Y584D02*
X1044Y584D01*
X1142Y584D02*
X1153Y584D01*
X0Y583D02*
X3Y583D01*
X27Y583D02*
X38Y583D01*
X135Y583D02*
X146Y583D01*
X176Y583D02*
X180Y583D01*
X192Y583D02*
X197Y583D01*
X972Y583D02*
X1003Y583D01*
X1034Y583D02*
X1044Y583D01*
X1142Y583D02*
X1153Y583D01*
X0Y582D02*
X3Y582D01*
X27Y582D02*
X38Y582D01*
X135Y582D02*
X146Y582D01*
X175Y582D02*
X179Y582D01*
X193Y582D02*
X197Y582D01*
X971Y582D02*
X1003Y582D01*
X1034Y582D02*
X1044Y582D01*
X1142Y582D02*
X1153Y582D01*
X0Y581D02*
X3Y581D01*
X27Y581D02*
X38Y581D01*
X135Y581D02*
X146Y581D01*
X175Y581D02*
X178Y581D01*
X194Y581D02*
X197Y581D01*
X971Y581D02*
X1003Y581D01*
X1034Y581D02*
X1044Y581D01*
X1142Y581D02*
X1153Y581D01*
X0Y580D02*
X3Y580D01*
X27Y580D02*
X38Y580D01*
X135Y580D02*
X146Y580D01*
X175Y580D02*
X178Y580D01*
X194Y580D02*
X198Y580D01*
X971Y580D02*
X975Y580D01*
X1000Y580D02*
X1003Y580D01*
X1034Y580D02*
X1044Y580D01*
X1142Y580D02*
X1153Y580D01*
X0Y579D02*
X3Y579D01*
X27Y579D02*
X38Y579D01*
X135Y579D02*
X146Y579D01*
X175Y579D02*
X178Y579D01*
X194Y579D02*
X198Y579D01*
X971Y579D02*
X975Y579D01*
X1000Y579D02*
X1003Y579D01*
X1034Y579D02*
X1044Y579D01*
X1142Y579D02*
X1153Y579D01*
X0Y578D02*
X3Y578D01*
X27Y578D02*
X38Y578D01*
X135Y578D02*
X146Y578D01*
X175Y578D02*
X178Y578D01*
X194Y578D02*
X198Y578D01*
X433Y578D02*
X499Y578D01*
X700Y578D02*
X747Y578D01*
X971Y578D02*
X975Y578D01*
X1000Y578D02*
X1003Y578D01*
X1034Y578D02*
X1044Y578D01*
X1142Y578D02*
X1153Y578D01*
X0Y577D02*
X3Y577D01*
X27Y577D02*
X38Y577D01*
X135Y577D02*
X146Y577D01*
X175Y577D02*
X178Y577D01*
X194Y577D02*
X198Y577D01*
X433Y577D02*
X499Y577D01*
X700Y577D02*
X747Y577D01*
X971Y577D02*
X975Y577D01*
X1000Y577D02*
X1003Y577D01*
X1034Y577D02*
X1044Y577D01*
X1142Y577D02*
X1153Y577D01*
X0Y576D02*
X3Y576D01*
X27Y576D02*
X38Y576D01*
X135Y576D02*
X146Y576D01*
X175Y576D02*
X178Y576D01*
X194Y576D02*
X197Y576D01*
X433Y576D02*
X499Y576D01*
X700Y576D02*
X747Y576D01*
X971Y576D02*
X975Y576D01*
X1000Y576D02*
X1003Y576D01*
X1034Y576D02*
X1044Y576D01*
X1142Y576D02*
X1153Y576D01*
X0Y575D02*
X3Y575D01*
X27Y575D02*
X38Y575D01*
X135Y575D02*
X146Y575D01*
X175Y575D02*
X179Y575D01*
X193Y575D02*
X197Y575D01*
X433Y575D02*
X499Y575D01*
X700Y575D02*
X747Y575D01*
X972Y575D02*
X974Y575D01*
X1000Y575D02*
X1003Y575D01*
X1034Y575D02*
X1044Y575D01*
X1142Y575D02*
X1153Y575D01*
X0Y574D02*
X3Y574D01*
X27Y574D02*
X38Y574D01*
X135Y574D02*
X146Y574D01*
X176Y574D02*
X180Y574D01*
X193Y574D02*
X197Y574D01*
X433Y574D02*
X499Y574D01*
X700Y574D02*
X747Y574D01*
X1034Y574D02*
X1044Y574D01*
X1142Y574D02*
X1153Y574D01*
X0Y573D02*
X3Y573D01*
X27Y573D02*
X38Y573D01*
X135Y573D02*
X146Y573D01*
X176Y573D02*
X181Y573D01*
X192Y573D02*
X196Y573D01*
X433Y573D02*
X499Y573D01*
X700Y573D02*
X747Y573D01*
X1034Y573D02*
X1044Y573D01*
X1142Y573D02*
X1153Y573D01*
X0Y572D02*
X3Y572D01*
X27Y572D02*
X38Y572D01*
X135Y572D02*
X146Y572D01*
X177Y572D02*
X182Y572D01*
X191Y572D02*
X195Y572D01*
X433Y572D02*
X499Y572D01*
X700Y572D02*
X747Y572D01*
X1034Y572D02*
X1044Y572D01*
X1142Y572D02*
X1153Y572D01*
X0Y571D02*
X3Y571D01*
X27Y571D02*
X38Y571D01*
X135Y571D02*
X146Y571D01*
X176Y571D02*
X205Y571D01*
X433Y571D02*
X499Y571D01*
X700Y571D02*
X747Y571D01*
X1034Y571D02*
X1044Y571D01*
X1142Y571D02*
X1153Y571D01*
X0Y570D02*
X3Y570D01*
X27Y570D02*
X38Y570D01*
X135Y570D02*
X146Y570D01*
X175Y570D02*
X206Y570D01*
X433Y570D02*
X499Y570D01*
X700Y570D02*
X747Y570D01*
X1034Y570D02*
X1044Y570D01*
X1142Y570D02*
X1153Y570D01*
X0Y569D02*
X3Y569D01*
X27Y569D02*
X38Y569D01*
X135Y569D02*
X146Y569D01*
X175Y569D02*
X206Y569D01*
X433Y569D02*
X499Y569D01*
X700Y569D02*
X747Y569D01*
X1034Y569D02*
X1044Y569D01*
X1142Y569D02*
X1153Y569D01*
X0Y568D02*
X3Y568D01*
X27Y568D02*
X38Y568D01*
X135Y568D02*
X146Y568D01*
X175Y568D02*
X206Y568D01*
X1034Y568D02*
X1044Y568D01*
X1142Y568D02*
X1153Y568D01*
X0Y567D02*
X3Y567D01*
X27Y567D02*
X38Y567D01*
X135Y567D02*
X146Y567D01*
X177Y567D02*
X205Y567D01*
X1034Y567D02*
X1044Y567D01*
X1142Y567D02*
X1153Y567D01*
X0Y566D02*
X3Y566D01*
X27Y566D02*
X38Y566D01*
X135Y566D02*
X146Y566D01*
X1034Y566D02*
X1044Y566D01*
X1142Y566D02*
X1153Y566D01*
X0Y565D02*
X3Y565D01*
X27Y565D02*
X38Y565D01*
X135Y565D02*
X146Y565D01*
X1034Y565D02*
X1044Y565D01*
X1142Y565D02*
X1153Y565D01*
X0Y564D02*
X3Y564D01*
X27Y564D02*
X38Y564D01*
X135Y564D02*
X146Y564D01*
X1034Y564D02*
X1044Y564D01*
X1142Y564D02*
X1153Y564D01*
X0Y563D02*
X3Y563D01*
X27Y563D02*
X38Y563D01*
X135Y563D02*
X146Y563D01*
X1034Y563D02*
X1044Y563D01*
X1142Y563D02*
X1153Y563D01*
X0Y562D02*
X3Y562D01*
X27Y562D02*
X38Y562D01*
X135Y562D02*
X146Y562D01*
X985Y562D02*
X998Y562D01*
X1034Y562D02*
X1044Y562D01*
X1142Y562D02*
X1153Y562D01*
X0Y561D02*
X3Y561D01*
X27Y561D02*
X38Y561D01*
X135Y561D02*
X146Y561D01*
X984Y561D02*
X999Y561D01*
X1034Y561D02*
X1044Y561D01*
X1142Y561D02*
X1153Y561D01*
X0Y560D02*
X3Y560D01*
X27Y560D02*
X38Y560D01*
X135Y560D02*
X146Y560D01*
X983Y560D02*
X1000Y560D01*
X1034Y560D02*
X1044Y560D01*
X1142Y560D02*
X1153Y560D01*
X0Y559D02*
X3Y559D01*
X27Y559D02*
X38Y559D01*
X135Y559D02*
X146Y559D01*
X982Y559D02*
X1001Y559D01*
X1034Y559D02*
X1044Y559D01*
X1142Y559D02*
X1153Y559D01*
X0Y558D02*
X3Y558D01*
X27Y558D02*
X38Y558D01*
X135Y558D02*
X146Y558D01*
X981Y558D02*
X986Y558D01*
X998Y558D02*
X1002Y558D01*
X1034Y558D02*
X1044Y558D01*
X1142Y558D02*
X1153Y558D01*
X0Y557D02*
X3Y557D01*
X27Y557D02*
X38Y557D01*
X135Y557D02*
X146Y557D01*
X180Y557D02*
X192Y557D01*
X981Y557D02*
X984Y557D01*
X999Y557D02*
X1003Y557D01*
X1034Y557D02*
X1044Y557D01*
X1142Y557D02*
X1153Y557D01*
X0Y556D02*
X3Y556D01*
X27Y556D02*
X38Y556D01*
X135Y556D02*
X146Y556D01*
X178Y556D02*
X194Y556D01*
X980Y556D02*
X984Y556D01*
X999Y556D02*
X1003Y556D01*
X1034Y556D02*
X1044Y556D01*
X1142Y556D02*
X1153Y556D01*
X0Y555D02*
X3Y555D01*
X27Y555D02*
X38Y555D01*
X135Y555D02*
X146Y555D01*
X177Y555D02*
X195Y555D01*
X980Y555D02*
X984Y555D01*
X1000Y555D02*
X1003Y555D01*
X1034Y555D02*
X1044Y555D01*
X1142Y555D02*
X1153Y555D01*
X0Y554D02*
X3Y554D01*
X27Y554D02*
X38Y554D01*
X135Y554D02*
X146Y554D01*
X176Y554D02*
X196Y554D01*
X980Y554D02*
X983Y554D01*
X1000Y554D02*
X1003Y554D01*
X1034Y554D02*
X1044Y554D01*
X1142Y554D02*
X1153Y554D01*
X0Y553D02*
X3Y553D01*
X27Y553D02*
X38Y553D01*
X135Y553D02*
X146Y553D01*
X176Y553D02*
X180Y553D01*
X184Y553D02*
X187Y553D01*
X192Y553D02*
X197Y553D01*
X980Y553D02*
X983Y553D01*
X1000Y553D02*
X1003Y553D01*
X1034Y553D02*
X1044Y553D01*
X1142Y553D02*
X1153Y553D01*
X0Y552D02*
X3Y552D01*
X27Y552D02*
X38Y552D01*
X135Y552D02*
X146Y552D01*
X175Y552D02*
X179Y552D01*
X184Y552D02*
X187Y552D01*
X193Y552D02*
X197Y552D01*
X980Y552D02*
X983Y552D01*
X1000Y552D02*
X1003Y552D01*
X1034Y552D02*
X1044Y552D01*
X1142Y552D02*
X1153Y552D01*
X0Y551D02*
X3Y551D01*
X27Y551D02*
X38Y551D01*
X135Y551D02*
X146Y551D01*
X175Y551D02*
X179Y551D01*
X184Y551D02*
X187Y551D01*
X194Y551D02*
X197Y551D01*
X980Y551D02*
X983Y551D01*
X1000Y551D02*
X1003Y551D01*
X1034Y551D02*
X1044Y551D01*
X1142Y551D02*
X1153Y551D01*
X0Y550D02*
X3Y550D01*
X27Y550D02*
X38Y550D01*
X135Y550D02*
X146Y550D01*
X175Y550D02*
X178Y550D01*
X184Y550D02*
X187Y550D01*
X194Y550D02*
X197Y550D01*
X980Y550D02*
X983Y550D01*
X1000Y550D02*
X1003Y550D01*
X1034Y550D02*
X1044Y550D01*
X1142Y550D02*
X1153Y550D01*
X0Y549D02*
X3Y549D01*
X27Y549D02*
X38Y549D01*
X135Y549D02*
X146Y549D01*
X175Y549D02*
X178Y549D01*
X184Y549D02*
X187Y549D01*
X194Y549D02*
X198Y549D01*
X980Y549D02*
X984Y549D01*
X1000Y549D02*
X1003Y549D01*
X1034Y549D02*
X1044Y549D01*
X1142Y549D02*
X1153Y549D01*
X0Y548D02*
X3Y548D01*
X27Y548D02*
X38Y548D01*
X135Y548D02*
X146Y548D01*
X175Y548D02*
X178Y548D01*
X184Y548D02*
X187Y548D01*
X194Y548D02*
X198Y548D01*
X981Y548D02*
X984Y548D01*
X999Y548D02*
X1003Y548D01*
X1034Y548D02*
X1044Y548D01*
X1142Y548D02*
X1153Y548D01*
X0Y547D02*
X3Y547D01*
X27Y547D02*
X38Y547D01*
X135Y547D02*
X146Y547D01*
X175Y547D02*
X178Y547D01*
X184Y547D02*
X187Y547D01*
X194Y547D02*
X198Y547D01*
X981Y547D02*
X985Y547D01*
X998Y547D02*
X1002Y547D01*
X1034Y547D02*
X1044Y547D01*
X1142Y547D02*
X1153Y547D01*
X0Y546D02*
X3Y546D01*
X27Y546D02*
X38Y546D01*
X135Y546D02*
X146Y546D01*
X175Y546D02*
X178Y546D01*
X184Y546D02*
X187Y546D01*
X194Y546D02*
X198Y546D01*
X982Y546D02*
X1002Y546D01*
X1034Y546D02*
X1044Y546D01*
X1142Y546D02*
X1153Y546D01*
X0Y545D02*
X3Y545D01*
X27Y545D02*
X38Y545D01*
X135Y545D02*
X146Y545D01*
X175Y545D02*
X178Y545D01*
X184Y545D02*
X187Y545D01*
X194Y545D02*
X198Y545D01*
X982Y545D02*
X1001Y545D01*
X1034Y545D02*
X1044Y545D01*
X1142Y545D02*
X1153Y545D01*
X0Y544D02*
X3Y544D01*
X27Y544D02*
X38Y544D01*
X135Y544D02*
X146Y544D01*
X175Y544D02*
X178Y544D01*
X184Y544D02*
X187Y544D01*
X194Y544D02*
X198Y544D01*
X983Y544D02*
X1000Y544D01*
X1034Y544D02*
X1044Y544D01*
X1142Y544D02*
X1153Y544D01*
X0Y543D02*
X3Y543D01*
X27Y543D02*
X38Y543D01*
X135Y543D02*
X146Y543D01*
X175Y543D02*
X178Y543D01*
X184Y543D02*
X187Y543D01*
X194Y543D02*
X197Y543D01*
X984Y543D02*
X999Y543D01*
X1034Y543D02*
X1044Y543D01*
X1142Y543D02*
X1153Y543D01*
X0Y542D02*
X3Y542D01*
X27Y542D02*
X38Y542D01*
X135Y542D02*
X146Y542D01*
X175Y542D02*
X178Y542D01*
X184Y542D02*
X187Y542D01*
X193Y542D02*
X197Y542D01*
X987Y542D02*
X996Y542D01*
X1034Y542D02*
X1044Y542D01*
X1142Y542D02*
X1153Y542D01*
X0Y541D02*
X3Y541D01*
X27Y541D02*
X38Y541D01*
X135Y541D02*
X146Y541D01*
X175Y541D02*
X178Y541D01*
X184Y541D02*
X196Y541D01*
X1034Y541D02*
X1044Y541D01*
X1142Y541D02*
X1153Y541D01*
X0Y540D02*
X3Y540D01*
X27Y540D02*
X38Y540D01*
X135Y540D02*
X146Y540D01*
X175Y540D02*
X178Y540D01*
X184Y540D02*
X196Y540D01*
X1034Y540D02*
X1044Y540D01*
X1142Y540D02*
X1153Y540D01*
X0Y539D02*
X3Y539D01*
X27Y539D02*
X38Y539D01*
X135Y539D02*
X146Y539D01*
X175Y539D02*
X178Y539D01*
X184Y539D02*
X195Y539D01*
X1034Y539D02*
X1044Y539D01*
X1142Y539D02*
X1153Y539D01*
X0Y538D02*
X3Y538D01*
X27Y538D02*
X38Y538D01*
X135Y538D02*
X146Y538D01*
X175Y538D02*
X178Y538D01*
X184Y538D02*
X194Y538D01*
X1034Y538D02*
X1044Y538D01*
X1142Y538D02*
X1153Y538D01*
X0Y537D02*
X3Y537D01*
X27Y537D02*
X38Y537D01*
X135Y537D02*
X146Y537D01*
X176Y537D02*
X177Y537D01*
X185Y537D02*
X191Y537D01*
X1034Y537D02*
X1044Y537D01*
X1142Y537D02*
X1153Y537D01*
X0Y536D02*
X3Y536D01*
X27Y536D02*
X38Y536D01*
X135Y536D02*
X146Y536D01*
X1034Y536D02*
X1044Y536D01*
X1142Y536D02*
X1153Y536D01*
X0Y535D02*
X3Y535D01*
X27Y535D02*
X38Y535D01*
X135Y535D02*
X146Y535D01*
X1034Y535D02*
X1044Y535D01*
X1142Y535D02*
X1153Y535D01*
X0Y534D02*
X3Y534D01*
X27Y534D02*
X38Y534D01*
X135Y534D02*
X146Y534D01*
X1034Y534D02*
X1044Y534D01*
X1142Y534D02*
X1153Y534D01*
X0Y533D02*
X3Y533D01*
X27Y533D02*
X38Y533D01*
X135Y533D02*
X146Y533D01*
X1034Y533D02*
X1044Y533D01*
X1142Y533D02*
X1153Y533D01*
X0Y532D02*
X3Y532D01*
X27Y532D02*
X38Y532D01*
X135Y532D02*
X146Y532D01*
X972Y532D02*
X974Y532D01*
X1001Y532D02*
X1002Y532D01*
X1034Y532D02*
X1044Y532D01*
X1142Y532D02*
X1153Y532D01*
X0Y531D02*
X3Y531D01*
X27Y531D02*
X38Y531D01*
X135Y531D02*
X146Y531D01*
X972Y531D02*
X975Y531D01*
X1000Y531D02*
X1003Y531D01*
X1034Y531D02*
X1044Y531D01*
X1142Y531D02*
X1153Y531D01*
X0Y530D02*
X3Y530D01*
X27Y530D02*
X38Y530D01*
X135Y530D02*
X146Y530D01*
X971Y530D02*
X975Y530D01*
X1000Y530D02*
X1003Y530D01*
X1034Y530D02*
X1044Y530D01*
X1142Y530D02*
X1153Y530D01*
X0Y529D02*
X3Y529D01*
X27Y529D02*
X38Y529D01*
X135Y529D02*
X146Y529D01*
X971Y529D02*
X975Y529D01*
X1000Y529D02*
X1003Y529D01*
X1034Y529D02*
X1044Y529D01*
X1142Y529D02*
X1153Y529D01*
X0Y528D02*
X3Y528D01*
X27Y528D02*
X38Y528D01*
X135Y528D02*
X146Y528D01*
X971Y528D02*
X975Y528D01*
X1000Y528D02*
X1003Y528D01*
X1034Y528D02*
X1044Y528D01*
X1142Y528D02*
X1153Y528D01*
X0Y527D02*
X5Y527D01*
X27Y527D02*
X38Y527D01*
X135Y527D02*
X146Y527D01*
X971Y527D02*
X975Y527D01*
X1000Y527D02*
X1003Y527D01*
X1034Y527D02*
X1044Y527D01*
X1142Y527D02*
X1153Y527D01*
X0Y526D02*
X13Y526D01*
X27Y526D02*
X38Y526D01*
X135Y526D02*
X146Y526D01*
X971Y526D02*
X975Y526D01*
X1000Y526D02*
X1003Y526D01*
X1034Y526D02*
X1044Y526D01*
X1142Y526D02*
X1153Y526D01*
X0Y525D02*
X13Y525D01*
X27Y525D02*
X38Y525D01*
X135Y525D02*
X146Y525D01*
X971Y525D02*
X975Y525D01*
X1000Y525D02*
X1003Y525D01*
X1034Y525D02*
X1044Y525D01*
X1142Y525D02*
X1153Y525D01*
X0Y524D02*
X13Y524D01*
X27Y524D02*
X38Y524D01*
X135Y524D02*
X146Y524D01*
X971Y524D02*
X975Y524D01*
X1000Y524D02*
X1003Y524D01*
X1034Y524D02*
X1044Y524D01*
X1142Y524D02*
X1153Y524D01*
X0Y523D02*
X12Y523D01*
X27Y523D02*
X38Y523D01*
X135Y523D02*
X146Y523D01*
X971Y523D02*
X975Y523D01*
X1000Y523D02*
X1003Y523D01*
X1034Y523D02*
X1044Y523D01*
X1142Y523D02*
X1153Y523D01*
X0Y522D02*
X12Y522D01*
X27Y522D02*
X38Y522D01*
X135Y522D02*
X146Y522D01*
X972Y522D02*
X975Y522D01*
X1000Y522D02*
X1003Y522D01*
X1034Y522D02*
X1044Y522D01*
X1142Y522D02*
X1153Y522D01*
X0Y521D02*
X12Y521D01*
X27Y521D02*
X38Y521D01*
X135Y521D02*
X146Y521D01*
X972Y521D02*
X976Y521D01*
X999Y521D02*
X1003Y521D01*
X1034Y521D02*
X1044Y521D01*
X1142Y521D02*
X1153Y521D01*
X0Y520D02*
X12Y520D01*
X27Y520D02*
X38Y520D01*
X135Y520D02*
X146Y520D01*
X972Y520D02*
X977Y520D01*
X997Y520D02*
X1002Y520D01*
X1034Y520D02*
X1044Y520D01*
X1142Y520D02*
X1153Y520D01*
X0Y519D02*
X12Y519D01*
X27Y519D02*
X38Y519D01*
X135Y519D02*
X146Y519D01*
X973Y519D02*
X979Y519D01*
X995Y519D02*
X1002Y519D01*
X1034Y519D02*
X1044Y519D01*
X1142Y519D02*
X1153Y519D01*
X0Y518D02*
X12Y518D01*
X27Y518D02*
X38Y518D01*
X135Y518D02*
X146Y518D01*
X973Y518D02*
X981Y518D01*
X993Y518D02*
X1001Y518D01*
X1034Y518D02*
X1044Y518D01*
X1142Y518D02*
X1153Y518D01*
X0Y517D02*
X12Y517D01*
X27Y517D02*
X38Y517D01*
X135Y517D02*
X146Y517D01*
X975Y517D02*
X983Y517D01*
X991Y517D02*
X999Y517D01*
X1034Y517D02*
X1044Y517D01*
X1142Y517D02*
X1153Y517D01*
X0Y516D02*
X12Y516D01*
X27Y516D02*
X38Y516D01*
X135Y516D02*
X146Y516D01*
X977Y516D02*
X997Y516D01*
X1034Y516D02*
X1044Y516D01*
X1142Y516D02*
X1153Y516D01*
X0Y515D02*
X3Y515D01*
X8Y515D02*
X12Y515D01*
X27Y515D02*
X38Y515D01*
X135Y515D02*
X146Y515D01*
X979Y515D02*
X995Y515D01*
X1034Y515D02*
X1044Y515D01*
X1142Y515D02*
X1153Y515D01*
X1168Y515D02*
X1171Y515D01*
X0Y514D02*
X3Y514D01*
X27Y514D02*
X38Y514D01*
X135Y514D02*
X146Y514D01*
X981Y514D02*
X993Y514D01*
X1034Y514D02*
X1044Y514D01*
X1142Y514D02*
X1153Y514D01*
X0Y513D02*
X3Y513D01*
X27Y513D02*
X38Y513D01*
X135Y513D02*
X146Y513D01*
X983Y513D02*
X991Y513D01*
X1034Y513D02*
X1044Y513D01*
X1142Y513D02*
X1153Y513D01*
X0Y512D02*
X3Y512D01*
X27Y512D02*
X38Y512D01*
X135Y512D02*
X146Y512D01*
X986Y512D02*
X989Y512D01*
X1034Y512D02*
X1044Y512D01*
X1142Y512D02*
X1153Y512D01*
X0Y511D02*
X3Y511D01*
X27Y511D02*
X38Y511D01*
X135Y511D02*
X146Y511D01*
X1034Y511D02*
X1044Y511D01*
X1142Y511D02*
X1153Y511D01*
X0Y510D02*
X3Y510D01*
X27Y510D02*
X38Y510D01*
X135Y510D02*
X146Y510D01*
X1034Y510D02*
X1044Y510D01*
X1142Y510D02*
X1153Y510D01*
X0Y509D02*
X3Y509D01*
X27Y509D02*
X38Y509D01*
X135Y509D02*
X146Y509D01*
X1034Y509D02*
X1044Y509D01*
X1142Y509D02*
X1153Y509D01*
X0Y508D02*
X3Y508D01*
X27Y508D02*
X38Y508D01*
X135Y508D02*
X146Y508D01*
X1034Y508D02*
X1044Y508D01*
X1142Y508D02*
X1153Y508D01*
X0Y507D02*
X3Y507D01*
X27Y507D02*
X38Y507D01*
X135Y507D02*
X146Y507D01*
X1034Y507D02*
X1044Y507D01*
X1142Y507D02*
X1153Y507D01*
X0Y506D02*
X3Y506D01*
X27Y506D02*
X38Y506D01*
X135Y506D02*
X146Y506D01*
X1034Y506D02*
X1044Y506D01*
X1142Y506D02*
X1153Y506D01*
X0Y505D02*
X3Y505D01*
X27Y505D02*
X38Y505D01*
X135Y505D02*
X146Y505D01*
X1034Y505D02*
X1044Y505D01*
X1142Y505D02*
X1153Y505D01*
X0Y504D02*
X3Y504D01*
X27Y504D02*
X38Y504D01*
X135Y504D02*
X146Y504D01*
X1034Y504D02*
X1044Y504D01*
X1142Y504D02*
X1153Y504D01*
X0Y503D02*
X3Y503D01*
X27Y503D02*
X38Y503D01*
X135Y503D02*
X146Y503D01*
X1034Y503D02*
X1044Y503D01*
X1142Y503D02*
X1153Y503D01*
X0Y502D02*
X3Y502D01*
X27Y502D02*
X38Y502D01*
X135Y502D02*
X146Y502D01*
X1034Y502D02*
X1044Y502D01*
X1142Y502D02*
X1153Y502D01*
X0Y501D02*
X3Y501D01*
X27Y501D02*
X38Y501D01*
X135Y501D02*
X146Y501D01*
X1034Y501D02*
X1044Y501D01*
X1142Y501D02*
X1153Y501D01*
X0Y500D02*
X3Y500D01*
X27Y500D02*
X38Y500D01*
X135Y500D02*
X146Y500D01*
X1034Y500D02*
X1044Y500D01*
X1142Y500D02*
X1153Y500D01*
X0Y499D02*
X3Y499D01*
X27Y499D02*
X38Y499D01*
X135Y499D02*
X146Y499D01*
X1034Y499D02*
X1044Y499D01*
X1142Y499D02*
X1153Y499D01*
X0Y498D02*
X3Y498D01*
X27Y498D02*
X38Y498D01*
X135Y498D02*
X146Y498D01*
X1034Y498D02*
X1044Y498D01*
X1142Y498D02*
X1153Y498D01*
X0Y497D02*
X3Y497D01*
X27Y497D02*
X38Y497D01*
X135Y497D02*
X146Y497D01*
X1034Y497D02*
X1044Y497D01*
X1142Y497D02*
X1153Y497D01*
X0Y496D02*
X3Y496D01*
X27Y496D02*
X38Y496D01*
X135Y496D02*
X146Y496D01*
X1034Y496D02*
X1044Y496D01*
X1142Y496D02*
X1153Y496D01*
X0Y495D02*
X3Y495D01*
X27Y495D02*
X38Y495D01*
X135Y495D02*
X146Y495D01*
X1034Y495D02*
X1044Y495D01*
X1142Y495D02*
X1153Y495D01*
X0Y494D02*
X3Y494D01*
X27Y494D02*
X38Y494D01*
X135Y494D02*
X146Y494D01*
X1034Y494D02*
X1044Y494D01*
X1142Y494D02*
X1153Y494D01*
X0Y493D02*
X3Y493D01*
X27Y493D02*
X38Y493D01*
X135Y493D02*
X146Y493D01*
X1034Y493D02*
X1044Y493D01*
X1142Y493D02*
X1153Y493D01*
X0Y492D02*
X3Y492D01*
X27Y492D02*
X38Y492D01*
X135Y492D02*
X146Y492D01*
X1034Y492D02*
X1044Y492D01*
X1142Y492D02*
X1153Y492D01*
X0Y491D02*
X3Y491D01*
X27Y491D02*
X38Y491D01*
X135Y491D02*
X146Y491D01*
X1034Y491D02*
X1044Y491D01*
X1142Y491D02*
X1153Y491D01*
X0Y490D02*
X3Y490D01*
X27Y490D02*
X38Y490D01*
X135Y490D02*
X146Y490D01*
X1034Y490D02*
X1044Y490D01*
X1142Y490D02*
X1153Y490D01*
X0Y489D02*
X3Y489D01*
X27Y489D02*
X38Y489D01*
X136Y489D02*
X146Y489D01*
X1034Y489D02*
X1044Y489D01*
X1142Y489D02*
X1153Y489D01*
X0Y488D02*
X3Y488D01*
X27Y488D02*
X38Y488D01*
X136Y488D02*
X145Y488D01*
X1034Y488D02*
X1044Y488D01*
X1142Y488D02*
X1153Y488D01*
X0Y487D02*
X3Y487D01*
X27Y487D02*
X38Y487D01*
X137Y487D02*
X145Y487D01*
X1034Y487D02*
X1044Y487D01*
X1142Y487D02*
X1153Y487D01*
X0Y486D02*
X3Y486D01*
X27Y486D02*
X38Y486D01*
X138Y486D02*
X143Y486D01*
X1034Y486D02*
X1044Y486D01*
X1142Y486D02*
X1153Y486D01*
X0Y485D02*
X3Y485D01*
X27Y485D02*
X38Y485D01*
X1034Y485D02*
X1044Y485D01*
X1142Y485D02*
X1153Y485D01*
X0Y484D02*
X3Y484D01*
X27Y484D02*
X38Y484D01*
X1034Y484D02*
X1044Y484D01*
X1142Y484D02*
X1153Y484D01*
X0Y483D02*
X3Y483D01*
X27Y483D02*
X38Y483D01*
X1034Y483D02*
X1044Y483D01*
X1142Y483D02*
X1153Y483D01*
X0Y482D02*
X3Y482D01*
X27Y482D02*
X38Y482D01*
X1034Y482D02*
X1044Y482D01*
X1142Y482D02*
X1153Y482D01*
X0Y481D02*
X3Y481D01*
X27Y481D02*
X38Y481D01*
X1034Y481D02*
X1044Y481D01*
X1142Y481D02*
X1153Y481D01*
X0Y480D02*
X3Y480D01*
X27Y480D02*
X38Y480D01*
X1034Y480D02*
X1044Y480D01*
X1142Y480D02*
X1153Y480D01*
X0Y479D02*
X3Y479D01*
X27Y479D02*
X37Y479D01*
X1034Y479D02*
X1044Y479D01*
X1142Y479D02*
X1152Y479D01*
X0Y478D02*
X3Y478D01*
X28Y478D02*
X37Y478D01*
X1035Y478D02*
X1043Y478D01*
X1143Y478D02*
X1152Y478D01*
X0Y477D02*
X3Y477D01*
X29Y477D02*
X36Y477D01*
X1035Y477D02*
X1043Y477D01*
X1144Y477D02*
X1151Y477D01*
X0Y476D02*
X3Y476D01*
X30Y476D02*
X35Y476D01*
X1037Y476D02*
X1041Y476D01*
X1145Y476D02*
X1150Y476D01*
X0Y475D02*
X3Y475D01*
X0Y474D02*
X3Y474D01*
X0Y473D02*
X3Y473D01*
X0Y472D02*
X3Y472D01*
X0Y471D02*
X3Y471D01*
X0Y470D02*
X3Y470D01*
X0Y469D02*
X3Y469D01*
X0Y468D02*
X3Y468D01*
X0Y467D02*
X3Y467D01*
X0Y466D02*
X3Y466D01*
X0Y465D02*
X3Y465D01*
X0Y464D02*
X3Y464D01*
X0Y463D02*
X3Y463D01*
X0Y462D02*
X3Y462D01*
X0Y461D02*
X3Y461D01*
X0Y460D02*
X3Y460D01*
X0Y459D02*
X3Y459D01*
X0Y458D02*
X3Y458D01*
X0Y457D02*
X3Y457D01*
X41Y457D02*
X123Y457D01*
X1057Y457D02*
X1139Y457D01*
X0Y456D02*
X3Y456D01*
X39Y456D02*
X124Y456D01*
X1055Y456D02*
X1141Y456D01*
X0Y455D02*
X3Y455D01*
X38Y455D02*
X125Y455D01*
X1055Y455D02*
X1142Y455D01*
X0Y454D02*
X3Y454D01*
X37Y454D02*
X126Y454D01*
X1054Y454D02*
X1142Y454D01*
X0Y453D02*
X3Y453D01*
X37Y453D02*
X126Y453D01*
X1054Y453D02*
X1143Y453D01*
X0Y452D02*
X3Y452D01*
X37Y452D02*
X126Y452D01*
X1053Y452D02*
X1143Y452D01*
X0Y451D02*
X3Y451D01*
X37Y451D02*
X126Y451D01*
X1053Y451D02*
X1143Y451D01*
X0Y450D02*
X3Y450D01*
X37Y450D02*
X126Y450D01*
X1054Y450D02*
X1143Y450D01*
X0Y449D02*
X3Y449D01*
X38Y449D02*
X126Y449D01*
X1054Y449D02*
X1142Y449D01*
X0Y448D02*
X3Y448D01*
X38Y448D02*
X125Y448D01*
X1055Y448D02*
X1142Y448D01*
X0Y447D02*
X3Y447D01*
X39Y447D02*
X124Y447D01*
X1056Y447D02*
X1140Y447D01*
X0Y446D02*
X3Y446D01*
X41Y446D02*
X122Y446D01*
X1057Y446D02*
X1139Y446D01*
X0Y445D02*
X3Y445D01*
X0Y444D02*
X3Y444D01*
X0Y443D02*
X3Y443D01*
X0Y442D02*
X3Y442D01*
X0Y441D02*
X3Y441D01*
X0Y440D02*
X3Y440D01*
X0Y439D02*
X3Y439D01*
X0Y438D02*
X3Y438D01*
X0Y437D02*
X3Y437D01*
X0Y436D02*
X3Y436D01*
X0Y435D02*
X3Y435D01*
X0Y434D02*
X3Y434D01*
X0Y433D02*
X3Y433D01*
X0Y432D02*
X3Y432D01*
X0Y431D02*
X3Y431D01*
X385Y431D02*
X394Y431D01*
X785Y431D02*
X794Y431D01*
X0Y430D02*
X3Y430D01*
X385Y430D02*
X394Y430D01*
X785Y430D02*
X794Y430D01*
X0Y429D02*
X3Y429D01*
X385Y429D02*
X394Y429D01*
X785Y429D02*
X794Y429D01*
X0Y428D02*
X3Y428D01*
X385Y428D02*
X394Y428D01*
X785Y428D02*
X794Y428D01*
X0Y427D02*
X3Y427D01*
X385Y427D02*
X394Y427D01*
X785Y427D02*
X794Y427D01*
X0Y426D02*
X3Y426D01*
X385Y426D02*
X394Y426D01*
X785Y426D02*
X794Y426D01*
X0Y425D02*
X3Y425D01*
X385Y425D02*
X394Y425D01*
X785Y425D02*
X794Y425D01*
X0Y424D02*
X3Y424D01*
X385Y424D02*
X394Y424D01*
X785Y424D02*
X794Y424D01*
X0Y423D02*
X3Y423D01*
X385Y423D02*
X394Y423D01*
X785Y423D02*
X794Y423D01*
X0Y422D02*
X3Y422D01*
X385Y422D02*
X394Y422D01*
X785Y422D02*
X794Y422D01*
X0Y421D02*
X3Y421D01*
X385Y421D02*
X394Y421D01*
X785Y421D02*
X794Y421D01*
X0Y420D02*
X3Y420D01*
X385Y420D02*
X394Y420D01*
X785Y420D02*
X794Y420D01*
X0Y419D02*
X3Y419D01*
X385Y419D02*
X394Y419D01*
X785Y419D02*
X794Y419D01*
X0Y418D02*
X3Y418D01*
X385Y418D02*
X394Y418D01*
X785Y418D02*
X794Y418D01*
X0Y417D02*
X3Y417D01*
X385Y417D02*
X394Y417D01*
X785Y417D02*
X794Y417D01*
X0Y416D02*
X3Y416D01*
X385Y416D02*
X394Y416D01*
X785Y416D02*
X794Y416D01*
X0Y415D02*
X3Y415D01*
X385Y415D02*
X394Y415D01*
X785Y415D02*
X794Y415D01*
X0Y414D02*
X3Y414D01*
X385Y414D02*
X394Y414D01*
X785Y414D02*
X794Y414D01*
X0Y413D02*
X3Y413D01*
X385Y413D02*
X394Y413D01*
X785Y413D02*
X794Y413D01*
X0Y412D02*
X3Y412D01*
X385Y412D02*
X394Y412D01*
X785Y412D02*
X794Y412D01*
X0Y411D02*
X3Y411D01*
X385Y411D02*
X394Y411D01*
X785Y411D02*
X794Y411D01*
X0Y410D02*
X3Y410D01*
X385Y410D02*
X394Y410D01*
X785Y410D02*
X794Y410D01*
X0Y409D02*
X3Y409D01*
X385Y409D02*
X394Y409D01*
X785Y409D02*
X794Y409D01*
X0Y408D02*
X3Y408D01*
X385Y408D02*
X394Y408D01*
X785Y408D02*
X794Y408D01*
X0Y407D02*
X3Y407D01*
X385Y407D02*
X394Y407D01*
X785Y407D02*
X794Y407D01*
X0Y406D02*
X3Y406D01*
X385Y406D02*
X394Y406D01*
X785Y406D02*
X794Y406D01*
X0Y405D02*
X3Y405D01*
X385Y405D02*
X394Y405D01*
X785Y405D02*
X794Y405D01*
X0Y404D02*
X3Y404D01*
X385Y404D02*
X394Y404D01*
X785Y404D02*
X794Y404D01*
X0Y403D02*
X3Y403D01*
X385Y403D02*
X394Y403D01*
X785Y403D02*
X794Y403D01*
X0Y402D02*
X3Y402D01*
X385Y402D02*
X394Y402D01*
X785Y402D02*
X794Y402D01*
X0Y401D02*
X3Y401D01*
X385Y401D02*
X394Y401D01*
X785Y401D02*
X794Y401D01*
X0Y400D02*
X3Y400D01*
X385Y400D02*
X394Y400D01*
X785Y400D02*
X794Y400D01*
X0Y399D02*
X3Y399D01*
X385Y399D02*
X394Y399D01*
X785Y399D02*
X794Y399D01*
X0Y398D02*
X3Y398D01*
X385Y398D02*
X394Y398D01*
X785Y398D02*
X794Y398D01*
X0Y397D02*
X3Y397D01*
X385Y397D02*
X394Y397D01*
X785Y397D02*
X794Y397D01*
X0Y396D02*
X3Y396D01*
X385Y396D02*
X394Y396D01*
X785Y396D02*
X794Y396D01*
X0Y395D02*
X3Y395D01*
X385Y395D02*
X394Y395D01*
X785Y395D02*
X794Y395D01*
X0Y394D02*
X3Y394D01*
X385Y394D02*
X394Y394D01*
X785Y394D02*
X794Y394D01*
X0Y393D02*
X3Y393D01*
X385Y393D02*
X394Y393D01*
X785Y393D02*
X794Y393D01*
X0Y392D02*
X3Y392D01*
X385Y392D02*
X394Y392D01*
X785Y392D02*
X794Y392D01*
X0Y391D02*
X3Y391D01*
X385Y391D02*
X394Y391D01*
X785Y391D02*
X794Y391D01*
X0Y390D02*
X3Y390D01*
X385Y390D02*
X394Y390D01*
X785Y390D02*
X794Y390D01*
X0Y389D02*
X3Y389D01*
X385Y389D02*
X394Y389D01*
X785Y389D02*
X794Y389D01*
X0Y388D02*
X3Y388D01*
X385Y388D02*
X394Y388D01*
X785Y388D02*
X794Y388D01*
X0Y387D02*
X3Y387D01*
X385Y387D02*
X394Y387D01*
X785Y387D02*
X794Y387D01*
X0Y386D02*
X3Y386D01*
X385Y386D02*
X394Y386D01*
X785Y386D02*
X794Y386D01*
X0Y385D02*
X3Y385D01*
X385Y385D02*
X394Y385D01*
X785Y385D02*
X794Y385D01*
X0Y384D02*
X3Y384D01*
X385Y384D02*
X394Y384D01*
X785Y384D02*
X794Y384D01*
X0Y383D02*
X3Y383D01*
X385Y383D02*
X394Y383D01*
X785Y383D02*
X794Y383D01*
X0Y382D02*
X3Y382D01*
X385Y382D02*
X394Y382D01*
X785Y382D02*
X794Y382D01*
X0Y381D02*
X3Y381D01*
X385Y381D02*
X394Y381D01*
X785Y381D02*
X794Y381D01*
X0Y380D02*
X3Y380D01*
X385Y380D02*
X394Y380D01*
X785Y380D02*
X794Y380D01*
X0Y379D02*
X3Y379D01*
X385Y379D02*
X394Y379D01*
X785Y379D02*
X794Y379D01*
X0Y378D02*
X3Y378D01*
X385Y378D02*
X394Y378D01*
X785Y378D02*
X794Y378D01*
X0Y377D02*
X3Y377D01*
X385Y377D02*
X394Y377D01*
X785Y377D02*
X794Y377D01*
X0Y376D02*
X3Y376D01*
X385Y376D02*
X394Y376D01*
X785Y376D02*
X794Y376D01*
X0Y375D02*
X3Y375D01*
X385Y375D02*
X394Y375D01*
X785Y375D02*
X794Y375D01*
X0Y374D02*
X3Y374D01*
X385Y374D02*
X394Y374D01*
X785Y374D02*
X794Y374D01*
X0Y373D02*
X3Y373D01*
X385Y373D02*
X394Y373D01*
X785Y373D02*
X794Y373D01*
X0Y372D02*
X3Y372D01*
X385Y372D02*
X394Y372D01*
X785Y372D02*
X794Y372D01*
X0Y371D02*
X3Y371D01*
X385Y371D02*
X394Y371D01*
X785Y371D02*
X794Y371D01*
X0Y370D02*
X3Y370D01*
X385Y370D02*
X394Y370D01*
X785Y370D02*
X794Y370D01*
X0Y369D02*
X3Y369D01*
X385Y369D02*
X394Y369D01*
X785Y369D02*
X794Y369D01*
X0Y368D02*
X3Y368D01*
X385Y368D02*
X394Y368D01*
X785Y368D02*
X794Y368D01*
X0Y367D02*
X3Y367D01*
X385Y367D02*
X394Y367D01*
X785Y367D02*
X794Y367D01*
X0Y366D02*
X3Y366D01*
X385Y366D02*
X394Y366D01*
X785Y366D02*
X794Y366D01*
X0Y365D02*
X3Y365D01*
X385Y365D02*
X394Y365D01*
X785Y365D02*
X794Y365D01*
X0Y364D02*
X3Y364D01*
X0Y363D02*
X3Y363D01*
X0Y362D02*
X3Y362D01*
X0Y361D02*
X3Y361D01*
X0Y360D02*
X3Y360D01*
X0Y359D02*
X3Y359D01*
X0Y358D02*
X3Y358D01*
X0Y357D02*
X3Y357D01*
X0Y356D02*
X3Y356D01*
X446Y356D02*
X477Y356D01*
X0Y355D02*
X3Y355D01*
X445Y355D02*
X477Y355D01*
X847Y355D02*
X878Y355D01*
X0Y354D02*
X3Y354D01*
X445Y354D02*
X477Y354D01*
X847Y354D02*
X878Y354D01*
X0Y353D02*
X3Y353D01*
X446Y353D02*
X477Y353D01*
X847Y353D02*
X878Y353D01*
X0Y352D02*
X3Y352D01*
X463Y352D02*
X466Y352D01*
X473Y352D02*
X477Y352D01*
X847Y352D02*
X878Y352D01*
X0Y351D02*
X3Y351D01*
X463Y351D02*
X466Y351D01*
X473Y351D02*
X477Y351D01*
X864Y351D02*
X867Y351D01*
X875Y351D02*
X878Y351D01*
X0Y350D02*
X3Y350D01*
X463Y350D02*
X466Y350D01*
X473Y350D02*
X477Y350D01*
X864Y350D02*
X867Y350D01*
X875Y350D02*
X878Y350D01*
X0Y349D02*
X3Y349D01*
X462Y349D02*
X466Y349D01*
X473Y349D02*
X477Y349D01*
X864Y349D02*
X867Y349D01*
X875Y349D02*
X878Y349D01*
X0Y348D02*
X3Y348D01*
X460Y348D02*
X466Y348D01*
X473Y348D02*
X477Y348D01*
X863Y348D02*
X867Y348D01*
X875Y348D02*
X878Y348D01*
X0Y347D02*
X3Y347D01*
X458Y347D02*
X466Y347D01*
X473Y347D02*
X477Y347D01*
X861Y347D02*
X867Y347D01*
X875Y347D02*
X878Y347D01*
X0Y346D02*
X3Y346D01*
X457Y346D02*
X466Y346D01*
X473Y346D02*
X477Y346D01*
X860Y346D02*
X867Y346D01*
X875Y346D02*
X878Y346D01*
X0Y345D02*
X3Y345D01*
X455Y345D02*
X466Y345D01*
X473Y345D02*
X477Y345D01*
X858Y345D02*
X867Y345D01*
X875Y345D02*
X878Y345D01*
X0Y344D02*
X3Y344D01*
X453Y344D02*
X461Y344D01*
X463Y344D02*
X466Y344D01*
X473Y344D02*
X477Y344D01*
X856Y344D02*
X867Y344D01*
X875Y344D02*
X878Y344D01*
X0Y343D02*
X3Y343D01*
X451Y343D02*
X459Y343D01*
X463Y343D02*
X466Y343D01*
X473Y343D02*
X477Y343D01*
X854Y343D02*
X862Y343D01*
X864Y343D02*
X867Y343D01*
X875Y343D02*
X878Y343D01*
X0Y342D02*
X3Y342D01*
X450Y342D02*
X457Y342D01*
X463Y342D02*
X466Y342D01*
X473Y342D02*
X477Y342D01*
X853Y342D02*
X860Y342D01*
X864Y342D02*
X867Y342D01*
X875Y342D02*
X878Y342D01*
X0Y341D02*
X3Y341D01*
X448Y341D02*
X455Y341D01*
X463Y341D02*
X467Y341D01*
X473Y341D02*
X476Y341D01*
X851Y341D02*
X859Y341D01*
X864Y341D02*
X868Y341D01*
X875Y341D02*
X878Y341D01*
X0Y340D02*
X3Y340D01*
X446Y340D02*
X454Y340D01*
X463Y340D02*
X476Y340D01*
X849Y340D02*
X857Y340D01*
X864Y340D02*
X868Y340D01*
X874Y340D02*
X878Y340D01*
X0Y339D02*
X3Y339D01*
X445Y339D02*
X452Y339D01*
X464Y339D02*
X475Y339D01*
X848Y339D02*
X855Y339D01*
X865Y339D02*
X878Y339D01*
X0Y338D02*
X3Y338D01*
X445Y338D02*
X450Y338D01*
X465Y338D02*
X475Y338D01*
X847Y338D02*
X853Y338D01*
X865Y338D02*
X877Y338D01*
X0Y337D02*
X3Y337D01*
X445Y337D02*
X449Y337D01*
X466Y337D02*
X473Y337D01*
X847Y337D02*
X852Y337D01*
X866Y337D02*
X876Y337D01*
X0Y336D02*
X3Y336D01*
X469Y336D02*
X471Y336D01*
X847Y336D02*
X850Y336D01*
X867Y336D02*
X875Y336D01*
X0Y335D02*
X3Y335D01*
X0Y334D02*
X3Y334D01*
X0Y333D02*
X3Y333D01*
X0Y332D02*
X3Y332D01*
X0Y331D02*
X3Y331D01*
X0Y330D02*
X3Y330D01*
X0Y329D02*
X3Y329D01*
X0Y328D02*
X3Y328D01*
X0Y327D02*
X3Y327D01*
X0Y326D02*
X3Y326D01*
X446Y326D02*
X448Y326D01*
X474Y326D02*
X476Y326D01*
X0Y325D02*
X3Y325D01*
X445Y325D02*
X448Y325D01*
X473Y325D02*
X476Y325D01*
X847Y325D02*
X862Y325D01*
X876Y325D02*
X877Y325D01*
X0Y324D02*
X3Y324D01*
X445Y324D02*
X448Y324D01*
X473Y324D02*
X477Y324D01*
X847Y324D02*
X863Y324D01*
X875Y324D02*
X878Y324D01*
X0Y323D02*
X3Y323D01*
X445Y323D02*
X448Y323D01*
X473Y323D02*
X477Y323D01*
X847Y323D02*
X864Y323D01*
X875Y323D02*
X878Y323D01*
X0Y322D02*
X3Y322D01*
X445Y322D02*
X448Y322D01*
X473Y322D02*
X477Y322D01*
X847Y322D02*
X864Y322D01*
X875Y322D02*
X878Y322D01*
X0Y321D02*
X3Y321D01*
X445Y321D02*
X448Y321D01*
X473Y321D02*
X477Y321D01*
X847Y321D02*
X850Y321D01*
X861Y321D02*
X864Y321D01*
X875Y321D02*
X878Y321D01*
X0Y320D02*
X3Y320D01*
X445Y320D02*
X448Y320D01*
X473Y320D02*
X477Y320D01*
X847Y320D02*
X850Y320D01*
X861Y320D02*
X864Y320D01*
X875Y320D02*
X878Y320D01*
X0Y319D02*
X3Y319D01*
X445Y319D02*
X448Y319D01*
X473Y319D02*
X477Y319D01*
X847Y319D02*
X850Y319D01*
X861Y319D02*
X864Y319D01*
X875Y319D02*
X878Y319D01*
X0Y318D02*
X3Y318D01*
X445Y318D02*
X477Y318D01*
X847Y318D02*
X850Y318D01*
X861Y318D02*
X864Y318D01*
X875Y318D02*
X878Y318D01*
X0Y317D02*
X3Y317D01*
X445Y317D02*
X477Y317D01*
X847Y317D02*
X850Y317D01*
X861Y317D02*
X864Y317D01*
X875Y317D02*
X878Y317D01*
X0Y316D02*
X3Y316D01*
X445Y316D02*
X477Y316D01*
X847Y316D02*
X850Y316D01*
X861Y316D02*
X864Y316D01*
X875Y316D02*
X878Y316D01*
X0Y315D02*
X3Y315D01*
X445Y315D02*
X477Y315D01*
X847Y315D02*
X850Y315D01*
X861Y315D02*
X864Y315D01*
X875Y315D02*
X878Y315D01*
X0Y314D02*
X3Y314D01*
X445Y314D02*
X449Y314D01*
X847Y314D02*
X850Y314D01*
X861Y314D02*
X864Y314D01*
X875Y314D02*
X878Y314D01*
X0Y313D02*
X3Y313D01*
X445Y313D02*
X448Y313D01*
X847Y313D02*
X850Y313D01*
X861Y313D02*
X864Y313D01*
X875Y313D02*
X878Y313D01*
X0Y312D02*
X3Y312D01*
X445Y312D02*
X448Y312D01*
X847Y312D02*
X850Y312D01*
X861Y312D02*
X864Y312D01*
X875Y312D02*
X878Y312D01*
X0Y311D02*
X3Y311D01*
X445Y311D02*
X448Y311D01*
X847Y311D02*
X850Y311D01*
X861Y311D02*
X864Y311D01*
X875Y311D02*
X878Y311D01*
X0Y310D02*
X3Y310D01*
X445Y310D02*
X457Y310D01*
X847Y310D02*
X850Y310D01*
X861Y310D02*
X864Y310D01*
X875Y310D02*
X878Y310D01*
X0Y309D02*
X3Y309D01*
X445Y309D02*
X459Y309D01*
X847Y309D02*
X850Y309D01*
X861Y309D02*
X878Y309D01*
X0Y308D02*
X3Y308D01*
X445Y308D02*
X459Y308D01*
X847Y308D02*
X850Y308D01*
X861Y308D02*
X878Y308D01*
X0Y307D02*
X3Y307D01*
X445Y307D02*
X459Y307D01*
X847Y307D02*
X850Y307D01*
X861Y307D02*
X877Y307D01*
X0Y306D02*
X3Y306D01*
X447Y306D02*
X457Y306D01*
X847Y306D02*
X849Y306D01*
X862Y306D02*
X877Y306D01*
X0Y305D02*
X3Y305D01*
X848Y305D02*
X848Y305D01*
X864Y305D02*
X874Y305D01*
X0Y304D02*
X3Y304D01*
X0Y303D02*
X3Y303D01*
X0Y302D02*
X3Y302D01*
X0Y301D02*
X3Y301D01*
X0Y300D02*
X3Y300D01*
X0Y299D02*
X3Y299D01*
X0Y298D02*
X3Y298D01*
X0Y297D02*
X3Y297D01*
X0Y296D02*
X3Y296D01*
X0Y295D02*
X3Y295D01*
X0Y294D02*
X3Y294D01*
X0Y293D02*
X3Y293D01*
X0Y292D02*
X3Y292D01*
X0Y291D02*
X3Y291D01*
X0Y290D02*
X3Y290D01*
X0Y289D02*
X3Y289D01*
X0Y288D02*
X3Y288D01*
X0Y287D02*
X3Y287D01*
X0Y286D02*
X3Y286D01*
X0Y285D02*
X3Y285D01*
X0Y284D02*
X3Y284D01*
X0Y283D02*
X3Y283D01*
X0Y282D02*
X3Y282D01*
X0Y281D02*
X3Y281D01*
X0Y280D02*
X3Y280D01*
X0Y279D02*
X3Y279D01*
X0Y278D02*
X3Y278D01*
X0Y277D02*
X3Y277D01*
X0Y276D02*
X3Y276D01*
X0Y275D02*
X3Y275D01*
X0Y274D02*
X3Y274D01*
X0Y273D02*
X3Y273D01*
X0Y272D02*
X3Y272D01*
X0Y271D02*
X3Y271D01*
X0Y270D02*
X3Y270D01*
X0Y269D02*
X3Y269D01*
X0Y268D02*
X3Y268D01*
X0Y267D02*
X3Y267D01*
X0Y266D02*
X3Y266D01*
X0Y265D02*
X3Y265D01*
X0Y264D02*
X3Y264D01*
X0Y263D02*
X3Y263D01*
X0Y262D02*
X3Y262D01*
X0Y261D02*
X3Y261D01*
X0Y260D02*
X3Y260D01*
X0Y259D02*
X3Y259D01*
X0Y258D02*
X3Y258D01*
X0Y257D02*
X3Y257D01*
X0Y256D02*
X3Y256D01*
X0Y255D02*
X3Y255D01*
X0Y254D02*
X3Y254D01*
X0Y253D02*
X3Y253D01*
X0Y252D02*
X3Y252D01*
X0Y251D02*
X3Y251D01*
X0Y250D02*
X3Y250D01*
X0Y249D02*
X3Y249D01*
X0Y248D02*
X3Y248D01*
X0Y247D02*
X3Y247D01*
X0Y246D02*
X3Y246D01*
X0Y245D02*
X3Y245D01*
X0Y244D02*
X3Y244D01*
X0Y243D02*
X3Y243D01*
X0Y242D02*
X3Y242D01*
X0Y241D02*
X3Y241D01*
X0Y240D02*
X3Y240D01*
X0Y239D02*
X3Y239D01*
X0Y238D02*
X3Y238D01*
X0Y237D02*
X3Y237D01*
X0Y236D02*
X3Y236D01*
X0Y235D02*
X3Y235D01*
X0Y234D02*
X3Y234D01*
X0Y233D02*
X3Y233D01*
X0Y232D02*
X3Y232D01*
X0Y231D02*
X3Y231D01*
X0Y230D02*
X3Y230D01*
X0Y229D02*
X3Y229D01*
X0Y228D02*
X3Y228D01*
X0Y227D02*
X3Y227D01*
X0Y226D02*
X3Y226D01*
X0Y225D02*
X3Y225D01*
X0Y224D02*
X3Y224D01*
X0Y223D02*
X3Y223D01*
X0Y222D02*
X3Y222D01*
X0Y221D02*
X3Y221D01*
X0Y220D02*
X3Y220D01*
X0Y219D02*
X3Y219D01*
X0Y218D02*
X3Y218D01*
X0Y217D02*
X3Y217D01*
X0Y216D02*
X3Y216D01*
X0Y215D02*
X3Y215D01*
X0Y214D02*
X3Y214D01*
X0Y213D02*
X3Y213D01*
X0Y212D02*
X3Y212D01*
X0Y211D02*
X3Y211D01*
X0Y210D02*
X3Y210D01*
X0Y209D02*
X3Y209D01*
X0Y208D02*
X3Y208D01*
X0Y207D02*
X3Y207D01*
X0Y206D02*
X3Y206D01*
X0Y205D02*
X3Y205D01*
X0Y204D02*
X3Y204D01*
X0Y203D02*
X3Y203D01*
X0Y202D02*
X3Y202D01*
X0Y201D02*
X3Y201D01*
X0Y200D02*
X3Y200D01*
X0Y199D02*
X3Y199D01*
X0Y198D02*
X3Y198D01*
X0Y197D02*
X3Y197D01*
X0Y196D02*
X3Y196D01*
X0Y195D02*
X3Y195D01*
X0Y194D02*
X3Y194D01*
X0Y193D02*
X3Y193D01*
X0Y192D02*
X3Y192D01*
X0Y191D02*
X3Y191D01*
X0Y190D02*
X3Y190D01*
X0Y189D02*
X3Y189D01*
X0Y188D02*
X3Y188D01*
X0Y187D02*
X3Y187D01*
X0Y186D02*
X3Y186D01*
X536Y186D02*
X537Y186D01*
X552Y186D02*
X568Y186D01*
X0Y185D02*
X3Y185D01*
X535Y185D02*
X538Y185D01*
X551Y185D02*
X569Y185D01*
X0Y184D02*
X3Y184D01*
X535Y184D02*
X538Y184D01*
X551Y184D02*
X570Y184D01*
X0Y183D02*
X3Y183D01*
X535Y183D02*
X538Y183D01*
X551Y183D02*
X570Y183D01*
X0Y182D02*
X3Y182D01*
X535Y182D02*
X538Y182D01*
X567Y182D02*
X571Y182D01*
X0Y181D02*
X3Y181D01*
X535Y181D02*
X538Y181D01*
X567Y181D02*
X571Y181D01*
X0Y180D02*
X3Y180D01*
X535Y180D02*
X538Y180D01*
X567Y180D02*
X571Y180D01*
X0Y179D02*
X3Y179D01*
X535Y179D02*
X538Y179D01*
X567Y179D02*
X571Y179D01*
X0Y178D02*
X3Y178D01*
X535Y178D02*
X538Y178D01*
X567Y178D02*
X571Y178D01*
X0Y177D02*
X3Y177D01*
X535Y177D02*
X538Y177D01*
X567Y177D02*
X571Y177D01*
X0Y176D02*
X3Y176D01*
X535Y176D02*
X538Y176D01*
X567Y176D02*
X571Y176D01*
X0Y175D02*
X3Y175D01*
X535Y175D02*
X538Y175D01*
X567Y175D02*
X571Y175D01*
X0Y174D02*
X3Y174D01*
X535Y174D02*
X538Y174D01*
X567Y174D02*
X571Y174D01*
X0Y173D02*
X3Y173D01*
X535Y173D02*
X538Y173D01*
X567Y173D02*
X571Y173D01*
X0Y172D02*
X3Y172D01*
X535Y172D02*
X538Y172D01*
X554Y172D02*
X570Y172D01*
X0Y171D02*
X3Y171D01*
X535Y171D02*
X538Y171D01*
X552Y171D02*
X570Y171D01*
X0Y170D02*
X3Y170D01*
X535Y170D02*
X538Y170D01*
X551Y170D02*
X570Y170D01*
X0Y169D02*
X3Y169D01*
X535Y169D02*
X538Y169D01*
X551Y169D02*
X569Y169D01*
X0Y168D02*
X3Y168D01*
X523Y168D02*
X525Y168D01*
X535Y168D02*
X538Y168D01*
X551Y168D02*
X567Y168D01*
X0Y167D02*
X3Y167D01*
X523Y167D02*
X526Y167D01*
X535Y167D02*
X538Y167D01*
X551Y167D02*
X554Y167D01*
X0Y166D02*
X3Y166D01*
X523Y166D02*
X526Y166D01*
X535Y166D02*
X538Y166D01*
X551Y166D02*
X554Y166D01*
X0Y165D02*
X3Y165D01*
X523Y165D02*
X526Y165D01*
X535Y165D02*
X538Y165D01*
X551Y165D02*
X554Y165D01*
X0Y164D02*
X3Y164D01*
X386Y164D02*
X394Y164D01*
X523Y164D02*
X526Y164D01*
X535Y164D02*
X538Y164D01*
X551Y164D02*
X554Y164D01*
X786Y164D02*
X794Y164D01*
X0Y163D02*
X3Y163D01*
X385Y163D02*
X394Y163D01*
X523Y163D02*
X526Y163D01*
X535Y163D02*
X538Y163D01*
X551Y163D02*
X554Y163D01*
X785Y163D02*
X794Y163D01*
X0Y162D02*
X3Y162D01*
X385Y162D02*
X394Y162D01*
X523Y162D02*
X526Y162D01*
X535Y162D02*
X538Y162D01*
X551Y162D02*
X554Y162D01*
X785Y162D02*
X794Y162D01*
X0Y161D02*
X3Y161D01*
X385Y161D02*
X394Y161D01*
X523Y161D02*
X526Y161D01*
X535Y161D02*
X538Y161D01*
X551Y161D02*
X554Y161D01*
X785Y161D02*
X794Y161D01*
X0Y160D02*
X3Y160D01*
X385Y160D02*
X394Y160D01*
X523Y160D02*
X526Y160D01*
X535Y160D02*
X538Y160D01*
X551Y160D02*
X554Y160D01*
X785Y160D02*
X794Y160D01*
X0Y159D02*
X3Y159D01*
X385Y159D02*
X394Y159D01*
X523Y159D02*
X526Y159D01*
X535Y159D02*
X538Y159D01*
X551Y159D02*
X554Y159D01*
X785Y159D02*
X794Y159D01*
X0Y158D02*
X3Y158D01*
X385Y158D02*
X394Y158D01*
X523Y158D02*
X528Y158D01*
X533Y158D02*
X538Y158D01*
X551Y158D02*
X554Y158D01*
X785Y158D02*
X794Y158D01*
X0Y157D02*
X3Y157D01*
X385Y157D02*
X394Y157D01*
X524Y157D02*
X537Y157D01*
X551Y157D02*
X570Y157D01*
X785Y157D02*
X794Y157D01*
X0Y156D02*
X3Y156D01*
X385Y156D02*
X394Y156D01*
X524Y156D02*
X537Y156D01*
X551Y156D02*
X570Y156D01*
X785Y156D02*
X794Y156D01*
X0Y155D02*
X3Y155D01*
X385Y155D02*
X394Y155D01*
X525Y155D02*
X536Y155D01*
X551Y155D02*
X570Y155D01*
X785Y155D02*
X794Y155D01*
X0Y154D02*
X3Y154D01*
X385Y154D02*
X394Y154D01*
X527Y154D02*
X534Y154D01*
X551Y154D02*
X569Y154D01*
X785Y154D02*
X794Y154D01*
X0Y153D02*
X3Y153D01*
X385Y153D02*
X394Y153D01*
X785Y153D02*
X794Y153D01*
X0Y152D02*
X3Y152D01*
X385Y152D02*
X394Y152D01*
X785Y152D02*
X794Y152D01*
X0Y151D02*
X3Y151D01*
X385Y151D02*
X394Y151D01*
X785Y151D02*
X794Y151D01*
X0Y150D02*
X3Y150D01*
X385Y150D02*
X394Y150D01*
X785Y150D02*
X794Y150D01*
X0Y149D02*
X3Y149D01*
X385Y149D02*
X394Y149D01*
X785Y149D02*
X794Y149D01*
X0Y148D02*
X3Y148D01*
X385Y148D02*
X394Y148D01*
X785Y148D02*
X794Y148D01*
X0Y147D02*
X3Y147D01*
X385Y147D02*
X394Y147D01*
X785Y147D02*
X794Y147D01*
X0Y146D02*
X3Y146D01*
X385Y146D02*
X394Y146D01*
X785Y146D02*
X794Y146D01*
X0Y145D02*
X3Y145D01*
X385Y145D02*
X394Y145D01*
X785Y145D02*
X794Y145D01*
X0Y144D02*
X3Y144D01*
X385Y144D02*
X394Y144D01*
X785Y144D02*
X794Y144D01*
X0Y143D02*
X3Y143D01*
X385Y143D02*
X394Y143D01*
X785Y143D02*
X794Y143D01*
X0Y142D02*
X3Y142D01*
X385Y142D02*
X394Y142D01*
X785Y142D02*
X794Y142D01*
X0Y141D02*
X3Y141D01*
X385Y141D02*
X394Y141D01*
X785Y141D02*
X794Y141D01*
X0Y140D02*
X3Y140D01*
X385Y140D02*
X394Y140D01*
X785Y140D02*
X794Y140D01*
X0Y139D02*
X3Y139D01*
X385Y139D02*
X394Y139D01*
X785Y139D02*
X794Y139D01*
X0Y138D02*
X3Y138D01*
X385Y138D02*
X394Y138D01*
X785Y138D02*
X794Y138D01*
X0Y137D02*
X3Y137D01*
X385Y137D02*
X394Y137D01*
X785Y137D02*
X794Y137D01*
X0Y136D02*
X3Y136D01*
X385Y136D02*
X394Y136D01*
X785Y136D02*
X794Y136D01*
X0Y135D02*
X3Y135D01*
X385Y135D02*
X394Y135D01*
X785Y135D02*
X794Y135D01*
X0Y134D02*
X3Y134D01*
X385Y134D02*
X394Y134D01*
X785Y134D02*
X794Y134D01*
X0Y133D02*
X3Y133D01*
X385Y133D02*
X394Y133D01*
X785Y133D02*
X794Y133D01*
X0Y132D02*
X3Y132D01*
X385Y132D02*
X394Y132D01*
X785Y132D02*
X794Y132D01*
X0Y131D02*
X3Y131D01*
X385Y131D02*
X394Y131D01*
X785Y131D02*
X794Y131D01*
X0Y130D02*
X3Y130D01*
X385Y130D02*
X394Y130D01*
X785Y130D02*
X794Y130D01*
X0Y129D02*
X3Y129D01*
X385Y129D02*
X394Y129D01*
X785Y129D02*
X794Y129D01*
X0Y128D02*
X3Y128D01*
X385Y128D02*
X394Y128D01*
X785Y128D02*
X794Y128D01*
X0Y127D02*
X3Y127D01*
X385Y127D02*
X394Y127D01*
X785Y127D02*
X794Y127D01*
X0Y126D02*
X3Y126D01*
X385Y126D02*
X394Y126D01*
X785Y126D02*
X794Y126D01*
X0Y125D02*
X3Y125D01*
X385Y125D02*
X394Y125D01*
X785Y125D02*
X794Y125D01*
X0Y124D02*
X3Y124D01*
X385Y124D02*
X394Y124D01*
X706Y124D02*
X707Y124D01*
X785Y124D02*
X794Y124D01*
X0Y123D02*
X3Y123D01*
X385Y123D02*
X394Y123D01*
X705Y123D02*
X708Y123D01*
X785Y123D02*
X794Y123D01*
X0Y122D02*
X3Y122D01*
X385Y122D02*
X394Y122D01*
X704Y122D02*
X709Y122D01*
X785Y122D02*
X794Y122D01*
X0Y121D02*
X3Y121D01*
X385Y121D02*
X394Y121D01*
X704Y121D02*
X710Y121D01*
X785Y121D02*
X794Y121D01*
X0Y120D02*
X3Y120D01*
X385Y120D02*
X394Y120D01*
X705Y120D02*
X711Y120D01*
X785Y120D02*
X794Y120D01*
X0Y119D02*
X3Y119D01*
X385Y119D02*
X394Y119D01*
X706Y119D02*
X712Y119D01*
X785Y119D02*
X794Y119D01*
X0Y118D02*
X3Y118D01*
X385Y118D02*
X394Y118D01*
X707Y118D02*
X713Y118D01*
X785Y118D02*
X794Y118D01*
X0Y117D02*
X3Y117D01*
X385Y117D02*
X394Y117D01*
X708Y117D02*
X714Y117D01*
X785Y117D02*
X794Y117D01*
X0Y116D02*
X3Y116D01*
X385Y116D02*
X389Y116D01*
X391Y116D02*
X394Y116D01*
X709Y116D02*
X715Y116D01*
X785Y116D02*
X788Y116D01*
X791Y116D02*
X794Y116D01*
X0Y115D02*
X3Y115D01*
X710Y115D02*
X716Y115D01*
X0Y114D02*
X3Y114D01*
X711Y114D02*
X717Y114D01*
X0Y113D02*
X3Y113D01*
X712Y113D02*
X718Y113D01*
X0Y112D02*
X3Y112D01*
X713Y112D02*
X719Y112D01*
X0Y111D02*
X3Y111D01*
X714Y111D02*
X720Y111D01*
X0Y110D02*
X3Y110D01*
X715Y110D02*
X721Y110D01*
X0Y109D02*
X3Y109D01*
X716Y109D02*
X722Y109D01*
X0Y108D02*
X3Y108D01*
X718Y108D02*
X723Y108D01*
X0Y107D02*
X3Y107D01*
X719Y107D02*
X724Y107D01*
X0Y106D02*
X3Y106D01*
X720Y106D02*
X725Y106D01*
X0Y105D02*
X3Y105D01*
X721Y105D02*
X726Y105D01*
X0Y104D02*
X3Y104D01*
X722Y104D02*
X727Y104D01*
X0Y103D02*
X3Y103D01*
X723Y103D02*
X728Y103D01*
X0Y102D02*
X3Y102D01*
X724Y102D02*
X729Y102D01*
X0Y101D02*
X3Y101D01*
X725Y101D02*
X730Y101D01*
X0Y100D02*
X3Y100D01*
X725Y100D02*
X731Y100D01*
X0Y99D02*
X3Y99D01*
X726Y99D02*
X732Y99D01*
X0Y98D02*
X3Y98D01*
X727Y98D02*
X733Y98D01*
X0Y97D02*
X3Y97D01*
X728Y97D02*
X734Y97D01*
X0Y96D02*
X3Y96D01*
X729Y96D02*
X735Y96D01*
X0Y95D02*
X3Y95D01*
X730Y95D02*
X736Y95D01*
X0Y94D02*
X3Y94D01*
X731Y94D02*
X737Y94D01*
X0Y93D02*
X3Y93D01*
X732Y93D02*
X738Y93D01*
X0Y92D02*
X3Y92D01*
X733Y92D02*
X739Y92D01*
X0Y91D02*
X3Y91D01*
X734Y91D02*
X740Y91D01*
X0Y90D02*
X3Y90D01*
X735Y90D02*
X741Y90D01*
X0Y89D02*
X3Y89D01*
X736Y89D02*
X740Y89D01*
X0Y88D02*
X3Y88D01*
X737Y88D02*
X739Y88D01*
X0Y87D02*
X3Y87D01*
X0Y86D02*
X3Y86D01*
X0Y85D02*
X3Y85D01*
X0Y84D02*
X3Y84D01*
X0Y83D02*
X3Y83D01*
X0Y82D02*
X3Y82D01*
X0Y81D02*
X3Y81D01*
X0Y80D02*
X3Y80D01*
X0Y79D02*
X3Y79D01*
X0Y78D02*
X3Y78D01*
X0Y77D02*
X3Y77D01*
X0Y76D02*
X3Y76D01*
X0Y75D02*
X3Y75D01*
X0Y74D02*
X3Y74D01*
X0Y73D02*
X3Y73D01*
X0Y72D02*
X3Y72D01*
X0Y71D02*
X3Y71D01*
X0Y70D02*
X3Y70D01*
X0Y69D02*
X3Y69D01*
X0Y68D02*
X3Y68D01*
X0Y67D02*
X3Y67D01*
X0Y66D02*
X3Y66D01*
X0Y65D02*
X3Y65D01*
X0Y64D02*
X3Y64D01*
X0Y63D02*
X3Y63D01*
X0Y62D02*
X3Y62D01*
X0Y61D02*
X3Y61D01*
X0Y60D02*
X3Y60D01*
X0Y59D02*
X3Y59D01*
X0Y58D02*
X3Y58D01*
X0Y57D02*
X3Y57D01*
X0Y56D02*
X3Y56D01*
X0Y55D02*
X3Y55D01*
X0Y54D02*
X3Y54D01*
X0Y53D02*
X3Y53D01*
X0Y52D02*
X3Y52D01*
X0Y51D02*
X3Y51D01*
X0Y50D02*
X3Y50D01*
X0Y49D02*
X3Y49D01*
X0Y48D02*
X3Y48D01*
X0Y47D02*
X3Y47D01*
X0Y46D02*
X3Y46D01*
X0Y45D02*
X3Y45D01*
X0Y44D02*
X3Y44D01*
X0Y43D02*
X3Y43D01*
X0Y42D02*
X3Y42D01*
X0Y41D02*
X3Y41D01*
X0Y40D02*
X3Y40D01*
X0Y39D02*
X3Y39D01*
X0Y38D02*
X3Y38D01*
X0Y37D02*
X3Y37D01*
X0Y36D02*
X3Y36D01*
X0Y35D02*
X3Y35D01*
X0Y34D02*
X3Y34D01*
X0Y33D02*
X3Y33D01*
X0Y32D02*
X3Y32D01*
X0Y31D02*
X3Y31D01*
X0Y30D02*
X3Y30D01*
X0Y29D02*
X3Y29D01*
X0Y28D02*
X3Y28D01*
X0Y27D02*
X3Y27D01*
X0Y26D02*
X3Y26D01*
X0Y25D02*
X3Y25D01*
X0Y24D02*
X3Y24D01*
X0Y23D02*
X3Y23D01*
X0Y22D02*
X3Y22D01*
X0Y21D02*
X3Y21D01*
X0Y20D02*
X3Y20D01*
X0Y19D02*
X3Y19D01*
X0Y18D02*
X3Y18D01*
X0Y17D02*
X3Y17D01*
X0Y16D02*
X3Y16D01*
X0Y15D02*
X3Y15D01*
X0Y14D02*
X3Y14D01*
X0Y13D02*
X3Y13D01*
X0Y12D02*
X3Y12D01*
X0Y11D02*
X3Y11D01*
X0Y10D02*
X3Y10D01*
X0Y9D02*
X3Y9D01*
X0Y8D02*
X3Y8D01*
X0Y7D02*
X3Y7D01*
X0Y6D02*
X3Y6D01*
X0Y5D02*
X3Y5D01*
D02*
G04 End of Silk1*
M02*