; NON-PLATED HOLES START AT T1
; THROUGH (PLATED) HOLES START AT T100
M48
INCH
T100C0.023622
T101C0.038000
T102C0.035000
T103C0.019881
%
T100
X005037Y009730
X007006Y009730
X006021Y009730
T101
X007904Y007730
X008904Y007730
X002904Y007730
X003904Y007730
X004904Y000730
X005904Y000730
X006904Y000730
X004904Y007730
X005904Y007730
X006904Y007730
T102
X007904Y000730
X003904Y004730
X007904Y005730
X003904Y000730
X003904Y005730
X007904Y004730
T103
X000920Y005003
X010888Y006775
T00
M30
