G04 MADE WITH FRITZING*
G04 WWW.FRITZING.ORG*
G04 DOUBLE SIDED*
G04 HOLES PLATED*
G04 CONTOUR ON CENTER OF CONTOUR VECTOR*
%ASAXBY*%
%FSLAX23Y23*%
%MOIN*%
%OFA0B0*%
%SFA1.0B1.0*%
%ADD10C,0.062992*%
%ADD11C,0.078000*%
%ADD12C,0.059055*%
%ADD13C,0.075000*%
%ADD14C,0.024000*%
%ADD15R,0.001000X0.001000*%
%LNCOPPER0*%
G90*
G70*
G54D10*
X504Y973D03*
X701Y973D03*
X602Y973D03*
G54D11*
X690Y73D03*
X590Y73D03*
X490Y73D03*
G54D12*
X92Y500D03*
X1089Y678D03*
G54D13*
X390Y573D03*
X790Y573D03*
G54D11*
X890Y773D03*
X790Y773D03*
X690Y773D03*
X590Y773D03*
X490Y773D03*
X390Y773D03*
X290Y773D03*
G54D13*
X390Y473D03*
X390Y73D03*
X790Y473D03*
X790Y73D03*
G54D14*
X390Y973D02*
X481Y973D01*
D02*
X390Y803D02*
X390Y973D01*
D02*
X190Y273D02*
X490Y273D01*
D02*
X190Y412D02*
X190Y273D01*
D02*
X690Y273D02*
X690Y103D01*
D02*
X490Y273D02*
X690Y273D01*
D02*
X990Y273D02*
X990Y412D01*
D02*
X690Y273D02*
X990Y273D01*
D02*
X690Y273D02*
X690Y743D01*
D02*
X490Y873D02*
X490Y803D01*
D02*
X590Y873D02*
X490Y873D01*
D02*
X579Y973D02*
X590Y973D01*
D02*
X590Y973D02*
X590Y873D01*
G54D15*
X185Y762D02*
X195Y762D01*
X984Y762D02*
X995Y762D01*
X181Y761D02*
X199Y761D01*
X980Y761D02*
X999Y761D01*
X178Y760D02*
X202Y760D01*
X978Y760D02*
X1002Y760D01*
X175Y759D02*
X204Y759D01*
X975Y759D02*
X1004Y759D01*
X173Y758D02*
X206Y758D01*
X973Y758D02*
X1006Y758D01*
X172Y757D02*
X208Y757D01*
X972Y757D02*
X1008Y757D01*
X170Y756D02*
X210Y756D01*
X970Y756D02*
X1010Y756D01*
X169Y755D02*
X211Y755D01*
X969Y755D02*
X1011Y755D01*
X167Y754D02*
X212Y754D01*
X967Y754D02*
X1012Y754D01*
X166Y753D02*
X214Y753D01*
X966Y753D02*
X1014Y753D01*
X165Y752D02*
X215Y752D01*
X965Y752D02*
X1015Y752D01*
X164Y751D02*
X216Y751D01*
X964Y751D02*
X1015Y751D01*
X163Y750D02*
X216Y750D01*
X963Y750D02*
X1016Y750D01*
X163Y749D02*
X217Y749D01*
X963Y749D02*
X1017Y749D01*
X162Y748D02*
X218Y748D01*
X962Y748D02*
X1018Y748D01*
X161Y747D02*
X219Y747D01*
X961Y747D02*
X1019Y747D01*
X161Y746D02*
X219Y746D01*
X961Y746D02*
X1019Y746D01*
X160Y745D02*
X220Y745D01*
X960Y745D02*
X1020Y745D01*
X159Y744D02*
X220Y744D01*
X959Y744D02*
X1020Y744D01*
X159Y743D02*
X221Y743D01*
X959Y743D02*
X1021Y743D01*
X158Y742D02*
X184Y742D01*
X196Y742D02*
X221Y742D01*
X958Y742D02*
X984Y742D01*
X996Y742D02*
X1021Y742D01*
X158Y741D02*
X182Y741D01*
X198Y741D02*
X222Y741D01*
X958Y741D02*
X982Y741D01*
X998Y741D02*
X1022Y741D01*
X158Y740D02*
X180Y740D01*
X200Y740D02*
X222Y740D01*
X958Y740D02*
X980Y740D01*
X1000Y740D02*
X1022Y740D01*
X157Y739D02*
X179Y739D01*
X201Y739D02*
X223Y739D01*
X957Y739D02*
X979Y739D01*
X1001Y739D02*
X1023Y739D01*
X157Y738D02*
X178Y738D01*
X202Y738D02*
X223Y738D01*
X957Y738D02*
X978Y738D01*
X1002Y738D02*
X1023Y738D01*
X157Y737D02*
X177Y737D01*
X203Y737D02*
X223Y737D01*
X956Y737D02*
X977Y737D01*
X1003Y737D02*
X1023Y737D01*
X156Y736D02*
X176Y736D01*
X203Y736D02*
X224Y736D01*
X956Y736D02*
X976Y736D01*
X1003Y736D02*
X1023Y736D01*
X156Y735D02*
X176Y735D01*
X204Y735D02*
X224Y735D01*
X956Y735D02*
X976Y735D01*
X1004Y735D02*
X1024Y735D01*
X156Y734D02*
X175Y734D01*
X205Y734D02*
X224Y734D01*
X956Y734D02*
X975Y734D01*
X1005Y734D02*
X1024Y734D01*
X156Y733D02*
X175Y733D01*
X205Y733D02*
X224Y733D01*
X956Y733D02*
X975Y733D01*
X1005Y733D02*
X1024Y733D01*
X155Y732D02*
X174Y732D01*
X205Y732D02*
X224Y732D01*
X955Y732D02*
X974Y732D01*
X1005Y732D02*
X1024Y732D01*
X155Y731D02*
X174Y731D01*
X206Y731D02*
X225Y731D01*
X955Y731D02*
X974Y731D01*
X1006Y731D02*
X1025Y731D01*
X155Y730D02*
X174Y730D01*
X206Y730D02*
X225Y730D01*
X955Y730D02*
X974Y730D01*
X1006Y730D02*
X1025Y730D01*
X155Y729D02*
X174Y729D01*
X206Y729D02*
X225Y729D01*
X955Y729D02*
X974Y729D01*
X1006Y729D02*
X1025Y729D01*
X155Y728D02*
X174Y728D01*
X206Y728D02*
X225Y728D01*
X955Y728D02*
X974Y728D01*
X1006Y728D02*
X1025Y728D01*
X155Y727D02*
X174Y727D01*
X206Y727D02*
X225Y727D01*
X955Y727D02*
X974Y727D01*
X1006Y727D02*
X1025Y727D01*
X155Y726D02*
X174Y726D01*
X206Y726D02*
X225Y726D01*
X955Y726D02*
X974Y726D01*
X1006Y726D02*
X1025Y726D01*
X155Y725D02*
X174Y725D01*
X206Y725D02*
X225Y725D01*
X955Y725D02*
X974Y725D01*
X1006Y725D02*
X1025Y725D01*
X155Y724D02*
X174Y724D01*
X206Y724D02*
X225Y724D01*
X955Y724D02*
X974Y724D01*
X1006Y724D02*
X1025Y724D01*
X155Y723D02*
X174Y723D01*
X206Y723D02*
X225Y723D01*
X955Y723D02*
X974Y723D01*
X1006Y723D02*
X1024Y723D01*
X155Y722D02*
X174Y722D01*
X205Y722D02*
X224Y722D01*
X955Y722D02*
X974Y722D01*
X1005Y722D02*
X1024Y722D01*
X156Y721D02*
X175Y721D01*
X205Y721D02*
X224Y721D01*
X956Y721D02*
X975Y721D01*
X1005Y721D02*
X1024Y721D01*
X156Y720D02*
X175Y720D01*
X205Y720D02*
X224Y720D01*
X956Y720D02*
X975Y720D01*
X1004Y720D02*
X1024Y720D01*
X156Y719D02*
X176Y719D01*
X204Y719D02*
X224Y719D01*
X956Y719D02*
X976Y719D01*
X1004Y719D02*
X1024Y719D01*
X156Y718D02*
X177Y718D01*
X203Y718D02*
X223Y718D01*
X956Y718D02*
X977Y718D01*
X1003Y718D02*
X1023Y718D01*
X157Y717D02*
X177Y717D01*
X202Y717D02*
X223Y717D01*
X957Y717D02*
X977Y717D01*
X1002Y717D02*
X1023Y717D01*
X157Y716D02*
X178Y716D01*
X201Y716D02*
X223Y716D01*
X957Y716D02*
X978Y716D01*
X1001Y716D02*
X1023Y716D01*
X157Y715D02*
X179Y715D01*
X200Y715D02*
X222Y715D01*
X957Y715D02*
X979Y715D01*
X1000Y715D02*
X1022Y715D01*
X158Y714D02*
X181Y714D01*
X199Y714D02*
X222Y714D01*
X958Y714D02*
X981Y714D01*
X999Y714D02*
X1022Y714D01*
X158Y713D02*
X182Y713D01*
X198Y713D02*
X222Y713D01*
X958Y713D02*
X982Y713D01*
X997Y713D02*
X1022Y713D01*
X159Y712D02*
X185Y712D01*
X195Y712D02*
X221Y712D01*
X959Y712D02*
X985Y712D01*
X995Y712D02*
X1021Y712D01*
X159Y711D02*
X221Y711D01*
X959Y711D02*
X1021Y711D01*
X160Y710D02*
X220Y710D01*
X960Y710D02*
X1020Y710D01*
X160Y709D02*
X220Y709D01*
X960Y709D02*
X1020Y709D01*
X161Y708D02*
X219Y708D01*
X961Y708D02*
X1019Y708D01*
X87Y707D02*
X96Y707D01*
X161Y707D02*
X218Y707D01*
X961Y707D02*
X1018Y707D01*
X83Y706D02*
X100Y706D01*
X162Y706D02*
X218Y706D01*
X962Y706D02*
X1018Y706D01*
X81Y705D02*
X102Y705D01*
X163Y705D02*
X217Y705D01*
X963Y705D02*
X1017Y705D01*
X79Y704D02*
X104Y704D01*
X164Y704D02*
X216Y704D01*
X964Y704D02*
X1016Y704D01*
X77Y703D02*
X106Y703D01*
X165Y703D02*
X215Y703D01*
X965Y703D02*
X1015Y703D01*
X75Y702D02*
X108Y702D01*
X165Y702D02*
X214Y702D01*
X965Y702D02*
X1014Y702D01*
X74Y701D02*
X109Y701D01*
X167Y701D02*
X213Y701D01*
X967Y701D02*
X1013Y701D01*
X72Y700D02*
X111Y700D01*
X168Y700D02*
X212Y700D01*
X968Y700D02*
X1012Y700D01*
X71Y699D02*
X112Y699D01*
X169Y699D02*
X211Y699D01*
X969Y699D02*
X1011Y699D01*
X70Y698D02*
X113Y698D01*
X170Y698D02*
X209Y698D01*
X970Y698D02*
X1009Y698D01*
X70Y697D02*
X113Y697D01*
X172Y697D02*
X208Y697D01*
X972Y697D02*
X1008Y697D01*
X69Y696D02*
X114Y696D01*
X174Y696D02*
X206Y696D01*
X974Y696D02*
X1006Y696D01*
X68Y695D02*
X115Y695D01*
X176Y695D02*
X204Y695D01*
X976Y695D02*
X1004Y695D01*
X67Y694D02*
X116Y694D01*
X179Y694D02*
X201Y694D01*
X979Y694D02*
X1001Y694D01*
X67Y693D02*
X116Y693D01*
X182Y693D02*
X198Y693D01*
X982Y693D02*
X998Y693D01*
X66Y692D02*
X117Y692D01*
X186Y692D02*
X193Y692D01*
X987Y692D02*
X993Y692D01*
X66Y691D02*
X117Y691D01*
X65Y690D02*
X118Y690D01*
X65Y689D02*
X118Y689D01*
X64Y688D02*
X119Y688D01*
X64Y687D02*
X87Y687D01*
X96Y687D02*
X119Y687D01*
X64Y686D02*
X85Y686D01*
X98Y686D02*
X119Y686D01*
X63Y685D02*
X84Y685D01*
X99Y685D02*
X119Y685D01*
X63Y684D02*
X83Y684D01*
X100Y684D02*
X120Y684D01*
X63Y683D02*
X82Y683D01*
X101Y683D02*
X120Y683D01*
X63Y682D02*
X82Y682D01*
X101Y682D02*
X120Y682D01*
X63Y681D02*
X81Y681D01*
X102Y681D02*
X120Y681D01*
X63Y680D02*
X81Y680D01*
X102Y680D02*
X120Y680D01*
X63Y679D02*
X81Y679D01*
X102Y679D02*
X120Y679D01*
X62Y678D02*
X81Y678D01*
X102Y678D02*
X121Y678D01*
X63Y677D02*
X81Y677D01*
X102Y677D02*
X120Y677D01*
X63Y676D02*
X81Y676D01*
X102Y676D02*
X120Y676D01*
X63Y675D02*
X81Y675D01*
X102Y675D02*
X120Y675D01*
X63Y674D02*
X82Y674D01*
X101Y674D02*
X120Y674D01*
X63Y673D02*
X82Y673D01*
X101Y673D02*
X120Y673D01*
X63Y672D02*
X83Y672D01*
X100Y672D02*
X120Y672D01*
X63Y671D02*
X84Y671D01*
X99Y671D02*
X120Y671D01*
X64Y670D02*
X85Y670D01*
X98Y670D02*
X119Y670D01*
X64Y669D02*
X86Y669D01*
X97Y669D02*
X119Y669D01*
X64Y668D02*
X119Y668D01*
X65Y667D02*
X118Y667D01*
X65Y666D02*
X118Y666D01*
X66Y665D02*
X117Y665D01*
X66Y664D02*
X117Y664D01*
X67Y663D02*
X116Y663D01*
X67Y662D02*
X116Y662D01*
X68Y661D02*
X115Y661D01*
X69Y660D02*
X114Y660D01*
X69Y659D02*
X114Y659D01*
X70Y658D02*
X113Y658D01*
X71Y657D02*
X112Y657D01*
X72Y656D02*
X111Y656D01*
X73Y655D02*
X109Y655D01*
X75Y654D02*
X108Y654D01*
X76Y653D02*
X107Y653D01*
X78Y652D02*
X105Y652D01*
X80Y651D02*
X103Y651D01*
X83Y650D02*
X100Y650D01*
X87Y649D02*
X96Y649D01*
X1085Y530D02*
X1092Y530D01*
X1081Y529D02*
X1096Y529D01*
X1078Y528D02*
X1099Y528D01*
X1076Y527D02*
X1101Y527D01*
X1074Y526D02*
X1103Y526D01*
X1072Y525D02*
X1105Y525D01*
X1071Y524D02*
X1106Y524D01*
X1069Y523D02*
X1107Y523D01*
X1068Y522D02*
X1108Y522D01*
X1067Y521D02*
X1109Y521D01*
X1066Y520D02*
X1110Y520D01*
X1066Y519D02*
X1111Y519D01*
X1065Y518D02*
X1112Y518D01*
X1064Y517D02*
X1112Y517D01*
X1064Y516D02*
X1113Y516D01*
X1063Y515D02*
X1113Y515D01*
X1063Y514D02*
X1114Y514D01*
X1062Y513D02*
X1114Y513D01*
X1062Y512D02*
X1115Y512D01*
X1061Y511D02*
X1115Y511D01*
X1061Y510D02*
X1084Y510D01*
X1093Y510D02*
X1116Y510D01*
X1061Y509D02*
X1082Y509D01*
X1094Y509D02*
X1116Y509D01*
X1060Y508D02*
X1081Y508D01*
X1096Y508D02*
X1116Y508D01*
X1060Y507D02*
X1080Y507D01*
X1097Y507D02*
X1117Y507D01*
X1060Y506D02*
X1079Y506D01*
X1097Y506D02*
X1117Y506D01*
X1060Y505D02*
X1079Y505D01*
X1098Y505D02*
X1117Y505D01*
X1059Y504D02*
X1078Y504D01*
X1098Y504D02*
X1117Y504D01*
X1059Y503D02*
X1078Y503D01*
X1099Y503D02*
X1117Y503D01*
X1059Y502D02*
X1078Y502D01*
X1099Y502D02*
X1117Y502D01*
X1059Y501D02*
X1078Y501D01*
X1099Y501D02*
X1117Y501D01*
X1059Y500D02*
X1078Y500D01*
X1099Y500D02*
X1117Y500D01*
X1059Y499D02*
X1078Y499D01*
X1099Y499D02*
X1117Y499D01*
X1059Y498D02*
X1078Y498D01*
X1098Y498D02*
X1117Y498D01*
X1060Y497D02*
X1078Y497D01*
X1098Y497D02*
X1117Y497D01*
X1060Y496D02*
X1079Y496D01*
X1098Y496D02*
X1117Y496D01*
X1060Y495D02*
X1080Y495D01*
X1097Y495D02*
X1117Y495D01*
X1060Y494D02*
X1081Y494D01*
X1096Y494D02*
X1116Y494D01*
X1060Y493D02*
X1082Y493D01*
X1095Y493D02*
X1116Y493D01*
X1061Y492D02*
X1083Y492D01*
X1094Y492D02*
X1116Y492D01*
X1061Y491D02*
X1086Y491D01*
X1091Y491D02*
X1115Y491D01*
X1062Y490D02*
X1115Y490D01*
X1062Y489D02*
X1115Y489D01*
X1062Y488D02*
X1114Y488D01*
X990Y487D02*
X990Y487D01*
X1063Y487D02*
X1114Y487D01*
X183Y486D02*
X197Y486D01*
X982Y486D02*
X997Y486D01*
X1063Y486D02*
X1113Y486D01*
X179Y485D02*
X201Y485D01*
X979Y485D02*
X1001Y485D01*
X1064Y485D02*
X1113Y485D01*
X177Y484D02*
X203Y484D01*
X976Y484D02*
X1003Y484D01*
X1065Y484D02*
X1112Y484D01*
X175Y483D02*
X205Y483D01*
X974Y483D02*
X1005Y483D01*
X1065Y483D02*
X1111Y483D01*
X173Y482D02*
X207Y482D01*
X972Y482D02*
X1007Y482D01*
X1066Y482D02*
X1110Y482D01*
X171Y481D02*
X209Y481D01*
X971Y481D02*
X1009Y481D01*
X1067Y481D02*
X1110Y481D01*
X169Y480D02*
X210Y480D01*
X969Y480D02*
X1010Y480D01*
X1068Y480D02*
X1109Y480D01*
X168Y479D02*
X212Y479D01*
X968Y479D02*
X1012Y479D01*
X1069Y479D02*
X1108Y479D01*
X167Y478D02*
X213Y478D01*
X967Y478D02*
X1013Y478D01*
X1070Y478D02*
X1106Y478D01*
X166Y477D02*
X214Y477D01*
X966Y477D02*
X1014Y477D01*
X1071Y477D02*
X1105Y477D01*
X165Y476D02*
X215Y476D01*
X965Y476D02*
X1015Y476D01*
X1073Y476D02*
X1103Y476D01*
X164Y475D02*
X216Y475D01*
X964Y475D02*
X1016Y475D01*
X1075Y475D02*
X1102Y475D01*
X163Y474D02*
X217Y474D01*
X963Y474D02*
X1017Y474D01*
X1077Y474D02*
X1100Y474D01*
X162Y473D02*
X217Y473D01*
X962Y473D02*
X1017Y473D01*
X1079Y473D02*
X1097Y473D01*
X162Y472D02*
X218Y472D01*
X961Y472D02*
X1018Y472D01*
X1083Y472D02*
X1094Y472D01*
X161Y471D02*
X219Y471D01*
X961Y471D02*
X1019Y471D01*
X160Y470D02*
X219Y470D01*
X960Y470D02*
X1019Y470D01*
X160Y469D02*
X220Y469D01*
X960Y469D02*
X1020Y469D01*
X159Y468D02*
X221Y468D01*
X959Y468D02*
X1021Y468D01*
X159Y467D02*
X186Y467D01*
X194Y467D02*
X221Y467D01*
X959Y467D02*
X986Y467D01*
X994Y467D02*
X1021Y467D01*
X158Y466D02*
X183Y466D01*
X197Y466D02*
X222Y466D01*
X958Y466D02*
X983Y466D01*
X997Y466D02*
X1021Y466D01*
X158Y465D02*
X181Y465D01*
X199Y465D02*
X222Y465D01*
X958Y465D02*
X981Y465D01*
X999Y465D02*
X1022Y465D01*
X157Y464D02*
X180Y464D01*
X200Y464D02*
X222Y464D01*
X957Y464D02*
X980Y464D01*
X1000Y464D02*
X1022Y464D01*
X157Y463D02*
X179Y463D01*
X201Y463D02*
X223Y463D01*
X957Y463D02*
X979Y463D01*
X1001Y463D02*
X1023Y463D01*
X157Y462D02*
X178Y462D01*
X202Y462D02*
X223Y462D01*
X957Y462D02*
X978Y462D01*
X1002Y462D02*
X1023Y462D01*
X156Y461D02*
X177Y461D01*
X203Y461D02*
X223Y461D01*
X956Y461D02*
X977Y461D01*
X1003Y461D02*
X1023Y461D01*
X156Y460D02*
X176Y460D01*
X204Y460D02*
X224Y460D01*
X956Y460D02*
X976Y460D01*
X1004Y460D02*
X1024Y460D01*
X156Y459D02*
X175Y459D01*
X204Y459D02*
X224Y459D01*
X956Y459D02*
X975Y459D01*
X1004Y459D02*
X1024Y459D01*
X156Y458D02*
X175Y458D01*
X205Y458D02*
X224Y458D01*
X956Y458D02*
X975Y458D01*
X1005Y458D02*
X1024Y458D01*
X156Y457D02*
X175Y457D01*
X205Y457D02*
X224Y457D01*
X955Y457D02*
X974Y457D01*
X1005Y457D02*
X1024Y457D01*
X155Y456D02*
X174Y456D01*
X206Y456D02*
X224Y456D01*
X955Y456D02*
X974Y456D01*
X1006Y456D02*
X1024Y456D01*
X155Y455D02*
X174Y455D01*
X206Y455D02*
X225Y455D01*
X955Y455D02*
X974Y455D01*
X1006Y455D02*
X1025Y455D01*
X155Y454D02*
X174Y454D01*
X206Y454D02*
X225Y454D01*
X955Y454D02*
X974Y454D01*
X1006Y454D02*
X1025Y454D01*
X155Y453D02*
X174Y453D01*
X206Y453D02*
X225Y453D01*
X955Y453D02*
X974Y453D01*
X1006Y453D02*
X1025Y453D01*
X155Y452D02*
X174Y452D01*
X206Y452D02*
X225Y452D01*
X955Y452D02*
X974Y452D01*
X1006Y452D02*
X1025Y452D01*
X155Y451D02*
X174Y451D01*
X206Y451D02*
X225Y451D01*
X955Y451D02*
X974Y451D01*
X1006Y451D02*
X1025Y451D01*
X155Y450D02*
X174Y450D01*
X206Y450D02*
X225Y450D01*
X955Y450D02*
X974Y450D01*
X1006Y450D02*
X1025Y450D01*
X155Y449D02*
X174Y449D01*
X206Y449D02*
X225Y449D01*
X955Y449D02*
X974Y449D01*
X1006Y449D02*
X1025Y449D01*
X155Y448D02*
X174Y448D01*
X206Y448D02*
X225Y448D01*
X955Y448D02*
X974Y448D01*
X1006Y448D02*
X1025Y448D01*
X155Y447D02*
X174Y447D01*
X206Y447D02*
X224Y447D01*
X955Y447D02*
X974Y447D01*
X1005Y447D02*
X1024Y447D01*
X156Y446D02*
X175Y446D01*
X205Y446D02*
X224Y446D01*
X955Y446D02*
X974Y446D01*
X1005Y446D02*
X1024Y446D01*
X156Y445D02*
X175Y445D01*
X205Y445D02*
X224Y445D01*
X956Y445D02*
X975Y445D01*
X1005Y445D02*
X1024Y445D01*
X156Y444D02*
X176Y444D01*
X204Y444D02*
X224Y444D01*
X956Y444D02*
X975Y444D01*
X1004Y444D02*
X1024Y444D01*
X156Y443D02*
X176Y443D01*
X204Y443D02*
X224Y443D01*
X956Y443D02*
X976Y443D01*
X1004Y443D02*
X1024Y443D01*
X156Y442D02*
X177Y442D01*
X203Y442D02*
X223Y442D01*
X956Y442D02*
X977Y442D01*
X1003Y442D02*
X1023Y442D01*
X157Y441D02*
X178Y441D01*
X202Y441D02*
X223Y441D01*
X957Y441D02*
X978Y441D01*
X1002Y441D02*
X1023Y441D01*
X157Y440D02*
X179Y440D01*
X201Y440D02*
X223Y440D01*
X957Y440D02*
X979Y440D01*
X1001Y440D02*
X1023Y440D01*
X158Y439D02*
X180Y439D01*
X200Y439D02*
X222Y439D01*
X957Y439D02*
X980Y439D01*
X1000Y439D02*
X1022Y439D01*
X158Y438D02*
X181Y438D01*
X199Y438D02*
X222Y438D01*
X958Y438D02*
X981Y438D01*
X998Y438D02*
X1022Y438D01*
X158Y437D02*
X183Y437D01*
X197Y437D02*
X221Y437D01*
X958Y437D02*
X983Y437D01*
X997Y437D02*
X1021Y437D01*
X159Y436D02*
X187Y436D01*
X192Y436D02*
X221Y436D01*
X959Y436D02*
X988Y436D01*
X992Y436D02*
X1021Y436D01*
X159Y435D02*
X221Y435D01*
X959Y435D02*
X1020Y435D01*
X160Y434D02*
X220Y434D01*
X960Y434D02*
X1020Y434D01*
X160Y433D02*
X219Y433D01*
X960Y433D02*
X1019Y433D01*
X161Y432D02*
X219Y432D01*
X961Y432D02*
X1019Y432D01*
X162Y431D02*
X218Y431D01*
X962Y431D02*
X1018Y431D01*
X162Y430D02*
X217Y430D01*
X962Y430D02*
X1017Y430D01*
X163Y429D02*
X217Y429D01*
X963Y429D02*
X1017Y429D01*
X164Y428D02*
X216Y428D01*
X964Y428D02*
X1016Y428D01*
X165Y427D02*
X215Y427D01*
X965Y427D02*
X1015Y427D01*
X166Y426D02*
X214Y426D01*
X966Y426D02*
X1014Y426D01*
X167Y425D02*
X213Y425D01*
X967Y425D02*
X1013Y425D01*
X168Y424D02*
X212Y424D01*
X968Y424D02*
X1011Y424D01*
X170Y423D02*
X210Y423D01*
X970Y423D02*
X1010Y423D01*
X171Y422D02*
X209Y422D01*
X971Y422D02*
X1009Y422D01*
X173Y421D02*
X207Y421D01*
X973Y421D02*
X1007Y421D01*
X175Y420D02*
X205Y420D01*
X975Y420D02*
X1005Y420D01*
X177Y419D02*
X203Y419D01*
X977Y419D02*
X1003Y419D01*
X180Y418D02*
X200Y418D01*
X980Y418D02*
X1000Y418D01*
X183Y417D02*
X197Y417D01*
X983Y417D02*
X996Y417D01*
D02*
G04 End of Copper0*
M02*