%TF.GenerationSoftware,KiCad,Pcbnew,(5.1.9)-1*%
%TF.CreationDate,2021-06-14T22:58:48+01:00*%
%TF.ProjectId,bikepixel rear,62696b65-7069-4786-956c-20726561722e,v0.5*%
%TF.SameCoordinates,Original*%
%TF.FileFunction,Copper,L2,Bot*%
%TF.FilePolarity,Positive*%
%FSLAX46Y46*%
G04 Gerber Fmt 4.6, Leading zero omitted, Abs format (unit mm)*
G04 Created by KiCad (PCBNEW (5.1.9)-1) date 2021-06-14 22:58:48*
%MOMM*%
%LPD*%
G01*
G04 APERTURE LIST*
%TA.AperFunction,ComponentPad*%
%ADD10C,2.000000*%
%TD*%
%TA.AperFunction,ComponentPad*%
%ADD11C,2.100000*%
%TD*%
%TA.AperFunction,ComponentPad*%
%ADD12C,1.750000*%
%TD*%
%TA.AperFunction,ComponentPad*%
%ADD13C,1.600000*%
%TD*%
%TA.AperFunction,ComponentPad*%
%ADD14R,1.700000X1.700000*%
%TD*%
%TA.AperFunction,ComponentPad*%
%ADD15O,1.700000X1.700000*%
%TD*%
%TA.AperFunction,ComponentPad*%
%ADD16O,1.600000X1.600000*%
%TD*%
%TA.AperFunction,ComponentPad*%
%ADD17C,1.524000*%
%TD*%
%TA.AperFunction,Conductor*%
%ADD18C,0.254000*%
%TD*%
G04 APERTURE END LIST*
D10*
%TO.P,H3,*%
%TO.N,*%
X179578000Y-124968000D03*
%TD*%
%TO.P,H4,*%
%TO.N,*%
X179578000Y-108966000D03*
%TD*%
%TO.P,H2,*%
%TO.N,*%
X103632000Y-124968000D03*
%TD*%
%TO.P,H1,*%
%TO.N,*%
X103632000Y-108966000D03*
%TD*%
D11*
%TO.P,SW2,*%
%TO.N,*%
X160508000Y-121716000D03*
D12*
%TO.P,SW2,1*%
%TO.N,GND*%
X159258000Y-124206000D03*
%TO.P,SW2,2*%
%TO.N,Net-(J2-Pad4)*%
X154758000Y-124206000D03*
D11*
%TO.P,SW2,*%
%TO.N,*%
X153498000Y-121716000D03*
%TD*%
D13*
%TO.P,C1,1*%
%TO.N,GND*%
X165227000Y-113284000D03*
%TO.P,C1,2*%
%TO.N,+5V*%
X165227000Y-116784000D03*
%TD*%
D14*
%TO.P,J1,1*%
%TO.N,Net-(J1-Pad1)*%
X107188000Y-109474000D03*
D15*
%TO.P,J1,2*%
%TO.N,Net-(J1-Pad2)*%
X109728000Y-109474000D03*
%TO.P,J1,3*%
%TO.N,GND*%
X112268000Y-109474000D03*
%TD*%
D14*
%TO.P,J2,1*%
%TO.N,Net-(J2-Pad1)*%
X133985000Y-109474000D03*
D15*
%TO.P,J2,2*%
%TO.N,Net-(J2-Pad2)*%
X136525000Y-109474000D03*
%TO.P,J2,3*%
%TO.N,+5V*%
X139065000Y-109474000D03*
%TO.P,J2,4*%
%TO.N,Net-(J2-Pad4)*%
X141605000Y-109474000D03*
%TO.P,J2,5*%
%TO.N,GND*%
X144145000Y-109474000D03*
%TO.P,J2,6*%
%TO.N,Net-(J2-Pad6)*%
X146685000Y-109474000D03*
%TO.P,J2,7*%
%TO.N,Net-(J2-Pad7)*%
X149225000Y-109474000D03*
%TD*%
%TO.P,J3,3*%
%TO.N,GND*%
X176022000Y-109474000D03*
%TO.P,J3,2*%
%TO.N,+5V*%
X173482000Y-109474000D03*
D14*
%TO.P,J3,1*%
%TO.N,Net-(J3-Pad1)*%
X170942000Y-109474000D03*
%TD*%
D16*
%TO.P,R1,2*%
%TO.N,Net-(J2-Pad1)*%
X129032000Y-109474000D03*
D13*
%TO.P,R1,1*%
%TO.N,GND*%
X121412000Y-109474000D03*
%TD*%
%TO.P,R2,1*%
%TO.N,Net-(J1-Pad1)*%
X121412000Y-114744500D03*
D16*
%TO.P,R2,2*%
%TO.N,Net-(J2-Pad1)*%
X129032000Y-114744500D03*
%TD*%
%TO.P,R3,2*%
%TO.N,Net-(J2-Pad2)*%
X136525000Y-114300000D03*
D13*
%TO.P,R3,1*%
%TO.N,+5V*%
X136525000Y-121920000D03*
%TD*%
%TO.P,R4,1*%
%TO.N,+5V*%
X141605000Y-121856500D03*
D16*
%TO.P,R4,2*%
%TO.N,Net-(J2-Pad4)*%
X141605000Y-114236500D03*
%TD*%
%TO.P,R5,2*%
%TO.N,Net-(J2-Pad6)*%
X146685000Y-114236500D03*
D13*
%TO.P,R5,1*%
%TO.N,+5V*%
X146685000Y-121856500D03*
%TD*%
%TO.P,R6,1*%
%TO.N,Net-(J2-Pad7)*%
X152908000Y-109474000D03*
D16*
%TO.P,R6,2*%
%TO.N,Net-(J3-Pad1)*%
X160528000Y-109474000D03*
%TD*%
D17*
%TO.P,SW0,1*%
%TO.N,Net-(SW0-Pad1)*%
X107315000Y-122682000D03*
%TO.P,SW0,2*%
%TO.N,Net-(J1-Pad2)*%
X109855000Y-122682000D03*
%TO.P,SW0,3*%
%TO.N,+5V*%
X112395000Y-122682000D03*
%TD*%
D11*
%TO.P,SW1,*%
%TO.N,*%
X122764000Y-121716000D03*
D12*
%TO.P,SW1,2*%
%TO.N,Net-(J2-Pad2)*%
X124024000Y-124206000D03*
%TO.P,SW1,1*%
%TO.N,GND*%
X128524000Y-124206000D03*
D11*
%TO.P,SW1,*%
%TO.N,*%
X129774000Y-121716000D03*
%TD*%
%TO.P,SW3,*%
%TO.N,*%
X169500000Y-121716000D03*
D12*
%TO.P,SW3,2*%
%TO.N,Net-(J2-Pad6)*%
X170760000Y-124206000D03*
%TO.P,SW3,1*%
%TO.N,GND*%
X175260000Y-124206000D03*
D11*
%TO.P,SW3,*%
%TO.N,*%
X176510000Y-121716000D03*
%TD*%
D18*
%TO.N,GND*%
X126746000Y-124206000D02*
X128524000Y-124206000D01*
X126746000Y-112077500D02*
X126746000Y-124206000D01*
X126746000Y-112077500D02*
X144145000Y-112077500D01*
X144145000Y-112077500D02*
X144145000Y-109474000D01*
X165227000Y-112077500D02*
X165227000Y-113665000D01*
X176022000Y-112077500D02*
X176022000Y-109474000D01*
X157480000Y-112077500D02*
X165227000Y-112077500D01*
X144145000Y-112077500D02*
X157480000Y-112077500D01*
X175514000Y-124206000D02*
X173926500Y-124206000D01*
X173926500Y-124206000D02*
X173926500Y-112141000D01*
X173926500Y-112141000D02*
X173990000Y-112077500D01*
X173990000Y-112077500D02*
X176022000Y-112077500D01*
X165227000Y-112077500D02*
X173990000Y-112077500D01*
X173926500Y-124206000D02*
X173926500Y-125539500D01*
X173926500Y-125539500D02*
X159258000Y-125539500D01*
X126746000Y-112077500D02*
X112280700Y-112077500D01*
X112268000Y-112064800D02*
X112268000Y-109474000D01*
X112280700Y-112077500D02*
X112268000Y-112064800D01*
X159258000Y-125539500D02*
X159258000Y-124206000D01*
%TO.N,Net-(J1-Pad2)*%
X109728000Y-122555000D02*
X109855000Y-122682000D01*
X109728000Y-109474000D02*
X109728000Y-122555000D01*
%TO.N,Net-(J2-Pad6)*%
X146685000Y-114236500D02*
X149225000Y-114236500D01*
X149225000Y-114236500D02*
X149225000Y-118745000D01*
X170760000Y-124460000D02*
X171014000Y-124206000D01*
X171014000Y-124206000D02*
X164592000Y-124206000D01*
X164592000Y-124206000D02*
X164592000Y-118808500D01*
X164528500Y-118745000D02*
X164592000Y-118808500D01*
X149225000Y-118745000D02*
X164528500Y-118745000D01*
%TO.N,Net-(J2-Pad4)*%
X154758000Y-124206000D02*
X144145000Y-124206000D01*
X144145000Y-124206000D02*
X144145000Y-114236500D01*
X144145000Y-114236500D02*
X141605000Y-114236500D01*
%TD*%
M02*
