%FSLAX45Y45*%
G04 Gerber Fmt 4.5, Leading zero omitted, Abs format (unit mm)*
G04 Created by KiCad (PCBNEW (5.1.9)-1) date 2021-06-30 13:02:03*
%MOMM*%
%LPD*%
G01*
G04 APERTURE LIST*
%TA.AperFunction,Profile*%
%ADD10C,0.050000*%
%TD*%
%ADD11C,0.200000*%
%ADD12C,0.300000*%
G04 APERTURE END LIST*
D10*
X10426700Y-8928100D02*
X10426700Y-10934700D01*
X18427700Y-8928100D02*
X10426700Y-8928100D01*
X18427700Y-10934700D02*
X18427700Y-8928100D01*
X10426700Y-10934700D02*
X18427700Y-10934700D01*
D11*
X10960100Y-10464800D02*
X11036300Y-10541000D01*
X11036300Y-10464800D02*
X10960100Y-10541000D01*
X11214100Y-10464800D02*
X11290300Y-10541000D01*
X11290300Y-10464800D02*
X11214100Y-10541000D01*
X11468100Y-10464800D02*
X11544300Y-10541000D01*
X11544300Y-10464800D02*
X11468100Y-10541000D01*
X12447900Y-9182100D02*
G75*
G03*
X12447900Y-9182100I-40000J0D01*
G01*
X12447900Y-9709150D02*
G75*
G03*
X12447900Y-9709150I-40000J0D01*
G01*
X13209900Y-9182100D02*
G75*
G03*
X13209900Y-9182100I-40000J0D01*
G01*
X13209900Y-9709150D02*
G75*
G03*
X13209900Y-9709150I-40000J0D01*
G01*
X13959200Y-9664700D02*
G75*
G03*
X13959200Y-9664700I-40000J0D01*
G01*
X13959200Y-10426700D02*
G75*
G03*
X13959200Y-10426700I-40000J0D01*
G01*
X14467200Y-9658350D02*
G75*
G03*
X14467200Y-9658350I-40000J0D01*
G01*
X14467200Y-10420350D02*
G75*
G03*
X14467200Y-10420350I-40000J0D01*
G01*
X14975200Y-9658350D02*
G75*
G03*
X14975200Y-9658350I-40000J0D01*
G01*
X14975200Y-10420350D02*
G75*
G03*
X14975200Y-10420350I-40000J0D01*
G01*
X15597500Y-9182100D02*
G75*
G03*
X15597500Y-9182100I-40000J0D01*
G01*
X16359500Y-9182100D02*
G75*
G03*
X16359500Y-9182100I-40000J0D01*
G01*
X16829400Y-9563100D02*
G75*
G03*
X16829400Y-9563100I-40000J0D01*
G01*
X16829400Y-9913100D02*
G75*
G03*
X16829400Y-9913100I-40000J0D01*
G01*
X12669100Y-10605800D02*
X12669100Y-10704800D01*
X12619600Y-10655300D02*
X12718600Y-10655300D01*
X13119100Y-10605800D02*
X13119100Y-10704800D01*
X13069600Y-10655300D02*
X13168600Y-10655300D01*
X15742500Y-10605800D02*
X15742500Y-10704800D01*
X15693000Y-10655300D02*
X15792000Y-10655300D01*
X16192500Y-10605800D02*
X16192500Y-10704800D01*
X16143000Y-10655300D02*
X16242000Y-10655300D01*
X17342700Y-10605800D02*
X17342700Y-10704800D01*
X17293200Y-10655300D02*
X17392200Y-10655300D01*
X17792700Y-10605800D02*
X17792700Y-10704800D01*
X17743200Y-10655300D02*
X17842200Y-10655300D01*
X11020856Y-9217456D02*
X11020856Y-9146744D01*
X10950144Y-9146744D01*
X10950144Y-9217456D01*
X11020856Y-9217456D01*
X11274856Y-9217456D02*
X11274856Y-9146744D01*
X11204144Y-9146744D01*
X11204144Y-9217456D01*
X11274856Y-9217456D01*
X11528856Y-9217456D02*
X11528856Y-9146744D01*
X11458144Y-9146744D01*
X11458144Y-9217456D01*
X11528856Y-9217456D01*
X13700556Y-9217456D02*
X13700556Y-9146744D01*
X13629844Y-9146744D01*
X13629844Y-9217456D01*
X13700556Y-9217456D01*
X13954556Y-9217456D02*
X13954556Y-9146744D01*
X13883844Y-9146744D01*
X13883844Y-9217456D01*
X13954556Y-9217456D01*
X14208556Y-9217456D02*
X14208556Y-9146744D01*
X14137844Y-9146744D01*
X14137844Y-9217456D01*
X14208556Y-9217456D01*
X14462556Y-9217456D02*
X14462556Y-9146744D01*
X14391844Y-9146744D01*
X14391844Y-9217456D01*
X14462556Y-9217456D01*
X14716556Y-9217456D02*
X14716556Y-9146744D01*
X14645844Y-9146744D01*
X14645844Y-9217456D01*
X14716556Y-9217456D01*
X14970556Y-9217456D02*
X14970556Y-9146744D01*
X14899844Y-9146744D01*
X14899844Y-9217456D01*
X14970556Y-9217456D01*
X15224556Y-9217456D02*
X15224556Y-9146744D01*
X15153844Y-9146744D01*
X15153844Y-9217456D01*
X15224556Y-9217456D01*
X17396256Y-9217456D02*
X17396256Y-9146744D01*
X17325544Y-9146744D01*
X17325544Y-9217456D01*
X17396256Y-9217456D01*
X17650256Y-9217456D02*
X17650256Y-9146744D01*
X17579544Y-9146744D01*
X17579544Y-9217456D01*
X17650256Y-9217456D01*
X17904256Y-9217456D02*
X17904256Y-9146744D01*
X17833544Y-9146744D01*
X17833544Y-9217456D01*
X17904256Y-9217456D01*
X10629900Y-9191300D02*
X10689900Y-9131300D01*
X10629900Y-9071300D01*
X10569900Y-9131300D01*
X10629900Y-9191300D01*
X10629900Y-10791500D02*
X10689900Y-10731500D01*
X10629900Y-10671500D01*
X10569900Y-10731500D01*
X10629900Y-10791500D01*
X18224500Y-9191300D02*
X18284500Y-9131300D01*
X18224500Y-9071300D01*
X18164500Y-9131300D01*
X18224500Y-9191300D01*
X18224500Y-10791500D02*
X18284500Y-10731500D01*
X18224500Y-10671500D01*
X18164500Y-10731500D01*
X18224500Y-10791500D01*
X12478100Y-10341300D02*
X12608100Y-10471300D01*
X12608100Y-10341300D02*
X12478100Y-10471300D01*
X12608100Y-10406300D02*
G75*
G03*
X12608100Y-10406300I-65000J0D01*
G01*
X13179100Y-10341300D02*
X13309100Y-10471300D01*
X13309100Y-10341300D02*
X13179100Y-10471300D01*
X13309100Y-10406300D02*
G75*
G03*
X13309100Y-10406300I-65000J0D01*
G01*
X15551500Y-10341300D02*
X15681500Y-10471300D01*
X15681500Y-10341300D02*
X15551500Y-10471300D01*
X15681500Y-10406300D02*
G75*
G03*
X15681500Y-10406300I-65000J0D01*
G01*
X16252500Y-10341300D02*
X16382500Y-10471300D01*
X16382500Y-10341300D02*
X16252500Y-10471300D01*
X16382500Y-10406300D02*
G75*
G03*
X16382500Y-10406300I-65000J0D01*
G01*
X17151700Y-10341300D02*
X17281700Y-10471300D01*
X17281700Y-10341300D02*
X17151700Y-10471300D01*
X17281700Y-10406300D02*
G75*
G03*
X17281700Y-10406300I-65000J0D01*
G01*
X17852700Y-10341300D02*
X17982700Y-10471300D01*
X17982700Y-10341300D02*
X17852700Y-10471300D01*
X17982700Y-10406300D02*
G75*
G03*
X17982700Y-10406300I-65000J0D01*
G01*
D12*
X10710628Y-11402914D02*
X10710628Y-11102914D01*
X10782057Y-11102914D01*
X10824914Y-11117200D01*
X10853486Y-11145772D01*
X10867771Y-11174343D01*
X10882057Y-11231486D01*
X10882057Y-11274343D01*
X10867771Y-11331486D01*
X10853486Y-11360057D01*
X10824914Y-11388629D01*
X10782057Y-11402914D01*
X10710628Y-11402914D01*
X11010628Y-11402914D02*
X11010628Y-11202914D01*
X11010628Y-11260057D02*
X11024914Y-11231486D01*
X11039200Y-11217200D01*
X11067771Y-11202914D01*
X11096343Y-11202914D01*
X11196343Y-11402914D02*
X11196343Y-11202914D01*
X11196343Y-11102914D02*
X11182057Y-11117200D01*
X11196343Y-11131486D01*
X11210628Y-11117200D01*
X11196343Y-11102914D01*
X11196343Y-11131486D01*
X11382057Y-11402914D02*
X11353486Y-11388629D01*
X11339200Y-11360057D01*
X11339200Y-11102914D01*
X11539200Y-11402914D02*
X11510628Y-11388629D01*
X11496343Y-11360057D01*
X11496343Y-11102914D01*
X11882057Y-11402914D02*
X11882057Y-11102914D01*
X11982057Y-11317200D01*
X12082057Y-11102914D01*
X12082057Y-11402914D01*
X12353486Y-11402914D02*
X12353486Y-11245771D01*
X12339200Y-11217200D01*
X12310628Y-11202914D01*
X12253486Y-11202914D01*
X12224914Y-11217200D01*
X12353486Y-11388629D02*
X12324914Y-11402914D01*
X12253486Y-11402914D01*
X12224914Y-11388629D01*
X12210628Y-11360057D01*
X12210628Y-11331486D01*
X12224914Y-11302914D01*
X12253486Y-11288629D01*
X12324914Y-11288629D01*
X12353486Y-11274343D01*
X12496343Y-11202914D02*
X12496343Y-11502914D01*
X12496343Y-11217200D02*
X12524914Y-11202914D01*
X12582057Y-11202914D01*
X12610628Y-11217200D01*
X12624914Y-11231486D01*
X12639200Y-11260057D01*
X12639200Y-11345771D01*
X12624914Y-11374343D01*
X12610628Y-11388629D01*
X12582057Y-11402914D01*
X12524914Y-11402914D01*
X12496343Y-11388629D01*
X12767771Y-11374343D02*
X12782057Y-11388629D01*
X12767771Y-11402914D01*
X12753486Y-11388629D01*
X12767771Y-11374343D01*
X12767771Y-11402914D01*
X12767771Y-11217200D02*
X12782057Y-11231486D01*
X12767771Y-11245771D01*
X12753486Y-11231486D01*
X12767771Y-11217200D01*
X12767771Y-11245771D01*
X10348000Y-11859100D02*
X10424200Y-11935300D01*
X10424200Y-11859100D02*
X10348000Y-11935300D01*
X10767771Y-11732914D02*
X10796343Y-11732914D01*
X10824914Y-11747200D01*
X10839200Y-11761486D01*
X10853486Y-11790057D01*
X10867771Y-11847200D01*
X10867771Y-11918629D01*
X10853486Y-11975771D01*
X10839200Y-12004343D01*
X10824914Y-12018629D01*
X10796343Y-12032914D01*
X10767771Y-12032914D01*
X10739200Y-12018629D01*
X10724914Y-12004343D01*
X10710628Y-11975771D01*
X10696343Y-11918629D01*
X10696343Y-11847200D01*
X10710628Y-11790057D01*
X10724914Y-11761486D01*
X10739200Y-11747200D01*
X10767771Y-11732914D01*
X10996343Y-12004343D02*
X11010628Y-12018629D01*
X10996343Y-12032914D01*
X10982057Y-12018629D01*
X10996343Y-12004343D01*
X10996343Y-12032914D01*
X11110628Y-11732914D02*
X11310628Y-11732914D01*
X11182057Y-12032914D01*
X11553486Y-11732914D02*
X11496343Y-11732914D01*
X11467771Y-11747200D01*
X11453486Y-11761486D01*
X11424914Y-11804343D01*
X11410628Y-11861486D01*
X11410628Y-11975771D01*
X11424914Y-12004343D01*
X11439200Y-12018629D01*
X11467771Y-12032914D01*
X11524914Y-12032914D01*
X11553486Y-12018629D01*
X11567771Y-12004343D01*
X11582057Y-11975771D01*
X11582057Y-11904343D01*
X11567771Y-11875771D01*
X11553486Y-11861486D01*
X11524914Y-11847200D01*
X11467771Y-11847200D01*
X11439200Y-11861486D01*
X11424914Y-11875771D01*
X11410628Y-11904343D01*
X11710628Y-12032914D02*
X11710628Y-11832914D01*
X11710628Y-11861486D02*
X11724914Y-11847200D01*
X11753486Y-11832914D01*
X11796343Y-11832914D01*
X11824914Y-11847200D01*
X11839200Y-11875771D01*
X11839200Y-12032914D01*
X11839200Y-11875771D02*
X11853486Y-11847200D01*
X11882057Y-11832914D01*
X11924914Y-11832914D01*
X11953486Y-11847200D01*
X11967771Y-11875771D01*
X11967771Y-12032914D01*
X12110628Y-12032914D02*
X12110628Y-11832914D01*
X12110628Y-11861486D02*
X12124914Y-11847200D01*
X12153486Y-11832914D01*
X12196343Y-11832914D01*
X12224914Y-11847200D01*
X12239200Y-11875771D01*
X12239200Y-12032914D01*
X12239200Y-11875771D02*
X12253486Y-11847200D01*
X12282057Y-11832914D01*
X12324914Y-11832914D01*
X12353486Y-11847200D01*
X12367771Y-11875771D01*
X12367771Y-12032914D01*
X12953486Y-11718629D02*
X12696343Y-12104343D01*
X13339200Y-11732914D02*
X13367771Y-11732914D01*
X13396343Y-11747200D01*
X13410628Y-11761486D01*
X13424914Y-11790057D01*
X13439200Y-11847200D01*
X13439200Y-11918629D01*
X13424914Y-11975771D01*
X13410628Y-12004343D01*
X13396343Y-12018629D01*
X13367771Y-12032914D01*
X13339200Y-12032914D01*
X13310628Y-12018629D01*
X13296343Y-12004343D01*
X13282057Y-11975771D01*
X13267771Y-11918629D01*
X13267771Y-11847200D01*
X13282057Y-11790057D01*
X13296343Y-11761486D01*
X13310628Y-11747200D01*
X13339200Y-11732914D01*
X13567771Y-12004343D02*
X13582057Y-12018629D01*
X13567771Y-12032914D01*
X13553486Y-12018629D01*
X13567771Y-12004343D01*
X13567771Y-12032914D01*
X13767771Y-11732914D02*
X13796343Y-11732914D01*
X13824914Y-11747200D01*
X13839200Y-11761486D01*
X13853486Y-11790057D01*
X13867771Y-11847200D01*
X13867771Y-11918629D01*
X13853486Y-11975771D01*
X13839200Y-12004343D01*
X13824914Y-12018629D01*
X13796343Y-12032914D01*
X13767771Y-12032914D01*
X13739200Y-12018629D01*
X13724914Y-12004343D01*
X13710628Y-11975771D01*
X13696343Y-11918629D01*
X13696343Y-11847200D01*
X13710628Y-11790057D01*
X13724914Y-11761486D01*
X13739200Y-11747200D01*
X13767771Y-11732914D01*
X13967771Y-11732914D02*
X14153486Y-11732914D01*
X14053486Y-11847200D01*
X14096343Y-11847200D01*
X14124914Y-11861486D01*
X14139200Y-11875771D01*
X14153486Y-11904343D01*
X14153486Y-11975771D01*
X14139200Y-12004343D01*
X14124914Y-12018629D01*
X14096343Y-12032914D01*
X14010628Y-12032914D01*
X13982057Y-12018629D01*
X13967771Y-12004343D01*
X14339200Y-11732914D02*
X14367771Y-11732914D01*
X14396343Y-11747200D01*
X14410628Y-11761486D01*
X14424914Y-11790057D01*
X14439200Y-11847200D01*
X14439200Y-11918629D01*
X14424914Y-11975771D01*
X14410628Y-12004343D01*
X14396343Y-12018629D01*
X14367771Y-12032914D01*
X14339200Y-12032914D01*
X14310628Y-12018629D01*
X14296343Y-12004343D01*
X14282057Y-11975771D01*
X14267771Y-11918629D01*
X14267771Y-11847200D01*
X14282057Y-11790057D01*
X14296343Y-11761486D01*
X14310628Y-11747200D01*
X14339200Y-11732914D01*
X14553486Y-11732914D02*
X14553486Y-11790057D01*
X14667771Y-11732914D02*
X14667771Y-11790057D01*
X15110628Y-12147200D02*
X15096343Y-12132914D01*
X15067771Y-12090057D01*
X15053486Y-12061486D01*
X15039200Y-12018629D01*
X15024914Y-11947200D01*
X15024914Y-11890057D01*
X15039200Y-11818629D01*
X15053486Y-11775771D01*
X15067771Y-11747200D01*
X15096343Y-11704343D01*
X15110628Y-11690057D01*
X15196343Y-11732914D02*
X15382057Y-11732914D01*
X15282057Y-11847200D01*
X15324914Y-11847200D01*
X15353486Y-11861486D01*
X15367771Y-11875771D01*
X15382057Y-11904343D01*
X15382057Y-11975771D01*
X15367771Y-12004343D01*
X15353486Y-12018629D01*
X15324914Y-12032914D01*
X15239200Y-12032914D01*
X15210628Y-12018629D01*
X15196343Y-12004343D01*
X15739200Y-12032914D02*
X15739200Y-11732914D01*
X15867771Y-12032914D02*
X15867771Y-11875771D01*
X15853486Y-11847200D01*
X15824914Y-11832914D01*
X15782057Y-11832914D01*
X15753486Y-11847200D01*
X15739200Y-11861486D01*
X16053486Y-12032914D02*
X16024914Y-12018629D01*
X16010628Y-12004343D01*
X15996343Y-11975771D01*
X15996343Y-11890057D01*
X16010628Y-11861486D01*
X16024914Y-11847200D01*
X16053486Y-11832914D01*
X16096343Y-11832914D01*
X16124914Y-11847200D01*
X16139200Y-11861486D01*
X16153486Y-11890057D01*
X16153486Y-11975771D01*
X16139200Y-12004343D01*
X16124914Y-12018629D01*
X16096343Y-12032914D01*
X16053486Y-12032914D01*
X16324914Y-12032914D02*
X16296343Y-12018629D01*
X16282057Y-11990057D01*
X16282057Y-11732914D01*
X16553486Y-12018629D02*
X16524914Y-12032914D01*
X16467771Y-12032914D01*
X16439200Y-12018629D01*
X16424914Y-11990057D01*
X16424914Y-11875771D01*
X16439200Y-11847200D01*
X16467771Y-11832914D01*
X16524914Y-11832914D01*
X16553486Y-11847200D01*
X16567771Y-11875771D01*
X16567771Y-11904343D01*
X16424914Y-11932914D01*
X16682057Y-12018629D02*
X16710628Y-12032914D01*
X16767771Y-12032914D01*
X16796343Y-12018629D01*
X16810628Y-11990057D01*
X16810628Y-11975771D01*
X16796343Y-11947200D01*
X16767771Y-11932914D01*
X16724914Y-11932914D01*
X16696343Y-11918629D01*
X16682057Y-11890057D01*
X16682057Y-11875771D01*
X16696343Y-11847200D01*
X16724914Y-11832914D01*
X16767771Y-11832914D01*
X16796343Y-11847200D01*
X16910628Y-12147200D02*
X16924914Y-12132914D01*
X16953486Y-12090057D01*
X16967771Y-12061486D01*
X16982057Y-12018629D01*
X16996343Y-11947200D01*
X16996343Y-11890057D01*
X16982057Y-11818629D01*
X16967771Y-11775771D01*
X16953486Y-11747200D01*
X16924914Y-11704343D01*
X16910628Y-11690057D01*
X10424200Y-12293200D02*
G75*
G03*
X10424200Y-12293200I-40000J0D01*
G01*
X10767771Y-12128914D02*
X10796343Y-12128914D01*
X10824914Y-12143200D01*
X10839200Y-12157486D01*
X10853486Y-12186057D01*
X10867771Y-12243200D01*
X10867771Y-12314629D01*
X10853486Y-12371771D01*
X10839200Y-12400343D01*
X10824914Y-12414629D01*
X10796343Y-12428914D01*
X10767771Y-12428914D01*
X10739200Y-12414629D01*
X10724914Y-12400343D01*
X10710628Y-12371771D01*
X10696343Y-12314629D01*
X10696343Y-12243200D01*
X10710628Y-12186057D01*
X10724914Y-12157486D01*
X10739200Y-12143200D01*
X10767771Y-12128914D01*
X10996343Y-12400343D02*
X11010628Y-12414629D01*
X10996343Y-12428914D01*
X10982057Y-12414629D01*
X10996343Y-12400343D01*
X10996343Y-12428914D01*
X11182057Y-12257486D02*
X11153486Y-12243200D01*
X11139200Y-12228914D01*
X11124914Y-12200343D01*
X11124914Y-12186057D01*
X11139200Y-12157486D01*
X11153486Y-12143200D01*
X11182057Y-12128914D01*
X11239200Y-12128914D01*
X11267771Y-12143200D01*
X11282057Y-12157486D01*
X11296343Y-12186057D01*
X11296343Y-12200343D01*
X11282057Y-12228914D01*
X11267771Y-12243200D01*
X11239200Y-12257486D01*
X11182057Y-12257486D01*
X11153486Y-12271771D01*
X11139200Y-12286057D01*
X11124914Y-12314629D01*
X11124914Y-12371771D01*
X11139200Y-12400343D01*
X11153486Y-12414629D01*
X11182057Y-12428914D01*
X11239200Y-12428914D01*
X11267771Y-12414629D01*
X11282057Y-12400343D01*
X11296343Y-12371771D01*
X11296343Y-12314629D01*
X11282057Y-12286057D01*
X11267771Y-12271771D01*
X11239200Y-12257486D01*
X11482057Y-12128914D02*
X11510628Y-12128914D01*
X11539200Y-12143200D01*
X11553486Y-12157486D01*
X11567771Y-12186057D01*
X11582057Y-12243200D01*
X11582057Y-12314629D01*
X11567771Y-12371771D01*
X11553486Y-12400343D01*
X11539200Y-12414629D01*
X11510628Y-12428914D01*
X11482057Y-12428914D01*
X11453486Y-12414629D01*
X11439200Y-12400343D01*
X11424914Y-12371771D01*
X11410628Y-12314629D01*
X11410628Y-12243200D01*
X11424914Y-12186057D01*
X11439200Y-12157486D01*
X11453486Y-12143200D01*
X11482057Y-12128914D01*
X11710628Y-12428914D02*
X11710628Y-12228914D01*
X11710628Y-12257486D02*
X11724914Y-12243200D01*
X11753486Y-12228914D01*
X11796343Y-12228914D01*
X11824914Y-12243200D01*
X11839200Y-12271771D01*
X11839200Y-12428914D01*
X11839200Y-12271771D02*
X11853486Y-12243200D01*
X11882057Y-12228914D01*
X11924914Y-12228914D01*
X11953486Y-12243200D01*
X11967771Y-12271771D01*
X11967771Y-12428914D01*
X12110628Y-12428914D02*
X12110628Y-12228914D01*
X12110628Y-12257486D02*
X12124914Y-12243200D01*
X12153486Y-12228914D01*
X12196343Y-12228914D01*
X12224914Y-12243200D01*
X12239200Y-12271771D01*
X12239200Y-12428914D01*
X12239200Y-12271771D02*
X12253486Y-12243200D01*
X12282057Y-12228914D01*
X12324914Y-12228914D01*
X12353486Y-12243200D01*
X12367771Y-12271771D01*
X12367771Y-12428914D01*
X12953486Y-12114629D02*
X12696343Y-12500343D01*
X13339200Y-12128914D02*
X13367771Y-12128914D01*
X13396343Y-12143200D01*
X13410628Y-12157486D01*
X13424914Y-12186057D01*
X13439200Y-12243200D01*
X13439200Y-12314629D01*
X13424914Y-12371771D01*
X13410628Y-12400343D01*
X13396343Y-12414629D01*
X13367771Y-12428914D01*
X13339200Y-12428914D01*
X13310628Y-12414629D01*
X13296343Y-12400343D01*
X13282057Y-12371771D01*
X13267771Y-12314629D01*
X13267771Y-12243200D01*
X13282057Y-12186057D01*
X13296343Y-12157486D01*
X13310628Y-12143200D01*
X13339200Y-12128914D01*
X13567771Y-12400343D02*
X13582057Y-12414629D01*
X13567771Y-12428914D01*
X13553486Y-12414629D01*
X13567771Y-12400343D01*
X13567771Y-12428914D01*
X13767771Y-12128914D02*
X13796343Y-12128914D01*
X13824914Y-12143200D01*
X13839200Y-12157486D01*
X13853486Y-12186057D01*
X13867771Y-12243200D01*
X13867771Y-12314629D01*
X13853486Y-12371771D01*
X13839200Y-12400343D01*
X13824914Y-12414629D01*
X13796343Y-12428914D01*
X13767771Y-12428914D01*
X13739200Y-12414629D01*
X13724914Y-12400343D01*
X13710628Y-12371771D01*
X13696343Y-12314629D01*
X13696343Y-12243200D01*
X13710628Y-12186057D01*
X13724914Y-12157486D01*
X13739200Y-12143200D01*
X13767771Y-12128914D01*
X13967771Y-12128914D02*
X14153486Y-12128914D01*
X14053486Y-12243200D01*
X14096343Y-12243200D01*
X14124914Y-12257486D01*
X14139200Y-12271771D01*
X14153486Y-12300343D01*
X14153486Y-12371771D01*
X14139200Y-12400343D01*
X14124914Y-12414629D01*
X14096343Y-12428914D01*
X14010628Y-12428914D01*
X13982057Y-12414629D01*
X13967771Y-12400343D01*
X14439200Y-12428914D02*
X14267771Y-12428914D01*
X14353486Y-12428914D02*
X14353486Y-12128914D01*
X14324914Y-12171771D01*
X14296343Y-12200343D01*
X14267771Y-12214629D01*
X14553486Y-12128914D02*
X14553486Y-12186057D01*
X14667771Y-12128914D02*
X14667771Y-12186057D01*
X15110628Y-12543200D02*
X15096343Y-12528914D01*
X15067771Y-12486057D01*
X15053486Y-12457486D01*
X15039200Y-12414629D01*
X15024914Y-12343200D01*
X15024914Y-12286057D01*
X15039200Y-12214629D01*
X15053486Y-12171771D01*
X15067771Y-12143200D01*
X15096343Y-12100343D01*
X15110628Y-12086057D01*
X15382057Y-12428914D02*
X15210628Y-12428914D01*
X15296343Y-12428914D02*
X15296343Y-12128914D01*
X15267771Y-12171771D01*
X15239200Y-12200343D01*
X15210628Y-12214629D01*
X15639200Y-12228914D02*
X15639200Y-12428914D01*
X15567771Y-12114629D02*
X15496343Y-12328914D01*
X15682057Y-12328914D01*
X16024914Y-12428914D02*
X16024914Y-12128914D01*
X16153486Y-12428914D02*
X16153486Y-12271771D01*
X16139200Y-12243200D01*
X16110628Y-12228914D01*
X16067771Y-12228914D01*
X16039200Y-12243200D01*
X16024914Y-12257486D01*
X16339200Y-12428914D02*
X16310628Y-12414629D01*
X16296343Y-12400343D01*
X16282057Y-12371771D01*
X16282057Y-12286057D01*
X16296343Y-12257486D01*
X16310628Y-12243200D01*
X16339200Y-12228914D01*
X16382057Y-12228914D01*
X16410628Y-12243200D01*
X16424914Y-12257486D01*
X16439200Y-12286057D01*
X16439200Y-12371771D01*
X16424914Y-12400343D01*
X16410628Y-12414629D01*
X16382057Y-12428914D01*
X16339200Y-12428914D01*
X16610628Y-12428914D02*
X16582057Y-12414629D01*
X16567771Y-12386057D01*
X16567771Y-12128914D01*
X16839200Y-12414629D02*
X16810628Y-12428914D01*
X16753486Y-12428914D01*
X16724914Y-12414629D01*
X16710628Y-12386057D01*
X16710628Y-12271771D01*
X16724914Y-12243200D01*
X16753486Y-12228914D01*
X16810628Y-12228914D01*
X16839200Y-12243200D01*
X16853486Y-12271771D01*
X16853486Y-12300343D01*
X16710628Y-12328914D01*
X16967771Y-12414629D02*
X16996343Y-12428914D01*
X17053486Y-12428914D01*
X17082057Y-12414629D01*
X17096343Y-12386057D01*
X17096343Y-12371771D01*
X17082057Y-12343200D01*
X17053486Y-12328914D01*
X17010628Y-12328914D01*
X16982057Y-12314629D01*
X16967771Y-12286057D01*
X16967771Y-12271771D01*
X16982057Y-12243200D01*
X17010628Y-12228914D01*
X17053486Y-12228914D01*
X17082057Y-12243200D01*
X17196343Y-12543200D02*
X17210628Y-12528914D01*
X17239200Y-12486057D01*
X17253486Y-12457486D01*
X17267771Y-12414629D01*
X17282057Y-12343200D01*
X17282057Y-12286057D01*
X17267771Y-12214629D01*
X17253486Y-12171771D01*
X17239200Y-12143200D01*
X17210628Y-12100343D01*
X17196343Y-12086057D01*
X10374700Y-12639700D02*
X10374700Y-12738700D01*
X10325200Y-12689200D02*
X10424200Y-12689200D01*
X10767771Y-12524914D02*
X10796343Y-12524914D01*
X10824914Y-12539200D01*
X10839200Y-12553486D01*
X10853486Y-12582057D01*
X10867771Y-12639200D01*
X10867771Y-12710629D01*
X10853486Y-12767771D01*
X10839200Y-12796343D01*
X10824914Y-12810629D01*
X10796343Y-12824914D01*
X10767771Y-12824914D01*
X10739200Y-12810629D01*
X10724914Y-12796343D01*
X10710628Y-12767771D01*
X10696343Y-12710629D01*
X10696343Y-12639200D01*
X10710628Y-12582057D01*
X10724914Y-12553486D01*
X10739200Y-12539200D01*
X10767771Y-12524914D01*
X10996343Y-12796343D02*
X11010628Y-12810629D01*
X10996343Y-12824914D01*
X10982057Y-12810629D01*
X10996343Y-12796343D01*
X10996343Y-12824914D01*
X11153486Y-12824914D02*
X11210628Y-12824914D01*
X11239200Y-12810629D01*
X11253486Y-12796343D01*
X11282057Y-12753486D01*
X11296343Y-12696343D01*
X11296343Y-12582057D01*
X11282057Y-12553486D01*
X11267771Y-12539200D01*
X11239200Y-12524914D01*
X11182057Y-12524914D01*
X11153486Y-12539200D01*
X11139200Y-12553486D01*
X11124914Y-12582057D01*
X11124914Y-12653486D01*
X11139200Y-12682057D01*
X11153486Y-12696343D01*
X11182057Y-12710629D01*
X11239200Y-12710629D01*
X11267771Y-12696343D01*
X11282057Y-12682057D01*
X11296343Y-12653486D01*
X11439200Y-12824914D02*
X11496343Y-12824914D01*
X11524914Y-12810629D01*
X11539200Y-12796343D01*
X11567771Y-12753486D01*
X11582057Y-12696343D01*
X11582057Y-12582057D01*
X11567771Y-12553486D01*
X11553486Y-12539200D01*
X11524914Y-12524914D01*
X11467771Y-12524914D01*
X11439200Y-12539200D01*
X11424914Y-12553486D01*
X11410628Y-12582057D01*
X11410628Y-12653486D01*
X11424914Y-12682057D01*
X11439200Y-12696343D01*
X11467771Y-12710629D01*
X11524914Y-12710629D01*
X11553486Y-12696343D01*
X11567771Y-12682057D01*
X11582057Y-12653486D01*
X11710628Y-12824914D02*
X11710628Y-12624914D01*
X11710628Y-12653486D02*
X11724914Y-12639200D01*
X11753486Y-12624914D01*
X11796343Y-12624914D01*
X11824914Y-12639200D01*
X11839200Y-12667771D01*
X11839200Y-12824914D01*
X11839200Y-12667771D02*
X11853486Y-12639200D01*
X11882057Y-12624914D01*
X11924914Y-12624914D01*
X11953486Y-12639200D01*
X11967771Y-12667771D01*
X11967771Y-12824914D01*
X12110628Y-12824914D02*
X12110628Y-12624914D01*
X12110628Y-12653486D02*
X12124914Y-12639200D01*
X12153486Y-12624914D01*
X12196343Y-12624914D01*
X12224914Y-12639200D01*
X12239200Y-12667771D01*
X12239200Y-12824914D01*
X12239200Y-12667771D02*
X12253486Y-12639200D01*
X12282057Y-12624914D01*
X12324914Y-12624914D01*
X12353486Y-12639200D01*
X12367771Y-12667771D01*
X12367771Y-12824914D01*
X12953486Y-12510629D02*
X12696343Y-12896343D01*
X13339200Y-12524914D02*
X13367771Y-12524914D01*
X13396343Y-12539200D01*
X13410628Y-12553486D01*
X13424914Y-12582057D01*
X13439200Y-12639200D01*
X13439200Y-12710629D01*
X13424914Y-12767771D01*
X13410628Y-12796343D01*
X13396343Y-12810629D01*
X13367771Y-12824914D01*
X13339200Y-12824914D01*
X13310628Y-12810629D01*
X13296343Y-12796343D01*
X13282057Y-12767771D01*
X13267771Y-12710629D01*
X13267771Y-12639200D01*
X13282057Y-12582057D01*
X13296343Y-12553486D01*
X13310628Y-12539200D01*
X13339200Y-12524914D01*
X13567771Y-12796343D02*
X13582057Y-12810629D01*
X13567771Y-12824914D01*
X13553486Y-12810629D01*
X13567771Y-12796343D01*
X13567771Y-12824914D01*
X13767771Y-12524914D02*
X13796343Y-12524914D01*
X13824914Y-12539200D01*
X13839200Y-12553486D01*
X13853486Y-12582057D01*
X13867771Y-12639200D01*
X13867771Y-12710629D01*
X13853486Y-12767771D01*
X13839200Y-12796343D01*
X13824914Y-12810629D01*
X13796343Y-12824914D01*
X13767771Y-12824914D01*
X13739200Y-12810629D01*
X13724914Y-12796343D01*
X13710628Y-12767771D01*
X13696343Y-12710629D01*
X13696343Y-12639200D01*
X13710628Y-12582057D01*
X13724914Y-12553486D01*
X13739200Y-12539200D01*
X13767771Y-12524914D01*
X13967771Y-12524914D02*
X14153486Y-12524914D01*
X14053486Y-12639200D01*
X14096343Y-12639200D01*
X14124914Y-12653486D01*
X14139200Y-12667771D01*
X14153486Y-12696343D01*
X14153486Y-12767771D01*
X14139200Y-12796343D01*
X14124914Y-12810629D01*
X14096343Y-12824914D01*
X14010628Y-12824914D01*
X13982057Y-12810629D01*
X13967771Y-12796343D01*
X14296343Y-12824914D02*
X14353486Y-12824914D01*
X14382057Y-12810629D01*
X14396343Y-12796343D01*
X14424914Y-12753486D01*
X14439200Y-12696343D01*
X14439200Y-12582057D01*
X14424914Y-12553486D01*
X14410628Y-12539200D01*
X14382057Y-12524914D01*
X14324914Y-12524914D01*
X14296343Y-12539200D01*
X14282057Y-12553486D01*
X14267771Y-12582057D01*
X14267771Y-12653486D01*
X14282057Y-12682057D01*
X14296343Y-12696343D01*
X14324914Y-12710629D01*
X14382057Y-12710629D01*
X14410628Y-12696343D01*
X14424914Y-12682057D01*
X14439200Y-12653486D01*
X14553486Y-12524914D02*
X14553486Y-12582057D01*
X14667771Y-12524914D02*
X14667771Y-12582057D01*
X15110628Y-12939200D02*
X15096343Y-12924914D01*
X15067771Y-12882057D01*
X15053486Y-12853486D01*
X15039200Y-12810629D01*
X15024914Y-12739200D01*
X15024914Y-12682057D01*
X15039200Y-12610629D01*
X15053486Y-12567771D01*
X15067771Y-12539200D01*
X15096343Y-12496343D01*
X15110628Y-12482057D01*
X15353486Y-12524914D02*
X15296343Y-12524914D01*
X15267771Y-12539200D01*
X15253486Y-12553486D01*
X15224914Y-12596343D01*
X15210628Y-12653486D01*
X15210628Y-12767771D01*
X15224914Y-12796343D01*
X15239200Y-12810629D01*
X15267771Y-12824914D01*
X15324914Y-12824914D01*
X15353486Y-12810629D01*
X15367771Y-12796343D01*
X15382057Y-12767771D01*
X15382057Y-12696343D01*
X15367771Y-12667771D01*
X15353486Y-12653486D01*
X15324914Y-12639200D01*
X15267771Y-12639200D01*
X15239200Y-12653486D01*
X15224914Y-12667771D01*
X15210628Y-12696343D01*
X15739200Y-12824914D02*
X15739200Y-12524914D01*
X15867771Y-12824914D02*
X15867771Y-12667771D01*
X15853486Y-12639200D01*
X15824914Y-12624914D01*
X15782057Y-12624914D01*
X15753486Y-12639200D01*
X15739200Y-12653486D01*
X16053486Y-12824914D02*
X16024914Y-12810629D01*
X16010628Y-12796343D01*
X15996343Y-12767771D01*
X15996343Y-12682057D01*
X16010628Y-12653486D01*
X16024914Y-12639200D01*
X16053486Y-12624914D01*
X16096343Y-12624914D01*
X16124914Y-12639200D01*
X16139200Y-12653486D01*
X16153486Y-12682057D01*
X16153486Y-12767771D01*
X16139200Y-12796343D01*
X16124914Y-12810629D01*
X16096343Y-12824914D01*
X16053486Y-12824914D01*
X16324914Y-12824914D02*
X16296343Y-12810629D01*
X16282057Y-12782057D01*
X16282057Y-12524914D01*
X16553486Y-12810629D02*
X16524914Y-12824914D01*
X16467771Y-12824914D01*
X16439200Y-12810629D01*
X16424914Y-12782057D01*
X16424914Y-12667771D01*
X16439200Y-12639200D01*
X16467771Y-12624914D01*
X16524914Y-12624914D01*
X16553486Y-12639200D01*
X16567771Y-12667771D01*
X16567771Y-12696343D01*
X16424914Y-12724914D01*
X16682057Y-12810629D02*
X16710628Y-12824914D01*
X16767771Y-12824914D01*
X16796343Y-12810629D01*
X16810628Y-12782057D01*
X16810628Y-12767771D01*
X16796343Y-12739200D01*
X16767771Y-12724914D01*
X16724914Y-12724914D01*
X16696343Y-12710629D01*
X16682057Y-12682057D01*
X16682057Y-12667771D01*
X16696343Y-12639200D01*
X16724914Y-12624914D01*
X16767771Y-12624914D01*
X16796343Y-12639200D01*
X16910628Y-12939200D02*
X16924914Y-12924914D01*
X16953486Y-12882057D01*
X16967771Y-12853486D01*
X16982057Y-12810629D01*
X16996343Y-12739200D01*
X16996343Y-12682057D01*
X16982057Y-12610629D01*
X16967771Y-12567771D01*
X16953486Y-12539200D01*
X16924914Y-12496343D01*
X16910628Y-12482057D01*
X10409556Y-13120556D02*
X10409556Y-13049844D01*
X10338844Y-13049844D01*
X10338844Y-13120556D01*
X10409556Y-13120556D01*
X10867771Y-13220914D02*
X10696343Y-13220914D01*
X10782057Y-13220914D02*
X10782057Y-12920914D01*
X10753486Y-12963771D01*
X10724914Y-12992343D01*
X10696343Y-13006629D01*
X10996343Y-13192343D02*
X11010628Y-13206629D01*
X10996343Y-13220914D01*
X10982057Y-13206629D01*
X10996343Y-13192343D01*
X10996343Y-13220914D01*
X11196343Y-12920914D02*
X11224914Y-12920914D01*
X11253486Y-12935200D01*
X11267771Y-12949486D01*
X11282057Y-12978057D01*
X11296343Y-13035200D01*
X11296343Y-13106629D01*
X11282057Y-13163771D01*
X11267771Y-13192343D01*
X11253486Y-13206629D01*
X11224914Y-13220914D01*
X11196343Y-13220914D01*
X11167771Y-13206629D01*
X11153486Y-13192343D01*
X11139200Y-13163771D01*
X11124914Y-13106629D01*
X11124914Y-13035200D01*
X11139200Y-12978057D01*
X11153486Y-12949486D01*
X11167771Y-12935200D01*
X11196343Y-12920914D01*
X11482057Y-12920914D02*
X11510628Y-12920914D01*
X11539200Y-12935200D01*
X11553486Y-12949486D01*
X11567771Y-12978057D01*
X11582057Y-13035200D01*
X11582057Y-13106629D01*
X11567771Y-13163771D01*
X11553486Y-13192343D01*
X11539200Y-13206629D01*
X11510628Y-13220914D01*
X11482057Y-13220914D01*
X11453486Y-13206629D01*
X11439200Y-13192343D01*
X11424914Y-13163771D01*
X11410628Y-13106629D01*
X11410628Y-13035200D01*
X11424914Y-12978057D01*
X11439200Y-12949486D01*
X11453486Y-12935200D01*
X11482057Y-12920914D01*
X11710628Y-13220914D02*
X11710628Y-13020914D01*
X11710628Y-13049486D02*
X11724914Y-13035200D01*
X11753486Y-13020914D01*
X11796343Y-13020914D01*
X11824914Y-13035200D01*
X11839200Y-13063771D01*
X11839200Y-13220914D01*
X11839200Y-13063771D02*
X11853486Y-13035200D01*
X11882057Y-13020914D01*
X11924914Y-13020914D01*
X11953486Y-13035200D01*
X11967771Y-13063771D01*
X11967771Y-13220914D01*
X12110628Y-13220914D02*
X12110628Y-13020914D01*
X12110628Y-13049486D02*
X12124914Y-13035200D01*
X12153486Y-13020914D01*
X12196343Y-13020914D01*
X12224914Y-13035200D01*
X12239200Y-13063771D01*
X12239200Y-13220914D01*
X12239200Y-13063771D02*
X12253486Y-13035200D01*
X12282057Y-13020914D01*
X12324914Y-13020914D01*
X12353486Y-13035200D01*
X12367771Y-13063771D01*
X12367771Y-13220914D01*
X12953486Y-12906629D02*
X12696343Y-13292343D01*
X13339200Y-12920914D02*
X13367771Y-12920914D01*
X13396343Y-12935200D01*
X13410628Y-12949486D01*
X13424914Y-12978057D01*
X13439200Y-13035200D01*
X13439200Y-13106629D01*
X13424914Y-13163771D01*
X13410628Y-13192343D01*
X13396343Y-13206629D01*
X13367771Y-13220914D01*
X13339200Y-13220914D01*
X13310628Y-13206629D01*
X13296343Y-13192343D01*
X13282057Y-13163771D01*
X13267771Y-13106629D01*
X13267771Y-13035200D01*
X13282057Y-12978057D01*
X13296343Y-12949486D01*
X13310628Y-12935200D01*
X13339200Y-12920914D01*
X13567771Y-13192343D02*
X13582057Y-13206629D01*
X13567771Y-13220914D01*
X13553486Y-13206629D01*
X13567771Y-13192343D01*
X13567771Y-13220914D01*
X13767771Y-12920914D02*
X13796343Y-12920914D01*
X13824914Y-12935200D01*
X13839200Y-12949486D01*
X13853486Y-12978057D01*
X13867771Y-13035200D01*
X13867771Y-13106629D01*
X13853486Y-13163771D01*
X13839200Y-13192343D01*
X13824914Y-13206629D01*
X13796343Y-13220914D01*
X13767771Y-13220914D01*
X13739200Y-13206629D01*
X13724914Y-13192343D01*
X13710628Y-13163771D01*
X13696343Y-13106629D01*
X13696343Y-13035200D01*
X13710628Y-12978057D01*
X13724914Y-12949486D01*
X13739200Y-12935200D01*
X13767771Y-12920914D01*
X13967771Y-12920914D02*
X14153486Y-12920914D01*
X14053486Y-13035200D01*
X14096343Y-13035200D01*
X14124914Y-13049486D01*
X14139200Y-13063771D01*
X14153486Y-13092343D01*
X14153486Y-13163771D01*
X14139200Y-13192343D01*
X14124914Y-13206629D01*
X14096343Y-13220914D01*
X14010628Y-13220914D01*
X13982057Y-13206629D01*
X13967771Y-13192343D01*
X14296343Y-13220914D02*
X14353486Y-13220914D01*
X14382057Y-13206629D01*
X14396343Y-13192343D01*
X14424914Y-13149486D01*
X14439200Y-13092343D01*
X14439200Y-12978057D01*
X14424914Y-12949486D01*
X14410628Y-12935200D01*
X14382057Y-12920914D01*
X14324914Y-12920914D01*
X14296343Y-12935200D01*
X14282057Y-12949486D01*
X14267771Y-12978057D01*
X14267771Y-13049486D01*
X14282057Y-13078057D01*
X14296343Y-13092343D01*
X14324914Y-13106629D01*
X14382057Y-13106629D01*
X14410628Y-13092343D01*
X14424914Y-13078057D01*
X14439200Y-13049486D01*
X14553486Y-12920914D02*
X14553486Y-12978057D01*
X14667771Y-12920914D02*
X14667771Y-12978057D01*
X15110628Y-13335200D02*
X15096343Y-13320914D01*
X15067771Y-13278057D01*
X15053486Y-13249486D01*
X15039200Y-13206629D01*
X15024914Y-13135200D01*
X15024914Y-13078057D01*
X15039200Y-13006629D01*
X15053486Y-12963771D01*
X15067771Y-12935200D01*
X15096343Y-12892343D01*
X15110628Y-12878057D01*
X15382057Y-13220914D02*
X15210628Y-13220914D01*
X15296343Y-13220914D02*
X15296343Y-12920914D01*
X15267771Y-12963771D01*
X15239200Y-12992343D01*
X15210628Y-13006629D01*
X15482057Y-12920914D02*
X15667771Y-12920914D01*
X15567771Y-13035200D01*
X15610628Y-13035200D01*
X15639200Y-13049486D01*
X15653486Y-13063771D01*
X15667771Y-13092343D01*
X15667771Y-13163771D01*
X15653486Y-13192343D01*
X15639200Y-13206629D01*
X15610628Y-13220914D01*
X15524914Y-13220914D01*
X15496343Y-13206629D01*
X15482057Y-13192343D01*
X16024914Y-13220914D02*
X16024914Y-12920914D01*
X16153486Y-13220914D02*
X16153486Y-13063771D01*
X16139200Y-13035200D01*
X16110628Y-13020914D01*
X16067771Y-13020914D01*
X16039200Y-13035200D01*
X16024914Y-13049486D01*
X16339200Y-13220914D02*
X16310628Y-13206629D01*
X16296343Y-13192343D01*
X16282057Y-13163771D01*
X16282057Y-13078057D01*
X16296343Y-13049486D01*
X16310628Y-13035200D01*
X16339200Y-13020914D01*
X16382057Y-13020914D01*
X16410628Y-13035200D01*
X16424914Y-13049486D01*
X16439200Y-13078057D01*
X16439200Y-13163771D01*
X16424914Y-13192343D01*
X16410628Y-13206629D01*
X16382057Y-13220914D01*
X16339200Y-13220914D01*
X16610628Y-13220914D02*
X16582057Y-13206629D01*
X16567771Y-13178057D01*
X16567771Y-12920914D01*
X16839200Y-13206629D02*
X16810628Y-13220914D01*
X16753486Y-13220914D01*
X16724914Y-13206629D01*
X16710628Y-13178057D01*
X16710628Y-13063771D01*
X16724914Y-13035200D01*
X16753486Y-13020914D01*
X16810628Y-13020914D01*
X16839200Y-13035200D01*
X16853486Y-13063771D01*
X16853486Y-13092343D01*
X16710628Y-13120914D01*
X16967771Y-13206629D02*
X16996343Y-13220914D01*
X17053486Y-13220914D01*
X17082057Y-13206629D01*
X17096343Y-13178057D01*
X17096343Y-13163771D01*
X17082057Y-13135200D01*
X17053486Y-13120914D01*
X17010628Y-13120914D01*
X16982057Y-13106629D01*
X16967771Y-13078057D01*
X16967771Y-13063771D01*
X16982057Y-13035200D01*
X17010628Y-13020914D01*
X17053486Y-13020914D01*
X17082057Y-13035200D01*
X17196343Y-13335200D02*
X17210628Y-13320914D01*
X17239200Y-13278057D01*
X17253486Y-13249486D01*
X17267771Y-13206629D01*
X17282057Y-13135200D01*
X17282057Y-13078057D01*
X17267771Y-13006629D01*
X17253486Y-12963771D01*
X17239200Y-12935200D01*
X17210628Y-12892343D01*
X17196343Y-12878057D01*
X10364200Y-13541200D02*
X10424200Y-13481200D01*
X10364200Y-13421200D01*
X10304200Y-13481200D01*
X10364200Y-13541200D01*
X10867771Y-13616914D02*
X10696343Y-13616914D01*
X10782057Y-13616914D02*
X10782057Y-13316914D01*
X10753486Y-13359771D01*
X10724914Y-13388343D01*
X10696343Y-13402629D01*
X10996343Y-13588343D02*
X11010628Y-13602629D01*
X10996343Y-13616914D01*
X10982057Y-13602629D01*
X10996343Y-13588343D01*
X10996343Y-13616914D01*
X11124914Y-13345486D02*
X11139200Y-13331200D01*
X11167771Y-13316914D01*
X11239200Y-13316914D01*
X11267771Y-13331200D01*
X11282057Y-13345486D01*
X11296343Y-13374057D01*
X11296343Y-13402629D01*
X11282057Y-13445486D01*
X11110628Y-13616914D01*
X11296343Y-13616914D01*
X11482057Y-13316914D02*
X11510628Y-13316914D01*
X11539200Y-13331200D01*
X11553486Y-13345486D01*
X11567771Y-13374057D01*
X11582057Y-13431200D01*
X11582057Y-13502629D01*
X11567771Y-13559771D01*
X11553486Y-13588343D01*
X11539200Y-13602629D01*
X11510628Y-13616914D01*
X11482057Y-13616914D01*
X11453486Y-13602629D01*
X11439200Y-13588343D01*
X11424914Y-13559771D01*
X11410628Y-13502629D01*
X11410628Y-13431200D01*
X11424914Y-13374057D01*
X11439200Y-13345486D01*
X11453486Y-13331200D01*
X11482057Y-13316914D01*
X11710628Y-13616914D02*
X11710628Y-13416914D01*
X11710628Y-13445486D02*
X11724914Y-13431200D01*
X11753486Y-13416914D01*
X11796343Y-13416914D01*
X11824914Y-13431200D01*
X11839200Y-13459771D01*
X11839200Y-13616914D01*
X11839200Y-13459771D02*
X11853486Y-13431200D01*
X11882057Y-13416914D01*
X11924914Y-13416914D01*
X11953486Y-13431200D01*
X11967771Y-13459771D01*
X11967771Y-13616914D01*
X12110628Y-13616914D02*
X12110628Y-13416914D01*
X12110628Y-13445486D02*
X12124914Y-13431200D01*
X12153486Y-13416914D01*
X12196343Y-13416914D01*
X12224914Y-13431200D01*
X12239200Y-13459771D01*
X12239200Y-13616914D01*
X12239200Y-13459771D02*
X12253486Y-13431200D01*
X12282057Y-13416914D01*
X12324914Y-13416914D01*
X12353486Y-13431200D01*
X12367771Y-13459771D01*
X12367771Y-13616914D01*
X12953486Y-13302629D02*
X12696343Y-13688343D01*
X13339200Y-13316914D02*
X13367771Y-13316914D01*
X13396343Y-13331200D01*
X13410628Y-13345486D01*
X13424914Y-13374057D01*
X13439200Y-13431200D01*
X13439200Y-13502629D01*
X13424914Y-13559771D01*
X13410628Y-13588343D01*
X13396343Y-13602629D01*
X13367771Y-13616914D01*
X13339200Y-13616914D01*
X13310628Y-13602629D01*
X13296343Y-13588343D01*
X13282057Y-13559771D01*
X13267771Y-13502629D01*
X13267771Y-13431200D01*
X13282057Y-13374057D01*
X13296343Y-13345486D01*
X13310628Y-13331200D01*
X13339200Y-13316914D01*
X13567771Y-13588343D02*
X13582057Y-13602629D01*
X13567771Y-13616914D01*
X13553486Y-13602629D01*
X13567771Y-13588343D01*
X13567771Y-13616914D01*
X13767771Y-13316914D02*
X13796343Y-13316914D01*
X13824914Y-13331200D01*
X13839200Y-13345486D01*
X13853486Y-13374057D01*
X13867771Y-13431200D01*
X13867771Y-13502629D01*
X13853486Y-13559771D01*
X13839200Y-13588343D01*
X13824914Y-13602629D01*
X13796343Y-13616914D01*
X13767771Y-13616914D01*
X13739200Y-13602629D01*
X13724914Y-13588343D01*
X13710628Y-13559771D01*
X13696343Y-13502629D01*
X13696343Y-13431200D01*
X13710628Y-13374057D01*
X13724914Y-13345486D01*
X13739200Y-13331200D01*
X13767771Y-13316914D01*
X14124914Y-13416914D02*
X14124914Y-13616914D01*
X14053486Y-13302629D02*
X13982057Y-13516914D01*
X14167771Y-13516914D01*
X14253486Y-13316914D02*
X14453486Y-13316914D01*
X14324914Y-13616914D01*
X14553486Y-13316914D02*
X14553486Y-13374057D01*
X14667771Y-13316914D02*
X14667771Y-13374057D01*
X15110628Y-13731200D02*
X15096343Y-13716914D01*
X15067771Y-13674057D01*
X15053486Y-13645486D01*
X15039200Y-13602629D01*
X15024914Y-13531200D01*
X15024914Y-13474057D01*
X15039200Y-13402629D01*
X15053486Y-13359771D01*
X15067771Y-13331200D01*
X15096343Y-13288343D01*
X15110628Y-13274057D01*
X15353486Y-13416914D02*
X15353486Y-13616914D01*
X15282057Y-13302629D02*
X15210628Y-13516914D01*
X15396343Y-13516914D01*
X15739200Y-13616914D02*
X15739200Y-13316914D01*
X15867771Y-13616914D02*
X15867771Y-13459771D01*
X15853486Y-13431200D01*
X15824914Y-13416914D01*
X15782057Y-13416914D01*
X15753486Y-13431200D01*
X15739200Y-13445486D01*
X16053486Y-13616914D02*
X16024914Y-13602629D01*
X16010628Y-13588343D01*
X15996343Y-13559771D01*
X15996343Y-13474057D01*
X16010628Y-13445486D01*
X16024914Y-13431200D01*
X16053486Y-13416914D01*
X16096343Y-13416914D01*
X16124914Y-13431200D01*
X16139200Y-13445486D01*
X16153486Y-13474057D01*
X16153486Y-13559771D01*
X16139200Y-13588343D01*
X16124914Y-13602629D01*
X16096343Y-13616914D01*
X16053486Y-13616914D01*
X16324914Y-13616914D02*
X16296343Y-13602629D01*
X16282057Y-13574057D01*
X16282057Y-13316914D01*
X16553486Y-13602629D02*
X16524914Y-13616914D01*
X16467771Y-13616914D01*
X16439200Y-13602629D01*
X16424914Y-13574057D01*
X16424914Y-13459771D01*
X16439200Y-13431200D01*
X16467771Y-13416914D01*
X16524914Y-13416914D01*
X16553486Y-13431200D01*
X16567771Y-13459771D01*
X16567771Y-13488343D01*
X16424914Y-13516914D01*
X16682057Y-13602629D02*
X16710628Y-13616914D01*
X16767771Y-13616914D01*
X16796343Y-13602629D01*
X16810628Y-13574057D01*
X16810628Y-13559771D01*
X16796343Y-13531200D01*
X16767771Y-13516914D01*
X16724914Y-13516914D01*
X16696343Y-13502629D01*
X16682057Y-13474057D01*
X16682057Y-13459771D01*
X16696343Y-13431200D01*
X16724914Y-13416914D01*
X16767771Y-13416914D01*
X16796343Y-13431200D01*
X16910628Y-13731200D02*
X16924914Y-13716914D01*
X16953486Y-13674057D01*
X16967771Y-13645486D01*
X16982057Y-13602629D01*
X16996343Y-13531200D01*
X16996343Y-13474057D01*
X16982057Y-13402629D01*
X16967771Y-13359771D01*
X16953486Y-13331200D01*
X16924914Y-13288343D01*
X16910628Y-13274057D01*
X10294200Y-13812200D02*
X10424200Y-13942200D01*
X10424200Y-13812200D02*
X10294200Y-13942200D01*
X10424200Y-13877200D02*
G75*
G03*
X10424200Y-13877200I-65000J0D01*
G01*
X10867771Y-14012914D02*
X10696343Y-14012914D01*
X10782057Y-14012914D02*
X10782057Y-13712914D01*
X10753486Y-13755771D01*
X10724914Y-13784343D01*
X10696343Y-13798629D01*
X10996343Y-13984343D02*
X11010628Y-13998629D01*
X10996343Y-14012914D01*
X10982057Y-13998629D01*
X10996343Y-13984343D01*
X10996343Y-14012914D01*
X11110628Y-13712914D02*
X11296343Y-13712914D01*
X11196343Y-13827200D01*
X11239200Y-13827200D01*
X11267771Y-13841486D01*
X11282057Y-13855771D01*
X11296343Y-13884343D01*
X11296343Y-13955771D01*
X11282057Y-13984343D01*
X11267771Y-13998629D01*
X11239200Y-14012914D01*
X11153486Y-14012914D01*
X11124914Y-13998629D01*
X11110628Y-13984343D01*
X11482057Y-13712914D02*
X11510628Y-13712914D01*
X11539200Y-13727200D01*
X11553486Y-13741486D01*
X11567771Y-13770057D01*
X11582057Y-13827200D01*
X11582057Y-13898629D01*
X11567771Y-13955771D01*
X11553486Y-13984343D01*
X11539200Y-13998629D01*
X11510628Y-14012914D01*
X11482057Y-14012914D01*
X11453486Y-13998629D01*
X11439200Y-13984343D01*
X11424914Y-13955771D01*
X11410628Y-13898629D01*
X11410628Y-13827200D01*
X11424914Y-13770057D01*
X11439200Y-13741486D01*
X11453486Y-13727200D01*
X11482057Y-13712914D01*
X11710628Y-14012914D02*
X11710628Y-13812914D01*
X11710628Y-13841486D02*
X11724914Y-13827200D01*
X11753486Y-13812914D01*
X11796343Y-13812914D01*
X11824914Y-13827200D01*
X11839200Y-13855771D01*
X11839200Y-14012914D01*
X11839200Y-13855771D02*
X11853486Y-13827200D01*
X11882057Y-13812914D01*
X11924914Y-13812914D01*
X11953486Y-13827200D01*
X11967771Y-13855771D01*
X11967771Y-14012914D01*
X12110628Y-14012914D02*
X12110628Y-13812914D01*
X12110628Y-13841486D02*
X12124914Y-13827200D01*
X12153486Y-13812914D01*
X12196343Y-13812914D01*
X12224914Y-13827200D01*
X12239200Y-13855771D01*
X12239200Y-14012914D01*
X12239200Y-13855771D02*
X12253486Y-13827200D01*
X12282057Y-13812914D01*
X12324914Y-13812914D01*
X12353486Y-13827200D01*
X12367771Y-13855771D01*
X12367771Y-14012914D01*
X12953486Y-13698629D02*
X12696343Y-14084343D01*
X13339200Y-13712914D02*
X13367771Y-13712914D01*
X13396343Y-13727200D01*
X13410628Y-13741486D01*
X13424914Y-13770057D01*
X13439200Y-13827200D01*
X13439200Y-13898629D01*
X13424914Y-13955771D01*
X13410628Y-13984343D01*
X13396343Y-13998629D01*
X13367771Y-14012914D01*
X13339200Y-14012914D01*
X13310628Y-13998629D01*
X13296343Y-13984343D01*
X13282057Y-13955771D01*
X13267771Y-13898629D01*
X13267771Y-13827200D01*
X13282057Y-13770057D01*
X13296343Y-13741486D01*
X13310628Y-13727200D01*
X13339200Y-13712914D01*
X13567771Y-13984343D02*
X13582057Y-13998629D01*
X13567771Y-14012914D01*
X13553486Y-13998629D01*
X13567771Y-13984343D01*
X13567771Y-14012914D01*
X13767771Y-13712914D02*
X13796343Y-13712914D01*
X13824914Y-13727200D01*
X13839200Y-13741486D01*
X13853486Y-13770057D01*
X13867771Y-13827200D01*
X13867771Y-13898629D01*
X13853486Y-13955771D01*
X13839200Y-13984343D01*
X13824914Y-13998629D01*
X13796343Y-14012914D01*
X13767771Y-14012914D01*
X13739200Y-13998629D01*
X13724914Y-13984343D01*
X13710628Y-13955771D01*
X13696343Y-13898629D01*
X13696343Y-13827200D01*
X13710628Y-13770057D01*
X13724914Y-13741486D01*
X13739200Y-13727200D01*
X13767771Y-13712914D01*
X14139200Y-13712914D02*
X13996343Y-13712914D01*
X13982057Y-13855771D01*
X13996343Y-13841486D01*
X14024914Y-13827200D01*
X14096343Y-13827200D01*
X14124914Y-13841486D01*
X14139200Y-13855771D01*
X14153486Y-13884343D01*
X14153486Y-13955771D01*
X14139200Y-13984343D01*
X14124914Y-13998629D01*
X14096343Y-14012914D01*
X14024914Y-14012914D01*
X13996343Y-13998629D01*
X13982057Y-13984343D01*
X14439200Y-14012914D02*
X14267771Y-14012914D01*
X14353486Y-14012914D02*
X14353486Y-13712914D01*
X14324914Y-13755771D01*
X14296343Y-13784343D01*
X14267771Y-13798629D01*
X14553486Y-13712914D02*
X14553486Y-13770057D01*
X14667771Y-13712914D02*
X14667771Y-13770057D01*
X15110628Y-14127200D02*
X15096343Y-14112914D01*
X15067771Y-14070057D01*
X15053486Y-14041486D01*
X15039200Y-13998629D01*
X15024914Y-13927200D01*
X15024914Y-13870057D01*
X15039200Y-13798629D01*
X15053486Y-13755771D01*
X15067771Y-13727200D01*
X15096343Y-13684343D01*
X15110628Y-13670057D01*
X15353486Y-13712914D02*
X15296343Y-13712914D01*
X15267771Y-13727200D01*
X15253486Y-13741486D01*
X15224914Y-13784343D01*
X15210628Y-13841486D01*
X15210628Y-13955771D01*
X15224914Y-13984343D01*
X15239200Y-13998629D01*
X15267771Y-14012914D01*
X15324914Y-14012914D01*
X15353486Y-13998629D01*
X15367771Y-13984343D01*
X15382057Y-13955771D01*
X15382057Y-13884343D01*
X15367771Y-13855771D01*
X15353486Y-13841486D01*
X15324914Y-13827200D01*
X15267771Y-13827200D01*
X15239200Y-13841486D01*
X15224914Y-13855771D01*
X15210628Y-13884343D01*
X15739200Y-14012914D02*
X15739200Y-13712914D01*
X15867771Y-14012914D02*
X15867771Y-13855771D01*
X15853486Y-13827200D01*
X15824914Y-13812914D01*
X15782057Y-13812914D01*
X15753486Y-13827200D01*
X15739200Y-13841486D01*
X16053486Y-14012914D02*
X16024914Y-13998629D01*
X16010628Y-13984343D01*
X15996343Y-13955771D01*
X15996343Y-13870057D01*
X16010628Y-13841486D01*
X16024914Y-13827200D01*
X16053486Y-13812914D01*
X16096343Y-13812914D01*
X16124914Y-13827200D01*
X16139200Y-13841486D01*
X16153486Y-13870057D01*
X16153486Y-13955771D01*
X16139200Y-13984343D01*
X16124914Y-13998629D01*
X16096343Y-14012914D01*
X16053486Y-14012914D01*
X16324914Y-14012914D02*
X16296343Y-13998629D01*
X16282057Y-13970057D01*
X16282057Y-13712914D01*
X16553486Y-13998629D02*
X16524914Y-14012914D01*
X16467771Y-14012914D01*
X16439200Y-13998629D01*
X16424914Y-13970057D01*
X16424914Y-13855771D01*
X16439200Y-13827200D01*
X16467771Y-13812914D01*
X16524914Y-13812914D01*
X16553486Y-13827200D01*
X16567771Y-13855771D01*
X16567771Y-13884343D01*
X16424914Y-13912914D01*
X16682057Y-13998629D02*
X16710628Y-14012914D01*
X16767771Y-14012914D01*
X16796343Y-13998629D01*
X16810628Y-13970057D01*
X16810628Y-13955771D01*
X16796343Y-13927200D01*
X16767771Y-13912914D01*
X16724914Y-13912914D01*
X16696343Y-13898629D01*
X16682057Y-13870057D01*
X16682057Y-13855771D01*
X16696343Y-13827200D01*
X16724914Y-13812914D01*
X16767771Y-13812914D01*
X16796343Y-13827200D01*
X16910628Y-14127200D02*
X16924914Y-14112914D01*
X16953486Y-14070057D01*
X16967771Y-14041486D01*
X16982057Y-13998629D01*
X16996343Y-13927200D01*
X16996343Y-13870057D01*
X16982057Y-13798629D01*
X16967771Y-13755771D01*
X16953486Y-13727200D01*
X16924914Y-13684343D01*
X16910628Y-13670057D01*
M02*
