%FSLAX45Y45*%
G04 Gerber Fmt 4.5, Leading zero omitted, Abs format (unit mm)*
G04 Created by KiCad (PCBNEW (5.1.9)-1) date 2021-06-30 13:02:03*
%MOMM*%
%LPD*%
G01*
G04 APERTURE LIST*
%TA.AperFunction,Profile*%
%ADD10C,0.050000*%
%TD*%
%ADD11C,0.200000*%
%ADD12C,0.300000*%
G04 APERTURE END LIST*
D10*
X10426700Y-8928100D02*
X10426700Y-10934700D01*
X18427700Y-8928100D02*
X10426700Y-8928100D01*
X18427700Y-10934700D02*
X18427700Y-8928100D01*
X10426700Y-10934700D02*
X18427700Y-10934700D01*
D11*
D12*
X10710628Y-11402914D02*
X10710628Y-11102914D01*
X10782057Y-11102914D01*
X10824914Y-11117200D01*
X10853486Y-11145772D01*
X10867771Y-11174343D01*
X10882057Y-11231486D01*
X10882057Y-11274343D01*
X10867771Y-11331486D01*
X10853486Y-11360057D01*
X10824914Y-11388629D01*
X10782057Y-11402914D01*
X10710628Y-11402914D01*
X11010628Y-11402914D02*
X11010628Y-11202914D01*
X11010628Y-11260057D02*
X11024914Y-11231486D01*
X11039200Y-11217200D01*
X11067771Y-11202914D01*
X11096343Y-11202914D01*
X11196343Y-11402914D02*
X11196343Y-11202914D01*
X11196343Y-11102914D02*
X11182057Y-11117200D01*
X11196343Y-11131486D01*
X11210628Y-11117200D01*
X11196343Y-11102914D01*
X11196343Y-11131486D01*
X11382057Y-11402914D02*
X11353486Y-11388629D01*
X11339200Y-11360057D01*
X11339200Y-11102914D01*
X11539200Y-11402914D02*
X11510628Y-11388629D01*
X11496343Y-11360057D01*
X11496343Y-11102914D01*
X11882057Y-11402914D02*
X11882057Y-11102914D01*
X11982057Y-11317200D01*
X12082057Y-11102914D01*
X12082057Y-11402914D01*
X12353486Y-11402914D02*
X12353486Y-11245771D01*
X12339200Y-11217200D01*
X12310628Y-11202914D01*
X12253486Y-11202914D01*
X12224914Y-11217200D01*
X12353486Y-11388629D02*
X12324914Y-11402914D01*
X12253486Y-11402914D01*
X12224914Y-11388629D01*
X12210628Y-11360057D01*
X12210628Y-11331486D01*
X12224914Y-11302914D01*
X12253486Y-11288629D01*
X12324914Y-11288629D01*
X12353486Y-11274343D01*
X12496343Y-11202914D02*
X12496343Y-11502914D01*
X12496343Y-11217200D02*
X12524914Y-11202914D01*
X12582057Y-11202914D01*
X12610628Y-11217200D01*
X12624914Y-11231486D01*
X12639200Y-11260057D01*
X12639200Y-11345771D01*
X12624914Y-11374343D01*
X12610628Y-11388629D01*
X12582057Y-11402914D01*
X12524914Y-11402914D01*
X12496343Y-11388629D01*
X12767771Y-11374343D02*
X12782057Y-11388629D01*
X12767771Y-11402914D01*
X12753486Y-11388629D01*
X12767771Y-11374343D01*
X12767771Y-11402914D01*
X12767771Y-11217200D02*
X12782057Y-11231486D01*
X12767771Y-11245771D01*
X12753486Y-11231486D01*
X12767771Y-11217200D01*
X12767771Y-11245771D01*
M02*
