%TF.GenerationSoftware,KiCad,Pcbnew,(5.1.9)-1*%
%TF.CreationDate,2021-06-30T13:01:52+01:00*%
%TF.ProjectId,bikepixel rear,62696b65-7069-4786-956c-20726561722e,v0.5*%
%TF.SameCoordinates,Original*%
%TF.FileFunction,Copper,L1,Top*%
%TF.FilePolarity,Positive*%
%FSLAX46Y46*%
G04 Gerber Fmt 4.6, Leading zero omitted, Abs format (unit mm)*
G04 Created by KiCad (PCBNEW (5.1.9)-1) date 2021-06-30 13:01:52*
%MOMM*%
%LPD*%
G01*
G04 APERTURE LIST*
%TA.AperFunction,ComponentPad*%
%ADD10C,2.000000*%
%TD*%
%TA.AperFunction,ComponentPad*%
%ADD11C,2.100000*%
%TD*%
%TA.AperFunction,ComponentPad*%
%ADD12C,1.750000*%
%TD*%
%TA.AperFunction,ComponentPad*%
%ADD13C,1.600000*%
%TD*%
%TA.AperFunction,ComponentPad*%
%ADD14R,1.700000X1.700000*%
%TD*%
%TA.AperFunction,ComponentPad*%
%ADD15O,1.700000X1.700000*%
%TD*%
%TA.AperFunction,ComponentPad*%
%ADD16O,1.600000X1.600000*%
%TD*%
%TA.AperFunction,ComponentPad*%
%ADD17C,1.524000*%
%TD*%
%TA.AperFunction,Conductor*%
%ADD18C,0.254000*%
%TD*%
G04 APERTURE END LIST*
D10*
%TO.P,H3,*%
%TO.N,*%
X182245000Y-107315000D03*
%TD*%
%TO.P,H4,*%
%TO.N,*%
X182245000Y-91313000D03*
%TD*%
%TO.P,H2,*%
%TO.N,*%
X106299000Y-107315000D03*
%TD*%
%TO.P,H1,*%
%TO.N,*%
X106299000Y-91313000D03*
%TD*%
D11*
%TO.P,SW2,*%
%TO.N,*%
X163175000Y-104063000D03*
D12*
%TO.P,SW2,1*%
%TO.N,GND*%
X161925000Y-106553000D03*
%TO.P,SW2,2*%
%TO.N,Net-(J2-Pad4)*%
X157425000Y-106553000D03*
D11*
%TO.P,SW2,*%
%TO.N,*%
X156165000Y-104063000D03*
%TD*%
D13*
%TO.P,C1,1*%
%TO.N,GND*%
X167894000Y-95631000D03*
%TO.P,C1,2*%
%TO.N,+5V*%
X167894000Y-99131000D03*
%TD*%
D14*
%TO.P,J1,1*%
%TO.N,Net-(J1-Pad1)*%
X109855000Y-91821000D03*
D15*
%TO.P,J1,2*%
%TO.N,Net-(J1-Pad2)*%
X112395000Y-91821000D03*
%TO.P,J1,3*%
%TO.N,GND*%
X114935000Y-91821000D03*
%TD*%
D14*
%TO.P,J2,1*%
%TO.N,Net-(J2-Pad1)*%
X136652000Y-91821000D03*
D15*
%TO.P,J2,2*%
%TO.N,Net-(J2-Pad2)*%
X139192000Y-91821000D03*
%TO.P,J2,3*%
%TO.N,+5V*%
X141732000Y-91821000D03*
%TO.P,J2,4*%
%TO.N,Net-(J2-Pad4)*%
X144272000Y-91821000D03*
%TO.P,J2,5*%
%TO.N,GND*%
X146812000Y-91821000D03*
%TO.P,J2,6*%
%TO.N,Net-(J2-Pad6)*%
X149352000Y-91821000D03*
%TO.P,J2,7*%
%TO.N,Net-(J2-Pad7)*%
X151892000Y-91821000D03*
%TD*%
%TO.P,J3,3*%
%TO.N,GND*%
X178689000Y-91821000D03*
%TO.P,J3,2*%
%TO.N,+5V*%
X176149000Y-91821000D03*
D14*
%TO.P,J3,1*%
%TO.N,Net-(J3-Pad1)*%
X173609000Y-91821000D03*
%TD*%
D16*
%TO.P,R1,2*%
%TO.N,Net-(J2-Pad1)*%
X131699000Y-91821000D03*
D13*
%TO.P,R1,1*%
%TO.N,GND*%
X124079000Y-91821000D03*
%TD*%
%TO.P,R2,1*%
%TO.N,Net-(J1-Pad1)*%
X124079000Y-97091500D03*
D16*
%TO.P,R2,2*%
%TO.N,Net-(J2-Pad1)*%
X131699000Y-97091500D03*
%TD*%
%TO.P,R3,2*%
%TO.N,Net-(J2-Pad2)*%
X139192000Y-96647000D03*
D13*
%TO.P,R3,1*%
%TO.N,+5V*%
X139192000Y-104267000D03*
%TD*%
%TO.P,R4,1*%
%TO.N,+5V*%
X144272000Y-104203500D03*
D16*
%TO.P,R4,2*%
%TO.N,Net-(J2-Pad4)*%
X144272000Y-96583500D03*
%TD*%
%TO.P,R5,2*%
%TO.N,Net-(J2-Pad6)*%
X149352000Y-96583500D03*
D13*
%TO.P,R5,1*%
%TO.N,+5V*%
X149352000Y-104203500D03*
%TD*%
%TO.P,R6,1*%
%TO.N,Net-(J2-Pad7)*%
X155575000Y-91821000D03*
D16*
%TO.P,R6,2*%
%TO.N,Net-(J3-Pad1)*%
X163195000Y-91821000D03*
%TD*%
D17*
%TO.P,SW0,1*%
%TO.N,Net-(SW0-Pad1)*%
X109982000Y-105029000D03*
%TO.P,SW0,2*%
%TO.N,Net-(J1-Pad2)*%
X112522000Y-105029000D03*
%TO.P,SW0,3*%
%TO.N,+5V*%
X115062000Y-105029000D03*
%TD*%
D11*
%TO.P,SW1,*%
%TO.N,*%
X125431000Y-104063000D03*
D12*
%TO.P,SW1,2*%
%TO.N,Net-(J2-Pad2)*%
X126691000Y-106553000D03*
%TO.P,SW1,1*%
%TO.N,GND*%
X131191000Y-106553000D03*
D11*
%TO.P,SW1,*%
%TO.N,*%
X132441000Y-104063000D03*
%TD*%
%TO.P,SW3,*%
%TO.N,*%
X172167000Y-104063000D03*
D12*
%TO.P,SW3,2*%
%TO.N,Net-(J2-Pad6)*%
X173427000Y-106553000D03*
%TO.P,SW3,1*%
%TO.N,GND*%
X177927000Y-106553000D03*
D11*
%TO.P,SW3,*%
%TO.N,*%
X179177000Y-104063000D03*
%TD*%
D18*
%TO.N,GND*%
X114808000Y-91821000D02*
X124079000Y-91821000D01*
%TO.N,+5V*%
X144272000Y-108394500D02*
X144272000Y-104203500D01*
X167894000Y-99131000D02*
X176141500Y-99131000D01*
X176149000Y-99123500D02*
X176149000Y-91821000D01*
X176141500Y-99131000D02*
X176149000Y-99123500D01*
X149352000Y-108331000D02*
X149415500Y-108394500D01*
X149415500Y-108394500D02*
X167894000Y-108394500D01*
X149352000Y-104203500D02*
X149352000Y-108331000D01*
X144272000Y-108394500D02*
X149415500Y-108394500D01*
X176867118Y-91821000D02*
X176149000Y-91821000D01*
X141732000Y-91821000D02*
X141732000Y-108394500D01*
X141732000Y-108394500D02*
X144272000Y-108394500D01*
X139192000Y-108394500D02*
X141732000Y-108394500D01*
X167894000Y-99131000D02*
X167894000Y-108394500D01*
X114808000Y-105029000D02*
X117411500Y-105029000D01*
X117411500Y-105029000D02*
X117411500Y-108394500D01*
X139128500Y-108394500D02*
X139192000Y-108331000D01*
X117411500Y-108394500D02*
X139128500Y-108394500D01*
X139192000Y-108331000D02*
X139192000Y-104267000D01*
X139192000Y-108394500D02*
X139192000Y-108331000D01*
%TO.N,Net-(J1-Pad1)*%
X124079000Y-97091500D02*
X124079000Y-94869000D01*
X124079000Y-94869000D02*
X109855000Y-94869000D01*
X109855000Y-94869000D02*
X109855000Y-91821000D01*
%TO.N,Net-(J2-Pad1)*%
X131699000Y-91821000D02*
X136652000Y-91821000D01*
X131699000Y-91821000D02*
X131699000Y-97091500D01*
%TO.N,Net-(J2-Pad2)*%
X128524000Y-106553000D02*
X128524000Y-100203000D01*
X126691000Y-106553000D02*
X128524000Y-106553000D01*
X139192000Y-96647000D02*
X139192000Y-91821000D01*
X139192000Y-96647000D02*
X136652000Y-96647000D01*
X136652000Y-96647000D02*
X136652000Y-100203000D01*
X136652000Y-100203000D02*
X128524000Y-100203000D01*
%TO.N,Net-(J2-Pad6)*%
X173173000Y-106807000D02*
X173427000Y-106553000D01*
X173427000Y-106807000D02*
X173681000Y-106553000D01*
X173173000Y-106045000D02*
X173681000Y-106553000D01*
X173427000Y-106299000D02*
X173681000Y-106553000D01*
X149352000Y-91821000D02*
X149352000Y-96583500D01*
%TO.N,Net-(J2-Pad7)*%
X155575000Y-91821000D02*
X152273000Y-91821000D01*
%TO.N,Net-(J3-Pad1)*%
X163195000Y-91821000D02*
X173609000Y-91821000D01*
%TO.N,Net-(J2-Pad4)*%
X144272000Y-91821000D02*
X144272000Y-96583500D01*
%TD*%
M02*
