%FSLAX45Y45*%
G04 Gerber Fmt 4.5, Leading zero omitted, Abs format (unit mm)*
G04 Created by KiCad (PCBNEW (5.1.9)-1) date 2021-06-14 22:59:02*
%MOMM*%
%LPD*%
G01*
G04 APERTURE LIST*
%TA.AperFunction,Profile*%
%ADD10C,0.050000*%
%TD*%
%ADD11C,0.200000*%
%ADD12C,0.300000*%
G04 APERTURE END LIST*
D10*
X10160000Y-10693400D02*
X10160000Y-12700000D01*
X18161000Y-10693400D02*
X10160000Y-10693400D01*
X18161000Y-12700000D02*
X18161000Y-10693400D01*
X10160000Y-12700000D02*
X18161000Y-12700000D01*
D11*
X10693400Y-12230100D02*
X10769600Y-12306300D01*
X10769600Y-12230100D02*
X10693400Y-12306300D01*
X10947400Y-12230100D02*
X11023600Y-12306300D01*
X11023600Y-12230100D02*
X10947400Y-12306300D01*
X11201400Y-12230100D02*
X11277600Y-12306300D01*
X11277600Y-12230100D02*
X11201400Y-12306300D01*
X12181200Y-10947400D02*
G75*
G03*
X12181200Y-10947400I-40000J0D01*
G01*
X12181200Y-11474450D02*
G75*
G03*
X12181200Y-11474450I-40000J0D01*
G01*
X12943200Y-10947400D02*
G75*
G03*
X12943200Y-10947400I-40000J0D01*
G01*
X12943200Y-11474450D02*
G75*
G03*
X12943200Y-11474450I-40000J0D01*
G01*
X13692500Y-11430000D02*
G75*
G03*
X13692500Y-11430000I-40000J0D01*
G01*
X13692500Y-12192000D02*
G75*
G03*
X13692500Y-12192000I-40000J0D01*
G01*
X14200500Y-11423650D02*
G75*
G03*
X14200500Y-11423650I-40000J0D01*
G01*
X14200500Y-12185650D02*
G75*
G03*
X14200500Y-12185650I-40000J0D01*
G01*
X14708500Y-11423650D02*
G75*
G03*
X14708500Y-11423650I-40000J0D01*
G01*
X14708500Y-12185650D02*
G75*
G03*
X14708500Y-12185650I-40000J0D01*
G01*
X15330800Y-10947400D02*
G75*
G03*
X15330800Y-10947400I-40000J0D01*
G01*
X16092800Y-10947400D02*
G75*
G03*
X16092800Y-10947400I-40000J0D01*
G01*
X16562700Y-11328400D02*
G75*
G03*
X16562700Y-11328400I-40000J0D01*
G01*
X16562700Y-11678400D02*
G75*
G03*
X16562700Y-11678400I-40000J0D01*
G01*
X12402400Y-12371100D02*
X12402400Y-12470100D01*
X12352900Y-12420600D02*
X12451900Y-12420600D01*
X12852400Y-12371100D02*
X12852400Y-12470100D01*
X12802900Y-12420600D02*
X12901900Y-12420600D01*
X15475800Y-12371100D02*
X15475800Y-12470100D01*
X15426300Y-12420600D02*
X15525300Y-12420600D01*
X15925800Y-12371100D02*
X15925800Y-12470100D01*
X15876300Y-12420600D02*
X15975300Y-12420600D01*
X17076000Y-12371100D02*
X17076000Y-12470100D01*
X17026500Y-12420600D02*
X17125500Y-12420600D01*
X17526000Y-12371100D02*
X17526000Y-12470100D01*
X17476500Y-12420600D02*
X17575500Y-12420600D01*
X10754156Y-10982756D02*
X10754156Y-10912044D01*
X10683444Y-10912044D01*
X10683444Y-10982756D01*
X10754156Y-10982756D01*
X11008156Y-10982756D02*
X11008156Y-10912044D01*
X10937444Y-10912044D01*
X10937444Y-10982756D01*
X11008156Y-10982756D01*
X11262156Y-10982756D02*
X11262156Y-10912044D01*
X11191444Y-10912044D01*
X11191444Y-10982756D01*
X11262156Y-10982756D01*
X13433856Y-10982756D02*
X13433856Y-10912044D01*
X13363144Y-10912044D01*
X13363144Y-10982756D01*
X13433856Y-10982756D01*
X13687856Y-10982756D02*
X13687856Y-10912044D01*
X13617144Y-10912044D01*
X13617144Y-10982756D01*
X13687856Y-10982756D01*
X13941856Y-10982756D02*
X13941856Y-10912044D01*
X13871144Y-10912044D01*
X13871144Y-10982756D01*
X13941856Y-10982756D01*
X14195856Y-10982756D02*
X14195856Y-10912044D01*
X14125144Y-10912044D01*
X14125144Y-10982756D01*
X14195856Y-10982756D01*
X14449856Y-10982756D02*
X14449856Y-10912044D01*
X14379144Y-10912044D01*
X14379144Y-10982756D01*
X14449856Y-10982756D01*
X14703856Y-10982756D02*
X14703856Y-10912044D01*
X14633144Y-10912044D01*
X14633144Y-10982756D01*
X14703856Y-10982756D01*
X14957856Y-10982756D02*
X14957856Y-10912044D01*
X14887144Y-10912044D01*
X14887144Y-10982756D01*
X14957856Y-10982756D01*
X17129556Y-10982756D02*
X17129556Y-10912044D01*
X17058844Y-10912044D01*
X17058844Y-10982756D01*
X17129556Y-10982756D01*
X17383556Y-10982756D02*
X17383556Y-10912044D01*
X17312844Y-10912044D01*
X17312844Y-10982756D01*
X17383556Y-10982756D01*
X17637556Y-10982756D02*
X17637556Y-10912044D01*
X17566844Y-10912044D01*
X17566844Y-10982756D01*
X17637556Y-10982756D01*
X10363200Y-10956600D02*
X10423200Y-10896600D01*
X10363200Y-10836600D01*
X10303200Y-10896600D01*
X10363200Y-10956600D01*
X10363200Y-12556800D02*
X10423200Y-12496800D01*
X10363200Y-12436800D01*
X10303200Y-12496800D01*
X10363200Y-12556800D01*
X17957800Y-10956600D02*
X18017800Y-10896600D01*
X17957800Y-10836600D01*
X17897800Y-10896600D01*
X17957800Y-10956600D01*
X17957800Y-12556800D02*
X18017800Y-12496800D01*
X17957800Y-12436800D01*
X17897800Y-12496800D01*
X17957800Y-12556800D01*
X12211400Y-12106600D02*
X12341400Y-12236600D01*
X12341400Y-12106600D02*
X12211400Y-12236600D01*
X12341400Y-12171600D02*
G75*
G03*
X12341400Y-12171600I-65000J0D01*
G01*
X12912400Y-12106600D02*
X13042400Y-12236600D01*
X13042400Y-12106600D02*
X12912400Y-12236600D01*
X13042400Y-12171600D02*
G75*
G03*
X13042400Y-12171600I-65000J0D01*
G01*
X15284800Y-12106600D02*
X15414800Y-12236600D01*
X15414800Y-12106600D02*
X15284800Y-12236600D01*
X15414800Y-12171600D02*
G75*
G03*
X15414800Y-12171600I-65000J0D01*
G01*
X15985800Y-12106600D02*
X16115800Y-12236600D01*
X16115800Y-12106600D02*
X15985800Y-12236600D01*
X16115800Y-12171600D02*
G75*
G03*
X16115800Y-12171600I-65000J0D01*
G01*
X16885000Y-12106600D02*
X17015000Y-12236600D01*
X17015000Y-12106600D02*
X16885000Y-12236600D01*
X17015000Y-12171600D02*
G75*
G03*
X17015000Y-12171600I-65000J0D01*
G01*
X17586000Y-12106600D02*
X17716000Y-12236600D01*
X17716000Y-12106600D02*
X17586000Y-12236600D01*
X17716000Y-12171600D02*
G75*
G03*
X17716000Y-12171600I-65000J0D01*
G01*
D12*
X10443928Y-13168214D02*
X10443928Y-12868214D01*
X10515357Y-12868214D01*
X10558214Y-12882500D01*
X10586786Y-12911071D01*
X10601071Y-12939643D01*
X10615357Y-12996786D01*
X10615357Y-13039643D01*
X10601071Y-13096786D01*
X10586786Y-13125357D01*
X10558214Y-13153929D01*
X10515357Y-13168214D01*
X10443928Y-13168214D01*
X10743928Y-13168214D02*
X10743928Y-12968214D01*
X10743928Y-13025357D02*
X10758214Y-12996786D01*
X10772500Y-12982500D01*
X10801071Y-12968214D01*
X10829643Y-12968214D01*
X10929643Y-13168214D02*
X10929643Y-12968214D01*
X10929643Y-12868214D02*
X10915357Y-12882500D01*
X10929643Y-12896786D01*
X10943928Y-12882500D01*
X10929643Y-12868214D01*
X10929643Y-12896786D01*
X11115357Y-13168214D02*
X11086786Y-13153929D01*
X11072500Y-13125357D01*
X11072500Y-12868214D01*
X11272500Y-13168214D02*
X11243928Y-13153929D01*
X11229643Y-13125357D01*
X11229643Y-12868214D01*
X11615357Y-13168214D02*
X11615357Y-12868214D01*
X11715357Y-13082500D01*
X11815357Y-12868214D01*
X11815357Y-13168214D01*
X12086786Y-13168214D02*
X12086786Y-13011071D01*
X12072500Y-12982500D01*
X12043928Y-12968214D01*
X11986786Y-12968214D01*
X11958214Y-12982500D01*
X12086786Y-13153929D02*
X12058214Y-13168214D01*
X11986786Y-13168214D01*
X11958214Y-13153929D01*
X11943928Y-13125357D01*
X11943928Y-13096786D01*
X11958214Y-13068214D01*
X11986786Y-13053929D01*
X12058214Y-13053929D01*
X12086786Y-13039643D01*
X12229643Y-12968214D02*
X12229643Y-13268214D01*
X12229643Y-12982500D02*
X12258214Y-12968214D01*
X12315357Y-12968214D01*
X12343928Y-12982500D01*
X12358214Y-12996786D01*
X12372500Y-13025357D01*
X12372500Y-13111071D01*
X12358214Y-13139643D01*
X12343928Y-13153929D01*
X12315357Y-13168214D01*
X12258214Y-13168214D01*
X12229643Y-13153929D01*
X12501071Y-13139643D02*
X12515357Y-13153929D01*
X12501071Y-13168214D01*
X12486786Y-13153929D01*
X12501071Y-13139643D01*
X12501071Y-13168214D01*
X12501071Y-12982500D02*
X12515357Y-12996786D01*
X12501071Y-13011071D01*
X12486786Y-12996786D01*
X12501071Y-12982500D01*
X12501071Y-13011071D01*
X10081300Y-13624400D02*
X10157500Y-13700600D01*
X10157500Y-13624400D02*
X10081300Y-13700600D01*
X10501071Y-13498214D02*
X10529643Y-13498214D01*
X10558214Y-13512500D01*
X10572500Y-13526786D01*
X10586786Y-13555357D01*
X10601071Y-13612500D01*
X10601071Y-13683929D01*
X10586786Y-13741071D01*
X10572500Y-13769643D01*
X10558214Y-13783929D01*
X10529643Y-13798214D01*
X10501071Y-13798214D01*
X10472500Y-13783929D01*
X10458214Y-13769643D01*
X10443928Y-13741071D01*
X10429643Y-13683929D01*
X10429643Y-13612500D01*
X10443928Y-13555357D01*
X10458214Y-13526786D01*
X10472500Y-13512500D01*
X10501071Y-13498214D01*
X10729643Y-13769643D02*
X10743928Y-13783929D01*
X10729643Y-13798214D01*
X10715357Y-13783929D01*
X10729643Y-13769643D01*
X10729643Y-13798214D01*
X10843928Y-13498214D02*
X11043928Y-13498214D01*
X10915357Y-13798214D01*
X11286786Y-13498214D02*
X11229643Y-13498214D01*
X11201071Y-13512500D01*
X11186786Y-13526786D01*
X11158214Y-13569643D01*
X11143928Y-13626786D01*
X11143928Y-13741071D01*
X11158214Y-13769643D01*
X11172500Y-13783929D01*
X11201071Y-13798214D01*
X11258214Y-13798214D01*
X11286786Y-13783929D01*
X11301071Y-13769643D01*
X11315357Y-13741071D01*
X11315357Y-13669643D01*
X11301071Y-13641071D01*
X11286786Y-13626786D01*
X11258214Y-13612500D01*
X11201071Y-13612500D01*
X11172500Y-13626786D01*
X11158214Y-13641071D01*
X11143928Y-13669643D01*
X11443928Y-13798214D02*
X11443928Y-13598214D01*
X11443928Y-13626786D02*
X11458214Y-13612500D01*
X11486786Y-13598214D01*
X11529643Y-13598214D01*
X11558214Y-13612500D01*
X11572500Y-13641071D01*
X11572500Y-13798214D01*
X11572500Y-13641071D02*
X11586786Y-13612500D01*
X11615357Y-13598214D01*
X11658214Y-13598214D01*
X11686786Y-13612500D01*
X11701071Y-13641071D01*
X11701071Y-13798214D01*
X11843928Y-13798214D02*
X11843928Y-13598214D01*
X11843928Y-13626786D02*
X11858214Y-13612500D01*
X11886786Y-13598214D01*
X11929643Y-13598214D01*
X11958214Y-13612500D01*
X11972500Y-13641071D01*
X11972500Y-13798214D01*
X11972500Y-13641071D02*
X11986786Y-13612500D01*
X12015357Y-13598214D01*
X12058214Y-13598214D01*
X12086786Y-13612500D01*
X12101071Y-13641071D01*
X12101071Y-13798214D01*
X12686786Y-13483929D02*
X12429643Y-13869643D01*
X13072500Y-13498214D02*
X13101071Y-13498214D01*
X13129643Y-13512500D01*
X13143928Y-13526786D01*
X13158214Y-13555357D01*
X13172500Y-13612500D01*
X13172500Y-13683929D01*
X13158214Y-13741071D01*
X13143928Y-13769643D01*
X13129643Y-13783929D01*
X13101071Y-13798214D01*
X13072500Y-13798214D01*
X13043928Y-13783929D01*
X13029643Y-13769643D01*
X13015357Y-13741071D01*
X13001071Y-13683929D01*
X13001071Y-13612500D01*
X13015357Y-13555357D01*
X13029643Y-13526786D01*
X13043928Y-13512500D01*
X13072500Y-13498214D01*
X13301071Y-13769643D02*
X13315357Y-13783929D01*
X13301071Y-13798214D01*
X13286786Y-13783929D01*
X13301071Y-13769643D01*
X13301071Y-13798214D01*
X13501071Y-13498214D02*
X13529643Y-13498214D01*
X13558214Y-13512500D01*
X13572500Y-13526786D01*
X13586786Y-13555357D01*
X13601071Y-13612500D01*
X13601071Y-13683929D01*
X13586786Y-13741071D01*
X13572500Y-13769643D01*
X13558214Y-13783929D01*
X13529643Y-13798214D01*
X13501071Y-13798214D01*
X13472500Y-13783929D01*
X13458214Y-13769643D01*
X13443928Y-13741071D01*
X13429643Y-13683929D01*
X13429643Y-13612500D01*
X13443928Y-13555357D01*
X13458214Y-13526786D01*
X13472500Y-13512500D01*
X13501071Y-13498214D01*
X13701071Y-13498214D02*
X13886786Y-13498214D01*
X13786786Y-13612500D01*
X13829643Y-13612500D01*
X13858214Y-13626786D01*
X13872500Y-13641071D01*
X13886786Y-13669643D01*
X13886786Y-13741071D01*
X13872500Y-13769643D01*
X13858214Y-13783929D01*
X13829643Y-13798214D01*
X13743928Y-13798214D01*
X13715357Y-13783929D01*
X13701071Y-13769643D01*
X14072500Y-13498214D02*
X14101071Y-13498214D01*
X14129643Y-13512500D01*
X14143928Y-13526786D01*
X14158214Y-13555357D01*
X14172500Y-13612500D01*
X14172500Y-13683929D01*
X14158214Y-13741071D01*
X14143928Y-13769643D01*
X14129643Y-13783929D01*
X14101071Y-13798214D01*
X14072500Y-13798214D01*
X14043928Y-13783929D01*
X14029643Y-13769643D01*
X14015357Y-13741071D01*
X14001071Y-13683929D01*
X14001071Y-13612500D01*
X14015357Y-13555357D01*
X14029643Y-13526786D01*
X14043928Y-13512500D01*
X14072500Y-13498214D01*
X14286786Y-13498214D02*
X14286786Y-13555357D01*
X14401071Y-13498214D02*
X14401071Y-13555357D01*
X14843928Y-13912500D02*
X14829643Y-13898214D01*
X14801071Y-13855357D01*
X14786786Y-13826786D01*
X14772500Y-13783929D01*
X14758214Y-13712500D01*
X14758214Y-13655357D01*
X14772500Y-13583929D01*
X14786786Y-13541071D01*
X14801071Y-13512500D01*
X14829643Y-13469643D01*
X14843928Y-13455357D01*
X14929643Y-13498214D02*
X15115357Y-13498214D01*
X15015357Y-13612500D01*
X15058214Y-13612500D01*
X15086786Y-13626786D01*
X15101071Y-13641071D01*
X15115357Y-13669643D01*
X15115357Y-13741071D01*
X15101071Y-13769643D01*
X15086786Y-13783929D01*
X15058214Y-13798214D01*
X14972500Y-13798214D01*
X14943928Y-13783929D01*
X14929643Y-13769643D01*
X15472500Y-13798214D02*
X15472500Y-13498214D01*
X15601071Y-13798214D02*
X15601071Y-13641071D01*
X15586786Y-13612500D01*
X15558214Y-13598214D01*
X15515357Y-13598214D01*
X15486786Y-13612500D01*
X15472500Y-13626786D01*
X15786786Y-13798214D02*
X15758214Y-13783929D01*
X15743928Y-13769643D01*
X15729643Y-13741071D01*
X15729643Y-13655357D01*
X15743928Y-13626786D01*
X15758214Y-13612500D01*
X15786786Y-13598214D01*
X15829643Y-13598214D01*
X15858214Y-13612500D01*
X15872500Y-13626786D01*
X15886786Y-13655357D01*
X15886786Y-13741071D01*
X15872500Y-13769643D01*
X15858214Y-13783929D01*
X15829643Y-13798214D01*
X15786786Y-13798214D01*
X16058214Y-13798214D02*
X16029643Y-13783929D01*
X16015357Y-13755357D01*
X16015357Y-13498214D01*
X16286786Y-13783929D02*
X16258214Y-13798214D01*
X16201071Y-13798214D01*
X16172500Y-13783929D01*
X16158214Y-13755357D01*
X16158214Y-13641071D01*
X16172500Y-13612500D01*
X16201071Y-13598214D01*
X16258214Y-13598214D01*
X16286786Y-13612500D01*
X16301071Y-13641071D01*
X16301071Y-13669643D01*
X16158214Y-13698214D01*
X16415357Y-13783929D02*
X16443928Y-13798214D01*
X16501071Y-13798214D01*
X16529643Y-13783929D01*
X16543928Y-13755357D01*
X16543928Y-13741071D01*
X16529643Y-13712500D01*
X16501071Y-13698214D01*
X16458214Y-13698214D01*
X16429643Y-13683929D01*
X16415357Y-13655357D01*
X16415357Y-13641071D01*
X16429643Y-13612500D01*
X16458214Y-13598214D01*
X16501071Y-13598214D01*
X16529643Y-13612500D01*
X16643928Y-13912500D02*
X16658214Y-13898214D01*
X16686786Y-13855357D01*
X16701071Y-13826786D01*
X16715357Y-13783929D01*
X16729643Y-13712500D01*
X16729643Y-13655357D01*
X16715357Y-13583929D01*
X16701071Y-13541071D01*
X16686786Y-13512500D01*
X16658214Y-13469643D01*
X16643928Y-13455357D01*
X10157500Y-14058500D02*
G75*
G03*
X10157500Y-14058500I-40000J0D01*
G01*
X10501071Y-13894214D02*
X10529643Y-13894214D01*
X10558214Y-13908500D01*
X10572500Y-13922786D01*
X10586786Y-13951357D01*
X10601071Y-14008500D01*
X10601071Y-14079929D01*
X10586786Y-14137071D01*
X10572500Y-14165643D01*
X10558214Y-14179929D01*
X10529643Y-14194214D01*
X10501071Y-14194214D01*
X10472500Y-14179929D01*
X10458214Y-14165643D01*
X10443928Y-14137071D01*
X10429643Y-14079929D01*
X10429643Y-14008500D01*
X10443928Y-13951357D01*
X10458214Y-13922786D01*
X10472500Y-13908500D01*
X10501071Y-13894214D01*
X10729643Y-14165643D02*
X10743928Y-14179929D01*
X10729643Y-14194214D01*
X10715357Y-14179929D01*
X10729643Y-14165643D01*
X10729643Y-14194214D01*
X10915357Y-14022786D02*
X10886786Y-14008500D01*
X10872500Y-13994214D01*
X10858214Y-13965643D01*
X10858214Y-13951357D01*
X10872500Y-13922786D01*
X10886786Y-13908500D01*
X10915357Y-13894214D01*
X10972500Y-13894214D01*
X11001071Y-13908500D01*
X11015357Y-13922786D01*
X11029643Y-13951357D01*
X11029643Y-13965643D01*
X11015357Y-13994214D01*
X11001071Y-14008500D01*
X10972500Y-14022786D01*
X10915357Y-14022786D01*
X10886786Y-14037071D01*
X10872500Y-14051357D01*
X10858214Y-14079929D01*
X10858214Y-14137071D01*
X10872500Y-14165643D01*
X10886786Y-14179929D01*
X10915357Y-14194214D01*
X10972500Y-14194214D01*
X11001071Y-14179929D01*
X11015357Y-14165643D01*
X11029643Y-14137071D01*
X11029643Y-14079929D01*
X11015357Y-14051357D01*
X11001071Y-14037071D01*
X10972500Y-14022786D01*
X11215357Y-13894214D02*
X11243928Y-13894214D01*
X11272500Y-13908500D01*
X11286786Y-13922786D01*
X11301071Y-13951357D01*
X11315357Y-14008500D01*
X11315357Y-14079929D01*
X11301071Y-14137071D01*
X11286786Y-14165643D01*
X11272500Y-14179929D01*
X11243928Y-14194214D01*
X11215357Y-14194214D01*
X11186786Y-14179929D01*
X11172500Y-14165643D01*
X11158214Y-14137071D01*
X11143928Y-14079929D01*
X11143928Y-14008500D01*
X11158214Y-13951357D01*
X11172500Y-13922786D01*
X11186786Y-13908500D01*
X11215357Y-13894214D01*
X11443928Y-14194214D02*
X11443928Y-13994214D01*
X11443928Y-14022786D02*
X11458214Y-14008500D01*
X11486786Y-13994214D01*
X11529643Y-13994214D01*
X11558214Y-14008500D01*
X11572500Y-14037071D01*
X11572500Y-14194214D01*
X11572500Y-14037071D02*
X11586786Y-14008500D01*
X11615357Y-13994214D01*
X11658214Y-13994214D01*
X11686786Y-14008500D01*
X11701071Y-14037071D01*
X11701071Y-14194214D01*
X11843928Y-14194214D02*
X11843928Y-13994214D01*
X11843928Y-14022786D02*
X11858214Y-14008500D01*
X11886786Y-13994214D01*
X11929643Y-13994214D01*
X11958214Y-14008500D01*
X11972500Y-14037071D01*
X11972500Y-14194214D01*
X11972500Y-14037071D02*
X11986786Y-14008500D01*
X12015357Y-13994214D01*
X12058214Y-13994214D01*
X12086786Y-14008500D01*
X12101071Y-14037071D01*
X12101071Y-14194214D01*
X12686786Y-13879929D02*
X12429643Y-14265643D01*
X13072500Y-13894214D02*
X13101071Y-13894214D01*
X13129643Y-13908500D01*
X13143928Y-13922786D01*
X13158214Y-13951357D01*
X13172500Y-14008500D01*
X13172500Y-14079929D01*
X13158214Y-14137071D01*
X13143928Y-14165643D01*
X13129643Y-14179929D01*
X13101071Y-14194214D01*
X13072500Y-14194214D01*
X13043928Y-14179929D01*
X13029643Y-14165643D01*
X13015357Y-14137071D01*
X13001071Y-14079929D01*
X13001071Y-14008500D01*
X13015357Y-13951357D01*
X13029643Y-13922786D01*
X13043928Y-13908500D01*
X13072500Y-13894214D01*
X13301071Y-14165643D02*
X13315357Y-14179929D01*
X13301071Y-14194214D01*
X13286786Y-14179929D01*
X13301071Y-14165643D01*
X13301071Y-14194214D01*
X13501071Y-13894214D02*
X13529643Y-13894214D01*
X13558214Y-13908500D01*
X13572500Y-13922786D01*
X13586786Y-13951357D01*
X13601071Y-14008500D01*
X13601071Y-14079929D01*
X13586786Y-14137071D01*
X13572500Y-14165643D01*
X13558214Y-14179929D01*
X13529643Y-14194214D01*
X13501071Y-14194214D01*
X13472500Y-14179929D01*
X13458214Y-14165643D01*
X13443928Y-14137071D01*
X13429643Y-14079929D01*
X13429643Y-14008500D01*
X13443928Y-13951357D01*
X13458214Y-13922786D01*
X13472500Y-13908500D01*
X13501071Y-13894214D01*
X13701071Y-13894214D02*
X13886786Y-13894214D01*
X13786786Y-14008500D01*
X13829643Y-14008500D01*
X13858214Y-14022786D01*
X13872500Y-14037071D01*
X13886786Y-14065643D01*
X13886786Y-14137071D01*
X13872500Y-14165643D01*
X13858214Y-14179929D01*
X13829643Y-14194214D01*
X13743928Y-14194214D01*
X13715357Y-14179929D01*
X13701071Y-14165643D01*
X14172500Y-14194214D02*
X14001071Y-14194214D01*
X14086786Y-14194214D02*
X14086786Y-13894214D01*
X14058214Y-13937071D01*
X14029643Y-13965643D01*
X14001071Y-13979929D01*
X14286786Y-13894214D02*
X14286786Y-13951357D01*
X14401071Y-13894214D02*
X14401071Y-13951357D01*
X14843928Y-14308500D02*
X14829643Y-14294214D01*
X14801071Y-14251357D01*
X14786786Y-14222786D01*
X14772500Y-14179929D01*
X14758214Y-14108500D01*
X14758214Y-14051357D01*
X14772500Y-13979929D01*
X14786786Y-13937071D01*
X14801071Y-13908500D01*
X14829643Y-13865643D01*
X14843928Y-13851357D01*
X15115357Y-14194214D02*
X14943928Y-14194214D01*
X15029643Y-14194214D02*
X15029643Y-13894214D01*
X15001071Y-13937071D01*
X14972500Y-13965643D01*
X14943928Y-13979929D01*
X15372500Y-13994214D02*
X15372500Y-14194214D01*
X15301071Y-13879929D02*
X15229643Y-14094214D01*
X15415357Y-14094214D01*
X15758214Y-14194214D02*
X15758214Y-13894214D01*
X15886786Y-14194214D02*
X15886786Y-14037071D01*
X15872500Y-14008500D01*
X15843928Y-13994214D01*
X15801071Y-13994214D01*
X15772500Y-14008500D01*
X15758214Y-14022786D01*
X16072500Y-14194214D02*
X16043928Y-14179929D01*
X16029643Y-14165643D01*
X16015357Y-14137071D01*
X16015357Y-14051357D01*
X16029643Y-14022786D01*
X16043928Y-14008500D01*
X16072500Y-13994214D01*
X16115357Y-13994214D01*
X16143928Y-14008500D01*
X16158214Y-14022786D01*
X16172500Y-14051357D01*
X16172500Y-14137071D01*
X16158214Y-14165643D01*
X16143928Y-14179929D01*
X16115357Y-14194214D01*
X16072500Y-14194214D01*
X16343928Y-14194214D02*
X16315357Y-14179929D01*
X16301071Y-14151357D01*
X16301071Y-13894214D01*
X16572500Y-14179929D02*
X16543928Y-14194214D01*
X16486786Y-14194214D01*
X16458214Y-14179929D01*
X16443928Y-14151357D01*
X16443928Y-14037071D01*
X16458214Y-14008500D01*
X16486786Y-13994214D01*
X16543928Y-13994214D01*
X16572500Y-14008500D01*
X16586786Y-14037071D01*
X16586786Y-14065643D01*
X16443928Y-14094214D01*
X16701071Y-14179929D02*
X16729643Y-14194214D01*
X16786786Y-14194214D01*
X16815357Y-14179929D01*
X16829643Y-14151357D01*
X16829643Y-14137071D01*
X16815357Y-14108500D01*
X16786786Y-14094214D01*
X16743928Y-14094214D01*
X16715357Y-14079929D01*
X16701071Y-14051357D01*
X16701071Y-14037071D01*
X16715357Y-14008500D01*
X16743928Y-13994214D01*
X16786786Y-13994214D01*
X16815357Y-14008500D01*
X16929643Y-14308500D02*
X16943928Y-14294214D01*
X16972500Y-14251357D01*
X16986786Y-14222786D01*
X17001071Y-14179929D01*
X17015357Y-14108500D01*
X17015357Y-14051357D01*
X17001071Y-13979929D01*
X16986786Y-13937071D01*
X16972500Y-13908500D01*
X16943928Y-13865643D01*
X16929643Y-13851357D01*
X10108000Y-14405000D02*
X10108000Y-14504000D01*
X10058500Y-14454500D02*
X10157500Y-14454500D01*
X10501071Y-14290214D02*
X10529643Y-14290214D01*
X10558214Y-14304500D01*
X10572500Y-14318786D01*
X10586786Y-14347357D01*
X10601071Y-14404500D01*
X10601071Y-14475929D01*
X10586786Y-14533071D01*
X10572500Y-14561643D01*
X10558214Y-14575929D01*
X10529643Y-14590214D01*
X10501071Y-14590214D01*
X10472500Y-14575929D01*
X10458214Y-14561643D01*
X10443928Y-14533071D01*
X10429643Y-14475929D01*
X10429643Y-14404500D01*
X10443928Y-14347357D01*
X10458214Y-14318786D01*
X10472500Y-14304500D01*
X10501071Y-14290214D01*
X10729643Y-14561643D02*
X10743928Y-14575929D01*
X10729643Y-14590214D01*
X10715357Y-14575929D01*
X10729643Y-14561643D01*
X10729643Y-14590214D01*
X10886786Y-14590214D02*
X10943928Y-14590214D01*
X10972500Y-14575929D01*
X10986786Y-14561643D01*
X11015357Y-14518786D01*
X11029643Y-14461643D01*
X11029643Y-14347357D01*
X11015357Y-14318786D01*
X11001071Y-14304500D01*
X10972500Y-14290214D01*
X10915357Y-14290214D01*
X10886786Y-14304500D01*
X10872500Y-14318786D01*
X10858214Y-14347357D01*
X10858214Y-14418786D01*
X10872500Y-14447357D01*
X10886786Y-14461643D01*
X10915357Y-14475929D01*
X10972500Y-14475929D01*
X11001071Y-14461643D01*
X11015357Y-14447357D01*
X11029643Y-14418786D01*
X11172500Y-14590214D02*
X11229643Y-14590214D01*
X11258214Y-14575929D01*
X11272500Y-14561643D01*
X11301071Y-14518786D01*
X11315357Y-14461643D01*
X11315357Y-14347357D01*
X11301071Y-14318786D01*
X11286786Y-14304500D01*
X11258214Y-14290214D01*
X11201071Y-14290214D01*
X11172500Y-14304500D01*
X11158214Y-14318786D01*
X11143928Y-14347357D01*
X11143928Y-14418786D01*
X11158214Y-14447357D01*
X11172500Y-14461643D01*
X11201071Y-14475929D01*
X11258214Y-14475929D01*
X11286786Y-14461643D01*
X11301071Y-14447357D01*
X11315357Y-14418786D01*
X11443928Y-14590214D02*
X11443928Y-14390214D01*
X11443928Y-14418786D02*
X11458214Y-14404500D01*
X11486786Y-14390214D01*
X11529643Y-14390214D01*
X11558214Y-14404500D01*
X11572500Y-14433071D01*
X11572500Y-14590214D01*
X11572500Y-14433071D02*
X11586786Y-14404500D01*
X11615357Y-14390214D01*
X11658214Y-14390214D01*
X11686786Y-14404500D01*
X11701071Y-14433071D01*
X11701071Y-14590214D01*
X11843928Y-14590214D02*
X11843928Y-14390214D01*
X11843928Y-14418786D02*
X11858214Y-14404500D01*
X11886786Y-14390214D01*
X11929643Y-14390214D01*
X11958214Y-14404500D01*
X11972500Y-14433071D01*
X11972500Y-14590214D01*
X11972500Y-14433071D02*
X11986786Y-14404500D01*
X12015357Y-14390214D01*
X12058214Y-14390214D01*
X12086786Y-14404500D01*
X12101071Y-14433071D01*
X12101071Y-14590214D01*
X12686786Y-14275929D02*
X12429643Y-14661643D01*
X13072500Y-14290214D02*
X13101071Y-14290214D01*
X13129643Y-14304500D01*
X13143928Y-14318786D01*
X13158214Y-14347357D01*
X13172500Y-14404500D01*
X13172500Y-14475929D01*
X13158214Y-14533071D01*
X13143928Y-14561643D01*
X13129643Y-14575929D01*
X13101071Y-14590214D01*
X13072500Y-14590214D01*
X13043928Y-14575929D01*
X13029643Y-14561643D01*
X13015357Y-14533071D01*
X13001071Y-14475929D01*
X13001071Y-14404500D01*
X13015357Y-14347357D01*
X13029643Y-14318786D01*
X13043928Y-14304500D01*
X13072500Y-14290214D01*
X13301071Y-14561643D02*
X13315357Y-14575929D01*
X13301071Y-14590214D01*
X13286786Y-14575929D01*
X13301071Y-14561643D01*
X13301071Y-14590214D01*
X13501071Y-14290214D02*
X13529643Y-14290214D01*
X13558214Y-14304500D01*
X13572500Y-14318786D01*
X13586786Y-14347357D01*
X13601071Y-14404500D01*
X13601071Y-14475929D01*
X13586786Y-14533071D01*
X13572500Y-14561643D01*
X13558214Y-14575929D01*
X13529643Y-14590214D01*
X13501071Y-14590214D01*
X13472500Y-14575929D01*
X13458214Y-14561643D01*
X13443928Y-14533071D01*
X13429643Y-14475929D01*
X13429643Y-14404500D01*
X13443928Y-14347357D01*
X13458214Y-14318786D01*
X13472500Y-14304500D01*
X13501071Y-14290214D01*
X13701071Y-14290214D02*
X13886786Y-14290214D01*
X13786786Y-14404500D01*
X13829643Y-14404500D01*
X13858214Y-14418786D01*
X13872500Y-14433071D01*
X13886786Y-14461643D01*
X13886786Y-14533071D01*
X13872500Y-14561643D01*
X13858214Y-14575929D01*
X13829643Y-14590214D01*
X13743928Y-14590214D01*
X13715357Y-14575929D01*
X13701071Y-14561643D01*
X14029643Y-14590214D02*
X14086786Y-14590214D01*
X14115357Y-14575929D01*
X14129643Y-14561643D01*
X14158214Y-14518786D01*
X14172500Y-14461643D01*
X14172500Y-14347357D01*
X14158214Y-14318786D01*
X14143928Y-14304500D01*
X14115357Y-14290214D01*
X14058214Y-14290214D01*
X14029643Y-14304500D01*
X14015357Y-14318786D01*
X14001071Y-14347357D01*
X14001071Y-14418786D01*
X14015357Y-14447357D01*
X14029643Y-14461643D01*
X14058214Y-14475929D01*
X14115357Y-14475929D01*
X14143928Y-14461643D01*
X14158214Y-14447357D01*
X14172500Y-14418786D01*
X14286786Y-14290214D02*
X14286786Y-14347357D01*
X14401071Y-14290214D02*
X14401071Y-14347357D01*
X14843928Y-14704500D02*
X14829643Y-14690214D01*
X14801071Y-14647357D01*
X14786786Y-14618786D01*
X14772500Y-14575929D01*
X14758214Y-14504500D01*
X14758214Y-14447357D01*
X14772500Y-14375929D01*
X14786786Y-14333071D01*
X14801071Y-14304500D01*
X14829643Y-14261643D01*
X14843928Y-14247357D01*
X15086786Y-14290214D02*
X15029643Y-14290214D01*
X15001071Y-14304500D01*
X14986786Y-14318786D01*
X14958214Y-14361643D01*
X14943928Y-14418786D01*
X14943928Y-14533071D01*
X14958214Y-14561643D01*
X14972500Y-14575929D01*
X15001071Y-14590214D01*
X15058214Y-14590214D01*
X15086786Y-14575929D01*
X15101071Y-14561643D01*
X15115357Y-14533071D01*
X15115357Y-14461643D01*
X15101071Y-14433071D01*
X15086786Y-14418786D01*
X15058214Y-14404500D01*
X15001071Y-14404500D01*
X14972500Y-14418786D01*
X14958214Y-14433071D01*
X14943928Y-14461643D01*
X15472500Y-14590214D02*
X15472500Y-14290214D01*
X15601071Y-14590214D02*
X15601071Y-14433071D01*
X15586786Y-14404500D01*
X15558214Y-14390214D01*
X15515357Y-14390214D01*
X15486786Y-14404500D01*
X15472500Y-14418786D01*
X15786786Y-14590214D02*
X15758214Y-14575929D01*
X15743928Y-14561643D01*
X15729643Y-14533071D01*
X15729643Y-14447357D01*
X15743928Y-14418786D01*
X15758214Y-14404500D01*
X15786786Y-14390214D01*
X15829643Y-14390214D01*
X15858214Y-14404500D01*
X15872500Y-14418786D01*
X15886786Y-14447357D01*
X15886786Y-14533071D01*
X15872500Y-14561643D01*
X15858214Y-14575929D01*
X15829643Y-14590214D01*
X15786786Y-14590214D01*
X16058214Y-14590214D02*
X16029643Y-14575929D01*
X16015357Y-14547357D01*
X16015357Y-14290214D01*
X16286786Y-14575929D02*
X16258214Y-14590214D01*
X16201071Y-14590214D01*
X16172500Y-14575929D01*
X16158214Y-14547357D01*
X16158214Y-14433071D01*
X16172500Y-14404500D01*
X16201071Y-14390214D01*
X16258214Y-14390214D01*
X16286786Y-14404500D01*
X16301071Y-14433071D01*
X16301071Y-14461643D01*
X16158214Y-14490214D01*
X16415357Y-14575929D02*
X16443928Y-14590214D01*
X16501071Y-14590214D01*
X16529643Y-14575929D01*
X16543928Y-14547357D01*
X16543928Y-14533071D01*
X16529643Y-14504500D01*
X16501071Y-14490214D01*
X16458214Y-14490214D01*
X16429643Y-14475929D01*
X16415357Y-14447357D01*
X16415357Y-14433071D01*
X16429643Y-14404500D01*
X16458214Y-14390214D01*
X16501071Y-14390214D01*
X16529643Y-14404500D01*
X16643928Y-14704500D02*
X16658214Y-14690214D01*
X16686786Y-14647357D01*
X16701071Y-14618786D01*
X16715357Y-14575929D01*
X16729643Y-14504500D01*
X16729643Y-14447357D01*
X16715357Y-14375929D01*
X16701071Y-14333071D01*
X16686786Y-14304500D01*
X16658214Y-14261643D01*
X16643928Y-14247357D01*
X10142856Y-14885856D02*
X10142856Y-14815144D01*
X10072144Y-14815144D01*
X10072144Y-14885856D01*
X10142856Y-14885856D01*
X10601071Y-14986214D02*
X10429643Y-14986214D01*
X10515357Y-14986214D02*
X10515357Y-14686214D01*
X10486786Y-14729071D01*
X10458214Y-14757643D01*
X10429643Y-14771929D01*
X10729643Y-14957643D02*
X10743928Y-14971929D01*
X10729643Y-14986214D01*
X10715357Y-14971929D01*
X10729643Y-14957643D01*
X10729643Y-14986214D01*
X10929643Y-14686214D02*
X10958214Y-14686214D01*
X10986786Y-14700500D01*
X11001071Y-14714786D01*
X11015357Y-14743357D01*
X11029643Y-14800500D01*
X11029643Y-14871929D01*
X11015357Y-14929071D01*
X11001071Y-14957643D01*
X10986786Y-14971929D01*
X10958214Y-14986214D01*
X10929643Y-14986214D01*
X10901071Y-14971929D01*
X10886786Y-14957643D01*
X10872500Y-14929071D01*
X10858214Y-14871929D01*
X10858214Y-14800500D01*
X10872500Y-14743357D01*
X10886786Y-14714786D01*
X10901071Y-14700500D01*
X10929643Y-14686214D01*
X11215357Y-14686214D02*
X11243928Y-14686214D01*
X11272500Y-14700500D01*
X11286786Y-14714786D01*
X11301071Y-14743357D01*
X11315357Y-14800500D01*
X11315357Y-14871929D01*
X11301071Y-14929071D01*
X11286786Y-14957643D01*
X11272500Y-14971929D01*
X11243928Y-14986214D01*
X11215357Y-14986214D01*
X11186786Y-14971929D01*
X11172500Y-14957643D01*
X11158214Y-14929071D01*
X11143928Y-14871929D01*
X11143928Y-14800500D01*
X11158214Y-14743357D01*
X11172500Y-14714786D01*
X11186786Y-14700500D01*
X11215357Y-14686214D01*
X11443928Y-14986214D02*
X11443928Y-14786214D01*
X11443928Y-14814786D02*
X11458214Y-14800500D01*
X11486786Y-14786214D01*
X11529643Y-14786214D01*
X11558214Y-14800500D01*
X11572500Y-14829071D01*
X11572500Y-14986214D01*
X11572500Y-14829071D02*
X11586786Y-14800500D01*
X11615357Y-14786214D01*
X11658214Y-14786214D01*
X11686786Y-14800500D01*
X11701071Y-14829071D01*
X11701071Y-14986214D01*
X11843928Y-14986214D02*
X11843928Y-14786214D01*
X11843928Y-14814786D02*
X11858214Y-14800500D01*
X11886786Y-14786214D01*
X11929643Y-14786214D01*
X11958214Y-14800500D01*
X11972500Y-14829071D01*
X11972500Y-14986214D01*
X11972500Y-14829071D02*
X11986786Y-14800500D01*
X12015357Y-14786214D01*
X12058214Y-14786214D01*
X12086786Y-14800500D01*
X12101071Y-14829071D01*
X12101071Y-14986214D01*
X12686786Y-14671929D02*
X12429643Y-15057643D01*
X13072500Y-14686214D02*
X13101071Y-14686214D01*
X13129643Y-14700500D01*
X13143928Y-14714786D01*
X13158214Y-14743357D01*
X13172500Y-14800500D01*
X13172500Y-14871929D01*
X13158214Y-14929071D01*
X13143928Y-14957643D01*
X13129643Y-14971929D01*
X13101071Y-14986214D01*
X13072500Y-14986214D01*
X13043928Y-14971929D01*
X13029643Y-14957643D01*
X13015357Y-14929071D01*
X13001071Y-14871929D01*
X13001071Y-14800500D01*
X13015357Y-14743357D01*
X13029643Y-14714786D01*
X13043928Y-14700500D01*
X13072500Y-14686214D01*
X13301071Y-14957643D02*
X13315357Y-14971929D01*
X13301071Y-14986214D01*
X13286786Y-14971929D01*
X13301071Y-14957643D01*
X13301071Y-14986214D01*
X13501071Y-14686214D02*
X13529643Y-14686214D01*
X13558214Y-14700500D01*
X13572500Y-14714786D01*
X13586786Y-14743357D01*
X13601071Y-14800500D01*
X13601071Y-14871929D01*
X13586786Y-14929071D01*
X13572500Y-14957643D01*
X13558214Y-14971929D01*
X13529643Y-14986214D01*
X13501071Y-14986214D01*
X13472500Y-14971929D01*
X13458214Y-14957643D01*
X13443928Y-14929071D01*
X13429643Y-14871929D01*
X13429643Y-14800500D01*
X13443928Y-14743357D01*
X13458214Y-14714786D01*
X13472500Y-14700500D01*
X13501071Y-14686214D01*
X13701071Y-14686214D02*
X13886786Y-14686214D01*
X13786786Y-14800500D01*
X13829643Y-14800500D01*
X13858214Y-14814786D01*
X13872500Y-14829071D01*
X13886786Y-14857643D01*
X13886786Y-14929071D01*
X13872500Y-14957643D01*
X13858214Y-14971929D01*
X13829643Y-14986214D01*
X13743928Y-14986214D01*
X13715357Y-14971929D01*
X13701071Y-14957643D01*
X14029643Y-14986214D02*
X14086786Y-14986214D01*
X14115357Y-14971929D01*
X14129643Y-14957643D01*
X14158214Y-14914786D01*
X14172500Y-14857643D01*
X14172500Y-14743357D01*
X14158214Y-14714786D01*
X14143928Y-14700500D01*
X14115357Y-14686214D01*
X14058214Y-14686214D01*
X14029643Y-14700500D01*
X14015357Y-14714786D01*
X14001071Y-14743357D01*
X14001071Y-14814786D01*
X14015357Y-14843357D01*
X14029643Y-14857643D01*
X14058214Y-14871929D01*
X14115357Y-14871929D01*
X14143928Y-14857643D01*
X14158214Y-14843357D01*
X14172500Y-14814786D01*
X14286786Y-14686214D02*
X14286786Y-14743357D01*
X14401071Y-14686214D02*
X14401071Y-14743357D01*
X14843928Y-15100500D02*
X14829643Y-15086214D01*
X14801071Y-15043357D01*
X14786786Y-15014786D01*
X14772500Y-14971929D01*
X14758214Y-14900500D01*
X14758214Y-14843357D01*
X14772500Y-14771929D01*
X14786786Y-14729071D01*
X14801071Y-14700500D01*
X14829643Y-14657643D01*
X14843928Y-14643357D01*
X15115357Y-14986214D02*
X14943928Y-14986214D01*
X15029643Y-14986214D02*
X15029643Y-14686214D01*
X15001071Y-14729071D01*
X14972500Y-14757643D01*
X14943928Y-14771929D01*
X15215357Y-14686214D02*
X15401071Y-14686214D01*
X15301071Y-14800500D01*
X15343928Y-14800500D01*
X15372500Y-14814786D01*
X15386786Y-14829071D01*
X15401071Y-14857643D01*
X15401071Y-14929071D01*
X15386786Y-14957643D01*
X15372500Y-14971929D01*
X15343928Y-14986214D01*
X15258214Y-14986214D01*
X15229643Y-14971929D01*
X15215357Y-14957643D01*
X15758214Y-14986214D02*
X15758214Y-14686214D01*
X15886786Y-14986214D02*
X15886786Y-14829071D01*
X15872500Y-14800500D01*
X15843928Y-14786214D01*
X15801071Y-14786214D01*
X15772500Y-14800500D01*
X15758214Y-14814786D01*
X16072500Y-14986214D02*
X16043928Y-14971929D01*
X16029643Y-14957643D01*
X16015357Y-14929071D01*
X16015357Y-14843357D01*
X16029643Y-14814786D01*
X16043928Y-14800500D01*
X16072500Y-14786214D01*
X16115357Y-14786214D01*
X16143928Y-14800500D01*
X16158214Y-14814786D01*
X16172500Y-14843357D01*
X16172500Y-14929071D01*
X16158214Y-14957643D01*
X16143928Y-14971929D01*
X16115357Y-14986214D01*
X16072500Y-14986214D01*
X16343928Y-14986214D02*
X16315357Y-14971929D01*
X16301071Y-14943357D01*
X16301071Y-14686214D01*
X16572500Y-14971929D02*
X16543928Y-14986214D01*
X16486786Y-14986214D01*
X16458214Y-14971929D01*
X16443928Y-14943357D01*
X16443928Y-14829071D01*
X16458214Y-14800500D01*
X16486786Y-14786214D01*
X16543928Y-14786214D01*
X16572500Y-14800500D01*
X16586786Y-14829071D01*
X16586786Y-14857643D01*
X16443928Y-14886214D01*
X16701071Y-14971929D02*
X16729643Y-14986214D01*
X16786786Y-14986214D01*
X16815357Y-14971929D01*
X16829643Y-14943357D01*
X16829643Y-14929071D01*
X16815357Y-14900500D01*
X16786786Y-14886214D01*
X16743928Y-14886214D01*
X16715357Y-14871929D01*
X16701071Y-14843357D01*
X16701071Y-14829071D01*
X16715357Y-14800500D01*
X16743928Y-14786214D01*
X16786786Y-14786214D01*
X16815357Y-14800500D01*
X16929643Y-15100500D02*
X16943928Y-15086214D01*
X16972500Y-15043357D01*
X16986786Y-15014786D01*
X17001071Y-14971929D01*
X17015357Y-14900500D01*
X17015357Y-14843357D01*
X17001071Y-14771929D01*
X16986786Y-14729071D01*
X16972500Y-14700500D01*
X16943928Y-14657643D01*
X16929643Y-14643357D01*
X10097500Y-15306500D02*
X10157500Y-15246500D01*
X10097500Y-15186500D01*
X10037500Y-15246500D01*
X10097500Y-15306500D01*
X10601071Y-15382214D02*
X10429643Y-15382214D01*
X10515357Y-15382214D02*
X10515357Y-15082214D01*
X10486786Y-15125071D01*
X10458214Y-15153643D01*
X10429643Y-15167929D01*
X10729643Y-15353643D02*
X10743928Y-15367929D01*
X10729643Y-15382214D01*
X10715357Y-15367929D01*
X10729643Y-15353643D01*
X10729643Y-15382214D01*
X10858214Y-15110786D02*
X10872500Y-15096500D01*
X10901071Y-15082214D01*
X10972500Y-15082214D01*
X11001071Y-15096500D01*
X11015357Y-15110786D01*
X11029643Y-15139357D01*
X11029643Y-15167929D01*
X11015357Y-15210786D01*
X10843928Y-15382214D01*
X11029643Y-15382214D01*
X11215357Y-15082214D02*
X11243928Y-15082214D01*
X11272500Y-15096500D01*
X11286786Y-15110786D01*
X11301071Y-15139357D01*
X11315357Y-15196500D01*
X11315357Y-15267929D01*
X11301071Y-15325071D01*
X11286786Y-15353643D01*
X11272500Y-15367929D01*
X11243928Y-15382214D01*
X11215357Y-15382214D01*
X11186786Y-15367929D01*
X11172500Y-15353643D01*
X11158214Y-15325071D01*
X11143928Y-15267929D01*
X11143928Y-15196500D01*
X11158214Y-15139357D01*
X11172500Y-15110786D01*
X11186786Y-15096500D01*
X11215357Y-15082214D01*
X11443928Y-15382214D02*
X11443928Y-15182214D01*
X11443928Y-15210786D02*
X11458214Y-15196500D01*
X11486786Y-15182214D01*
X11529643Y-15182214D01*
X11558214Y-15196500D01*
X11572500Y-15225071D01*
X11572500Y-15382214D01*
X11572500Y-15225071D02*
X11586786Y-15196500D01*
X11615357Y-15182214D01*
X11658214Y-15182214D01*
X11686786Y-15196500D01*
X11701071Y-15225071D01*
X11701071Y-15382214D01*
X11843928Y-15382214D02*
X11843928Y-15182214D01*
X11843928Y-15210786D02*
X11858214Y-15196500D01*
X11886786Y-15182214D01*
X11929643Y-15182214D01*
X11958214Y-15196500D01*
X11972500Y-15225071D01*
X11972500Y-15382214D01*
X11972500Y-15225071D02*
X11986786Y-15196500D01*
X12015357Y-15182214D01*
X12058214Y-15182214D01*
X12086786Y-15196500D01*
X12101071Y-15225071D01*
X12101071Y-15382214D01*
X12686786Y-15067929D02*
X12429643Y-15453643D01*
X13072500Y-15082214D02*
X13101071Y-15082214D01*
X13129643Y-15096500D01*
X13143928Y-15110786D01*
X13158214Y-15139357D01*
X13172500Y-15196500D01*
X13172500Y-15267929D01*
X13158214Y-15325071D01*
X13143928Y-15353643D01*
X13129643Y-15367929D01*
X13101071Y-15382214D01*
X13072500Y-15382214D01*
X13043928Y-15367929D01*
X13029643Y-15353643D01*
X13015357Y-15325071D01*
X13001071Y-15267929D01*
X13001071Y-15196500D01*
X13015357Y-15139357D01*
X13029643Y-15110786D01*
X13043928Y-15096500D01*
X13072500Y-15082214D01*
X13301071Y-15353643D02*
X13315357Y-15367929D01*
X13301071Y-15382214D01*
X13286786Y-15367929D01*
X13301071Y-15353643D01*
X13301071Y-15382214D01*
X13501071Y-15082214D02*
X13529643Y-15082214D01*
X13558214Y-15096500D01*
X13572500Y-15110786D01*
X13586786Y-15139357D01*
X13601071Y-15196500D01*
X13601071Y-15267929D01*
X13586786Y-15325071D01*
X13572500Y-15353643D01*
X13558214Y-15367929D01*
X13529643Y-15382214D01*
X13501071Y-15382214D01*
X13472500Y-15367929D01*
X13458214Y-15353643D01*
X13443928Y-15325071D01*
X13429643Y-15267929D01*
X13429643Y-15196500D01*
X13443928Y-15139357D01*
X13458214Y-15110786D01*
X13472500Y-15096500D01*
X13501071Y-15082214D01*
X13858214Y-15182214D02*
X13858214Y-15382214D01*
X13786786Y-15067929D02*
X13715357Y-15282214D01*
X13901071Y-15282214D01*
X13986786Y-15082214D02*
X14186786Y-15082214D01*
X14058214Y-15382214D01*
X14286786Y-15082214D02*
X14286786Y-15139357D01*
X14401071Y-15082214D02*
X14401071Y-15139357D01*
X14843928Y-15496500D02*
X14829643Y-15482214D01*
X14801071Y-15439357D01*
X14786786Y-15410786D01*
X14772500Y-15367929D01*
X14758214Y-15296500D01*
X14758214Y-15239357D01*
X14772500Y-15167929D01*
X14786786Y-15125071D01*
X14801071Y-15096500D01*
X14829643Y-15053643D01*
X14843928Y-15039357D01*
X15086786Y-15182214D02*
X15086786Y-15382214D01*
X15015357Y-15067929D02*
X14943928Y-15282214D01*
X15129643Y-15282214D01*
X15472500Y-15382214D02*
X15472500Y-15082214D01*
X15601071Y-15382214D02*
X15601071Y-15225071D01*
X15586786Y-15196500D01*
X15558214Y-15182214D01*
X15515357Y-15182214D01*
X15486786Y-15196500D01*
X15472500Y-15210786D01*
X15786786Y-15382214D02*
X15758214Y-15367929D01*
X15743928Y-15353643D01*
X15729643Y-15325071D01*
X15729643Y-15239357D01*
X15743928Y-15210786D01*
X15758214Y-15196500D01*
X15786786Y-15182214D01*
X15829643Y-15182214D01*
X15858214Y-15196500D01*
X15872500Y-15210786D01*
X15886786Y-15239357D01*
X15886786Y-15325071D01*
X15872500Y-15353643D01*
X15858214Y-15367929D01*
X15829643Y-15382214D01*
X15786786Y-15382214D01*
X16058214Y-15382214D02*
X16029643Y-15367929D01*
X16015357Y-15339357D01*
X16015357Y-15082214D01*
X16286786Y-15367929D02*
X16258214Y-15382214D01*
X16201071Y-15382214D01*
X16172500Y-15367929D01*
X16158214Y-15339357D01*
X16158214Y-15225071D01*
X16172500Y-15196500D01*
X16201071Y-15182214D01*
X16258214Y-15182214D01*
X16286786Y-15196500D01*
X16301071Y-15225071D01*
X16301071Y-15253643D01*
X16158214Y-15282214D01*
X16415357Y-15367929D02*
X16443928Y-15382214D01*
X16501071Y-15382214D01*
X16529643Y-15367929D01*
X16543928Y-15339357D01*
X16543928Y-15325071D01*
X16529643Y-15296500D01*
X16501071Y-15282214D01*
X16458214Y-15282214D01*
X16429643Y-15267929D01*
X16415357Y-15239357D01*
X16415357Y-15225071D01*
X16429643Y-15196500D01*
X16458214Y-15182214D01*
X16501071Y-15182214D01*
X16529643Y-15196500D01*
X16643928Y-15496500D02*
X16658214Y-15482214D01*
X16686786Y-15439357D01*
X16701071Y-15410786D01*
X16715357Y-15367929D01*
X16729643Y-15296500D01*
X16729643Y-15239357D01*
X16715357Y-15167929D01*
X16701071Y-15125071D01*
X16686786Y-15096500D01*
X16658214Y-15053643D01*
X16643928Y-15039357D01*
X10027500Y-15577500D02*
X10157500Y-15707500D01*
X10157500Y-15577500D02*
X10027500Y-15707500D01*
X10157500Y-15642500D02*
G75*
G03*
X10157500Y-15642500I-65000J0D01*
G01*
X10601071Y-15778214D02*
X10429643Y-15778214D01*
X10515357Y-15778214D02*
X10515357Y-15478214D01*
X10486786Y-15521071D01*
X10458214Y-15549643D01*
X10429643Y-15563929D01*
X10729643Y-15749643D02*
X10743928Y-15763929D01*
X10729643Y-15778214D01*
X10715357Y-15763929D01*
X10729643Y-15749643D01*
X10729643Y-15778214D01*
X10843928Y-15478214D02*
X11029643Y-15478214D01*
X10929643Y-15592500D01*
X10972500Y-15592500D01*
X11001071Y-15606786D01*
X11015357Y-15621071D01*
X11029643Y-15649643D01*
X11029643Y-15721071D01*
X11015357Y-15749643D01*
X11001071Y-15763929D01*
X10972500Y-15778214D01*
X10886786Y-15778214D01*
X10858214Y-15763929D01*
X10843928Y-15749643D01*
X11215357Y-15478214D02*
X11243928Y-15478214D01*
X11272500Y-15492500D01*
X11286786Y-15506786D01*
X11301071Y-15535357D01*
X11315357Y-15592500D01*
X11315357Y-15663929D01*
X11301071Y-15721071D01*
X11286786Y-15749643D01*
X11272500Y-15763929D01*
X11243928Y-15778214D01*
X11215357Y-15778214D01*
X11186786Y-15763929D01*
X11172500Y-15749643D01*
X11158214Y-15721071D01*
X11143928Y-15663929D01*
X11143928Y-15592500D01*
X11158214Y-15535357D01*
X11172500Y-15506786D01*
X11186786Y-15492500D01*
X11215357Y-15478214D01*
X11443928Y-15778214D02*
X11443928Y-15578214D01*
X11443928Y-15606786D02*
X11458214Y-15592500D01*
X11486786Y-15578214D01*
X11529643Y-15578214D01*
X11558214Y-15592500D01*
X11572500Y-15621071D01*
X11572500Y-15778214D01*
X11572500Y-15621071D02*
X11586786Y-15592500D01*
X11615357Y-15578214D01*
X11658214Y-15578214D01*
X11686786Y-15592500D01*
X11701071Y-15621071D01*
X11701071Y-15778214D01*
X11843928Y-15778214D02*
X11843928Y-15578214D01*
X11843928Y-15606786D02*
X11858214Y-15592500D01*
X11886786Y-15578214D01*
X11929643Y-15578214D01*
X11958214Y-15592500D01*
X11972500Y-15621071D01*
X11972500Y-15778214D01*
X11972500Y-15621071D02*
X11986786Y-15592500D01*
X12015357Y-15578214D01*
X12058214Y-15578214D01*
X12086786Y-15592500D01*
X12101071Y-15621071D01*
X12101071Y-15778214D01*
X12686786Y-15463929D02*
X12429643Y-15849643D01*
X13072500Y-15478214D02*
X13101071Y-15478214D01*
X13129643Y-15492500D01*
X13143928Y-15506786D01*
X13158214Y-15535357D01*
X13172500Y-15592500D01*
X13172500Y-15663929D01*
X13158214Y-15721071D01*
X13143928Y-15749643D01*
X13129643Y-15763929D01*
X13101071Y-15778214D01*
X13072500Y-15778214D01*
X13043928Y-15763929D01*
X13029643Y-15749643D01*
X13015357Y-15721071D01*
X13001071Y-15663929D01*
X13001071Y-15592500D01*
X13015357Y-15535357D01*
X13029643Y-15506786D01*
X13043928Y-15492500D01*
X13072500Y-15478214D01*
X13301071Y-15749643D02*
X13315357Y-15763929D01*
X13301071Y-15778214D01*
X13286786Y-15763929D01*
X13301071Y-15749643D01*
X13301071Y-15778214D01*
X13501071Y-15478214D02*
X13529643Y-15478214D01*
X13558214Y-15492500D01*
X13572500Y-15506786D01*
X13586786Y-15535357D01*
X13601071Y-15592500D01*
X13601071Y-15663929D01*
X13586786Y-15721071D01*
X13572500Y-15749643D01*
X13558214Y-15763929D01*
X13529643Y-15778214D01*
X13501071Y-15778214D01*
X13472500Y-15763929D01*
X13458214Y-15749643D01*
X13443928Y-15721071D01*
X13429643Y-15663929D01*
X13429643Y-15592500D01*
X13443928Y-15535357D01*
X13458214Y-15506786D01*
X13472500Y-15492500D01*
X13501071Y-15478214D01*
X13872500Y-15478214D02*
X13729643Y-15478214D01*
X13715357Y-15621071D01*
X13729643Y-15606786D01*
X13758214Y-15592500D01*
X13829643Y-15592500D01*
X13858214Y-15606786D01*
X13872500Y-15621071D01*
X13886786Y-15649643D01*
X13886786Y-15721071D01*
X13872500Y-15749643D01*
X13858214Y-15763929D01*
X13829643Y-15778214D01*
X13758214Y-15778214D01*
X13729643Y-15763929D01*
X13715357Y-15749643D01*
X14172500Y-15778214D02*
X14001071Y-15778214D01*
X14086786Y-15778214D02*
X14086786Y-15478214D01*
X14058214Y-15521071D01*
X14029643Y-15549643D01*
X14001071Y-15563929D01*
X14286786Y-15478214D02*
X14286786Y-15535357D01*
X14401071Y-15478214D02*
X14401071Y-15535357D01*
X14843928Y-15892500D02*
X14829643Y-15878214D01*
X14801071Y-15835357D01*
X14786786Y-15806786D01*
X14772500Y-15763929D01*
X14758214Y-15692500D01*
X14758214Y-15635357D01*
X14772500Y-15563929D01*
X14786786Y-15521071D01*
X14801071Y-15492500D01*
X14829643Y-15449643D01*
X14843928Y-15435357D01*
X15086786Y-15478214D02*
X15029643Y-15478214D01*
X15001071Y-15492500D01*
X14986786Y-15506786D01*
X14958214Y-15549643D01*
X14943928Y-15606786D01*
X14943928Y-15721071D01*
X14958214Y-15749643D01*
X14972500Y-15763929D01*
X15001071Y-15778214D01*
X15058214Y-15778214D01*
X15086786Y-15763929D01*
X15101071Y-15749643D01*
X15115357Y-15721071D01*
X15115357Y-15649643D01*
X15101071Y-15621071D01*
X15086786Y-15606786D01*
X15058214Y-15592500D01*
X15001071Y-15592500D01*
X14972500Y-15606786D01*
X14958214Y-15621071D01*
X14943928Y-15649643D01*
X15472500Y-15778214D02*
X15472500Y-15478214D01*
X15601071Y-15778214D02*
X15601071Y-15621071D01*
X15586786Y-15592500D01*
X15558214Y-15578214D01*
X15515357Y-15578214D01*
X15486786Y-15592500D01*
X15472500Y-15606786D01*
X15786786Y-15778214D02*
X15758214Y-15763929D01*
X15743928Y-15749643D01*
X15729643Y-15721071D01*
X15729643Y-15635357D01*
X15743928Y-15606786D01*
X15758214Y-15592500D01*
X15786786Y-15578214D01*
X15829643Y-15578214D01*
X15858214Y-15592500D01*
X15872500Y-15606786D01*
X15886786Y-15635357D01*
X15886786Y-15721071D01*
X15872500Y-15749643D01*
X15858214Y-15763929D01*
X15829643Y-15778214D01*
X15786786Y-15778214D01*
X16058214Y-15778214D02*
X16029643Y-15763929D01*
X16015357Y-15735357D01*
X16015357Y-15478214D01*
X16286786Y-15763929D02*
X16258214Y-15778214D01*
X16201071Y-15778214D01*
X16172500Y-15763929D01*
X16158214Y-15735357D01*
X16158214Y-15621071D01*
X16172500Y-15592500D01*
X16201071Y-15578214D01*
X16258214Y-15578214D01*
X16286786Y-15592500D01*
X16301071Y-15621071D01*
X16301071Y-15649643D01*
X16158214Y-15678214D01*
X16415357Y-15763929D02*
X16443928Y-15778214D01*
X16501071Y-15778214D01*
X16529643Y-15763929D01*
X16543928Y-15735357D01*
X16543928Y-15721071D01*
X16529643Y-15692500D01*
X16501071Y-15678214D01*
X16458214Y-15678214D01*
X16429643Y-15663929D01*
X16415357Y-15635357D01*
X16415357Y-15621071D01*
X16429643Y-15592500D01*
X16458214Y-15578214D01*
X16501071Y-15578214D01*
X16529643Y-15592500D01*
X16643928Y-15892500D02*
X16658214Y-15878214D01*
X16686786Y-15835357D01*
X16701071Y-15806786D01*
X16715357Y-15763929D01*
X16729643Y-15692500D01*
X16729643Y-15635357D01*
X16715357Y-15563929D01*
X16701071Y-15521071D01*
X16686786Y-15492500D01*
X16658214Y-15449643D01*
X16643928Y-15435357D01*
M02*
