%TF.GenerationSoftware,KiCad,Pcbnew,(5.1.9)-1*%
%TF.CreationDate,2021-06-30T13:01:53+01:00*%
%TF.ProjectId,bikepixel rear,62696b65-7069-4786-956c-20726561722e,v0.5*%
%TF.SameCoordinates,Original*%
%TF.FileFunction,Soldermask,Top*%
%TF.FilePolarity,Negative*%
%FSLAX46Y46*%
G04 Gerber Fmt 4.6, Leading zero omitted, Abs format (unit mm)*
G04 Created by KiCad (PCBNEW (5.1.9)-1) date 2021-06-30 13:01:53*
%MOMM*%
%LPD*%
G01*
G04 APERTURE LIST*
%ADD10C,0.010000*%
%ADD11C,2.000000*%
%ADD12C,2.100000*%
%ADD13C,1.750000*%
%ADD14C,1.600000*%
%ADD15R,1.700000X1.700000*%
%ADD16O,1.700000X1.700000*%
%ADD17O,1.600000X1.600000*%
%ADD18C,1.524000*%
G04 APERTURE END LIST*
D10*
%TO.C,CERN OHL v.1.2*%
G36*
X112261650Y-96926400D02*
G01*
X111544100Y-96926400D01*
X111544100Y-96202500D01*
X112261650Y-96202500D01*
X112261650Y-96926400D01*
G37*
X112261650Y-96926400D02*
X111544100Y-96926400D01*
X111544100Y-96202500D01*
X112261650Y-96202500D01*
X112261650Y-96926400D01*
G36*
X111372650Y-96926400D02*
G01*
X110648750Y-96926400D01*
X110648750Y-96202500D01*
X111372650Y-96202500D01*
X111372650Y-96926400D01*
G37*
X111372650Y-96926400D02*
X110648750Y-96926400D01*
X110648750Y-96202500D01*
X111372650Y-96202500D01*
X111372650Y-96926400D01*
G36*
X106902250Y-96926400D02*
G01*
X106184700Y-96926400D01*
X106184700Y-96202500D01*
X106902250Y-96202500D01*
X106902250Y-96926400D01*
G37*
X106902250Y-96926400D02*
X106184700Y-96926400D01*
X106184700Y-96202500D01*
X106902250Y-96202500D01*
X106902250Y-96926400D01*
G36*
X112261650Y-98710750D02*
G01*
X111544100Y-98710750D01*
X111544100Y-97986850D01*
X112261650Y-97986850D01*
X112261650Y-98710750D01*
G37*
X112261650Y-98710750D02*
X111544100Y-98710750D01*
X111544100Y-97986850D01*
X112261650Y-97986850D01*
X112261650Y-98710750D01*
G36*
X111372650Y-98710750D02*
G01*
X110648750Y-98710750D01*
X110648750Y-97986850D01*
X111372650Y-97986850D01*
X111372650Y-98710750D01*
G37*
X111372650Y-98710750D02*
X110648750Y-98710750D01*
X110648750Y-97986850D01*
X111372650Y-97986850D01*
X111372650Y-98710750D01*
G36*
X107797600Y-98710750D02*
G01*
X107073700Y-98710750D01*
X107073700Y-97986850D01*
X107797600Y-97986850D01*
X107797600Y-98710750D01*
G37*
X107797600Y-98710750D02*
X107073700Y-98710750D01*
X107073700Y-97986850D01*
X107797600Y-97986850D01*
X107797600Y-98710750D01*
G36*
X106902250Y-98710750D02*
G01*
X106184700Y-98710750D01*
X106184700Y-97986850D01*
X106902250Y-97986850D01*
X106902250Y-98710750D01*
G37*
X106902250Y-98710750D02*
X106184700Y-98710750D01*
X106184700Y-97986850D01*
X106902250Y-97986850D01*
X106902250Y-98710750D01*
G36*
X113157000Y-99606100D02*
G01*
X112799283Y-99606100D01*
X112733043Y-99606026D01*
X112670633Y-99605816D01*
X112613203Y-99605482D01*
X112561903Y-99605038D01*
X112517886Y-99604496D01*
X112482300Y-99603872D01*
X112456297Y-99603177D01*
X112441027Y-99602426D01*
X112437333Y-99601866D01*
X112436550Y-99594906D01*
X112435814Y-99576396D01*
X112435138Y-99547488D01*
X112434536Y-99509332D01*
X112434022Y-99463078D01*
X112433608Y-99409877D01*
X112433308Y-99350880D01*
X112433137Y-99287238D01*
X112433100Y-99239916D01*
X112433100Y-98882200D01*
X113157000Y-98882200D01*
X113157000Y-99606100D01*
G37*
X113157000Y-99606100D02*
X112799283Y-99606100D01*
X112733043Y-99606026D01*
X112670633Y-99605816D01*
X112613203Y-99605482D01*
X112561903Y-99605038D01*
X112517886Y-99604496D01*
X112482300Y-99603872D01*
X112456297Y-99603177D01*
X112441027Y-99602426D01*
X112437333Y-99601866D01*
X112436550Y-99594906D01*
X112435814Y-99576396D01*
X112435138Y-99547488D01*
X112434536Y-99509332D01*
X112434022Y-99463078D01*
X112433608Y-99409877D01*
X112433308Y-99350880D01*
X112433137Y-99287238D01*
X112433100Y-99239916D01*
X112433100Y-98882200D01*
X113157000Y-98882200D01*
X113157000Y-99606100D01*
G36*
X110477300Y-99606100D02*
G01*
X109753400Y-99606100D01*
X109753400Y-98882200D01*
X110477300Y-98882200D01*
X110477300Y-99606100D01*
G37*
X110477300Y-99606100D02*
X109753400Y-99606100D01*
X109753400Y-98882200D01*
X110477300Y-98882200D01*
X110477300Y-99606100D01*
G36*
X108692950Y-99606100D02*
G01*
X107969050Y-99606100D01*
X107969050Y-98882200D01*
X108692950Y-98882200D01*
X108692950Y-99606100D01*
G37*
X108692950Y-99606100D02*
X107969050Y-99606100D01*
X107969050Y-98882200D01*
X108692950Y-98882200D01*
X108692950Y-99606100D01*
G36*
X106011714Y-99242562D02*
G01*
X106010075Y-99602925D01*
X105649712Y-99604564D01*
X105289350Y-99606204D01*
X105289350Y-98882200D01*
X106013354Y-98882200D01*
X106011714Y-99242562D01*
G37*
X106011714Y-99242562D02*
X106010075Y-99602925D01*
X105649712Y-99604564D01*
X105289350Y-99606204D01*
X105289350Y-98882200D01*
X106013354Y-98882200D01*
X106011714Y-99242562D01*
G36*
X113157000Y-100495100D02*
G01*
X112433100Y-100495100D01*
X112433100Y-99777550D01*
X113157000Y-99777550D01*
X113157000Y-100495100D01*
G37*
X113157000Y-100495100D02*
X112433100Y-100495100D01*
X112433100Y-99777550D01*
X113157000Y-99777550D01*
X113157000Y-100495100D01*
G36*
X110477300Y-100495100D02*
G01*
X109753400Y-100495100D01*
X109753400Y-99777550D01*
X110477300Y-99777550D01*
X110477300Y-100495100D01*
G37*
X110477300Y-100495100D02*
X109753400Y-100495100D01*
X109753400Y-99777550D01*
X110477300Y-99777550D01*
X110477300Y-100495100D01*
G36*
X108692950Y-100495100D02*
G01*
X107969050Y-100495100D01*
X107969050Y-99777550D01*
X108692950Y-99777550D01*
X108692950Y-100495100D01*
G37*
X108692950Y-100495100D02*
X107969050Y-100495100D01*
X107969050Y-99777550D01*
X108692950Y-99777550D01*
X108692950Y-100495100D01*
G36*
X106013250Y-100495100D02*
G01*
X105289350Y-100495100D01*
X105289350Y-99777550D01*
X106013250Y-99777550D01*
X106013250Y-100495100D01*
G37*
X106013250Y-100495100D02*
X105289350Y-100495100D01*
X105289350Y-99777550D01*
X106013250Y-99777550D01*
X106013250Y-100495100D01*
G36*
X112261650Y-101390450D02*
G01*
X111544100Y-101390450D01*
X111544100Y-100666550D01*
X112261650Y-100666550D01*
X112261650Y-101390450D01*
G37*
X112261650Y-101390450D02*
X111544100Y-101390450D01*
X111544100Y-100666550D01*
X112261650Y-100666550D01*
X112261650Y-101390450D01*
G36*
X111372650Y-101390450D02*
G01*
X110648750Y-101390450D01*
X110648750Y-100666550D01*
X111372650Y-100666550D01*
X111372650Y-101390450D01*
G37*
X111372650Y-101390450D02*
X110648750Y-101390450D01*
X110648750Y-100666550D01*
X111372650Y-100666550D01*
X111372650Y-101390450D01*
G36*
X107797600Y-101390450D02*
G01*
X107073700Y-101390450D01*
X107073700Y-100666550D01*
X107797600Y-100666550D01*
X107797600Y-101390450D01*
G37*
X107797600Y-101390450D02*
X107073700Y-101390450D01*
X107073700Y-100666550D01*
X107797600Y-100666550D01*
X107797600Y-101390450D01*
G36*
X106902250Y-101390450D02*
G01*
X106184700Y-101390450D01*
X106184700Y-100666550D01*
X106902250Y-100666550D01*
X106902250Y-101390450D01*
G37*
X106902250Y-101390450D02*
X106184700Y-101390450D01*
X106184700Y-100666550D01*
X106902250Y-100666550D01*
X106902250Y-101390450D01*
%TD*%
D11*
%TO.C,H3*%
X182245000Y-107315000D03*
%TD*%
%TO.C,H4*%
X182245000Y-91313000D03*
%TD*%
%TO.C,H2*%
X106299000Y-107315000D03*
%TD*%
%TO.C,H1*%
X106299000Y-91313000D03*
%TD*%
D12*
%TO.C,SW2*%
X163175000Y-104063000D03*
D13*
X161925000Y-106553000D03*
X157425000Y-106553000D03*
D12*
X156165000Y-104063000D03*
%TD*%
D14*
%TO.C,C1*%
X167894000Y-95631000D03*
X167894000Y-99131000D03*
%TD*%
D15*
%TO.C,J1*%
X109855000Y-91821000D03*
D16*
X112395000Y-91821000D03*
X114935000Y-91821000D03*
%TD*%
D15*
%TO.C,J2*%
X136652000Y-91821000D03*
D16*
X139192000Y-91821000D03*
X141732000Y-91821000D03*
X144272000Y-91821000D03*
X146812000Y-91821000D03*
X149352000Y-91821000D03*
X151892000Y-91821000D03*
%TD*%
%TO.C,J3*%
X178689000Y-91821000D03*
X176149000Y-91821000D03*
D15*
X173609000Y-91821000D03*
%TD*%
D17*
%TO.C,R1*%
X131699000Y-91821000D03*
D14*
X124079000Y-91821000D03*
%TD*%
%TO.C,R2*%
X124079000Y-97091500D03*
D17*
X131699000Y-97091500D03*
%TD*%
%TO.C,R3*%
X139192000Y-96647000D03*
D14*
X139192000Y-104267000D03*
%TD*%
%TO.C,R4*%
X144272000Y-104203500D03*
D17*
X144272000Y-96583500D03*
%TD*%
%TO.C,R5*%
X149352000Y-96583500D03*
D14*
X149352000Y-104203500D03*
%TD*%
%TO.C,R6*%
X155575000Y-91821000D03*
D17*
X163195000Y-91821000D03*
%TD*%
D18*
%TO.C,SW0*%
X109982000Y-105029000D03*
X112522000Y-105029000D03*
X115062000Y-105029000D03*
%TD*%
D12*
%TO.C,SW1*%
X125431000Y-104063000D03*
D13*
X126691000Y-106553000D03*
X131191000Y-106553000D03*
D12*
X132441000Y-104063000D03*
%TD*%
%TO.C,SW3*%
X172167000Y-104063000D03*
D13*
X173427000Y-106553000D03*
X177927000Y-106553000D03*
D12*
X179177000Y-104063000D03*
%TD*%
M02*
