%TF.GenerationSoftware,KiCad,Pcbnew,(5.1.9)-1*%
%TF.CreationDate,2021-06-14T22:58:48+01:00*%
%TF.ProjectId,bikepixel rear,62696b65-7069-4786-956c-20726561722e,v0.5*%
%TF.SameCoordinates,Original*%
%TF.FileFunction,Legend,Top*%
%TF.FilePolarity,Positive*%
%FSLAX46Y46*%
G04 Gerber Fmt 4.6, Leading zero omitted, Abs format (unit mm)*
G04 Created by KiCad (PCBNEW (5.1.9)-1) date 2021-06-14 22:58:48*
%MOMM*%
%LPD*%
G01*
G04 APERTURE LIST*
%ADD10C,0.010000*%
%ADD11C,0.120000*%
%ADD12C,0.240000*%
%ADD13C,0.076200*%
%ADD14C,0.101600*%
G04 APERTURE END LIST*
D10*
%TO.C,Bike Pixel Rear v0.5*%
G36*
X105117900Y-114579400D02*
G01*
X104400350Y-114579400D01*
X104400350Y-113855500D01*
X105117900Y-113855500D01*
X105117900Y-114579400D01*
G37*
X105117900Y-114579400D02*
X104400350Y-114579400D01*
X104400350Y-113855500D01*
X105117900Y-113855500D01*
X105117900Y-114579400D01*
G36*
X108692950Y-115468400D02*
G01*
X107968945Y-115468400D01*
X107970585Y-115108037D01*
X107972225Y-114747675D01*
X108332587Y-114746035D01*
X108692950Y-114744395D01*
X108692950Y-115468400D01*
G37*
X108692950Y-115468400D02*
X107968945Y-115468400D01*
X107970585Y-115108037D01*
X107972225Y-114747675D01*
X108332587Y-114746035D01*
X108692950Y-114744395D01*
X108692950Y-115468400D01*
G36*
X107440412Y-114746035D02*
G01*
X107800775Y-114747675D01*
X107802414Y-115108037D01*
X107804054Y-115468400D01*
X107080050Y-115468400D01*
X107080050Y-114744395D01*
X107440412Y-114746035D01*
G37*
X107440412Y-114746035D02*
X107800775Y-114747675D01*
X107802414Y-115108037D01*
X107804054Y-115468400D01*
X107080050Y-115468400D01*
X107080050Y-114744395D01*
X107440412Y-114746035D01*
G36*
X106907064Y-115108037D02*
G01*
X106908704Y-115468400D01*
X106184595Y-115468400D01*
X106186235Y-115108037D01*
X106187875Y-114747675D01*
X106905425Y-114747675D01*
X106907064Y-115108037D01*
G37*
X106907064Y-115108037D02*
X106908704Y-115468400D01*
X106184595Y-115468400D01*
X106186235Y-115108037D01*
X106187875Y-114747675D01*
X106905425Y-114747675D01*
X106907064Y-115108037D01*
G36*
X106013250Y-115468400D02*
G01*
X105289245Y-115468400D01*
X105290885Y-115108037D01*
X105292525Y-114747675D01*
X105652887Y-114746035D01*
X106013250Y-114744395D01*
X106013250Y-115468400D01*
G37*
X106013250Y-115468400D02*
X105289245Y-115468400D01*
X105290885Y-115108037D01*
X105292525Y-114747675D01*
X105652887Y-114746035D01*
X106013250Y-114744395D01*
X106013250Y-115468400D01*
G36*
X105117900Y-115468400D02*
G01*
X104400350Y-115468400D01*
X104400350Y-114744500D01*
X105117900Y-114744500D01*
X105117900Y-115468400D01*
G37*
X105117900Y-115468400D02*
X104400350Y-115468400D01*
X104400350Y-114744500D01*
X105117900Y-114744500D01*
X105117900Y-115468400D01*
G36*
X109150150Y-117690900D02*
G01*
X108426145Y-117690900D01*
X108427785Y-117330537D01*
X108429425Y-116970175D01*
X108789787Y-116968535D01*
X109150150Y-116966895D01*
X109150150Y-117690900D01*
G37*
X109150150Y-117690900D02*
X108426145Y-117690900D01*
X108427785Y-117330537D01*
X108429425Y-116970175D01*
X108789787Y-116968535D01*
X109150150Y-116966895D01*
X109150150Y-117690900D01*
G36*
X104322562Y-116968535D02*
G01*
X104682925Y-116970175D01*
X104684564Y-117330537D01*
X104686204Y-117690900D01*
X103962200Y-117690900D01*
X103962200Y-116966895D01*
X104322562Y-116968535D01*
G37*
X104322562Y-116968535D02*
X104682925Y-116970175D01*
X104684564Y-117330537D01*
X104686204Y-117690900D01*
X103962200Y-117690900D01*
X103962200Y-116966895D01*
X104322562Y-116968535D01*
%TO.C,OSHW*%
G36*
X178355814Y-113038931D02*
G01*
X178439635Y-113483555D01*
X178748920Y-113611053D01*
X179058206Y-113738551D01*
X179429246Y-113486246D01*
X179533157Y-113415996D01*
X179627087Y-113353272D01*
X179706652Y-113300938D01*
X179767470Y-113261857D01*
X179805157Y-113238893D01*
X179815421Y-113233942D01*
X179833910Y-113246676D01*
X179873420Y-113281882D01*
X179929522Y-113335062D01*
X179997787Y-113401718D01*
X180073786Y-113477354D01*
X180153092Y-113557472D01*
X180231275Y-113637574D01*
X180303907Y-113713164D01*
X180366559Y-113779745D01*
X180414803Y-113832818D01*
X180444210Y-113867887D01*
X180451241Y-113879623D01*
X180441123Y-113901260D01*
X180412759Y-113948662D01*
X180369129Y-114017193D01*
X180313218Y-114102215D01*
X180248006Y-114199093D01*
X180210219Y-114254350D01*
X180141343Y-114355248D01*
X180080140Y-114446299D01*
X180029578Y-114522970D01*
X179992628Y-114580728D01*
X179972258Y-114615043D01*
X179969197Y-114622254D01*
X179976136Y-114642748D01*
X179995051Y-114690513D01*
X180023087Y-114758832D01*
X180057391Y-114840989D01*
X180095109Y-114930270D01*
X180133387Y-115019958D01*
X180169370Y-115103338D01*
X180200206Y-115173694D01*
X180223039Y-115224310D01*
X180235017Y-115248471D01*
X180235724Y-115249422D01*
X180254531Y-115254036D01*
X180304618Y-115264328D01*
X180380793Y-115279287D01*
X180477865Y-115297901D01*
X180590643Y-115319159D01*
X180656442Y-115331418D01*
X180776950Y-115354362D01*
X180885797Y-115376195D01*
X180977476Y-115395722D01*
X181046481Y-115411748D01*
X181087304Y-115423079D01*
X181095511Y-115426674D01*
X181103548Y-115451006D01*
X181110033Y-115505959D01*
X181114970Y-115585108D01*
X181118364Y-115682026D01*
X181120218Y-115790287D01*
X181120538Y-115903465D01*
X181119327Y-116015135D01*
X181116590Y-116118868D01*
X181112331Y-116208241D01*
X181106555Y-116276826D01*
X181099267Y-116318197D01*
X181094895Y-116326810D01*
X181068764Y-116337133D01*
X181013393Y-116351892D01*
X180936107Y-116369352D01*
X180844230Y-116387780D01*
X180812158Y-116393741D01*
X180657524Y-116422066D01*
X180535375Y-116444876D01*
X180441673Y-116463080D01*
X180372384Y-116477583D01*
X180323471Y-116489292D01*
X180290897Y-116499115D01*
X180270628Y-116507956D01*
X180258626Y-116516724D01*
X180256947Y-116518457D01*
X180240184Y-116546371D01*
X180214614Y-116600695D01*
X180182788Y-116674777D01*
X180147260Y-116761965D01*
X180110583Y-116855608D01*
X180075311Y-116949052D01*
X180043996Y-117035647D01*
X180019193Y-117108740D01*
X180003454Y-117161678D01*
X179999332Y-117187811D01*
X179999676Y-117188726D01*
X180013641Y-117210086D01*
X180045322Y-117257084D01*
X180091391Y-117324827D01*
X180148518Y-117408423D01*
X180213373Y-117502982D01*
X180231843Y-117529854D01*
X180297699Y-117627275D01*
X180355650Y-117716163D01*
X180402538Y-117791412D01*
X180435207Y-117847920D01*
X180450500Y-117880581D01*
X180451241Y-117884593D01*
X180438392Y-117905684D01*
X180402888Y-117947464D01*
X180349293Y-118005445D01*
X180282171Y-118075135D01*
X180206087Y-118152045D01*
X180125604Y-118231683D01*
X180045287Y-118309561D01*
X179969699Y-118381186D01*
X179903405Y-118442070D01*
X179850969Y-118487721D01*
X179816955Y-118513650D01*
X179807545Y-118517883D01*
X179785643Y-118507912D01*
X179740800Y-118481020D01*
X179680321Y-118441736D01*
X179633789Y-118410117D01*
X179549475Y-118352098D01*
X179449626Y-118283784D01*
X179349473Y-118215579D01*
X179295627Y-118179075D01*
X179113371Y-118055800D01*
X178960381Y-118138520D01*
X178890682Y-118174759D01*
X178831414Y-118202926D01*
X178791311Y-118218991D01*
X178781103Y-118221226D01*
X178768829Y-118204722D01*
X178744613Y-118158082D01*
X178710263Y-118085609D01*
X178667588Y-117991606D01*
X178618394Y-117880374D01*
X178564490Y-117756215D01*
X178507684Y-117623432D01*
X178449782Y-117486327D01*
X178392593Y-117349202D01*
X178337924Y-117216358D01*
X178287584Y-117092098D01*
X178243380Y-116980725D01*
X178207119Y-116886539D01*
X178180609Y-116813844D01*
X178165658Y-116766941D01*
X178163254Y-116750833D01*
X178182311Y-116730286D01*
X178224036Y-116696933D01*
X178279706Y-116657702D01*
X178284378Y-116654599D01*
X178428264Y-116539423D01*
X178544283Y-116405053D01*
X178631430Y-116255784D01*
X178688699Y-116095913D01*
X178715086Y-115929737D01*
X178709585Y-115761552D01*
X178671190Y-115595655D01*
X178598895Y-115436342D01*
X178577626Y-115401487D01*
X178466996Y-115260737D01*
X178336302Y-115147714D01*
X178190064Y-115063003D01*
X178032808Y-115007194D01*
X177869057Y-114980874D01*
X177703333Y-114984630D01*
X177540162Y-115019050D01*
X177384065Y-115084723D01*
X177239567Y-115182235D01*
X177194869Y-115221813D01*
X177081112Y-115345703D01*
X176998218Y-115476124D01*
X176941356Y-115622315D01*
X176909687Y-115767088D01*
X176901869Y-115929860D01*
X176927938Y-116093440D01*
X176985245Y-116252298D01*
X177071144Y-116400906D01*
X177182986Y-116533735D01*
X177318123Y-116645256D01*
X177335883Y-116657011D01*
X177392150Y-116695508D01*
X177434923Y-116728863D01*
X177455372Y-116750160D01*
X177455669Y-116750833D01*
X177451279Y-116773871D01*
X177433876Y-116826157D01*
X177405268Y-116903390D01*
X177367265Y-117001268D01*
X177321674Y-117115491D01*
X177270303Y-117241758D01*
X177214962Y-117375767D01*
X177157458Y-117513218D01*
X177099601Y-117649808D01*
X177043198Y-117781237D01*
X176990058Y-117903205D01*
X176941990Y-118011409D01*
X176900801Y-118101549D01*
X176868301Y-118169323D01*
X176846297Y-118210430D01*
X176837436Y-118221226D01*
X176810360Y-118212819D01*
X176759697Y-118190272D01*
X176694183Y-118157613D01*
X176658159Y-118138520D01*
X176505168Y-118055800D01*
X176322912Y-118179075D01*
X176229875Y-118242228D01*
X176128015Y-118311727D01*
X176032562Y-118377165D01*
X175984750Y-118410117D01*
X175917505Y-118455273D01*
X175860564Y-118491057D01*
X175821354Y-118512938D01*
X175808619Y-118517563D01*
X175790083Y-118505085D01*
X175749059Y-118470252D01*
X175689525Y-118416678D01*
X175615458Y-118347983D01*
X175530835Y-118267781D01*
X175477315Y-118216286D01*
X175383681Y-118124286D01*
X175302759Y-118041999D01*
X175237823Y-117972945D01*
X175192142Y-117920644D01*
X175168989Y-117888616D01*
X175166768Y-117882116D01*
X175177076Y-117857394D01*
X175205561Y-117807405D01*
X175249063Y-117737212D01*
X175304423Y-117651875D01*
X175368480Y-117556456D01*
X175386697Y-117529854D01*
X175453073Y-117433167D01*
X175512622Y-117346117D01*
X175562016Y-117273595D01*
X175597925Y-117220493D01*
X175617019Y-117191703D01*
X175618864Y-117188726D01*
X175616105Y-117165782D01*
X175601462Y-117115336D01*
X175577487Y-117044041D01*
X175546734Y-116958547D01*
X175511756Y-116865507D01*
X175475107Y-116771574D01*
X175439339Y-116683399D01*
X175407006Y-116607634D01*
X175380662Y-116550931D01*
X175362858Y-116519943D01*
X175361593Y-116518457D01*
X175350706Y-116509601D01*
X175332318Y-116500843D01*
X175302394Y-116491277D01*
X175256897Y-116479996D01*
X175191791Y-116466093D01*
X175103039Y-116448663D01*
X174986607Y-116426798D01*
X174838458Y-116399591D01*
X174806382Y-116393741D01*
X174711314Y-116375374D01*
X174628435Y-116357405D01*
X174565070Y-116341569D01*
X174528542Y-116329600D01*
X174523644Y-116326810D01*
X174515573Y-116302072D01*
X174509013Y-116246790D01*
X174503967Y-116167389D01*
X174500441Y-116070296D01*
X174498439Y-115961938D01*
X174497964Y-115848740D01*
X174499023Y-115737128D01*
X174501618Y-115633529D01*
X174505754Y-115544368D01*
X174511437Y-115476072D01*
X174518669Y-115435066D01*
X174523029Y-115426674D01*
X174547302Y-115418208D01*
X174602574Y-115404435D01*
X174683338Y-115386550D01*
X174784088Y-115365748D01*
X174899317Y-115343223D01*
X174962098Y-115331418D01*
X175081213Y-115309151D01*
X175187435Y-115288979D01*
X175275573Y-115271915D01*
X175340434Y-115258969D01*
X175376826Y-115251155D01*
X175382816Y-115249422D01*
X175392939Y-115229890D01*
X175414338Y-115182843D01*
X175444161Y-115115003D01*
X175479555Y-115033091D01*
X175517668Y-114943828D01*
X175555647Y-114853935D01*
X175590640Y-114770135D01*
X175619794Y-114699147D01*
X175640257Y-114647694D01*
X175649177Y-114622497D01*
X175649343Y-114621396D01*
X175639231Y-114601519D01*
X175610883Y-114555777D01*
X175567277Y-114488717D01*
X175511394Y-114404884D01*
X175446213Y-114308826D01*
X175408321Y-114253650D01*
X175339275Y-114152481D01*
X175277950Y-114060630D01*
X175227337Y-113982744D01*
X175190429Y-113923469D01*
X175170218Y-113887451D01*
X175167299Y-113879377D01*
X175179847Y-113860584D01*
X175214537Y-113820457D01*
X175266937Y-113763493D01*
X175332616Y-113694185D01*
X175407144Y-113617031D01*
X175486087Y-113536525D01*
X175565017Y-113457163D01*
X175639500Y-113383440D01*
X175705106Y-113319852D01*
X175757404Y-113270894D01*
X175791961Y-113241061D01*
X175803522Y-113233942D01*
X175822346Y-113243953D01*
X175867369Y-113272078D01*
X175934213Y-113315454D01*
X176018501Y-113371218D01*
X176115856Y-113436506D01*
X176189293Y-113486246D01*
X176560333Y-113738551D01*
X177178905Y-113483555D01*
X177262725Y-113038931D01*
X177346546Y-112594307D01*
X178271994Y-112594307D01*
X178355814Y-113038931D01*
G37*
X178355814Y-113038931D02*
X178439635Y-113483555D01*
X178748920Y-113611053D01*
X179058206Y-113738551D01*
X179429246Y-113486246D01*
X179533157Y-113415996D01*
X179627087Y-113353272D01*
X179706652Y-113300938D01*
X179767470Y-113261857D01*
X179805157Y-113238893D01*
X179815421Y-113233942D01*
X179833910Y-113246676D01*
X179873420Y-113281882D01*
X179929522Y-113335062D01*
X179997787Y-113401718D01*
X180073786Y-113477354D01*
X180153092Y-113557472D01*
X180231275Y-113637574D01*
X180303907Y-113713164D01*
X180366559Y-113779745D01*
X180414803Y-113832818D01*
X180444210Y-113867887D01*
X180451241Y-113879623D01*
X180441123Y-113901260D01*
X180412759Y-113948662D01*
X180369129Y-114017193D01*
X180313218Y-114102215D01*
X180248006Y-114199093D01*
X180210219Y-114254350D01*
X180141343Y-114355248D01*
X180080140Y-114446299D01*
X180029578Y-114522970D01*
X179992628Y-114580728D01*
X179972258Y-114615043D01*
X179969197Y-114622254D01*
X179976136Y-114642748D01*
X179995051Y-114690513D01*
X180023087Y-114758832D01*
X180057391Y-114840989D01*
X180095109Y-114930270D01*
X180133387Y-115019958D01*
X180169370Y-115103338D01*
X180200206Y-115173694D01*
X180223039Y-115224310D01*
X180235017Y-115248471D01*
X180235724Y-115249422D01*
X180254531Y-115254036D01*
X180304618Y-115264328D01*
X180380793Y-115279287D01*
X180477865Y-115297901D01*
X180590643Y-115319159D01*
X180656442Y-115331418D01*
X180776950Y-115354362D01*
X180885797Y-115376195D01*
X180977476Y-115395722D01*
X181046481Y-115411748D01*
X181087304Y-115423079D01*
X181095511Y-115426674D01*
X181103548Y-115451006D01*
X181110033Y-115505959D01*
X181114970Y-115585108D01*
X181118364Y-115682026D01*
X181120218Y-115790287D01*
X181120538Y-115903465D01*
X181119327Y-116015135D01*
X181116590Y-116118868D01*
X181112331Y-116208241D01*
X181106555Y-116276826D01*
X181099267Y-116318197D01*
X181094895Y-116326810D01*
X181068764Y-116337133D01*
X181013393Y-116351892D01*
X180936107Y-116369352D01*
X180844230Y-116387780D01*
X180812158Y-116393741D01*
X180657524Y-116422066D01*
X180535375Y-116444876D01*
X180441673Y-116463080D01*
X180372384Y-116477583D01*
X180323471Y-116489292D01*
X180290897Y-116499115D01*
X180270628Y-116507956D01*
X180258626Y-116516724D01*
X180256947Y-116518457D01*
X180240184Y-116546371D01*
X180214614Y-116600695D01*
X180182788Y-116674777D01*
X180147260Y-116761965D01*
X180110583Y-116855608D01*
X180075311Y-116949052D01*
X180043996Y-117035647D01*
X180019193Y-117108740D01*
X180003454Y-117161678D01*
X179999332Y-117187811D01*
X179999676Y-117188726D01*
X180013641Y-117210086D01*
X180045322Y-117257084D01*
X180091391Y-117324827D01*
X180148518Y-117408423D01*
X180213373Y-117502982D01*
X180231843Y-117529854D01*
X180297699Y-117627275D01*
X180355650Y-117716163D01*
X180402538Y-117791412D01*
X180435207Y-117847920D01*
X180450500Y-117880581D01*
X180451241Y-117884593D01*
X180438392Y-117905684D01*
X180402888Y-117947464D01*
X180349293Y-118005445D01*
X180282171Y-118075135D01*
X180206087Y-118152045D01*
X180125604Y-118231683D01*
X180045287Y-118309561D01*
X179969699Y-118381186D01*
X179903405Y-118442070D01*
X179850969Y-118487721D01*
X179816955Y-118513650D01*
X179807545Y-118517883D01*
X179785643Y-118507912D01*
X179740800Y-118481020D01*
X179680321Y-118441736D01*
X179633789Y-118410117D01*
X179549475Y-118352098D01*
X179449626Y-118283784D01*
X179349473Y-118215579D01*
X179295627Y-118179075D01*
X179113371Y-118055800D01*
X178960381Y-118138520D01*
X178890682Y-118174759D01*
X178831414Y-118202926D01*
X178791311Y-118218991D01*
X178781103Y-118221226D01*
X178768829Y-118204722D01*
X178744613Y-118158082D01*
X178710263Y-118085609D01*
X178667588Y-117991606D01*
X178618394Y-117880374D01*
X178564490Y-117756215D01*
X178507684Y-117623432D01*
X178449782Y-117486327D01*
X178392593Y-117349202D01*
X178337924Y-117216358D01*
X178287584Y-117092098D01*
X178243380Y-116980725D01*
X178207119Y-116886539D01*
X178180609Y-116813844D01*
X178165658Y-116766941D01*
X178163254Y-116750833D01*
X178182311Y-116730286D01*
X178224036Y-116696933D01*
X178279706Y-116657702D01*
X178284378Y-116654599D01*
X178428264Y-116539423D01*
X178544283Y-116405053D01*
X178631430Y-116255784D01*
X178688699Y-116095913D01*
X178715086Y-115929737D01*
X178709585Y-115761552D01*
X178671190Y-115595655D01*
X178598895Y-115436342D01*
X178577626Y-115401487D01*
X178466996Y-115260737D01*
X178336302Y-115147714D01*
X178190064Y-115063003D01*
X178032808Y-115007194D01*
X177869057Y-114980874D01*
X177703333Y-114984630D01*
X177540162Y-115019050D01*
X177384065Y-115084723D01*
X177239567Y-115182235D01*
X177194869Y-115221813D01*
X177081112Y-115345703D01*
X176998218Y-115476124D01*
X176941356Y-115622315D01*
X176909687Y-115767088D01*
X176901869Y-115929860D01*
X176927938Y-116093440D01*
X176985245Y-116252298D01*
X177071144Y-116400906D01*
X177182986Y-116533735D01*
X177318123Y-116645256D01*
X177335883Y-116657011D01*
X177392150Y-116695508D01*
X177434923Y-116728863D01*
X177455372Y-116750160D01*
X177455669Y-116750833D01*
X177451279Y-116773871D01*
X177433876Y-116826157D01*
X177405268Y-116903390D01*
X177367265Y-117001268D01*
X177321674Y-117115491D01*
X177270303Y-117241758D01*
X177214962Y-117375767D01*
X177157458Y-117513218D01*
X177099601Y-117649808D01*
X177043198Y-117781237D01*
X176990058Y-117903205D01*
X176941990Y-118011409D01*
X176900801Y-118101549D01*
X176868301Y-118169323D01*
X176846297Y-118210430D01*
X176837436Y-118221226D01*
X176810360Y-118212819D01*
X176759697Y-118190272D01*
X176694183Y-118157613D01*
X176658159Y-118138520D01*
X176505168Y-118055800D01*
X176322912Y-118179075D01*
X176229875Y-118242228D01*
X176128015Y-118311727D01*
X176032562Y-118377165D01*
X175984750Y-118410117D01*
X175917505Y-118455273D01*
X175860564Y-118491057D01*
X175821354Y-118512938D01*
X175808619Y-118517563D01*
X175790083Y-118505085D01*
X175749059Y-118470252D01*
X175689525Y-118416678D01*
X175615458Y-118347983D01*
X175530835Y-118267781D01*
X175477315Y-118216286D01*
X175383681Y-118124286D01*
X175302759Y-118041999D01*
X175237823Y-117972945D01*
X175192142Y-117920644D01*
X175168989Y-117888616D01*
X175166768Y-117882116D01*
X175177076Y-117857394D01*
X175205561Y-117807405D01*
X175249063Y-117737212D01*
X175304423Y-117651875D01*
X175368480Y-117556456D01*
X175386697Y-117529854D01*
X175453073Y-117433167D01*
X175512622Y-117346117D01*
X175562016Y-117273595D01*
X175597925Y-117220493D01*
X175617019Y-117191703D01*
X175618864Y-117188726D01*
X175616105Y-117165782D01*
X175601462Y-117115336D01*
X175577487Y-117044041D01*
X175546734Y-116958547D01*
X175511756Y-116865507D01*
X175475107Y-116771574D01*
X175439339Y-116683399D01*
X175407006Y-116607634D01*
X175380662Y-116550931D01*
X175362858Y-116519943D01*
X175361593Y-116518457D01*
X175350706Y-116509601D01*
X175332318Y-116500843D01*
X175302394Y-116491277D01*
X175256897Y-116479996D01*
X175191791Y-116466093D01*
X175103039Y-116448663D01*
X174986607Y-116426798D01*
X174838458Y-116399591D01*
X174806382Y-116393741D01*
X174711314Y-116375374D01*
X174628435Y-116357405D01*
X174565070Y-116341569D01*
X174528542Y-116329600D01*
X174523644Y-116326810D01*
X174515573Y-116302072D01*
X174509013Y-116246790D01*
X174503967Y-116167389D01*
X174500441Y-116070296D01*
X174498439Y-115961938D01*
X174497964Y-115848740D01*
X174499023Y-115737128D01*
X174501618Y-115633529D01*
X174505754Y-115544368D01*
X174511437Y-115476072D01*
X174518669Y-115435066D01*
X174523029Y-115426674D01*
X174547302Y-115418208D01*
X174602574Y-115404435D01*
X174683338Y-115386550D01*
X174784088Y-115365748D01*
X174899317Y-115343223D01*
X174962098Y-115331418D01*
X175081213Y-115309151D01*
X175187435Y-115288979D01*
X175275573Y-115271915D01*
X175340434Y-115258969D01*
X175376826Y-115251155D01*
X175382816Y-115249422D01*
X175392939Y-115229890D01*
X175414338Y-115182843D01*
X175444161Y-115115003D01*
X175479555Y-115033091D01*
X175517668Y-114943828D01*
X175555647Y-114853935D01*
X175590640Y-114770135D01*
X175619794Y-114699147D01*
X175640257Y-114647694D01*
X175649177Y-114622497D01*
X175649343Y-114621396D01*
X175639231Y-114601519D01*
X175610883Y-114555777D01*
X175567277Y-114488717D01*
X175511394Y-114404884D01*
X175446213Y-114308826D01*
X175408321Y-114253650D01*
X175339275Y-114152481D01*
X175277950Y-114060630D01*
X175227337Y-113982744D01*
X175190429Y-113923469D01*
X175170218Y-113887451D01*
X175167299Y-113879377D01*
X175179847Y-113860584D01*
X175214537Y-113820457D01*
X175266937Y-113763493D01*
X175332616Y-113694185D01*
X175407144Y-113617031D01*
X175486087Y-113536525D01*
X175565017Y-113457163D01*
X175639500Y-113383440D01*
X175705106Y-113319852D01*
X175757404Y-113270894D01*
X175791961Y-113241061D01*
X175803522Y-113233942D01*
X175822346Y-113243953D01*
X175867369Y-113272078D01*
X175934213Y-113315454D01*
X176018501Y-113371218D01*
X176115856Y-113436506D01*
X176189293Y-113486246D01*
X176560333Y-113738551D01*
X177178905Y-113483555D01*
X177262725Y-113038931D01*
X177346546Y-112594307D01*
X178271994Y-112594307D01*
X178355814Y-113038931D01*
D11*
%TO.C,H3*%
X180829000Y-124968000D02*
G75*
G03*
X180829000Y-124968000I-1251000J0D01*
G01*
%TO.C,H4*%
X180829000Y-108966000D02*
G75*
G03*
X180829000Y-108966000I-1251000J0D01*
G01*
%TO.C,H2*%
X104883000Y-124968000D02*
G75*
G03*
X104883000Y-124968000I-1251000J0D01*
G01*
%TO.C,H1*%
X104883000Y-108966000D02*
G75*
G03*
X104883000Y-108966000I-1251000J0D01*
G01*
%TO.C,SW2*%
X158708000Y-123236000D02*
X155308000Y-123236000D01*
X160348000Y-123236000D02*
X159808000Y-123236000D01*
X153148000Y-120406000D02*
X153148000Y-119896000D01*
X153668000Y-119896000D02*
X153148000Y-119896000D01*
X153668000Y-120406000D02*
X153668000Y-119896000D01*
X154208000Y-123236000D02*
X153668000Y-123236000D01*
X160868000Y-120406000D02*
X160868000Y-119896000D01*
X160348000Y-120406000D02*
X160348000Y-119896000D01*
X153668000Y-123236000D02*
X153668000Y-123006000D01*
X160868000Y-126906000D02*
X160868000Y-123006000D01*
X160868000Y-119896000D02*
X160348000Y-119896000D01*
X153148000Y-126906000D02*
X153148000Y-123006000D01*
X160868000Y-126906000D02*
X153148000Y-126906000D01*
X160348000Y-123236000D02*
X160348000Y-123006000D01*
%TO.C,C1*%
X169347000Y-115034000D02*
G75*
G03*
X169347000Y-115034000I-4120000J0D01*
G01*
%TO.C,J1*%
X108458000Y-110804000D02*
X108458000Y-108144000D01*
X108458000Y-110804000D02*
X113598000Y-110804000D01*
X113598000Y-110804000D02*
X113598000Y-108144000D01*
X108458000Y-108144000D02*
X113598000Y-108144000D01*
X105858000Y-108144000D02*
X107188000Y-108144000D01*
X105858000Y-109474000D02*
X105858000Y-108144000D01*
%TO.C,J2*%
X135255000Y-110804000D02*
X135255000Y-108144000D01*
X135255000Y-110804000D02*
X150555000Y-110804000D01*
X150555000Y-110804000D02*
X150555000Y-108144000D01*
X135255000Y-108144000D02*
X150555000Y-108144000D01*
X132655000Y-108144000D02*
X133985000Y-108144000D01*
X132655000Y-109474000D02*
X132655000Y-108144000D01*
%TO.C,J3*%
X169612000Y-109474000D02*
X169612000Y-108144000D01*
X169612000Y-108144000D02*
X170942000Y-108144000D01*
X172212000Y-108144000D02*
X177352000Y-108144000D01*
X177352000Y-110804000D02*
X177352000Y-108144000D01*
X172212000Y-110804000D02*
X177352000Y-110804000D01*
X172212000Y-110804000D02*
X172212000Y-108144000D01*
%TO.C,R1*%
X128492000Y-110844000D02*
X128492000Y-110514000D01*
X121952000Y-110844000D02*
X128492000Y-110844000D01*
X121952000Y-110514000D02*
X121952000Y-110844000D01*
X128492000Y-108104000D02*
X128492000Y-108434000D01*
X121952000Y-108104000D02*
X128492000Y-108104000D01*
X121952000Y-108434000D02*
X121952000Y-108104000D01*
%TO.C,R2*%
X121952000Y-113704500D02*
X121952000Y-113374500D01*
X121952000Y-113374500D02*
X128492000Y-113374500D01*
X128492000Y-113374500D02*
X128492000Y-113704500D01*
X121952000Y-115784500D02*
X121952000Y-116114500D01*
X121952000Y-116114500D02*
X128492000Y-116114500D01*
X128492000Y-116114500D02*
X128492000Y-115784500D01*
%TO.C,R3*%
X137895000Y-114840000D02*
X137565000Y-114840000D01*
X137895000Y-121380000D02*
X137895000Y-114840000D01*
X137565000Y-121380000D02*
X137895000Y-121380000D01*
X135155000Y-114840000D02*
X135485000Y-114840000D01*
X135155000Y-121380000D02*
X135155000Y-114840000D01*
X135485000Y-121380000D02*
X135155000Y-121380000D01*
%TO.C,R4*%
X140565000Y-121316500D02*
X140235000Y-121316500D01*
X140235000Y-121316500D02*
X140235000Y-114776500D01*
X140235000Y-114776500D02*
X140565000Y-114776500D01*
X142645000Y-121316500D02*
X142975000Y-121316500D01*
X142975000Y-121316500D02*
X142975000Y-114776500D01*
X142975000Y-114776500D02*
X142645000Y-114776500D01*
%TO.C,R5*%
X148055000Y-114776500D02*
X147725000Y-114776500D01*
X148055000Y-121316500D02*
X148055000Y-114776500D01*
X147725000Y-121316500D02*
X148055000Y-121316500D01*
X145315000Y-114776500D02*
X145645000Y-114776500D01*
X145315000Y-121316500D02*
X145315000Y-114776500D01*
X145645000Y-121316500D02*
X145315000Y-121316500D01*
%TO.C,R6*%
X153448000Y-108434000D02*
X153448000Y-108104000D01*
X153448000Y-108104000D02*
X159988000Y-108104000D01*
X159988000Y-108104000D02*
X159988000Y-108434000D01*
X153448000Y-110514000D02*
X153448000Y-110844000D01*
X153448000Y-110844000D02*
X159988000Y-110844000D01*
X159988000Y-110844000D02*
X159988000Y-110514000D01*
%TO.C,SW0*%
X105537000Y-126746000D02*
X105537000Y-123698000D01*
X114173000Y-126746000D02*
X105537000Y-126746000D01*
X114173000Y-123698000D02*
X114173000Y-126746000D01*
X105537000Y-123698000D02*
X114173000Y-123698000D01*
D12*
X108077000Y-126746000D02*
X111633000Y-126746000D01*
D11*
X108077000Y-126746000D02*
X108077000Y-131318000D01*
X109093000Y-131318000D02*
X109093000Y-126746000D01*
X108077000Y-131318000D02*
X108331000Y-131572000D01*
X108331000Y-131572000D02*
X108839000Y-131572000D01*
X108839000Y-131572000D02*
X109093000Y-131318000D01*
%TO.C,SW1*%
X129614000Y-123236000D02*
X129614000Y-123006000D01*
X130134000Y-126906000D02*
X122414000Y-126906000D01*
X122414000Y-126906000D02*
X122414000Y-123006000D01*
X130134000Y-119896000D02*
X129614000Y-119896000D01*
X130134000Y-126906000D02*
X130134000Y-123006000D01*
X122934000Y-123236000D02*
X122934000Y-123006000D01*
X129614000Y-120406000D02*
X129614000Y-119896000D01*
X130134000Y-120406000D02*
X130134000Y-119896000D01*
X123474000Y-123236000D02*
X122934000Y-123236000D01*
X122934000Y-120406000D02*
X122934000Y-119896000D01*
X122934000Y-119896000D02*
X122414000Y-119896000D01*
X122414000Y-120406000D02*
X122414000Y-119896000D01*
X129614000Y-123236000D02*
X129074000Y-123236000D01*
X127974000Y-123236000D02*
X124574000Y-123236000D01*
%TO.C,SW3*%
X176350000Y-123236000D02*
X176350000Y-123006000D01*
X176870000Y-126906000D02*
X169150000Y-126906000D01*
X169150000Y-126906000D02*
X169150000Y-123006000D01*
X176870000Y-119896000D02*
X176350000Y-119896000D01*
X176870000Y-126906000D02*
X176870000Y-123006000D01*
X169670000Y-123236000D02*
X169670000Y-123006000D01*
X176350000Y-120406000D02*
X176350000Y-119896000D01*
X176870000Y-120406000D02*
X176870000Y-119896000D01*
X170210000Y-123236000D02*
X169670000Y-123236000D01*
X169670000Y-120406000D02*
X169670000Y-119896000D01*
X169670000Y-119896000D02*
X169150000Y-119896000D01*
X169150000Y-120406000D02*
X169150000Y-119896000D01*
X176350000Y-123236000D02*
X175810000Y-123236000D01*
X174710000Y-123236000D02*
X171310000Y-123236000D01*
%TO.C,CERN OHL v.1.2*%
D13*
X111510838Y-116970628D02*
X111486647Y-116994819D01*
X111414076Y-117019009D01*
X111365695Y-117019009D01*
X111293123Y-116994819D01*
X111244742Y-116946438D01*
X111220552Y-116898057D01*
X111196361Y-116801295D01*
X111196361Y-116728723D01*
X111220552Y-116631961D01*
X111244742Y-116583580D01*
X111293123Y-116535200D01*
X111365695Y-116511009D01*
X111414076Y-116511009D01*
X111486647Y-116535200D01*
X111510838Y-116559390D01*
X111728552Y-116752914D02*
X111897885Y-116752914D01*
X111970457Y-117019009D02*
X111728552Y-117019009D01*
X111728552Y-116511009D01*
X111970457Y-116511009D01*
X112478457Y-117019009D02*
X112309123Y-116777104D01*
X112188171Y-117019009D02*
X112188171Y-116511009D01*
X112381695Y-116511009D01*
X112430076Y-116535200D01*
X112454266Y-116559390D01*
X112478457Y-116607771D01*
X112478457Y-116680342D01*
X112454266Y-116728723D01*
X112430076Y-116752914D01*
X112381695Y-116777104D01*
X112188171Y-116777104D01*
X112696171Y-117019009D02*
X112696171Y-116511009D01*
X112986457Y-117019009D01*
X112986457Y-116511009D01*
X113712171Y-116511009D02*
X113808933Y-116511009D01*
X113857314Y-116535200D01*
X113905695Y-116583580D01*
X113929885Y-116680342D01*
X113929885Y-116849676D01*
X113905695Y-116946438D01*
X113857314Y-116994819D01*
X113808933Y-117019009D01*
X113712171Y-117019009D01*
X113663790Y-116994819D01*
X113615409Y-116946438D01*
X113591219Y-116849676D01*
X113591219Y-116680342D01*
X113615409Y-116583580D01*
X113663790Y-116535200D01*
X113712171Y-116511009D01*
X114147600Y-117019009D02*
X114147600Y-116511009D01*
X114147600Y-116752914D02*
X114437885Y-116752914D01*
X114437885Y-117019009D02*
X114437885Y-116511009D01*
X114921695Y-117019009D02*
X114679790Y-117019009D01*
X114679790Y-116511009D01*
X115429695Y-116680342D02*
X115550647Y-117019009D01*
X115671600Y-116680342D01*
X115865123Y-116970628D02*
X115889314Y-116994819D01*
X115865123Y-117019009D01*
X115840933Y-116994819D01*
X115865123Y-116970628D01*
X115865123Y-117019009D01*
X116373123Y-117019009D02*
X116082838Y-117019009D01*
X116227980Y-117019009D02*
X116227980Y-116511009D01*
X116179600Y-116583580D01*
X116131219Y-116631961D01*
X116082838Y-116656152D01*
X116590838Y-116970628D02*
X116615028Y-116994819D01*
X116590838Y-117019009D01*
X116566647Y-116994819D01*
X116590838Y-116970628D01*
X116590838Y-117019009D01*
X116808552Y-116559390D02*
X116832742Y-116535200D01*
X116881123Y-116511009D01*
X117002076Y-116511009D01*
X117050457Y-116535200D01*
X117074647Y-116559390D01*
X117098838Y-116607771D01*
X117098838Y-116656152D01*
X117074647Y-116728723D01*
X116784361Y-117019009D01*
X117098838Y-117019009D01*
%TO.C,Bike Pixel Rear v0.5*%
X111385047Y-115533714D02*
X111457619Y-115557904D01*
X111481809Y-115582095D01*
X111506000Y-115630476D01*
X111506000Y-115703047D01*
X111481809Y-115751428D01*
X111457619Y-115775619D01*
X111409238Y-115799809D01*
X111215714Y-115799809D01*
X111215714Y-115291809D01*
X111385047Y-115291809D01*
X111433428Y-115316000D01*
X111457619Y-115340190D01*
X111481809Y-115388571D01*
X111481809Y-115436952D01*
X111457619Y-115485333D01*
X111433428Y-115509523D01*
X111385047Y-115533714D01*
X111215714Y-115533714D01*
X111723714Y-115799809D02*
X111723714Y-115461142D01*
X111723714Y-115291809D02*
X111699523Y-115316000D01*
X111723714Y-115340190D01*
X111747904Y-115316000D01*
X111723714Y-115291809D01*
X111723714Y-115340190D01*
X111965619Y-115799809D02*
X111965619Y-115291809D01*
X112014000Y-115606285D02*
X112159142Y-115799809D01*
X112159142Y-115461142D02*
X111965619Y-115654666D01*
X112570380Y-115775619D02*
X112522000Y-115799809D01*
X112425238Y-115799809D01*
X112376857Y-115775619D01*
X112352666Y-115727238D01*
X112352666Y-115533714D01*
X112376857Y-115485333D01*
X112425238Y-115461142D01*
X112522000Y-115461142D01*
X112570380Y-115485333D01*
X112594571Y-115533714D01*
X112594571Y-115582095D01*
X112352666Y-115630476D01*
X113199333Y-115799809D02*
X113199333Y-115291809D01*
X113392857Y-115291809D01*
X113441238Y-115316000D01*
X113465428Y-115340190D01*
X113489619Y-115388571D01*
X113489619Y-115461142D01*
X113465428Y-115509523D01*
X113441238Y-115533714D01*
X113392857Y-115557904D01*
X113199333Y-115557904D01*
X113707333Y-115799809D02*
X113707333Y-115461142D01*
X113707333Y-115291809D02*
X113683142Y-115316000D01*
X113707333Y-115340190D01*
X113731523Y-115316000D01*
X113707333Y-115291809D01*
X113707333Y-115340190D01*
X113900857Y-115799809D02*
X114166952Y-115461142D01*
X113900857Y-115461142D02*
X114166952Y-115799809D01*
X114554000Y-115775619D02*
X114505619Y-115799809D01*
X114408857Y-115799809D01*
X114360476Y-115775619D01*
X114336285Y-115727238D01*
X114336285Y-115533714D01*
X114360476Y-115485333D01*
X114408857Y-115461142D01*
X114505619Y-115461142D01*
X114554000Y-115485333D01*
X114578190Y-115533714D01*
X114578190Y-115582095D01*
X114336285Y-115630476D01*
X114868476Y-115799809D02*
X114820095Y-115775619D01*
X114795904Y-115727238D01*
X114795904Y-115291809D01*
X115739333Y-115799809D02*
X115570000Y-115557904D01*
X115449047Y-115799809D02*
X115449047Y-115291809D01*
X115642571Y-115291809D01*
X115690952Y-115316000D01*
X115715142Y-115340190D01*
X115739333Y-115388571D01*
X115739333Y-115461142D01*
X115715142Y-115509523D01*
X115690952Y-115533714D01*
X115642571Y-115557904D01*
X115449047Y-115557904D01*
X116150571Y-115775619D02*
X116102190Y-115799809D01*
X116005428Y-115799809D01*
X115957047Y-115775619D01*
X115932857Y-115727238D01*
X115932857Y-115533714D01*
X115957047Y-115485333D01*
X116005428Y-115461142D01*
X116102190Y-115461142D01*
X116150571Y-115485333D01*
X116174761Y-115533714D01*
X116174761Y-115582095D01*
X115932857Y-115630476D01*
X116610190Y-115799809D02*
X116610190Y-115533714D01*
X116586000Y-115485333D01*
X116537619Y-115461142D01*
X116440857Y-115461142D01*
X116392476Y-115485333D01*
X116610190Y-115775619D02*
X116561809Y-115799809D01*
X116440857Y-115799809D01*
X116392476Y-115775619D01*
X116368285Y-115727238D01*
X116368285Y-115678857D01*
X116392476Y-115630476D01*
X116440857Y-115606285D01*
X116561809Y-115606285D01*
X116610190Y-115582095D01*
X116852095Y-115799809D02*
X116852095Y-115461142D01*
X116852095Y-115557904D02*
X116876285Y-115509523D01*
X116900476Y-115485333D01*
X116948857Y-115461142D01*
X116997238Y-115461142D01*
X117505238Y-115461142D02*
X117626190Y-115799809D01*
X117747142Y-115461142D01*
X118037428Y-115291809D02*
X118085809Y-115291809D01*
X118134190Y-115316000D01*
X118158380Y-115340190D01*
X118182571Y-115388571D01*
X118206761Y-115485333D01*
X118206761Y-115606285D01*
X118182571Y-115703047D01*
X118158380Y-115751428D01*
X118134190Y-115775619D01*
X118085809Y-115799809D01*
X118037428Y-115799809D01*
X117989047Y-115775619D01*
X117964857Y-115751428D01*
X117940666Y-115703047D01*
X117916476Y-115606285D01*
X117916476Y-115485333D01*
X117940666Y-115388571D01*
X117964857Y-115340190D01*
X117989047Y-115316000D01*
X118037428Y-115291809D01*
X118424476Y-115751428D02*
X118448666Y-115775619D01*
X118424476Y-115799809D01*
X118400285Y-115775619D01*
X118424476Y-115751428D01*
X118424476Y-115799809D01*
X118908285Y-115291809D02*
X118666380Y-115291809D01*
X118642190Y-115533714D01*
X118666380Y-115509523D01*
X118714761Y-115485333D01*
X118835714Y-115485333D01*
X118884095Y-115509523D01*
X118908285Y-115533714D01*
X118932476Y-115582095D01*
X118932476Y-115703047D01*
X118908285Y-115751428D01*
X118884095Y-115775619D01*
X118835714Y-115799809D01*
X118714761Y-115799809D01*
X118666380Y-115775619D01*
X118642190Y-115751428D01*
D14*
X111462457Y-114296371D02*
X111571314Y-114332657D01*
X111607600Y-114368942D01*
X111643885Y-114441514D01*
X111643885Y-114550371D01*
X111607600Y-114622942D01*
X111571314Y-114659228D01*
X111498742Y-114695514D01*
X111208457Y-114695514D01*
X111208457Y-113933514D01*
X111462457Y-113933514D01*
X111535028Y-113969800D01*
X111571314Y-114006085D01*
X111607600Y-114078657D01*
X111607600Y-114151228D01*
X111571314Y-114223800D01*
X111535028Y-114260085D01*
X111462457Y-114296371D01*
X111208457Y-114296371D01*
X111970457Y-114695514D02*
X111970457Y-114187514D01*
X111970457Y-113933514D02*
X111934171Y-113969800D01*
X111970457Y-114006085D01*
X112006742Y-113969800D01*
X111970457Y-113933514D01*
X111970457Y-114006085D01*
X112333314Y-114695514D02*
X112333314Y-113933514D01*
X112405885Y-114405228D02*
X112623600Y-114695514D01*
X112623600Y-114187514D02*
X112333314Y-114477800D01*
X113240457Y-114659228D02*
X113167885Y-114695514D01*
X113022742Y-114695514D01*
X112950171Y-114659228D01*
X112913885Y-114586657D01*
X112913885Y-114296371D01*
X112950171Y-114223800D01*
X113022742Y-114187514D01*
X113167885Y-114187514D01*
X113240457Y-114223800D01*
X113276742Y-114296371D01*
X113276742Y-114368942D01*
X112913885Y-114441514D01*
X113603314Y-114695514D02*
X113603314Y-113933514D01*
X113893600Y-113933514D01*
X113966171Y-113969800D01*
X114002457Y-114006085D01*
X114038742Y-114078657D01*
X114038742Y-114187514D01*
X114002457Y-114260085D01*
X113966171Y-114296371D01*
X113893600Y-114332657D01*
X113603314Y-114332657D01*
X114365314Y-114695514D02*
X114365314Y-114187514D01*
X114365314Y-113933514D02*
X114329028Y-113969800D01*
X114365314Y-114006085D01*
X114401600Y-113969800D01*
X114365314Y-113933514D01*
X114365314Y-114006085D01*
X114655600Y-114695514D02*
X115054742Y-114187514D01*
X114655600Y-114187514D02*
X115054742Y-114695514D01*
X115635314Y-114659228D02*
X115562742Y-114695514D01*
X115417600Y-114695514D01*
X115345028Y-114659228D01*
X115308742Y-114586657D01*
X115308742Y-114296371D01*
X115345028Y-114223800D01*
X115417600Y-114187514D01*
X115562742Y-114187514D01*
X115635314Y-114223800D01*
X115671600Y-114296371D01*
X115671600Y-114368942D01*
X115308742Y-114441514D01*
X116107028Y-114695514D02*
X116034457Y-114659228D01*
X115998171Y-114586657D01*
X115998171Y-113933514D01*
X116361028Y-114659228D02*
X116433600Y-114695514D01*
X116578742Y-114695514D01*
X116651314Y-114659228D01*
X116687600Y-114586657D01*
X116687600Y-114550371D01*
X116651314Y-114477800D01*
X116578742Y-114441514D01*
X116469885Y-114441514D01*
X116397314Y-114405228D01*
X116361028Y-114332657D01*
X116361028Y-114296371D01*
X116397314Y-114223800D01*
X116469885Y-114187514D01*
X116578742Y-114187514D01*
X116651314Y-114223800D01*
X117014171Y-114622942D02*
X117050457Y-114659228D01*
X117014171Y-114695514D01*
X116977885Y-114659228D01*
X117014171Y-114622942D01*
X117014171Y-114695514D01*
X117703600Y-114659228D02*
X117631028Y-114695514D01*
X117485885Y-114695514D01*
X117413314Y-114659228D01*
X117377028Y-114622942D01*
X117340742Y-114550371D01*
X117340742Y-114332657D01*
X117377028Y-114260085D01*
X117413314Y-114223800D01*
X117485885Y-114187514D01*
X117631028Y-114187514D01*
X117703600Y-114223800D01*
X118139028Y-114695514D02*
X118066457Y-114659228D01*
X118030171Y-114622942D01*
X117993885Y-114550371D01*
X117993885Y-114332657D01*
X118030171Y-114260085D01*
X118066457Y-114223800D01*
X118139028Y-114187514D01*
X118247885Y-114187514D01*
X118320457Y-114223800D01*
X118356742Y-114260085D01*
X118393028Y-114332657D01*
X118393028Y-114550371D01*
X118356742Y-114622942D01*
X118320457Y-114659228D01*
X118247885Y-114695514D01*
X118139028Y-114695514D01*
X118719600Y-114695514D02*
X118719600Y-114187514D01*
X118719600Y-114260085D02*
X118755885Y-114223800D01*
X118828457Y-114187514D01*
X118937314Y-114187514D01*
X119009885Y-114223800D01*
X119046171Y-114296371D01*
X119046171Y-114695514D01*
X119046171Y-114296371D02*
X119082457Y-114223800D01*
X119155028Y-114187514D01*
X119263885Y-114187514D01*
X119336457Y-114223800D01*
X119372742Y-114296371D01*
X119372742Y-114695514D01*
%TO.C,SW2*%
D13*
X162314466Y-121846219D02*
X162387038Y-121870409D01*
X162507990Y-121870409D01*
X162556371Y-121846219D01*
X162580561Y-121822028D01*
X162604752Y-121773647D01*
X162604752Y-121725266D01*
X162580561Y-121676885D01*
X162556371Y-121652695D01*
X162507990Y-121628504D01*
X162411228Y-121604314D01*
X162362847Y-121580123D01*
X162338657Y-121555933D01*
X162314466Y-121507552D01*
X162314466Y-121459171D01*
X162338657Y-121410790D01*
X162362847Y-121386600D01*
X162411228Y-121362409D01*
X162532180Y-121362409D01*
X162604752Y-121386600D01*
X162774085Y-121362409D02*
X162895038Y-121870409D01*
X162991800Y-121507552D01*
X163088561Y-121870409D01*
X163209514Y-121362409D01*
X163378847Y-121410790D02*
X163403038Y-121386600D01*
X163451419Y-121362409D01*
X163572371Y-121362409D01*
X163620752Y-121386600D01*
X163644942Y-121410790D01*
X163669133Y-121459171D01*
X163669133Y-121507552D01*
X163644942Y-121580123D01*
X163354657Y-121870409D01*
X163669133Y-121870409D01*
D14*
X156028571Y-121212428D02*
X155956000Y-121248714D01*
X155810857Y-121248714D01*
X155738285Y-121212428D01*
X155702000Y-121176142D01*
X155665714Y-121103571D01*
X155665714Y-120885857D01*
X155702000Y-120813285D01*
X155738285Y-120777000D01*
X155810857Y-120740714D01*
X155956000Y-120740714D01*
X156028571Y-120777000D01*
X156464000Y-121248714D02*
X156391428Y-121212428D01*
X156355142Y-121176142D01*
X156318857Y-121103571D01*
X156318857Y-120885857D01*
X156355142Y-120813285D01*
X156391428Y-120777000D01*
X156464000Y-120740714D01*
X156572857Y-120740714D01*
X156645428Y-120777000D01*
X156681714Y-120813285D01*
X156718000Y-120885857D01*
X156718000Y-121103571D01*
X156681714Y-121176142D01*
X156645428Y-121212428D01*
X156572857Y-121248714D01*
X156464000Y-121248714D01*
X157153428Y-121248714D02*
X157080857Y-121212428D01*
X157044571Y-121139857D01*
X157044571Y-120486714D01*
X157552571Y-121248714D02*
X157480000Y-121212428D01*
X157443714Y-121176142D01*
X157407428Y-121103571D01*
X157407428Y-120885857D01*
X157443714Y-120813285D01*
X157480000Y-120777000D01*
X157552571Y-120740714D01*
X157661428Y-120740714D01*
X157734000Y-120777000D01*
X157770285Y-120813285D01*
X157806571Y-120885857D01*
X157806571Y-121103571D01*
X157770285Y-121176142D01*
X157734000Y-121212428D01*
X157661428Y-121248714D01*
X157552571Y-121248714D01*
X158133142Y-121248714D02*
X158133142Y-120740714D01*
X158133142Y-120885857D02*
X158169428Y-120813285D01*
X158205714Y-120777000D01*
X158278285Y-120740714D01*
X158350857Y-120740714D01*
%TO.C,C1*%
X167132000Y-113556142D02*
X167095714Y-113592428D01*
X166986857Y-113628714D01*
X166914285Y-113628714D01*
X166805428Y-113592428D01*
X166732857Y-113519857D01*
X166696571Y-113447285D01*
X166660285Y-113302142D01*
X166660285Y-113193285D01*
X166696571Y-113048142D01*
X166732857Y-112975571D01*
X166805428Y-112903000D01*
X166914285Y-112866714D01*
X166986857Y-112866714D01*
X167095714Y-112903000D01*
X167132000Y-112939285D01*
X167857714Y-113628714D02*
X167422285Y-113628714D01*
X167640000Y-113628714D02*
X167640000Y-112866714D01*
X167567428Y-112975571D01*
X167494857Y-113048142D01*
X167422285Y-113084428D01*
%TO.C,J1*%
X114517714Y-108712000D02*
X115062000Y-108712000D01*
X115170857Y-108748285D01*
X115243428Y-108820857D01*
X115279714Y-108929714D01*
X115279714Y-109002285D01*
X115279714Y-107950000D02*
X115279714Y-108385428D01*
X115279714Y-108167714D02*
X114517714Y-108167714D01*
X114626571Y-108240285D01*
X114699142Y-108312857D01*
X114735428Y-108385428D01*
X109517542Y-112231714D02*
X109517542Y-111469714D01*
X109807828Y-111469714D01*
X109880400Y-111506000D01*
X109916685Y-111542285D01*
X109952971Y-111614857D01*
X109952971Y-111723714D01*
X109916685Y-111796285D01*
X109880400Y-111832571D01*
X109807828Y-111868857D01*
X109517542Y-111868857D01*
X110388400Y-112231714D02*
X110315828Y-112195428D01*
X110279542Y-112159142D01*
X110243257Y-112086571D01*
X110243257Y-111868857D01*
X110279542Y-111796285D01*
X110315828Y-111760000D01*
X110388400Y-111723714D01*
X110497257Y-111723714D01*
X110569828Y-111760000D01*
X110606114Y-111796285D01*
X110642400Y-111868857D01*
X110642400Y-112086571D01*
X110606114Y-112159142D01*
X110569828Y-112195428D01*
X110497257Y-112231714D01*
X110388400Y-112231714D01*
X110896400Y-111723714D02*
X111041542Y-112231714D01*
X111186685Y-111868857D01*
X111331828Y-112231714D01*
X111476971Y-111723714D01*
X112057542Y-112195428D02*
X111984971Y-112231714D01*
X111839828Y-112231714D01*
X111767257Y-112195428D01*
X111730971Y-112122857D01*
X111730971Y-111832571D01*
X111767257Y-111760000D01*
X111839828Y-111723714D01*
X111984971Y-111723714D01*
X112057542Y-111760000D01*
X112093828Y-111832571D01*
X112093828Y-111905142D01*
X111730971Y-111977714D01*
X112420400Y-112231714D02*
X112420400Y-111723714D01*
X112420400Y-111868857D02*
X112456685Y-111796285D01*
X112492971Y-111760000D01*
X112565542Y-111723714D01*
X112638114Y-111723714D01*
%TO.C,J2*%
X130797714Y-108712000D02*
X131342000Y-108712000D01*
X131450857Y-108748285D01*
X131523428Y-108820857D01*
X131559714Y-108929714D01*
X131559714Y-109002285D01*
X130870285Y-108385428D02*
X130834000Y-108349142D01*
X130797714Y-108276571D01*
X130797714Y-108095142D01*
X130834000Y-108022571D01*
X130870285Y-107986285D01*
X130942857Y-107950000D01*
X131015428Y-107950000D01*
X131124285Y-107986285D01*
X131559714Y-108421714D01*
X131559714Y-107950000D01*
X147222028Y-112191800D02*
X147584885Y-112191800D01*
X147149457Y-112409514D02*
X147403457Y-111647514D01*
X147657457Y-112409514D01*
X147911457Y-112409514D02*
X147911457Y-111901514D01*
X147911457Y-112046657D02*
X147947742Y-111974085D01*
X147984028Y-111937800D01*
X148056600Y-111901514D01*
X148129171Y-111901514D01*
X148709742Y-112409514D02*
X148709742Y-111647514D01*
X148709742Y-112373228D02*
X148637171Y-112409514D01*
X148492028Y-112409514D01*
X148419457Y-112373228D01*
X148383171Y-112336942D01*
X148346885Y-112264371D01*
X148346885Y-112046657D01*
X148383171Y-111974085D01*
X148419457Y-111937800D01*
X148492028Y-111901514D01*
X148637171Y-111901514D01*
X148709742Y-111937800D01*
X149399171Y-111901514D02*
X149399171Y-112409514D01*
X149072600Y-111901514D02*
X149072600Y-112300657D01*
X149108885Y-112373228D01*
X149181457Y-112409514D01*
X149290314Y-112409514D01*
X149362885Y-112373228D01*
X149399171Y-112336942D01*
X149762028Y-112409514D02*
X149762028Y-111901514D01*
X149762028Y-111647514D02*
X149725742Y-111683800D01*
X149762028Y-111720085D01*
X149798314Y-111683800D01*
X149762028Y-111647514D01*
X149762028Y-111720085D01*
X150124885Y-111901514D02*
X150124885Y-112409514D01*
X150124885Y-111974085D02*
X150161171Y-111937800D01*
X150233742Y-111901514D01*
X150342600Y-111901514D01*
X150415171Y-111937800D01*
X150451457Y-112010371D01*
X150451457Y-112409514D01*
X150923171Y-112409514D02*
X150850600Y-112373228D01*
X150814314Y-112336942D01*
X150778028Y-112264371D01*
X150778028Y-112046657D01*
X150814314Y-111974085D01*
X150850600Y-111937800D01*
X150923171Y-111901514D01*
X151032028Y-111901514D01*
X151104600Y-111937800D01*
X151140885Y-111974085D01*
X151177171Y-112046657D01*
X151177171Y-112264371D01*
X151140885Y-112336942D01*
X151104600Y-112373228D01*
X151032028Y-112409514D01*
X150923171Y-112409514D01*
%TO.C,J3*%
X167984714Y-108712000D02*
X168529000Y-108712000D01*
X168637857Y-108748285D01*
X168710428Y-108820857D01*
X168746714Y-108929714D01*
X168746714Y-109002285D01*
X167984714Y-108421714D02*
X167984714Y-107950000D01*
X168275000Y-108204000D01*
X168275000Y-108095142D01*
X168311285Y-108022571D01*
X168347571Y-107986285D01*
X168420142Y-107950000D01*
X168601571Y-107950000D01*
X168674142Y-107986285D01*
X168710428Y-108022571D01*
X168746714Y-108095142D01*
X168746714Y-108312857D01*
X168710428Y-108385428D01*
X168674142Y-108421714D01*
X174022657Y-112358714D02*
X174022657Y-111596714D01*
X174276657Y-112141000D01*
X174530657Y-111596714D01*
X174530657Y-112358714D01*
X175220085Y-112358714D02*
X175220085Y-111959571D01*
X175183800Y-111887000D01*
X175111228Y-111850714D01*
X174966085Y-111850714D01*
X174893514Y-111887000D01*
X175220085Y-112322428D02*
X175147514Y-112358714D01*
X174966085Y-112358714D01*
X174893514Y-112322428D01*
X174857228Y-112249857D01*
X174857228Y-112177285D01*
X174893514Y-112104714D01*
X174966085Y-112068428D01*
X175147514Y-112068428D01*
X175220085Y-112032142D01*
X175474085Y-111850714D02*
X175764371Y-111850714D01*
X175582942Y-111596714D02*
X175582942Y-112249857D01*
X175619228Y-112322428D01*
X175691800Y-112358714D01*
X175764371Y-112358714D01*
X176018371Y-112358714D02*
X176018371Y-111850714D01*
X176018371Y-111995857D02*
X176054657Y-111923285D01*
X176090942Y-111887000D01*
X176163514Y-111850714D01*
X176236085Y-111850714D01*
X176490085Y-112358714D02*
X176490085Y-111850714D01*
X176490085Y-111596714D02*
X176453800Y-111633000D01*
X176490085Y-111669285D01*
X176526371Y-111633000D01*
X176490085Y-111596714D01*
X176490085Y-111669285D01*
X176780371Y-112358714D02*
X177179514Y-111850714D01*
X176780371Y-111850714D02*
X177179514Y-112358714D01*
%TO.C,R1*%
D13*
X119549333Y-108687809D02*
X119380000Y-108445904D01*
X119259047Y-108687809D02*
X119259047Y-108179809D01*
X119452571Y-108179809D01*
X119500952Y-108204000D01*
X119525142Y-108228190D01*
X119549333Y-108276571D01*
X119549333Y-108349142D01*
X119525142Y-108397523D01*
X119500952Y-108421714D01*
X119452571Y-108445904D01*
X119259047Y-108445904D01*
X120033142Y-108687809D02*
X119742857Y-108687809D01*
X119888000Y-108687809D02*
X119888000Y-108179809D01*
X119839619Y-108252380D01*
X119791238Y-108300761D01*
X119742857Y-108324952D01*
%TO.C,R2*%
X130725333Y-116053809D02*
X130556000Y-115811904D01*
X130435047Y-116053809D02*
X130435047Y-115545809D01*
X130628571Y-115545809D01*
X130676952Y-115570000D01*
X130701142Y-115594190D01*
X130725333Y-115642571D01*
X130725333Y-115715142D01*
X130701142Y-115763523D01*
X130676952Y-115787714D01*
X130628571Y-115811904D01*
X130435047Y-115811904D01*
X130918857Y-115594190D02*
X130943047Y-115570000D01*
X130991428Y-115545809D01*
X131112380Y-115545809D01*
X131160761Y-115570000D01*
X131184952Y-115594190D01*
X131209142Y-115642571D01*
X131209142Y-115690952D01*
X131184952Y-115763523D01*
X130894666Y-116053809D01*
X131209142Y-116053809D01*
%TO.C,R3*%
X135992809Y-123719166D02*
X135750904Y-123888500D01*
X135992809Y-124009452D02*
X135484809Y-124009452D01*
X135484809Y-123815928D01*
X135509000Y-123767547D01*
X135533190Y-123743357D01*
X135581571Y-123719166D01*
X135654142Y-123719166D01*
X135702523Y-123743357D01*
X135726714Y-123767547D01*
X135750904Y-123815928D01*
X135750904Y-124009452D01*
X135484809Y-123549833D02*
X135484809Y-123235357D01*
X135678333Y-123404690D01*
X135678333Y-123332119D01*
X135702523Y-123283738D01*
X135726714Y-123259547D01*
X135775095Y-123235357D01*
X135896047Y-123235357D01*
X135944428Y-123259547D01*
X135968619Y-123283738D01*
X135992809Y-123332119D01*
X135992809Y-123477261D01*
X135968619Y-123525642D01*
X135944428Y-123549833D01*
%TO.C,R4*%
X141136309Y-123592166D02*
X140894404Y-123761500D01*
X141136309Y-123882452D02*
X140628309Y-123882452D01*
X140628309Y-123688928D01*
X140652500Y-123640547D01*
X140676690Y-123616357D01*
X140725071Y-123592166D01*
X140797642Y-123592166D01*
X140846023Y-123616357D01*
X140870214Y-123640547D01*
X140894404Y-123688928D01*
X140894404Y-123882452D01*
X140797642Y-123156738D02*
X141136309Y-123156738D01*
X140604119Y-123277690D02*
X140966976Y-123398642D01*
X140966976Y-123084166D01*
%TO.C,R5*%
X146216309Y-123592166D02*
X145974404Y-123761500D01*
X146216309Y-123882452D02*
X145708309Y-123882452D01*
X145708309Y-123688928D01*
X145732500Y-123640547D01*
X145756690Y-123616357D01*
X145805071Y-123592166D01*
X145877642Y-123592166D01*
X145926023Y-123616357D01*
X145950214Y-123640547D01*
X145974404Y-123688928D01*
X145974404Y-123882452D01*
X145708309Y-123132547D02*
X145708309Y-123374452D01*
X145950214Y-123398642D01*
X145926023Y-123374452D01*
X145901833Y-123326071D01*
X145901833Y-123205119D01*
X145926023Y-123156738D01*
X145950214Y-123132547D01*
X145998595Y-123108357D01*
X146119547Y-123108357D01*
X146167928Y-123132547D01*
X146192119Y-123156738D01*
X146216309Y-123205119D01*
X146216309Y-123326071D01*
X146192119Y-123374452D01*
X146167928Y-123398642D01*
%TO.C,R6*%
X162284833Y-108941809D02*
X162115500Y-108699904D01*
X161994547Y-108941809D02*
X161994547Y-108433809D01*
X162188071Y-108433809D01*
X162236452Y-108458000D01*
X162260642Y-108482190D01*
X162284833Y-108530571D01*
X162284833Y-108603142D01*
X162260642Y-108651523D01*
X162236452Y-108675714D01*
X162188071Y-108699904D01*
X161994547Y-108699904D01*
X162720261Y-108433809D02*
X162623500Y-108433809D01*
X162575119Y-108458000D01*
X162550928Y-108482190D01*
X162502547Y-108554761D01*
X162478357Y-108651523D01*
X162478357Y-108845047D01*
X162502547Y-108893428D01*
X162526738Y-108917619D01*
X162575119Y-108941809D01*
X162671880Y-108941809D01*
X162720261Y-108917619D01*
X162744452Y-108893428D01*
X162768642Y-108845047D01*
X162768642Y-108724095D01*
X162744452Y-108675714D01*
X162720261Y-108651523D01*
X162671880Y-108627333D01*
X162575119Y-108627333D01*
X162526738Y-108651523D01*
X162502547Y-108675714D01*
X162478357Y-108724095D01*
%TO.C,SW0*%
D14*
X108340071Y-121248714D02*
X108267500Y-121212428D01*
X108231214Y-121176142D01*
X108194928Y-121103571D01*
X108194928Y-120885857D01*
X108231214Y-120813285D01*
X108267500Y-120777000D01*
X108340071Y-120740714D01*
X108448928Y-120740714D01*
X108521500Y-120777000D01*
X108557785Y-120813285D01*
X108594071Y-120885857D01*
X108594071Y-121103571D01*
X108557785Y-121176142D01*
X108521500Y-121212428D01*
X108448928Y-121248714D01*
X108340071Y-121248714D01*
X108920642Y-120740714D02*
X108920642Y-121248714D01*
X108920642Y-120813285D02*
X108956928Y-120777000D01*
X109029500Y-120740714D01*
X109138357Y-120740714D01*
X109210928Y-120777000D01*
X109247214Y-120849571D01*
X109247214Y-121248714D01*
X110154357Y-120450428D02*
X109501214Y-121430142D01*
X110517214Y-121248714D02*
X110444642Y-121212428D01*
X110408357Y-121176142D01*
X110372071Y-121103571D01*
X110372071Y-120885857D01*
X110408357Y-120813285D01*
X110444642Y-120777000D01*
X110517214Y-120740714D01*
X110626071Y-120740714D01*
X110698642Y-120777000D01*
X110734928Y-120813285D01*
X110771214Y-120885857D01*
X110771214Y-121103571D01*
X110734928Y-121176142D01*
X110698642Y-121212428D01*
X110626071Y-121248714D01*
X110517214Y-121248714D01*
X110988928Y-120740714D02*
X111279214Y-120740714D01*
X111097785Y-121248714D02*
X111097785Y-120595571D01*
X111134071Y-120523000D01*
X111206642Y-120486714D01*
X111279214Y-120486714D01*
X111424357Y-120740714D02*
X111714642Y-120740714D01*
X111533214Y-121248714D02*
X111533214Y-120595571D01*
X111569500Y-120523000D01*
X111642071Y-120486714D01*
X111714642Y-120486714D01*
%TO.C,SW1*%
D13*
X131402666Y-121617619D02*
X131475238Y-121641809D01*
X131596190Y-121641809D01*
X131644571Y-121617619D01*
X131668761Y-121593428D01*
X131692952Y-121545047D01*
X131692952Y-121496666D01*
X131668761Y-121448285D01*
X131644571Y-121424095D01*
X131596190Y-121399904D01*
X131499428Y-121375714D01*
X131451047Y-121351523D01*
X131426857Y-121327333D01*
X131402666Y-121278952D01*
X131402666Y-121230571D01*
X131426857Y-121182190D01*
X131451047Y-121158000D01*
X131499428Y-121133809D01*
X131620380Y-121133809D01*
X131692952Y-121158000D01*
X131862285Y-121133809D02*
X131983238Y-121641809D01*
X132080000Y-121278952D01*
X132176761Y-121641809D01*
X132297714Y-121133809D01*
X132757333Y-121641809D02*
X132467047Y-121641809D01*
X132612190Y-121641809D02*
X132612190Y-121133809D01*
X132563809Y-121206380D01*
X132515428Y-121254761D01*
X132467047Y-121278952D01*
X126135190Y-121699261D02*
X126135190Y-121275928D01*
X126135190Y-121336404D02*
X126165428Y-121306166D01*
X126225904Y-121275928D01*
X126316619Y-121275928D01*
X126377095Y-121306166D01*
X126407333Y-121366642D01*
X126407333Y-121699261D01*
X126407333Y-121366642D02*
X126437571Y-121306166D01*
X126498047Y-121275928D01*
X126588761Y-121275928D01*
X126649238Y-121306166D01*
X126679476Y-121366642D01*
X126679476Y-121699261D01*
X127072571Y-121699261D02*
X127012095Y-121669023D01*
X126981857Y-121638785D01*
X126951619Y-121578309D01*
X126951619Y-121396880D01*
X126981857Y-121336404D01*
X127012095Y-121306166D01*
X127072571Y-121275928D01*
X127163285Y-121275928D01*
X127223761Y-121306166D01*
X127254000Y-121336404D01*
X127284238Y-121396880D01*
X127284238Y-121578309D01*
X127254000Y-121638785D01*
X127223761Y-121669023D01*
X127163285Y-121699261D01*
X127072571Y-121699261D01*
X127828523Y-121699261D02*
X127828523Y-121064261D01*
X127828523Y-121669023D02*
X127768047Y-121699261D01*
X127647095Y-121699261D01*
X127586619Y-121669023D01*
X127556380Y-121638785D01*
X127526142Y-121578309D01*
X127526142Y-121396880D01*
X127556380Y-121336404D01*
X127586619Y-121306166D01*
X127647095Y-121275928D01*
X127768047Y-121275928D01*
X127828523Y-121306166D01*
X128372809Y-121669023D02*
X128312333Y-121699261D01*
X128191380Y-121699261D01*
X128130904Y-121669023D01*
X128100666Y-121608547D01*
X128100666Y-121366642D01*
X128130904Y-121306166D01*
X128191380Y-121275928D01*
X128312333Y-121275928D01*
X128372809Y-121306166D01*
X128403047Y-121366642D01*
X128403047Y-121427119D01*
X128100666Y-121487595D01*
%TO.C,SW3*%
X178265666Y-121820819D02*
X178338238Y-121845009D01*
X178459190Y-121845009D01*
X178507571Y-121820819D01*
X178531761Y-121796628D01*
X178555952Y-121748247D01*
X178555952Y-121699866D01*
X178531761Y-121651485D01*
X178507571Y-121627295D01*
X178459190Y-121603104D01*
X178362428Y-121578914D01*
X178314047Y-121554723D01*
X178289857Y-121530533D01*
X178265666Y-121482152D01*
X178265666Y-121433771D01*
X178289857Y-121385390D01*
X178314047Y-121361200D01*
X178362428Y-121337009D01*
X178483380Y-121337009D01*
X178555952Y-121361200D01*
X178725285Y-121337009D02*
X178846238Y-121845009D01*
X178943000Y-121482152D01*
X179039761Y-121845009D01*
X179160714Y-121337009D01*
X179305857Y-121337009D02*
X179620333Y-121337009D01*
X179451000Y-121530533D01*
X179523571Y-121530533D01*
X179571952Y-121554723D01*
X179596142Y-121578914D01*
X179620333Y-121627295D01*
X179620333Y-121748247D01*
X179596142Y-121796628D01*
X179571952Y-121820819D01*
X179523571Y-121845009D01*
X179378428Y-121845009D01*
X179330047Y-121820819D01*
X179305857Y-121796628D01*
D14*
X171914457Y-121212428D02*
X171841885Y-121248714D01*
X171696742Y-121248714D01*
X171624171Y-121212428D01*
X171587885Y-121139857D01*
X171587885Y-120849571D01*
X171624171Y-120777000D01*
X171696742Y-120740714D01*
X171841885Y-120740714D01*
X171914457Y-120777000D01*
X171950742Y-120849571D01*
X171950742Y-120922142D01*
X171587885Y-120994714D01*
X172168457Y-120740714D02*
X172458742Y-120740714D01*
X172277314Y-121248714D02*
X172277314Y-120595571D01*
X172313600Y-120523000D01*
X172386171Y-120486714D01*
X172458742Y-120486714D01*
X172603885Y-120740714D02*
X172894171Y-120740714D01*
X172712742Y-121248714D02*
X172712742Y-120595571D01*
X172749028Y-120523000D01*
X172821600Y-120486714D01*
X172894171Y-120486714D01*
X173438457Y-121212428D02*
X173365885Y-121248714D01*
X173220742Y-121248714D01*
X173148171Y-121212428D01*
X173111885Y-121139857D01*
X173111885Y-120849571D01*
X173148171Y-120777000D01*
X173220742Y-120740714D01*
X173365885Y-120740714D01*
X173438457Y-120777000D01*
X173474742Y-120849571D01*
X173474742Y-120922142D01*
X173111885Y-120994714D01*
X174127885Y-121212428D02*
X174055314Y-121248714D01*
X173910171Y-121248714D01*
X173837600Y-121212428D01*
X173801314Y-121176142D01*
X173765028Y-121103571D01*
X173765028Y-120885857D01*
X173801314Y-120813285D01*
X173837600Y-120777000D01*
X173910171Y-120740714D01*
X174055314Y-120740714D01*
X174127885Y-120777000D01*
X174345600Y-120740714D02*
X174635885Y-120740714D01*
X174454457Y-120486714D02*
X174454457Y-121139857D01*
X174490742Y-121212428D01*
X174563314Y-121248714D01*
X174635885Y-121248714D01*
%TD*%
M02*
