M48
; DRILL file {KiCad (5.1.9)-1} date 06/15/21 17:21:31
; FORMAT={-:-/ absolute / inch / decimal}
; #@! TF.CreationDate,2021-06-15T17:21:31+01:00
; #@! TF.GenerationSoftware,Kicad,Pcbnew,(5.1.9)-1
; #@! TF.FileFunction,Plated,1,2,PTH
FMAT,2
INCH
T1C0.0300
T2C0.0315
T3C0.0390
T4C0.0394
T5C0.0472
T6C0.0512
%
G90
G05
T1
X4.225Y-4.83
X4.325Y-4.83
X4.425Y-4.83
T2
X4.78Y-4.31
X4.78Y-4.5175
X5.08Y-4.31
X5.08Y-4.5175
X5.375Y-4.5
X5.375Y-4.8
X5.575Y-4.4975
X5.575Y-4.7975
X5.775Y-4.4975
X5.775Y-4.7975
X6.02Y-4.31
X6.32Y-4.31
X6.505Y-4.46
X6.505Y-4.5978
T3
X4.8828Y-4.89
X5.06Y-4.89
X6.0928Y-4.89
X6.27Y-4.89
X6.7228Y-4.89
X6.9Y-4.89
T4
X4.22Y-4.31
X4.32Y-4.31
X4.42Y-4.31
X5.275Y-4.31
X5.375Y-4.31
X5.475Y-4.31
X5.575Y-4.31
X5.675Y-4.31
X5.775Y-4.31
X5.875Y-4.31
X6.73Y-4.31
X6.83Y-4.31
X6.93Y-4.31
T5
X4.08Y-4.29
X4.08Y-4.92
X7.07Y-4.29
X7.07Y-4.92
T6
X4.8332Y-4.792
X5.1092Y-4.792
X6.0432Y-4.792
X6.3192Y-4.792
X6.6732Y-4.792
X6.9492Y-4.792
T0
M30
