%TF.GenerationSoftware,KiCad,Pcbnew,(5.1.9)-1*%
%TF.CreationDate,2021-06-30T13:01:53+01:00*%
%TF.ProjectId,bikepixel rear,62696b65-7069-4786-956c-20726561722e,v0.5*%
%TF.SameCoordinates,Original*%
%TF.FileFunction,Soldermask,Bot*%
%TF.FilePolarity,Negative*%
%FSLAX46Y46*%
G04 Gerber Fmt 4.6, Leading zero omitted, Abs format (unit mm)*
G04 Created by KiCad (PCBNEW (5.1.9)-1) date 2021-06-30 13:01:53*
%MOMM*%
%LPD*%
G01*
G04 APERTURE LIST*
%ADD10C,2.000000*%
%ADD11C,2.100000*%
%ADD12C,1.750000*%
%ADD13C,1.600000*%
%ADD14R,1.700000X1.700000*%
%ADD15O,1.700000X1.700000*%
%ADD16O,1.600000X1.600000*%
%ADD17C,1.524000*%
G04 APERTURE END LIST*
D10*
%TO.C,H3*%
X182245000Y-107315000D03*
%TD*%
%TO.C,H4*%
X182245000Y-91313000D03*
%TD*%
%TO.C,H2*%
X106299000Y-107315000D03*
%TD*%
%TO.C,H1*%
X106299000Y-91313000D03*
%TD*%
D11*
%TO.C,SW2*%
X163175000Y-104063000D03*
D12*
X161925000Y-106553000D03*
X157425000Y-106553000D03*
D11*
X156165000Y-104063000D03*
%TD*%
D13*
%TO.C,C1*%
X167894000Y-95631000D03*
X167894000Y-99131000D03*
%TD*%
D14*
%TO.C,J1*%
X109855000Y-91821000D03*
D15*
X112395000Y-91821000D03*
X114935000Y-91821000D03*
%TD*%
D14*
%TO.C,J2*%
X136652000Y-91821000D03*
D15*
X139192000Y-91821000D03*
X141732000Y-91821000D03*
X144272000Y-91821000D03*
X146812000Y-91821000D03*
X149352000Y-91821000D03*
X151892000Y-91821000D03*
%TD*%
%TO.C,J3*%
X178689000Y-91821000D03*
X176149000Y-91821000D03*
D14*
X173609000Y-91821000D03*
%TD*%
D16*
%TO.C,R1*%
X131699000Y-91821000D03*
D13*
X124079000Y-91821000D03*
%TD*%
%TO.C,R2*%
X124079000Y-97091500D03*
D16*
X131699000Y-97091500D03*
%TD*%
%TO.C,R3*%
X139192000Y-96647000D03*
D13*
X139192000Y-104267000D03*
%TD*%
%TO.C,R4*%
X144272000Y-104203500D03*
D16*
X144272000Y-96583500D03*
%TD*%
%TO.C,R5*%
X149352000Y-96583500D03*
D13*
X149352000Y-104203500D03*
%TD*%
%TO.C,R6*%
X155575000Y-91821000D03*
D16*
X163195000Y-91821000D03*
%TD*%
D17*
%TO.C,SW0*%
X109982000Y-105029000D03*
X112522000Y-105029000D03*
X115062000Y-105029000D03*
%TD*%
D11*
%TO.C,SW1*%
X125431000Y-104063000D03*
D12*
X126691000Y-106553000D03*
X131191000Y-106553000D03*
D11*
X132441000Y-104063000D03*
%TD*%
%TO.C,SW3*%
X172167000Y-104063000D03*
D12*
X173427000Y-106553000D03*
X177927000Y-106553000D03*
D11*
X179177000Y-104063000D03*
%TD*%
M02*
