%TF.GenerationSoftware,KiCad,Pcbnew,(5.1.9)-1*%
%TF.CreationDate,2021-06-30T13:01:53+01:00*%
%TF.ProjectId,bikepixel rear,62696b65-7069-4786-956c-20726561722e,v0.5*%
%TF.SameCoordinates,Original*%
%TF.FileFunction,Legend,Top*%
%TF.FilePolarity,Positive*%
%FSLAX46Y46*%
G04 Gerber Fmt 4.6, Leading zero omitted, Abs format (unit mm)*
G04 Created by KiCad (PCBNEW (5.1.9)-1) date 2021-06-30 13:01:53*
%MOMM*%
%LPD*%
G01*
G04 APERTURE LIST*
%ADD10C,0.010000*%
%ADD11C,0.120000*%
%ADD12C,0.240000*%
%ADD13C,0.076200*%
%ADD14C,0.101600*%
G04 APERTURE END LIST*
D10*
%TO.C,Bike Pixel Rear v0.5*%
G36*
X107784900Y-96926400D02*
G01*
X107067350Y-96926400D01*
X107067350Y-96202500D01*
X107784900Y-96202500D01*
X107784900Y-96926400D01*
G37*
X107784900Y-96926400D02*
X107067350Y-96926400D01*
X107067350Y-96202500D01*
X107784900Y-96202500D01*
X107784900Y-96926400D01*
G36*
X111359950Y-97815400D02*
G01*
X110635945Y-97815400D01*
X110637585Y-97455037D01*
X110639225Y-97094675D01*
X110999587Y-97093035D01*
X111359950Y-97091395D01*
X111359950Y-97815400D01*
G37*
X111359950Y-97815400D02*
X110635945Y-97815400D01*
X110637585Y-97455037D01*
X110639225Y-97094675D01*
X110999587Y-97093035D01*
X111359950Y-97091395D01*
X111359950Y-97815400D01*
G36*
X110107412Y-97093035D02*
G01*
X110467775Y-97094675D01*
X110469414Y-97455037D01*
X110471054Y-97815400D01*
X109747050Y-97815400D01*
X109747050Y-97091395D01*
X110107412Y-97093035D01*
G37*
X110107412Y-97093035D02*
X110467775Y-97094675D01*
X110469414Y-97455037D01*
X110471054Y-97815400D01*
X109747050Y-97815400D01*
X109747050Y-97091395D01*
X110107412Y-97093035D01*
G36*
X109574064Y-97455037D02*
G01*
X109575704Y-97815400D01*
X108851595Y-97815400D01*
X108853235Y-97455037D01*
X108854875Y-97094675D01*
X109572425Y-97094675D01*
X109574064Y-97455037D01*
G37*
X109574064Y-97455037D02*
X109575704Y-97815400D01*
X108851595Y-97815400D01*
X108853235Y-97455037D01*
X108854875Y-97094675D01*
X109572425Y-97094675D01*
X109574064Y-97455037D01*
G36*
X108680250Y-97815400D02*
G01*
X107956245Y-97815400D01*
X107957885Y-97455037D01*
X107959525Y-97094675D01*
X108319887Y-97093035D01*
X108680250Y-97091395D01*
X108680250Y-97815400D01*
G37*
X108680250Y-97815400D02*
X107956245Y-97815400D01*
X107957885Y-97455037D01*
X107959525Y-97094675D01*
X108319887Y-97093035D01*
X108680250Y-97091395D01*
X108680250Y-97815400D01*
G36*
X107784900Y-97815400D02*
G01*
X107067350Y-97815400D01*
X107067350Y-97091500D01*
X107784900Y-97091500D01*
X107784900Y-97815400D01*
G37*
X107784900Y-97815400D02*
X107067350Y-97815400D01*
X107067350Y-97091500D01*
X107784900Y-97091500D01*
X107784900Y-97815400D01*
G36*
X111817150Y-100037900D02*
G01*
X111093145Y-100037900D01*
X111094785Y-99677537D01*
X111096425Y-99317175D01*
X111456787Y-99315535D01*
X111817150Y-99313895D01*
X111817150Y-100037900D01*
G37*
X111817150Y-100037900D02*
X111093145Y-100037900D01*
X111094785Y-99677537D01*
X111096425Y-99317175D01*
X111456787Y-99315535D01*
X111817150Y-99313895D01*
X111817150Y-100037900D01*
G36*
X106989562Y-99315535D02*
G01*
X107349925Y-99317175D01*
X107351564Y-99677537D01*
X107353204Y-100037900D01*
X106629200Y-100037900D01*
X106629200Y-99313895D01*
X106989562Y-99315535D01*
G37*
X106989562Y-99315535D02*
X107349925Y-99317175D01*
X107351564Y-99677537D01*
X107353204Y-100037900D01*
X106629200Y-100037900D01*
X106629200Y-99313895D01*
X106989562Y-99315535D01*
%TO.C,OSHW*%
G36*
X181022814Y-95385931D02*
G01*
X181106635Y-95830555D01*
X181415920Y-95958053D01*
X181725206Y-96085551D01*
X182096246Y-95833246D01*
X182200157Y-95762996D01*
X182294087Y-95700272D01*
X182373652Y-95647938D01*
X182434470Y-95608857D01*
X182472157Y-95585893D01*
X182482421Y-95580942D01*
X182500910Y-95593676D01*
X182540420Y-95628882D01*
X182596522Y-95682062D01*
X182664787Y-95748718D01*
X182740786Y-95824354D01*
X182820092Y-95904472D01*
X182898275Y-95984574D01*
X182970907Y-96060164D01*
X183033559Y-96126745D01*
X183081803Y-96179818D01*
X183111210Y-96214887D01*
X183118241Y-96226623D01*
X183108123Y-96248260D01*
X183079759Y-96295662D01*
X183036129Y-96364193D01*
X182980218Y-96449215D01*
X182915006Y-96546093D01*
X182877219Y-96601350D01*
X182808343Y-96702248D01*
X182747140Y-96793299D01*
X182696578Y-96869970D01*
X182659628Y-96927728D01*
X182639258Y-96962043D01*
X182636197Y-96969254D01*
X182643136Y-96989748D01*
X182662051Y-97037513D01*
X182690087Y-97105832D01*
X182724391Y-97187989D01*
X182762109Y-97277270D01*
X182800387Y-97366958D01*
X182836370Y-97450338D01*
X182867206Y-97520694D01*
X182890039Y-97571310D01*
X182902017Y-97595471D01*
X182902724Y-97596422D01*
X182921531Y-97601036D01*
X182971618Y-97611328D01*
X183047793Y-97626287D01*
X183144865Y-97644901D01*
X183257643Y-97666159D01*
X183323442Y-97678418D01*
X183443950Y-97701362D01*
X183552797Y-97723195D01*
X183644476Y-97742722D01*
X183713481Y-97758748D01*
X183754304Y-97770079D01*
X183762511Y-97773674D01*
X183770548Y-97798006D01*
X183777033Y-97852959D01*
X183781970Y-97932108D01*
X183785364Y-98029026D01*
X183787218Y-98137287D01*
X183787538Y-98250465D01*
X183786327Y-98362135D01*
X183783590Y-98465868D01*
X183779331Y-98555241D01*
X183773555Y-98623826D01*
X183766267Y-98665197D01*
X183761895Y-98673810D01*
X183735764Y-98684133D01*
X183680393Y-98698892D01*
X183603107Y-98716352D01*
X183511230Y-98734780D01*
X183479158Y-98740741D01*
X183324524Y-98769066D01*
X183202375Y-98791876D01*
X183108673Y-98810080D01*
X183039384Y-98824583D01*
X182990471Y-98836292D01*
X182957897Y-98846115D01*
X182937628Y-98854956D01*
X182925626Y-98863724D01*
X182923947Y-98865457D01*
X182907184Y-98893371D01*
X182881614Y-98947695D01*
X182849788Y-99021777D01*
X182814260Y-99108965D01*
X182777583Y-99202608D01*
X182742311Y-99296052D01*
X182710996Y-99382647D01*
X182686193Y-99455740D01*
X182670454Y-99508678D01*
X182666332Y-99534811D01*
X182666676Y-99535726D01*
X182680641Y-99557086D01*
X182712322Y-99604084D01*
X182758391Y-99671827D01*
X182815518Y-99755423D01*
X182880373Y-99849982D01*
X182898843Y-99876854D01*
X182964699Y-99974275D01*
X183022650Y-100063163D01*
X183069538Y-100138412D01*
X183102207Y-100194920D01*
X183117500Y-100227581D01*
X183118241Y-100231593D01*
X183105392Y-100252684D01*
X183069888Y-100294464D01*
X183016293Y-100352445D01*
X182949171Y-100422135D01*
X182873087Y-100499045D01*
X182792604Y-100578683D01*
X182712287Y-100656561D01*
X182636699Y-100728186D01*
X182570405Y-100789070D01*
X182517969Y-100834721D01*
X182483955Y-100860650D01*
X182474545Y-100864883D01*
X182452643Y-100854912D01*
X182407800Y-100828020D01*
X182347321Y-100788736D01*
X182300789Y-100757117D01*
X182216475Y-100699098D01*
X182116626Y-100630784D01*
X182016473Y-100562579D01*
X181962627Y-100526075D01*
X181780371Y-100402800D01*
X181627381Y-100485520D01*
X181557682Y-100521759D01*
X181498414Y-100549926D01*
X181458311Y-100565991D01*
X181448103Y-100568226D01*
X181435829Y-100551722D01*
X181411613Y-100505082D01*
X181377263Y-100432609D01*
X181334588Y-100338606D01*
X181285394Y-100227374D01*
X181231490Y-100103215D01*
X181174684Y-99970432D01*
X181116782Y-99833327D01*
X181059593Y-99696202D01*
X181004924Y-99563358D01*
X180954584Y-99439098D01*
X180910380Y-99327725D01*
X180874119Y-99233539D01*
X180847609Y-99160844D01*
X180832658Y-99113941D01*
X180830254Y-99097833D01*
X180849311Y-99077286D01*
X180891036Y-99043933D01*
X180946706Y-99004702D01*
X180951378Y-99001599D01*
X181095264Y-98886423D01*
X181211283Y-98752053D01*
X181298430Y-98602784D01*
X181355699Y-98442913D01*
X181382086Y-98276737D01*
X181376585Y-98108552D01*
X181338190Y-97942655D01*
X181265895Y-97783342D01*
X181244626Y-97748487D01*
X181133996Y-97607737D01*
X181003302Y-97494714D01*
X180857064Y-97410003D01*
X180699808Y-97354194D01*
X180536057Y-97327874D01*
X180370333Y-97331630D01*
X180207162Y-97366050D01*
X180051065Y-97431723D01*
X179906567Y-97529235D01*
X179861869Y-97568813D01*
X179748112Y-97692703D01*
X179665218Y-97823124D01*
X179608356Y-97969315D01*
X179576687Y-98114088D01*
X179568869Y-98276860D01*
X179594938Y-98440440D01*
X179652245Y-98599298D01*
X179738144Y-98747906D01*
X179849986Y-98880735D01*
X179985123Y-98992256D01*
X180002883Y-99004011D01*
X180059150Y-99042508D01*
X180101923Y-99075863D01*
X180122372Y-99097160D01*
X180122669Y-99097833D01*
X180118279Y-99120871D01*
X180100876Y-99173157D01*
X180072268Y-99250390D01*
X180034265Y-99348268D01*
X179988674Y-99462491D01*
X179937303Y-99588758D01*
X179881962Y-99722767D01*
X179824458Y-99860218D01*
X179766601Y-99996808D01*
X179710198Y-100128237D01*
X179657058Y-100250205D01*
X179608990Y-100358409D01*
X179567801Y-100448549D01*
X179535301Y-100516323D01*
X179513297Y-100557430D01*
X179504436Y-100568226D01*
X179477360Y-100559819D01*
X179426697Y-100537272D01*
X179361183Y-100504613D01*
X179325159Y-100485520D01*
X179172168Y-100402800D01*
X178989912Y-100526075D01*
X178896875Y-100589228D01*
X178795015Y-100658727D01*
X178699562Y-100724165D01*
X178651750Y-100757117D01*
X178584505Y-100802273D01*
X178527564Y-100838057D01*
X178488354Y-100859938D01*
X178475619Y-100864563D01*
X178457083Y-100852085D01*
X178416059Y-100817252D01*
X178356525Y-100763678D01*
X178282458Y-100694983D01*
X178197835Y-100614781D01*
X178144315Y-100563286D01*
X178050681Y-100471286D01*
X177969759Y-100388999D01*
X177904823Y-100319945D01*
X177859142Y-100267644D01*
X177835989Y-100235616D01*
X177833768Y-100229116D01*
X177844076Y-100204394D01*
X177872561Y-100154405D01*
X177916063Y-100084212D01*
X177971423Y-99998875D01*
X178035480Y-99903456D01*
X178053697Y-99876854D01*
X178120073Y-99780167D01*
X178179622Y-99693117D01*
X178229016Y-99620595D01*
X178264925Y-99567493D01*
X178284019Y-99538703D01*
X178285864Y-99535726D01*
X178283105Y-99512782D01*
X178268462Y-99462336D01*
X178244487Y-99391041D01*
X178213734Y-99305547D01*
X178178756Y-99212507D01*
X178142107Y-99118574D01*
X178106339Y-99030399D01*
X178074006Y-98954634D01*
X178047662Y-98897931D01*
X178029858Y-98866943D01*
X178028593Y-98865457D01*
X178017706Y-98856601D01*
X177999318Y-98847843D01*
X177969394Y-98838277D01*
X177923897Y-98826996D01*
X177858791Y-98813093D01*
X177770039Y-98795663D01*
X177653607Y-98773798D01*
X177505458Y-98746591D01*
X177473382Y-98740741D01*
X177378314Y-98722374D01*
X177295435Y-98704405D01*
X177232070Y-98688569D01*
X177195542Y-98676600D01*
X177190644Y-98673810D01*
X177182573Y-98649072D01*
X177176013Y-98593790D01*
X177170967Y-98514389D01*
X177167441Y-98417296D01*
X177165439Y-98308938D01*
X177164964Y-98195740D01*
X177166023Y-98084128D01*
X177168618Y-97980529D01*
X177172754Y-97891368D01*
X177178437Y-97823072D01*
X177185669Y-97782066D01*
X177190029Y-97773674D01*
X177214302Y-97765208D01*
X177269574Y-97751435D01*
X177350338Y-97733550D01*
X177451088Y-97712748D01*
X177566317Y-97690223D01*
X177629098Y-97678418D01*
X177748213Y-97656151D01*
X177854435Y-97635979D01*
X177942573Y-97618915D01*
X178007434Y-97605969D01*
X178043826Y-97598155D01*
X178049816Y-97596422D01*
X178059939Y-97576890D01*
X178081338Y-97529843D01*
X178111161Y-97462003D01*
X178146555Y-97380091D01*
X178184668Y-97290828D01*
X178222647Y-97200935D01*
X178257640Y-97117135D01*
X178286794Y-97046147D01*
X178307257Y-96994694D01*
X178316177Y-96969497D01*
X178316343Y-96968396D01*
X178306231Y-96948519D01*
X178277883Y-96902777D01*
X178234277Y-96835717D01*
X178178394Y-96751884D01*
X178113213Y-96655826D01*
X178075321Y-96600650D01*
X178006275Y-96499481D01*
X177944950Y-96407630D01*
X177894337Y-96329744D01*
X177857429Y-96270469D01*
X177837218Y-96234451D01*
X177834299Y-96226377D01*
X177846847Y-96207584D01*
X177881537Y-96167457D01*
X177933937Y-96110493D01*
X177999616Y-96041185D01*
X178074144Y-95964031D01*
X178153087Y-95883525D01*
X178232017Y-95804163D01*
X178306500Y-95730440D01*
X178372106Y-95666852D01*
X178424404Y-95617894D01*
X178458961Y-95588061D01*
X178470522Y-95580942D01*
X178489346Y-95590953D01*
X178534369Y-95619078D01*
X178601213Y-95662454D01*
X178685501Y-95718218D01*
X178782856Y-95783506D01*
X178856293Y-95833246D01*
X179227333Y-96085551D01*
X179845905Y-95830555D01*
X179929725Y-95385931D01*
X180013546Y-94941307D01*
X180938994Y-94941307D01*
X181022814Y-95385931D01*
G37*
X181022814Y-95385931D02*
X181106635Y-95830555D01*
X181415920Y-95958053D01*
X181725206Y-96085551D01*
X182096246Y-95833246D01*
X182200157Y-95762996D01*
X182294087Y-95700272D01*
X182373652Y-95647938D01*
X182434470Y-95608857D01*
X182472157Y-95585893D01*
X182482421Y-95580942D01*
X182500910Y-95593676D01*
X182540420Y-95628882D01*
X182596522Y-95682062D01*
X182664787Y-95748718D01*
X182740786Y-95824354D01*
X182820092Y-95904472D01*
X182898275Y-95984574D01*
X182970907Y-96060164D01*
X183033559Y-96126745D01*
X183081803Y-96179818D01*
X183111210Y-96214887D01*
X183118241Y-96226623D01*
X183108123Y-96248260D01*
X183079759Y-96295662D01*
X183036129Y-96364193D01*
X182980218Y-96449215D01*
X182915006Y-96546093D01*
X182877219Y-96601350D01*
X182808343Y-96702248D01*
X182747140Y-96793299D01*
X182696578Y-96869970D01*
X182659628Y-96927728D01*
X182639258Y-96962043D01*
X182636197Y-96969254D01*
X182643136Y-96989748D01*
X182662051Y-97037513D01*
X182690087Y-97105832D01*
X182724391Y-97187989D01*
X182762109Y-97277270D01*
X182800387Y-97366958D01*
X182836370Y-97450338D01*
X182867206Y-97520694D01*
X182890039Y-97571310D01*
X182902017Y-97595471D01*
X182902724Y-97596422D01*
X182921531Y-97601036D01*
X182971618Y-97611328D01*
X183047793Y-97626287D01*
X183144865Y-97644901D01*
X183257643Y-97666159D01*
X183323442Y-97678418D01*
X183443950Y-97701362D01*
X183552797Y-97723195D01*
X183644476Y-97742722D01*
X183713481Y-97758748D01*
X183754304Y-97770079D01*
X183762511Y-97773674D01*
X183770548Y-97798006D01*
X183777033Y-97852959D01*
X183781970Y-97932108D01*
X183785364Y-98029026D01*
X183787218Y-98137287D01*
X183787538Y-98250465D01*
X183786327Y-98362135D01*
X183783590Y-98465868D01*
X183779331Y-98555241D01*
X183773555Y-98623826D01*
X183766267Y-98665197D01*
X183761895Y-98673810D01*
X183735764Y-98684133D01*
X183680393Y-98698892D01*
X183603107Y-98716352D01*
X183511230Y-98734780D01*
X183479158Y-98740741D01*
X183324524Y-98769066D01*
X183202375Y-98791876D01*
X183108673Y-98810080D01*
X183039384Y-98824583D01*
X182990471Y-98836292D01*
X182957897Y-98846115D01*
X182937628Y-98854956D01*
X182925626Y-98863724D01*
X182923947Y-98865457D01*
X182907184Y-98893371D01*
X182881614Y-98947695D01*
X182849788Y-99021777D01*
X182814260Y-99108965D01*
X182777583Y-99202608D01*
X182742311Y-99296052D01*
X182710996Y-99382647D01*
X182686193Y-99455740D01*
X182670454Y-99508678D01*
X182666332Y-99534811D01*
X182666676Y-99535726D01*
X182680641Y-99557086D01*
X182712322Y-99604084D01*
X182758391Y-99671827D01*
X182815518Y-99755423D01*
X182880373Y-99849982D01*
X182898843Y-99876854D01*
X182964699Y-99974275D01*
X183022650Y-100063163D01*
X183069538Y-100138412D01*
X183102207Y-100194920D01*
X183117500Y-100227581D01*
X183118241Y-100231593D01*
X183105392Y-100252684D01*
X183069888Y-100294464D01*
X183016293Y-100352445D01*
X182949171Y-100422135D01*
X182873087Y-100499045D01*
X182792604Y-100578683D01*
X182712287Y-100656561D01*
X182636699Y-100728186D01*
X182570405Y-100789070D01*
X182517969Y-100834721D01*
X182483955Y-100860650D01*
X182474545Y-100864883D01*
X182452643Y-100854912D01*
X182407800Y-100828020D01*
X182347321Y-100788736D01*
X182300789Y-100757117D01*
X182216475Y-100699098D01*
X182116626Y-100630784D01*
X182016473Y-100562579D01*
X181962627Y-100526075D01*
X181780371Y-100402800D01*
X181627381Y-100485520D01*
X181557682Y-100521759D01*
X181498414Y-100549926D01*
X181458311Y-100565991D01*
X181448103Y-100568226D01*
X181435829Y-100551722D01*
X181411613Y-100505082D01*
X181377263Y-100432609D01*
X181334588Y-100338606D01*
X181285394Y-100227374D01*
X181231490Y-100103215D01*
X181174684Y-99970432D01*
X181116782Y-99833327D01*
X181059593Y-99696202D01*
X181004924Y-99563358D01*
X180954584Y-99439098D01*
X180910380Y-99327725D01*
X180874119Y-99233539D01*
X180847609Y-99160844D01*
X180832658Y-99113941D01*
X180830254Y-99097833D01*
X180849311Y-99077286D01*
X180891036Y-99043933D01*
X180946706Y-99004702D01*
X180951378Y-99001599D01*
X181095264Y-98886423D01*
X181211283Y-98752053D01*
X181298430Y-98602784D01*
X181355699Y-98442913D01*
X181382086Y-98276737D01*
X181376585Y-98108552D01*
X181338190Y-97942655D01*
X181265895Y-97783342D01*
X181244626Y-97748487D01*
X181133996Y-97607737D01*
X181003302Y-97494714D01*
X180857064Y-97410003D01*
X180699808Y-97354194D01*
X180536057Y-97327874D01*
X180370333Y-97331630D01*
X180207162Y-97366050D01*
X180051065Y-97431723D01*
X179906567Y-97529235D01*
X179861869Y-97568813D01*
X179748112Y-97692703D01*
X179665218Y-97823124D01*
X179608356Y-97969315D01*
X179576687Y-98114088D01*
X179568869Y-98276860D01*
X179594938Y-98440440D01*
X179652245Y-98599298D01*
X179738144Y-98747906D01*
X179849986Y-98880735D01*
X179985123Y-98992256D01*
X180002883Y-99004011D01*
X180059150Y-99042508D01*
X180101923Y-99075863D01*
X180122372Y-99097160D01*
X180122669Y-99097833D01*
X180118279Y-99120871D01*
X180100876Y-99173157D01*
X180072268Y-99250390D01*
X180034265Y-99348268D01*
X179988674Y-99462491D01*
X179937303Y-99588758D01*
X179881962Y-99722767D01*
X179824458Y-99860218D01*
X179766601Y-99996808D01*
X179710198Y-100128237D01*
X179657058Y-100250205D01*
X179608990Y-100358409D01*
X179567801Y-100448549D01*
X179535301Y-100516323D01*
X179513297Y-100557430D01*
X179504436Y-100568226D01*
X179477360Y-100559819D01*
X179426697Y-100537272D01*
X179361183Y-100504613D01*
X179325159Y-100485520D01*
X179172168Y-100402800D01*
X178989912Y-100526075D01*
X178896875Y-100589228D01*
X178795015Y-100658727D01*
X178699562Y-100724165D01*
X178651750Y-100757117D01*
X178584505Y-100802273D01*
X178527564Y-100838057D01*
X178488354Y-100859938D01*
X178475619Y-100864563D01*
X178457083Y-100852085D01*
X178416059Y-100817252D01*
X178356525Y-100763678D01*
X178282458Y-100694983D01*
X178197835Y-100614781D01*
X178144315Y-100563286D01*
X178050681Y-100471286D01*
X177969759Y-100388999D01*
X177904823Y-100319945D01*
X177859142Y-100267644D01*
X177835989Y-100235616D01*
X177833768Y-100229116D01*
X177844076Y-100204394D01*
X177872561Y-100154405D01*
X177916063Y-100084212D01*
X177971423Y-99998875D01*
X178035480Y-99903456D01*
X178053697Y-99876854D01*
X178120073Y-99780167D01*
X178179622Y-99693117D01*
X178229016Y-99620595D01*
X178264925Y-99567493D01*
X178284019Y-99538703D01*
X178285864Y-99535726D01*
X178283105Y-99512782D01*
X178268462Y-99462336D01*
X178244487Y-99391041D01*
X178213734Y-99305547D01*
X178178756Y-99212507D01*
X178142107Y-99118574D01*
X178106339Y-99030399D01*
X178074006Y-98954634D01*
X178047662Y-98897931D01*
X178029858Y-98866943D01*
X178028593Y-98865457D01*
X178017706Y-98856601D01*
X177999318Y-98847843D01*
X177969394Y-98838277D01*
X177923897Y-98826996D01*
X177858791Y-98813093D01*
X177770039Y-98795663D01*
X177653607Y-98773798D01*
X177505458Y-98746591D01*
X177473382Y-98740741D01*
X177378314Y-98722374D01*
X177295435Y-98704405D01*
X177232070Y-98688569D01*
X177195542Y-98676600D01*
X177190644Y-98673810D01*
X177182573Y-98649072D01*
X177176013Y-98593790D01*
X177170967Y-98514389D01*
X177167441Y-98417296D01*
X177165439Y-98308938D01*
X177164964Y-98195740D01*
X177166023Y-98084128D01*
X177168618Y-97980529D01*
X177172754Y-97891368D01*
X177178437Y-97823072D01*
X177185669Y-97782066D01*
X177190029Y-97773674D01*
X177214302Y-97765208D01*
X177269574Y-97751435D01*
X177350338Y-97733550D01*
X177451088Y-97712748D01*
X177566317Y-97690223D01*
X177629098Y-97678418D01*
X177748213Y-97656151D01*
X177854435Y-97635979D01*
X177942573Y-97618915D01*
X178007434Y-97605969D01*
X178043826Y-97598155D01*
X178049816Y-97596422D01*
X178059939Y-97576890D01*
X178081338Y-97529843D01*
X178111161Y-97462003D01*
X178146555Y-97380091D01*
X178184668Y-97290828D01*
X178222647Y-97200935D01*
X178257640Y-97117135D01*
X178286794Y-97046147D01*
X178307257Y-96994694D01*
X178316177Y-96969497D01*
X178316343Y-96968396D01*
X178306231Y-96948519D01*
X178277883Y-96902777D01*
X178234277Y-96835717D01*
X178178394Y-96751884D01*
X178113213Y-96655826D01*
X178075321Y-96600650D01*
X178006275Y-96499481D01*
X177944950Y-96407630D01*
X177894337Y-96329744D01*
X177857429Y-96270469D01*
X177837218Y-96234451D01*
X177834299Y-96226377D01*
X177846847Y-96207584D01*
X177881537Y-96167457D01*
X177933937Y-96110493D01*
X177999616Y-96041185D01*
X178074144Y-95964031D01*
X178153087Y-95883525D01*
X178232017Y-95804163D01*
X178306500Y-95730440D01*
X178372106Y-95666852D01*
X178424404Y-95617894D01*
X178458961Y-95588061D01*
X178470522Y-95580942D01*
X178489346Y-95590953D01*
X178534369Y-95619078D01*
X178601213Y-95662454D01*
X178685501Y-95718218D01*
X178782856Y-95783506D01*
X178856293Y-95833246D01*
X179227333Y-96085551D01*
X179845905Y-95830555D01*
X179929725Y-95385931D01*
X180013546Y-94941307D01*
X180938994Y-94941307D01*
X181022814Y-95385931D01*
D11*
%TO.C,H3*%
X183496000Y-107315000D02*
G75*
G03*
X183496000Y-107315000I-1251000J0D01*
G01*
%TO.C,H4*%
X183496000Y-91313000D02*
G75*
G03*
X183496000Y-91313000I-1251000J0D01*
G01*
%TO.C,H2*%
X107550000Y-107315000D02*
G75*
G03*
X107550000Y-107315000I-1251000J0D01*
G01*
%TO.C,H1*%
X107550000Y-91313000D02*
G75*
G03*
X107550000Y-91313000I-1251000J0D01*
G01*
%TO.C,SW2*%
X161375000Y-105583000D02*
X157975000Y-105583000D01*
X163015000Y-105583000D02*
X162475000Y-105583000D01*
X155815000Y-102753000D02*
X155815000Y-102243000D01*
X156335000Y-102243000D02*
X155815000Y-102243000D01*
X156335000Y-102753000D02*
X156335000Y-102243000D01*
X156875000Y-105583000D02*
X156335000Y-105583000D01*
X163535000Y-102753000D02*
X163535000Y-102243000D01*
X163015000Y-102753000D02*
X163015000Y-102243000D01*
X156335000Y-105583000D02*
X156335000Y-105353000D01*
X163535000Y-109253000D02*
X163535000Y-105353000D01*
X163535000Y-102243000D02*
X163015000Y-102243000D01*
X155815000Y-109253000D02*
X155815000Y-105353000D01*
X163535000Y-109253000D02*
X155815000Y-109253000D01*
X163015000Y-105583000D02*
X163015000Y-105353000D01*
%TO.C,C1*%
X172014000Y-97381000D02*
G75*
G03*
X172014000Y-97381000I-4120000J0D01*
G01*
%TO.C,J1*%
X111125000Y-93151000D02*
X111125000Y-90491000D01*
X111125000Y-93151000D02*
X116265000Y-93151000D01*
X116265000Y-93151000D02*
X116265000Y-90491000D01*
X111125000Y-90491000D02*
X116265000Y-90491000D01*
X108525000Y-90491000D02*
X109855000Y-90491000D01*
X108525000Y-91821000D02*
X108525000Y-90491000D01*
%TO.C,J2*%
X137922000Y-93151000D02*
X137922000Y-90491000D01*
X137922000Y-93151000D02*
X153222000Y-93151000D01*
X153222000Y-93151000D02*
X153222000Y-90491000D01*
X137922000Y-90491000D02*
X153222000Y-90491000D01*
X135322000Y-90491000D02*
X136652000Y-90491000D01*
X135322000Y-91821000D02*
X135322000Y-90491000D01*
%TO.C,J3*%
X172279000Y-91821000D02*
X172279000Y-90491000D01*
X172279000Y-90491000D02*
X173609000Y-90491000D01*
X174879000Y-90491000D02*
X180019000Y-90491000D01*
X180019000Y-93151000D02*
X180019000Y-90491000D01*
X174879000Y-93151000D02*
X180019000Y-93151000D01*
X174879000Y-93151000D02*
X174879000Y-90491000D01*
%TO.C,R1*%
X131159000Y-93191000D02*
X131159000Y-92861000D01*
X124619000Y-93191000D02*
X131159000Y-93191000D01*
X124619000Y-92861000D02*
X124619000Y-93191000D01*
X131159000Y-90451000D02*
X131159000Y-90781000D01*
X124619000Y-90451000D02*
X131159000Y-90451000D01*
X124619000Y-90781000D02*
X124619000Y-90451000D01*
%TO.C,R2*%
X124619000Y-96051500D02*
X124619000Y-95721500D01*
X124619000Y-95721500D02*
X131159000Y-95721500D01*
X131159000Y-95721500D02*
X131159000Y-96051500D01*
X124619000Y-98131500D02*
X124619000Y-98461500D01*
X124619000Y-98461500D02*
X131159000Y-98461500D01*
X131159000Y-98461500D02*
X131159000Y-98131500D01*
%TO.C,R3*%
X140562000Y-97187000D02*
X140232000Y-97187000D01*
X140562000Y-103727000D02*
X140562000Y-97187000D01*
X140232000Y-103727000D02*
X140562000Y-103727000D01*
X137822000Y-97187000D02*
X138152000Y-97187000D01*
X137822000Y-103727000D02*
X137822000Y-97187000D01*
X138152000Y-103727000D02*
X137822000Y-103727000D01*
%TO.C,R4*%
X143232000Y-103663500D02*
X142902000Y-103663500D01*
X142902000Y-103663500D02*
X142902000Y-97123500D01*
X142902000Y-97123500D02*
X143232000Y-97123500D01*
X145312000Y-103663500D02*
X145642000Y-103663500D01*
X145642000Y-103663500D02*
X145642000Y-97123500D01*
X145642000Y-97123500D02*
X145312000Y-97123500D01*
%TO.C,R5*%
X150722000Y-97123500D02*
X150392000Y-97123500D01*
X150722000Y-103663500D02*
X150722000Y-97123500D01*
X150392000Y-103663500D02*
X150722000Y-103663500D01*
X147982000Y-97123500D02*
X148312000Y-97123500D01*
X147982000Y-103663500D02*
X147982000Y-97123500D01*
X148312000Y-103663500D02*
X147982000Y-103663500D01*
%TO.C,R6*%
X156115000Y-90781000D02*
X156115000Y-90451000D01*
X156115000Y-90451000D02*
X162655000Y-90451000D01*
X162655000Y-90451000D02*
X162655000Y-90781000D01*
X156115000Y-92861000D02*
X156115000Y-93191000D01*
X156115000Y-93191000D02*
X162655000Y-93191000D01*
X162655000Y-93191000D02*
X162655000Y-92861000D01*
%TO.C,SW0*%
X108204000Y-109093000D02*
X108204000Y-106045000D01*
X116840000Y-109093000D02*
X108204000Y-109093000D01*
X116840000Y-106045000D02*
X116840000Y-109093000D01*
X108204000Y-106045000D02*
X116840000Y-106045000D01*
D12*
X110744000Y-109093000D02*
X114300000Y-109093000D01*
D11*
X110744000Y-109093000D02*
X110744000Y-113665000D01*
X111760000Y-113665000D02*
X111760000Y-109093000D01*
X110744000Y-113665000D02*
X110998000Y-113919000D01*
X110998000Y-113919000D02*
X111506000Y-113919000D01*
X111506000Y-113919000D02*
X111760000Y-113665000D01*
%TO.C,SW1*%
X132281000Y-105583000D02*
X132281000Y-105353000D01*
X132801000Y-109253000D02*
X125081000Y-109253000D01*
X125081000Y-109253000D02*
X125081000Y-105353000D01*
X132801000Y-102243000D02*
X132281000Y-102243000D01*
X132801000Y-109253000D02*
X132801000Y-105353000D01*
X125601000Y-105583000D02*
X125601000Y-105353000D01*
X132281000Y-102753000D02*
X132281000Y-102243000D01*
X132801000Y-102753000D02*
X132801000Y-102243000D01*
X126141000Y-105583000D02*
X125601000Y-105583000D01*
X125601000Y-102753000D02*
X125601000Y-102243000D01*
X125601000Y-102243000D02*
X125081000Y-102243000D01*
X125081000Y-102753000D02*
X125081000Y-102243000D01*
X132281000Y-105583000D02*
X131741000Y-105583000D01*
X130641000Y-105583000D02*
X127241000Y-105583000D01*
%TO.C,SW3*%
X179017000Y-105583000D02*
X179017000Y-105353000D01*
X179537000Y-109253000D02*
X171817000Y-109253000D01*
X171817000Y-109253000D02*
X171817000Y-105353000D01*
X179537000Y-102243000D02*
X179017000Y-102243000D01*
X179537000Y-109253000D02*
X179537000Y-105353000D01*
X172337000Y-105583000D02*
X172337000Y-105353000D01*
X179017000Y-102753000D02*
X179017000Y-102243000D01*
X179537000Y-102753000D02*
X179537000Y-102243000D01*
X172877000Y-105583000D02*
X172337000Y-105583000D01*
X172337000Y-102753000D02*
X172337000Y-102243000D01*
X172337000Y-102243000D02*
X171817000Y-102243000D01*
X171817000Y-102753000D02*
X171817000Y-102243000D01*
X179017000Y-105583000D02*
X178477000Y-105583000D01*
X177377000Y-105583000D02*
X173977000Y-105583000D01*
%TO.C,CERN OHL v.1.2*%
D13*
X114177838Y-99317628D02*
X114153647Y-99341819D01*
X114081076Y-99366009D01*
X114032695Y-99366009D01*
X113960123Y-99341819D01*
X113911742Y-99293438D01*
X113887552Y-99245057D01*
X113863361Y-99148295D01*
X113863361Y-99075723D01*
X113887552Y-98978961D01*
X113911742Y-98930580D01*
X113960123Y-98882200D01*
X114032695Y-98858009D01*
X114081076Y-98858009D01*
X114153647Y-98882200D01*
X114177838Y-98906390D01*
X114395552Y-99099914D02*
X114564885Y-99099914D01*
X114637457Y-99366009D02*
X114395552Y-99366009D01*
X114395552Y-98858009D01*
X114637457Y-98858009D01*
X115145457Y-99366009D02*
X114976123Y-99124104D01*
X114855171Y-99366009D02*
X114855171Y-98858009D01*
X115048695Y-98858009D01*
X115097076Y-98882200D01*
X115121266Y-98906390D01*
X115145457Y-98954771D01*
X115145457Y-99027342D01*
X115121266Y-99075723D01*
X115097076Y-99099914D01*
X115048695Y-99124104D01*
X114855171Y-99124104D01*
X115363171Y-99366009D02*
X115363171Y-98858009D01*
X115653457Y-99366009D01*
X115653457Y-98858009D01*
X116379171Y-98858009D02*
X116475933Y-98858009D01*
X116524314Y-98882200D01*
X116572695Y-98930580D01*
X116596885Y-99027342D01*
X116596885Y-99196676D01*
X116572695Y-99293438D01*
X116524314Y-99341819D01*
X116475933Y-99366009D01*
X116379171Y-99366009D01*
X116330790Y-99341819D01*
X116282409Y-99293438D01*
X116258219Y-99196676D01*
X116258219Y-99027342D01*
X116282409Y-98930580D01*
X116330790Y-98882200D01*
X116379171Y-98858009D01*
X116814600Y-99366009D02*
X116814600Y-98858009D01*
X116814600Y-99099914D02*
X117104885Y-99099914D01*
X117104885Y-99366009D02*
X117104885Y-98858009D01*
X117588695Y-99366009D02*
X117346790Y-99366009D01*
X117346790Y-98858009D01*
X118096695Y-99027342D02*
X118217647Y-99366009D01*
X118338600Y-99027342D01*
X118532123Y-99317628D02*
X118556314Y-99341819D01*
X118532123Y-99366009D01*
X118507933Y-99341819D01*
X118532123Y-99317628D01*
X118532123Y-99366009D01*
X119040123Y-99366009D02*
X118749838Y-99366009D01*
X118894980Y-99366009D02*
X118894980Y-98858009D01*
X118846600Y-98930580D01*
X118798219Y-98978961D01*
X118749838Y-99003152D01*
X119257838Y-99317628D02*
X119282028Y-99341819D01*
X119257838Y-99366009D01*
X119233647Y-99341819D01*
X119257838Y-99317628D01*
X119257838Y-99366009D01*
X119475552Y-98906390D02*
X119499742Y-98882200D01*
X119548123Y-98858009D01*
X119669076Y-98858009D01*
X119717457Y-98882200D01*
X119741647Y-98906390D01*
X119765838Y-98954771D01*
X119765838Y-99003152D01*
X119741647Y-99075723D01*
X119451361Y-99366009D01*
X119765838Y-99366009D01*
%TO.C,Bike Pixel Rear v0.5*%
X114052047Y-97880714D02*
X114124619Y-97904904D01*
X114148809Y-97929095D01*
X114173000Y-97977476D01*
X114173000Y-98050047D01*
X114148809Y-98098428D01*
X114124619Y-98122619D01*
X114076238Y-98146809D01*
X113882714Y-98146809D01*
X113882714Y-97638809D01*
X114052047Y-97638809D01*
X114100428Y-97663000D01*
X114124619Y-97687190D01*
X114148809Y-97735571D01*
X114148809Y-97783952D01*
X114124619Y-97832333D01*
X114100428Y-97856523D01*
X114052047Y-97880714D01*
X113882714Y-97880714D01*
X114390714Y-98146809D02*
X114390714Y-97808142D01*
X114390714Y-97638809D02*
X114366523Y-97663000D01*
X114390714Y-97687190D01*
X114414904Y-97663000D01*
X114390714Y-97638809D01*
X114390714Y-97687190D01*
X114632619Y-98146809D02*
X114632619Y-97638809D01*
X114681000Y-97953285D02*
X114826142Y-98146809D01*
X114826142Y-97808142D02*
X114632619Y-98001666D01*
X115237380Y-98122619D02*
X115189000Y-98146809D01*
X115092238Y-98146809D01*
X115043857Y-98122619D01*
X115019666Y-98074238D01*
X115019666Y-97880714D01*
X115043857Y-97832333D01*
X115092238Y-97808142D01*
X115189000Y-97808142D01*
X115237380Y-97832333D01*
X115261571Y-97880714D01*
X115261571Y-97929095D01*
X115019666Y-97977476D01*
X115866333Y-98146809D02*
X115866333Y-97638809D01*
X116059857Y-97638809D01*
X116108238Y-97663000D01*
X116132428Y-97687190D01*
X116156619Y-97735571D01*
X116156619Y-97808142D01*
X116132428Y-97856523D01*
X116108238Y-97880714D01*
X116059857Y-97904904D01*
X115866333Y-97904904D01*
X116374333Y-98146809D02*
X116374333Y-97808142D01*
X116374333Y-97638809D02*
X116350142Y-97663000D01*
X116374333Y-97687190D01*
X116398523Y-97663000D01*
X116374333Y-97638809D01*
X116374333Y-97687190D01*
X116567857Y-98146809D02*
X116833952Y-97808142D01*
X116567857Y-97808142D02*
X116833952Y-98146809D01*
X117221000Y-98122619D02*
X117172619Y-98146809D01*
X117075857Y-98146809D01*
X117027476Y-98122619D01*
X117003285Y-98074238D01*
X117003285Y-97880714D01*
X117027476Y-97832333D01*
X117075857Y-97808142D01*
X117172619Y-97808142D01*
X117221000Y-97832333D01*
X117245190Y-97880714D01*
X117245190Y-97929095D01*
X117003285Y-97977476D01*
X117535476Y-98146809D02*
X117487095Y-98122619D01*
X117462904Y-98074238D01*
X117462904Y-97638809D01*
X118406333Y-98146809D02*
X118237000Y-97904904D01*
X118116047Y-98146809D02*
X118116047Y-97638809D01*
X118309571Y-97638809D01*
X118357952Y-97663000D01*
X118382142Y-97687190D01*
X118406333Y-97735571D01*
X118406333Y-97808142D01*
X118382142Y-97856523D01*
X118357952Y-97880714D01*
X118309571Y-97904904D01*
X118116047Y-97904904D01*
X118817571Y-98122619D02*
X118769190Y-98146809D01*
X118672428Y-98146809D01*
X118624047Y-98122619D01*
X118599857Y-98074238D01*
X118599857Y-97880714D01*
X118624047Y-97832333D01*
X118672428Y-97808142D01*
X118769190Y-97808142D01*
X118817571Y-97832333D01*
X118841761Y-97880714D01*
X118841761Y-97929095D01*
X118599857Y-97977476D01*
X119277190Y-98146809D02*
X119277190Y-97880714D01*
X119253000Y-97832333D01*
X119204619Y-97808142D01*
X119107857Y-97808142D01*
X119059476Y-97832333D01*
X119277190Y-98122619D02*
X119228809Y-98146809D01*
X119107857Y-98146809D01*
X119059476Y-98122619D01*
X119035285Y-98074238D01*
X119035285Y-98025857D01*
X119059476Y-97977476D01*
X119107857Y-97953285D01*
X119228809Y-97953285D01*
X119277190Y-97929095D01*
X119519095Y-98146809D02*
X119519095Y-97808142D01*
X119519095Y-97904904D02*
X119543285Y-97856523D01*
X119567476Y-97832333D01*
X119615857Y-97808142D01*
X119664238Y-97808142D01*
X120172238Y-97808142D02*
X120293190Y-98146809D01*
X120414142Y-97808142D01*
X120704428Y-97638809D02*
X120752809Y-97638809D01*
X120801190Y-97663000D01*
X120825380Y-97687190D01*
X120849571Y-97735571D01*
X120873761Y-97832333D01*
X120873761Y-97953285D01*
X120849571Y-98050047D01*
X120825380Y-98098428D01*
X120801190Y-98122619D01*
X120752809Y-98146809D01*
X120704428Y-98146809D01*
X120656047Y-98122619D01*
X120631857Y-98098428D01*
X120607666Y-98050047D01*
X120583476Y-97953285D01*
X120583476Y-97832333D01*
X120607666Y-97735571D01*
X120631857Y-97687190D01*
X120656047Y-97663000D01*
X120704428Y-97638809D01*
X121091476Y-98098428D02*
X121115666Y-98122619D01*
X121091476Y-98146809D01*
X121067285Y-98122619D01*
X121091476Y-98098428D01*
X121091476Y-98146809D01*
X121575285Y-97638809D02*
X121333380Y-97638809D01*
X121309190Y-97880714D01*
X121333380Y-97856523D01*
X121381761Y-97832333D01*
X121502714Y-97832333D01*
X121551095Y-97856523D01*
X121575285Y-97880714D01*
X121599476Y-97929095D01*
X121599476Y-98050047D01*
X121575285Y-98098428D01*
X121551095Y-98122619D01*
X121502714Y-98146809D01*
X121381761Y-98146809D01*
X121333380Y-98122619D01*
X121309190Y-98098428D01*
D14*
X114129457Y-96643371D02*
X114238314Y-96679657D01*
X114274600Y-96715942D01*
X114310885Y-96788514D01*
X114310885Y-96897371D01*
X114274600Y-96969942D01*
X114238314Y-97006228D01*
X114165742Y-97042514D01*
X113875457Y-97042514D01*
X113875457Y-96280514D01*
X114129457Y-96280514D01*
X114202028Y-96316800D01*
X114238314Y-96353085D01*
X114274600Y-96425657D01*
X114274600Y-96498228D01*
X114238314Y-96570800D01*
X114202028Y-96607085D01*
X114129457Y-96643371D01*
X113875457Y-96643371D01*
X114637457Y-97042514D02*
X114637457Y-96534514D01*
X114637457Y-96280514D02*
X114601171Y-96316800D01*
X114637457Y-96353085D01*
X114673742Y-96316800D01*
X114637457Y-96280514D01*
X114637457Y-96353085D01*
X115000314Y-97042514D02*
X115000314Y-96280514D01*
X115072885Y-96752228D02*
X115290600Y-97042514D01*
X115290600Y-96534514D02*
X115000314Y-96824800D01*
X115907457Y-97006228D02*
X115834885Y-97042514D01*
X115689742Y-97042514D01*
X115617171Y-97006228D01*
X115580885Y-96933657D01*
X115580885Y-96643371D01*
X115617171Y-96570800D01*
X115689742Y-96534514D01*
X115834885Y-96534514D01*
X115907457Y-96570800D01*
X115943742Y-96643371D01*
X115943742Y-96715942D01*
X115580885Y-96788514D01*
X116270314Y-97042514D02*
X116270314Y-96280514D01*
X116560600Y-96280514D01*
X116633171Y-96316800D01*
X116669457Y-96353085D01*
X116705742Y-96425657D01*
X116705742Y-96534514D01*
X116669457Y-96607085D01*
X116633171Y-96643371D01*
X116560600Y-96679657D01*
X116270314Y-96679657D01*
X117032314Y-97042514D02*
X117032314Y-96534514D01*
X117032314Y-96280514D02*
X116996028Y-96316800D01*
X117032314Y-96353085D01*
X117068600Y-96316800D01*
X117032314Y-96280514D01*
X117032314Y-96353085D01*
X117322600Y-97042514D02*
X117721742Y-96534514D01*
X117322600Y-96534514D02*
X117721742Y-97042514D01*
X118302314Y-97006228D02*
X118229742Y-97042514D01*
X118084600Y-97042514D01*
X118012028Y-97006228D01*
X117975742Y-96933657D01*
X117975742Y-96643371D01*
X118012028Y-96570800D01*
X118084600Y-96534514D01*
X118229742Y-96534514D01*
X118302314Y-96570800D01*
X118338600Y-96643371D01*
X118338600Y-96715942D01*
X117975742Y-96788514D01*
X118774028Y-97042514D02*
X118701457Y-97006228D01*
X118665171Y-96933657D01*
X118665171Y-96280514D01*
X119028028Y-97006228D02*
X119100600Y-97042514D01*
X119245742Y-97042514D01*
X119318314Y-97006228D01*
X119354600Y-96933657D01*
X119354600Y-96897371D01*
X119318314Y-96824800D01*
X119245742Y-96788514D01*
X119136885Y-96788514D01*
X119064314Y-96752228D01*
X119028028Y-96679657D01*
X119028028Y-96643371D01*
X119064314Y-96570800D01*
X119136885Y-96534514D01*
X119245742Y-96534514D01*
X119318314Y-96570800D01*
X119681171Y-96969942D02*
X119717457Y-97006228D01*
X119681171Y-97042514D01*
X119644885Y-97006228D01*
X119681171Y-96969942D01*
X119681171Y-97042514D01*
X120370600Y-97006228D02*
X120298028Y-97042514D01*
X120152885Y-97042514D01*
X120080314Y-97006228D01*
X120044028Y-96969942D01*
X120007742Y-96897371D01*
X120007742Y-96679657D01*
X120044028Y-96607085D01*
X120080314Y-96570800D01*
X120152885Y-96534514D01*
X120298028Y-96534514D01*
X120370600Y-96570800D01*
X120806028Y-97042514D02*
X120733457Y-97006228D01*
X120697171Y-96969942D01*
X120660885Y-96897371D01*
X120660885Y-96679657D01*
X120697171Y-96607085D01*
X120733457Y-96570800D01*
X120806028Y-96534514D01*
X120914885Y-96534514D01*
X120987457Y-96570800D01*
X121023742Y-96607085D01*
X121060028Y-96679657D01*
X121060028Y-96897371D01*
X121023742Y-96969942D01*
X120987457Y-97006228D01*
X120914885Y-97042514D01*
X120806028Y-97042514D01*
X121386600Y-97042514D02*
X121386600Y-96534514D01*
X121386600Y-96607085D02*
X121422885Y-96570800D01*
X121495457Y-96534514D01*
X121604314Y-96534514D01*
X121676885Y-96570800D01*
X121713171Y-96643371D01*
X121713171Y-97042514D01*
X121713171Y-96643371D02*
X121749457Y-96570800D01*
X121822028Y-96534514D01*
X121930885Y-96534514D01*
X122003457Y-96570800D01*
X122039742Y-96643371D01*
X122039742Y-97042514D01*
%TO.C,SW2*%
D13*
X164981466Y-104193219D02*
X165054038Y-104217409D01*
X165174990Y-104217409D01*
X165223371Y-104193219D01*
X165247561Y-104169028D01*
X165271752Y-104120647D01*
X165271752Y-104072266D01*
X165247561Y-104023885D01*
X165223371Y-103999695D01*
X165174990Y-103975504D01*
X165078228Y-103951314D01*
X165029847Y-103927123D01*
X165005657Y-103902933D01*
X164981466Y-103854552D01*
X164981466Y-103806171D01*
X165005657Y-103757790D01*
X165029847Y-103733600D01*
X165078228Y-103709409D01*
X165199180Y-103709409D01*
X165271752Y-103733600D01*
X165441085Y-103709409D02*
X165562038Y-104217409D01*
X165658800Y-103854552D01*
X165755561Y-104217409D01*
X165876514Y-103709409D01*
X166045847Y-103757790D02*
X166070038Y-103733600D01*
X166118419Y-103709409D01*
X166239371Y-103709409D01*
X166287752Y-103733600D01*
X166311942Y-103757790D01*
X166336133Y-103806171D01*
X166336133Y-103854552D01*
X166311942Y-103927123D01*
X166021657Y-104217409D01*
X166336133Y-104217409D01*
D14*
X158695571Y-103559428D02*
X158623000Y-103595714D01*
X158477857Y-103595714D01*
X158405285Y-103559428D01*
X158369000Y-103523142D01*
X158332714Y-103450571D01*
X158332714Y-103232857D01*
X158369000Y-103160285D01*
X158405285Y-103124000D01*
X158477857Y-103087714D01*
X158623000Y-103087714D01*
X158695571Y-103124000D01*
X159131000Y-103595714D02*
X159058428Y-103559428D01*
X159022142Y-103523142D01*
X158985857Y-103450571D01*
X158985857Y-103232857D01*
X159022142Y-103160285D01*
X159058428Y-103124000D01*
X159131000Y-103087714D01*
X159239857Y-103087714D01*
X159312428Y-103124000D01*
X159348714Y-103160285D01*
X159385000Y-103232857D01*
X159385000Y-103450571D01*
X159348714Y-103523142D01*
X159312428Y-103559428D01*
X159239857Y-103595714D01*
X159131000Y-103595714D01*
X159820428Y-103595714D02*
X159747857Y-103559428D01*
X159711571Y-103486857D01*
X159711571Y-102833714D01*
X160219571Y-103595714D02*
X160147000Y-103559428D01*
X160110714Y-103523142D01*
X160074428Y-103450571D01*
X160074428Y-103232857D01*
X160110714Y-103160285D01*
X160147000Y-103124000D01*
X160219571Y-103087714D01*
X160328428Y-103087714D01*
X160401000Y-103124000D01*
X160437285Y-103160285D01*
X160473571Y-103232857D01*
X160473571Y-103450571D01*
X160437285Y-103523142D01*
X160401000Y-103559428D01*
X160328428Y-103595714D01*
X160219571Y-103595714D01*
X160800142Y-103595714D02*
X160800142Y-103087714D01*
X160800142Y-103232857D02*
X160836428Y-103160285D01*
X160872714Y-103124000D01*
X160945285Y-103087714D01*
X161017857Y-103087714D01*
%TO.C,C1*%
X169799000Y-95903142D02*
X169762714Y-95939428D01*
X169653857Y-95975714D01*
X169581285Y-95975714D01*
X169472428Y-95939428D01*
X169399857Y-95866857D01*
X169363571Y-95794285D01*
X169327285Y-95649142D01*
X169327285Y-95540285D01*
X169363571Y-95395142D01*
X169399857Y-95322571D01*
X169472428Y-95250000D01*
X169581285Y-95213714D01*
X169653857Y-95213714D01*
X169762714Y-95250000D01*
X169799000Y-95286285D01*
X170524714Y-95975714D02*
X170089285Y-95975714D01*
X170307000Y-95975714D02*
X170307000Y-95213714D01*
X170234428Y-95322571D01*
X170161857Y-95395142D01*
X170089285Y-95431428D01*
%TO.C,J1*%
X117184714Y-91059000D02*
X117729000Y-91059000D01*
X117837857Y-91095285D01*
X117910428Y-91167857D01*
X117946714Y-91276714D01*
X117946714Y-91349285D01*
X117946714Y-90297000D02*
X117946714Y-90732428D01*
X117946714Y-90514714D02*
X117184714Y-90514714D01*
X117293571Y-90587285D01*
X117366142Y-90659857D01*
X117402428Y-90732428D01*
X112184542Y-94578714D02*
X112184542Y-93816714D01*
X112474828Y-93816714D01*
X112547400Y-93853000D01*
X112583685Y-93889285D01*
X112619971Y-93961857D01*
X112619971Y-94070714D01*
X112583685Y-94143285D01*
X112547400Y-94179571D01*
X112474828Y-94215857D01*
X112184542Y-94215857D01*
X113055400Y-94578714D02*
X112982828Y-94542428D01*
X112946542Y-94506142D01*
X112910257Y-94433571D01*
X112910257Y-94215857D01*
X112946542Y-94143285D01*
X112982828Y-94107000D01*
X113055400Y-94070714D01*
X113164257Y-94070714D01*
X113236828Y-94107000D01*
X113273114Y-94143285D01*
X113309400Y-94215857D01*
X113309400Y-94433571D01*
X113273114Y-94506142D01*
X113236828Y-94542428D01*
X113164257Y-94578714D01*
X113055400Y-94578714D01*
X113563400Y-94070714D02*
X113708542Y-94578714D01*
X113853685Y-94215857D01*
X113998828Y-94578714D01*
X114143971Y-94070714D01*
X114724542Y-94542428D02*
X114651971Y-94578714D01*
X114506828Y-94578714D01*
X114434257Y-94542428D01*
X114397971Y-94469857D01*
X114397971Y-94179571D01*
X114434257Y-94107000D01*
X114506828Y-94070714D01*
X114651971Y-94070714D01*
X114724542Y-94107000D01*
X114760828Y-94179571D01*
X114760828Y-94252142D01*
X114397971Y-94324714D01*
X115087400Y-94578714D02*
X115087400Y-94070714D01*
X115087400Y-94215857D02*
X115123685Y-94143285D01*
X115159971Y-94107000D01*
X115232542Y-94070714D01*
X115305114Y-94070714D01*
%TO.C,J2*%
X133464714Y-91059000D02*
X134009000Y-91059000D01*
X134117857Y-91095285D01*
X134190428Y-91167857D01*
X134226714Y-91276714D01*
X134226714Y-91349285D01*
X133537285Y-90732428D02*
X133501000Y-90696142D01*
X133464714Y-90623571D01*
X133464714Y-90442142D01*
X133501000Y-90369571D01*
X133537285Y-90333285D01*
X133609857Y-90297000D01*
X133682428Y-90297000D01*
X133791285Y-90333285D01*
X134226714Y-90768714D01*
X134226714Y-90297000D01*
X149889028Y-94538800D02*
X150251885Y-94538800D01*
X149816457Y-94756514D02*
X150070457Y-93994514D01*
X150324457Y-94756514D01*
X150578457Y-94756514D02*
X150578457Y-94248514D01*
X150578457Y-94393657D02*
X150614742Y-94321085D01*
X150651028Y-94284800D01*
X150723600Y-94248514D01*
X150796171Y-94248514D01*
X151376742Y-94756514D02*
X151376742Y-93994514D01*
X151376742Y-94720228D02*
X151304171Y-94756514D01*
X151159028Y-94756514D01*
X151086457Y-94720228D01*
X151050171Y-94683942D01*
X151013885Y-94611371D01*
X151013885Y-94393657D01*
X151050171Y-94321085D01*
X151086457Y-94284800D01*
X151159028Y-94248514D01*
X151304171Y-94248514D01*
X151376742Y-94284800D01*
X152066171Y-94248514D02*
X152066171Y-94756514D01*
X151739600Y-94248514D02*
X151739600Y-94647657D01*
X151775885Y-94720228D01*
X151848457Y-94756514D01*
X151957314Y-94756514D01*
X152029885Y-94720228D01*
X152066171Y-94683942D01*
X152429028Y-94756514D02*
X152429028Y-94248514D01*
X152429028Y-93994514D02*
X152392742Y-94030800D01*
X152429028Y-94067085D01*
X152465314Y-94030800D01*
X152429028Y-93994514D01*
X152429028Y-94067085D01*
X152791885Y-94248514D02*
X152791885Y-94756514D01*
X152791885Y-94321085D02*
X152828171Y-94284800D01*
X152900742Y-94248514D01*
X153009600Y-94248514D01*
X153082171Y-94284800D01*
X153118457Y-94357371D01*
X153118457Y-94756514D01*
X153590171Y-94756514D02*
X153517600Y-94720228D01*
X153481314Y-94683942D01*
X153445028Y-94611371D01*
X153445028Y-94393657D01*
X153481314Y-94321085D01*
X153517600Y-94284800D01*
X153590171Y-94248514D01*
X153699028Y-94248514D01*
X153771600Y-94284800D01*
X153807885Y-94321085D01*
X153844171Y-94393657D01*
X153844171Y-94611371D01*
X153807885Y-94683942D01*
X153771600Y-94720228D01*
X153699028Y-94756514D01*
X153590171Y-94756514D01*
%TO.C,J3*%
X170651714Y-91059000D02*
X171196000Y-91059000D01*
X171304857Y-91095285D01*
X171377428Y-91167857D01*
X171413714Y-91276714D01*
X171413714Y-91349285D01*
X170651714Y-90768714D02*
X170651714Y-90297000D01*
X170942000Y-90551000D01*
X170942000Y-90442142D01*
X170978285Y-90369571D01*
X171014571Y-90333285D01*
X171087142Y-90297000D01*
X171268571Y-90297000D01*
X171341142Y-90333285D01*
X171377428Y-90369571D01*
X171413714Y-90442142D01*
X171413714Y-90659857D01*
X171377428Y-90732428D01*
X171341142Y-90768714D01*
X176689657Y-94705714D02*
X176689657Y-93943714D01*
X176943657Y-94488000D01*
X177197657Y-93943714D01*
X177197657Y-94705714D01*
X177887085Y-94705714D02*
X177887085Y-94306571D01*
X177850800Y-94234000D01*
X177778228Y-94197714D01*
X177633085Y-94197714D01*
X177560514Y-94234000D01*
X177887085Y-94669428D02*
X177814514Y-94705714D01*
X177633085Y-94705714D01*
X177560514Y-94669428D01*
X177524228Y-94596857D01*
X177524228Y-94524285D01*
X177560514Y-94451714D01*
X177633085Y-94415428D01*
X177814514Y-94415428D01*
X177887085Y-94379142D01*
X178141085Y-94197714D02*
X178431371Y-94197714D01*
X178249942Y-93943714D02*
X178249942Y-94596857D01*
X178286228Y-94669428D01*
X178358800Y-94705714D01*
X178431371Y-94705714D01*
X178685371Y-94705714D02*
X178685371Y-94197714D01*
X178685371Y-94342857D02*
X178721657Y-94270285D01*
X178757942Y-94234000D01*
X178830514Y-94197714D01*
X178903085Y-94197714D01*
X179157085Y-94705714D02*
X179157085Y-94197714D01*
X179157085Y-93943714D02*
X179120800Y-93980000D01*
X179157085Y-94016285D01*
X179193371Y-93980000D01*
X179157085Y-93943714D01*
X179157085Y-94016285D01*
X179447371Y-94705714D02*
X179846514Y-94197714D01*
X179447371Y-94197714D02*
X179846514Y-94705714D01*
%TO.C,R1*%
D13*
X122216333Y-91034809D02*
X122047000Y-90792904D01*
X121926047Y-91034809D02*
X121926047Y-90526809D01*
X122119571Y-90526809D01*
X122167952Y-90551000D01*
X122192142Y-90575190D01*
X122216333Y-90623571D01*
X122216333Y-90696142D01*
X122192142Y-90744523D01*
X122167952Y-90768714D01*
X122119571Y-90792904D01*
X121926047Y-90792904D01*
X122700142Y-91034809D02*
X122409857Y-91034809D01*
X122555000Y-91034809D02*
X122555000Y-90526809D01*
X122506619Y-90599380D01*
X122458238Y-90647761D01*
X122409857Y-90671952D01*
%TO.C,R2*%
X133392333Y-98400809D02*
X133223000Y-98158904D01*
X133102047Y-98400809D02*
X133102047Y-97892809D01*
X133295571Y-97892809D01*
X133343952Y-97917000D01*
X133368142Y-97941190D01*
X133392333Y-97989571D01*
X133392333Y-98062142D01*
X133368142Y-98110523D01*
X133343952Y-98134714D01*
X133295571Y-98158904D01*
X133102047Y-98158904D01*
X133585857Y-97941190D02*
X133610047Y-97917000D01*
X133658428Y-97892809D01*
X133779380Y-97892809D01*
X133827761Y-97917000D01*
X133851952Y-97941190D01*
X133876142Y-97989571D01*
X133876142Y-98037952D01*
X133851952Y-98110523D01*
X133561666Y-98400809D01*
X133876142Y-98400809D01*
%TO.C,R3*%
X138659809Y-106066166D02*
X138417904Y-106235500D01*
X138659809Y-106356452D02*
X138151809Y-106356452D01*
X138151809Y-106162928D01*
X138176000Y-106114547D01*
X138200190Y-106090357D01*
X138248571Y-106066166D01*
X138321142Y-106066166D01*
X138369523Y-106090357D01*
X138393714Y-106114547D01*
X138417904Y-106162928D01*
X138417904Y-106356452D01*
X138151809Y-105896833D02*
X138151809Y-105582357D01*
X138345333Y-105751690D01*
X138345333Y-105679119D01*
X138369523Y-105630738D01*
X138393714Y-105606547D01*
X138442095Y-105582357D01*
X138563047Y-105582357D01*
X138611428Y-105606547D01*
X138635619Y-105630738D01*
X138659809Y-105679119D01*
X138659809Y-105824261D01*
X138635619Y-105872642D01*
X138611428Y-105896833D01*
%TO.C,R4*%
X143803309Y-105939166D02*
X143561404Y-106108500D01*
X143803309Y-106229452D02*
X143295309Y-106229452D01*
X143295309Y-106035928D01*
X143319500Y-105987547D01*
X143343690Y-105963357D01*
X143392071Y-105939166D01*
X143464642Y-105939166D01*
X143513023Y-105963357D01*
X143537214Y-105987547D01*
X143561404Y-106035928D01*
X143561404Y-106229452D01*
X143464642Y-105503738D02*
X143803309Y-105503738D01*
X143271119Y-105624690D02*
X143633976Y-105745642D01*
X143633976Y-105431166D01*
%TO.C,R5*%
X148883309Y-105939166D02*
X148641404Y-106108500D01*
X148883309Y-106229452D02*
X148375309Y-106229452D01*
X148375309Y-106035928D01*
X148399500Y-105987547D01*
X148423690Y-105963357D01*
X148472071Y-105939166D01*
X148544642Y-105939166D01*
X148593023Y-105963357D01*
X148617214Y-105987547D01*
X148641404Y-106035928D01*
X148641404Y-106229452D01*
X148375309Y-105479547D02*
X148375309Y-105721452D01*
X148617214Y-105745642D01*
X148593023Y-105721452D01*
X148568833Y-105673071D01*
X148568833Y-105552119D01*
X148593023Y-105503738D01*
X148617214Y-105479547D01*
X148665595Y-105455357D01*
X148786547Y-105455357D01*
X148834928Y-105479547D01*
X148859119Y-105503738D01*
X148883309Y-105552119D01*
X148883309Y-105673071D01*
X148859119Y-105721452D01*
X148834928Y-105745642D01*
%TO.C,R6*%
X164951833Y-91288809D02*
X164782500Y-91046904D01*
X164661547Y-91288809D02*
X164661547Y-90780809D01*
X164855071Y-90780809D01*
X164903452Y-90805000D01*
X164927642Y-90829190D01*
X164951833Y-90877571D01*
X164951833Y-90950142D01*
X164927642Y-90998523D01*
X164903452Y-91022714D01*
X164855071Y-91046904D01*
X164661547Y-91046904D01*
X165387261Y-90780809D02*
X165290500Y-90780809D01*
X165242119Y-90805000D01*
X165217928Y-90829190D01*
X165169547Y-90901761D01*
X165145357Y-90998523D01*
X165145357Y-91192047D01*
X165169547Y-91240428D01*
X165193738Y-91264619D01*
X165242119Y-91288809D01*
X165338880Y-91288809D01*
X165387261Y-91264619D01*
X165411452Y-91240428D01*
X165435642Y-91192047D01*
X165435642Y-91071095D01*
X165411452Y-91022714D01*
X165387261Y-90998523D01*
X165338880Y-90974333D01*
X165242119Y-90974333D01*
X165193738Y-90998523D01*
X165169547Y-91022714D01*
X165145357Y-91071095D01*
%TO.C,SW0*%
D14*
X111007071Y-103595714D02*
X110934500Y-103559428D01*
X110898214Y-103523142D01*
X110861928Y-103450571D01*
X110861928Y-103232857D01*
X110898214Y-103160285D01*
X110934500Y-103124000D01*
X111007071Y-103087714D01*
X111115928Y-103087714D01*
X111188500Y-103124000D01*
X111224785Y-103160285D01*
X111261071Y-103232857D01*
X111261071Y-103450571D01*
X111224785Y-103523142D01*
X111188500Y-103559428D01*
X111115928Y-103595714D01*
X111007071Y-103595714D01*
X111587642Y-103087714D02*
X111587642Y-103595714D01*
X111587642Y-103160285D02*
X111623928Y-103124000D01*
X111696500Y-103087714D01*
X111805357Y-103087714D01*
X111877928Y-103124000D01*
X111914214Y-103196571D01*
X111914214Y-103595714D01*
X112821357Y-102797428D02*
X112168214Y-103777142D01*
X113184214Y-103595714D02*
X113111642Y-103559428D01*
X113075357Y-103523142D01*
X113039071Y-103450571D01*
X113039071Y-103232857D01*
X113075357Y-103160285D01*
X113111642Y-103124000D01*
X113184214Y-103087714D01*
X113293071Y-103087714D01*
X113365642Y-103124000D01*
X113401928Y-103160285D01*
X113438214Y-103232857D01*
X113438214Y-103450571D01*
X113401928Y-103523142D01*
X113365642Y-103559428D01*
X113293071Y-103595714D01*
X113184214Y-103595714D01*
X113655928Y-103087714D02*
X113946214Y-103087714D01*
X113764785Y-103595714D02*
X113764785Y-102942571D01*
X113801071Y-102870000D01*
X113873642Y-102833714D01*
X113946214Y-102833714D01*
X114091357Y-103087714D02*
X114381642Y-103087714D01*
X114200214Y-103595714D02*
X114200214Y-102942571D01*
X114236500Y-102870000D01*
X114309071Y-102833714D01*
X114381642Y-102833714D01*
%TO.C,SW1*%
D13*
X134069666Y-103964619D02*
X134142238Y-103988809D01*
X134263190Y-103988809D01*
X134311571Y-103964619D01*
X134335761Y-103940428D01*
X134359952Y-103892047D01*
X134359952Y-103843666D01*
X134335761Y-103795285D01*
X134311571Y-103771095D01*
X134263190Y-103746904D01*
X134166428Y-103722714D01*
X134118047Y-103698523D01*
X134093857Y-103674333D01*
X134069666Y-103625952D01*
X134069666Y-103577571D01*
X134093857Y-103529190D01*
X134118047Y-103505000D01*
X134166428Y-103480809D01*
X134287380Y-103480809D01*
X134359952Y-103505000D01*
X134529285Y-103480809D02*
X134650238Y-103988809D01*
X134747000Y-103625952D01*
X134843761Y-103988809D01*
X134964714Y-103480809D01*
X135424333Y-103988809D02*
X135134047Y-103988809D01*
X135279190Y-103988809D02*
X135279190Y-103480809D01*
X135230809Y-103553380D01*
X135182428Y-103601761D01*
X135134047Y-103625952D01*
X128802190Y-104046261D02*
X128802190Y-103622928D01*
X128802190Y-103683404D02*
X128832428Y-103653166D01*
X128892904Y-103622928D01*
X128983619Y-103622928D01*
X129044095Y-103653166D01*
X129074333Y-103713642D01*
X129074333Y-104046261D01*
X129074333Y-103713642D02*
X129104571Y-103653166D01*
X129165047Y-103622928D01*
X129255761Y-103622928D01*
X129316238Y-103653166D01*
X129346476Y-103713642D01*
X129346476Y-104046261D01*
X129739571Y-104046261D02*
X129679095Y-104016023D01*
X129648857Y-103985785D01*
X129618619Y-103925309D01*
X129618619Y-103743880D01*
X129648857Y-103683404D01*
X129679095Y-103653166D01*
X129739571Y-103622928D01*
X129830285Y-103622928D01*
X129890761Y-103653166D01*
X129921000Y-103683404D01*
X129951238Y-103743880D01*
X129951238Y-103925309D01*
X129921000Y-103985785D01*
X129890761Y-104016023D01*
X129830285Y-104046261D01*
X129739571Y-104046261D01*
X130495523Y-104046261D02*
X130495523Y-103411261D01*
X130495523Y-104016023D02*
X130435047Y-104046261D01*
X130314095Y-104046261D01*
X130253619Y-104016023D01*
X130223380Y-103985785D01*
X130193142Y-103925309D01*
X130193142Y-103743880D01*
X130223380Y-103683404D01*
X130253619Y-103653166D01*
X130314095Y-103622928D01*
X130435047Y-103622928D01*
X130495523Y-103653166D01*
X131039809Y-104016023D02*
X130979333Y-104046261D01*
X130858380Y-104046261D01*
X130797904Y-104016023D01*
X130767666Y-103955547D01*
X130767666Y-103713642D01*
X130797904Y-103653166D01*
X130858380Y-103622928D01*
X130979333Y-103622928D01*
X131039809Y-103653166D01*
X131070047Y-103713642D01*
X131070047Y-103774119D01*
X130767666Y-103834595D01*
%TO.C,SW3*%
X180932666Y-104167819D02*
X181005238Y-104192009D01*
X181126190Y-104192009D01*
X181174571Y-104167819D01*
X181198761Y-104143628D01*
X181222952Y-104095247D01*
X181222952Y-104046866D01*
X181198761Y-103998485D01*
X181174571Y-103974295D01*
X181126190Y-103950104D01*
X181029428Y-103925914D01*
X180981047Y-103901723D01*
X180956857Y-103877533D01*
X180932666Y-103829152D01*
X180932666Y-103780771D01*
X180956857Y-103732390D01*
X180981047Y-103708200D01*
X181029428Y-103684009D01*
X181150380Y-103684009D01*
X181222952Y-103708200D01*
X181392285Y-103684009D02*
X181513238Y-104192009D01*
X181610000Y-103829152D01*
X181706761Y-104192009D01*
X181827714Y-103684009D01*
X181972857Y-103684009D02*
X182287333Y-103684009D01*
X182118000Y-103877533D01*
X182190571Y-103877533D01*
X182238952Y-103901723D01*
X182263142Y-103925914D01*
X182287333Y-103974295D01*
X182287333Y-104095247D01*
X182263142Y-104143628D01*
X182238952Y-104167819D01*
X182190571Y-104192009D01*
X182045428Y-104192009D01*
X181997047Y-104167819D01*
X181972857Y-104143628D01*
D14*
X174581457Y-103559428D02*
X174508885Y-103595714D01*
X174363742Y-103595714D01*
X174291171Y-103559428D01*
X174254885Y-103486857D01*
X174254885Y-103196571D01*
X174291171Y-103124000D01*
X174363742Y-103087714D01*
X174508885Y-103087714D01*
X174581457Y-103124000D01*
X174617742Y-103196571D01*
X174617742Y-103269142D01*
X174254885Y-103341714D01*
X174835457Y-103087714D02*
X175125742Y-103087714D01*
X174944314Y-103595714D02*
X174944314Y-102942571D01*
X174980600Y-102870000D01*
X175053171Y-102833714D01*
X175125742Y-102833714D01*
X175270885Y-103087714D02*
X175561171Y-103087714D01*
X175379742Y-103595714D02*
X175379742Y-102942571D01*
X175416028Y-102870000D01*
X175488600Y-102833714D01*
X175561171Y-102833714D01*
X176105457Y-103559428D02*
X176032885Y-103595714D01*
X175887742Y-103595714D01*
X175815171Y-103559428D01*
X175778885Y-103486857D01*
X175778885Y-103196571D01*
X175815171Y-103124000D01*
X175887742Y-103087714D01*
X176032885Y-103087714D01*
X176105457Y-103124000D01*
X176141742Y-103196571D01*
X176141742Y-103269142D01*
X175778885Y-103341714D01*
X176794885Y-103559428D02*
X176722314Y-103595714D01*
X176577171Y-103595714D01*
X176504600Y-103559428D01*
X176468314Y-103523142D01*
X176432028Y-103450571D01*
X176432028Y-103232857D01*
X176468314Y-103160285D01*
X176504600Y-103124000D01*
X176577171Y-103087714D01*
X176722314Y-103087714D01*
X176794885Y-103124000D01*
X177012600Y-103087714D02*
X177302885Y-103087714D01*
X177121457Y-102833714D02*
X177121457Y-103486857D01*
X177157742Y-103559428D01*
X177230314Y-103595714D01*
X177302885Y-103595714D01*
%TD*%
M02*
