; NON-PLATED HOLES START AT T1
; THROUGH (PLATED) HOLES START AT T100
M48
INCH
T1C0.078740
T100C0.038000
T101C0.035000
%
T1
X022893Y009084
X000751Y009084
X000751Y000693
X022893Y000693
T100
X010751Y006693
X018751Y006693
X006751Y006693
X009751Y006693
X011751Y006693
X017751Y006693
X008751Y006693
X007751Y006693
X019751Y006693
T101
X021310Y002465
X004310Y002465
X004310Y000693
X014751Y003693
X016751Y002465
X016751Y000693
X001751Y002465
X001751Y000693
X018751Y002465
X021310Y000693
X014191Y000693
X004751Y003693
X010751Y003693
X012751Y006693
X010751Y004693
X014191Y002465
X008751Y003693
X014751Y004693
X018751Y000693
X016751Y006693
T00
M30
