G04 MADE WITH FRITZING*
G04 WWW.FRITZING.ORG*
G04 DOUBLE SIDED*
G04 HOLES PLATED*
G04 CONTOUR ON CENTER OF CONTOUR VECTOR*
%ASAXBY*%
%FSLAX23Y23*%
%MOIN*%
%OFA0B0*%
%SFA1.0B1.0*%
%ADD10R,0.001000X0.001000*%
%LNSILK0*%
G90*
G70*
G54D10*
X1978Y365D02*
X2003Y365D01*
X1978Y364D02*
X2004Y364D01*
X1978Y363D02*
X2004Y363D01*
X1978Y362D02*
X2004Y362D01*
X1978Y361D02*
X2004Y361D01*
X1977Y360D02*
X2004Y360D01*
X1977Y359D02*
X2004Y359D01*
X1977Y358D02*
X2005Y358D01*
X1977Y357D02*
X2005Y357D01*
X1977Y356D02*
X2005Y356D01*
X1977Y355D02*
X2005Y355D01*
X1976Y354D02*
X2005Y354D01*
X1976Y353D02*
X2006Y353D01*
X1976Y352D02*
X2006Y352D01*
X1976Y351D02*
X2006Y351D01*
X1976Y350D02*
X2006Y350D01*
X1975Y349D02*
X2006Y349D01*
X1975Y348D02*
X2006Y348D01*
X1975Y347D02*
X2007Y347D01*
X1975Y346D02*
X2007Y346D01*
X1975Y345D02*
X2007Y345D01*
X1974Y344D02*
X2007Y344D01*
X1974Y343D02*
X2007Y343D01*
X1974Y342D02*
X2008Y342D01*
X1974Y341D02*
X2008Y341D01*
X1974Y340D02*
X2008Y340D01*
X1974Y339D02*
X2008Y339D01*
X1973Y338D02*
X2008Y338D01*
X1973Y337D02*
X2009Y337D01*
X1973Y336D02*
X2009Y336D01*
X1906Y335D02*
X1907Y335D01*
X1973Y335D02*
X2009Y335D01*
X2075Y335D02*
X2076Y335D01*
X1905Y334D02*
X1908Y334D01*
X1973Y334D02*
X2009Y334D01*
X2074Y334D02*
X2077Y334D01*
X1904Y333D02*
X1910Y333D01*
X1972Y333D02*
X2009Y333D01*
X2072Y333D02*
X2078Y333D01*
X1903Y332D02*
X1911Y332D01*
X1972Y332D02*
X2009Y332D01*
X2071Y332D02*
X2079Y332D01*
X1902Y331D02*
X1913Y331D01*
X1972Y331D02*
X2010Y331D01*
X2069Y331D02*
X2080Y331D01*
X1901Y330D02*
X1914Y330D01*
X1972Y330D02*
X2010Y330D01*
X2068Y330D02*
X2081Y330D01*
X1900Y329D02*
X1915Y329D01*
X1972Y329D02*
X2010Y329D01*
X2066Y329D02*
X2082Y329D01*
X1899Y328D02*
X1917Y328D01*
X1971Y328D02*
X2011Y328D01*
X2065Y328D02*
X2083Y328D01*
X1898Y327D02*
X1918Y327D01*
X1967Y327D02*
X2015Y327D01*
X2063Y327D02*
X2084Y327D01*
X1897Y326D02*
X1920Y326D01*
X1963Y326D02*
X2019Y326D01*
X2062Y326D02*
X2085Y326D01*
X1896Y325D02*
X1921Y325D01*
X1960Y325D02*
X2022Y325D01*
X2060Y325D02*
X2086Y325D01*
X1895Y324D02*
X1923Y324D01*
X1957Y324D02*
X2025Y324D01*
X2059Y324D02*
X2087Y324D01*
X1894Y323D02*
X1924Y323D01*
X1954Y323D02*
X2027Y323D01*
X2057Y323D02*
X2088Y323D01*
X1893Y322D02*
X1926Y322D01*
X1952Y322D02*
X2030Y322D01*
X2056Y322D02*
X2089Y322D01*
X1892Y321D02*
X1927Y321D01*
X1950Y321D02*
X2032Y321D01*
X2055Y321D02*
X2090Y321D01*
X1891Y320D02*
X1929Y320D01*
X1948Y320D02*
X2034Y320D01*
X2053Y320D02*
X2091Y320D01*
X1890Y319D02*
X1930Y319D01*
X1946Y319D02*
X2036Y319D01*
X2052Y319D02*
X2092Y319D01*
X1889Y318D02*
X1931Y318D01*
X1944Y318D02*
X2038Y318D01*
X2050Y318D02*
X2093Y318D01*
X1889Y317D02*
X1933Y317D01*
X1942Y317D02*
X2040Y317D01*
X2049Y317D02*
X2093Y317D01*
X1889Y316D02*
X1934Y316D01*
X1940Y316D02*
X2041Y316D01*
X2047Y316D02*
X2092Y316D01*
X1890Y315D02*
X1936Y315D01*
X1939Y315D02*
X2043Y315D01*
X2046Y315D02*
X2092Y315D01*
X1891Y314D02*
X2091Y314D01*
X1892Y313D02*
X2090Y313D01*
X1892Y312D02*
X2089Y312D01*
X1893Y311D02*
X2089Y311D01*
X1894Y310D02*
X2088Y310D01*
X1894Y309D02*
X2087Y309D01*
X1895Y308D02*
X2087Y308D01*
X1896Y307D02*
X2086Y307D01*
X1896Y306D02*
X2085Y306D01*
X1897Y305D02*
X2085Y305D01*
X1898Y304D02*
X2084Y304D01*
X1898Y303D02*
X2083Y303D01*
X1899Y302D02*
X2083Y302D01*
X1900Y301D02*
X2082Y301D01*
X1900Y300D02*
X2081Y300D01*
X1901Y299D02*
X2081Y299D01*
X1902Y298D02*
X2080Y298D01*
X1902Y297D02*
X2079Y297D01*
X1903Y296D02*
X2079Y296D01*
X1904Y295D02*
X2078Y295D01*
X1905Y294D02*
X2077Y294D01*
X1905Y293D02*
X2076Y293D01*
X1906Y292D02*
X2076Y292D01*
X1907Y291D02*
X2075Y291D01*
X1907Y290D02*
X2074Y290D01*
X1908Y289D02*
X2074Y289D01*
X1909Y288D02*
X2073Y288D01*
X1909Y287D02*
X2072Y287D01*
X1909Y286D02*
X2073Y286D01*
X1908Y285D02*
X2073Y285D01*
X1908Y284D02*
X2074Y284D01*
X1907Y283D02*
X2075Y283D01*
X1907Y282D02*
X2075Y282D01*
X1906Y281D02*
X2076Y281D01*
X1905Y280D02*
X2076Y280D01*
X1905Y279D02*
X1981Y279D01*
X2001Y279D02*
X2077Y279D01*
X1904Y278D02*
X1977Y278D01*
X2005Y278D02*
X2078Y278D01*
X1904Y277D02*
X1974Y277D01*
X2008Y277D02*
X2078Y277D01*
X1903Y276D02*
X1971Y276D01*
X2010Y276D02*
X2078Y276D01*
X1903Y275D02*
X1969Y275D01*
X2012Y275D02*
X2079Y275D01*
X1902Y274D02*
X1967Y274D01*
X2014Y274D02*
X2079Y274D01*
X1902Y273D02*
X1966Y273D01*
X2016Y273D02*
X2080Y273D01*
X1901Y272D02*
X1964Y272D01*
X2018Y272D02*
X2080Y272D01*
X1901Y271D02*
X1963Y271D01*
X2019Y271D02*
X2081Y271D01*
X1900Y270D02*
X1961Y270D01*
X2020Y270D02*
X2081Y270D01*
X1900Y269D02*
X1960Y269D01*
X2022Y269D02*
X2082Y269D01*
X1900Y268D02*
X1959Y268D01*
X2023Y268D02*
X2082Y268D01*
X1899Y267D02*
X1958Y267D01*
X2024Y267D02*
X2083Y267D01*
X1899Y266D02*
X1957Y266D01*
X2025Y266D02*
X2083Y266D01*
X1898Y265D02*
X1956Y265D01*
X2026Y265D02*
X2083Y265D01*
X1898Y264D02*
X1955Y264D01*
X2027Y264D02*
X2084Y264D01*
X1898Y263D02*
X1954Y263D01*
X2028Y263D02*
X2084Y263D01*
X1897Y262D02*
X1953Y262D01*
X2028Y262D02*
X2084Y262D01*
X1897Y261D02*
X1953Y261D01*
X2029Y261D02*
X2085Y261D01*
X1897Y260D02*
X1952Y260D01*
X2030Y260D02*
X2085Y260D01*
X1896Y259D02*
X1951Y259D01*
X2031Y259D02*
X2085Y259D01*
X1896Y258D02*
X1950Y258D01*
X2031Y258D02*
X2086Y258D01*
X1896Y257D02*
X1950Y257D01*
X2032Y257D02*
X2086Y257D01*
X1896Y256D02*
X1949Y256D01*
X2032Y256D02*
X2086Y256D01*
X1895Y255D02*
X1949Y255D01*
X2033Y255D02*
X2086Y255D01*
X1895Y254D02*
X1948Y254D01*
X2034Y254D02*
X2087Y254D01*
X1895Y253D02*
X1948Y253D01*
X2034Y253D02*
X2087Y253D01*
X1892Y252D02*
X1947Y252D01*
X2034Y252D02*
X2089Y252D01*
X1887Y251D02*
X1947Y251D01*
X2035Y251D02*
X2095Y251D01*
X1882Y250D02*
X1946Y250D01*
X2035Y250D02*
X2100Y250D01*
X1876Y249D02*
X1946Y249D01*
X2036Y249D02*
X2105Y249D01*
X1871Y248D02*
X1946Y248D01*
X2036Y248D02*
X2111Y248D01*
X1866Y247D02*
X1945Y247D01*
X2036Y247D02*
X2116Y247D01*
X1860Y246D02*
X1945Y246D01*
X2037Y246D02*
X2121Y246D01*
X1858Y245D02*
X1945Y245D01*
X2037Y245D02*
X2123Y245D01*
X1858Y244D02*
X1944Y244D01*
X2037Y244D02*
X2123Y244D01*
X1858Y243D02*
X1944Y243D01*
X2037Y243D02*
X2123Y243D01*
X1858Y242D02*
X1944Y242D01*
X2038Y242D02*
X2123Y242D01*
X1858Y241D02*
X1944Y241D01*
X2038Y241D02*
X2123Y241D01*
X1858Y240D02*
X1944Y240D01*
X2038Y240D02*
X2123Y240D01*
X1858Y239D02*
X1944Y239D01*
X2038Y239D02*
X2123Y239D01*
X1858Y238D02*
X1943Y238D01*
X2038Y238D02*
X2123Y238D01*
X1858Y237D02*
X1943Y237D01*
X2038Y237D02*
X2123Y237D01*
X1858Y236D02*
X1943Y236D01*
X2039Y236D02*
X2123Y236D01*
X1858Y235D02*
X1943Y235D01*
X2039Y235D02*
X2123Y235D01*
X1858Y234D02*
X1943Y234D01*
X2039Y234D02*
X2123Y234D01*
X1858Y233D02*
X1943Y233D01*
X2039Y233D02*
X2123Y233D01*
X1858Y232D02*
X1943Y232D01*
X2039Y232D02*
X2123Y232D01*
X1858Y231D02*
X1943Y231D01*
X2039Y231D02*
X2123Y231D01*
X1858Y230D02*
X1943Y230D01*
X2039Y230D02*
X2123Y230D01*
X1858Y229D02*
X1943Y229D01*
X2039Y229D02*
X2123Y229D01*
X1858Y228D02*
X1943Y228D01*
X2038Y228D02*
X2123Y228D01*
X1858Y227D02*
X1943Y227D01*
X2038Y227D02*
X2123Y227D01*
X1858Y226D02*
X1944Y226D01*
X2038Y226D02*
X2123Y226D01*
X1858Y225D02*
X1944Y225D01*
X2038Y225D02*
X2123Y225D01*
X1858Y224D02*
X1944Y224D01*
X2038Y224D02*
X2123Y224D01*
X1858Y223D02*
X1944Y223D01*
X2038Y223D02*
X2123Y223D01*
X1858Y222D02*
X1944Y222D01*
X2037Y222D02*
X2123Y222D01*
X1858Y221D02*
X1945Y221D01*
X2037Y221D02*
X2123Y221D01*
X1859Y220D02*
X1945Y220D01*
X2037Y220D02*
X2123Y220D01*
X1864Y219D02*
X1945Y219D01*
X2037Y219D02*
X2118Y219D01*
X1869Y218D02*
X1945Y218D01*
X2036Y218D02*
X2113Y218D01*
X1875Y217D02*
X1946Y217D01*
X2036Y217D02*
X2107Y217D01*
X1880Y216D02*
X1946Y216D01*
X2036Y216D02*
X2102Y216D01*
X1885Y215D02*
X1946Y215D01*
X2035Y215D02*
X2096Y215D01*
X1891Y214D02*
X1947Y214D01*
X2035Y214D02*
X2091Y214D01*
X1894Y213D02*
X1947Y213D01*
X2034Y213D02*
X2088Y213D01*
X1894Y212D02*
X1948Y212D01*
X2034Y212D02*
X2087Y212D01*
X1894Y211D02*
X1948Y211D01*
X2033Y211D02*
X2087Y211D01*
X1895Y210D02*
X1949Y210D01*
X2033Y210D02*
X2087Y210D01*
X1895Y209D02*
X1949Y209D01*
X2032Y209D02*
X2087Y209D01*
X1895Y208D02*
X1950Y208D01*
X2032Y208D02*
X2087Y208D01*
X1895Y207D02*
X1951Y207D01*
X2031Y207D02*
X2086Y207D01*
X1896Y206D02*
X1951Y206D01*
X2030Y206D02*
X2086Y206D01*
X1896Y205D02*
X1952Y205D01*
X2030Y205D02*
X2086Y205D01*
X1896Y204D02*
X1953Y204D01*
X2029Y204D02*
X2085Y204D01*
X1896Y203D02*
X1954Y203D01*
X2028Y203D02*
X2085Y203D01*
X1897Y202D02*
X1954Y202D01*
X2027Y202D02*
X2085Y202D01*
X1897Y201D02*
X1955Y201D01*
X2026Y201D02*
X2085Y201D01*
X1897Y200D02*
X1956Y200D01*
X2026Y200D02*
X2084Y200D01*
X1898Y199D02*
X1957Y199D01*
X2025Y199D02*
X2084Y199D01*
X1898Y198D02*
X1958Y198D01*
X2023Y198D02*
X2084Y198D01*
X1898Y197D02*
X1959Y197D01*
X2022Y197D02*
X2083Y197D01*
X1899Y196D02*
X1960Y196D01*
X2021Y196D02*
X2083Y196D01*
X1899Y195D02*
X1962Y195D01*
X2020Y195D02*
X2082Y195D01*
X1900Y194D02*
X1963Y194D01*
X2019Y194D02*
X2082Y194D01*
X1900Y193D02*
X1965Y193D01*
X2017Y193D02*
X2082Y193D01*
X1901Y192D02*
X1966Y192D01*
X2016Y192D02*
X2081Y192D01*
X1901Y191D02*
X1965Y191D01*
X2016Y191D02*
X2081Y191D01*
X1901Y190D02*
X1965Y190D01*
X2017Y190D02*
X2080Y190D01*
X1902Y189D02*
X1964Y189D01*
X2017Y189D02*
X2080Y189D01*
X1902Y188D02*
X1964Y188D01*
X2018Y188D02*
X2079Y188D01*
X1903Y187D02*
X1964Y187D01*
X2018Y187D02*
X2079Y187D01*
X1903Y186D02*
X1963Y186D01*
X2019Y186D02*
X2078Y186D01*
X1904Y185D02*
X1963Y185D01*
X2019Y185D02*
X2078Y185D01*
X1904Y184D02*
X1962Y184D01*
X2019Y184D02*
X2077Y184D01*
X1905Y183D02*
X1962Y183D01*
X2020Y183D02*
X2077Y183D01*
X1906Y182D02*
X1961Y182D01*
X2020Y182D02*
X2076Y182D01*
X1906Y181D02*
X1961Y181D01*
X2021Y181D02*
X2075Y181D01*
X1907Y180D02*
X1961Y180D01*
X2021Y180D02*
X2075Y180D01*
X1907Y179D02*
X1960Y179D01*
X2021Y179D02*
X2074Y179D01*
X1908Y178D02*
X1960Y178D01*
X2022Y178D02*
X2074Y178D01*
X1908Y177D02*
X1959Y177D01*
X2022Y177D02*
X2074Y177D01*
X1908Y176D02*
X1959Y176D01*
X2023Y176D02*
X2074Y176D01*
X1907Y175D02*
X1959Y175D01*
X2023Y175D02*
X2075Y175D01*
X1906Y174D02*
X1958Y174D01*
X2024Y174D02*
X2076Y174D01*
X1905Y173D02*
X1958Y173D01*
X2024Y173D02*
X2076Y173D01*
X1905Y172D02*
X1957Y172D01*
X2024Y172D02*
X2077Y172D01*
X1904Y171D02*
X1957Y171D01*
X2025Y171D02*
X2078Y171D01*
X1903Y170D02*
X1956Y170D01*
X2025Y170D02*
X2078Y170D01*
X1903Y169D02*
X1956Y169D01*
X2026Y169D02*
X2079Y169D01*
X1902Y168D02*
X1956Y168D01*
X2026Y168D02*
X2080Y168D01*
X1901Y167D02*
X1955Y167D01*
X2026Y167D02*
X2080Y167D01*
X1901Y166D02*
X1955Y166D01*
X2027Y166D02*
X2081Y166D01*
X1900Y165D02*
X1954Y165D01*
X2027Y165D02*
X2082Y165D01*
X1899Y164D02*
X1954Y164D01*
X2028Y164D02*
X2082Y164D01*
X1899Y163D02*
X1954Y163D01*
X2028Y163D02*
X2083Y163D01*
X1898Y162D02*
X1953Y162D01*
X2029Y162D02*
X2084Y162D01*
X1897Y161D02*
X1953Y161D01*
X2029Y161D02*
X2084Y161D01*
X1897Y160D02*
X1952Y160D01*
X2029Y160D02*
X2085Y160D01*
X1896Y159D02*
X1952Y159D01*
X2030Y159D02*
X2086Y159D01*
X1895Y158D02*
X1952Y158D01*
X2030Y158D02*
X2087Y158D01*
X1894Y157D02*
X1951Y157D01*
X2031Y157D02*
X2087Y157D01*
X1894Y156D02*
X1951Y156D01*
X2031Y156D02*
X2088Y156D01*
X1893Y155D02*
X1950Y155D01*
X2031Y155D02*
X2089Y155D01*
X1892Y154D02*
X1950Y154D01*
X2032Y154D02*
X2089Y154D01*
X1892Y153D02*
X1949Y153D01*
X2032Y153D02*
X2090Y153D01*
X1891Y152D02*
X1949Y152D01*
X2033Y152D02*
X2091Y152D01*
X1890Y151D02*
X1949Y151D01*
X2033Y151D02*
X2091Y151D01*
X1890Y150D02*
X1948Y150D01*
X2033Y150D02*
X2092Y150D01*
X1889Y149D02*
X1933Y149D01*
X1936Y149D02*
X1948Y149D01*
X2034Y149D02*
X2045Y149D01*
X2048Y149D02*
X2093Y149D01*
X1889Y148D02*
X1932Y148D01*
X1938Y148D02*
X1947Y148D01*
X2034Y148D02*
X2044Y148D01*
X2050Y148D02*
X2093Y148D01*
X1889Y147D02*
X1931Y147D01*
X1940Y147D02*
X1947Y147D01*
X2035Y147D02*
X2042Y147D01*
X2051Y147D02*
X2092Y147D01*
X1890Y146D02*
X1929Y146D01*
X1941Y146D02*
X1947Y146D01*
X2035Y146D02*
X2041Y146D01*
X2053Y146D02*
X2091Y146D01*
X1891Y145D02*
X1928Y145D01*
X1943Y145D02*
X1946Y145D01*
X2036Y145D02*
X2039Y145D01*
X2054Y145D02*
X2090Y145D01*
X1892Y144D02*
X1926Y144D01*
X1945Y144D02*
X1946Y144D01*
X2036Y144D02*
X2037Y144D01*
X2056Y144D02*
X2089Y144D01*
X1893Y143D02*
X1925Y143D01*
X2057Y143D02*
X2088Y143D01*
X1894Y142D02*
X1923Y142D01*
X2058Y142D02*
X2087Y142D01*
X1895Y141D02*
X1922Y141D01*
X2060Y141D02*
X2086Y141D01*
X1896Y140D02*
X1920Y140D01*
X2061Y140D02*
X2085Y140D01*
X1897Y139D02*
X1919Y139D01*
X2063Y139D02*
X2084Y139D01*
X1898Y138D02*
X1917Y138D01*
X2064Y138D02*
X2083Y138D01*
X1899Y137D02*
X1916Y137D01*
X2066Y137D02*
X2082Y137D01*
X1900Y136D02*
X1915Y136D01*
X2067Y136D02*
X2081Y136D01*
X1901Y135D02*
X1913Y135D01*
X2069Y135D02*
X2080Y135D01*
X1902Y134D02*
X1912Y134D01*
X2070Y134D02*
X2079Y134D01*
X1903Y133D02*
X1910Y133D01*
X2072Y133D02*
X2078Y133D01*
X1904Y132D02*
X1909Y132D01*
X2073Y132D02*
X2077Y132D01*
X1905Y131D02*
X1907Y131D01*
X2074Y131D02*
X2076Y131D01*
X1932Y110D02*
X1932Y110D01*
X2027Y110D02*
X2027Y110D01*
X1932Y109D02*
X1934Y109D01*
X2027Y109D02*
X2029Y109D01*
X1932Y108D02*
X1935Y108D01*
X2027Y108D02*
X2030Y108D01*
X1932Y107D02*
X1935Y107D01*
X2027Y107D02*
X2030Y107D01*
X1932Y106D02*
X1935Y106D01*
X2027Y106D02*
X2030Y106D01*
X1932Y105D02*
X1935Y105D01*
X2027Y105D02*
X2030Y105D01*
X1932Y104D02*
X1935Y104D01*
X2027Y104D02*
X2030Y104D01*
X1932Y103D02*
X1935Y103D01*
X2027Y103D02*
X2030Y103D01*
X1932Y102D02*
X1935Y102D01*
X2027Y102D02*
X2030Y102D01*
X2066Y102D02*
X2066Y102D01*
X2094Y102D02*
X2094Y102D01*
X2121Y102D02*
X2121Y102D01*
X2149Y102D02*
X2149Y102D01*
X1932Y101D02*
X1935Y101D01*
X2027Y101D02*
X2030Y101D01*
X2062Y101D02*
X2070Y101D01*
X2090Y101D02*
X2098Y101D01*
X2117Y101D02*
X2125Y101D01*
X2145Y101D02*
X2153Y101D01*
X1833Y100D02*
X1838Y100D01*
X1860Y100D02*
X1864Y100D01*
X1886Y100D02*
X1890Y100D01*
X1903Y100D02*
X1903Y100D01*
X1913Y100D02*
X1913Y100D01*
X1923Y100D02*
X1923Y100D01*
X1932Y100D02*
X1935Y100D01*
X1939Y100D02*
X1943Y100D01*
X1965Y100D02*
X1970Y100D01*
X1992Y100D02*
X1996Y100D01*
X2018Y100D02*
X2023Y100D01*
X2027Y100D02*
X2030Y100D01*
X2060Y100D02*
X2072Y100D01*
X2088Y100D02*
X2099Y100D01*
X2115Y100D02*
X2127Y100D01*
X2143Y100D02*
X2155Y100D01*
X1831Y99D02*
X1840Y99D01*
X1857Y99D02*
X1866Y99D01*
X1884Y99D02*
X1893Y99D01*
X1903Y99D02*
X1905Y99D01*
X1913Y99D02*
X1915Y99D01*
X1923Y99D02*
X1925Y99D01*
X1932Y99D02*
X1935Y99D01*
X1937Y99D02*
X1946Y99D01*
X1963Y99D02*
X1972Y99D01*
X1989Y99D02*
X1998Y99D01*
X2016Y99D02*
X2030Y99D01*
X2059Y99D02*
X2073Y99D01*
X2087Y99D02*
X2101Y99D01*
X2114Y99D02*
X2128Y99D01*
X2142Y99D02*
X2156Y99D01*
X1830Y98D02*
X1841Y98D01*
X1856Y98D02*
X1868Y98D01*
X1882Y98D02*
X1894Y98D01*
X1903Y98D02*
X1906Y98D01*
X1913Y98D02*
X1916Y98D01*
X1923Y98D02*
X1926Y98D01*
X1932Y98D02*
X1947Y98D01*
X1962Y98D02*
X1973Y98D01*
X1988Y98D02*
X2000Y98D01*
X2015Y98D02*
X2030Y98D01*
X2058Y98D02*
X2074Y98D01*
X2086Y98D02*
X2101Y98D01*
X2113Y98D02*
X2129Y98D01*
X2141Y98D02*
X2157Y98D01*
X1828Y97D02*
X1842Y97D01*
X1855Y97D02*
X1869Y97D01*
X1881Y97D02*
X1895Y97D01*
X1903Y97D02*
X1906Y97D01*
X1913Y97D02*
X1916Y97D01*
X1923Y97D02*
X1927Y97D01*
X1932Y97D02*
X1948Y97D01*
X1961Y97D02*
X1974Y97D01*
X1987Y97D02*
X2001Y97D01*
X2013Y97D02*
X2030Y97D01*
X2057Y97D02*
X2074Y97D01*
X2085Y97D02*
X2102Y97D01*
X2113Y97D02*
X2130Y97D01*
X2140Y97D02*
X2158Y97D01*
X1828Y96D02*
X1843Y96D01*
X1854Y96D02*
X1861Y96D01*
X1863Y96D02*
X1870Y96D01*
X1880Y96D02*
X1887Y96D01*
X1889Y96D02*
X1896Y96D01*
X1903Y96D02*
X1906Y96D01*
X1913Y96D02*
X1916Y96D01*
X1923Y96D02*
X1927Y96D01*
X1932Y96D02*
X1940Y96D01*
X1942Y96D02*
X1949Y96D01*
X1960Y96D02*
X1975Y96D01*
X1986Y96D02*
X1993Y96D01*
X1995Y96D02*
X2001Y96D01*
X2013Y96D02*
X2030Y96D01*
X2057Y96D02*
X2075Y96D01*
X2084Y96D02*
X2103Y96D01*
X2112Y96D02*
X2131Y96D01*
X2140Y96D02*
X2158Y96D01*
X1827Y95D02*
X1832Y95D01*
X1839Y95D02*
X1844Y95D01*
X1854Y95D02*
X1858Y95D01*
X1865Y95D02*
X1870Y95D01*
X1880Y95D02*
X1885Y95D01*
X1892Y95D02*
X1896Y95D01*
X1903Y95D02*
X1906Y95D01*
X1913Y95D02*
X1916Y95D01*
X1923Y95D02*
X1927Y95D01*
X1932Y95D02*
X1937Y95D01*
X1945Y95D02*
X1949Y95D01*
X1959Y95D02*
X1964Y95D01*
X1971Y95D02*
X1976Y95D01*
X1986Y95D02*
X1990Y95D01*
X1998Y95D02*
X2002Y95D01*
X2012Y95D02*
X2017Y95D01*
X2024Y95D02*
X2030Y95D01*
X2056Y95D02*
X2062Y95D01*
X2069Y95D02*
X2075Y95D01*
X2084Y95D02*
X2090Y95D01*
X2097Y95D02*
X2103Y95D01*
X2112Y95D02*
X2118Y95D01*
X2125Y95D02*
X2131Y95D01*
X2139Y95D02*
X2146Y95D01*
X2153Y95D02*
X2159Y95D01*
X1827Y94D02*
X1831Y94D01*
X1840Y94D02*
X1844Y94D01*
X1853Y94D02*
X1857Y94D01*
X1867Y94D02*
X1871Y94D01*
X1879Y94D02*
X1883Y94D01*
X1893Y94D02*
X1897Y94D01*
X1903Y94D02*
X1906Y94D01*
X1913Y94D02*
X1916Y94D01*
X1923Y94D02*
X1927Y94D01*
X1932Y94D02*
X1936Y94D01*
X1946Y94D02*
X1950Y94D01*
X1959Y94D02*
X1963Y94D01*
X1972Y94D02*
X1976Y94D01*
X1985Y94D02*
X1989Y94D01*
X1999Y94D02*
X2003Y94D01*
X2012Y94D02*
X2016Y94D01*
X2025Y94D02*
X2030Y94D01*
X2056Y94D02*
X2061Y94D01*
X2070Y94D02*
X2076Y94D01*
X2084Y94D02*
X2089Y94D01*
X2098Y94D02*
X2104Y94D01*
X2111Y94D02*
X2117Y94D01*
X2126Y94D02*
X2131Y94D01*
X2139Y94D02*
X2145Y94D01*
X2154Y94D02*
X2159Y94D01*
X1826Y93D02*
X1830Y93D01*
X1841Y93D02*
X1845Y93D01*
X1853Y93D02*
X1856Y93D01*
X1867Y93D02*
X1871Y93D01*
X1879Y93D02*
X1883Y93D01*
X1894Y93D02*
X1897Y93D01*
X1903Y93D02*
X1906Y93D01*
X1913Y93D02*
X1916Y93D01*
X1923Y93D02*
X1927Y93D01*
X1932Y93D02*
X1936Y93D01*
X1947Y93D02*
X1950Y93D01*
X1958Y93D02*
X1962Y93D01*
X1973Y93D02*
X1977Y93D01*
X1985Y93D02*
X1988Y93D01*
X1999Y93D02*
X2003Y93D01*
X2011Y93D02*
X2015Y93D01*
X2026Y93D02*
X2030Y93D01*
X2056Y93D02*
X2061Y93D01*
X2071Y93D02*
X2076Y93D01*
X2083Y93D02*
X2089Y93D01*
X2099Y93D02*
X2104Y93D01*
X2111Y93D02*
X2116Y93D01*
X2126Y93D02*
X2132Y93D01*
X2139Y93D02*
X2144Y93D01*
X2154Y93D02*
X2159Y93D01*
X1826Y92D02*
X1829Y92D01*
X1841Y92D02*
X1845Y92D01*
X1852Y92D02*
X1856Y92D01*
X1868Y92D02*
X1871Y92D01*
X1879Y92D02*
X1882Y92D01*
X1894Y92D02*
X1898Y92D01*
X1903Y92D02*
X1906Y92D01*
X1913Y92D02*
X1916Y92D01*
X1923Y92D02*
X1927Y92D01*
X1932Y92D02*
X1935Y92D01*
X1947Y92D02*
X1950Y92D01*
X1958Y92D02*
X1962Y92D01*
X1974Y92D02*
X1977Y92D01*
X1985Y92D02*
X1988Y92D01*
X2000Y92D02*
X2003Y92D01*
X2011Y92D02*
X2014Y92D01*
X2026Y92D02*
X2030Y92D01*
X2055Y92D02*
X2061Y92D01*
X2071Y92D02*
X2076Y92D01*
X2083Y92D02*
X2089Y92D01*
X2099Y92D02*
X2104Y92D01*
X2111Y92D02*
X2116Y92D01*
X2127Y92D02*
X2132Y92D01*
X2139Y92D02*
X2144Y92D01*
X2154Y92D02*
X2159Y92D01*
X1826Y91D02*
X1829Y91D01*
X1842Y91D02*
X1845Y91D01*
X1852Y91D02*
X1856Y91D01*
X1868Y91D02*
X1871Y91D01*
X1879Y91D02*
X1882Y91D01*
X1894Y91D02*
X1898Y91D01*
X1903Y91D02*
X1906Y91D01*
X1913Y91D02*
X1916Y91D01*
X1923Y91D02*
X1927Y91D01*
X1932Y91D02*
X1935Y91D01*
X1947Y91D02*
X1951Y91D01*
X1958Y91D02*
X1961Y91D01*
X1974Y91D02*
X1977Y91D01*
X1984Y91D02*
X1988Y91D01*
X2000Y91D02*
X2003Y91D01*
X2011Y91D02*
X2014Y91D01*
X2027Y91D02*
X2030Y91D01*
X2055Y91D02*
X2060Y91D01*
X2071Y91D02*
X2076Y91D01*
X2083Y91D02*
X2091Y91D01*
X2099Y91D02*
X2104Y91D01*
X2111Y91D02*
X2116Y91D01*
X2127Y91D02*
X2132Y91D01*
X2139Y91D02*
X2144Y91D01*
X2155Y91D02*
X2160Y91D01*
X1826Y90D02*
X1831Y90D01*
X1842Y90D02*
X1845Y90D01*
X1853Y90D02*
X1856Y90D01*
X1868Y90D02*
X1871Y90D01*
X1879Y90D02*
X1882Y90D01*
X1895Y90D02*
X1898Y90D01*
X1903Y90D02*
X1906Y90D01*
X1913Y90D02*
X1916Y90D01*
X1923Y90D02*
X1927Y90D01*
X1932Y90D02*
X1935Y90D01*
X1947Y90D02*
X1951Y90D01*
X1959Y90D02*
X1961Y90D01*
X1974Y90D02*
X1977Y90D01*
X1984Y90D02*
X1988Y90D01*
X2000Y90D02*
X2003Y90D01*
X2011Y90D02*
X2014Y90D01*
X2027Y90D02*
X2030Y90D01*
X2055Y90D02*
X2060Y90D01*
X2071Y90D02*
X2076Y90D01*
X2083Y90D02*
X2093Y90D01*
X2099Y90D02*
X2104Y90D01*
X2111Y90D02*
X2116Y90D01*
X2127Y90D02*
X2132Y90D01*
X2139Y90D02*
X2144Y90D01*
X2155Y90D02*
X2160Y90D01*
X1826Y89D02*
X1833Y89D01*
X1842Y89D02*
X1845Y89D01*
X1855Y89D02*
X1856Y89D01*
X1868Y89D02*
X1871Y89D01*
X1879Y89D02*
X1885Y89D01*
X1897Y89D02*
X1898Y89D01*
X1903Y89D02*
X1906Y89D01*
X1913Y89D02*
X1916Y89D01*
X1923Y89D02*
X1927Y89D01*
X1932Y89D02*
X1935Y89D01*
X1947Y89D02*
X1951Y89D01*
X1961Y89D02*
X1961Y89D01*
X1974Y89D02*
X1977Y89D01*
X1984Y89D02*
X1990Y89D01*
X2002Y89D02*
X2003Y89D01*
X2011Y89D02*
X2014Y89D01*
X2027Y89D02*
X2030Y89D01*
X2055Y89D02*
X2060Y89D01*
X2071Y89D02*
X2076Y89D01*
X2083Y89D02*
X2095Y89D01*
X2099Y89D02*
X2104Y89D01*
X2111Y89D02*
X2116Y89D01*
X2127Y89D02*
X2132Y89D01*
X2139Y89D02*
X2144Y89D01*
X2155Y89D02*
X2160Y89D01*
X1826Y88D02*
X1835Y88D01*
X1842Y88D02*
X1845Y88D01*
X1868Y88D02*
X1871Y88D01*
X1879Y88D02*
X1887Y88D01*
X1903Y88D02*
X1906Y88D01*
X1913Y88D02*
X1916Y88D01*
X1923Y88D02*
X1927Y88D01*
X1932Y88D02*
X1935Y88D01*
X1947Y88D02*
X1951Y88D01*
X1974Y88D02*
X1977Y88D01*
X1984Y88D02*
X1993Y88D01*
X2011Y88D02*
X2014Y88D01*
X2027Y88D02*
X2030Y88D01*
X2055Y88D02*
X2060Y88D01*
X2071Y88D02*
X2076Y88D01*
X2084Y88D02*
X2097Y88D01*
X2099Y88D02*
X2104Y88D01*
X2111Y88D02*
X2116Y88D01*
X2127Y88D02*
X2132Y88D01*
X2139Y88D02*
X2144Y88D01*
X2155Y88D02*
X2160Y88D01*
X1828Y87D02*
X1837Y87D01*
X1842Y87D02*
X1845Y87D01*
X1868Y87D02*
X1871Y87D01*
X1879Y87D02*
X1890Y87D01*
X1903Y87D02*
X1906Y87D01*
X1913Y87D02*
X1916Y87D01*
X1923Y87D02*
X1927Y87D01*
X1932Y87D02*
X1935Y87D01*
X1947Y87D02*
X1951Y87D01*
X1974Y87D02*
X1977Y87D01*
X1984Y87D02*
X1995Y87D01*
X2011Y87D02*
X2014Y87D01*
X2027Y87D02*
X2030Y87D01*
X2055Y87D02*
X2060Y87D01*
X2071Y87D02*
X2076Y87D01*
X2086Y87D02*
X2104Y87D01*
X2111Y87D02*
X2116Y87D01*
X2127Y87D02*
X2132Y87D01*
X2139Y87D02*
X2144Y87D01*
X2155Y87D02*
X2160Y87D01*
X1830Y86D02*
X1840Y86D01*
X1842Y86D02*
X1845Y86D01*
X1868Y86D02*
X1871Y86D01*
X1879Y86D02*
X1892Y86D01*
X1903Y86D02*
X1906Y86D01*
X1913Y86D02*
X1916Y86D01*
X1923Y86D02*
X1927Y86D01*
X1932Y86D02*
X1935Y86D01*
X1947Y86D02*
X1951Y86D01*
X1974Y86D02*
X1977Y86D01*
X1984Y86D02*
X1998Y86D01*
X2011Y86D02*
X2014Y86D01*
X2027Y86D02*
X2030Y86D01*
X2055Y86D02*
X2060Y86D01*
X2071Y86D02*
X2076Y86D01*
X2088Y86D02*
X2104Y86D01*
X2111Y86D02*
X2116Y86D01*
X2127Y86D02*
X2132Y86D01*
X2139Y86D02*
X2144Y86D01*
X2155Y86D02*
X2160Y86D01*
X1832Y85D02*
X1845Y85D01*
X1868Y85D02*
X1871Y85D01*
X1879Y85D02*
X1882Y85D01*
X1884Y85D02*
X1894Y85D01*
X1903Y85D02*
X1906Y85D01*
X1913Y85D02*
X1916Y85D01*
X1923Y85D02*
X1927Y85D01*
X1932Y85D02*
X1935Y85D01*
X1947Y85D02*
X1951Y85D01*
X1974Y85D02*
X1977Y85D01*
X1984Y85D02*
X1988Y85D01*
X1990Y85D02*
X2000Y85D01*
X2011Y85D02*
X2014Y85D01*
X2027Y85D02*
X2030Y85D01*
X2055Y85D02*
X2060Y85D01*
X2071Y85D02*
X2076Y85D01*
X2090Y85D02*
X2104Y85D01*
X2111Y85D02*
X2116Y85D01*
X2127Y85D02*
X2132Y85D01*
X2139Y85D02*
X2144Y85D01*
X2155Y85D02*
X2160Y85D01*
X1835Y84D02*
X1845Y84D01*
X1868Y84D02*
X1871Y84D01*
X1879Y84D02*
X1882Y84D01*
X1887Y84D02*
X1895Y84D01*
X1903Y84D02*
X1906Y84D01*
X1913Y84D02*
X1916Y84D01*
X1923Y84D02*
X1927Y84D01*
X1932Y84D02*
X1935Y84D01*
X1947Y84D02*
X1951Y84D01*
X1974Y84D02*
X1977Y84D01*
X1984Y84D02*
X1988Y84D01*
X1992Y84D02*
X2001Y84D01*
X2011Y84D02*
X2014Y84D01*
X2027Y84D02*
X2030Y84D01*
X2055Y84D02*
X2060Y84D01*
X2071Y84D02*
X2076Y84D01*
X2083Y84D02*
X2085Y84D01*
X2093Y84D02*
X2104Y84D01*
X2111Y84D02*
X2116Y84D01*
X2127Y84D02*
X2132Y84D01*
X2139Y84D02*
X2144Y84D01*
X2155Y84D02*
X2160Y84D01*
X1837Y83D02*
X1845Y83D01*
X1868Y83D02*
X1871Y83D01*
X1879Y83D02*
X1882Y83D01*
X1889Y83D02*
X1896Y83D01*
X1903Y83D02*
X1906Y83D01*
X1913Y83D02*
X1916Y83D01*
X1923Y83D02*
X1927Y83D01*
X1932Y83D02*
X1935Y83D01*
X1947Y83D02*
X1951Y83D01*
X1974Y83D02*
X1977Y83D01*
X1984Y83D02*
X1988Y83D01*
X1995Y83D02*
X2002Y83D01*
X2011Y83D02*
X2014Y83D01*
X2027Y83D02*
X2030Y83D01*
X2055Y83D02*
X2060Y83D01*
X2071Y83D02*
X2076Y83D01*
X2083Y83D02*
X2087Y83D01*
X2095Y83D02*
X2104Y83D01*
X2111Y83D02*
X2116Y83D01*
X2127Y83D02*
X2132Y83D01*
X2139Y83D02*
X2144Y83D01*
X2155Y83D02*
X2160Y83D01*
X1826Y82D02*
X1827Y82D01*
X1839Y82D02*
X1845Y82D01*
X1868Y82D02*
X1871Y82D01*
X1879Y82D02*
X1882Y82D01*
X1892Y82D02*
X1897Y82D01*
X1903Y82D02*
X1906Y82D01*
X1913Y82D02*
X1916Y82D01*
X1923Y82D02*
X1927Y82D01*
X1932Y82D02*
X1935Y82D01*
X1947Y82D02*
X1951Y82D01*
X1974Y82D02*
X1977Y82D01*
X1984Y82D02*
X1988Y82D01*
X1997Y82D02*
X2003Y82D01*
X2011Y82D02*
X2014Y82D01*
X2027Y82D02*
X2030Y82D01*
X2055Y82D02*
X2060Y82D01*
X2071Y82D02*
X2076Y82D01*
X2083Y82D02*
X2088Y82D01*
X2097Y82D02*
X2104Y82D01*
X2111Y82D02*
X2116Y82D01*
X2127Y82D02*
X2132Y82D01*
X2139Y82D02*
X2144Y82D01*
X2155Y82D02*
X2160Y82D01*
X1826Y81D02*
X1829Y81D01*
X1841Y81D02*
X1845Y81D01*
X1868Y81D02*
X1871Y81D01*
X1879Y81D02*
X1882Y81D01*
X1893Y81D02*
X1897Y81D01*
X1903Y81D02*
X1906Y81D01*
X1913Y81D02*
X1916Y81D01*
X1923Y81D02*
X1927Y81D01*
X1932Y81D02*
X1935Y81D01*
X1947Y81D02*
X1951Y81D01*
X1974Y81D02*
X1977Y81D01*
X1984Y81D02*
X1988Y81D01*
X1999Y81D02*
X2003Y81D01*
X2011Y81D02*
X2014Y81D01*
X2027Y81D02*
X2030Y81D01*
X2055Y81D02*
X2060Y81D01*
X2071Y81D02*
X2076Y81D01*
X2083Y81D02*
X2088Y81D01*
X2099Y81D02*
X2104Y81D01*
X2111Y81D02*
X2116Y81D01*
X2127Y81D02*
X2132Y81D01*
X2139Y81D02*
X2144Y81D01*
X2154Y81D02*
X2159Y81D01*
X1826Y80D02*
X1829Y80D01*
X1842Y80D02*
X1845Y80D01*
X1868Y80D02*
X1871Y80D01*
X1879Y80D02*
X1882Y80D01*
X1894Y80D02*
X1898Y80D01*
X1903Y80D02*
X1906Y80D01*
X1913Y80D02*
X1916Y80D01*
X1923Y80D02*
X1927Y80D01*
X1932Y80D02*
X1935Y80D01*
X1947Y80D02*
X1951Y80D01*
X1974Y80D02*
X1977Y80D01*
X1984Y80D02*
X1988Y80D01*
X2000Y80D02*
X2003Y80D01*
X2011Y80D02*
X2014Y80D01*
X2027Y80D02*
X2030Y80D01*
X2055Y80D02*
X2060Y80D01*
X2071Y80D02*
X2076Y80D01*
X2083Y80D02*
X2088Y80D01*
X2099Y80D02*
X2104Y80D01*
X2111Y80D02*
X2116Y80D01*
X2126Y80D02*
X2132Y80D01*
X2139Y80D02*
X2144Y80D01*
X2154Y80D02*
X2159Y80D01*
X1826Y79D02*
X1829Y79D01*
X1841Y79D02*
X1845Y79D01*
X1868Y79D02*
X1871Y79D01*
X1879Y79D02*
X1882Y79D01*
X1894Y79D02*
X1898Y79D01*
X1903Y79D02*
X1906Y79D01*
X1913Y79D02*
X1916Y79D01*
X1923Y79D02*
X1927Y79D01*
X1932Y79D02*
X1935Y79D01*
X1947Y79D02*
X1950Y79D01*
X1974Y79D02*
X1977Y79D01*
X1984Y79D02*
X1988Y79D01*
X2000Y79D02*
X2003Y79D01*
X2011Y79D02*
X2014Y79D01*
X2027Y79D02*
X2030Y79D01*
X2055Y79D02*
X2060Y79D01*
X2071Y79D02*
X2076Y79D01*
X2084Y79D02*
X2089Y79D01*
X2098Y79D02*
X2104Y79D01*
X2111Y79D02*
X2117Y79D01*
X2126Y79D02*
X2132Y79D01*
X2139Y79D02*
X2145Y79D01*
X2154Y79D02*
X2159Y79D01*
X1826Y78D02*
X1830Y78D01*
X1841Y78D02*
X1844Y78D01*
X1868Y78D02*
X1871Y78D01*
X1879Y78D02*
X1882Y78D01*
X1894Y78D02*
X1898Y78D01*
X1903Y78D02*
X1906Y78D01*
X1913Y78D02*
X1916Y78D01*
X1923Y78D02*
X1926Y78D01*
X1932Y78D02*
X1936Y78D01*
X1947Y78D02*
X1950Y78D01*
X1974Y78D02*
X1977Y78D01*
X1984Y78D02*
X1988Y78D01*
X2000Y78D02*
X2004Y78D01*
X2011Y78D02*
X2014Y78D01*
X2027Y78D02*
X2030Y78D01*
X2055Y78D02*
X2060Y78D01*
X2071Y78D02*
X2076Y78D01*
X2084Y78D02*
X2090Y78D01*
X2097Y78D02*
X2103Y78D01*
X2112Y78D02*
X2118Y78D01*
X2125Y78D02*
X2132Y78D01*
X2139Y78D02*
X2145Y78D01*
X2153Y78D02*
X2159Y78D01*
X1827Y77D02*
X1831Y77D01*
X1840Y77D02*
X1844Y77D01*
X1868Y77D02*
X1871Y77D01*
X1879Y77D02*
X1882Y77D01*
X1894Y77D02*
X1898Y77D01*
X1903Y77D02*
X1906Y77D01*
X1913Y77D02*
X1917Y77D01*
X1923Y77D02*
X1926Y77D01*
X1932Y77D02*
X1936Y77D01*
X1946Y77D02*
X1950Y77D01*
X1974Y77D02*
X1977Y77D01*
X1984Y77D02*
X1988Y77D01*
X2000Y77D02*
X2003Y77D01*
X2011Y77D02*
X2014Y77D01*
X2027Y77D02*
X2030Y77D01*
X2055Y77D02*
X2060Y77D01*
X2071Y77D02*
X2076Y77D01*
X2084Y77D02*
X2091Y77D01*
X2096Y77D02*
X2103Y77D01*
X2112Y77D02*
X2119Y77D01*
X2124Y77D02*
X2132Y77D01*
X2140Y77D02*
X2147Y77D01*
X2151Y77D02*
X2159Y77D01*
X1827Y76D02*
X1832Y76D01*
X1839Y76D02*
X1844Y76D01*
X1868Y76D02*
X1871Y76D01*
X1879Y76D02*
X1882Y76D01*
X1893Y76D02*
X1897Y76D01*
X1903Y76D02*
X1907Y76D01*
X1912Y76D02*
X1917Y76D01*
X1923Y76D02*
X1926Y76D01*
X1933Y76D02*
X1937Y76D01*
X1945Y76D02*
X1949Y76D01*
X1974Y76D02*
X1977Y76D01*
X1984Y76D02*
X1988Y76D01*
X1999Y76D02*
X2003Y76D01*
X2011Y76D02*
X2014Y76D01*
X2027Y76D02*
X2030Y76D01*
X2055Y76D02*
X2060Y76D01*
X2071Y76D02*
X2076Y76D01*
X2085Y76D02*
X2102Y76D01*
X2112Y76D02*
X2132Y76D01*
X2140Y76D02*
X2158Y76D01*
X1828Y75D02*
X1834Y75D01*
X1836Y75D02*
X1843Y75D01*
X1868Y75D02*
X1871Y75D01*
X1879Y75D02*
X1882Y75D01*
X1886Y75D02*
X1888Y75D01*
X1890Y75D02*
X1897Y75D01*
X1903Y75D02*
X1908Y75D01*
X1911Y75D02*
X1918Y75D01*
X1921Y75D02*
X1926Y75D01*
X1933Y75D02*
X1949Y75D01*
X1974Y75D02*
X1977Y75D01*
X1984Y75D02*
X1988Y75D01*
X1992Y75D02*
X1994Y75D01*
X1996Y75D02*
X2002Y75D01*
X2011Y75D02*
X2014Y75D01*
X2027Y75D02*
X2030Y75D01*
X2055Y75D02*
X2060Y75D01*
X2071Y75D02*
X2076Y75D01*
X2086Y75D02*
X2102Y75D01*
X2113Y75D02*
X2132Y75D01*
X2141Y75D02*
X2157Y75D01*
X1829Y74D02*
X1842Y74D01*
X1868Y74D02*
X1871Y74D01*
X1879Y74D02*
X1882Y74D01*
X1886Y74D02*
X1896Y74D01*
X1904Y74D02*
X1925Y74D01*
X1934Y74D02*
X1948Y74D01*
X1974Y74D02*
X1977Y74D01*
X1984Y74D02*
X1988Y74D01*
X1992Y74D02*
X2002Y74D01*
X2011Y74D02*
X2014Y74D01*
X2027Y74D02*
X2030Y74D01*
X2055Y74D02*
X2060Y74D01*
X2071Y74D02*
X2076Y74D01*
X2086Y74D02*
X2101Y74D01*
X2114Y74D02*
X2132Y74D01*
X2142Y74D02*
X2157Y74D01*
X1830Y73D02*
X1841Y73D01*
X1868Y73D02*
X1871Y73D01*
X1879Y73D02*
X1882Y73D01*
X1886Y73D02*
X1895Y73D01*
X1905Y73D02*
X1925Y73D01*
X1935Y73D02*
X1947Y73D01*
X1974Y73D02*
X1977Y73D01*
X1984Y73D02*
X1988Y73D01*
X1991Y73D02*
X2001Y73D01*
X2011Y73D02*
X2014Y73D01*
X2027Y73D02*
X2030Y73D01*
X2055Y73D02*
X2060Y73D01*
X2071Y73D02*
X2076Y73D01*
X2087Y73D02*
X2100Y73D01*
X2115Y73D02*
X2132Y73D01*
X2143Y73D02*
X2155Y73D01*
X1831Y72D02*
X1840Y72D01*
X1869Y72D02*
X1871Y72D01*
X1880Y72D02*
X1882Y72D01*
X1885Y72D02*
X1894Y72D01*
X1906Y72D02*
X1913Y72D01*
X1916Y72D02*
X1924Y72D01*
X1937Y72D02*
X1946Y72D01*
X1975Y72D02*
X1977Y72D01*
X1986Y72D02*
X1988Y72D01*
X1991Y72D02*
X1999Y72D01*
X2012Y72D02*
X2014Y72D01*
X2028Y72D02*
X2030Y72D01*
X2057Y72D02*
X2060Y72D01*
X2073Y72D02*
X2076Y72D01*
X2089Y72D02*
X2098Y72D01*
X2117Y72D02*
X2132Y72D01*
X2144Y72D02*
X2154Y72D01*
X1833Y71D02*
X1837Y71D01*
X1871Y71D02*
X1871Y71D01*
X1882Y71D02*
X1882Y71D01*
X1887Y71D02*
X1891Y71D01*
X1908Y71D02*
X1911Y71D01*
X1918Y71D02*
X1922Y71D01*
X1939Y71D02*
X1943Y71D01*
X1977Y71D02*
X1977Y71D01*
X1993Y71D02*
X1997Y71D01*
X2014Y71D02*
X2014Y71D01*
X2030Y71D02*
X2030Y71D01*
X2059Y71D02*
X2060Y71D01*
X2075Y71D02*
X2076Y71D01*
X2091Y71D02*
X2096Y71D01*
X2119Y71D02*
X2124Y71D01*
X2127Y71D02*
X2132Y71D01*
X2147Y71D02*
X2151Y71D01*
X2127Y70D02*
X2132Y70D01*
X2127Y69D02*
X2132Y69D01*
X2127Y68D02*
X2132Y68D01*
X2127Y67D02*
X2132Y67D01*
X2127Y66D02*
X2132Y66D01*
X2127Y65D02*
X2132Y65D01*
X2127Y64D02*
X2132Y64D01*
X2127Y63D02*
X2132Y63D01*
X2128Y62D02*
X2132Y62D01*
X2130Y61D02*
X2132Y61D01*
X1804Y51D02*
X1820Y51D01*
X1832Y51D02*
X1848Y51D01*
X1861Y51D02*
X1876Y51D01*
X1889Y51D02*
X1905Y51D01*
X1918Y51D02*
X1933Y51D01*
X1946Y51D02*
X1962Y51D01*
X1989Y51D02*
X1992Y51D01*
X2005Y51D02*
X2021Y51D01*
X2067Y51D02*
X2069Y51D01*
X2088Y51D02*
X2090Y51D01*
X2104Y51D02*
X2106Y51D01*
X2116Y51D02*
X2119Y51D01*
X2132Y51D02*
X2134Y51D01*
X2147Y51D02*
X2161Y51D01*
X2180Y51D02*
X2185Y51D01*
X1803Y50D02*
X1821Y50D01*
X1831Y50D02*
X1849Y50D01*
X1860Y50D02*
X1877Y50D01*
X1888Y50D02*
X1906Y50D01*
X1917Y50D02*
X1934Y50D01*
X1946Y50D02*
X1963Y50D01*
X1989Y50D02*
X1992Y50D01*
X2004Y50D02*
X2021Y50D01*
X2067Y50D02*
X2070Y50D01*
X2088Y50D02*
X2090Y50D01*
X2103Y50D02*
X2106Y50D01*
X2116Y50D02*
X2119Y50D01*
X2132Y50D02*
X2135Y50D01*
X2146Y50D02*
X2162Y50D01*
X2179Y50D02*
X2186Y50D01*
X1802Y49D02*
X1821Y49D01*
X1831Y49D02*
X1849Y49D01*
X1859Y49D02*
X1878Y49D01*
X1888Y49D02*
X1906Y49D01*
X1916Y49D02*
X1935Y49D01*
X1945Y49D02*
X1963Y49D01*
X1989Y49D02*
X1992Y49D01*
X2003Y49D02*
X2021Y49D01*
X2066Y49D02*
X2070Y49D01*
X2087Y49D02*
X2090Y49D01*
X2103Y49D02*
X2106Y49D01*
X2116Y49D02*
X2119Y49D01*
X2132Y49D02*
X2135Y49D01*
X2145Y49D02*
X2163Y49D01*
X2178Y49D02*
X2187Y49D01*
X1802Y48D02*
X1819Y48D01*
X1831Y48D02*
X1849Y48D01*
X1859Y48D02*
X1878Y48D01*
X1888Y48D02*
X1906Y48D01*
X1916Y48D02*
X1935Y48D01*
X1945Y48D02*
X1963Y48D01*
X1989Y48D02*
X1992Y48D01*
X2002Y48D02*
X2021Y48D01*
X2066Y48D02*
X2070Y48D01*
X2087Y48D02*
X2090Y48D01*
X2103Y48D02*
X2106Y48D01*
X2116Y48D02*
X2119Y48D01*
X2132Y48D02*
X2135Y48D01*
X2145Y48D02*
X2163Y48D01*
X2178Y48D02*
X2187Y48D01*
X1802Y47D02*
X1805Y47D01*
X1831Y47D02*
X1834Y47D01*
X1846Y47D02*
X1849Y47D01*
X1859Y47D02*
X1862Y47D01*
X1875Y47D02*
X1878Y47D01*
X1888Y47D02*
X1891Y47D01*
X1903Y47D02*
X1906Y47D01*
X1916Y47D02*
X1919Y47D01*
X1932Y47D02*
X1935Y47D01*
X1945Y47D02*
X1948Y47D01*
X1960Y47D02*
X1963Y47D01*
X1989Y47D02*
X1992Y47D01*
X2002Y47D02*
X2005Y47D01*
X2018Y47D02*
X2021Y47D01*
X2066Y47D02*
X2071Y47D01*
X2087Y47D02*
X2090Y47D01*
X2103Y47D02*
X2106Y47D01*
X2116Y47D02*
X2119Y47D01*
X2132Y47D02*
X2135Y47D01*
X2145Y47D02*
X2148Y47D01*
X2160Y47D02*
X2163Y47D01*
X2177Y47D02*
X2181Y47D01*
X2184Y47D02*
X2188Y47D01*
X1802Y46D02*
X1805Y46D01*
X1831Y46D02*
X1834Y46D01*
X1846Y46D02*
X1849Y46D01*
X1859Y46D02*
X1862Y46D01*
X1875Y46D02*
X1878Y46D01*
X1888Y46D02*
X1891Y46D01*
X1903Y46D02*
X1906Y46D01*
X1916Y46D02*
X1919Y46D01*
X1932Y46D02*
X1935Y46D01*
X1945Y46D02*
X1948Y46D01*
X1960Y46D02*
X1963Y46D01*
X1989Y46D02*
X1992Y46D01*
X2002Y46D02*
X2005Y46D01*
X2018Y46D02*
X2021Y46D01*
X2066Y46D02*
X2071Y46D01*
X2087Y46D02*
X2090Y46D01*
X2103Y46D02*
X2106Y46D01*
X2116Y46D02*
X2119Y46D01*
X2132Y46D02*
X2135Y46D01*
X2145Y46D02*
X2147Y46D01*
X2159Y46D02*
X2163Y46D01*
X2177Y46D02*
X2180Y46D01*
X2185Y46D02*
X2188Y46D01*
X1802Y45D02*
X1805Y45D01*
X1831Y45D02*
X1834Y45D01*
X1846Y45D02*
X1849Y45D01*
X1859Y45D02*
X1862Y45D01*
X1875Y45D02*
X1878Y45D01*
X1888Y45D02*
X1891Y45D01*
X1903Y45D02*
X1906Y45D01*
X1916Y45D02*
X1919Y45D01*
X1932Y45D02*
X1935Y45D01*
X1945Y45D02*
X1948Y45D01*
X1960Y45D02*
X1963Y45D01*
X1989Y45D02*
X1992Y45D01*
X2002Y45D02*
X2005Y45D01*
X2018Y45D02*
X2021Y45D01*
X2065Y45D02*
X2071Y45D01*
X2087Y45D02*
X2090Y45D01*
X2103Y45D02*
X2106Y45D01*
X2116Y45D02*
X2119Y45D01*
X2132Y45D02*
X2135Y45D01*
X2145Y45D02*
X2147Y45D01*
X2159Y45D02*
X2163Y45D01*
X2176Y45D02*
X2180Y45D01*
X2185Y45D02*
X2189Y45D01*
X1802Y44D02*
X1805Y44D01*
X1831Y44D02*
X1834Y44D01*
X1846Y44D02*
X1849Y44D01*
X1859Y44D02*
X1862Y44D01*
X1875Y44D02*
X1878Y44D01*
X1888Y44D02*
X1891Y44D01*
X1903Y44D02*
X1906Y44D01*
X1916Y44D02*
X1919Y44D01*
X1932Y44D02*
X1935Y44D01*
X1945Y44D02*
X1948Y44D01*
X1960Y44D02*
X1963Y44D01*
X1989Y44D02*
X1992Y44D01*
X2002Y44D02*
X2005Y44D01*
X2018Y44D02*
X2021Y44D01*
X2065Y44D02*
X2072Y44D01*
X2087Y44D02*
X2090Y44D01*
X2103Y44D02*
X2106Y44D01*
X2116Y44D02*
X2119Y44D01*
X2132Y44D02*
X2135Y44D01*
X2158Y44D02*
X2162Y44D01*
X2176Y44D02*
X2179Y44D01*
X2186Y44D02*
X2189Y44D01*
X1802Y43D02*
X1805Y43D01*
X1831Y43D02*
X1834Y43D01*
X1846Y43D02*
X1849Y43D01*
X1859Y43D02*
X1862Y43D01*
X1875Y43D02*
X1878Y43D01*
X1888Y43D02*
X1891Y43D01*
X1903Y43D02*
X1906Y43D01*
X1916Y43D02*
X1919Y43D01*
X1932Y43D02*
X1935Y43D01*
X1945Y43D02*
X1948Y43D01*
X1960Y43D02*
X1963Y43D01*
X1989Y43D02*
X1992Y43D01*
X2002Y43D02*
X2005Y43D01*
X2018Y43D02*
X2021Y43D01*
X2065Y43D02*
X2072Y43D01*
X2087Y43D02*
X2090Y43D01*
X2103Y43D02*
X2106Y43D01*
X2116Y43D02*
X2119Y43D01*
X2132Y43D02*
X2135Y43D01*
X2157Y43D02*
X2161Y43D01*
X2175Y43D02*
X2179Y43D01*
X2186Y43D02*
X2190Y43D01*
X1802Y42D02*
X1805Y42D01*
X1831Y42D02*
X1834Y42D01*
X1846Y42D02*
X1849Y42D01*
X1859Y42D02*
X1862Y42D01*
X1875Y42D02*
X1878Y42D01*
X1888Y42D02*
X1891Y42D01*
X1903Y42D02*
X1906Y42D01*
X1916Y42D02*
X1919Y42D01*
X1932Y42D02*
X1935Y42D01*
X1945Y42D02*
X1948Y42D01*
X1960Y42D02*
X1963Y42D01*
X1989Y42D02*
X1992Y42D01*
X2002Y42D02*
X2005Y42D01*
X2018Y42D02*
X2021Y42D01*
X2064Y42D02*
X2072Y42D01*
X2087Y42D02*
X2090Y42D01*
X2103Y42D02*
X2106Y42D01*
X2116Y42D02*
X2119Y42D01*
X2132Y42D02*
X2135Y42D01*
X2156Y42D02*
X2160Y42D01*
X2175Y42D02*
X2178Y42D01*
X2187Y42D02*
X2190Y42D01*
X1802Y41D02*
X1805Y41D01*
X1831Y41D02*
X1834Y41D01*
X1846Y41D02*
X1849Y41D01*
X1859Y41D02*
X1862Y41D01*
X1875Y41D02*
X1878Y41D01*
X1888Y41D02*
X1891Y41D01*
X1903Y41D02*
X1906Y41D01*
X1916Y41D02*
X1919Y41D01*
X1932Y41D02*
X1935Y41D01*
X1945Y41D02*
X1948Y41D01*
X1960Y41D02*
X1963Y41D01*
X1989Y41D02*
X1992Y41D01*
X2002Y41D02*
X2005Y41D01*
X2018Y41D02*
X2021Y41D01*
X2064Y41D02*
X2067Y41D01*
X2069Y41D02*
X2072Y41D01*
X2087Y41D02*
X2090Y41D01*
X2096Y41D02*
X2098Y41D01*
X2103Y41D02*
X2106Y41D01*
X2116Y41D02*
X2119Y41D01*
X2132Y41D02*
X2135Y41D01*
X2155Y41D02*
X2160Y41D01*
X2174Y41D02*
X2178Y41D01*
X2187Y41D02*
X2191Y41D01*
X1802Y40D02*
X1805Y40D01*
X1831Y40D02*
X1834Y40D01*
X1846Y40D02*
X1849Y40D01*
X1859Y40D02*
X1862Y40D01*
X1875Y40D02*
X1878Y40D01*
X1888Y40D02*
X1891Y40D01*
X1903Y40D02*
X1906Y40D01*
X1916Y40D02*
X1919Y40D01*
X1932Y40D02*
X1935Y40D01*
X1945Y40D02*
X1948Y40D01*
X1960Y40D02*
X1963Y40D01*
X1989Y40D02*
X1992Y40D01*
X2002Y40D02*
X2005Y40D01*
X2018Y40D02*
X2021Y40D01*
X2064Y40D02*
X2067Y40D01*
X2070Y40D02*
X2073Y40D01*
X2087Y40D02*
X2090Y40D01*
X2095Y40D02*
X2098Y40D01*
X2103Y40D02*
X2106Y40D01*
X2116Y40D02*
X2119Y40D01*
X2132Y40D02*
X2135Y40D01*
X2155Y40D02*
X2159Y40D01*
X2174Y40D02*
X2177Y40D01*
X2188Y40D02*
X2191Y40D01*
X1802Y39D02*
X1805Y39D01*
X1831Y39D02*
X1834Y39D01*
X1846Y39D02*
X1849Y39D01*
X1859Y39D02*
X1862Y39D01*
X1875Y39D02*
X1878Y39D01*
X1888Y39D02*
X1891Y39D01*
X1903Y39D02*
X1906Y39D01*
X1916Y39D02*
X1919Y39D01*
X1932Y39D02*
X1935Y39D01*
X1945Y39D02*
X1948Y39D01*
X1960Y39D02*
X1963Y39D01*
X1989Y39D02*
X1992Y39D01*
X2002Y39D02*
X2005Y39D01*
X2018Y39D02*
X2021Y39D01*
X2064Y39D02*
X2067Y39D01*
X2070Y39D02*
X2073Y39D01*
X2087Y39D02*
X2090Y39D01*
X2095Y39D02*
X2098Y39D01*
X2103Y39D02*
X2106Y39D01*
X2116Y39D02*
X2119Y39D01*
X2132Y39D02*
X2135Y39D01*
X2154Y39D02*
X2158Y39D01*
X2174Y39D02*
X2177Y39D01*
X2188Y39D02*
X2191Y39D01*
X1802Y38D02*
X1818Y38D01*
X1831Y38D02*
X1834Y38D01*
X1846Y38D02*
X1849Y38D01*
X1859Y38D02*
X1862Y38D01*
X1875Y38D02*
X1878Y38D01*
X1888Y38D02*
X1891Y38D01*
X1903Y38D02*
X1906Y38D01*
X1916Y38D02*
X1919Y38D01*
X1932Y38D02*
X1935Y38D01*
X1945Y38D02*
X1948Y38D01*
X1960Y38D02*
X1963Y38D01*
X1989Y38D02*
X1992Y38D01*
X2002Y38D02*
X2005Y38D01*
X2018Y38D02*
X2021Y38D01*
X2063Y38D02*
X2066Y38D01*
X2070Y38D02*
X2073Y38D01*
X2087Y38D02*
X2090Y38D01*
X2095Y38D02*
X2098Y38D01*
X2103Y38D02*
X2106Y38D01*
X2116Y38D02*
X2135Y38D01*
X2153Y38D02*
X2157Y38D01*
X2173Y38D02*
X2176Y38D01*
X2189Y38D02*
X2192Y38D01*
X1802Y37D02*
X1820Y37D01*
X1831Y37D02*
X1834Y37D01*
X1846Y37D02*
X1849Y37D01*
X1859Y37D02*
X1862Y37D01*
X1875Y37D02*
X1878Y37D01*
X1888Y37D02*
X1891Y37D01*
X1903Y37D02*
X1906Y37D01*
X1916Y37D02*
X1919Y37D01*
X1932Y37D02*
X1935Y37D01*
X1945Y37D02*
X1948Y37D01*
X1960Y37D02*
X1963Y37D01*
X1989Y37D02*
X1992Y37D01*
X2002Y37D02*
X2006Y37D01*
X2017Y37D02*
X2021Y37D01*
X2063Y37D02*
X2066Y37D01*
X2070Y37D02*
X2074Y37D01*
X2087Y37D02*
X2090Y37D01*
X2095Y37D02*
X2098Y37D01*
X2103Y37D02*
X2106Y37D01*
X2116Y37D02*
X2135Y37D01*
X2152Y37D02*
X2156Y37D01*
X2173Y37D02*
X2176Y37D01*
X2189Y37D02*
X2192Y37D01*
X1803Y36D02*
X1820Y36D01*
X1831Y36D02*
X1834Y36D01*
X1846Y36D02*
X1849Y36D01*
X1859Y36D02*
X1862Y36D01*
X1875Y36D02*
X1878Y36D01*
X1888Y36D02*
X1891Y36D01*
X1903Y36D02*
X1906Y36D01*
X1916Y36D02*
X1919Y36D01*
X1932Y36D02*
X1935Y36D01*
X1945Y36D02*
X1948Y36D01*
X1960Y36D02*
X1963Y36D01*
X1989Y36D02*
X1992Y36D01*
X2003Y36D02*
X2021Y36D01*
X2063Y36D02*
X2066Y36D01*
X2071Y36D02*
X2074Y36D01*
X2087Y36D02*
X2090Y36D01*
X2095Y36D02*
X2098Y36D01*
X2103Y36D02*
X2106Y36D01*
X2116Y36D02*
X2135Y36D01*
X2152Y36D02*
X2156Y36D01*
X2173Y36D02*
X2176Y36D01*
X2189Y36D02*
X2192Y36D01*
X1804Y35D02*
X1821Y35D01*
X1831Y35D02*
X1834Y35D01*
X1846Y35D02*
X1849Y35D01*
X1859Y35D02*
X1862Y35D01*
X1875Y35D02*
X1878Y35D01*
X1888Y35D02*
X1891Y35D01*
X1903Y35D02*
X1906Y35D01*
X1916Y35D02*
X1919Y35D01*
X1932Y35D02*
X1935Y35D01*
X1945Y35D02*
X1948Y35D01*
X1960Y35D02*
X1963Y35D01*
X1989Y35D02*
X1992Y35D01*
X2003Y35D02*
X2021Y35D01*
X2062Y35D02*
X2066Y35D01*
X2071Y35D02*
X2074Y35D01*
X2087Y35D02*
X2090Y35D01*
X2095Y35D02*
X2098Y35D01*
X2103Y35D02*
X2106Y35D01*
X2116Y35D02*
X2135Y35D01*
X2151Y35D02*
X2155Y35D01*
X2173Y35D02*
X2176Y35D01*
X2189Y35D02*
X2192Y35D01*
X1818Y34D02*
X1821Y34D01*
X1831Y34D02*
X1834Y34D01*
X1846Y34D02*
X1849Y34D01*
X1859Y34D02*
X1862Y34D01*
X1875Y34D02*
X1878Y34D01*
X1888Y34D02*
X1891Y34D01*
X1903Y34D02*
X1906Y34D01*
X1916Y34D02*
X1919Y34D01*
X1932Y34D02*
X1935Y34D01*
X1945Y34D02*
X1948Y34D01*
X1960Y34D02*
X1963Y34D01*
X1989Y34D02*
X1992Y34D01*
X2004Y34D02*
X2021Y34D01*
X2062Y34D02*
X2065Y34D01*
X2071Y34D02*
X2075Y34D01*
X2087Y34D02*
X2090Y34D01*
X2095Y34D02*
X2098Y34D01*
X2103Y34D02*
X2106Y34D01*
X2116Y34D02*
X2119Y34D01*
X2132Y34D02*
X2135Y34D01*
X2150Y34D02*
X2154Y34D01*
X2174Y34D02*
X2177Y34D01*
X2188Y34D02*
X2191Y34D01*
X1818Y33D02*
X1821Y33D01*
X1831Y33D02*
X1834Y33D01*
X1846Y33D02*
X1849Y33D01*
X1859Y33D02*
X1862Y33D01*
X1875Y33D02*
X1878Y33D01*
X1888Y33D02*
X1891Y33D01*
X1903Y33D02*
X1906Y33D01*
X1916Y33D02*
X1919Y33D01*
X1932Y33D02*
X1935Y33D01*
X1945Y33D02*
X1948Y33D01*
X1960Y33D02*
X1963Y33D01*
X1989Y33D02*
X1992Y33D01*
X2006Y33D02*
X2021Y33D01*
X2062Y33D02*
X2065Y33D01*
X2072Y33D02*
X2075Y33D01*
X2087Y33D02*
X2090Y33D01*
X2095Y33D02*
X2098Y33D01*
X2103Y33D02*
X2106Y33D01*
X2116Y33D02*
X2119Y33D01*
X2132Y33D02*
X2135Y33D01*
X2149Y33D02*
X2153Y33D01*
X2174Y33D02*
X2177Y33D01*
X2188Y33D02*
X2191Y33D01*
X1818Y32D02*
X1821Y32D01*
X1831Y32D02*
X1834Y32D01*
X1846Y32D02*
X1849Y32D01*
X1859Y32D02*
X1862Y32D01*
X1875Y32D02*
X1878Y32D01*
X1888Y32D02*
X1891Y32D01*
X1903Y32D02*
X1906Y32D01*
X1916Y32D02*
X1919Y32D01*
X1932Y32D02*
X1935Y32D01*
X1945Y32D02*
X1948Y32D01*
X1960Y32D02*
X1963Y32D01*
X1989Y32D02*
X1992Y32D01*
X2018Y32D02*
X2021Y32D01*
X2061Y32D02*
X2065Y32D01*
X2072Y32D02*
X2075Y32D01*
X2087Y32D02*
X2090Y32D01*
X2095Y32D02*
X2098Y32D01*
X2103Y32D02*
X2106Y32D01*
X2116Y32D02*
X2119Y32D01*
X2132Y32D02*
X2135Y32D01*
X2148Y32D02*
X2153Y32D01*
X2174Y32D02*
X2178Y32D01*
X2187Y32D02*
X2191Y32D01*
X1818Y31D02*
X1821Y31D01*
X1831Y31D02*
X1834Y31D01*
X1846Y31D02*
X1849Y31D01*
X1859Y31D02*
X1862Y31D01*
X1875Y31D02*
X1878Y31D01*
X1888Y31D02*
X1891Y31D01*
X1903Y31D02*
X1906Y31D01*
X1916Y31D02*
X1919Y31D01*
X1932Y31D02*
X1935Y31D01*
X1945Y31D02*
X1948Y31D01*
X1960Y31D02*
X1963Y31D01*
X1989Y31D02*
X1992Y31D01*
X2018Y31D02*
X2021Y31D01*
X2061Y31D02*
X2075Y31D01*
X2087Y31D02*
X2090Y31D01*
X2095Y31D02*
X2098Y31D01*
X2103Y31D02*
X2106Y31D01*
X2116Y31D02*
X2119Y31D01*
X2132Y31D02*
X2135Y31D01*
X2148Y31D02*
X2152Y31D01*
X2175Y31D02*
X2178Y31D01*
X2187Y31D02*
X2190Y31D01*
X1818Y30D02*
X1821Y30D01*
X1831Y30D02*
X1834Y30D01*
X1846Y30D02*
X1849Y30D01*
X1859Y30D02*
X1862Y30D01*
X1875Y30D02*
X1878Y30D01*
X1888Y30D02*
X1891Y30D01*
X1903Y30D02*
X1906Y30D01*
X1916Y30D02*
X1919Y30D01*
X1932Y30D02*
X1935Y30D01*
X1945Y30D02*
X1948Y30D01*
X1960Y30D02*
X1963Y30D01*
X1989Y30D02*
X1992Y30D01*
X2018Y30D02*
X2021Y30D01*
X2061Y30D02*
X2076Y30D01*
X2087Y30D02*
X2090Y30D01*
X2095Y30D02*
X2098Y30D01*
X2103Y30D02*
X2106Y30D01*
X2116Y30D02*
X2119Y30D01*
X2132Y30D02*
X2135Y30D01*
X2147Y30D02*
X2151Y30D01*
X2175Y30D02*
X2179Y30D01*
X2186Y30D02*
X2190Y30D01*
X1818Y29D02*
X1821Y29D01*
X1831Y29D02*
X1834Y29D01*
X1846Y29D02*
X1849Y29D01*
X1859Y29D02*
X1862Y29D01*
X1875Y29D02*
X1878Y29D01*
X1888Y29D02*
X1891Y29D01*
X1903Y29D02*
X1906Y29D01*
X1916Y29D02*
X1919Y29D01*
X1932Y29D02*
X1935Y29D01*
X1945Y29D02*
X1948Y29D01*
X1960Y29D02*
X1963Y29D01*
X1989Y29D02*
X1992Y29D01*
X2018Y29D02*
X2021Y29D01*
X2061Y29D02*
X2076Y29D01*
X2087Y29D02*
X2090Y29D01*
X2095Y29D02*
X2098Y29D01*
X2103Y29D02*
X2106Y29D01*
X2116Y29D02*
X2119Y29D01*
X2132Y29D02*
X2135Y29D01*
X2146Y29D02*
X2150Y29D01*
X2176Y29D02*
X2179Y29D01*
X2186Y29D02*
X2189Y29D01*
X1818Y28D02*
X1821Y28D01*
X1831Y28D02*
X1834Y28D01*
X1846Y28D02*
X1849Y28D01*
X1859Y28D02*
X1862Y28D01*
X1875Y28D02*
X1878Y28D01*
X1888Y28D02*
X1891Y28D01*
X1903Y28D02*
X1906Y28D01*
X1916Y28D02*
X1919Y28D01*
X1932Y28D02*
X1935Y28D01*
X1945Y28D02*
X1948Y28D01*
X1960Y28D02*
X1963Y28D01*
X1989Y28D02*
X1992Y28D01*
X2018Y28D02*
X2021Y28D01*
X2060Y28D02*
X2076Y28D01*
X2087Y28D02*
X2090Y28D01*
X2095Y28D02*
X2098Y28D01*
X2103Y28D02*
X2106Y28D01*
X2116Y28D02*
X2119Y28D01*
X2132Y28D02*
X2135Y28D01*
X2145Y28D02*
X2149Y28D01*
X2161Y28D02*
X2162Y28D01*
X2176Y28D02*
X2180Y28D01*
X2185Y28D02*
X2189Y28D01*
X1818Y27D02*
X1821Y27D01*
X1831Y27D02*
X1834Y27D01*
X1846Y27D02*
X1849Y27D01*
X1859Y27D02*
X1862Y27D01*
X1875Y27D02*
X1878Y27D01*
X1888Y27D02*
X1891Y27D01*
X1903Y27D02*
X1906Y27D01*
X1916Y27D02*
X1919Y27D01*
X1932Y27D02*
X1935Y27D01*
X1945Y27D02*
X1948Y27D01*
X1960Y27D02*
X1963Y27D01*
X1989Y27D02*
X1992Y27D01*
X2018Y27D02*
X2021Y27D01*
X2060Y27D02*
X2063Y27D01*
X2073Y27D02*
X2077Y27D01*
X2087Y27D02*
X2091Y27D01*
X2095Y27D02*
X2098Y27D01*
X2103Y27D02*
X2106Y27D01*
X2116Y27D02*
X2119Y27D01*
X2132Y27D02*
X2135Y27D01*
X2145Y27D02*
X2149Y27D01*
X2160Y27D02*
X2163Y27D01*
X2177Y27D02*
X2180Y27D01*
X2185Y27D02*
X2188Y27D01*
X1818Y26D02*
X1821Y26D01*
X1831Y26D02*
X1834Y26D01*
X1846Y26D02*
X1849Y26D01*
X1859Y26D02*
X1862Y26D01*
X1875Y26D02*
X1878Y26D01*
X1888Y26D02*
X1891Y26D01*
X1903Y26D02*
X1906Y26D01*
X1916Y26D02*
X1919Y26D01*
X1932Y26D02*
X1935Y26D01*
X1945Y26D02*
X1948Y26D01*
X1960Y26D02*
X1963Y26D01*
X1989Y26D02*
X1992Y26D01*
X2018Y26D02*
X2021Y26D01*
X2060Y26D02*
X2063Y26D01*
X2074Y26D02*
X2077Y26D01*
X2088Y26D02*
X2091Y26D01*
X2095Y26D02*
X2099Y26D01*
X2103Y26D02*
X2106Y26D01*
X2116Y26D02*
X2119Y26D01*
X2132Y26D02*
X2135Y26D01*
X2145Y26D02*
X2148Y26D01*
X2160Y26D02*
X2163Y26D01*
X2177Y26D02*
X2181Y26D01*
X2184Y26D02*
X2188Y26D01*
X1804Y25D02*
X1821Y25D01*
X1831Y25D02*
X1849Y25D01*
X1859Y25D02*
X1878Y25D01*
X1888Y25D02*
X1906Y25D01*
X1916Y25D02*
X1935Y25D01*
X1945Y25D02*
X1963Y25D01*
X1975Y25D02*
X1992Y25D01*
X2018Y25D02*
X2021Y25D01*
X2059Y25D02*
X2063Y25D01*
X2074Y25D02*
X2077Y25D01*
X2088Y25D02*
X2106Y25D01*
X2116Y25D02*
X2119Y25D01*
X2132Y25D02*
X2135Y25D01*
X2145Y25D02*
X2163Y25D01*
X2178Y25D02*
X2187Y25D01*
X1802Y24D02*
X1821Y24D01*
X1831Y24D02*
X1849Y24D01*
X1859Y24D02*
X1878Y24D01*
X1888Y24D02*
X1906Y24D01*
X1916Y24D02*
X1935Y24D01*
X1945Y24D02*
X1963Y24D01*
X1974Y24D02*
X1992Y24D01*
X2018Y24D02*
X2021Y24D01*
X2059Y24D02*
X2062Y24D01*
X2074Y24D02*
X2077Y24D01*
X2089Y24D02*
X2105Y24D01*
X2116Y24D02*
X2119Y24D01*
X2132Y24D02*
X2135Y24D01*
X2145Y24D02*
X2163Y24D01*
X2178Y24D02*
X2187Y24D01*
X1802Y23D02*
X1821Y23D01*
X1831Y23D02*
X1849Y23D01*
X1860Y23D02*
X1877Y23D01*
X1888Y23D02*
X1906Y23D01*
X1917Y23D02*
X1934Y23D01*
X1945Y23D02*
X1963Y23D01*
X1973Y23D02*
X1992Y23D01*
X2018Y23D02*
X2020Y23D01*
X2059Y23D02*
X2062Y23D01*
X2075Y23D02*
X2078Y23D01*
X2089Y23D02*
X2104Y23D01*
X2116Y23D02*
X2119Y23D01*
X2132Y23D02*
X2135Y23D01*
X2146Y23D02*
X2162Y23D01*
X2179Y23D02*
X2186Y23D01*
X1802Y22D02*
X1821Y22D01*
X1832Y22D02*
X1848Y22D01*
X1861Y22D02*
X1876Y22D01*
X1889Y22D02*
X1905Y22D01*
X1918Y22D02*
X1933Y22D01*
X1946Y22D02*
X1962Y22D01*
X1974Y22D02*
X1992Y22D01*
X2018Y22D02*
X2020Y22D01*
X2059Y22D02*
X2062Y22D01*
X2075Y22D02*
X2077Y22D01*
X2090Y22D02*
X2096Y22D01*
X2098Y22D02*
X2104Y22D01*
X2116Y22D02*
X2119Y22D01*
X2132Y22D02*
X2134Y22D01*
X2146Y22D02*
X2161Y22D01*
X2180Y22D02*
X2185Y22D01*
D02*
G04 End of Silk0*
M02*