; NON-PLATED HOLES START AT T1
; THROUGH (PLATED) HOLES START AT T100
M48
INCH
T1C0.078740
T100C0.023622
T101C0.035000
T102C0.038000
%
T1
X030705Y008844
X000704Y000844
X030705Y000844
X000704Y008844
T100
X015720Y001844
X014736Y001844
X016705Y001844
T101
X010705Y008344
X024705Y006844
X024705Y004344
X020705Y006844
X020705Y004344
X027145Y000844
X022645Y002616
X010705Y004344
X010705Y006844
X002145Y000844
X027145Y002616
X029705Y000844
X006705Y008344
X025205Y000844
X024705Y008344
X002145Y002616
X004705Y000844
X029705Y002616
X020705Y008344
X025205Y002616
X004705Y002616
X006705Y004344
X006705Y006844
X022645Y000844
T102
X015705Y006844
X016705Y006844
X017705Y006844
X026705Y006844
X027705Y006844
X018705Y006844
X003205Y006844
X012705Y006844
X028705Y006844
X004205Y006844
X013705Y006844
X005205Y006844
X014705Y006844
T00
M30
