G04 MADE WITH FRITZING*
G04 WWW.FRITZING.ORG*
G04 DOUBLE SIDED*
G04 HOLES PLATED*
G04 CONTOUR ON CENTER OF CONTOUR VECTOR*
%ASAXBY*%
%FSLAX23Y23*%
%MOIN*%
%OFA0B0*%
%SFA1.0B1.0*%
%ADD10C,0.008*%
%LNCONTOUR*%
G90*
G70*
G54D10*
X0Y984D02*
X0Y983D01*
X0Y1D01*
X1Y1D01*
X2Y1D01*
X3Y1D01*
X4Y1D01*
X5Y1D01*
X6Y1D01*
X7Y1D01*
X8Y1D01*
X9Y1D01*
X10Y1D01*
X11Y1D01*
X12Y1D01*
X13Y1D01*
X14Y1D01*
X15Y1D01*
X16Y1D01*
X17Y1D01*
X18Y1D01*
X19Y1D01*
X20Y1D01*
X21Y1D01*
X22Y1D01*
X23Y1D01*
X24Y1D01*
X25Y1D01*
X26Y1D01*
X27Y1D01*
X28Y1D01*
X29Y1D01*
X30Y1D01*
X31Y1D01*
X32Y1D01*
X33Y1D01*
X34Y1D01*
X35Y1D01*
X36Y1D01*
X37Y1D01*
X38Y1D01*
X39Y1D01*
X40Y1D01*
X41Y1D01*
X42Y1D01*
X43Y1D01*
X44Y1D01*
X45Y1D01*
X46Y1D01*
X47Y1D01*
X48Y1D01*
X49Y1D01*
X50Y1D01*
X51Y1D01*
X52Y1D01*
X53Y1D01*
X54Y1D01*
X55Y1D01*
X56Y1D01*
X57Y1D01*
X58Y1D01*
X59Y1D01*
X60Y1D01*
X61Y1D01*
X62Y1D01*
X63Y1D01*
X64Y1D01*
X65Y1D01*
X66Y1D01*
X67Y1D01*
X68Y1D01*
X69Y1D01*
X70Y1D01*
X71Y1D01*
X72Y1D01*
X73Y1D01*
X74Y1D01*
X75Y1D01*
X76Y1D01*
X77Y1D01*
X78Y1D01*
X79Y1D01*
X80Y1D01*
X81Y1D01*
X82Y1D01*
X83Y1D01*
X84Y1D01*
X85Y1D01*
X86Y1D01*
X87Y1D01*
X88Y1D01*
X89Y1D01*
X90Y1D01*
X91Y1D01*
X92Y1D01*
X93Y1D01*
X94Y1D01*
X95Y1D01*
X96Y1D01*
X97Y1D01*
X98Y1D01*
X99Y1D01*
X100Y1D01*
X101Y1D01*
X102Y1D01*
X103Y1D01*
X104Y1D01*
X105Y1D01*
X106Y1D01*
X107Y1D01*
X108Y1D01*
X109Y1D01*
X110Y1D01*
X111Y1D01*
X112Y1D01*
X113Y1D01*
X114Y1D01*
X115Y1D01*
X116Y1D01*
X117Y1D01*
X118Y1D01*
X119Y1D01*
X120Y1D01*
X121Y1D01*
X122Y1D01*
X123Y1D01*
X124Y1D01*
X125Y1D01*
X126Y1D01*
X127Y1D01*
X128Y1D01*
X129Y1D01*
X130Y1D01*
X131Y1D01*
X132Y1D01*
X133Y1D01*
X134Y1D01*
X135Y1D01*
X136Y1D01*
X137Y1D01*
X138Y1D01*
X139Y1D01*
X140Y1D01*
X141Y1D01*
X142Y1D01*
X143Y1D01*
X144Y1D01*
X145Y1D01*
X146Y1D01*
X147Y1D01*
X148Y1D01*
X149Y1D01*
X150Y1D01*
X151Y1D01*
X152Y1D01*
X153Y1D01*
X154Y1D01*
X155Y1D01*
X156Y1D01*
X157Y1D01*
X158Y1D01*
X159Y1D01*
X160Y1D01*
X161Y1D01*
X162Y1D01*
X163Y1D01*
X164Y1D01*
X165Y1D01*
X166Y1D01*
X167Y1D01*
X168Y1D01*
X169Y1D01*
X170Y1D01*
X171Y1D01*
X172Y1D01*
X173Y1D01*
X174Y1D01*
X175Y1D01*
X176Y1D01*
X177Y1D01*
X178Y1D01*
X179Y1D01*
X180Y1D01*
X181Y1D01*
X182Y1D01*
X183Y1D01*
X184Y1D01*
X185Y1D01*
X186Y1D01*
X187Y1D01*
X188Y1D01*
X189Y1D01*
X190Y1D01*
X191Y1D01*
X192Y1D01*
X193Y1D01*
X194Y1D01*
X195Y1D01*
X196Y1D01*
X197Y1D01*
X198Y1D01*
X199Y1D01*
X200Y1D01*
X201Y1D01*
X202Y1D01*
X203Y1D01*
X204Y1D01*
X205Y1D01*
X206Y1D01*
X207Y1D01*
X208Y1D01*
X209Y1D01*
X210Y1D01*
X211Y1D01*
X212Y1D01*
X213Y1D01*
X214Y1D01*
X215Y1D01*
X216Y1D01*
X217Y1D01*
X218Y1D01*
X219Y1D01*
X220Y1D01*
X221Y1D01*
X222Y1D01*
X223Y1D01*
X224Y1D01*
X225Y1D01*
X226Y1D01*
X227Y1D01*
X228Y1D01*
X229Y1D01*
X230Y1D01*
X231Y1D01*
X232Y1D01*
X233Y1D01*
X234Y1D01*
X235Y1D01*
X236Y1D01*
X237Y1D01*
X238Y1D01*
X239Y1D01*
X240Y1D01*
X241Y1D01*
X242Y1D01*
X243Y1D01*
X244Y1D01*
X245Y1D01*
X246Y1D01*
X247Y1D01*
X248Y1D01*
X249Y1D01*
X250Y1D01*
X251Y1D01*
X252Y1D01*
X253Y1D01*
X254Y1D01*
X255Y1D01*
X256Y1D01*
X257Y1D01*
X258Y1D01*
X259Y1D01*
X260Y1D01*
X261Y1D01*
X262Y1D01*
X263Y1D01*
X264Y1D01*
X265Y1D01*
X266Y1D01*
X267Y1D01*
X268Y1D01*
X269Y1D01*
X270Y1D01*
X271Y1D01*
X272Y1D01*
X273Y1D01*
X274Y1D01*
X275Y1D01*
X276Y1D01*
X277Y1D01*
X278Y1D01*
X279Y1D01*
X280Y1D01*
X281Y1D01*
X282Y1D01*
X283Y1D01*
X284Y1D01*
X285Y1D01*
X286Y1D01*
X287Y1D01*
X288Y1D01*
X289Y1D01*
X290Y1D01*
X291Y1D01*
X292Y1D01*
X293Y1D01*
X294Y1D01*
X295Y1D01*
X296Y1D01*
X297Y1D01*
X298Y1D01*
X299Y1D01*
X300Y1D01*
X301Y1D01*
X302Y1D01*
X303Y1D01*
X304Y1D01*
X305Y1D01*
X306Y1D01*
X307Y1D01*
X308Y1D01*
X309Y1D01*
X310Y1D01*
X311Y1D01*
X312Y1D01*
X313Y1D01*
X314Y1D01*
X315Y1D01*
X316Y1D01*
X317Y1D01*
X318Y1D01*
X319Y1D01*
X320Y1D01*
X321Y1D01*
X322Y1D01*
X323Y1D01*
X324Y1D01*
X325Y1D01*
X326Y1D01*
X327Y1D01*
X328Y1D01*
X329Y1D01*
X330Y1D01*
X331Y1D01*
X332Y1D01*
X333Y1D01*
X334Y1D01*
X335Y1D01*
X336Y1D01*
X337Y1D01*
X338Y1D01*
X339Y1D01*
X340Y1D01*
X341Y1D01*
X342Y1D01*
X343Y1D01*
X344Y1D01*
X345Y1D01*
X346Y1D01*
X347Y1D01*
X348Y1D01*
X349Y1D01*
X350Y1D01*
X351Y1D01*
X352Y1D01*
X353Y1D01*
X354Y1D01*
X355Y1D01*
X356Y1D01*
X357Y1D01*
X358Y1D01*
X359Y1D01*
X360Y1D01*
X361Y1D01*
X362Y1D01*
X363Y1D01*
X364Y1D01*
X365Y1D01*
X366Y1D01*
X367Y1D01*
X368Y1D01*
X369Y1D01*
X370Y1D01*
X371Y1D01*
X372Y1D01*
X373Y1D01*
X374Y1D01*
X375Y1D01*
X376Y1D01*
X377Y1D01*
X378Y1D01*
X379Y1D01*
X380Y1D01*
X381Y1D01*
X382Y1D01*
X383Y1D01*
X384Y1D01*
X385Y1D01*
X386Y1D01*
X387Y1D01*
X388Y1D01*
X389Y1D01*
X390Y1D01*
X391Y1D01*
X392Y1D01*
X393Y1D01*
X394Y1D01*
X395Y1D01*
X396Y1D01*
X397Y1D01*
X398Y1D01*
X399Y1D01*
X400Y1D01*
X401Y1D01*
X402Y1D01*
X403Y1D01*
X404Y1D01*
X405Y1D01*
X406Y1D01*
X407Y1D01*
X408Y1D01*
X409Y1D01*
X410Y1D01*
X411Y1D01*
X412Y1D01*
X413Y1D01*
X414Y1D01*
X415Y1D01*
X416Y1D01*
X417Y1D01*
X418Y1D01*
X419Y1D01*
X420Y1D01*
X421Y1D01*
X422Y1D01*
X423Y1D01*
X424Y1D01*
X425Y1D01*
X426Y1D01*
X427Y1D01*
X428Y1D01*
X429Y1D01*
X430Y1D01*
X431Y1D01*
X432Y1D01*
X433Y1D01*
X434Y1D01*
X435Y1D01*
X436Y1D01*
X437Y1D01*
X438Y1D01*
X439Y1D01*
X440Y1D01*
X441Y1D01*
X442Y1D01*
X443Y1D01*
X444Y1D01*
X445Y1D01*
X446Y1D01*
X447Y1D01*
X448Y1D01*
X449Y1D01*
X450Y1D01*
X451Y1D01*
X452Y1D01*
X453Y1D01*
X454Y1D01*
X455Y1D01*
X456Y1D01*
X457Y1D01*
X458Y1D01*
X459Y1D01*
X460Y1D01*
X461Y1D01*
X462Y1D01*
X463Y1D01*
X464Y1D01*
X465Y1D01*
X466Y1D01*
X467Y1D01*
X468Y1D01*
X469Y1D01*
X470Y1D01*
X471Y1D01*
X472Y1D01*
X473Y1D01*
X474Y1D01*
X475Y1D01*
X476Y1D01*
X477Y1D01*
X478Y1D01*
X479Y1D01*
X480Y1D01*
X481Y1D01*
X482Y1D01*
X483Y1D01*
X484Y1D01*
X485Y1D01*
X486Y1D01*
X487Y1D01*
X488Y1D01*
X489Y1D01*
X490Y1D01*
X491Y1D01*
X492Y1D01*
X493Y1D01*
X494Y1D01*
X495Y1D01*
X496Y1D01*
X497Y1D01*
X498Y1D01*
X499Y1D01*
X500Y1D01*
X501Y1D01*
X502Y1D01*
X503Y1D01*
X504Y1D01*
X505Y1D01*
X506Y1D01*
X507Y1D01*
X508Y1D01*
X509Y1D01*
X510Y1D01*
X511Y1D01*
X512Y1D01*
X513Y1D01*
X514Y1D01*
X515Y1D01*
X516Y1D01*
X517Y1D01*
X518Y1D01*
X519Y1D01*
X520Y1D01*
X521Y1D01*
X522Y1D01*
X523Y1D01*
X524Y1D01*
X525Y1D01*
X526Y1D01*
X527Y1D01*
X528Y1D01*
X529Y1D01*
X530Y1D01*
X531Y1D01*
X532Y1D01*
X533Y1D01*
X534Y1D01*
X535Y1D01*
X536Y1D01*
X537Y1D01*
X538Y1D01*
X539Y1D01*
X540Y1D01*
X541Y1D01*
X542Y1D01*
X543Y1D01*
X544Y1D01*
X545Y1D01*
X546Y1D01*
X547Y1D01*
X548Y1D01*
X549Y1D01*
X550Y1D01*
X551Y1D01*
X552Y1D01*
X553Y1D01*
X554Y1D01*
X555Y1D01*
X556Y1D01*
X557Y1D01*
X558Y1D01*
X559Y1D01*
X560Y1D01*
X561Y1D01*
X562Y1D01*
X563Y1D01*
X564Y1D01*
X565Y1D01*
X566Y1D01*
X567Y1D01*
X568Y1D01*
X569Y1D01*
X570Y1D01*
X571Y1D01*
X572Y1D01*
X573Y1D01*
X574Y1D01*
X575Y1D01*
X576Y1D01*
X577Y1D01*
X578Y1D01*
X579Y1D01*
X580Y1D01*
X581Y1D01*
X582Y1D01*
X583Y1D01*
X584Y1D01*
X585Y1D01*
X586Y1D01*
X587Y1D01*
X588Y1D01*
X589Y1D01*
X590Y1D01*
X591Y1D01*
X592Y1D01*
X593Y1D01*
X594Y1D01*
X595Y1D01*
X596Y1D01*
X597Y1D01*
X598Y1D01*
X599Y1D01*
X600Y1D01*
X601Y1D01*
X602Y1D01*
X603Y1D01*
X604Y1D01*
X605Y1D01*
X606Y1D01*
X607Y1D01*
X608Y1D01*
X609Y1D01*
X610Y1D01*
X611Y1D01*
X612Y1D01*
X613Y1D01*
X614Y1D01*
X615Y1D01*
X616Y1D01*
X617Y1D01*
X618Y1D01*
X619Y1D01*
X620Y1D01*
X621Y1D01*
X622Y1D01*
X623Y1D01*
X624Y1D01*
X625Y1D01*
X626Y1D01*
X627Y1D01*
X628Y1D01*
X629Y1D01*
X630Y1D01*
X631Y1D01*
X632Y1D01*
X633Y1D01*
X634Y1D01*
X635Y1D01*
X636Y1D01*
X637Y1D01*
X638Y1D01*
X639Y1D01*
X640Y1D01*
X641Y1D01*
X642Y1D01*
X643Y1D01*
X644Y1D01*
X645Y1D01*
X646Y1D01*
X647Y1D01*
X648Y1D01*
X649Y1D01*
X650Y1D01*
X651Y1D01*
X652Y1D01*
X653Y1D01*
X654Y1D01*
X655Y1D01*
X656Y1D01*
X657Y1D01*
X658Y1D01*
X659Y1D01*
X660Y1D01*
X661Y1D01*
X662Y1D01*
X663Y1D01*
X664Y1D01*
X665Y1D01*
X666Y1D01*
X667Y1D01*
X668Y1D01*
X669Y1D01*
X670Y1D01*
X671Y1D01*
X672Y1D01*
X673Y1D01*
X674Y1D01*
X675Y1D01*
X676Y1D01*
X677Y1D01*
X678Y1D01*
X679Y1D01*
X680Y1D01*
X681Y1D01*
X682Y1D01*
X683Y1D01*
X684Y1D01*
X685Y1D01*
X686Y1D01*
X687Y1D01*
X688Y1D01*
X689Y1D01*
X690Y1D01*
X691Y1D01*
X692Y1D01*
X693Y1D01*
X694Y1D01*
X695Y1D01*
X696Y1D01*
X697Y1D01*
X698Y1D01*
X699Y1D01*
X700Y1D01*
X701Y1D01*
X702Y1D01*
X703Y1D01*
X704Y1D01*
X705Y1D01*
X706Y1D01*
X707Y1D01*
X708Y1D01*
X709Y1D01*
X710Y1D01*
X711Y1D01*
X712Y1D01*
X713Y1D01*
X714Y1D01*
X715Y1D01*
X716Y1D01*
X717Y1D01*
X718Y1D01*
X719Y1D01*
X720Y1D01*
X721Y1D01*
X722Y1D01*
X723Y1D01*
X724Y1D01*
X725Y1D01*
X726Y1D01*
X727Y1D01*
X728Y1D01*
X729Y1D01*
X730Y1D01*
X731Y1D01*
X732Y1D01*
X733Y1D01*
X734Y1D01*
X735Y1D01*
X736Y1D01*
X737Y1D01*
X738Y1D01*
X739Y1D01*
X740Y1D01*
X741Y1D01*
X742Y1D01*
X743Y1D01*
X744Y1D01*
X745Y1D01*
X746Y1D01*
X747Y1D01*
X748Y1D01*
X749Y1D01*
X750Y1D01*
X751Y1D01*
X752Y1D01*
X753Y1D01*
X754Y1D01*
X755Y1D01*
X756Y1D01*
X757Y1D01*
X758Y1D01*
X759Y1D01*
X760Y1D01*
X761Y1D01*
X762Y1D01*
X763Y1D01*
X764Y1D01*
X765Y1D01*
X766Y1D01*
X767Y1D01*
X768Y1D01*
X769Y1D01*
X770Y1D01*
X771Y1D01*
X772Y1D01*
X773Y1D01*
X774Y1D01*
X775Y1D01*
X776Y1D01*
X777Y1D01*
X778Y1D01*
X779Y1D01*
X780Y1D01*
X781Y1D01*
X782Y1D01*
X783Y1D01*
X784Y1D01*
X785Y1D01*
X786Y1D01*
X787Y1D01*
X788Y1D01*
X789Y1D01*
X790Y1D01*
X791Y1D01*
X792Y1D01*
X793Y1D01*
X794Y1D01*
X795Y1D01*
X796Y1D01*
X797Y1D01*
X798Y1D01*
X799Y1D01*
X800Y1D01*
X801Y1D01*
X802Y1D01*
X803Y1D01*
X804Y1D01*
X805Y1D01*
X806Y1D01*
X807Y1D01*
X808Y1D01*
X809Y1D01*
X810Y1D01*
X811Y1D01*
X812Y1D01*
X813Y1D01*
X814Y1D01*
X815Y1D01*
X816Y1D01*
X817Y1D01*
X818Y1D01*
X819Y1D01*
X820Y1D01*
X821Y1D01*
X822Y1D01*
X823Y1D01*
X824Y1D01*
X825Y1D01*
X826Y1D01*
X827Y1D01*
X828Y1D01*
X829Y1D01*
X830Y1D01*
X831Y1D01*
X832Y1D01*
X833Y1D01*
X834Y1D01*
X835Y1D01*
X836Y1D01*
X837Y1D01*
X838Y1D01*
X839Y1D01*
X840Y1D01*
X841Y1D01*
X842Y1D01*
X843Y1D01*
X844Y1D01*
X845Y1D01*
X846Y1D01*
X847Y1D01*
X848Y1D01*
X849Y1D01*
X850Y1D01*
X851Y1D01*
X852Y1D01*
X853Y1D01*
X854Y1D01*
X855Y1D01*
X856Y1D01*
X857Y1D01*
X858Y1D01*
X859Y1D01*
X860Y1D01*
X861Y1D01*
X862Y1D01*
X863Y1D01*
X864Y1D01*
X865Y1D01*
X866Y1D01*
X867Y1D01*
X868Y1D01*
X869Y1D01*
X870Y1D01*
X871Y1D01*
X872Y1D01*
X873Y1D01*
X874Y1D01*
X875Y1D01*
X876Y1D01*
X877Y1D01*
X878Y1D01*
X879Y1D01*
X880Y1D01*
X881Y1D01*
X882Y1D01*
X883Y1D01*
X884Y1D01*
X885Y1D01*
X886Y1D01*
X887Y1D01*
X888Y1D01*
X889Y1D01*
X890Y1D01*
X891Y1D01*
X892Y1D01*
X893Y1D01*
X894Y1D01*
X895Y1D01*
X896Y1D01*
X897Y1D01*
X898Y1D01*
X899Y1D01*
X900Y1D01*
X901Y1D01*
X902Y1D01*
X903Y1D01*
X904Y1D01*
X905Y1D01*
X906Y1D01*
X907Y1D01*
X908Y1D01*
X909Y1D01*
X910Y1D01*
X911Y1D01*
X912Y1D01*
X913Y1D01*
X914Y1D01*
X915Y1D01*
X916Y1D01*
X917Y1D01*
X918Y1D01*
X919Y1D01*
X920Y1D01*
X921Y1D01*
X922Y1D01*
X923Y1D01*
X924Y1D01*
X925Y1D01*
X926Y1D01*
X927Y1D01*
X928Y1D01*
X929Y1D01*
X930Y1D01*
X931Y1D01*
X932Y1D01*
X933Y1D01*
X934Y1D01*
X935Y1D01*
X936Y1D01*
X937Y1D01*
X938Y1D01*
X939Y1D01*
X940Y1D01*
X941Y1D01*
X942Y1D01*
X943Y1D01*
X944Y1D01*
X945Y1D01*
X946Y1D01*
X947Y1D01*
X948Y1D01*
X949Y1D01*
X950Y1D01*
X951Y1D01*
X952Y1D01*
X953Y1D01*
X954Y1D01*
X955Y1D01*
X956Y1D01*
X957Y1D01*
X958Y1D01*
X959Y1D01*
X960Y1D01*
X961Y1D01*
X962Y1D01*
X963Y1D01*
X964Y1D01*
X965Y1D01*
X966Y1D01*
X967Y1D01*
X968Y1D01*
X969Y1D01*
X970Y1D01*
X971Y1D01*
X972Y1D01*
X973Y1D01*
X974Y1D01*
X975Y1D01*
X976Y1D01*
X977Y1D01*
X978Y1D01*
X979Y1D01*
X980Y1D01*
X981Y1D01*
X982Y1D01*
X983Y1D01*
X984Y1D01*
X985Y1D01*
X986Y1D01*
X987Y1D01*
X988Y1D01*
X989Y1D01*
X990Y1D01*
X991Y1D01*
X992Y1D01*
X993Y1D01*
X994Y1D01*
X995Y1D01*
X996Y1D01*
X997Y1D01*
X998Y1D01*
X999Y1D01*
X1000Y1D01*
X1001Y1D01*
X1002Y1D01*
X1003Y1D01*
X1004Y1D01*
X1005Y1D01*
X1006Y1D01*
X1007Y1D01*
X1008Y1D01*
X1009Y1D01*
X1010Y1D01*
X1011Y1D01*
X1012Y1D01*
X1013Y1D01*
X1014Y1D01*
X1015Y1D01*
X1016Y1D01*
X1017Y1D01*
X1018Y1D01*
X1019Y1D01*
X1020Y1D01*
X1021Y1D01*
X1022Y1D01*
X1023Y1D01*
X1024Y1D01*
X1025Y1D01*
X1026Y1D01*
X1027Y1D01*
X1028Y1D01*
X1029Y1D01*
X1030Y1D01*
X1031Y1D01*
X1032Y1D01*
X1033Y1D01*
X1034Y1D01*
X1035Y1D01*
X1036Y1D01*
X1037Y1D01*
X1038Y1D01*
X1039Y1D01*
X1040Y1D01*
X1041Y1D01*
X1042Y1D01*
X1043Y1D01*
X1044Y1D01*
X1045Y1D01*
X1046Y1D01*
X1047Y1D01*
X1048Y1D01*
X1049Y1D01*
X1050Y1D01*
X1051Y1D01*
X1052Y1D01*
X1053Y1D01*
X1054Y1D01*
X1055Y1D01*
X1056Y1D01*
X1057Y1D01*
X1058Y1D01*
X1059Y1D01*
X1060Y1D01*
X1061Y1D01*
X1062Y1D01*
X1063Y1D01*
X1064Y1D01*
X1065Y1D01*
X1066Y1D01*
X1067Y1D01*
X1068Y1D01*
X1069Y1D01*
X1070Y1D01*
X1071Y1D01*
X1072Y1D01*
X1073Y1D01*
X1074Y1D01*
X1075Y1D01*
X1076Y1D01*
X1077Y1D01*
X1078Y1D01*
X1079Y1D01*
X1080Y1D01*
X1081Y1D01*
X1082Y1D01*
X1083Y1D01*
X1084Y1D01*
X1085Y1D01*
X1086Y1D01*
X1087Y1D01*
X1088Y1D01*
X1089Y1D01*
X1090Y1D01*
X1091Y1D01*
X1092Y1D01*
X1093Y1D01*
X1094Y1D01*
X1095Y1D01*
X1096Y1D01*
X1097Y1D01*
X1098Y1D01*
X1099Y1D01*
X1100Y1D01*
X1101Y1D01*
X1102Y1D01*
X1103Y1D01*
X1104Y1D01*
X1105Y1D01*
X1106Y1D01*
X1107Y1D01*
X1108Y1D01*
X1109Y1D01*
X1110Y1D01*
X1111Y1D01*
X1112Y1D01*
X1113Y1D01*
X1114Y1D01*
X1115Y1D01*
X1116Y1D01*
X1117Y1D01*
X1118Y1D01*
X1119Y1D01*
X1120Y1D01*
X1121Y1D01*
X1122Y1D01*
X1123Y1D01*
X1124Y1D01*
X1125Y1D01*
X1126Y1D01*
X1127Y1D01*
X1128Y1D01*
X1129Y1D01*
X1130Y1D01*
X1131Y1D01*
X1132Y1D01*
X1133Y1D01*
X1134Y1D01*
X1135Y1D01*
X1136Y1D01*
X1137Y1D01*
X1138Y1D01*
X1139Y1D01*
X1140Y1D01*
X1141Y1D01*
X1142Y1D01*
X1143Y1D01*
X1144Y1D01*
X1145Y1D01*
X1146Y1D01*
X1147Y1D01*
X1148Y1D01*
X1149Y1D01*
X1150Y1D01*
X1151Y1D01*
X1152Y1D01*
X1153Y1D01*
X1154Y1D01*
X1155Y1D01*
X1156Y1D01*
X1157Y1D01*
X1158Y1D01*
X1159Y1D01*
X1160Y1D01*
X1161Y1D01*
X1162Y1D01*
X1163Y1D01*
X1164Y1D01*
X1165Y1D01*
X1166Y1D01*
X1167Y1D01*
X1168Y1D01*
X1169Y1D01*
X1170Y1D01*
X1171Y1D01*
X1172Y1D01*
X1173Y1D01*
X1174Y1D01*
X1175Y1D01*
X1176Y1D01*
X1177Y1D01*
X1178Y1D01*
X1179Y1D01*
X1180Y1D01*
X1181Y1D01*
X1182Y1D01*
X1183Y1D01*
X1184Y1D01*
X1185Y1D01*
X1186Y1D01*
X1187Y1D01*
X1188Y1D01*
X1189Y1D01*
X1190Y1D01*
X1191Y1D01*
X1192Y1D01*
X1193Y1D01*
X1194Y1D01*
X1195Y1D01*
X1196Y1D01*
X1197Y1D01*
X1198Y1D01*
X1199Y1D01*
X1200Y1D01*
X1201Y1D01*
X1202Y1D01*
X1203Y1D01*
X1204Y1D01*
X1205Y1D01*
X1206Y1D01*
X1207Y1D01*
X1208Y1D01*
X1209Y1D01*
X1210Y1D01*
X1211Y1D01*
X1212Y1D01*
X1213Y1D01*
X1214Y1D01*
X1215Y1D01*
X1216Y1D01*
X1217Y1D01*
X1218Y1D01*
X1219Y1D01*
X1220Y1D01*
X1221Y1D01*
X1222Y1D01*
X1223Y1D01*
X1224Y1D01*
X1225Y1D01*
X1226Y1D01*
X1227Y1D01*
X1228Y1D01*
X1229Y1D01*
X1230Y1D01*
X1231Y1D01*
X1232Y1D01*
X1233Y1D01*
X1234Y1D01*
X1235Y1D01*
X1236Y1D01*
X1237Y1D01*
X1238Y1D01*
X1239Y1D01*
X1240Y1D01*
X1241Y1D01*
X1242Y1D01*
X1243Y1D01*
X1244Y1D01*
X1245Y1D01*
X1246Y1D01*
X1247Y1D01*
X1248Y1D01*
X1249Y1D01*
X1250Y1D01*
X1251Y1D01*
X1252Y1D01*
X1253Y1D01*
X1254Y1D01*
X1255Y1D01*
X1256Y1D01*
X1257Y1D01*
X1258Y1D01*
X1259Y1D01*
X1260Y1D01*
X1261Y1D01*
X1262Y1D01*
X1263Y1D01*
X1264Y1D01*
X1265Y1D01*
X1266Y1D01*
X1267Y1D01*
X1268Y1D01*
X1269Y1D01*
X1270Y1D01*
X1271Y1D01*
X1272Y1D01*
X1273Y1D01*
X1274Y1D01*
X1275Y1D01*
X1276Y1D01*
X1277Y1D01*
X1278Y1D01*
X1279Y1D01*
X1280Y1D01*
X1281Y1D01*
X1282Y1D01*
X1283Y1D01*
X1284Y1D01*
X1285Y1D01*
X1286Y1D01*
X1287Y1D01*
X1288Y1D01*
X1289Y1D01*
X1290Y1D01*
X1291Y1D01*
X1292Y1D01*
X1293Y1D01*
X1294Y1D01*
X1295Y1D01*
X1296Y1D01*
X1297Y1D01*
X1298Y1D01*
X1299Y1D01*
X1300Y1D01*
X1301Y1D01*
X1302Y1D01*
X1303Y1D01*
X1304Y1D01*
X1305Y1D01*
X1306Y1D01*
X1307Y1D01*
X1308Y1D01*
X1309Y1D01*
X1310Y1D01*
X1311Y1D01*
X1312Y1D01*
X1313Y1D01*
X1314Y1D01*
X1315Y1D01*
X1316Y1D01*
X1317Y1D01*
X1318Y1D01*
X1319Y1D01*
X1320Y1D01*
X1321Y1D01*
X1322Y1D01*
X1323Y1D01*
X1324Y1D01*
X1325Y1D01*
X1326Y1D01*
X1327Y1D01*
X1328Y1D01*
X1329Y1D01*
X1330Y1D01*
X1331Y1D01*
X1332Y1D01*
X1333Y1D01*
X1334Y1D01*
X1335Y1D01*
X1336Y1D01*
X1337Y1D01*
X1338Y1D01*
X1339Y1D01*
X1340Y1D01*
X1341Y1D01*
X1342Y1D01*
X1343Y1D01*
X1344Y1D01*
X1345Y1D01*
X1346Y1D01*
X1347Y1D01*
X1348Y1D01*
X1349Y1D01*
X1350Y1D01*
X1351Y1D01*
X1352Y1D01*
X1353Y1D01*
X1354Y1D01*
X1355Y1D01*
X1356Y1D01*
X1357Y1D01*
X1358Y1D01*
X1359Y1D01*
X1360Y1D01*
X1361Y1D01*
X1362Y1D01*
X1363Y1D01*
X1364Y1D01*
X1365Y1D01*
X1366Y1D01*
X1367Y1D01*
X1368Y1D01*
X1369Y1D01*
X1370Y1D01*
X1371Y1D01*
X1372Y1D01*
X1373Y1D01*
X1374Y1D01*
X1375Y1D01*
X1376Y1D01*
X1377Y1D01*
X1378Y1D01*
X1379Y1D01*
X1380Y1D01*
X1381Y1D01*
X1382Y1D01*
X1383Y1D01*
X1384Y1D01*
X1385Y1D01*
X1386Y1D01*
X1387Y1D01*
X1388Y1D01*
X1389Y1D01*
X1390Y1D01*
X1391Y1D01*
X1392Y1D01*
X1393Y1D01*
X1394Y1D01*
X1395Y1D01*
X1396Y1D01*
X1397Y1D01*
X1398Y1D01*
X1399Y1D01*
X1400Y1D01*
X1401Y1D01*
X1402Y1D01*
X1403Y1D01*
X1404Y1D01*
X1405Y1D01*
X1406Y1D01*
X1407Y1D01*
X1408Y1D01*
X1409Y1D01*
X1410Y1D01*
X1411Y1D01*
X1412Y1D01*
X1413Y1D01*
X1414Y1D01*
X1415Y1D01*
X1416Y1D01*
X1417Y1D01*
X1418Y1D01*
X1419Y1D01*
X1420Y1D01*
X1421Y1D01*
X1422Y1D01*
X1423Y1D01*
X1424Y1D01*
X1425Y1D01*
X1426Y1D01*
X1427Y1D01*
X1428Y1D01*
X1429Y1D01*
X1430Y1D01*
X1431Y1D01*
X1432Y1D01*
X1433Y1D01*
X1434Y1D01*
X1435Y1D01*
X1436Y1D01*
X1437Y1D01*
X1438Y1D01*
X1439Y1D01*
X1440Y1D01*
X1441Y1D01*
X1442Y1D01*
X1443Y1D01*
X1444Y1D01*
X1445Y1D01*
X1446Y1D01*
X1447Y1D01*
X1448Y1D01*
X1449Y1D01*
X1450Y1D01*
X1451Y1D01*
X1452Y1D01*
X1453Y1D01*
X1454Y1D01*
X1455Y1D01*
X1456Y1D01*
X1457Y1D01*
X1458Y1D01*
X1459Y1D01*
X1460Y1D01*
X1461Y1D01*
X1462Y1D01*
X1463Y1D01*
X1464Y1D01*
X1465Y1D01*
X1466Y1D01*
X1467Y1D01*
X1468Y1D01*
X1469Y1D01*
X1470Y1D01*
X1471Y1D01*
X1472Y1D01*
X1473Y1D01*
X1474Y1D01*
X1475Y1D01*
X1476Y1D01*
X1477Y1D01*
X1478Y1D01*
X1479Y1D01*
X1480Y1D01*
X1481Y1D01*
X1482Y1D01*
X1483Y1D01*
X1484Y1D01*
X1485Y1D01*
X1486Y1D01*
X1487Y1D01*
X1488Y1D01*
X1489Y1D01*
X1490Y1D01*
X1491Y1D01*
X1492Y1D01*
X1493Y1D01*
X1494Y1D01*
X1495Y1D01*
X1496Y1D01*
X1497Y1D01*
X1498Y1D01*
X1499Y1D01*
X1500Y1D01*
X1501Y1D01*
X1502Y1D01*
X1503Y1D01*
X1504Y1D01*
X1505Y1D01*
X1506Y1D01*
X1507Y1D01*
X1508Y1D01*
X1509Y1D01*
X1510Y1D01*
X1511Y1D01*
X1512Y1D01*
X1513Y1D01*
X1514Y1D01*
X1515Y1D01*
X1516Y1D01*
X1517Y1D01*
X1518Y1D01*
X1519Y1D01*
X1520Y1D01*
X1521Y1D01*
X1522Y1D01*
X1523Y1D01*
X1524Y1D01*
X1525Y1D01*
X1526Y1D01*
X1527Y1D01*
X1528Y1D01*
X1529Y1D01*
X1530Y1D01*
X1531Y1D01*
X1532Y1D01*
X1533Y1D01*
X1534Y1D01*
X1535Y1D01*
X1536Y1D01*
X1537Y1D01*
X1538Y1D01*
X1539Y1D01*
X1540Y1D01*
X1541Y1D01*
X1542Y1D01*
X1543Y1D01*
X1544Y1D01*
X1545Y1D01*
X1546Y1D01*
X1547Y1D01*
X1548Y1D01*
X1549Y1D01*
X1550Y1D01*
X1551Y1D01*
X1552Y1D01*
X1553Y1D01*
X1554Y1D01*
X1555Y1D01*
X1556Y1D01*
X1557Y1D01*
X1558Y1D01*
X1559Y1D01*
X1560Y1D01*
X1561Y1D01*
X1562Y1D01*
X1563Y1D01*
X1564Y1D01*
X1565Y1D01*
X1566Y1D01*
X1567Y1D01*
X1568Y1D01*
X1569Y1D01*
X1570Y1D01*
X1571Y1D01*
X1572Y1D01*
X1573Y1D01*
X1574Y1D01*
X1575Y1D01*
X1576Y1D01*
X1577Y1D01*
X1578Y1D01*
X1579Y1D01*
X1580Y1D01*
X1581Y1D01*
X1582Y1D01*
X1583Y1D01*
X1584Y1D01*
X1585Y1D01*
X1586Y1D01*
X1587Y1D01*
X1588Y1D01*
X1589Y1D01*
X1590Y1D01*
X1591Y1D01*
X1592Y1D01*
X1593Y1D01*
X1594Y1D01*
X1595Y1D01*
X1596Y1D01*
X1597Y1D01*
X1598Y1D01*
X1599Y1D01*
X1600Y1D01*
X1601Y1D01*
X1602Y1D01*
X1603Y1D01*
X1604Y1D01*
X1605Y1D01*
X1606Y1D01*
X1607Y1D01*
X1608Y1D01*
X1609Y1D01*
X1610Y1D01*
X1611Y1D01*
X1612Y1D01*
X1613Y1D01*
X1614Y1D01*
X1615Y1D01*
X1616Y1D01*
X1617Y1D01*
X1618Y1D01*
X1619Y1D01*
X1620Y1D01*
X1621Y1D01*
X1622Y1D01*
X1623Y1D01*
X1624Y1D01*
X1625Y1D01*
X1626Y1D01*
X1627Y1D01*
X1628Y1D01*
X1629Y1D01*
X1630Y1D01*
X1631Y1D01*
X1632Y1D01*
X1633Y1D01*
X1634Y1D01*
X1635Y1D01*
X1636Y1D01*
X1637Y1D01*
X1638Y1D01*
X1639Y1D01*
X1640Y1D01*
X1641Y1D01*
X1642Y1D01*
X1643Y1D01*
X1644Y1D01*
X1645Y1D01*
X1646Y1D01*
X1647Y1D01*
X1648Y1D01*
X1649Y1D01*
X1650Y1D01*
X1651Y1D01*
X1652Y1D01*
X1653Y1D01*
X1654Y1D01*
X1655Y1D01*
X1656Y1D01*
X1657Y1D01*
X1658Y1D01*
X1659Y1D01*
X1660Y1D01*
X1661Y1D01*
X1662Y1D01*
X1663Y1D01*
X1664Y1D01*
X1665Y1D01*
X1666Y1D01*
X1667Y1D01*
X1668Y1D01*
X1669Y1D01*
X1670Y1D01*
X1671Y1D01*
X1672Y1D01*
X1673Y1D01*
X1674Y1D01*
X1675Y1D01*
X1676Y1D01*
X1677Y1D01*
X1678Y1D01*
X1679Y1D01*
X1680Y1D01*
X1681Y1D01*
X1682Y1D01*
X1683Y1D01*
X1684Y1D01*
X1685Y1D01*
X1686Y1D01*
X1687Y1D01*
X1688Y1D01*
X1689Y1D01*
X1690Y1D01*
X1691Y1D01*
X1692Y1D01*
X1693Y1D01*
X1694Y1D01*
X1695Y1D01*
X1696Y1D01*
X1697Y1D01*
X1698Y1D01*
X1699Y1D01*
X1700Y1D01*
X1701Y1D01*
X1702Y1D01*
X1703Y1D01*
X1704Y1D01*
X1705Y1D01*
X1706Y1D01*
X1707Y1D01*
X1708Y1D01*
X1709Y1D01*
X1710Y1D01*
X1711Y1D01*
X1712Y1D01*
X1713Y1D01*
X1714Y1D01*
X1715Y1D01*
X1716Y1D01*
X1717Y1D01*
X1718Y1D01*
X1719Y1D01*
X1720Y1D01*
X1721Y1D01*
X1722Y1D01*
X1723Y1D01*
X1724Y1D01*
X1725Y1D01*
X1726Y1D01*
X1727Y1D01*
X1728Y1D01*
X1729Y1D01*
X1730Y1D01*
X1731Y1D01*
X1732Y1D01*
X1733Y1D01*
X1734Y1D01*
X1735Y1D01*
X1736Y1D01*
X1737Y1D01*
X1738Y1D01*
X1739Y1D01*
X1740Y1D01*
X1741Y1D01*
X1742Y1D01*
X1743Y1D01*
X1744Y1D01*
X1745Y1D01*
X1746Y1D01*
X1747Y1D01*
X1748Y1D01*
X1749Y1D01*
X1750Y1D01*
X1751Y1D01*
X1752Y1D01*
X1753Y1D01*
X1754Y1D01*
X1755Y1D01*
X1756Y1D01*
X1757Y1D01*
X1758Y1D01*
X1759Y1D01*
X1760Y1D01*
X1761Y1D01*
X1762Y1D01*
X1763Y1D01*
X1764Y1D01*
X1765Y1D01*
X1766Y1D01*
X1767Y1D01*
X1768Y1D01*
X1769Y1D01*
X1770Y1D01*
X1771Y1D01*
X1772Y1D01*
X1773Y1D01*
X1774Y1D01*
X1775Y1D01*
X1776Y1D01*
X1777Y1D01*
X1778Y1D01*
X1779Y1D01*
X1780Y1D01*
X1781Y1D01*
X1782Y1D01*
X1783Y1D01*
X1784Y1D01*
X1785Y1D01*
X1786Y1D01*
X1787Y1D01*
X1788Y1D01*
X1789Y1D01*
X1790Y1D01*
X1791Y1D01*
X1792Y1D01*
X1793Y1D01*
X1794Y1D01*
X1795Y1D01*
X1796Y1D01*
X1797Y1D01*
X1798Y1D01*
X1799Y1D01*
X1800Y1D01*
X1801Y1D01*
X1802Y1D01*
X1803Y1D01*
X1804Y1D01*
X1805Y1D01*
X1806Y1D01*
X1807Y1D01*
X1808Y1D01*
X1809Y1D01*
X1810Y1D01*
X1811Y1D01*
X1812Y1D01*
X1813Y1D01*
X1814Y1D01*
X1815Y1D01*
X1816Y1D01*
X1817Y1D01*
X1818Y1D01*
X1819Y1D01*
X1820Y1D01*
X1821Y1D01*
X1822Y1D01*
X1823Y1D01*
X1824Y1D01*
X1825Y1D01*
X1826Y1D01*
X1827Y1D01*
X1828Y1D01*
X1829Y1D01*
X1830Y1D01*
X1831Y1D01*
X1832Y1D01*
X1833Y1D01*
X1834Y1D01*
X1835Y1D01*
X1836Y1D01*
X1837Y1D01*
X1838Y1D01*
X1839Y1D01*
X1840Y1D01*
X1841Y1D01*
X1842Y1D01*
X1843Y1D01*
X1844Y1D01*
X1845Y1D01*
X1846Y1D01*
X1847Y1D01*
X1848Y1D01*
X1849Y1D01*
X1850Y1D01*
X1851Y1D01*
X1852Y1D01*
X1853Y1D01*
X1854Y1D01*
X1855Y1D01*
X1856Y1D01*
X1857Y1D01*
X1858Y1D01*
X1859Y1D01*
X1860Y1D01*
X1861Y1D01*
X1862Y1D01*
X1863Y1D01*
X1864Y1D01*
X1865Y1D01*
X1866Y1D01*
X1867Y1D01*
X1868Y1D01*
X1869Y1D01*
X1870Y1D01*
X1871Y1D01*
X1872Y1D01*
X1873Y1D01*
X1874Y1D01*
X1875Y1D01*
X1876Y1D01*
X1877Y1D01*
X1878Y1D01*
X1879Y1D01*
X1880Y1D01*
X1881Y1D01*
X1882Y1D01*
X1883Y1D01*
X1884Y1D01*
X1885Y1D01*
X1886Y1D01*
X1887Y1D01*
X1888Y1D01*
X1889Y1D01*
X1890Y1D01*
X1891Y1D01*
X1892Y1D01*
X1893Y1D01*
X1894Y1D01*
X1895Y1D01*
X1896Y1D01*
X1897Y1D01*
X1898Y1D01*
X1899Y1D01*
X1900Y1D01*
X1901Y1D01*
X1902Y1D01*
X1903Y1D01*
X1904Y1D01*
X1905Y1D01*
X1906Y1D01*
X1907Y1D01*
X1908Y1D01*
X1909Y1D01*
X1910Y1D01*
X1911Y1D01*
X1912Y1D01*
X1913Y1D01*
X1914Y1D01*
X1915Y1D01*
X1916Y1D01*
X1917Y1D01*
X1918Y1D01*
X1919Y1D01*
X1920Y1D01*
X1921Y1D01*
X1922Y1D01*
X1923Y1D01*
X1924Y1D01*
X1925Y1D01*
X1926Y1D01*
X1927Y1D01*
X1928Y1D01*
X1929Y1D01*
X1930Y1D01*
X1931Y1D01*
X1932Y1D01*
X1933Y1D01*
X1934Y1D01*
X1935Y1D01*
X1936Y1D01*
X1937Y1D01*
X1938Y1D01*
X1939Y1D01*
X1940Y1D01*
X1941Y1D01*
X1942Y1D01*
X1943Y1D01*
X1944Y1D01*
X1945Y1D01*
X1946Y1D01*
X1947Y1D01*
X1948Y1D01*
X1949Y1D01*
X1950Y1D01*
X1951Y1D01*
X1952Y1D01*
X1953Y1D01*
X1954Y1D01*
X1955Y1D01*
X1956Y1D01*
X1957Y1D01*
X1958Y1D01*
X1959Y1D01*
X1960Y1D01*
X1961Y1D01*
X1962Y1D01*
X1963Y1D01*
X1964Y1D01*
X1965Y1D01*
X1966Y1D01*
X1967Y1D01*
X1968Y1D01*
X1969Y1D01*
X1970Y1D01*
X1971Y1D01*
X1972Y1D01*
X1973Y1D01*
X1974Y1D01*
X1975Y1D01*
X1976Y1D01*
X1977Y1D01*
X1978Y1D01*
X1979Y1D01*
X1980Y1D01*
X1981Y1D01*
X1982Y1D01*
X1983Y1D01*
X1984Y1D01*
X1985Y1D01*
X1986Y1D01*
X1987Y1D01*
X1988Y1D01*
X1989Y1D01*
X1990Y1D01*
X1991Y1D01*
X1992Y1D01*
X1993Y1D01*
X1994Y1D01*
X1995Y1D01*
X1996Y1D01*
X1997Y1D01*
X1998Y1D01*
X1999Y1D01*
X2000Y1D01*
X2001Y1D01*
X2002Y1D01*
X2003Y1D01*
X2004Y1D01*
X2005Y1D01*
X2006Y1D01*
X2007Y1D01*
X2008Y1D01*
X2009Y1D01*
X2010Y1D01*
X2011Y1D01*
X2012Y1D01*
X2013Y1D01*
X2014Y1D01*
X2015Y1D01*
X2016Y1D01*
X2017Y1D01*
X2018Y1D01*
X2019Y1D01*
X2020Y1D01*
X2021Y1D01*
X2022Y1D01*
X2023Y1D01*
X2024Y1D01*
X2025Y1D01*
X2026Y1D01*
X2027Y1D01*
X2028Y1D01*
X2029Y1D01*
X2030Y1D01*
X2031Y1D01*
X2032Y1D01*
X2033Y1D01*
X2034Y1D01*
X2035Y1D01*
X2036Y1D01*
X2037Y1D01*
X2038Y1D01*
X2039Y1D01*
X2040Y1D01*
X2041Y1D01*
X2042Y1D01*
X2043Y1D01*
X2044Y1D01*
X2045Y1D01*
X2046Y1D01*
X2047Y1D01*
X2048Y1D01*
X2049Y1D01*
X2050Y1D01*
X2051Y1D01*
X2052Y1D01*
X2053Y1D01*
X2054Y1D01*
X2055Y1D01*
X2056Y1D01*
X2057Y1D01*
X2058Y1D01*
X2059Y1D01*
X2060Y1D01*
X2061Y1D01*
X2062Y1D01*
X2063Y1D01*
X2064Y1D01*
X2065Y1D01*
X2066Y1D01*
X2067Y1D01*
X2068Y1D01*
X2069Y1D01*
X2070Y1D01*
X2071Y1D01*
X2072Y1D01*
X2073Y1D01*
X2074Y1D01*
X2075Y1D01*
X2076Y1D01*
X2077Y1D01*
X2078Y1D01*
X2079Y1D01*
X2080Y1D01*
X2081Y1D01*
X2082Y1D01*
X2083Y1D01*
X2084Y1D01*
X2085Y1D01*
X2086Y1D01*
X2087Y1D01*
X2088Y1D01*
X2089Y1D01*
X2090Y1D01*
X2091Y1D01*
X2092Y1D01*
X2093Y1D01*
X2094Y1D01*
X2095Y1D01*
X2096Y1D01*
X2097Y1D01*
X2098Y1D01*
X2099Y1D01*
X2100Y1D01*
X2101Y1D01*
X2102Y1D01*
X2103Y1D01*
X2104Y1D01*
X2105Y1D01*
X2106Y1D01*
X2107Y1D01*
X2108Y1D01*
X2109Y1D01*
X2110Y1D01*
X2111Y1D01*
X2112Y1D01*
X2113Y1D01*
X2114Y1D01*
X2115Y1D01*
X2116Y1D01*
X2117Y1D01*
X2118Y1D01*
X2119Y1D01*
X2120Y1D01*
X2121Y1D01*
X2122Y1D01*
X2123Y1D01*
X2124Y1D01*
X2125Y1D01*
X2126Y1D01*
X2127Y1D01*
X2128Y1D01*
X2129Y1D01*
X2130Y1D01*
X2131Y1D01*
X2132Y1D01*
X2133Y1D01*
X2134Y1D01*
X2135Y1D01*
X2136Y1D01*
X2137Y1D01*
X2138Y1D01*
X2139Y1D01*
X2140Y1D01*
X2141Y1D01*
X2142Y1D01*
X2143Y1D01*
X2144Y1D01*
X2145Y1D01*
X2146Y1D01*
X2147Y1D01*
X2148Y1D01*
X2149Y1D01*
X2150Y1D01*
X2151Y1D01*
X2152Y1D01*
X2153Y1D01*
X2154Y1D01*
X2155Y1D01*
X2156Y1D01*
X2157Y1D01*
X2158Y1D01*
X2159Y1D01*
X2160Y1D01*
X2161Y1D01*
X2162Y1D01*
X2163Y1D01*
X2164Y1D01*
X2165Y1D01*
X2166Y1D01*
X2167Y1D01*
X2168Y1D01*
X2169Y1D01*
X2170Y1D01*
X2171Y1D01*
X2172Y1D01*
X2173Y1D01*
X2174Y1D01*
X2175Y1D01*
X2176Y1D01*
X2177Y1D01*
X2178Y1D01*
X2179Y1D01*
X2180Y1D01*
X2181Y1D01*
X2182Y1D01*
X2183Y1D01*
X2184Y1D01*
X2185Y1D01*
X2186Y1D01*
X2187Y1D01*
X2188Y1D01*
X2189Y1D01*
X2190Y1D01*
X2191Y1D01*
X2192Y1D01*
X2193Y1D01*
X2194Y1D01*
X2195Y1D01*
X2196Y1D01*
X2197Y1D01*
X2198Y1D01*
X2199Y1D01*
X2200Y1D01*
X2201Y1D01*
X2202Y1D01*
X2203Y1D01*
X2204Y1D01*
X2205Y1D01*
X2206Y1D01*
X2207Y1D01*
X2208Y1D01*
X2209Y1D01*
X2210Y1D01*
X2211Y1D01*
X2212Y1D01*
X2213Y1D01*
X2214Y1D01*
X2215Y1D01*
X2216Y1D01*
X2217Y1D01*
X2218Y1D01*
X2219Y1D01*
X2220Y1D01*
X2221Y1D01*
X2222Y1D01*
X2223Y1D01*
X2224Y1D01*
X2225Y1D01*
X2226Y1D01*
X2227Y1D01*
X2228Y1D01*
X2229Y1D01*
X2230Y1D01*
X2231Y1D01*
X2232Y1D01*
X2233Y1D01*
X2234Y1D01*
X2235Y1D01*
X2236Y1D01*
X2237Y1D01*
X2238Y1D01*
X2239Y1D01*
X2240Y1D01*
X2241Y1D01*
X2242Y1D01*
X2243Y1D01*
X2244Y1D01*
X2245Y1D01*
X2246Y1D01*
X2247Y1D01*
X2248Y1D01*
X2249Y1D01*
X2250Y1D01*
X2251Y1D01*
X2252Y1D01*
X2253Y1D01*
X2254Y1D01*
X2255Y1D01*
X2256Y1D01*
X2257Y1D01*
X2258Y1D01*
X2259Y1D01*
X2260Y1D01*
X2261Y1D01*
X2262Y1D01*
X2263Y1D01*
X2264Y1D01*
X2265Y1D01*
X2266Y1D01*
X2267Y1D01*
X2268Y1D01*
X2269Y1D01*
X2270Y1D01*
X2271Y1D01*
X2272Y1D01*
X2273Y1D01*
X2274Y1D01*
X2275Y1D01*
X2276Y1D01*
X2277Y1D01*
X2278Y1D01*
X2279Y1D01*
X2280Y1D01*
X2281Y1D01*
X2282Y1D01*
X2283Y1D01*
X2284Y1D01*
X2285Y1D01*
X2286Y1D01*
X2287Y1D01*
X2288Y1D01*
X2289Y1D01*
X2290Y1D01*
X2291Y1D01*
X2292Y1D01*
X2293Y1D01*
X2294Y1D01*
X2295Y1D01*
X2296Y1D01*
X2297Y1D01*
X2298Y1D01*
X2299Y1D01*
X2300Y1D01*
X2301Y1D01*
X2302Y1D01*
X2303Y1D01*
X2304Y1D01*
X2305Y1D01*
X2306Y1D01*
X2307Y1D01*
X2308Y1D01*
X2309Y1D01*
X2310Y1D01*
X2311Y1D01*
X2312Y1D01*
X2313Y1D01*
X2314Y1D01*
X2315Y1D01*
X2316Y1D01*
X2317Y1D01*
X2318Y1D01*
X2319Y1D01*
X2320Y1D01*
X2321Y1D01*
X2322Y1D01*
X2323Y1D01*
X2324Y1D01*
X2325Y1D01*
X2326Y1D01*
X2327Y1D01*
X2328Y1D01*
X2329Y1D01*
X2330Y1D01*
X2331Y1D01*
X2332Y1D01*
X2333Y1D01*
X2334Y1D01*
X2335Y1D01*
X2336Y1D01*
X2337Y1D01*
X2338Y1D01*
X2339Y1D01*
X2340Y1D01*
X2341Y1D01*
X2342Y1D01*
X2343Y1D01*
X2344Y1D01*
X2345Y1D01*
X2346Y1D01*
X2347Y1D01*
X2348Y1D01*
X2349Y1D01*
X2350Y1D01*
X2351Y1D01*
X2352Y1D01*
X2353Y1D01*
X2354Y1D01*
X2355Y1D01*
X2356Y1D01*
X2357Y1D01*
X2358Y1D01*
X2359Y1D01*
X2360Y1D01*
X2361Y1D01*
X2362Y1D01*
X2363Y1D01*
X2364Y1D01*
X2365Y1D01*
X2366Y1D01*
X2367Y1D01*
X2368Y1D01*
X2369Y1D01*
X2370Y1D01*
X2371Y1D01*
X2372Y1D01*
X2373Y1D01*
X2374Y1D01*
X2375Y1D01*
X2376Y1D01*
X2377Y1D01*
X2378Y1D01*
X2379Y1D01*
X2380Y1D01*
X2381Y1D01*
X2382Y1D01*
X2383Y1D01*
X2384Y1D01*
X2385Y1D01*
X2386Y1D01*
X2387Y1D01*
X2388Y1D01*
X2389Y1D01*
X2390Y1D01*
X2391Y1D01*
X2392Y1D01*
X2393Y1D01*
X2394Y1D01*
X2395Y1D01*
X2396Y1D01*
X2397Y1D01*
X2398Y1D01*
X2399Y1D01*
X2400Y1D01*
X2401Y1D01*
X2402Y1D01*
X2403Y1D01*
X2404Y1D01*
X2405Y1D01*
X2406Y1D01*
X2407Y1D01*
X2408Y1D01*
X2409Y1D01*
X2410Y1D01*
X2411Y1D01*
X2412Y1D01*
X2413Y1D01*
X2414Y1D01*
X2415Y1D01*
X2416Y1D01*
X2417Y1D01*
X2418Y1D01*
X2419Y1D01*
X2420Y1D01*
X2421Y1D01*
X2422Y1D01*
X2423Y1D01*
X2424Y1D01*
X2425Y1D01*
X2426Y1D01*
X2427Y1D01*
X2428Y1D01*
X2429Y1D01*
X2430Y1D01*
X2431Y1D01*
X2432Y1D01*
X2433Y1D01*
X2434Y1D01*
X2435Y1D01*
X2436Y1D01*
X2437Y1D01*
X2438Y1D01*
X2439Y1D01*
X2440Y1D01*
X2441Y1D01*
X2442Y1D01*
X2443Y1D01*
X2444Y1D01*
X2445Y1D01*
X2446Y1D01*
X2447Y1D01*
X2448Y1D01*
X2449Y1D01*
X2450Y1D01*
X2451Y1D01*
X2452Y1D01*
X2453Y1D01*
X2454Y1D01*
X2455Y1D01*
X2456Y1D01*
X2457Y1D01*
X2458Y1D01*
X2459Y1D01*
X2460Y1D01*
X2461Y1D01*
X2462Y1D01*
X2463Y1D01*
X2464Y1D01*
X2465Y1D01*
X2466Y1D01*
X2467Y1D01*
X2468Y1D01*
X2469Y1D01*
X2470Y1D01*
X2471Y1D01*
X2472Y1D01*
X2473Y1D01*
X2474Y1D01*
X2475Y1D01*
X2476Y1D01*
X2477Y1D01*
X2478Y1D01*
X2479Y1D01*
X2480Y1D01*
X2481Y1D01*
X2482Y1D01*
X2483Y1D01*
X2484Y1D01*
X2485Y1D01*
X2486Y1D01*
X2487Y1D01*
X2488Y1D01*
X2489Y1D01*
X2490Y1D01*
X2491Y1D01*
X2492Y1D01*
X2493Y1D01*
X2494Y1D01*
X2495Y1D01*
X2496Y1D01*
X2497Y1D01*
X2498Y1D01*
X2499Y1D01*
X2500Y1D01*
X2501Y1D01*
X2502Y1D01*
X2503Y1D01*
X2504Y1D01*
X2505Y1D01*
X2506Y1D01*
X2507Y1D01*
X2508Y1D01*
X2509Y1D01*
X2510Y1D01*
X2511Y1D01*
X2512Y1D01*
X2513Y1D01*
X2514Y1D01*
X2515Y1D01*
X2516Y1D01*
X2517Y1D01*
X2518Y1D01*
X2519Y1D01*
X2520Y1D01*
X2521Y1D01*
X2522Y1D01*
X2523Y1D01*
X2524Y1D01*
X2525Y1D01*
X2526Y1D01*
X2527Y1D01*
X2528Y1D01*
X2529Y1D01*
X2530Y1D01*
X2531Y1D01*
X2532Y1D01*
X2533Y1D01*
X2534Y1D01*
X2535Y1D01*
X2536Y1D01*
X2537Y1D01*
X2538Y1D01*
X2539Y1D01*
X2540Y1D01*
X2541Y1D01*
X2542Y1D01*
X2543Y1D01*
X2544Y1D01*
X2545Y1D01*
X2546Y1D01*
X2547Y1D01*
X2548Y1D01*
X2549Y1D01*
X2550Y1D01*
X2551Y1D01*
X2552Y1D01*
X2553Y1D01*
X2554Y1D01*
X2555Y1D01*
X2556Y1D01*
X2557Y1D01*
X2558Y1D01*
X2559Y1D01*
X2560Y1D01*
X2561Y1D01*
X2562Y1D01*
X2563Y1D01*
X2564Y1D01*
X2565Y1D01*
X2566Y1D01*
X2567Y1D01*
X2568Y1D01*
X2569Y1D01*
X2570Y1D01*
X2571Y1D01*
X2572Y1D01*
X2573Y1D01*
X2574Y1D01*
X2575Y1D01*
X2576Y1D01*
X2577Y1D01*
X2578Y1D01*
X2579Y1D01*
X2580Y1D01*
X2581Y1D01*
X2582Y1D01*
X2583Y1D01*
X2584Y1D01*
X2585Y1D01*
X2586Y1D01*
X2587Y1D01*
X2588Y1D01*
X2589Y1D01*
X2590Y1D01*
X2591Y1D01*
X2592Y1D01*
X2593Y1D01*
X2594Y1D01*
X2595Y1D01*
X2596Y1D01*
X2597Y1D01*
X2598Y1D01*
X2599Y1D01*
X2600Y1D01*
X2601Y1D01*
X2602Y1D01*
X2603Y1D01*
X2604Y1D01*
X2605Y1D01*
X2606Y1D01*
X2607Y1D01*
X2608Y1D01*
X2609Y1D01*
X2610Y1D01*
X2611Y1D01*
X2612Y1D01*
X2613Y1D01*
X2614Y1D01*
X2615Y1D01*
X2616Y1D01*
X2617Y1D01*
X2618Y1D01*
X2619Y1D01*
X2620Y1D01*
X2621Y1D01*
X2622Y1D01*
X2623Y1D01*
X2624Y1D01*
X2625Y1D01*
X2626Y1D01*
X2627Y1D01*
X2628Y1D01*
X2629Y1D01*
X2630Y1D01*
X2631Y1D01*
X2632Y1D01*
X2633Y1D01*
X2634Y1D01*
X2635Y1D01*
X2636Y1D01*
X2637Y1D01*
X2638Y1D01*
X2639Y1D01*
X2640Y1D01*
X2641Y1D01*
X2642Y1D01*
X2643Y1D01*
X2644Y1D01*
X2645Y1D01*
X2646Y1D01*
X2647Y1D01*
X2648Y1D01*
X2649Y1D01*
X2650Y1D01*
X2651Y1D01*
X2652Y1D01*
X2653Y1D01*
X2654Y1D01*
X2655Y1D01*
X2656Y1D01*
X2657Y1D01*
X2658Y1D01*
X2659Y1D01*
X2660Y1D01*
X2661Y1D01*
X2662Y1D01*
X2663Y1D01*
X2664Y1D01*
X2665Y1D01*
X2666Y1D01*
X2667Y1D01*
X2668Y1D01*
X2669Y1D01*
X2670Y1D01*
X2671Y1D01*
X2672Y1D01*
X2673Y1D01*
X2674Y1D01*
X2675Y1D01*
X2676Y1D01*
X2677Y1D01*
X2678Y1D01*
X2679Y1D01*
X2680Y1D01*
X2681Y1D01*
X2682Y1D01*
X2683Y1D01*
X2684Y1D01*
X2685Y1D01*
X2686Y1D01*
X2687Y1D01*
X2688Y1D01*
X2689Y1D01*
X2690Y1D01*
X2691Y1D01*
X2692Y1D01*
X2693Y1D01*
X2694Y1D01*
X2695Y1D01*
X2696Y1D01*
X2697Y1D01*
X2698Y1D01*
X2699Y1D01*
X2700Y1D01*
X2701Y1D01*
X2702Y1D01*
X2703Y1D01*
X2704Y1D01*
X2705Y1D01*
X2706Y1D01*
X2707Y1D01*
X2708Y1D01*
X2709Y1D01*
X2710Y1D01*
X2711Y1D01*
X2712Y1D01*
X2713Y1D01*
X2714Y1D01*
X2715Y1D01*
X2716Y1D01*
X2717Y1D01*
X2718Y1D01*
X2719Y1D01*
X2720Y1D01*
X2721Y1D01*
X2722Y1D01*
X2723Y1D01*
X2724Y1D01*
X2725Y1D01*
X2726Y1D01*
X2727Y1D01*
X2728Y1D01*
X2729Y1D01*
X2730Y1D01*
X2731Y1D01*
X2732Y1D01*
X2733Y1D01*
X2734Y1D01*
X2735Y1D01*
X2736Y1D01*
X2737Y1D01*
X2738Y1D01*
X2739Y1D01*
X2740Y1D01*
X2741Y1D01*
X2742Y1D01*
X2743Y1D01*
X2744Y1D01*
X2745Y1D01*
X2746Y1D01*
X2747Y1D01*
X2748Y1D01*
X2749Y1D01*
X2750Y1D01*
X2751Y1D01*
X2752Y1D01*
X2753Y1D01*
X2754Y1D01*
X2755Y1D01*
X2756Y1D01*
X2757Y1D01*
X2758Y1D01*
X2759Y1D01*
X2760Y1D01*
X2761Y1D01*
X2762Y1D01*
X2763Y1D01*
X2764Y1D01*
X2765Y1D01*
X2766Y1D01*
X2767Y1D01*
X2768Y1D01*
X2769Y1D01*
X2770Y1D01*
X2771Y1D01*
X2772Y1D01*
X2773Y1D01*
X2774Y1D01*
X2775Y1D01*
X2776Y1D01*
X2777Y1D01*
X2778Y1D01*
X2779Y1D01*
X2780Y1D01*
X2781Y1D01*
X2782Y1D01*
X2783Y1D01*
X2784Y1D01*
X2785Y1D01*
X2786Y1D01*
X2787Y1D01*
X2788Y1D01*
X2789Y1D01*
X2790Y1D01*
X2791Y1D01*
X2792Y1D01*
X2793Y1D01*
X2794Y1D01*
X2795Y1D01*
X2796Y1D01*
X2797Y1D01*
X2798Y1D01*
X2799Y1D01*
X2800Y1D01*
X2801Y1D01*
X2802Y1D01*
X2803Y1D01*
X2804Y1D01*
X2805Y1D01*
X2806Y1D01*
X2807Y1D01*
X2808Y1D01*
X2809Y1D01*
X2810Y1D01*
X2811Y1D01*
X2812Y1D01*
X2813Y1D01*
X2814Y1D01*
X2815Y1D01*
X2816Y1D01*
X2817Y1D01*
X2818Y1D01*
X2819Y1D01*
X2820Y1D01*
X2821Y1D01*
X2822Y1D01*
X2823Y1D01*
X2824Y1D01*
X2825Y1D01*
X2826Y1D01*
X2827Y1D01*
X2828Y1D01*
X2829Y1D01*
X2830Y1D01*
X2831Y1D01*
X2832Y1D01*
X2833Y1D01*
X2834Y1D01*
X2835Y1D01*
X2836Y1D01*
X2837Y1D01*
X2838Y1D01*
X2839Y1D01*
X2840Y1D01*
X2841Y1D01*
X2842Y1D01*
X2843Y1D01*
X2844Y1D01*
X2845Y1D01*
X2846Y1D01*
X2847Y1D01*
X2848Y1D01*
X2849Y1D01*
X2850Y1D01*
X2851Y1D01*
X2852Y1D01*
X2853Y1D01*
X2854Y1D01*
X2855Y1D01*
X2856Y1D01*
X2857Y1D01*
X2858Y1D01*
X2859Y1D01*
X2860Y1D01*
X2861Y1D01*
X2862Y1D01*
X2863Y1D01*
X2864Y1D01*
X2865Y1D01*
X2866Y1D01*
X2867Y1D01*
X2868Y1D01*
X2869Y1D01*
X2870Y1D01*
X2871Y1D01*
X2872Y1D01*
X2873Y1D01*
X2874Y1D01*
X2875Y1D01*
X2876Y1D01*
X2877Y1D01*
X2878Y1D01*
X2879Y1D01*
X2880Y1D01*
X2881Y1D01*
X2882Y1D01*
X2883Y1D01*
X2884Y1D01*
X2885Y1D01*
X2886Y1D01*
X2887Y1D01*
X2888Y1D01*
X2889Y1D01*
X2890Y1D01*
X2891Y1D01*
X2892Y1D01*
X2893Y1D01*
X2894Y1D01*
X2895Y1D01*
X2896Y1D01*
X2897Y1D01*
X2898Y1D01*
X2899Y1D01*
X2900Y1D01*
X2901Y1D01*
X2902Y1D01*
X2903Y1D01*
X2904Y1D01*
X2905Y1D01*
X2906Y1D01*
X2907Y1D01*
X2908Y1D01*
X2909Y1D01*
X2910Y1D01*
X2911Y1D01*
X2912Y1D01*
X2913Y1D01*
X2914Y1D01*
X2915Y1D01*
X2916Y1D01*
X2917Y1D01*
X2918Y1D01*
X2919Y1D01*
X2920Y1D01*
X2921Y1D01*
X2922Y1D01*
X2923Y1D01*
X2924Y1D01*
X2925Y1D01*
X2926Y1D01*
X2927Y1D01*
X2928Y1D01*
X2929Y1D01*
X2930Y1D01*
X2931Y1D01*
X2932Y1D01*
X2933Y1D01*
X2934Y1D01*
X2935Y1D01*
X2936Y1D01*
X2937Y1D01*
X2938Y1D01*
X2939Y1D01*
X2940Y1D01*
X2941Y1D01*
X2942Y1D01*
X2943Y1D01*
X2944Y1D01*
X2945Y1D01*
X2946Y1D01*
X2947Y1D01*
X2948Y1D01*
X2949Y1D01*
X2950Y1D01*
X2951Y1D01*
X2952Y1D01*
X2953Y1D01*
X2954Y1D01*
X2955Y1D01*
X2956Y1D01*
X2957Y1D01*
X2958Y1D01*
X2959Y1D01*
X2960Y1D01*
X2961Y1D01*
X2962Y1D01*
X2963Y1D01*
X2964Y1D01*
X2965Y1D01*
X2966Y1D01*
X2967Y1D01*
X2968Y1D01*
X2969Y1D01*
X2970Y1D01*
X2971Y1D01*
X2972Y1D01*
X2973Y1D01*
X2974Y1D01*
X2975Y1D01*
X2976Y1D01*
X2977Y1D01*
X2978Y1D01*
X2979Y1D01*
X2980Y1D01*
X2981Y1D01*
X2982Y1D01*
X2983Y1D01*
X2984Y1D01*
X2985Y1D01*
X2986Y1D01*
X2987Y1D01*
X2988Y1D01*
X2989Y1D01*
X2990Y1D01*
X2991Y1D01*
X2992Y1D01*
X2993Y1D01*
X2994Y1D01*
X2995Y1D01*
X2996Y1D01*
X2997Y1D01*
X2998Y1D01*
X2999Y1D01*
X3000Y1D01*
X3001Y1D01*
X3002Y1D01*
X3003Y1D01*
X3004Y1D01*
X3005Y1D01*
X3006Y1D01*
X3007Y1D01*
X3008Y1D01*
X3009Y1D01*
X3010Y1D01*
X3011Y1D01*
X3012Y1D01*
X3013Y1D01*
X3014Y1D01*
X3015Y1D01*
X3016Y1D01*
X3017Y1D01*
X3018Y1D01*
X3019Y1D01*
X3020Y1D01*
X3021Y1D01*
X3022Y1D01*
X3023Y1D01*
X3024Y1D01*
X3025Y1D01*
X3026Y1D01*
X3027Y1D01*
X3028Y1D01*
X3029Y1D01*
X3030Y1D01*
X3031Y1D01*
X3032Y1D01*
X3033Y1D01*
X3034Y1D01*
X3035Y1D01*
X3036Y1D01*
X3037Y1D01*
X3038Y1D01*
X3039Y1D01*
X3040Y1D01*
X3041Y1D01*
X3042Y1D01*
X3043Y1D01*
X3044Y1D01*
X3045Y1D01*
X3046Y1D01*
X3047Y1D01*
X3048Y1D01*
X3049Y1D01*
X3050Y1D01*
X3051Y1D01*
X3052Y1D01*
X3053Y1D01*
X3054Y1D01*
X3055Y1D01*
X3056Y1D01*
X3057Y1D01*
X3058Y1D01*
X3059Y1D01*
X3060Y1D01*
X3061Y1D01*
X3062Y1D01*
X3063Y1D01*
X3064Y1D01*
X3065Y1D01*
X3066Y1D01*
X3067Y1D01*
X3068Y1D01*
X3069Y1D01*
X3070Y1D01*
X3071Y1D01*
X3072Y1D01*
X3073Y1D01*
X3074Y1D01*
X3075Y1D01*
X3076Y1D01*
X3077Y1D01*
X3078Y1D01*
X3079Y1D01*
X3080Y1D01*
X3081Y1D01*
X3082Y1D01*
X3083Y1D01*
X3084Y1D01*
X3085Y1D01*
X3086Y1D01*
X3087Y1D01*
X3088Y1D01*
X3089Y1D01*
X3090Y1D01*
X3091Y1D01*
X3092Y1D01*
X3093Y1D01*
X3094Y1D01*
X3095Y1D01*
X3096Y1D01*
X3097Y1D01*
X3098Y1D01*
X3099Y1D01*
X3100Y1D01*
X3101Y1D01*
X3102Y1D01*
X3103Y1D01*
X3104Y1D01*
X3105Y1D01*
X3106Y1D01*
X3107Y1D01*
X3108Y1D01*
X3109Y1D01*
X3110Y1D01*
X3111Y1D01*
X3112Y1D01*
X3113Y1D01*
X3114Y1D01*
X3115Y1D01*
X3116Y1D01*
X3117Y1D01*
X3118Y1D01*
X3119Y1D01*
X3120Y1D01*
X3121Y1D01*
X3122Y1D01*
X3123Y1D01*
X3124Y1D01*
X3125Y1D01*
X3126Y1D01*
X3127Y1D01*
X3128Y1D01*
X3129Y1D01*
X3130Y1D01*
X3131Y1D01*
X3132Y1D01*
X3133Y1D01*
X3134Y1D01*
X3135Y1D01*
X3136Y1D01*
X3137Y1D01*
X3138Y1D01*
X3139Y1D01*
X3140Y1D01*
X3141Y1D01*
X3142Y1D01*
X3143Y1D01*
X3144Y1D01*
X3145Y1D01*
X3146Y1D01*
X3147Y1D01*
X3148Y1D01*
X3148Y984D01*
X3147Y984D01*
X3146Y984D01*
X3145Y984D01*
X3144Y984D01*
X3143Y984D01*
X3142Y984D01*
X3141Y984D01*
X3140Y984D01*
X3139Y984D01*
X3138Y984D01*
X3137Y984D01*
X3136Y984D01*
X3135Y984D01*
X3134Y984D01*
X3133Y984D01*
X3132Y984D01*
X3131Y984D01*
X3130Y984D01*
X3129Y984D01*
X3128Y984D01*
X3127Y984D01*
X3126Y984D01*
X3125Y984D01*
X3124Y984D01*
X3123Y984D01*
X3122Y984D01*
X3121Y984D01*
X3120Y984D01*
X3119Y984D01*
X3118Y984D01*
X3117Y984D01*
X3116Y984D01*
X3115Y984D01*
X3114Y984D01*
X3113Y984D01*
X3112Y984D01*
X3111Y984D01*
X3110Y984D01*
X3109Y984D01*
X3108Y984D01*
X3107Y984D01*
X3106Y984D01*
X3105Y984D01*
X3104Y984D01*
X3103Y984D01*
X3102Y984D01*
X3101Y984D01*
X3100Y984D01*
X3099Y984D01*
X3098Y984D01*
X3097Y984D01*
X3096Y984D01*
X3095Y984D01*
X3094Y984D01*
X3093Y984D01*
X3092Y984D01*
X3091Y984D01*
X3090Y984D01*
X3089Y984D01*
X3088Y984D01*
X3087Y984D01*
X3086Y984D01*
X3085Y984D01*
X3084Y984D01*
X3083Y984D01*
X3082Y984D01*
X3081Y984D01*
X3080Y984D01*
X3079Y984D01*
X3078Y984D01*
X3077Y984D01*
X3076Y984D01*
X3075Y984D01*
X3074Y984D01*
X3073Y984D01*
X3072Y984D01*
X3071Y984D01*
X3070Y984D01*
X3069Y984D01*
X3068Y984D01*
X3067Y984D01*
X3066Y984D01*
X3065Y984D01*
X3064Y984D01*
X3063Y984D01*
X3062Y984D01*
X3061Y984D01*
X3060Y984D01*
X3059Y984D01*
X3058Y984D01*
X3057Y984D01*
X3056Y984D01*
X3055Y984D01*
X3054Y984D01*
X3053Y984D01*
X3052Y984D01*
X3051Y984D01*
X3050Y984D01*
X3049Y984D01*
X3048Y984D01*
X3047Y984D01*
X3046Y984D01*
X3045Y984D01*
X3044Y984D01*
X3043Y984D01*
X3042Y984D01*
X3041Y984D01*
X3040Y984D01*
X3039Y984D01*
X3038Y984D01*
X3037Y984D01*
X3036Y984D01*
X3035Y984D01*
X3034Y984D01*
X3033Y984D01*
X3032Y984D01*
X3031Y984D01*
X3030Y984D01*
X3029Y984D01*
X3028Y984D01*
X3027Y984D01*
X3026Y984D01*
X3025Y984D01*
X3024Y984D01*
X3023Y984D01*
X3022Y984D01*
X3021Y984D01*
X3020Y984D01*
X3019Y984D01*
X3018Y984D01*
X3017Y984D01*
X3016Y984D01*
X3015Y984D01*
X3014Y984D01*
X3013Y984D01*
X3012Y984D01*
X3011Y984D01*
X3010Y984D01*
X3009Y984D01*
X3008Y984D01*
X3007Y984D01*
X3006Y984D01*
X3005Y984D01*
X3004Y984D01*
X3003Y984D01*
X3002Y984D01*
X3001Y984D01*
X3000Y984D01*
X2999Y984D01*
X2998Y984D01*
X2997Y984D01*
X2996Y984D01*
X2995Y984D01*
X2994Y984D01*
X2993Y984D01*
X2992Y984D01*
X2991Y984D01*
X2990Y984D01*
X2989Y984D01*
X2988Y984D01*
X2987Y984D01*
X2986Y984D01*
X2985Y984D01*
X2984Y984D01*
X2983Y984D01*
X2982Y984D01*
X2981Y984D01*
X2980Y984D01*
X2979Y984D01*
X2978Y984D01*
X2977Y984D01*
X2976Y984D01*
X2975Y984D01*
X2974Y984D01*
X2973Y984D01*
X2972Y984D01*
X2971Y984D01*
X2970Y984D01*
X2969Y984D01*
X2968Y984D01*
X2967Y984D01*
X2966Y984D01*
X2965Y984D01*
X2964Y984D01*
X2963Y984D01*
X2962Y984D01*
X2961Y984D01*
X2960Y984D01*
X2959Y984D01*
X2958Y984D01*
X2957Y984D01*
X2956Y984D01*
X2955Y984D01*
X2954Y984D01*
X2953Y984D01*
X2952Y984D01*
X2951Y984D01*
X2950Y984D01*
X2949Y984D01*
X2948Y984D01*
X2947Y984D01*
X2946Y984D01*
X2945Y984D01*
X2944Y984D01*
X2943Y984D01*
X2942Y984D01*
X2941Y984D01*
X2940Y984D01*
X2939Y984D01*
X2938Y984D01*
X2937Y984D01*
X2936Y984D01*
X2935Y984D01*
X2934Y984D01*
X2933Y984D01*
X2932Y984D01*
X2931Y984D01*
X2930Y984D01*
X2929Y984D01*
X2928Y984D01*
X2927Y984D01*
X2926Y984D01*
X2925Y984D01*
X2924Y984D01*
X2923Y984D01*
X2922Y984D01*
X2921Y984D01*
X2920Y984D01*
X2919Y984D01*
X2918Y984D01*
X2917Y984D01*
X2916Y984D01*
X2915Y984D01*
X2914Y984D01*
X2913Y984D01*
X2912Y984D01*
X2911Y984D01*
X2910Y984D01*
X2909Y984D01*
X2908Y984D01*
X2907Y984D01*
X2906Y984D01*
X2905Y984D01*
X2904Y984D01*
X2903Y984D01*
X2902Y984D01*
X2901Y984D01*
X2900Y984D01*
X2899Y984D01*
X2898Y984D01*
X2897Y984D01*
X2896Y984D01*
X2895Y984D01*
X2894Y984D01*
X2893Y984D01*
X2892Y984D01*
X2891Y984D01*
X2890Y984D01*
X2889Y984D01*
X2888Y984D01*
X2887Y984D01*
X2886Y984D01*
X2885Y984D01*
X2884Y984D01*
X2883Y984D01*
X2882Y984D01*
X2881Y984D01*
X2880Y984D01*
X2879Y984D01*
X2878Y984D01*
X2877Y984D01*
X2876Y984D01*
X2875Y984D01*
X2874Y984D01*
X2873Y984D01*
X2872Y984D01*
X2871Y984D01*
X2870Y984D01*
X2869Y984D01*
X2868Y984D01*
X2867Y984D01*
X2866Y984D01*
X2865Y984D01*
X2864Y984D01*
X2863Y984D01*
X2862Y984D01*
X2861Y984D01*
X2860Y984D01*
X2859Y984D01*
X2858Y984D01*
X2857Y984D01*
X2856Y984D01*
X2855Y984D01*
X2854Y984D01*
X2853Y984D01*
X2852Y984D01*
X2851Y984D01*
X2850Y984D01*
X2849Y984D01*
X2848Y984D01*
X2847Y984D01*
X2846Y984D01*
X2845Y984D01*
X2844Y984D01*
X2843Y984D01*
X2842Y984D01*
X2841Y984D01*
X2840Y984D01*
X2839Y984D01*
X2838Y984D01*
X2837Y984D01*
X2836Y984D01*
X2835Y984D01*
X2834Y984D01*
X2833Y984D01*
X2832Y984D01*
X2831Y984D01*
X2830Y984D01*
X2829Y984D01*
X2828Y984D01*
X2827Y984D01*
X2826Y984D01*
X2825Y984D01*
X2824Y984D01*
X2823Y984D01*
X2822Y984D01*
X2821Y984D01*
X2820Y984D01*
X2819Y984D01*
X2818Y984D01*
X2817Y984D01*
X2816Y984D01*
X2815Y984D01*
X2814Y984D01*
X2813Y984D01*
X2812Y984D01*
X2811Y984D01*
X2810Y984D01*
X2809Y984D01*
X2808Y984D01*
X2807Y984D01*
X2806Y984D01*
X2805Y984D01*
X2804Y984D01*
X2803Y984D01*
X2802Y984D01*
X2801Y984D01*
X2800Y984D01*
X2799Y984D01*
X2798Y984D01*
X2797Y984D01*
X2796Y984D01*
X2795Y984D01*
X2794Y984D01*
X2793Y984D01*
X2792Y984D01*
X2791Y984D01*
X2790Y984D01*
X2789Y984D01*
X2788Y984D01*
X2787Y984D01*
X2786Y984D01*
X2785Y984D01*
X2784Y984D01*
X2783Y984D01*
X2782Y984D01*
X2781Y984D01*
X2780Y984D01*
X2779Y984D01*
X2778Y984D01*
X2777Y984D01*
X2776Y984D01*
X2775Y984D01*
X2774Y984D01*
X2773Y984D01*
X2772Y984D01*
X2771Y984D01*
X2770Y984D01*
X2769Y984D01*
X2768Y984D01*
X2767Y984D01*
X2766Y984D01*
X2765Y984D01*
X2764Y984D01*
X2763Y984D01*
X2762Y984D01*
X2761Y984D01*
X2760Y984D01*
X2759Y984D01*
X2758Y984D01*
X2757Y984D01*
X2756Y984D01*
X2755Y984D01*
X2754Y984D01*
X2753Y984D01*
X2752Y984D01*
X2751Y984D01*
X2750Y984D01*
X2749Y984D01*
X2748Y984D01*
X2747Y984D01*
X2746Y984D01*
X2745Y984D01*
X2744Y984D01*
X2743Y984D01*
X2742Y984D01*
X2741Y984D01*
X2740Y984D01*
X2739Y984D01*
X2738Y984D01*
X2737Y984D01*
X2736Y984D01*
X2735Y984D01*
X2734Y984D01*
X2733Y984D01*
X2732Y984D01*
X2731Y984D01*
X2730Y984D01*
X2729Y984D01*
X2728Y984D01*
X2727Y984D01*
X2726Y984D01*
X2725Y984D01*
X2724Y984D01*
X2723Y984D01*
X2722Y984D01*
X2721Y984D01*
X2720Y984D01*
X2719Y984D01*
X2718Y984D01*
X2717Y984D01*
X2716Y984D01*
X2715Y984D01*
X2714Y984D01*
X2713Y984D01*
X2712Y984D01*
X2711Y984D01*
X2710Y984D01*
X2709Y984D01*
X2708Y984D01*
X2707Y984D01*
X2706Y984D01*
X2705Y984D01*
X2704Y984D01*
X2703Y984D01*
X2702Y984D01*
X2701Y984D01*
X2700Y984D01*
X2699Y984D01*
X2698Y984D01*
X2697Y984D01*
X2696Y984D01*
X2695Y984D01*
X2694Y984D01*
X2693Y984D01*
X2692Y984D01*
X2691Y984D01*
X2690Y984D01*
X2689Y984D01*
X2688Y984D01*
X2687Y984D01*
X2686Y984D01*
X2685Y984D01*
X2684Y984D01*
X2683Y984D01*
X2682Y984D01*
X2681Y984D01*
X2680Y984D01*
X2679Y984D01*
X2678Y984D01*
X2677Y984D01*
X2676Y984D01*
X2675Y984D01*
X2674Y984D01*
X2673Y984D01*
X2672Y984D01*
X2671Y984D01*
X2670Y984D01*
X2669Y984D01*
X2668Y984D01*
X2667Y984D01*
X2666Y984D01*
X2665Y984D01*
X2664Y984D01*
X2663Y984D01*
X2662Y984D01*
X2661Y984D01*
X2660Y984D01*
X2659Y984D01*
X2658Y984D01*
X2657Y984D01*
X2656Y984D01*
X2655Y984D01*
X2654Y984D01*
X2653Y984D01*
X2652Y984D01*
X2651Y984D01*
X2650Y984D01*
X2649Y984D01*
X2648Y984D01*
X2647Y984D01*
X2646Y984D01*
X2645Y984D01*
X2644Y984D01*
X2643Y984D01*
X2642Y984D01*
X2641Y984D01*
X2640Y984D01*
X2639Y984D01*
X2638Y984D01*
X2637Y984D01*
X2636Y984D01*
X2635Y984D01*
X2634Y984D01*
X2633Y984D01*
X2632Y984D01*
X2631Y984D01*
X2630Y984D01*
X2629Y984D01*
X2628Y984D01*
X2627Y984D01*
X2626Y984D01*
X2625Y984D01*
X2624Y984D01*
X2623Y984D01*
X2622Y984D01*
X2621Y984D01*
X2620Y984D01*
X2619Y984D01*
X2618Y984D01*
X2617Y984D01*
X2616Y984D01*
X2615Y984D01*
X2614Y984D01*
X2613Y984D01*
X2612Y984D01*
X2611Y984D01*
X2610Y984D01*
X2609Y984D01*
X2608Y984D01*
X2607Y984D01*
X2606Y984D01*
X2605Y984D01*
X2604Y984D01*
X2603Y984D01*
X2602Y984D01*
X2601Y984D01*
X2600Y984D01*
X2599Y984D01*
X2598Y984D01*
X2597Y984D01*
X2596Y984D01*
X2595Y984D01*
X2594Y984D01*
X2593Y984D01*
X2592Y984D01*
X2591Y984D01*
X2590Y984D01*
X2589Y984D01*
X2588Y984D01*
X2587Y984D01*
X2586Y984D01*
X2585Y984D01*
X2584Y984D01*
X2583Y984D01*
X2582Y984D01*
X2581Y984D01*
X2580Y984D01*
X2579Y984D01*
X2578Y984D01*
X2577Y984D01*
X2576Y984D01*
X2575Y984D01*
X2574Y984D01*
X2573Y984D01*
X2572Y984D01*
X2571Y984D01*
X2570Y984D01*
X2569Y984D01*
X2568Y984D01*
X2567Y984D01*
X2566Y984D01*
X2565Y984D01*
X2564Y984D01*
X2563Y984D01*
X2562Y984D01*
X2561Y984D01*
X2560Y984D01*
X2559Y984D01*
X2558Y984D01*
X2557Y984D01*
X2556Y984D01*
X2555Y984D01*
X2554Y984D01*
X2553Y984D01*
X2552Y984D01*
X2551Y984D01*
X2550Y984D01*
X2549Y984D01*
X2548Y984D01*
X2547Y984D01*
X2546Y984D01*
X2545Y984D01*
X2544Y984D01*
X2543Y984D01*
X2542Y984D01*
X2541Y984D01*
X2540Y984D01*
X2539Y984D01*
X2538Y984D01*
X2537Y984D01*
X2536Y984D01*
X2535Y984D01*
X2534Y984D01*
X2533Y984D01*
X2532Y984D01*
X2531Y984D01*
X2530Y984D01*
X2529Y984D01*
X2528Y984D01*
X2527Y984D01*
X2526Y984D01*
X2525Y984D01*
X2524Y984D01*
X2523Y984D01*
X2522Y984D01*
X2521Y984D01*
X2520Y984D01*
X2519Y984D01*
X2518Y984D01*
X2517Y984D01*
X2516Y984D01*
X2515Y984D01*
X2514Y984D01*
X2513Y984D01*
X2512Y984D01*
X2511Y984D01*
X2510Y984D01*
X2509Y984D01*
X2508Y984D01*
X2507Y984D01*
X2506Y984D01*
X2505Y984D01*
X2504Y984D01*
X2503Y984D01*
X2502Y984D01*
X2501Y984D01*
X2500Y984D01*
X2499Y984D01*
X2498Y984D01*
X2497Y984D01*
X2496Y984D01*
X2495Y984D01*
X2494Y984D01*
X2493Y984D01*
X2492Y984D01*
X2491Y984D01*
X2490Y984D01*
X2489Y984D01*
X2488Y984D01*
X2487Y984D01*
X2486Y984D01*
X2485Y984D01*
X2484Y984D01*
X2483Y984D01*
X2482Y984D01*
X2481Y984D01*
X2480Y984D01*
X2479Y984D01*
X2478Y984D01*
X2477Y984D01*
X2476Y984D01*
X2475Y984D01*
X2474Y984D01*
X2473Y984D01*
X2472Y984D01*
X2471Y984D01*
X2470Y984D01*
X2469Y984D01*
X2468Y984D01*
X2467Y984D01*
X2466Y984D01*
X2465Y984D01*
X2464Y984D01*
X2463Y984D01*
X2462Y984D01*
X2461Y984D01*
X2460Y984D01*
X2459Y984D01*
X2458Y984D01*
X2457Y984D01*
X2456Y984D01*
X2455Y984D01*
X2454Y984D01*
X2453Y984D01*
X2452Y984D01*
X2451Y984D01*
X2450Y984D01*
X2449Y984D01*
X2448Y984D01*
X2447Y984D01*
X2446Y984D01*
X2445Y984D01*
X2444Y984D01*
X2443Y984D01*
X2442Y984D01*
X2441Y984D01*
X2440Y984D01*
X2439Y984D01*
X2438Y984D01*
X2437Y984D01*
X2436Y984D01*
X2435Y984D01*
X2434Y984D01*
X2433Y984D01*
X2432Y984D01*
X2431Y984D01*
X2430Y984D01*
X2429Y984D01*
X2428Y984D01*
X2427Y984D01*
X2426Y984D01*
X2425Y984D01*
X2424Y984D01*
X2423Y984D01*
X2422Y984D01*
X2421Y984D01*
X2420Y984D01*
X2419Y984D01*
X2418Y984D01*
X2417Y984D01*
X2416Y984D01*
X2415Y984D01*
X2414Y984D01*
X2413Y984D01*
X2412Y984D01*
X2411Y984D01*
X2410Y984D01*
X2409Y984D01*
X2408Y984D01*
X2407Y984D01*
X2406Y984D01*
X2405Y984D01*
X2404Y984D01*
X2403Y984D01*
X2402Y984D01*
X2401Y984D01*
X2400Y984D01*
X2399Y984D01*
X2398Y984D01*
X2397Y984D01*
X2396Y984D01*
X2395Y984D01*
X2394Y984D01*
X2393Y984D01*
X2392Y984D01*
X2391Y984D01*
X2390Y984D01*
X2389Y984D01*
X2388Y984D01*
X2387Y984D01*
X2386Y984D01*
X2385Y984D01*
X2384Y984D01*
X2383Y984D01*
X2382Y984D01*
X2381Y984D01*
X2380Y984D01*
X2379Y984D01*
X2378Y984D01*
X2377Y984D01*
X2376Y984D01*
X2375Y984D01*
X2374Y984D01*
X2373Y984D01*
X2372Y984D01*
X2371Y984D01*
X2370Y984D01*
X2369Y984D01*
X2368Y984D01*
X2367Y984D01*
X2366Y984D01*
X2365Y984D01*
X2364Y984D01*
X2363Y984D01*
X2362Y984D01*
X2361Y984D01*
X2360Y984D01*
X2359Y984D01*
X2358Y984D01*
X2357Y984D01*
X2356Y984D01*
X2355Y984D01*
X2354Y984D01*
X2353Y984D01*
X2352Y984D01*
X2351Y984D01*
X2350Y984D01*
X2349Y984D01*
X2348Y984D01*
X2347Y984D01*
X2346Y984D01*
X2345Y984D01*
X2344Y984D01*
X2343Y984D01*
X2342Y984D01*
X2341Y984D01*
X2340Y984D01*
X2339Y984D01*
X2338Y984D01*
X2337Y984D01*
X2336Y984D01*
X2335Y984D01*
X2334Y984D01*
X2333Y984D01*
X2332Y984D01*
X2331Y984D01*
X2330Y984D01*
X2329Y984D01*
X2328Y984D01*
X2327Y984D01*
X2326Y984D01*
X2325Y984D01*
X2324Y984D01*
X2323Y984D01*
X2322Y984D01*
X2321Y984D01*
X2320Y984D01*
X2319Y984D01*
X2318Y984D01*
X2317Y984D01*
X2316Y984D01*
X2315Y984D01*
X2314Y984D01*
X2313Y984D01*
X2312Y984D01*
X2311Y984D01*
X2310Y984D01*
X2309Y984D01*
X2308Y984D01*
X2307Y984D01*
X2306Y984D01*
X2305Y984D01*
X2304Y984D01*
X2303Y984D01*
X2302Y984D01*
X2301Y984D01*
X2300Y984D01*
X2299Y984D01*
X2298Y984D01*
X2297Y984D01*
X2296Y984D01*
X2295Y984D01*
X2294Y984D01*
X2293Y984D01*
X2292Y984D01*
X2291Y984D01*
X2290Y984D01*
X2289Y984D01*
X2288Y984D01*
X2287Y984D01*
X2286Y984D01*
X2285Y984D01*
X2284Y984D01*
X2283Y984D01*
X2282Y984D01*
X2281Y984D01*
X2280Y984D01*
X2279Y984D01*
X2278Y984D01*
X2277Y984D01*
X2276Y984D01*
X2275Y984D01*
X2274Y984D01*
X2273Y984D01*
X2272Y984D01*
X2271Y984D01*
X2270Y984D01*
X2269Y984D01*
X2268Y984D01*
X2267Y984D01*
X2266Y984D01*
X2265Y984D01*
X2264Y984D01*
X2263Y984D01*
X2262Y984D01*
X2261Y984D01*
X2260Y984D01*
X2259Y984D01*
X2258Y984D01*
X2257Y984D01*
X2256Y984D01*
X2255Y984D01*
X2254Y984D01*
X2253Y984D01*
X2252Y984D01*
X2251Y984D01*
X2250Y984D01*
X2249Y984D01*
X2248Y984D01*
X2247Y984D01*
X2246Y984D01*
X2245Y984D01*
X2244Y984D01*
X2243Y984D01*
X2242Y984D01*
X2241Y984D01*
X2240Y984D01*
X2239Y984D01*
X2238Y984D01*
X2237Y984D01*
X2236Y984D01*
X2235Y984D01*
X2234Y984D01*
X2233Y984D01*
X2232Y984D01*
X2231Y984D01*
X2230Y984D01*
X2229Y984D01*
X2228Y984D01*
X2227Y984D01*
X2226Y984D01*
X2225Y984D01*
X2224Y984D01*
X2223Y984D01*
X2222Y984D01*
X2221Y984D01*
X2220Y984D01*
X2219Y984D01*
X2218Y984D01*
X2217Y984D01*
X2216Y984D01*
X2215Y984D01*
X2214Y984D01*
X2213Y984D01*
X2212Y984D01*
X2211Y984D01*
X2210Y984D01*
X2209Y984D01*
X2208Y984D01*
X2207Y984D01*
X2206Y984D01*
X2205Y984D01*
X2204Y984D01*
X2203Y984D01*
X2202Y984D01*
X2201Y984D01*
X2200Y984D01*
X2199Y984D01*
X2198Y984D01*
X2197Y984D01*
X2196Y984D01*
X2195Y984D01*
X2194Y984D01*
X2193Y984D01*
X2192Y984D01*
X2191Y984D01*
X2190Y984D01*
X2189Y984D01*
X2188Y984D01*
X2187Y984D01*
X2186Y984D01*
X2185Y984D01*
X2184Y984D01*
X2183Y984D01*
X2182Y984D01*
X2181Y984D01*
X2180Y984D01*
X2179Y984D01*
X2178Y984D01*
X2177Y984D01*
X2176Y984D01*
X2175Y984D01*
X2174Y984D01*
X2173Y984D01*
X2172Y984D01*
X2171Y984D01*
X2170Y984D01*
X2169Y984D01*
X2168Y984D01*
X2167Y984D01*
X2166Y984D01*
X2165Y984D01*
X2164Y984D01*
X2163Y984D01*
X2162Y984D01*
X2161Y984D01*
X2160Y984D01*
X2159Y984D01*
X2158Y984D01*
X2157Y984D01*
X2156Y984D01*
X2155Y984D01*
X2154Y984D01*
X2153Y984D01*
X2152Y984D01*
X2151Y984D01*
X2150Y984D01*
X2149Y984D01*
X2148Y984D01*
X2147Y984D01*
X2146Y984D01*
X2145Y984D01*
X2144Y984D01*
X2143Y984D01*
X2142Y984D01*
X2141Y984D01*
X2140Y984D01*
X2139Y984D01*
X2138Y984D01*
X2137Y984D01*
X2136Y984D01*
X2135Y984D01*
X2134Y984D01*
X2133Y984D01*
X2132Y984D01*
X2131Y984D01*
X2130Y984D01*
X2129Y984D01*
X2128Y984D01*
X2127Y984D01*
X2126Y984D01*
X2125Y984D01*
X2124Y984D01*
X2123Y984D01*
X2122Y984D01*
X2121Y984D01*
X2120Y984D01*
X2119Y984D01*
X2118Y984D01*
X2117Y984D01*
X2116Y984D01*
X2115Y984D01*
X2114Y984D01*
X2113Y984D01*
X2112Y984D01*
X2111Y984D01*
X2110Y984D01*
X2109Y984D01*
X2108Y984D01*
X2107Y984D01*
X2106Y984D01*
X2105Y984D01*
X2104Y984D01*
X2103Y984D01*
X2102Y984D01*
X2101Y984D01*
X2100Y984D01*
X2099Y984D01*
X2098Y984D01*
X2097Y984D01*
X2096Y984D01*
X2095Y984D01*
X2094Y984D01*
X2093Y984D01*
X2092Y984D01*
X2091Y984D01*
X2090Y984D01*
X2089Y984D01*
X2088Y984D01*
X2087Y984D01*
X2086Y984D01*
X2085Y984D01*
X2084Y984D01*
X2083Y984D01*
X2082Y984D01*
X2081Y984D01*
X2080Y984D01*
X2079Y984D01*
X2078Y984D01*
X2077Y984D01*
X2076Y984D01*
X2075Y984D01*
X2074Y984D01*
X2073Y984D01*
X2072Y984D01*
X2071Y984D01*
X2070Y984D01*
X2069Y984D01*
X2068Y984D01*
X2067Y984D01*
X2066Y984D01*
X2065Y984D01*
X2064Y984D01*
X2063Y984D01*
X2062Y984D01*
X2061Y984D01*
X2060Y984D01*
X2059Y984D01*
X2058Y984D01*
X2057Y984D01*
X2056Y984D01*
X2055Y984D01*
X2054Y984D01*
X2053Y984D01*
X2052Y984D01*
X2051Y984D01*
X2050Y984D01*
X2049Y984D01*
X2048Y984D01*
X2047Y984D01*
X2046Y984D01*
X2045Y984D01*
X2044Y984D01*
X2043Y984D01*
X2042Y984D01*
X2041Y984D01*
X2040Y984D01*
X2039Y984D01*
X2038Y984D01*
X2037Y984D01*
X2036Y984D01*
X2035Y984D01*
X2034Y984D01*
X2033Y984D01*
X2032Y984D01*
X2031Y984D01*
X2030Y984D01*
X2029Y984D01*
X2028Y984D01*
X2027Y984D01*
X2026Y984D01*
X2025Y984D01*
X2024Y984D01*
X2023Y984D01*
X2022Y984D01*
X2021Y984D01*
X2020Y984D01*
X2019Y984D01*
X2018Y984D01*
X2017Y984D01*
X2016Y984D01*
X2015Y984D01*
X2014Y984D01*
X2013Y984D01*
X2012Y984D01*
X2011Y984D01*
X2010Y984D01*
X2009Y984D01*
X2008Y984D01*
X2007Y984D01*
X2006Y984D01*
X2005Y984D01*
X2004Y984D01*
X2003Y984D01*
X2002Y984D01*
X2001Y984D01*
X2000Y984D01*
X1999Y984D01*
X1998Y984D01*
X1997Y984D01*
X1996Y984D01*
X1995Y984D01*
X1994Y984D01*
X1993Y984D01*
X1992Y984D01*
X1991Y984D01*
X1990Y984D01*
X1989Y984D01*
X1988Y984D01*
X1987Y984D01*
X1986Y984D01*
X1985Y984D01*
X1984Y984D01*
X1983Y984D01*
X1982Y984D01*
X1981Y984D01*
X1980Y984D01*
X1979Y984D01*
X1978Y984D01*
X1977Y984D01*
X1976Y984D01*
X1975Y984D01*
X1974Y984D01*
X1973Y984D01*
X1972Y984D01*
X1971Y984D01*
X1970Y984D01*
X1969Y984D01*
X1968Y984D01*
X1967Y984D01*
X1966Y984D01*
X1965Y984D01*
X1964Y984D01*
X1963Y984D01*
X1962Y984D01*
X1961Y984D01*
X1960Y984D01*
X1959Y984D01*
X1958Y984D01*
X1957Y984D01*
X1956Y984D01*
X1955Y984D01*
X1954Y984D01*
X1953Y984D01*
X1952Y984D01*
X1951Y984D01*
X1950Y984D01*
X1949Y984D01*
X1948Y984D01*
X1947Y984D01*
X1946Y984D01*
X1945Y984D01*
X1944Y984D01*
X1943Y984D01*
X1942Y984D01*
X1941Y984D01*
X1940Y984D01*
X1939Y984D01*
X1938Y984D01*
X1937Y984D01*
X1936Y984D01*
X1935Y984D01*
X1934Y984D01*
X1933Y984D01*
X1932Y984D01*
X1931Y984D01*
X1930Y984D01*
X1929Y984D01*
X1928Y984D01*
X1927Y984D01*
X1926Y984D01*
X1925Y984D01*
X1924Y984D01*
X1923Y984D01*
X1922Y984D01*
X1921Y984D01*
X1920Y984D01*
X1919Y984D01*
X1918Y984D01*
X1917Y984D01*
X1916Y984D01*
X1915Y984D01*
X1914Y984D01*
X1913Y984D01*
X1912Y984D01*
X1911Y984D01*
X1910Y984D01*
X1909Y984D01*
X1908Y984D01*
X1907Y984D01*
X1906Y984D01*
X1905Y984D01*
X1904Y984D01*
X1903Y984D01*
X1902Y984D01*
X1901Y984D01*
X1900Y984D01*
X1899Y984D01*
X1898Y984D01*
X1897Y984D01*
X1896Y984D01*
X1895Y984D01*
X1894Y984D01*
X1893Y984D01*
X1892Y984D01*
X1891Y984D01*
X1890Y984D01*
X1889Y984D01*
X1888Y984D01*
X1887Y984D01*
X1886Y984D01*
X1885Y984D01*
X1884Y984D01*
X1883Y984D01*
X1882Y984D01*
X1881Y984D01*
X1880Y984D01*
X1879Y984D01*
X1878Y984D01*
X1877Y984D01*
X1876Y984D01*
X1875Y984D01*
X1874Y984D01*
X1873Y984D01*
X1872Y984D01*
X1871Y984D01*
X1870Y984D01*
X1869Y984D01*
X1868Y984D01*
X1867Y984D01*
X1866Y984D01*
X1865Y984D01*
X1864Y984D01*
X1863Y984D01*
X1862Y984D01*
X1861Y984D01*
X1860Y984D01*
X1859Y984D01*
X1858Y984D01*
X1857Y984D01*
X1856Y984D01*
X1855Y984D01*
X1854Y984D01*
X1853Y984D01*
X1852Y984D01*
X1851Y984D01*
X1850Y984D01*
X1849Y984D01*
X1848Y984D01*
X1847Y984D01*
X1846Y984D01*
X1845Y984D01*
X1844Y984D01*
X1843Y984D01*
X1842Y984D01*
X1841Y984D01*
X1840Y984D01*
X1839Y984D01*
X1838Y984D01*
X1837Y984D01*
X1836Y984D01*
X1835Y984D01*
X1834Y984D01*
X1833Y984D01*
X1832Y984D01*
X1831Y984D01*
X1830Y984D01*
X1829Y984D01*
X1828Y984D01*
X1827Y984D01*
X1826Y984D01*
X1825Y984D01*
X1824Y984D01*
X1823Y984D01*
X1822Y984D01*
X1821Y984D01*
X1820Y984D01*
X1819Y984D01*
X1818Y984D01*
X1817Y984D01*
X1816Y984D01*
X1815Y984D01*
X1814Y984D01*
X1813Y984D01*
X1812Y984D01*
X1811Y984D01*
X1810Y984D01*
X1809Y984D01*
X1808Y984D01*
X1807Y984D01*
X1806Y984D01*
X1805Y984D01*
X1804Y984D01*
X1803Y984D01*
X1802Y984D01*
X1801Y984D01*
X1800Y984D01*
X1799Y984D01*
X1798Y984D01*
X1797Y984D01*
X1796Y984D01*
X1795Y984D01*
X1794Y984D01*
X1793Y984D01*
X1792Y984D01*
X1791Y984D01*
X1790Y984D01*
X1789Y984D01*
X1788Y984D01*
X1787Y984D01*
X1786Y984D01*
X1785Y984D01*
X1784Y984D01*
X1783Y984D01*
X1782Y984D01*
X1781Y984D01*
X1780Y984D01*
X1779Y984D01*
X1778Y984D01*
X1777Y984D01*
X1776Y984D01*
X1775Y984D01*
X1774Y984D01*
X1773Y984D01*
X1772Y984D01*
X1771Y984D01*
X1770Y984D01*
X1769Y984D01*
X1768Y984D01*
X1767Y984D01*
X1766Y984D01*
X1765Y984D01*
X1764Y984D01*
X1763Y984D01*
X1762Y984D01*
X1761Y984D01*
X1760Y984D01*
X1759Y984D01*
X1758Y984D01*
X1757Y984D01*
X1756Y984D01*
X1755Y984D01*
X1754Y984D01*
X1753Y984D01*
X1752Y984D01*
X1751Y984D01*
X1750Y984D01*
X1749Y984D01*
X1748Y984D01*
X1747Y984D01*
X1746Y984D01*
X1745Y984D01*
X1744Y984D01*
X1743Y984D01*
X1742Y984D01*
X1741Y984D01*
X1740Y984D01*
X1739Y984D01*
X1738Y984D01*
X1737Y984D01*
X1736Y984D01*
X1735Y984D01*
X1734Y984D01*
X1733Y984D01*
X1732Y984D01*
X1731Y984D01*
X1730Y984D01*
X1729Y984D01*
X1728Y984D01*
X1727Y984D01*
X1726Y984D01*
X1725Y984D01*
X1724Y984D01*
X1723Y984D01*
X1722Y984D01*
X1721Y984D01*
X1720Y984D01*
X1719Y984D01*
X1718Y984D01*
X1717Y984D01*
X1716Y984D01*
X1715Y984D01*
X1714Y984D01*
X1713Y984D01*
X1712Y984D01*
X1711Y984D01*
X1710Y984D01*
X1709Y984D01*
X1708Y984D01*
X1707Y984D01*
X1706Y984D01*
X1705Y984D01*
X1704Y984D01*
X1703Y984D01*
X1702Y984D01*
X1701Y984D01*
X1700Y984D01*
X1699Y984D01*
X1698Y984D01*
X1697Y984D01*
X1696Y984D01*
X1695Y984D01*
X1694Y984D01*
X1693Y984D01*
X1692Y984D01*
X1691Y984D01*
X1690Y984D01*
X1689Y984D01*
X1688Y984D01*
X1687Y984D01*
X1686Y984D01*
X1685Y984D01*
X1684Y984D01*
X1683Y984D01*
X1682Y984D01*
X1681Y984D01*
X1680Y984D01*
X1679Y984D01*
X1678Y984D01*
X1677Y984D01*
X1676Y984D01*
X1675Y984D01*
X1674Y984D01*
X1673Y984D01*
X1672Y984D01*
X1671Y984D01*
X1670Y984D01*
X1669Y984D01*
X1668Y984D01*
X1667Y984D01*
X1666Y984D01*
X1665Y984D01*
X1664Y984D01*
X1663Y984D01*
X1662Y984D01*
X1661Y984D01*
X1660Y984D01*
X1659Y984D01*
X1658Y984D01*
X1657Y984D01*
X1656Y984D01*
X1655Y984D01*
X1654Y984D01*
X1653Y984D01*
X1652Y984D01*
X1651Y984D01*
X1650Y984D01*
X1649Y984D01*
X1648Y984D01*
X1647Y984D01*
X1646Y984D01*
X1645Y984D01*
X1644Y984D01*
X1643Y984D01*
X1642Y984D01*
X1641Y984D01*
X1640Y984D01*
X1639Y984D01*
X1638Y984D01*
X1637Y984D01*
X1636Y984D01*
X1635Y984D01*
X1634Y984D01*
X1633Y984D01*
X1632Y984D01*
X1631Y984D01*
X1630Y984D01*
X1629Y984D01*
X1628Y984D01*
X1627Y984D01*
X1626Y984D01*
X1625Y984D01*
X1624Y984D01*
X1623Y984D01*
X1622Y984D01*
X1621Y984D01*
X1620Y984D01*
X1619Y984D01*
X1618Y984D01*
X1617Y984D01*
X1616Y984D01*
X1615Y984D01*
X1614Y984D01*
X1613Y984D01*
X1612Y984D01*
X1611Y984D01*
X1610Y984D01*
X1609Y984D01*
X1608Y984D01*
X1607Y984D01*
X1606Y984D01*
X1605Y984D01*
X1604Y984D01*
X1603Y984D01*
X1602Y984D01*
X1601Y984D01*
X1600Y984D01*
X1599Y984D01*
X1598Y984D01*
X1597Y984D01*
X1596Y984D01*
X1595Y984D01*
X1594Y984D01*
X1593Y984D01*
X1592Y984D01*
X1591Y984D01*
X1590Y984D01*
X1589Y984D01*
X1588Y984D01*
X1587Y984D01*
X1586Y984D01*
X1585Y984D01*
X1584Y984D01*
X1583Y984D01*
X1582Y984D01*
X1581Y984D01*
X1580Y984D01*
X1579Y984D01*
X1578Y984D01*
X1577Y984D01*
X1576Y984D01*
X1575Y984D01*
X1574Y984D01*
X1573Y984D01*
X1572Y984D01*
X1571Y984D01*
X1570Y984D01*
X1569Y984D01*
X1568Y984D01*
X1567Y984D01*
X1566Y984D01*
X1565Y984D01*
X1564Y984D01*
X1563Y984D01*
X1562Y984D01*
X1561Y984D01*
X1560Y984D01*
X1559Y984D01*
X1558Y984D01*
X1557Y984D01*
X1556Y984D01*
X1555Y984D01*
X1554Y984D01*
X1553Y984D01*
X1552Y984D01*
X1551Y984D01*
X1550Y984D01*
X1549Y984D01*
X1548Y984D01*
X1547Y984D01*
X1546Y984D01*
X1545Y984D01*
X1544Y984D01*
X1543Y984D01*
X1542Y984D01*
X1541Y984D01*
X1540Y984D01*
X1539Y984D01*
X1538Y984D01*
X1537Y984D01*
X1536Y984D01*
X1535Y984D01*
X1534Y984D01*
X1533Y984D01*
X1532Y984D01*
X1531Y984D01*
X1530Y984D01*
X1529Y984D01*
X1528Y984D01*
X1527Y984D01*
X1526Y984D01*
X1525Y984D01*
X1524Y984D01*
X1523Y984D01*
X1522Y984D01*
X1521Y984D01*
X1520Y984D01*
X1519Y984D01*
X1518Y984D01*
X1517Y984D01*
X1516Y984D01*
X1515Y984D01*
X1514Y984D01*
X1513Y984D01*
X1512Y984D01*
X1511Y984D01*
X1510Y984D01*
X1509Y984D01*
X1508Y984D01*
X1507Y984D01*
X1506Y984D01*
X1505Y984D01*
X1504Y984D01*
X1503Y984D01*
X1502Y984D01*
X1501Y984D01*
X1500Y984D01*
X1499Y984D01*
X1498Y984D01*
X1497Y984D01*
X1496Y984D01*
X1495Y984D01*
X1494Y984D01*
X1493Y984D01*
X1492Y984D01*
X1491Y984D01*
X1490Y984D01*
X1489Y984D01*
X1488Y984D01*
X1487Y984D01*
X1486Y984D01*
X1485Y984D01*
X1484Y984D01*
X1483Y984D01*
X1482Y984D01*
X1481Y984D01*
X1480Y984D01*
X1479Y984D01*
X1478Y984D01*
X1477Y984D01*
X1476Y984D01*
X1475Y984D01*
X1474Y984D01*
X1473Y984D01*
X1472Y984D01*
X1471Y984D01*
X1470Y984D01*
X1469Y984D01*
X1468Y984D01*
X1467Y984D01*
X1466Y984D01*
X1465Y984D01*
X1464Y984D01*
X1463Y984D01*
X1462Y984D01*
X1461Y984D01*
X1460Y984D01*
X1459Y984D01*
X1458Y984D01*
X1457Y984D01*
X1456Y984D01*
X1455Y984D01*
X1454Y984D01*
X1453Y984D01*
X1452Y984D01*
X1451Y984D01*
X1450Y984D01*
X1449Y984D01*
X1448Y984D01*
X1447Y984D01*
X1446Y984D01*
X1445Y984D01*
X1444Y984D01*
X1443Y984D01*
X1442Y984D01*
X1441Y984D01*
X1440Y984D01*
X1439Y984D01*
X1438Y984D01*
X1437Y984D01*
X1436Y984D01*
X1435Y984D01*
X1434Y984D01*
X1433Y984D01*
X1432Y984D01*
X1431Y984D01*
X1430Y984D01*
X1429Y984D01*
X1428Y984D01*
X1427Y984D01*
X1426Y984D01*
X1425Y984D01*
X1424Y984D01*
X1423Y984D01*
X1422Y984D01*
X1421Y984D01*
X1420Y984D01*
X1419Y984D01*
X1418Y984D01*
X1417Y984D01*
X1416Y984D01*
X1415Y984D01*
X1414Y984D01*
X1413Y984D01*
X1412Y984D01*
X1411Y984D01*
X1410Y984D01*
X1409Y984D01*
X1408Y984D01*
X1407Y984D01*
X1406Y984D01*
X1405Y984D01*
X1404Y984D01*
X1403Y984D01*
X1402Y984D01*
X1401Y984D01*
X1400Y984D01*
X1399Y984D01*
X1398Y984D01*
X1397Y984D01*
X1396Y984D01*
X1395Y984D01*
X1394Y984D01*
X1393Y984D01*
X1392Y984D01*
X1391Y984D01*
X1390Y984D01*
X1389Y984D01*
X1388Y984D01*
X1387Y984D01*
X1386Y984D01*
X1385Y984D01*
X1384Y984D01*
X1383Y984D01*
X1382Y984D01*
X1381Y984D01*
X1380Y984D01*
X1379Y984D01*
X1378Y984D01*
X1377Y984D01*
X1376Y984D01*
X1375Y984D01*
X1374Y984D01*
X1373Y984D01*
X1372Y984D01*
X1371Y984D01*
X1370Y984D01*
X1369Y984D01*
X1368Y984D01*
X1367Y984D01*
X1366Y984D01*
X1365Y984D01*
X1364Y984D01*
X1363Y984D01*
X1362Y984D01*
X1361Y984D01*
X1360Y984D01*
X1359Y984D01*
X1358Y984D01*
X1357Y984D01*
X1356Y984D01*
X1355Y984D01*
X1354Y984D01*
X1353Y984D01*
X1352Y984D01*
X1351Y984D01*
X1350Y984D01*
X1349Y984D01*
X1348Y984D01*
X1347Y984D01*
X1346Y984D01*
X1345Y984D01*
X1344Y984D01*
X1343Y984D01*
X1342Y984D01*
X1341Y984D01*
X1340Y984D01*
X1339Y984D01*
X1338Y984D01*
X1337Y984D01*
X1336Y984D01*
X1335Y984D01*
X1334Y984D01*
X1333Y984D01*
X1332Y984D01*
X1331Y984D01*
X1330Y984D01*
X1329Y984D01*
X1328Y984D01*
X1327Y984D01*
X1326Y984D01*
X1325Y984D01*
X1324Y984D01*
X1323Y984D01*
X1322Y984D01*
X1321Y984D01*
X1320Y984D01*
X1319Y984D01*
X1318Y984D01*
X1317Y984D01*
X1316Y984D01*
X1315Y984D01*
X1314Y984D01*
X1313Y984D01*
X1312Y984D01*
X1311Y984D01*
X1310Y984D01*
X1309Y984D01*
X1308Y984D01*
X1307Y984D01*
X1306Y984D01*
X1305Y984D01*
X1304Y984D01*
X1303Y984D01*
X1302Y984D01*
X1301Y984D01*
X1300Y984D01*
X1299Y984D01*
X1298Y984D01*
X1297Y984D01*
X1296Y984D01*
X1295Y984D01*
X1294Y984D01*
X1293Y984D01*
X1292Y984D01*
X1291Y984D01*
X1290Y984D01*
X1289Y984D01*
X1288Y984D01*
X1287Y984D01*
X1286Y984D01*
X1285Y984D01*
X1284Y984D01*
X1283Y984D01*
X1282Y984D01*
X1281Y984D01*
X1280Y984D01*
X1279Y984D01*
X1278Y984D01*
X1277Y984D01*
X1276Y984D01*
X1275Y984D01*
X1274Y984D01*
X1273Y984D01*
X1272Y984D01*
X1271Y984D01*
X1270Y984D01*
X1269Y984D01*
X1268Y984D01*
X1267Y984D01*
X1266Y984D01*
X1265Y984D01*
X1264Y984D01*
X1263Y984D01*
X1262Y984D01*
X1261Y984D01*
X1260Y984D01*
X1259Y984D01*
X1258Y984D01*
X1257Y984D01*
X1256Y984D01*
X1255Y984D01*
X1254Y984D01*
X1253Y984D01*
X1252Y984D01*
X1251Y984D01*
X1250Y984D01*
X1249Y984D01*
X1248Y984D01*
X1247Y984D01*
X1246Y984D01*
X1245Y984D01*
X1244Y984D01*
X1243Y984D01*
X1242Y984D01*
X1241Y984D01*
X1240Y984D01*
X1239Y984D01*
X1238Y984D01*
X1237Y984D01*
X1236Y984D01*
X1235Y984D01*
X1234Y984D01*
X1233Y984D01*
X1232Y984D01*
X1231Y984D01*
X1230Y984D01*
X1229Y984D01*
X1228Y984D01*
X1227Y984D01*
X1226Y984D01*
X1225Y984D01*
X1224Y984D01*
X1223Y984D01*
X1222Y984D01*
X1221Y984D01*
X1220Y984D01*
X1219Y984D01*
X1218Y984D01*
X1217Y984D01*
X1216Y984D01*
X1215Y984D01*
X1214Y984D01*
X1213Y984D01*
X1212Y984D01*
X1211Y984D01*
X1210Y984D01*
X1209Y984D01*
X1208Y984D01*
X1207Y984D01*
X1206Y984D01*
X1205Y984D01*
X1204Y984D01*
X1203Y984D01*
X1202Y984D01*
X1201Y984D01*
X1200Y984D01*
X1199Y984D01*
X1198Y984D01*
X1197Y984D01*
X1196Y984D01*
X1195Y984D01*
X1194Y984D01*
X1193Y984D01*
X1192Y984D01*
X1191Y984D01*
X1190Y984D01*
X1189Y984D01*
X1188Y984D01*
X1187Y984D01*
X1186Y984D01*
X1185Y984D01*
X1184Y984D01*
X1183Y984D01*
X1182Y984D01*
X1181Y984D01*
X1180Y984D01*
X1179Y984D01*
X1178Y984D01*
X1177Y984D01*
X1176Y984D01*
X1175Y984D01*
X1174Y984D01*
X1173Y984D01*
X1172Y984D01*
X1171Y984D01*
X1170Y984D01*
X1169Y984D01*
X1168Y984D01*
X1167Y984D01*
X1166Y984D01*
X1165Y984D01*
X1164Y984D01*
X1163Y984D01*
X1162Y984D01*
X1161Y984D01*
X1160Y984D01*
X1159Y984D01*
X1158Y984D01*
X1157Y984D01*
X1156Y984D01*
X1155Y984D01*
X1154Y984D01*
X1153Y984D01*
X1152Y984D01*
X1151Y984D01*
X1150Y984D01*
X1149Y984D01*
X1148Y984D01*
X1147Y984D01*
X1146Y984D01*
X1145Y984D01*
X1144Y984D01*
X1143Y984D01*
X1142Y984D01*
X1141Y984D01*
X1140Y984D01*
X1139Y984D01*
X1138Y984D01*
X1137Y984D01*
X1136Y984D01*
X1135Y984D01*
X1134Y984D01*
X1133Y984D01*
X1132Y984D01*
X1131Y984D01*
X1130Y984D01*
X1129Y984D01*
X1128Y984D01*
X1127Y984D01*
X1126Y984D01*
X1125Y984D01*
X1124Y984D01*
X1123Y984D01*
X1122Y984D01*
X1121Y984D01*
X1120Y984D01*
X1119Y984D01*
X1118Y984D01*
X1117Y984D01*
X1116Y984D01*
X1115Y984D01*
X1114Y984D01*
X1113Y984D01*
X1112Y984D01*
X1111Y984D01*
X1110Y984D01*
X1109Y984D01*
X1108Y984D01*
X1107Y984D01*
X1106Y984D01*
X1105Y984D01*
X1104Y984D01*
X1103Y984D01*
X1102Y984D01*
X1101Y984D01*
X1100Y984D01*
X1099Y984D01*
X1098Y984D01*
X1097Y984D01*
X1096Y984D01*
X1095Y984D01*
X1094Y984D01*
X1093Y984D01*
X1092Y984D01*
X1091Y984D01*
X1090Y984D01*
X1089Y984D01*
X1088Y984D01*
X1087Y984D01*
X1086Y984D01*
X1085Y984D01*
X1084Y984D01*
X1083Y984D01*
X1082Y984D01*
X1081Y984D01*
X1080Y984D01*
X1079Y984D01*
X1078Y984D01*
X1077Y984D01*
X1076Y984D01*
X1075Y984D01*
X1074Y984D01*
X1073Y984D01*
X1072Y984D01*
X1071Y984D01*
X1070Y984D01*
X1069Y984D01*
X1068Y984D01*
X1067Y984D01*
X1066Y984D01*
X1065Y984D01*
X1064Y984D01*
X1063Y984D01*
X1062Y984D01*
X1061Y984D01*
X1060Y984D01*
X1059Y984D01*
X1058Y984D01*
X1057Y984D01*
X1056Y984D01*
X1055Y984D01*
X1054Y984D01*
X1053Y984D01*
X1052Y984D01*
X1051Y984D01*
X1050Y984D01*
X1049Y984D01*
X1048Y984D01*
X1047Y984D01*
X1046Y984D01*
X1045Y984D01*
X1044Y984D01*
X1043Y984D01*
X1042Y984D01*
X1041Y984D01*
X1040Y984D01*
X1039Y984D01*
X1038Y984D01*
X1037Y984D01*
X1036Y984D01*
X1035Y984D01*
X1034Y984D01*
X1033Y984D01*
X1032Y984D01*
X1031Y984D01*
X1030Y984D01*
X1029Y984D01*
X1028Y984D01*
X1027Y984D01*
X1026Y984D01*
X1025Y984D01*
X1024Y984D01*
X1023Y984D01*
X1022Y984D01*
X1021Y984D01*
X1020Y984D01*
X1019Y984D01*
X1018Y984D01*
X1017Y984D01*
X1016Y984D01*
X1015Y984D01*
X1014Y984D01*
X1013Y984D01*
X1012Y984D01*
X1011Y984D01*
X1010Y984D01*
X1009Y984D01*
X1008Y984D01*
X1007Y984D01*
X1006Y984D01*
X1005Y984D01*
X1004Y984D01*
X1003Y984D01*
X1002Y984D01*
X1001Y984D01*
X1000Y984D01*
X999Y984D01*
X998Y984D01*
X997Y984D01*
X996Y984D01*
X995Y984D01*
X994Y984D01*
X993Y984D01*
X992Y984D01*
X991Y984D01*
X990Y984D01*
X989Y984D01*
X988Y984D01*
X987Y984D01*
X986Y984D01*
X985Y984D01*
X984Y984D01*
X983Y984D01*
X982Y984D01*
X981Y984D01*
X980Y984D01*
X979Y984D01*
X978Y984D01*
X977Y984D01*
X976Y984D01*
X975Y984D01*
X974Y984D01*
X973Y984D01*
X972Y984D01*
X971Y984D01*
X970Y984D01*
X969Y984D01*
X968Y984D01*
X967Y984D01*
X966Y984D01*
X965Y984D01*
X964Y984D01*
X963Y984D01*
X962Y984D01*
X961Y984D01*
X960Y984D01*
X959Y984D01*
X958Y984D01*
X957Y984D01*
X956Y984D01*
X955Y984D01*
X954Y984D01*
X953Y984D01*
X952Y984D01*
X951Y984D01*
X950Y984D01*
X949Y984D01*
X948Y984D01*
X947Y984D01*
X946Y984D01*
X945Y984D01*
X944Y984D01*
X943Y984D01*
X942Y984D01*
X941Y984D01*
X940Y984D01*
X939Y984D01*
X938Y984D01*
X937Y984D01*
X936Y984D01*
X935Y984D01*
X934Y984D01*
X933Y984D01*
X932Y984D01*
X931Y984D01*
X930Y984D01*
X929Y984D01*
X928Y984D01*
X927Y984D01*
X926Y984D01*
X925Y984D01*
X924Y984D01*
X923Y984D01*
X922Y984D01*
X921Y984D01*
X920Y984D01*
X919Y984D01*
X918Y984D01*
X917Y984D01*
X916Y984D01*
X915Y984D01*
X914Y984D01*
X913Y984D01*
X912Y984D01*
X911Y984D01*
X910Y984D01*
X909Y984D01*
X908Y984D01*
X907Y984D01*
X906Y984D01*
X905Y984D01*
X904Y984D01*
X903Y984D01*
X902Y984D01*
X901Y984D01*
X900Y984D01*
X899Y984D01*
X898Y984D01*
X897Y984D01*
X896Y984D01*
X895Y984D01*
X894Y984D01*
X893Y984D01*
X892Y984D01*
X891Y984D01*
X890Y984D01*
X889Y984D01*
X888Y984D01*
X887Y984D01*
X886Y984D01*
X885Y984D01*
X884Y984D01*
X883Y984D01*
X882Y984D01*
X881Y984D01*
X880Y984D01*
X879Y984D01*
X878Y984D01*
X877Y984D01*
X876Y984D01*
X875Y984D01*
X874Y984D01*
X873Y984D01*
X872Y984D01*
X871Y984D01*
X870Y984D01*
X869Y984D01*
X868Y984D01*
X867Y984D01*
X866Y984D01*
X865Y984D01*
X864Y984D01*
X863Y984D01*
X862Y984D01*
X861Y984D01*
X860Y984D01*
X859Y984D01*
X858Y984D01*
X857Y984D01*
X856Y984D01*
X855Y984D01*
X854Y984D01*
X853Y984D01*
X852Y984D01*
X851Y984D01*
X850Y984D01*
X849Y984D01*
X848Y984D01*
X847Y984D01*
X846Y984D01*
X845Y984D01*
X844Y984D01*
X843Y984D01*
X842Y984D01*
X841Y984D01*
X840Y984D01*
X839Y984D01*
X838Y984D01*
X837Y984D01*
X836Y984D01*
X835Y984D01*
X834Y984D01*
X833Y984D01*
X832Y984D01*
X831Y984D01*
X830Y984D01*
X829Y984D01*
X828Y984D01*
X827Y984D01*
X826Y984D01*
X825Y984D01*
X824Y984D01*
X823Y984D01*
X822Y984D01*
X821Y984D01*
X820Y984D01*
X819Y984D01*
X818Y984D01*
X817Y984D01*
X816Y984D01*
X815Y984D01*
X814Y984D01*
X813Y984D01*
X812Y984D01*
X811Y984D01*
X810Y984D01*
X809Y984D01*
X808Y984D01*
X807Y984D01*
X806Y984D01*
X805Y984D01*
X804Y984D01*
X803Y984D01*
X802Y984D01*
X801Y984D01*
X800Y984D01*
X799Y984D01*
X798Y984D01*
X797Y984D01*
X796Y984D01*
X795Y984D01*
X794Y984D01*
X793Y984D01*
X792Y984D01*
X791Y984D01*
X790Y984D01*
X789Y984D01*
X788Y984D01*
X787Y984D01*
X786Y984D01*
X785Y984D01*
X784Y984D01*
X783Y984D01*
X782Y984D01*
X781Y984D01*
X780Y984D01*
X779Y984D01*
X778Y984D01*
X777Y984D01*
X776Y984D01*
X775Y984D01*
X774Y984D01*
X773Y984D01*
X772Y984D01*
X771Y984D01*
X770Y984D01*
X769Y984D01*
X768Y984D01*
X767Y984D01*
X766Y984D01*
X765Y984D01*
X764Y984D01*
X763Y984D01*
X762Y984D01*
X761Y984D01*
X760Y984D01*
X759Y984D01*
X758Y984D01*
X757Y984D01*
X756Y984D01*
X755Y984D01*
X754Y984D01*
X753Y984D01*
X752Y984D01*
X751Y984D01*
X750Y984D01*
X749Y984D01*
X748Y984D01*
X747Y984D01*
X746Y984D01*
X745Y984D01*
X744Y984D01*
X743Y984D01*
X742Y984D01*
X741Y984D01*
X740Y984D01*
X739Y984D01*
X738Y984D01*
X737Y984D01*
X736Y984D01*
X735Y984D01*
X734Y984D01*
X733Y984D01*
X732Y984D01*
X731Y984D01*
X730Y984D01*
X729Y984D01*
X728Y984D01*
X727Y984D01*
X726Y984D01*
X725Y984D01*
X724Y984D01*
X723Y984D01*
X722Y984D01*
X721Y984D01*
X720Y984D01*
X719Y984D01*
X718Y984D01*
X717Y984D01*
X716Y984D01*
X715Y984D01*
X714Y984D01*
X713Y984D01*
X712Y984D01*
X711Y984D01*
X710Y984D01*
X709Y984D01*
X708Y984D01*
X707Y984D01*
X706Y984D01*
X705Y984D01*
X704Y984D01*
X703Y984D01*
X702Y984D01*
X701Y984D01*
X700Y984D01*
X699Y984D01*
X698Y984D01*
X697Y984D01*
X696Y984D01*
X695Y984D01*
X694Y984D01*
X693Y984D01*
X692Y984D01*
X691Y984D01*
X690Y984D01*
X689Y984D01*
X688Y984D01*
X687Y984D01*
X686Y984D01*
X685Y984D01*
X684Y984D01*
X683Y984D01*
X682Y984D01*
X681Y984D01*
X680Y984D01*
X679Y984D01*
X678Y984D01*
X677Y984D01*
X676Y984D01*
X675Y984D01*
X674Y984D01*
X673Y984D01*
X672Y984D01*
X671Y984D01*
X670Y984D01*
X669Y984D01*
X668Y984D01*
X667Y984D01*
X666Y984D01*
X665Y984D01*
X664Y984D01*
X663Y984D01*
X662Y984D01*
X661Y984D01*
X660Y984D01*
X659Y984D01*
X658Y984D01*
X657Y984D01*
X656Y984D01*
X655Y984D01*
X654Y984D01*
X653Y984D01*
X652Y984D01*
X651Y984D01*
X650Y984D01*
X649Y984D01*
X648Y984D01*
X647Y984D01*
X646Y984D01*
X645Y984D01*
X644Y984D01*
X643Y984D01*
X642Y984D01*
X641Y984D01*
X640Y984D01*
X639Y984D01*
X638Y984D01*
X637Y984D01*
X636Y984D01*
X635Y984D01*
X634Y984D01*
X633Y984D01*
X632Y984D01*
X631Y984D01*
X630Y984D01*
X629Y984D01*
X628Y984D01*
X627Y984D01*
X626Y984D01*
X625Y984D01*
X624Y984D01*
X623Y984D01*
X622Y984D01*
X621Y984D01*
X620Y984D01*
X619Y984D01*
X618Y984D01*
X617Y984D01*
X616Y984D01*
X615Y984D01*
X614Y984D01*
X613Y984D01*
X612Y984D01*
X611Y984D01*
X610Y984D01*
X609Y984D01*
X608Y984D01*
X607Y984D01*
X606Y984D01*
X605Y984D01*
X604Y984D01*
X603Y984D01*
X602Y984D01*
X601Y984D01*
X600Y984D01*
X599Y984D01*
X598Y984D01*
X597Y984D01*
X596Y984D01*
X595Y984D01*
X594Y984D01*
X593Y984D01*
X592Y984D01*
X591Y984D01*
X590Y984D01*
X589Y984D01*
X588Y984D01*
X587Y984D01*
X586Y984D01*
X585Y984D01*
X584Y984D01*
X583Y984D01*
X582Y984D01*
X581Y984D01*
X580Y984D01*
X579Y984D01*
X578Y984D01*
X577Y984D01*
X576Y984D01*
X575Y984D01*
X574Y984D01*
X573Y984D01*
X572Y984D01*
X571Y984D01*
X570Y984D01*
X569Y984D01*
X568Y984D01*
X567Y984D01*
X566Y984D01*
X565Y984D01*
X564Y984D01*
X563Y984D01*
X562Y984D01*
X561Y984D01*
X560Y984D01*
X559Y984D01*
X558Y984D01*
X557Y984D01*
X556Y984D01*
X555Y984D01*
X554Y984D01*
X553Y984D01*
X552Y984D01*
X551Y984D01*
X550Y984D01*
X549Y984D01*
X548Y984D01*
X547Y984D01*
X546Y984D01*
X545Y984D01*
X544Y984D01*
X543Y984D01*
X542Y984D01*
X541Y984D01*
X540Y984D01*
X539Y984D01*
X538Y984D01*
X537Y984D01*
X536Y984D01*
X535Y984D01*
X534Y984D01*
X533Y984D01*
X532Y984D01*
X531Y984D01*
X530Y984D01*
X529Y984D01*
X528Y984D01*
X527Y984D01*
X526Y984D01*
X525Y984D01*
X524Y984D01*
X523Y984D01*
X522Y984D01*
X521Y984D01*
X520Y984D01*
X519Y984D01*
X518Y984D01*
X517Y984D01*
X516Y984D01*
X515Y984D01*
X514Y984D01*
X513Y984D01*
X512Y984D01*
X511Y984D01*
X510Y984D01*
X509Y984D01*
X508Y984D01*
X507Y984D01*
X506Y984D01*
X505Y984D01*
X504Y984D01*
X503Y984D01*
X502Y984D01*
X501Y984D01*
X500Y984D01*
X499Y984D01*
X498Y984D01*
X497Y984D01*
X496Y984D01*
X495Y984D01*
X494Y984D01*
X493Y984D01*
X492Y984D01*
X491Y984D01*
X490Y984D01*
X489Y984D01*
X488Y984D01*
X487Y984D01*
X486Y984D01*
X485Y984D01*
X484Y984D01*
X483Y984D01*
X482Y984D01*
X481Y984D01*
X480Y984D01*
X479Y984D01*
X478Y984D01*
X477Y984D01*
X476Y984D01*
X475Y984D01*
X474Y984D01*
X473Y984D01*
X472Y984D01*
X471Y984D01*
X470Y984D01*
X469Y984D01*
X468Y984D01*
X467Y984D01*
X466Y984D01*
X465Y984D01*
X464Y984D01*
X463Y984D01*
X462Y984D01*
X461Y984D01*
X460Y984D01*
X459Y984D01*
X458Y984D01*
X457Y984D01*
X456Y984D01*
X455Y984D01*
X454Y984D01*
X453Y984D01*
X452Y984D01*
X451Y984D01*
X450Y984D01*
X449Y984D01*
X448Y984D01*
X447Y984D01*
X446Y984D01*
X445Y984D01*
X444Y984D01*
X443Y984D01*
X442Y984D01*
X441Y984D01*
X440Y984D01*
X439Y984D01*
X438Y984D01*
X437Y984D01*
X436Y984D01*
X435Y984D01*
X434Y984D01*
X433Y984D01*
X432Y984D01*
X431Y984D01*
X430Y984D01*
X429Y984D01*
X428Y984D01*
X427Y984D01*
X426Y984D01*
X425Y984D01*
X424Y984D01*
X423Y984D01*
X422Y984D01*
X421Y984D01*
X420Y984D01*
X419Y984D01*
X418Y984D01*
X417Y984D01*
X416Y984D01*
X415Y984D01*
X414Y984D01*
X413Y984D01*
X412Y984D01*
X411Y984D01*
X410Y984D01*
X409Y984D01*
X408Y984D01*
X407Y984D01*
X406Y984D01*
X405Y984D01*
X404Y984D01*
X403Y984D01*
X402Y984D01*
X401Y984D01*
X400Y984D01*
X399Y984D01*
X398Y984D01*
X397Y984D01*
X396Y984D01*
X395Y984D01*
X394Y984D01*
X393Y984D01*
X392Y984D01*
X391Y984D01*
X390Y984D01*
X389Y984D01*
X388Y984D01*
X387Y984D01*
X386Y984D01*
X385Y984D01*
X384Y984D01*
X383Y984D01*
X382Y984D01*
X381Y984D01*
X380Y984D01*
X379Y984D01*
X378Y984D01*
X377Y984D01*
X376Y984D01*
X375Y984D01*
X374Y984D01*
X373Y984D01*
X372Y984D01*
X371Y984D01*
X370Y984D01*
X369Y984D01*
X368Y984D01*
X367Y984D01*
X366Y984D01*
X365Y984D01*
X364Y984D01*
X363Y984D01*
X362Y984D01*
X361Y984D01*
X360Y984D01*
X359Y984D01*
X358Y984D01*
X357Y984D01*
X356Y984D01*
X355Y984D01*
X354Y984D01*
X353Y984D01*
X352Y984D01*
X351Y984D01*
X350Y984D01*
X349Y984D01*
X348Y984D01*
X347Y984D01*
X346Y984D01*
X345Y984D01*
X344Y984D01*
X343Y984D01*
X342Y984D01*
X341Y984D01*
X340Y984D01*
X339Y984D01*
X338Y984D01*
X337Y984D01*
X336Y984D01*
X335Y984D01*
X334Y984D01*
X333Y984D01*
X332Y984D01*
X331Y984D01*
X330Y984D01*
X329Y984D01*
X328Y984D01*
X327Y984D01*
X326Y984D01*
X325Y984D01*
X324Y984D01*
X323Y984D01*
X322Y984D01*
X321Y984D01*
X320Y984D01*
X319Y984D01*
X318Y984D01*
X317Y984D01*
X316Y984D01*
X315Y984D01*
X314Y984D01*
X313Y984D01*
X312Y984D01*
X311Y984D01*
X310Y984D01*
X309Y984D01*
X308Y984D01*
X307Y984D01*
X306Y984D01*
X305Y984D01*
X304Y984D01*
X303Y984D01*
X302Y984D01*
X301Y984D01*
X300Y984D01*
X299Y984D01*
X298Y984D01*
X297Y984D01*
X296Y984D01*
X295Y984D01*
X294Y984D01*
X293Y984D01*
X292Y984D01*
X291Y984D01*
X290Y984D01*
X289Y984D01*
X288Y984D01*
X287Y984D01*
X286Y984D01*
X285Y984D01*
X284Y984D01*
X283Y984D01*
X282Y984D01*
X281Y984D01*
X280Y984D01*
X279Y984D01*
X278Y984D01*
X277Y984D01*
X276Y984D01*
X275Y984D01*
X274Y984D01*
X273Y984D01*
X272Y984D01*
X271Y984D01*
X270Y984D01*
X269Y984D01*
X268Y984D01*
X267Y984D01*
X266Y984D01*
X265Y984D01*
X264Y984D01*
X263Y984D01*
X262Y984D01*
X261Y984D01*
X260Y984D01*
X259Y984D01*
X258Y984D01*
X257Y984D01*
X256Y984D01*
X255Y984D01*
X254Y984D01*
X253Y984D01*
X252Y984D01*
X251Y984D01*
X250Y984D01*
X249Y984D01*
X248Y984D01*
X247Y984D01*
X246Y984D01*
X245Y984D01*
X244Y984D01*
X243Y984D01*
X242Y984D01*
X241Y984D01*
X240Y984D01*
X239Y984D01*
X238Y984D01*
X237Y984D01*
X236Y984D01*
X235Y984D01*
X234Y984D01*
X233Y984D01*
X232Y984D01*
X231Y984D01*
X230Y984D01*
X229Y984D01*
X228Y984D01*
X227Y984D01*
X226Y984D01*
X225Y984D01*
X224Y984D01*
X223Y984D01*
X222Y984D01*
X221Y984D01*
X220Y984D01*
X219Y984D01*
X218Y984D01*
X217Y984D01*
X216Y984D01*
X215Y984D01*
X214Y984D01*
X213Y984D01*
X212Y984D01*
X211Y984D01*
X210Y984D01*
X209Y984D01*
X208Y984D01*
X207Y984D01*
X206Y984D01*
X205Y984D01*
X204Y984D01*
X203Y984D01*
X202Y984D01*
X201Y984D01*
X200Y984D01*
X199Y984D01*
X198Y984D01*
X197Y984D01*
X196Y984D01*
X195Y984D01*
X194Y984D01*
X193Y984D01*
X192Y984D01*
X191Y984D01*
X190Y984D01*
X189Y984D01*
X188Y984D01*
X187Y984D01*
X186Y984D01*
X185Y984D01*
X184Y984D01*
X183Y984D01*
X182Y984D01*
X181Y984D01*
X180Y984D01*
X179Y984D01*
X178Y984D01*
X177Y984D01*
X176Y984D01*
X175Y984D01*
X174Y984D01*
X173Y984D01*
X172Y984D01*
X171Y984D01*
X170Y984D01*
X169Y984D01*
X168Y984D01*
X167Y984D01*
X166Y984D01*
X165Y984D01*
X164Y984D01*
X163Y984D01*
X162Y984D01*
X161Y984D01*
X160Y984D01*
X159Y984D01*
X158Y984D01*
X157Y984D01*
X156Y984D01*
X155Y984D01*
X154Y984D01*
X153Y984D01*
X152Y984D01*
X151Y984D01*
X150Y984D01*
X149Y984D01*
X148Y984D01*
X147Y984D01*
X146Y984D01*
X145Y984D01*
X144Y984D01*
X143Y984D01*
X142Y984D01*
X141Y984D01*
X140Y984D01*
X139Y984D01*
X138Y984D01*
X137Y984D01*
X136Y984D01*
X135Y984D01*
X134Y984D01*
X133Y984D01*
X132Y984D01*
X131Y984D01*
X130Y984D01*
X129Y984D01*
X128Y984D01*
X127Y984D01*
X126Y984D01*
X125Y984D01*
X124Y984D01*
X123Y984D01*
X122Y984D01*
X121Y984D01*
X120Y984D01*
X119Y984D01*
X118Y984D01*
X117Y984D01*
X116Y984D01*
X115Y984D01*
X114Y984D01*
X113Y984D01*
X112Y984D01*
X111Y984D01*
X110Y984D01*
X109Y984D01*
X108Y984D01*
X107Y984D01*
X106Y984D01*
X105Y984D01*
X104Y984D01*
X103Y984D01*
X102Y984D01*
X101Y984D01*
X100Y984D01*
X99Y984D01*
X98Y984D01*
X97Y984D01*
X96Y984D01*
X95Y984D01*
X94Y984D01*
X93Y984D01*
X92Y984D01*
X91Y984D01*
X90Y984D01*
X89Y984D01*
X88Y984D01*
X87Y984D01*
X86Y984D01*
X85Y984D01*
X84Y984D01*
X83Y984D01*
X82Y984D01*
X81Y984D01*
X80Y984D01*
X79Y984D01*
X78Y984D01*
X77Y984D01*
X76Y984D01*
X75Y984D01*
X74Y984D01*
X73Y984D01*
X72Y984D01*
X71Y984D01*
X70Y984D01*
X69Y984D01*
X68Y984D01*
X67Y984D01*
X66Y984D01*
X65Y984D01*
X64Y984D01*
X63Y984D01*
X62Y984D01*
X61Y984D01*
X60Y984D01*
X59Y984D01*
X58Y984D01*
X57Y984D01*
X56Y984D01*
X55Y984D01*
X54Y984D01*
X53Y984D01*
X52Y984D01*
X51Y984D01*
X50Y984D01*
X49Y984D01*
X48Y984D01*
X47Y984D01*
X46Y984D01*
X45Y984D01*
X44Y984D01*
X43Y984D01*
X42Y984D01*
X41Y984D01*
X40Y984D01*
X39Y984D01*
X38Y984D01*
X37Y984D01*
X36Y984D01*
X35Y984D01*
X34Y984D01*
X33Y984D01*
X32Y984D01*
X31Y984D01*
X30Y984D01*
X29Y984D01*
X28Y984D01*
X27Y984D01*
X26Y984D01*
X25Y984D01*
X24Y984D01*
X23Y984D01*
X22Y984D01*
X21Y984D01*
X20Y984D01*
X19Y984D01*
X18Y984D01*
X17Y984D01*
X16Y984D01*
X15Y984D01*
X14Y984D01*
X13Y984D01*
X12Y984D01*
X11Y984D01*
X10Y984D01*
X9Y984D01*
X8Y984D01*
X7Y984D01*
X6Y984D01*
X5Y984D01*
X4Y984D01*
X3Y984D01*
X2Y984D01*
X1Y984D01*
X0Y984D01*
D02*
G04 End of contour*
M02*