G04 MADE WITH FRITZING*
G04 WWW.FRITZING.ORG*
G04 DOUBLE SIDED*
G04 HOLES PLATED*
G04 CONTOUR ON CENTER OF CONTOUR VECTOR*
%ASAXBY*%
%FSLAX23Y23*%
%MOIN*%
%OFA0B0*%
%SFA1.0B1.0*%
%ADD10R,0.032835X0.032835*%
%ADD11C,0.010000*%
%ADD12R,0.001000X0.001000*%
%LNSILK1*%
G90*
G70*
G54D10*
X288Y822D03*
X248Y822D03*
X370Y822D03*
X329Y822D03*
X410Y822D03*
X248Y863D03*
X228Y721D03*
X431Y721D03*
G54D11*
X1385Y702D02*
X1585Y702D01*
D02*
X1585Y702D02*
X1585Y636D01*
D02*
X1585Y636D02*
X1385Y636D01*
D02*
X1385Y636D02*
X1385Y702D01*
D02*
X2025Y719D02*
X1725Y719D01*
D02*
X1725Y719D02*
X1725Y619D01*
D02*
X1725Y619D02*
X2025Y619D01*
D02*
X2025Y619D02*
X2025Y719D01*
D02*
X1225Y719D02*
X625Y719D01*
D02*
X625Y719D02*
X625Y619D01*
D02*
X625Y619D02*
X1225Y619D01*
D02*
X1225Y619D02*
X1225Y719D01*
D02*
X421Y197D02*
X421Y119D01*
D02*
X224Y276D02*
X392Y276D01*
D02*
X224Y40D02*
X392Y40D01*
D02*
X185Y197D02*
X185Y119D01*
D02*
X303Y178D02*
X303Y138D01*
D02*
X323Y158D02*
X283Y158D01*
D02*
X1665Y197D02*
X1665Y119D01*
D02*
X1468Y276D02*
X1636Y276D01*
D02*
X1468Y40D02*
X1636Y40D01*
D02*
X1429Y197D02*
X1429Y119D01*
D02*
X1547Y178D02*
X1547Y138D01*
D02*
X1567Y158D02*
X1527Y158D01*
D02*
X2121Y197D02*
X2121Y119D01*
D02*
X1924Y276D02*
X2092Y276D01*
D02*
X1924Y40D02*
X2092Y40D01*
D02*
X1885Y197D02*
X1885Y119D01*
D02*
X2003Y178D02*
X2003Y138D01*
D02*
X2023Y158D02*
X1983Y158D01*
D02*
X585Y402D02*
X785Y402D01*
D02*
X785Y402D02*
X785Y336D01*
D02*
X785Y336D02*
X585Y336D01*
D02*
X585Y336D02*
X585Y402D01*
D02*
X1185Y402D02*
X1385Y402D01*
D02*
X1385Y402D02*
X1385Y336D01*
D02*
X1385Y336D02*
X1185Y336D01*
D02*
X1185Y336D02*
X1185Y402D01*
D02*
X1185Y502D02*
X1385Y502D01*
D02*
X1385Y502D02*
X1385Y436D01*
D02*
X1385Y436D02*
X1185Y436D01*
D02*
X1185Y436D02*
X1185Y502D01*
G54D12*
X0Y984D02*
X2361Y984D01*
X0Y983D02*
X2361Y983D01*
X0Y982D02*
X2361Y982D01*
X0Y981D02*
X2361Y981D01*
X0Y980D02*
X3Y980D01*
X2358Y980D02*
X2361Y980D01*
X0Y979D02*
X3Y979D01*
X2358Y979D02*
X2361Y979D01*
X0Y978D02*
X3Y978D01*
X2358Y978D02*
X2361Y978D01*
X0Y977D02*
X3Y977D01*
X2358Y977D02*
X2361Y977D01*
X0Y976D02*
X3Y976D01*
X2358Y976D02*
X2361Y976D01*
X0Y975D02*
X3Y975D01*
X2358Y975D02*
X2361Y975D01*
X0Y974D02*
X3Y974D01*
X2358Y974D02*
X2361Y974D01*
X0Y973D02*
X3Y973D01*
X2358Y973D02*
X2361Y973D01*
X0Y972D02*
X3Y972D01*
X2358Y972D02*
X2361Y972D01*
X0Y971D02*
X3Y971D01*
X2358Y971D02*
X2361Y971D01*
X0Y970D02*
X3Y970D01*
X2358Y970D02*
X2361Y970D01*
X0Y969D02*
X3Y969D01*
X2358Y969D02*
X2361Y969D01*
X0Y968D02*
X3Y968D01*
X2358Y968D02*
X2361Y968D01*
X0Y967D02*
X3Y967D01*
X2358Y967D02*
X2361Y967D01*
X0Y966D02*
X3Y966D01*
X2358Y966D02*
X2361Y966D01*
X0Y965D02*
X3Y965D01*
X2358Y965D02*
X2361Y965D01*
X0Y964D02*
X3Y964D01*
X2358Y964D02*
X2361Y964D01*
X0Y963D02*
X3Y963D01*
X2358Y963D02*
X2361Y963D01*
X0Y962D02*
X3Y962D01*
X2358Y962D02*
X2361Y962D01*
X0Y961D02*
X3Y961D01*
X2358Y961D02*
X2361Y961D01*
X0Y960D02*
X3Y960D01*
X2358Y960D02*
X2361Y960D01*
X0Y959D02*
X3Y959D01*
X2358Y959D02*
X2361Y959D01*
X0Y958D02*
X3Y958D01*
X2358Y958D02*
X2361Y958D01*
X0Y957D02*
X3Y957D01*
X2358Y957D02*
X2361Y957D01*
X0Y956D02*
X3Y956D01*
X2358Y956D02*
X2361Y956D01*
X0Y955D02*
X3Y955D01*
X2358Y955D02*
X2361Y955D01*
X0Y954D02*
X3Y954D01*
X2358Y954D02*
X2361Y954D01*
X0Y953D02*
X3Y953D01*
X2358Y953D02*
X2361Y953D01*
X0Y952D02*
X3Y952D01*
X2358Y952D02*
X2361Y952D01*
X0Y951D02*
X3Y951D01*
X2358Y951D02*
X2361Y951D01*
X0Y950D02*
X3Y950D01*
X2358Y950D02*
X2361Y950D01*
X0Y949D02*
X3Y949D01*
X2358Y949D02*
X2361Y949D01*
X0Y948D02*
X3Y948D01*
X2358Y948D02*
X2361Y948D01*
X0Y947D02*
X3Y947D01*
X2358Y947D02*
X2361Y947D01*
X0Y946D02*
X3Y946D01*
X2358Y946D02*
X2361Y946D01*
X0Y945D02*
X3Y945D01*
X2358Y945D02*
X2361Y945D01*
X0Y944D02*
X3Y944D01*
X2358Y944D02*
X2361Y944D01*
X0Y943D02*
X3Y943D01*
X2358Y943D02*
X2361Y943D01*
X0Y942D02*
X3Y942D01*
X2358Y942D02*
X2361Y942D01*
X0Y941D02*
X3Y941D01*
X2358Y941D02*
X2361Y941D01*
X0Y940D02*
X3Y940D01*
X2358Y940D02*
X2361Y940D01*
X0Y939D02*
X3Y939D01*
X2358Y939D02*
X2361Y939D01*
X0Y938D02*
X3Y938D01*
X2358Y938D02*
X2361Y938D01*
X0Y937D02*
X3Y937D01*
X2358Y937D02*
X2361Y937D01*
X0Y936D02*
X3Y936D01*
X2358Y936D02*
X2361Y936D01*
X0Y935D02*
X3Y935D01*
X2358Y935D02*
X2361Y935D01*
X0Y934D02*
X3Y934D01*
X2358Y934D02*
X2361Y934D01*
X0Y933D02*
X3Y933D01*
X2358Y933D02*
X2361Y933D01*
X0Y932D02*
X3Y932D01*
X2358Y932D02*
X2361Y932D01*
X0Y931D02*
X3Y931D01*
X2358Y931D02*
X2361Y931D01*
X0Y930D02*
X3Y930D01*
X2358Y930D02*
X2361Y930D01*
X0Y929D02*
X3Y929D01*
X2358Y929D02*
X2361Y929D01*
X0Y928D02*
X3Y928D01*
X2358Y928D02*
X2361Y928D01*
X0Y927D02*
X3Y927D01*
X2358Y927D02*
X2361Y927D01*
X0Y926D02*
X3Y926D01*
X2358Y926D02*
X2361Y926D01*
X0Y925D02*
X3Y925D01*
X2358Y925D02*
X2361Y925D01*
X0Y924D02*
X3Y924D01*
X2358Y924D02*
X2361Y924D01*
X0Y923D02*
X3Y923D01*
X2358Y923D02*
X2361Y923D01*
X0Y922D02*
X3Y922D01*
X2358Y922D02*
X2361Y922D01*
X0Y921D02*
X3Y921D01*
X2358Y921D02*
X2361Y921D01*
X0Y920D02*
X3Y920D01*
X2358Y920D02*
X2361Y920D01*
X0Y919D02*
X3Y919D01*
X2358Y919D02*
X2361Y919D01*
X0Y918D02*
X3Y918D01*
X2358Y918D02*
X2361Y918D01*
X0Y917D02*
X3Y917D01*
X2358Y917D02*
X2361Y917D01*
X0Y916D02*
X3Y916D01*
X2358Y916D02*
X2361Y916D01*
X0Y915D02*
X3Y915D01*
X2358Y915D02*
X2361Y915D01*
X0Y914D02*
X3Y914D01*
X2358Y914D02*
X2361Y914D01*
X0Y913D02*
X3Y913D01*
X2358Y913D02*
X2361Y913D01*
X0Y912D02*
X3Y912D01*
X2358Y912D02*
X2361Y912D01*
X0Y911D02*
X3Y911D01*
X2358Y911D02*
X2361Y911D01*
X0Y910D02*
X3Y910D01*
X2358Y910D02*
X2361Y910D01*
X0Y909D02*
X3Y909D01*
X2358Y909D02*
X2361Y909D01*
X0Y908D02*
X3Y908D01*
X2358Y908D02*
X2361Y908D01*
X0Y907D02*
X3Y907D01*
X2358Y907D02*
X2361Y907D01*
X0Y906D02*
X3Y906D01*
X2358Y906D02*
X2361Y906D01*
X0Y905D02*
X3Y905D01*
X2358Y905D02*
X2361Y905D01*
X0Y904D02*
X3Y904D01*
X2358Y904D02*
X2361Y904D01*
X0Y903D02*
X3Y903D01*
X2358Y903D02*
X2361Y903D01*
X0Y902D02*
X3Y902D01*
X2358Y902D02*
X2361Y902D01*
X0Y901D02*
X3Y901D01*
X2358Y901D02*
X2361Y901D01*
X0Y900D02*
X3Y900D01*
X2358Y900D02*
X2361Y900D01*
X0Y899D02*
X3Y899D01*
X2358Y899D02*
X2361Y899D01*
X0Y898D02*
X3Y898D01*
X2358Y898D02*
X2361Y898D01*
X0Y897D02*
X3Y897D01*
X2358Y897D02*
X2361Y897D01*
X0Y896D02*
X3Y896D01*
X2358Y896D02*
X2361Y896D01*
X0Y895D02*
X3Y895D01*
X2358Y895D02*
X2361Y895D01*
X0Y894D02*
X3Y894D01*
X2358Y894D02*
X2361Y894D01*
X0Y893D02*
X3Y893D01*
X2358Y893D02*
X2361Y893D01*
X0Y892D02*
X3Y892D01*
X2358Y892D02*
X2361Y892D01*
X0Y891D02*
X3Y891D01*
X2358Y891D02*
X2361Y891D01*
X0Y890D02*
X3Y890D01*
X2358Y890D02*
X2361Y890D01*
X0Y889D02*
X3Y889D01*
X2358Y889D02*
X2361Y889D01*
X0Y888D02*
X3Y888D01*
X2358Y888D02*
X2361Y888D01*
X0Y887D02*
X3Y887D01*
X2358Y887D02*
X2361Y887D01*
X0Y886D02*
X3Y886D01*
X2358Y886D02*
X2361Y886D01*
X0Y885D02*
X3Y885D01*
X2358Y885D02*
X2361Y885D01*
X0Y884D02*
X3Y884D01*
X2358Y884D02*
X2361Y884D01*
X0Y883D02*
X3Y883D01*
X2358Y883D02*
X2361Y883D01*
X0Y882D02*
X3Y882D01*
X2358Y882D02*
X2361Y882D01*
X0Y881D02*
X3Y881D01*
X2358Y881D02*
X2361Y881D01*
X0Y880D02*
X3Y880D01*
X2358Y880D02*
X2361Y880D01*
X0Y879D02*
X3Y879D01*
X2358Y879D02*
X2361Y879D01*
X0Y878D02*
X3Y878D01*
X2358Y878D02*
X2361Y878D01*
X0Y877D02*
X3Y877D01*
X2358Y877D02*
X2361Y877D01*
X0Y876D02*
X3Y876D01*
X2358Y876D02*
X2361Y876D01*
X0Y875D02*
X3Y875D01*
X2358Y875D02*
X2361Y875D01*
X0Y874D02*
X3Y874D01*
X2358Y874D02*
X2361Y874D01*
X0Y873D02*
X3Y873D01*
X2358Y873D02*
X2361Y873D01*
X0Y872D02*
X3Y872D01*
X2358Y872D02*
X2361Y872D01*
X0Y871D02*
X3Y871D01*
X2358Y871D02*
X2361Y871D01*
X0Y870D02*
X3Y870D01*
X2358Y870D02*
X2361Y870D01*
X0Y869D02*
X3Y869D01*
X2358Y869D02*
X2361Y869D01*
X0Y868D02*
X3Y868D01*
X2358Y868D02*
X2361Y868D01*
X0Y867D02*
X3Y867D01*
X2358Y867D02*
X2361Y867D01*
X0Y866D02*
X3Y866D01*
X2358Y866D02*
X2361Y866D01*
X0Y865D02*
X3Y865D01*
X2358Y865D02*
X2361Y865D01*
X0Y864D02*
X3Y864D01*
X2358Y864D02*
X2361Y864D01*
X0Y863D02*
X3Y863D01*
X2358Y863D02*
X2361Y863D01*
X0Y862D02*
X3Y862D01*
X2358Y862D02*
X2361Y862D01*
X0Y861D02*
X3Y861D01*
X2358Y861D02*
X2361Y861D01*
X0Y860D02*
X3Y860D01*
X2358Y860D02*
X2361Y860D01*
X0Y859D02*
X3Y859D01*
X2358Y859D02*
X2361Y859D01*
X0Y858D02*
X3Y858D01*
X2358Y858D02*
X2361Y858D01*
X0Y857D02*
X3Y857D01*
X2358Y857D02*
X2361Y857D01*
X0Y856D02*
X3Y856D01*
X2358Y856D02*
X2361Y856D01*
X0Y855D02*
X3Y855D01*
X2358Y855D02*
X2361Y855D01*
X0Y854D02*
X3Y854D01*
X2358Y854D02*
X2361Y854D01*
X0Y853D02*
X3Y853D01*
X2358Y853D02*
X2361Y853D01*
X0Y852D02*
X3Y852D01*
X2358Y852D02*
X2361Y852D01*
X0Y851D02*
X3Y851D01*
X2358Y851D02*
X2361Y851D01*
X0Y850D02*
X3Y850D01*
X2358Y850D02*
X2361Y850D01*
X0Y849D02*
X3Y849D01*
X2358Y849D02*
X2361Y849D01*
X0Y848D02*
X3Y848D01*
X2358Y848D02*
X2361Y848D01*
X0Y847D02*
X3Y847D01*
X2358Y847D02*
X2361Y847D01*
X0Y846D02*
X3Y846D01*
X2358Y846D02*
X2361Y846D01*
X0Y845D02*
X3Y845D01*
X2358Y845D02*
X2361Y845D01*
X0Y844D02*
X3Y844D01*
X2358Y844D02*
X2361Y844D01*
X0Y843D02*
X3Y843D01*
X2358Y843D02*
X2361Y843D01*
X0Y842D02*
X3Y842D01*
X2358Y842D02*
X2361Y842D01*
X0Y841D02*
X3Y841D01*
X2358Y841D02*
X2361Y841D01*
X0Y840D02*
X3Y840D01*
X2358Y840D02*
X2361Y840D01*
X0Y839D02*
X3Y839D01*
X2358Y839D02*
X2361Y839D01*
X0Y838D02*
X3Y838D01*
X2358Y838D02*
X2361Y838D01*
X0Y837D02*
X3Y837D01*
X2358Y837D02*
X2361Y837D01*
X0Y836D02*
X3Y836D01*
X2358Y836D02*
X2361Y836D01*
X0Y835D02*
X3Y835D01*
X2358Y835D02*
X2361Y835D01*
X0Y834D02*
X3Y834D01*
X2358Y834D02*
X2361Y834D01*
X0Y833D02*
X3Y833D01*
X2358Y833D02*
X2361Y833D01*
X0Y832D02*
X3Y832D01*
X2358Y832D02*
X2361Y832D01*
X0Y831D02*
X3Y831D01*
X2358Y831D02*
X2361Y831D01*
X0Y830D02*
X3Y830D01*
X2358Y830D02*
X2361Y830D01*
X0Y829D02*
X3Y829D01*
X2358Y829D02*
X2361Y829D01*
X0Y828D02*
X3Y828D01*
X2358Y828D02*
X2361Y828D01*
X0Y827D02*
X3Y827D01*
X2358Y827D02*
X2361Y827D01*
X0Y826D02*
X3Y826D01*
X2358Y826D02*
X2361Y826D01*
X0Y825D02*
X3Y825D01*
X2358Y825D02*
X2361Y825D01*
X0Y824D02*
X3Y824D01*
X2358Y824D02*
X2361Y824D01*
X0Y823D02*
X3Y823D01*
X2358Y823D02*
X2361Y823D01*
X0Y822D02*
X3Y822D01*
X2358Y822D02*
X2361Y822D01*
X0Y821D02*
X3Y821D01*
X2358Y821D02*
X2361Y821D01*
X0Y820D02*
X3Y820D01*
X2358Y820D02*
X2361Y820D01*
X0Y819D02*
X3Y819D01*
X2358Y819D02*
X2361Y819D01*
X0Y818D02*
X3Y818D01*
X2358Y818D02*
X2361Y818D01*
X0Y817D02*
X3Y817D01*
X2358Y817D02*
X2361Y817D01*
X0Y816D02*
X3Y816D01*
X2358Y816D02*
X2361Y816D01*
X0Y815D02*
X3Y815D01*
X2358Y815D02*
X2361Y815D01*
X0Y814D02*
X3Y814D01*
X2358Y814D02*
X2361Y814D01*
X0Y813D02*
X3Y813D01*
X2358Y813D02*
X2361Y813D01*
X0Y812D02*
X3Y812D01*
X2358Y812D02*
X2361Y812D01*
X0Y811D02*
X3Y811D01*
X2358Y811D02*
X2361Y811D01*
X0Y810D02*
X3Y810D01*
X2358Y810D02*
X2361Y810D01*
X0Y809D02*
X3Y809D01*
X2358Y809D02*
X2361Y809D01*
X0Y808D02*
X3Y808D01*
X2358Y808D02*
X2361Y808D01*
X0Y807D02*
X3Y807D01*
X2358Y807D02*
X2361Y807D01*
X0Y806D02*
X3Y806D01*
X2358Y806D02*
X2361Y806D01*
X0Y805D02*
X3Y805D01*
X2358Y805D02*
X2361Y805D01*
X0Y804D02*
X3Y804D01*
X2358Y804D02*
X2361Y804D01*
X0Y803D02*
X3Y803D01*
X2358Y803D02*
X2361Y803D01*
X0Y802D02*
X3Y802D01*
X2358Y802D02*
X2361Y802D01*
X0Y801D02*
X3Y801D01*
X2358Y801D02*
X2361Y801D01*
X0Y800D02*
X3Y800D01*
X2358Y800D02*
X2361Y800D01*
X0Y799D02*
X3Y799D01*
X2358Y799D02*
X2361Y799D01*
X0Y798D02*
X3Y798D01*
X2358Y798D02*
X2361Y798D01*
X0Y797D02*
X3Y797D01*
X2358Y797D02*
X2361Y797D01*
X0Y796D02*
X3Y796D01*
X2358Y796D02*
X2361Y796D01*
X0Y795D02*
X3Y795D01*
X2358Y795D02*
X2361Y795D01*
X0Y794D02*
X3Y794D01*
X2358Y794D02*
X2361Y794D01*
X0Y793D02*
X3Y793D01*
X2358Y793D02*
X2361Y793D01*
X0Y792D02*
X3Y792D01*
X2358Y792D02*
X2361Y792D01*
X0Y791D02*
X3Y791D01*
X2358Y791D02*
X2361Y791D01*
X0Y790D02*
X3Y790D01*
X2358Y790D02*
X2361Y790D01*
X0Y789D02*
X3Y789D01*
X2358Y789D02*
X2361Y789D01*
X0Y788D02*
X3Y788D01*
X2358Y788D02*
X2361Y788D01*
X0Y787D02*
X3Y787D01*
X2358Y787D02*
X2361Y787D01*
X0Y786D02*
X3Y786D01*
X2358Y786D02*
X2361Y786D01*
X0Y785D02*
X3Y785D01*
X2358Y785D02*
X2361Y785D01*
X0Y784D02*
X3Y784D01*
X2358Y784D02*
X2361Y784D01*
X0Y783D02*
X3Y783D01*
X2358Y783D02*
X2361Y783D01*
X0Y782D02*
X3Y782D01*
X2358Y782D02*
X2361Y782D01*
X0Y781D02*
X3Y781D01*
X2358Y781D02*
X2361Y781D01*
X0Y780D02*
X3Y780D01*
X2358Y780D02*
X2361Y780D01*
X0Y779D02*
X3Y779D01*
X2358Y779D02*
X2361Y779D01*
X0Y778D02*
X3Y778D01*
X2358Y778D02*
X2361Y778D01*
X0Y777D02*
X3Y777D01*
X2358Y777D02*
X2361Y777D01*
X0Y776D02*
X3Y776D01*
X2358Y776D02*
X2361Y776D01*
X0Y775D02*
X3Y775D01*
X2358Y775D02*
X2361Y775D01*
X0Y774D02*
X3Y774D01*
X2358Y774D02*
X2361Y774D01*
X0Y773D02*
X3Y773D01*
X2358Y773D02*
X2361Y773D01*
X0Y772D02*
X3Y772D01*
X2358Y772D02*
X2361Y772D01*
X0Y771D02*
X3Y771D01*
X2358Y771D02*
X2361Y771D01*
X0Y770D02*
X3Y770D01*
X2358Y770D02*
X2361Y770D01*
X0Y769D02*
X3Y769D01*
X2358Y769D02*
X2361Y769D01*
X0Y768D02*
X3Y768D01*
X2358Y768D02*
X2361Y768D01*
X0Y767D02*
X3Y767D01*
X2358Y767D02*
X2361Y767D01*
X0Y766D02*
X3Y766D01*
X2358Y766D02*
X2361Y766D01*
X0Y765D02*
X3Y765D01*
X2358Y765D02*
X2361Y765D01*
X0Y764D02*
X3Y764D01*
X2358Y764D02*
X2361Y764D01*
X0Y763D02*
X3Y763D01*
X2358Y763D02*
X2361Y763D01*
X0Y762D02*
X3Y762D01*
X2358Y762D02*
X2361Y762D01*
X0Y761D02*
X3Y761D01*
X2358Y761D02*
X2361Y761D01*
X0Y760D02*
X3Y760D01*
X2358Y760D02*
X2361Y760D01*
X0Y759D02*
X3Y759D01*
X2358Y759D02*
X2361Y759D01*
X0Y758D02*
X3Y758D01*
X2358Y758D02*
X2361Y758D01*
X0Y757D02*
X3Y757D01*
X2358Y757D02*
X2361Y757D01*
X0Y756D02*
X3Y756D01*
X2358Y756D02*
X2361Y756D01*
X0Y755D02*
X3Y755D01*
X2358Y755D02*
X2361Y755D01*
X0Y754D02*
X3Y754D01*
X2358Y754D02*
X2361Y754D01*
X0Y753D02*
X3Y753D01*
X2358Y753D02*
X2361Y753D01*
X0Y752D02*
X3Y752D01*
X2358Y752D02*
X2361Y752D01*
X0Y751D02*
X3Y751D01*
X2358Y751D02*
X2361Y751D01*
X0Y750D02*
X3Y750D01*
X2358Y750D02*
X2361Y750D01*
X0Y749D02*
X3Y749D01*
X2358Y749D02*
X2361Y749D01*
X0Y748D02*
X3Y748D01*
X2358Y748D02*
X2361Y748D01*
X0Y747D02*
X3Y747D01*
X2358Y747D02*
X2361Y747D01*
X0Y746D02*
X3Y746D01*
X2358Y746D02*
X2361Y746D01*
X0Y745D02*
X3Y745D01*
X2358Y745D02*
X2361Y745D01*
X0Y744D02*
X3Y744D01*
X2358Y744D02*
X2361Y744D01*
X0Y743D02*
X3Y743D01*
X2358Y743D02*
X2361Y743D01*
X0Y742D02*
X3Y742D01*
X2358Y742D02*
X2361Y742D01*
X0Y741D02*
X3Y741D01*
X2358Y741D02*
X2361Y741D01*
X0Y740D02*
X3Y740D01*
X2358Y740D02*
X2361Y740D01*
X0Y739D02*
X3Y739D01*
X2358Y739D02*
X2361Y739D01*
X0Y738D02*
X3Y738D01*
X2358Y738D02*
X2361Y738D01*
X0Y737D02*
X3Y737D01*
X2358Y737D02*
X2361Y737D01*
X0Y736D02*
X3Y736D01*
X2358Y736D02*
X2361Y736D01*
X0Y735D02*
X3Y735D01*
X2358Y735D02*
X2361Y735D01*
X0Y734D02*
X3Y734D01*
X1321Y734D02*
X1335Y734D01*
X1352Y734D02*
X1362Y734D01*
X2358Y734D02*
X2361Y734D01*
X0Y733D02*
X3Y733D01*
X1321Y733D02*
X1337Y733D01*
X1351Y733D02*
X1362Y733D01*
X2358Y733D02*
X2361Y733D01*
X0Y732D02*
X3Y732D01*
X1321Y732D02*
X1339Y732D01*
X1351Y732D02*
X1362Y732D01*
X2358Y732D02*
X2361Y732D01*
X0Y731D02*
X3Y731D01*
X1321Y731D02*
X1339Y731D01*
X1351Y731D02*
X1362Y731D01*
X2358Y731D02*
X2361Y731D01*
X0Y730D02*
X3Y730D01*
X1321Y730D02*
X1340Y730D01*
X1352Y730D02*
X1362Y730D01*
X2358Y730D02*
X2361Y730D01*
X0Y729D02*
X3Y729D01*
X1321Y729D02*
X1324Y729D01*
X1337Y729D02*
X1340Y729D01*
X1359Y729D02*
X1362Y729D01*
X2358Y729D02*
X2361Y729D01*
X0Y728D02*
X3Y728D01*
X1321Y728D02*
X1324Y728D01*
X1337Y728D02*
X1340Y728D01*
X1359Y728D02*
X1362Y728D01*
X2358Y728D02*
X2361Y728D01*
X0Y727D02*
X3Y727D01*
X1321Y727D02*
X1324Y727D01*
X1337Y727D02*
X1340Y727D01*
X1359Y727D02*
X1362Y727D01*
X2358Y727D02*
X2361Y727D01*
X0Y726D02*
X3Y726D01*
X1321Y726D02*
X1324Y726D01*
X1337Y726D02*
X1340Y726D01*
X1359Y726D02*
X1362Y726D01*
X2358Y726D02*
X2361Y726D01*
X0Y725D02*
X3Y725D01*
X1321Y725D02*
X1324Y725D01*
X1337Y725D02*
X1340Y725D01*
X1359Y725D02*
X1362Y725D01*
X2358Y725D02*
X2361Y725D01*
X0Y724D02*
X3Y724D01*
X1321Y724D02*
X1324Y724D01*
X1336Y724D02*
X1340Y724D01*
X1359Y724D02*
X1362Y724D01*
X2358Y724D02*
X2361Y724D01*
X0Y723D02*
X3Y723D01*
X1321Y723D02*
X1340Y723D01*
X1359Y723D02*
X1362Y723D01*
X2358Y723D02*
X2361Y723D01*
X0Y722D02*
X3Y722D01*
X1321Y722D02*
X1339Y722D01*
X1359Y722D02*
X1362Y722D01*
X2358Y722D02*
X2361Y722D01*
X0Y721D02*
X3Y721D01*
X1191Y721D02*
X1191Y721D01*
X1321Y721D02*
X1338Y721D01*
X1359Y721D02*
X1362Y721D01*
X1991Y721D02*
X1991Y721D01*
X2358Y721D02*
X2361Y721D01*
X0Y720D02*
X3Y720D01*
X1190Y720D02*
X1192Y720D01*
X1321Y720D02*
X1337Y720D01*
X1359Y720D02*
X1362Y720D01*
X1990Y720D02*
X1992Y720D01*
X2358Y720D02*
X2361Y720D01*
X0Y719D02*
X3Y719D01*
X1189Y719D02*
X1193Y719D01*
X1321Y719D02*
X1324Y719D01*
X1328Y719D02*
X1332Y719D01*
X1359Y719D02*
X1362Y719D01*
X1989Y719D02*
X1993Y719D01*
X2358Y719D02*
X2361Y719D01*
X0Y718D02*
X3Y718D01*
X1188Y718D02*
X1194Y718D01*
X1321Y718D02*
X1324Y718D01*
X1329Y718D02*
X1332Y718D01*
X1359Y718D02*
X1362Y718D01*
X1988Y718D02*
X1994Y718D01*
X2358Y718D02*
X2361Y718D01*
X0Y717D02*
X3Y717D01*
X1189Y717D02*
X1195Y717D01*
X1321Y717D02*
X1324Y717D01*
X1329Y717D02*
X1333Y717D01*
X1359Y717D02*
X1362Y717D01*
X1989Y717D02*
X1995Y717D01*
X2358Y717D02*
X2361Y717D01*
X0Y716D02*
X3Y716D01*
X1190Y716D02*
X1196Y716D01*
X1321Y716D02*
X1324Y716D01*
X1330Y716D02*
X1334Y716D01*
X1359Y716D02*
X1362Y716D01*
X1368Y716D02*
X1370Y716D01*
X1990Y716D02*
X1996Y716D01*
X2358Y716D02*
X2361Y716D01*
X0Y715D02*
X3Y715D01*
X1191Y715D02*
X1197Y715D01*
X1321Y715D02*
X1324Y715D01*
X1330Y715D02*
X1334Y715D01*
X1359Y715D02*
X1362Y715D01*
X1367Y715D02*
X1370Y715D01*
X1991Y715D02*
X1997Y715D01*
X2358Y715D02*
X2361Y715D01*
X0Y714D02*
X3Y714D01*
X1192Y714D02*
X1198Y714D01*
X1321Y714D02*
X1324Y714D01*
X1331Y714D02*
X1335Y714D01*
X1359Y714D02*
X1362Y714D01*
X1367Y714D02*
X1370Y714D01*
X1992Y714D02*
X1998Y714D01*
X2358Y714D02*
X2361Y714D01*
X0Y713D02*
X3Y713D01*
X1193Y713D02*
X1199Y713D01*
X1321Y713D02*
X1324Y713D01*
X1331Y713D02*
X1335Y713D01*
X1359Y713D02*
X1362Y713D01*
X1367Y713D02*
X1370Y713D01*
X1993Y713D02*
X1999Y713D01*
X2358Y713D02*
X2361Y713D01*
X0Y712D02*
X3Y712D01*
X1194Y712D02*
X1200Y712D01*
X1321Y712D02*
X1324Y712D01*
X1332Y712D02*
X1336Y712D01*
X1359Y712D02*
X1362Y712D01*
X1367Y712D02*
X1370Y712D01*
X1994Y712D02*
X2000Y712D01*
X2358Y712D02*
X2361Y712D01*
X0Y711D02*
X3Y711D01*
X1195Y711D02*
X1201Y711D01*
X1321Y711D02*
X1324Y711D01*
X1333Y711D02*
X1337Y711D01*
X1359Y711D02*
X1362Y711D01*
X1367Y711D02*
X1370Y711D01*
X1995Y711D02*
X2001Y711D01*
X2358Y711D02*
X2361Y711D01*
X0Y710D02*
X3Y710D01*
X1196Y710D02*
X1202Y710D01*
X1321Y710D02*
X1324Y710D01*
X1333Y710D02*
X1337Y710D01*
X1359Y710D02*
X1362Y710D01*
X1367Y710D02*
X1370Y710D01*
X1996Y710D02*
X2002Y710D01*
X2358Y710D02*
X2361Y710D01*
X0Y709D02*
X3Y709D01*
X1197Y709D02*
X1203Y709D01*
X1321Y709D02*
X1324Y709D01*
X1334Y709D02*
X1338Y709D01*
X1359Y709D02*
X1362Y709D01*
X1367Y709D02*
X1370Y709D01*
X1997Y709D02*
X2003Y709D01*
X2358Y709D02*
X2361Y709D01*
X0Y708D02*
X3Y708D01*
X1198Y708D02*
X1204Y708D01*
X1321Y708D02*
X1324Y708D01*
X1334Y708D02*
X1338Y708D01*
X1359Y708D02*
X1362Y708D01*
X1367Y708D02*
X1370Y708D01*
X1998Y708D02*
X2004Y708D01*
X2358Y708D02*
X2361Y708D01*
X0Y707D02*
X3Y707D01*
X1199Y707D02*
X1205Y707D01*
X1321Y707D02*
X1324Y707D01*
X1335Y707D02*
X1339Y707D01*
X1359Y707D02*
X1362Y707D01*
X1367Y707D02*
X1370Y707D01*
X1999Y707D02*
X2005Y707D01*
X2358Y707D02*
X2361Y707D01*
X0Y706D02*
X3Y706D01*
X1200Y706D02*
X1206Y706D01*
X1321Y706D02*
X1324Y706D01*
X1336Y706D02*
X1339Y706D01*
X1359Y706D02*
X1362Y706D01*
X1367Y706D02*
X1370Y706D01*
X2000Y706D02*
X2006Y706D01*
X2358Y706D02*
X2361Y706D01*
X0Y705D02*
X3Y705D01*
X1201Y705D02*
X1207Y705D01*
X1321Y705D02*
X1324Y705D01*
X1336Y705D02*
X1340Y705D01*
X1351Y705D02*
X1370Y705D01*
X2001Y705D02*
X2007Y705D01*
X2358Y705D02*
X2361Y705D01*
X0Y704D02*
X3Y704D01*
X1202Y704D02*
X1208Y704D01*
X1321Y704D02*
X1324Y704D01*
X1337Y704D02*
X1340Y704D01*
X1351Y704D02*
X1370Y704D01*
X2002Y704D02*
X2008Y704D01*
X2358Y704D02*
X2361Y704D01*
X0Y703D02*
X3Y703D01*
X1204Y703D02*
X1209Y703D01*
X1321Y703D02*
X1324Y703D01*
X1337Y703D02*
X1340Y703D01*
X1351Y703D02*
X1370Y703D01*
X2004Y703D02*
X2009Y703D01*
X2358Y703D02*
X2361Y703D01*
X0Y702D02*
X3Y702D01*
X1205Y702D02*
X1210Y702D01*
X1322Y702D02*
X1323Y702D01*
X1338Y702D02*
X1339Y702D01*
X1352Y702D02*
X1369Y702D01*
X2005Y702D02*
X2010Y702D01*
X2358Y702D02*
X2361Y702D01*
X0Y701D02*
X3Y701D01*
X1206Y701D02*
X1211Y701D01*
X2006Y701D02*
X2011Y701D01*
X2358Y701D02*
X2361Y701D01*
X0Y700D02*
X3Y700D01*
X1207Y700D02*
X1212Y700D01*
X2007Y700D02*
X2012Y700D01*
X2358Y700D02*
X2361Y700D01*
X0Y699D02*
X3Y699D01*
X1208Y699D02*
X1213Y699D01*
X2008Y699D02*
X2013Y699D01*
X2358Y699D02*
X2361Y699D01*
X0Y698D02*
X3Y698D01*
X1209Y698D02*
X1214Y698D01*
X2009Y698D02*
X2014Y698D01*
X2358Y698D02*
X2361Y698D01*
X0Y697D02*
X3Y697D01*
X1209Y697D02*
X1215Y697D01*
X2009Y697D02*
X2015Y697D01*
X2358Y697D02*
X2361Y697D01*
X0Y696D02*
X3Y696D01*
X1210Y696D02*
X1216Y696D01*
X2010Y696D02*
X2016Y696D01*
X2358Y696D02*
X2361Y696D01*
X0Y695D02*
X3Y695D01*
X1211Y695D02*
X1217Y695D01*
X2011Y695D02*
X2017Y695D01*
X2358Y695D02*
X2361Y695D01*
X0Y694D02*
X3Y694D01*
X1212Y694D02*
X1218Y694D01*
X2012Y694D02*
X2018Y694D01*
X2358Y694D02*
X2361Y694D01*
X0Y693D02*
X3Y693D01*
X1213Y693D02*
X1219Y693D01*
X2013Y693D02*
X2019Y693D01*
X2358Y693D02*
X2361Y693D01*
X0Y692D02*
X3Y692D01*
X1214Y692D02*
X1220Y692D01*
X2014Y692D02*
X2020Y692D01*
X2358Y692D02*
X2361Y692D01*
X0Y691D02*
X3Y691D01*
X1215Y691D02*
X1221Y691D01*
X2015Y691D02*
X2021Y691D01*
X2358Y691D02*
X2361Y691D01*
X0Y690D02*
X3Y690D01*
X1216Y690D02*
X1222Y690D01*
X2016Y690D02*
X2022Y690D01*
X2358Y690D02*
X2361Y690D01*
X0Y689D02*
X3Y689D01*
X1217Y689D02*
X1223Y689D01*
X2017Y689D02*
X2023Y689D01*
X2358Y689D02*
X2361Y689D01*
X0Y688D02*
X3Y688D01*
X1218Y688D02*
X1224Y688D01*
X2018Y688D02*
X2024Y688D01*
X2358Y688D02*
X2361Y688D01*
X0Y687D02*
X3Y687D01*
X1219Y687D02*
X1225Y687D01*
X2019Y687D02*
X2025Y687D01*
X2358Y687D02*
X2361Y687D01*
X0Y686D02*
X3Y686D01*
X1220Y686D02*
X1225Y686D01*
X2020Y686D02*
X2025Y686D01*
X2358Y686D02*
X2361Y686D01*
X0Y685D02*
X3Y685D01*
X1221Y685D02*
X1224Y685D01*
X2021Y685D02*
X2024Y685D01*
X2358Y685D02*
X2361Y685D01*
X0Y684D02*
X3Y684D01*
X1222Y684D02*
X1223Y684D01*
X2022Y684D02*
X2023Y684D01*
X2358Y684D02*
X2361Y684D01*
X0Y683D02*
X3Y683D01*
X2358Y683D02*
X2361Y683D01*
X0Y682D02*
X3Y682D01*
X2358Y682D02*
X2361Y682D01*
X0Y681D02*
X3Y681D01*
X2358Y681D02*
X2361Y681D01*
X0Y680D02*
X3Y680D01*
X2358Y680D02*
X2361Y680D01*
X0Y679D02*
X3Y679D01*
X2358Y679D02*
X2361Y679D01*
X0Y678D02*
X3Y678D01*
X2358Y678D02*
X2361Y678D01*
X0Y677D02*
X3Y677D01*
X2358Y677D02*
X2361Y677D01*
X0Y676D02*
X3Y676D01*
X2358Y676D02*
X2361Y676D01*
X0Y675D02*
X3Y675D01*
X2358Y675D02*
X2361Y675D01*
X0Y674D02*
X3Y674D01*
X1317Y674D02*
X1384Y674D01*
X1584Y674D02*
X1632Y674D01*
X2358Y674D02*
X2361Y674D01*
X0Y673D02*
X3Y673D01*
X1317Y673D02*
X1384Y673D01*
X1584Y673D02*
X1632Y673D01*
X2358Y673D02*
X2361Y673D01*
X0Y672D02*
X3Y672D01*
X1317Y672D02*
X1384Y672D01*
X1584Y672D02*
X1632Y672D01*
X2358Y672D02*
X2361Y672D01*
X0Y671D02*
X3Y671D01*
X1317Y671D02*
X1384Y671D01*
X1584Y671D02*
X1632Y671D01*
X2358Y671D02*
X2361Y671D01*
X0Y670D02*
X3Y670D01*
X1317Y670D02*
X1384Y670D01*
X1584Y670D02*
X1631Y670D01*
X2358Y670D02*
X2361Y670D01*
X0Y669D02*
X3Y669D01*
X1317Y669D02*
X1384Y669D01*
X1584Y669D02*
X1632Y669D01*
X2358Y669D02*
X2361Y669D01*
X0Y668D02*
X3Y668D01*
X1317Y668D02*
X1384Y668D01*
X1584Y668D02*
X1632Y668D01*
X2358Y668D02*
X2361Y668D01*
X0Y667D02*
X3Y667D01*
X1317Y667D02*
X1384Y667D01*
X1584Y667D02*
X1632Y667D01*
X2358Y667D02*
X2361Y667D01*
X0Y666D02*
X3Y666D01*
X1317Y666D02*
X1384Y666D01*
X1584Y666D02*
X1632Y666D01*
X2358Y666D02*
X2361Y666D01*
X0Y665D02*
X3Y665D01*
X1317Y665D02*
X1383Y665D01*
X1585Y665D02*
X1632Y665D01*
X2358Y665D02*
X2361Y665D01*
X0Y664D02*
X3Y664D01*
X2358Y664D02*
X2361Y664D01*
X0Y663D02*
X3Y663D01*
X2358Y663D02*
X2361Y663D01*
X0Y662D02*
X3Y662D01*
X2358Y662D02*
X2361Y662D01*
X0Y661D02*
X3Y661D01*
X2358Y661D02*
X2361Y661D01*
X0Y660D02*
X3Y660D01*
X2358Y660D02*
X2361Y660D01*
X0Y659D02*
X3Y659D01*
X2358Y659D02*
X2361Y659D01*
X0Y658D02*
X3Y658D01*
X2358Y658D02*
X2361Y658D01*
X0Y657D02*
X3Y657D01*
X2358Y657D02*
X2361Y657D01*
X0Y656D02*
X3Y656D01*
X2358Y656D02*
X2361Y656D01*
X0Y655D02*
X3Y655D01*
X2358Y655D02*
X2361Y655D01*
X0Y654D02*
X3Y654D01*
X2358Y654D02*
X2361Y654D01*
X0Y653D02*
X3Y653D01*
X2358Y653D02*
X2361Y653D01*
X0Y652D02*
X3Y652D01*
X2358Y652D02*
X2361Y652D01*
X0Y651D02*
X3Y651D01*
X2358Y651D02*
X2361Y651D01*
X0Y650D02*
X3Y650D01*
X2358Y650D02*
X2361Y650D01*
X0Y649D02*
X3Y649D01*
X2358Y649D02*
X2361Y649D01*
X0Y648D02*
X3Y648D01*
X2358Y648D02*
X2361Y648D01*
X0Y647D02*
X3Y647D01*
X2358Y647D02*
X2361Y647D01*
X0Y646D02*
X3Y646D01*
X2358Y646D02*
X2361Y646D01*
X0Y645D02*
X3Y645D01*
X2358Y645D02*
X2361Y645D01*
X0Y644D02*
X3Y644D01*
X2358Y644D02*
X2361Y644D01*
X0Y643D02*
X3Y643D01*
X2358Y643D02*
X2361Y643D01*
X0Y642D02*
X3Y642D01*
X2358Y642D02*
X2361Y642D01*
X0Y641D02*
X3Y641D01*
X2358Y641D02*
X2361Y641D01*
X0Y640D02*
X3Y640D01*
X2358Y640D02*
X2361Y640D01*
X0Y639D02*
X3Y639D01*
X2358Y639D02*
X2361Y639D01*
X0Y638D02*
X3Y638D01*
X2358Y638D02*
X2361Y638D01*
X0Y637D02*
X3Y637D01*
X2358Y637D02*
X2361Y637D01*
X0Y636D02*
X3Y636D01*
X2358Y636D02*
X2361Y636D01*
X0Y635D02*
X3Y635D01*
X2358Y635D02*
X2361Y635D01*
X0Y634D02*
X3Y634D01*
X2358Y634D02*
X2361Y634D01*
X0Y633D02*
X3Y633D01*
X2358Y633D02*
X2361Y633D01*
X0Y632D02*
X3Y632D01*
X2358Y632D02*
X2361Y632D01*
X0Y631D02*
X3Y631D01*
X2358Y631D02*
X2361Y631D01*
X0Y630D02*
X3Y630D01*
X2358Y630D02*
X2361Y630D01*
X0Y629D02*
X3Y629D01*
X2358Y629D02*
X2361Y629D01*
X0Y628D02*
X3Y628D01*
X2358Y628D02*
X2361Y628D01*
X0Y627D02*
X3Y627D01*
X2358Y627D02*
X2361Y627D01*
X0Y626D02*
X3Y626D01*
X2358Y626D02*
X2361Y626D01*
X0Y625D02*
X3Y625D01*
X2358Y625D02*
X2361Y625D01*
X0Y624D02*
X3Y624D01*
X2358Y624D02*
X2361Y624D01*
X0Y623D02*
X3Y623D01*
X2358Y623D02*
X2361Y623D01*
X0Y622D02*
X3Y622D01*
X2358Y622D02*
X2361Y622D01*
X0Y621D02*
X3Y621D01*
X2358Y621D02*
X2361Y621D01*
X0Y620D02*
X3Y620D01*
X2358Y620D02*
X2361Y620D01*
X0Y619D02*
X3Y619D01*
X2358Y619D02*
X2361Y619D01*
X0Y618D02*
X3Y618D01*
X2358Y618D02*
X2361Y618D01*
X0Y617D02*
X3Y617D01*
X2358Y617D02*
X2361Y617D01*
X0Y616D02*
X3Y616D01*
X2358Y616D02*
X2361Y616D01*
X0Y615D02*
X3Y615D01*
X2358Y615D02*
X2361Y615D01*
X0Y614D02*
X3Y614D01*
X175Y614D02*
X179Y614D01*
X295Y614D02*
X298Y614D01*
X2358Y614D02*
X2361Y614D01*
X0Y613D02*
X3Y613D01*
X175Y613D02*
X179Y613D01*
X294Y613D02*
X299Y613D01*
X2358Y613D02*
X2361Y613D01*
X0Y612D02*
X3Y612D01*
X138Y612D02*
X153Y612D01*
X174Y612D02*
X180Y612D01*
X199Y612D02*
X200Y612D01*
X258Y612D02*
X274Y612D01*
X294Y612D02*
X299Y612D01*
X380Y612D02*
X388Y612D01*
X2358Y612D02*
X2361Y612D01*
X0Y611D02*
X3Y611D01*
X138Y611D02*
X154Y611D01*
X174Y611D02*
X180Y611D01*
X198Y611D02*
X201Y611D01*
X258Y611D02*
X275Y611D01*
X294Y611D02*
X299Y611D01*
X379Y611D02*
X388Y611D01*
X2358Y611D02*
X2361Y611D01*
X0Y610D02*
X3Y610D01*
X138Y610D02*
X156Y610D01*
X174Y610D02*
X180Y610D01*
X198Y610D02*
X201Y610D01*
X258Y610D02*
X276Y610D01*
X294Y610D02*
X299Y610D01*
X379Y610D02*
X388Y610D01*
X2358Y610D02*
X2361Y610D01*
X0Y609D02*
X3Y609D01*
X138Y609D02*
X156Y609D01*
X175Y609D02*
X179Y609D01*
X198Y609D02*
X201Y609D01*
X258Y609D02*
X277Y609D01*
X294Y609D02*
X298Y609D01*
X380Y609D02*
X388Y609D01*
X2358Y609D02*
X2361Y609D01*
X0Y608D02*
X3Y608D01*
X138Y608D02*
X142Y608D01*
X152Y608D02*
X157Y608D01*
X198Y608D02*
X201Y608D01*
X258Y608D02*
X261Y608D01*
X273Y608D02*
X277Y608D01*
X385Y608D02*
X388Y608D01*
X2358Y608D02*
X2361Y608D01*
X0Y607D02*
X3Y607D01*
X138Y607D02*
X142Y607D01*
X154Y607D02*
X158Y607D01*
X198Y607D02*
X201Y607D01*
X258Y607D02*
X261Y607D01*
X274Y607D02*
X277Y607D01*
X385Y607D02*
X388Y607D01*
X2358Y607D02*
X2361Y607D01*
X0Y606D02*
X3Y606D01*
X138Y606D02*
X142Y606D01*
X154Y606D02*
X158Y606D01*
X198Y606D02*
X201Y606D01*
X258Y606D02*
X261Y606D01*
X274Y606D02*
X277Y606D01*
X385Y606D02*
X388Y606D01*
X2358Y606D02*
X2361Y606D01*
X0Y605D02*
X3Y605D01*
X138Y605D02*
X142Y605D01*
X155Y605D02*
X158Y605D01*
X198Y605D02*
X201Y605D01*
X258Y605D02*
X261Y605D01*
X274Y605D02*
X277Y605D01*
X385Y605D02*
X388Y605D01*
X2358Y605D02*
X2361Y605D01*
X0Y604D02*
X3Y604D01*
X138Y604D02*
X142Y604D01*
X155Y604D02*
X158Y604D01*
X198Y604D02*
X201Y604D01*
X258Y604D02*
X261Y604D01*
X274Y604D02*
X277Y604D01*
X385Y604D02*
X388Y604D01*
X2358Y604D02*
X2361Y604D01*
X0Y603D02*
X3Y603D01*
X138Y603D02*
X142Y603D01*
X155Y603D02*
X158Y603D01*
X171Y603D02*
X179Y603D01*
X198Y603D02*
X201Y603D01*
X213Y603D02*
X215Y603D01*
X233Y603D02*
X243Y603D01*
X258Y603D02*
X261Y603D01*
X274Y603D02*
X277Y603D01*
X290Y603D02*
X298Y603D01*
X318Y603D02*
X320Y603D01*
X334Y603D02*
X336Y603D01*
X352Y603D02*
X362Y603D01*
X385Y603D02*
X388Y603D01*
X410Y603D02*
X423Y603D01*
X473Y603D02*
X485Y603D01*
X501Y603D02*
X511Y603D01*
X526Y603D02*
X528Y603D01*
X531Y603D02*
X535Y603D01*
X539Y603D02*
X543Y603D01*
X2358Y603D02*
X2361Y603D01*
X0Y602D02*
X3Y602D01*
X138Y602D02*
X142Y602D01*
X155Y602D02*
X158Y602D01*
X170Y602D02*
X180Y602D01*
X198Y602D02*
X201Y602D01*
X212Y602D02*
X216Y602D01*
X231Y602D02*
X244Y602D01*
X258Y602D02*
X261Y602D01*
X274Y602D02*
X277Y602D01*
X290Y602D02*
X299Y602D01*
X318Y602D02*
X321Y602D01*
X333Y602D02*
X336Y602D01*
X350Y602D02*
X363Y602D01*
X385Y602D02*
X388Y602D01*
X409Y602D02*
X425Y602D01*
X472Y602D02*
X486Y602D01*
X499Y602D02*
X512Y602D01*
X526Y602D02*
X544Y602D01*
X2358Y602D02*
X2361Y602D01*
X0Y601D02*
X3Y601D01*
X138Y601D02*
X142Y601D01*
X154Y601D02*
X158Y601D01*
X170Y601D02*
X180Y601D01*
X198Y601D02*
X201Y601D01*
X210Y601D02*
X215Y601D01*
X230Y601D02*
X245Y601D01*
X258Y601D02*
X261Y601D01*
X274Y601D02*
X277Y601D01*
X290Y601D02*
X299Y601D01*
X318Y601D02*
X322Y601D01*
X332Y601D02*
X336Y601D01*
X349Y601D02*
X365Y601D01*
X385Y601D02*
X388Y601D01*
X408Y601D02*
X426Y601D01*
X470Y601D02*
X486Y601D01*
X498Y601D02*
X514Y601D01*
X526Y601D02*
X545Y601D01*
X2358Y601D02*
X2361Y601D01*
X0Y600D02*
X3Y600D01*
X138Y600D02*
X142Y600D01*
X154Y600D02*
X158Y600D01*
X171Y600D02*
X180Y600D01*
X198Y600D02*
X201Y600D01*
X209Y600D02*
X215Y600D01*
X229Y600D02*
X246Y600D01*
X258Y600D02*
X261Y600D01*
X274Y600D02*
X277Y600D01*
X290Y600D02*
X299Y600D01*
X318Y600D02*
X323Y600D01*
X331Y600D02*
X336Y600D01*
X348Y600D02*
X365Y600D01*
X385Y600D02*
X388Y600D01*
X407Y600D02*
X426Y600D01*
X469Y600D02*
X485Y600D01*
X497Y600D02*
X514Y600D01*
X526Y600D02*
X545Y600D01*
X2358Y600D02*
X2361Y600D01*
X0Y599D02*
X3Y599D01*
X138Y599D02*
X142Y599D01*
X152Y599D02*
X157Y599D01*
X176Y599D02*
X180Y599D01*
X198Y599D02*
X201Y599D01*
X208Y599D02*
X214Y599D01*
X229Y599D02*
X233Y599D01*
X242Y599D02*
X247Y599D01*
X258Y599D02*
X261Y599D01*
X274Y599D02*
X277Y599D01*
X296Y599D02*
X299Y599D01*
X319Y599D02*
X324Y599D01*
X330Y599D02*
X335Y599D01*
X348Y599D02*
X352Y599D01*
X362Y599D02*
X366Y599D01*
X385Y599D02*
X388Y599D01*
X407Y599D02*
X411Y599D01*
X423Y599D02*
X426Y599D01*
X468Y599D02*
X474Y599D01*
X497Y599D02*
X501Y599D01*
X511Y599D02*
X515Y599D01*
X526Y599D02*
X531Y599D01*
X534Y599D02*
X539Y599D01*
X542Y599D02*
X545Y599D01*
X2358Y599D02*
X2361Y599D01*
X0Y598D02*
X3Y598D01*
X138Y598D02*
X157Y598D01*
X176Y598D02*
X180Y598D01*
X198Y598D02*
X201Y598D01*
X207Y598D02*
X212Y598D01*
X228Y598D02*
X232Y598D01*
X243Y598D02*
X247Y598D01*
X258Y598D02*
X261Y598D01*
X274Y598D02*
X277Y598D01*
X296Y598D02*
X299Y598D01*
X320Y598D02*
X325Y598D01*
X330Y598D02*
X334Y598D01*
X347Y598D02*
X351Y598D01*
X363Y598D02*
X366Y598D01*
X385Y598D02*
X388Y598D01*
X407Y598D02*
X411Y598D01*
X424Y598D02*
X424Y598D01*
X467Y598D02*
X472Y598D01*
X496Y598D02*
X500Y598D01*
X512Y598D02*
X516Y598D01*
X526Y598D02*
X530Y598D01*
X534Y598D02*
X538Y598D01*
X542Y598D02*
X545Y598D01*
X2358Y598D02*
X2361Y598D01*
X0Y597D02*
X3Y597D01*
X138Y597D02*
X156Y597D01*
X176Y597D02*
X180Y597D01*
X198Y597D02*
X201Y597D01*
X206Y597D02*
X211Y597D01*
X228Y597D02*
X231Y597D01*
X244Y597D02*
X247Y597D01*
X258Y597D02*
X261Y597D01*
X273Y597D02*
X277Y597D01*
X296Y597D02*
X299Y597D01*
X321Y597D02*
X325Y597D01*
X329Y597D02*
X333Y597D01*
X347Y597D02*
X350Y597D01*
X363Y597D02*
X367Y597D01*
X385Y597D02*
X388Y597D01*
X407Y597D02*
X412Y597D01*
X467Y597D02*
X471Y597D01*
X496Y597D02*
X500Y597D01*
X512Y597D02*
X516Y597D01*
X526Y597D02*
X529Y597D01*
X534Y597D02*
X537Y597D01*
X542Y597D02*
X545Y597D01*
X2358Y597D02*
X2361Y597D01*
X0Y596D02*
X3Y596D01*
X138Y596D02*
X156Y596D01*
X176Y596D02*
X180Y596D01*
X198Y596D02*
X201Y596D01*
X205Y596D02*
X210Y596D01*
X228Y596D02*
X231Y596D01*
X244Y596D02*
X247Y596D01*
X258Y596D02*
X277Y596D01*
X296Y596D02*
X299Y596D01*
X322Y596D02*
X326Y596D01*
X328Y596D02*
X332Y596D01*
X347Y596D02*
X350Y596D01*
X364Y596D02*
X367Y596D01*
X385Y596D02*
X388Y596D01*
X408Y596D02*
X414Y596D01*
X467Y596D02*
X470Y596D01*
X496Y596D02*
X499Y596D01*
X513Y596D02*
X516Y596D01*
X526Y596D02*
X529Y596D01*
X534Y596D02*
X537Y596D01*
X542Y596D02*
X545Y596D01*
X2358Y596D02*
X2361Y596D01*
X0Y595D02*
X3Y595D01*
X138Y595D02*
X156Y595D01*
X176Y595D02*
X180Y595D01*
X198Y595D02*
X201Y595D01*
X203Y595D02*
X209Y595D01*
X228Y595D02*
X231Y595D01*
X244Y595D02*
X247Y595D01*
X258Y595D02*
X276Y595D01*
X296Y595D02*
X299Y595D01*
X323Y595D02*
X332Y595D01*
X347Y595D02*
X350Y595D01*
X364Y595D02*
X367Y595D01*
X385Y595D02*
X388Y595D01*
X409Y595D02*
X417Y595D01*
X466Y595D02*
X470Y595D01*
X496Y595D02*
X499Y595D01*
X513Y595D02*
X516Y595D01*
X526Y595D02*
X529Y595D01*
X534Y595D02*
X537Y595D01*
X542Y595D02*
X545Y595D01*
X1950Y595D02*
X1954Y595D01*
X1976Y595D02*
X2005Y595D01*
X2358Y595D02*
X2361Y595D01*
X0Y594D02*
X3Y594D01*
X138Y594D02*
X142Y594D01*
X152Y594D02*
X157Y594D01*
X176Y594D02*
X180Y594D01*
X198Y594D02*
X208Y594D01*
X228Y594D02*
X231Y594D01*
X244Y594D02*
X247Y594D01*
X258Y594D02*
X275Y594D01*
X296Y594D02*
X299Y594D01*
X323Y594D02*
X331Y594D01*
X347Y594D02*
X350Y594D01*
X364Y594D02*
X367Y594D01*
X385Y594D02*
X388Y594D01*
X410Y594D02*
X419Y594D01*
X466Y594D02*
X470Y594D01*
X496Y594D02*
X499Y594D01*
X513Y594D02*
X516Y594D01*
X526Y594D02*
X529Y594D01*
X534Y594D02*
X537Y594D01*
X542Y594D02*
X545Y594D01*
X1950Y594D02*
X1955Y594D01*
X1976Y594D02*
X2007Y594D01*
X2358Y594D02*
X2361Y594D01*
X0Y593D02*
X3Y593D01*
X138Y593D02*
X142Y593D01*
X154Y593D02*
X158Y593D01*
X176Y593D02*
X180Y593D01*
X198Y593D02*
X207Y593D01*
X228Y593D02*
X247Y593D01*
X258Y593D02*
X273Y593D01*
X296Y593D02*
X299Y593D01*
X324Y593D02*
X330Y593D01*
X347Y593D02*
X367Y593D01*
X385Y593D02*
X388Y593D01*
X412Y593D02*
X421Y593D01*
X444Y593D02*
X449Y593D01*
X466Y593D02*
X470Y593D01*
X496Y593D02*
X499Y593D01*
X513Y593D02*
X516Y593D01*
X526Y593D02*
X529Y593D01*
X534Y593D02*
X537Y593D01*
X542Y593D02*
X545Y593D01*
X1949Y593D02*
X1955Y593D01*
X1975Y593D02*
X2007Y593D01*
X2358Y593D02*
X2361Y593D01*
X0Y592D02*
X3Y592D01*
X138Y592D02*
X142Y592D01*
X154Y592D02*
X158Y592D01*
X176Y592D02*
X180Y592D01*
X198Y592D02*
X208Y592D01*
X228Y592D02*
X247Y592D01*
X258Y592D02*
X261Y592D01*
X296Y592D02*
X299Y592D01*
X325Y592D02*
X330Y592D01*
X347Y592D02*
X367Y592D01*
X385Y592D02*
X388Y592D01*
X414Y592D02*
X423Y592D01*
X443Y592D02*
X450Y592D01*
X466Y592D02*
X470Y592D01*
X496Y592D02*
X499Y592D01*
X513Y592D02*
X516Y592D01*
X526Y592D02*
X529Y592D01*
X534Y592D02*
X537Y592D01*
X542Y592D02*
X545Y592D01*
X1949Y592D02*
X1955Y592D01*
X1975Y592D02*
X2008Y592D01*
X2358Y592D02*
X2361Y592D01*
X0Y591D02*
X3Y591D01*
X138Y591D02*
X142Y591D01*
X155Y591D02*
X158Y591D01*
X176Y591D02*
X180Y591D01*
X198Y591D02*
X209Y591D01*
X228Y591D02*
X247Y591D01*
X258Y591D02*
X261Y591D01*
X296Y591D02*
X299Y591D01*
X324Y591D02*
X330Y591D01*
X347Y591D02*
X367Y591D01*
X385Y591D02*
X388Y591D01*
X416Y591D02*
X424Y591D01*
X443Y591D02*
X450Y591D01*
X466Y591D02*
X470Y591D01*
X496Y591D02*
X499Y591D01*
X513Y591D02*
X516Y591D01*
X526Y591D02*
X529Y591D01*
X534Y591D02*
X537Y591D01*
X542Y591D02*
X546Y591D01*
X855Y591D02*
X857Y591D01*
X881Y591D02*
X899Y591D01*
X1949Y591D02*
X1955Y591D01*
X1976Y591D02*
X2009Y591D01*
X2358Y591D02*
X2361Y591D01*
X0Y590D02*
X3Y590D01*
X138Y590D02*
X142Y590D01*
X155Y590D02*
X158Y590D01*
X176Y590D02*
X180Y590D01*
X198Y590D02*
X210Y590D01*
X228Y590D02*
X247Y590D01*
X258Y590D02*
X261Y590D01*
X296Y590D02*
X299Y590D01*
X323Y590D02*
X331Y590D01*
X347Y590D02*
X366Y590D01*
X385Y590D02*
X388Y590D01*
X419Y590D02*
X425Y590D01*
X443Y590D02*
X450Y590D01*
X466Y590D02*
X470Y590D01*
X496Y590D02*
X499Y590D01*
X513Y590D02*
X516Y590D01*
X526Y590D02*
X529Y590D01*
X534Y590D02*
X537Y590D01*
X542Y590D02*
X546Y590D01*
X854Y590D02*
X858Y590D01*
X880Y590D02*
X899Y590D01*
X1949Y590D02*
X1955Y590D01*
X1976Y590D02*
X2009Y590D01*
X2358Y590D02*
X2361Y590D01*
X0Y589D02*
X3Y589D01*
X138Y589D02*
X142Y589D01*
X155Y589D02*
X158Y589D01*
X176Y589D02*
X180Y589D01*
X198Y589D02*
X202Y589D01*
X206Y589D02*
X211Y589D01*
X228Y589D02*
X231Y589D01*
X258Y589D02*
X261Y589D01*
X296Y589D02*
X299Y589D01*
X322Y589D02*
X332Y589D01*
X347Y589D02*
X351Y589D01*
X385Y589D02*
X388Y589D01*
X421Y589D02*
X426Y589D01*
X443Y589D02*
X450Y589D01*
X466Y589D02*
X470Y589D01*
X496Y589D02*
X499Y589D01*
X513Y589D02*
X516Y589D01*
X526Y589D02*
X529Y589D01*
X534Y589D02*
X537Y589D01*
X542Y589D02*
X546Y589D01*
X853Y589D02*
X859Y589D01*
X879Y589D02*
X899Y589D01*
X1949Y589D02*
X1955Y589D01*
X1979Y589D02*
X2009Y589D01*
X2358Y589D02*
X2361Y589D01*
X0Y588D02*
X3Y588D01*
X138Y588D02*
X142Y588D01*
X155Y588D02*
X158Y588D01*
X176Y588D02*
X180Y588D01*
X198Y588D02*
X201Y588D01*
X207Y588D02*
X212Y588D01*
X228Y588D02*
X231Y588D01*
X258Y588D02*
X261Y588D01*
X296Y588D02*
X299Y588D01*
X321Y588D02*
X326Y588D01*
X328Y588D02*
X333Y588D01*
X347Y588D02*
X350Y588D01*
X385Y588D02*
X388Y588D01*
X423Y588D02*
X426Y588D01*
X443Y588D02*
X450Y588D01*
X467Y588D02*
X470Y588D01*
X496Y588D02*
X499Y588D01*
X513Y588D02*
X516Y588D01*
X526Y588D02*
X529Y588D01*
X534Y588D02*
X537Y588D01*
X542Y588D02*
X546Y588D01*
X853Y588D02*
X859Y588D01*
X879Y588D02*
X899Y588D01*
X1949Y588D02*
X1955Y588D01*
X2003Y588D02*
X2009Y588D01*
X2358Y588D02*
X2361Y588D01*
X0Y587D02*
X3Y587D01*
X138Y587D02*
X142Y587D01*
X154Y587D02*
X158Y587D01*
X176Y587D02*
X180Y587D01*
X198Y587D02*
X201Y587D01*
X208Y587D02*
X213Y587D01*
X228Y587D02*
X231Y587D01*
X258Y587D02*
X261Y587D01*
X296Y587D02*
X299Y587D01*
X320Y587D02*
X325Y587D01*
X329Y587D02*
X334Y587D01*
X347Y587D02*
X351Y587D01*
X385Y587D02*
X388Y587D01*
X423Y587D02*
X426Y587D01*
X443Y587D02*
X450Y587D01*
X467Y587D02*
X471Y587D01*
X496Y587D02*
X500Y587D01*
X512Y587D02*
X516Y587D01*
X526Y587D02*
X529Y587D01*
X534Y587D02*
X537Y587D01*
X543Y587D02*
X546Y587D01*
X853Y587D02*
X859Y587D01*
X879Y587D02*
X899Y587D01*
X1949Y587D02*
X1955Y587D01*
X2003Y587D02*
X2009Y587D01*
X2358Y587D02*
X2361Y587D01*
X0Y586D02*
X3Y586D01*
X138Y586D02*
X142Y586D01*
X154Y586D02*
X158Y586D01*
X176Y586D02*
X180Y586D01*
X198Y586D02*
X201Y586D01*
X209Y586D02*
X215Y586D01*
X228Y586D02*
X232Y586D01*
X258Y586D02*
X261Y586D01*
X296Y586D02*
X299Y586D01*
X320Y586D02*
X324Y586D01*
X330Y586D02*
X335Y586D01*
X347Y586D02*
X351Y586D01*
X385Y586D02*
X388Y586D01*
X408Y586D02*
X409Y586D01*
X423Y586D02*
X426Y586D01*
X444Y586D02*
X449Y586D01*
X467Y586D02*
X473Y586D01*
X496Y586D02*
X500Y586D01*
X512Y586D02*
X515Y586D01*
X526Y586D02*
X529Y586D01*
X534Y586D02*
X537Y586D01*
X543Y586D02*
X546Y586D01*
X853Y586D02*
X859Y586D01*
X880Y586D02*
X899Y586D01*
X1949Y586D02*
X1955Y586D01*
X2003Y586D02*
X2009Y586D01*
X2358Y586D02*
X2361Y586D01*
X0Y585D02*
X3Y585D01*
X138Y585D02*
X142Y585D01*
X153Y585D02*
X157Y585D01*
X176Y585D02*
X180Y585D01*
X198Y585D02*
X201Y585D01*
X210Y585D02*
X216Y585D01*
X228Y585D02*
X233Y585D01*
X258Y585D02*
X261Y585D01*
X296Y585D02*
X299Y585D01*
X319Y585D02*
X323Y585D01*
X331Y585D02*
X335Y585D01*
X348Y585D02*
X352Y585D01*
X385Y585D02*
X388Y585D01*
X407Y585D02*
X410Y585D01*
X422Y585D02*
X426Y585D01*
X468Y585D02*
X474Y585D01*
X497Y585D02*
X501Y585D01*
X510Y585D02*
X515Y585D01*
X526Y585D02*
X529Y585D01*
X534Y585D02*
X537Y585D01*
X543Y585D02*
X546Y585D01*
X853Y585D02*
X859Y585D01*
X881Y585D02*
X899Y585D01*
X1949Y585D02*
X1955Y585D01*
X2003Y585D02*
X2009Y585D01*
X2358Y585D02*
X2361Y585D01*
X0Y584D02*
X3Y584D01*
X138Y584D02*
X157Y584D01*
X171Y584D02*
X185Y584D01*
X198Y584D02*
X201Y584D01*
X211Y584D02*
X217Y584D01*
X229Y584D02*
X247Y584D01*
X258Y584D02*
X261Y584D01*
X290Y584D02*
X304Y584D01*
X318Y584D02*
X322Y584D01*
X332Y584D02*
X336Y584D01*
X348Y584D02*
X366Y584D01*
X380Y584D02*
X394Y584D01*
X407Y584D02*
X426Y584D01*
X469Y584D02*
X485Y584D01*
X497Y584D02*
X514Y584D01*
X526Y584D02*
X529Y584D01*
X534Y584D02*
X537Y584D01*
X543Y584D02*
X546Y584D01*
X853Y584D02*
X859Y584D01*
X893Y584D02*
X899Y584D01*
X1949Y584D02*
X1955Y584D01*
X2003Y584D02*
X2009Y584D01*
X2358Y584D02*
X2361Y584D01*
X0Y583D02*
X3Y583D01*
X138Y583D02*
X156Y583D01*
X170Y583D02*
X186Y583D01*
X198Y583D02*
X201Y583D01*
X213Y583D02*
X218Y583D01*
X230Y583D02*
X247Y583D01*
X258Y583D02*
X261Y583D01*
X290Y583D02*
X305Y583D01*
X317Y583D02*
X322Y583D01*
X333Y583D02*
X337Y583D01*
X349Y583D02*
X367Y583D01*
X379Y583D02*
X394Y583D01*
X407Y583D02*
X425Y583D01*
X471Y583D02*
X486Y583D01*
X498Y583D02*
X513Y583D01*
X526Y583D02*
X529Y583D01*
X534Y583D02*
X537Y583D01*
X543Y583D02*
X546Y583D01*
X853Y583D02*
X859Y583D01*
X893Y583D02*
X899Y583D01*
X1949Y583D02*
X1955Y583D01*
X2003Y583D02*
X2009Y583D01*
X2358Y583D02*
X2361Y583D01*
X0Y582D02*
X3Y582D01*
X138Y582D02*
X155Y582D01*
X170Y582D02*
X186Y582D01*
X198Y582D02*
X201Y582D01*
X214Y582D02*
X218Y582D01*
X231Y582D02*
X247Y582D01*
X258Y582D02*
X261Y582D01*
X290Y582D02*
X305Y582D01*
X317Y582D02*
X321Y582D01*
X333Y582D02*
X337Y582D01*
X350Y582D02*
X367Y582D01*
X379Y582D02*
X394Y582D01*
X408Y582D02*
X424Y582D01*
X472Y582D02*
X486Y582D01*
X500Y582D02*
X512Y582D01*
X526Y582D02*
X529Y582D01*
X534Y582D02*
X537Y582D01*
X543Y582D02*
X546Y582D01*
X853Y582D02*
X859Y582D01*
X893Y582D02*
X899Y582D01*
X1949Y582D02*
X1955Y582D01*
X2003Y582D02*
X2009Y582D01*
X2358Y582D02*
X2361Y582D01*
X0Y581D02*
X3Y581D01*
X138Y581D02*
X153Y581D01*
X171Y581D02*
X185Y581D01*
X199Y581D02*
X201Y581D01*
X215Y581D02*
X217Y581D01*
X233Y581D02*
X247Y581D01*
X258Y581D02*
X260Y581D01*
X290Y581D02*
X304Y581D01*
X318Y581D02*
X320Y581D01*
X334Y581D02*
X336Y581D01*
X352Y581D02*
X366Y581D01*
X380Y581D02*
X394Y581D01*
X410Y581D02*
X423Y581D01*
X473Y581D02*
X485Y581D01*
X501Y581D02*
X511Y581D01*
X526Y581D02*
X528Y581D01*
X535Y581D02*
X537Y581D01*
X543Y581D02*
X545Y581D01*
X853Y581D02*
X859Y581D01*
X893Y581D02*
X899Y581D01*
X1949Y581D02*
X1955Y581D01*
X2003Y581D02*
X2009Y581D01*
X2358Y581D02*
X2361Y581D01*
X0Y580D02*
X3Y580D01*
X853Y580D02*
X859Y580D01*
X893Y580D02*
X899Y580D01*
X1949Y580D02*
X1955Y580D01*
X2003Y580D02*
X2009Y580D01*
X2358Y580D02*
X2361Y580D01*
X0Y579D02*
X3Y579D01*
X853Y579D02*
X859Y579D01*
X893Y579D02*
X899Y579D01*
X1949Y579D02*
X1955Y579D01*
X2003Y579D02*
X2009Y579D01*
X2358Y579D02*
X2361Y579D01*
X0Y578D02*
X3Y578D01*
X853Y578D02*
X859Y578D01*
X893Y578D02*
X899Y578D01*
X1949Y578D02*
X1955Y578D01*
X2003Y578D02*
X2009Y578D01*
X2358Y578D02*
X2361Y578D01*
X0Y577D02*
X3Y577D01*
X853Y577D02*
X859Y577D01*
X893Y577D02*
X899Y577D01*
X1949Y577D02*
X1955Y577D01*
X2003Y577D02*
X2009Y577D01*
X2358Y577D02*
X2361Y577D01*
X0Y576D02*
X3Y576D01*
X853Y576D02*
X859Y576D01*
X893Y576D02*
X899Y576D01*
X1949Y576D02*
X1955Y576D01*
X2003Y576D02*
X2009Y576D01*
X2358Y576D02*
X2361Y576D01*
X0Y575D02*
X3Y575D01*
X853Y575D02*
X859Y575D01*
X893Y575D02*
X899Y575D01*
X1949Y575D02*
X1955Y575D01*
X2003Y575D02*
X2009Y575D01*
X2358Y575D02*
X2361Y575D01*
X0Y574D02*
X3Y574D01*
X853Y574D02*
X859Y574D01*
X893Y574D02*
X899Y574D01*
X1949Y574D02*
X1955Y574D01*
X2003Y574D02*
X2009Y574D01*
X2358Y574D02*
X2361Y574D01*
X0Y573D02*
X3Y573D01*
X853Y573D02*
X859Y573D01*
X893Y573D02*
X899Y573D01*
X1949Y573D02*
X1955Y573D01*
X2003Y573D02*
X2009Y573D01*
X2358Y573D02*
X2361Y573D01*
X0Y572D02*
X3Y572D01*
X853Y572D02*
X859Y572D01*
X893Y572D02*
X899Y572D01*
X1949Y572D02*
X1955Y572D01*
X1980Y572D02*
X2009Y572D01*
X2358Y572D02*
X2361Y572D01*
X0Y571D02*
X3Y571D01*
X853Y571D02*
X859Y571D01*
X893Y571D02*
X899Y571D01*
X1949Y571D02*
X1955Y571D01*
X1978Y571D02*
X2009Y571D01*
X2358Y571D02*
X2361Y571D01*
X0Y570D02*
X3Y570D01*
X853Y570D02*
X859Y570D01*
X893Y570D02*
X899Y570D01*
X1949Y570D02*
X1955Y570D01*
X1977Y570D02*
X2008Y570D01*
X2358Y570D02*
X2361Y570D01*
X0Y569D02*
X3Y569D01*
X853Y569D02*
X859Y569D01*
X893Y569D02*
X899Y569D01*
X1949Y569D02*
X1955Y569D01*
X1976Y569D02*
X2008Y569D01*
X2358Y569D02*
X2361Y569D01*
X0Y568D02*
X3Y568D01*
X853Y568D02*
X859Y568D01*
X893Y568D02*
X899Y568D01*
X1949Y568D02*
X1955Y568D01*
X1976Y568D02*
X2007Y568D01*
X2358Y568D02*
X2361Y568D01*
X0Y567D02*
X3Y567D01*
X366Y567D02*
X375Y567D01*
X405Y567D02*
X412Y567D01*
X853Y567D02*
X859Y567D01*
X893Y567D02*
X899Y567D01*
X1949Y567D02*
X1955Y567D01*
X1975Y567D02*
X2006Y567D01*
X2358Y567D02*
X2361Y567D01*
X0Y566D02*
X3Y566D01*
X365Y566D02*
X377Y566D01*
X405Y566D02*
X412Y566D01*
X853Y566D02*
X859Y566D01*
X893Y566D02*
X899Y566D01*
X1930Y566D02*
X1933Y566D01*
X1949Y566D02*
X1955Y566D01*
X1975Y566D02*
X2004Y566D01*
X2358Y566D02*
X2361Y566D01*
X0Y565D02*
X3Y565D01*
X364Y565D02*
X377Y565D01*
X405Y565D02*
X412Y565D01*
X853Y565D02*
X859Y565D01*
X893Y565D02*
X899Y565D01*
X1929Y565D02*
X1934Y565D01*
X1949Y565D02*
X1955Y565D01*
X1975Y565D02*
X1981Y565D01*
X2358Y565D02*
X2361Y565D01*
X0Y564D02*
X3Y564D01*
X364Y564D02*
X366Y564D01*
X375Y564D02*
X377Y564D01*
X410Y564D02*
X412Y564D01*
X853Y564D02*
X859Y564D01*
X893Y564D02*
X899Y564D01*
X1929Y564D02*
X1934Y564D01*
X1949Y564D02*
X1955Y564D01*
X1975Y564D02*
X1981Y564D01*
X2358Y564D02*
X2361Y564D01*
X0Y563D02*
X3Y563D01*
X364Y563D02*
X366Y563D01*
X375Y563D02*
X377Y563D01*
X410Y563D02*
X412Y563D01*
X853Y563D02*
X859Y563D01*
X893Y563D02*
X899Y563D01*
X1929Y563D02*
X1935Y563D01*
X1949Y563D02*
X1955Y563D01*
X1975Y563D02*
X1981Y563D01*
X2358Y563D02*
X2361Y563D01*
X0Y562D02*
X3Y562D01*
X364Y562D02*
X366Y562D01*
X375Y562D02*
X377Y562D01*
X410Y562D02*
X412Y562D01*
X853Y562D02*
X859Y562D01*
X893Y562D02*
X899Y562D01*
X1929Y562D02*
X1935Y562D01*
X1949Y562D02*
X1955Y562D01*
X1975Y562D02*
X1981Y562D01*
X2358Y562D02*
X2361Y562D01*
X0Y561D02*
X3Y561D01*
X244Y561D02*
X244Y561D01*
X249Y561D02*
X254Y561D01*
X267Y561D02*
X273Y561D01*
X287Y561D02*
X294Y561D01*
X304Y561D02*
X305Y561D01*
X310Y561D02*
X314Y561D01*
X345Y561D02*
X345Y561D01*
X356Y561D02*
X356Y561D01*
X364Y561D02*
X366Y561D01*
X375Y561D02*
X377Y561D01*
X410Y561D02*
X412Y561D01*
X834Y561D02*
X837Y561D01*
X853Y561D02*
X859Y561D01*
X893Y561D02*
X899Y561D01*
X908Y561D02*
X911Y561D01*
X1929Y561D02*
X1935Y561D01*
X1949Y561D02*
X1955Y561D01*
X1975Y561D02*
X1981Y561D01*
X2358Y561D02*
X2361Y561D01*
X0Y560D02*
X3Y560D01*
X243Y560D02*
X245Y560D01*
X248Y560D02*
X255Y560D01*
X265Y560D02*
X274Y560D01*
X286Y560D02*
X295Y560D01*
X304Y560D02*
X305Y560D01*
X308Y560D02*
X315Y560D01*
X344Y560D02*
X346Y560D01*
X355Y560D02*
X357Y560D01*
X364Y560D02*
X366Y560D01*
X375Y560D02*
X377Y560D01*
X410Y560D02*
X412Y560D01*
X833Y560D02*
X838Y560D01*
X853Y560D02*
X859Y560D01*
X893Y560D02*
X899Y560D01*
X907Y560D02*
X912Y560D01*
X1929Y560D02*
X1935Y560D01*
X1949Y560D02*
X1955Y560D01*
X1975Y560D02*
X1981Y560D01*
X2358Y560D02*
X2361Y560D01*
X0Y559D02*
X3Y559D01*
X243Y559D02*
X245Y559D01*
X247Y559D02*
X256Y559D01*
X264Y559D02*
X275Y559D01*
X287Y559D02*
X296Y559D01*
X304Y559D02*
X316Y559D01*
X344Y559D02*
X346Y559D01*
X355Y559D02*
X357Y559D01*
X364Y559D02*
X366Y559D01*
X375Y559D02*
X377Y559D01*
X410Y559D02*
X412Y559D01*
X833Y559D02*
X838Y559D01*
X853Y559D02*
X859Y559D01*
X893Y559D02*
X899Y559D01*
X907Y559D02*
X913Y559D01*
X1929Y559D02*
X1935Y559D01*
X1949Y559D02*
X1955Y559D01*
X1975Y559D02*
X1981Y559D01*
X2358Y559D02*
X2361Y559D01*
X0Y558D02*
X3Y558D01*
X243Y558D02*
X249Y558D01*
X254Y558D02*
X256Y558D01*
X264Y558D02*
X266Y558D01*
X273Y558D02*
X276Y558D01*
X294Y558D02*
X296Y558D01*
X304Y558D02*
X309Y558D01*
X314Y558D02*
X316Y558D01*
X344Y558D02*
X346Y558D01*
X355Y558D02*
X357Y558D01*
X364Y558D02*
X366Y558D01*
X375Y558D02*
X377Y558D01*
X410Y558D02*
X412Y558D01*
X832Y558D02*
X838Y558D01*
X853Y558D02*
X859Y558D01*
X893Y558D02*
X899Y558D01*
X907Y558D02*
X913Y558D01*
X1929Y558D02*
X1935Y558D01*
X1949Y558D02*
X1955Y558D01*
X1975Y558D02*
X1981Y558D01*
X2358Y558D02*
X2361Y558D01*
X0Y557D02*
X3Y557D01*
X243Y557D02*
X248Y557D01*
X254Y557D02*
X256Y557D01*
X263Y557D02*
X265Y557D01*
X274Y557D02*
X276Y557D01*
X294Y557D02*
X296Y557D01*
X304Y557D02*
X308Y557D01*
X315Y557D02*
X317Y557D01*
X344Y557D02*
X346Y557D01*
X355Y557D02*
X357Y557D01*
X364Y557D02*
X366Y557D01*
X375Y557D02*
X377Y557D01*
X410Y557D02*
X412Y557D01*
X832Y557D02*
X838Y557D01*
X853Y557D02*
X859Y557D01*
X893Y557D02*
X899Y557D01*
X907Y557D02*
X913Y557D01*
X1929Y557D02*
X1935Y557D01*
X1949Y557D02*
X1955Y557D01*
X1975Y557D02*
X1981Y557D01*
X2358Y557D02*
X2361Y557D01*
X0Y556D02*
X3Y556D01*
X243Y556D02*
X247Y556D01*
X254Y556D02*
X256Y556D01*
X263Y556D02*
X265Y556D01*
X274Y556D02*
X276Y556D01*
X294Y556D02*
X296Y556D01*
X304Y556D02*
X307Y556D01*
X315Y556D02*
X316Y556D01*
X345Y556D02*
X347Y556D01*
X354Y556D02*
X356Y556D01*
X364Y556D02*
X366Y556D01*
X375Y556D02*
X377Y556D01*
X410Y556D02*
X412Y556D01*
X832Y556D02*
X838Y556D01*
X853Y556D02*
X859Y556D01*
X893Y556D02*
X899Y556D01*
X907Y556D02*
X913Y556D01*
X1929Y556D02*
X1935Y556D01*
X1949Y556D02*
X1955Y556D01*
X1975Y556D02*
X1981Y556D01*
X2358Y556D02*
X2361Y556D01*
X0Y555D02*
X3Y555D01*
X243Y555D02*
X245Y555D01*
X263Y555D02*
X265Y555D01*
X274Y555D02*
X276Y555D01*
X286Y555D02*
X296Y555D01*
X304Y555D02*
X306Y555D01*
X345Y555D02*
X347Y555D01*
X354Y555D02*
X356Y555D01*
X364Y555D02*
X366Y555D01*
X375Y555D02*
X377Y555D01*
X410Y555D02*
X412Y555D01*
X416Y555D02*
X417Y555D01*
X832Y555D02*
X838Y555D01*
X853Y555D02*
X859Y555D01*
X893Y555D02*
X899Y555D01*
X907Y555D02*
X913Y555D01*
X1929Y555D02*
X1935Y555D01*
X1949Y555D02*
X1955Y555D01*
X1975Y555D02*
X1981Y555D01*
X2358Y555D02*
X2361Y555D01*
X0Y554D02*
X3Y554D01*
X243Y554D02*
X245Y554D01*
X263Y554D02*
X276Y554D01*
X285Y554D02*
X296Y554D01*
X304Y554D02*
X305Y554D01*
X345Y554D02*
X347Y554D01*
X353Y554D02*
X355Y554D01*
X364Y554D02*
X366Y554D01*
X375Y554D02*
X377Y554D01*
X389Y554D02*
X392Y554D01*
X410Y554D02*
X412Y554D01*
X416Y554D02*
X417Y554D01*
X832Y554D02*
X838Y554D01*
X853Y554D02*
X859Y554D01*
X893Y554D02*
X899Y554D01*
X907Y554D02*
X913Y554D01*
X1929Y554D02*
X1935Y554D01*
X1949Y554D02*
X1955Y554D01*
X1975Y554D02*
X1981Y554D01*
X2358Y554D02*
X2361Y554D01*
X0Y553D02*
X3Y553D01*
X243Y553D02*
X245Y553D01*
X263Y553D02*
X276Y553D01*
X284Y553D02*
X296Y553D01*
X304Y553D02*
X305Y553D01*
X346Y553D02*
X348Y553D01*
X353Y553D02*
X355Y553D01*
X364Y553D02*
X366Y553D01*
X375Y553D02*
X377Y553D01*
X388Y553D02*
X393Y553D01*
X410Y553D02*
X412Y553D01*
X416Y553D02*
X417Y553D01*
X832Y553D02*
X838Y553D01*
X853Y553D02*
X859Y553D01*
X893Y553D02*
X899Y553D01*
X907Y553D02*
X913Y553D01*
X1929Y553D02*
X1935Y553D01*
X1949Y553D02*
X1955Y553D01*
X1975Y553D02*
X1981Y553D01*
X2358Y553D02*
X2361Y553D01*
X0Y552D02*
X3Y552D01*
X243Y552D02*
X245Y552D01*
X263Y552D02*
X276Y552D01*
X284Y552D02*
X286Y552D01*
X294Y552D02*
X296Y552D01*
X304Y552D02*
X305Y552D01*
X346Y552D02*
X348Y552D01*
X352Y552D02*
X355Y552D01*
X364Y552D02*
X366Y552D01*
X375Y552D02*
X377Y552D01*
X388Y552D02*
X393Y552D01*
X410Y552D02*
X412Y552D01*
X416Y552D02*
X417Y552D01*
X832Y552D02*
X838Y552D01*
X853Y552D02*
X859Y552D01*
X893Y552D02*
X899Y552D01*
X907Y552D02*
X913Y552D01*
X1929Y552D02*
X1935Y552D01*
X1949Y552D02*
X1955Y552D01*
X1975Y552D02*
X1981Y552D01*
X2358Y552D02*
X2361Y552D01*
X0Y551D02*
X3Y551D01*
X243Y551D02*
X245Y551D01*
X263Y551D02*
X265Y551D01*
X283Y551D02*
X285Y551D01*
X294Y551D02*
X296Y551D01*
X304Y551D02*
X305Y551D01*
X347Y551D02*
X349Y551D01*
X352Y551D02*
X354Y551D01*
X364Y551D02*
X366Y551D01*
X375Y551D02*
X377Y551D01*
X388Y551D02*
X393Y551D01*
X410Y551D02*
X412Y551D01*
X416Y551D02*
X417Y551D01*
X832Y551D02*
X838Y551D01*
X853Y551D02*
X859Y551D01*
X893Y551D02*
X899Y551D01*
X907Y551D02*
X913Y551D01*
X1929Y551D02*
X1935Y551D01*
X1949Y551D02*
X1955Y551D01*
X1975Y551D02*
X1981Y551D01*
X2358Y551D02*
X2361Y551D01*
X0Y550D02*
X3Y550D01*
X243Y550D02*
X245Y550D01*
X263Y550D02*
X265Y550D01*
X283Y550D02*
X285Y550D01*
X294Y550D02*
X296Y550D01*
X304Y550D02*
X305Y550D01*
X347Y550D02*
X349Y550D01*
X352Y550D02*
X354Y550D01*
X364Y550D02*
X366Y550D01*
X375Y550D02*
X377Y550D01*
X389Y550D02*
X393Y550D01*
X410Y550D02*
X412Y550D01*
X416Y550D02*
X417Y550D01*
X832Y550D02*
X838Y550D01*
X853Y550D02*
X859Y550D01*
X893Y550D02*
X899Y550D01*
X907Y550D02*
X913Y550D01*
X1929Y550D02*
X1936Y550D01*
X1948Y550D02*
X1955Y550D01*
X1975Y550D02*
X1981Y550D01*
X2358Y550D02*
X2361Y550D01*
X0Y549D02*
X3Y549D01*
X243Y549D02*
X245Y549D01*
X264Y549D02*
X266Y549D01*
X284Y549D02*
X286Y549D01*
X293Y549D02*
X296Y549D01*
X304Y549D02*
X305Y549D01*
X348Y549D02*
X353Y549D01*
X364Y549D02*
X366Y549D01*
X375Y549D02*
X377Y549D01*
X410Y549D02*
X412Y549D01*
X416Y549D02*
X417Y549D01*
X832Y549D02*
X838Y549D01*
X853Y549D02*
X859Y549D01*
X893Y549D02*
X899Y549D01*
X907Y549D02*
X913Y549D01*
X1929Y549D02*
X1937Y549D01*
X1947Y549D02*
X1955Y549D01*
X1975Y549D02*
X1982Y549D01*
X2358Y549D02*
X2361Y549D01*
X0Y548D02*
X3Y548D01*
X243Y548D02*
X245Y548D01*
X264Y548D02*
X276Y548D01*
X284Y548D02*
X296Y548D01*
X304Y548D02*
X305Y548D01*
X348Y548D02*
X353Y548D01*
X364Y548D02*
X377Y548D01*
X405Y548D02*
X417Y548D01*
X832Y548D02*
X838Y548D01*
X853Y548D02*
X859Y548D01*
X893Y548D02*
X899Y548D01*
X907Y548D02*
X913Y548D01*
X1930Y548D02*
X1954Y548D01*
X1975Y548D02*
X2008Y548D01*
X2358Y548D02*
X2361Y548D01*
X0Y547D02*
X3Y547D01*
X243Y547D02*
X245Y547D01*
X265Y547D02*
X276Y547D01*
X285Y547D02*
X296Y547D01*
X304Y547D02*
X305Y547D01*
X348Y547D02*
X352Y547D01*
X365Y547D02*
X377Y547D01*
X405Y547D02*
X417Y547D01*
X833Y547D02*
X839Y547D01*
X853Y547D02*
X859Y547D01*
X893Y547D02*
X899Y547D01*
X907Y547D02*
X913Y547D01*
X1930Y547D02*
X1954Y547D01*
X1975Y547D02*
X2008Y547D01*
X2358Y547D02*
X2361Y547D01*
X0Y546D02*
X3Y546D01*
X244Y546D02*
X244Y546D01*
X267Y546D02*
X276Y546D01*
X286Y546D02*
X292Y546D01*
X295Y546D02*
X296Y546D01*
X304Y546D02*
X305Y546D01*
X349Y546D02*
X352Y546D01*
X365Y546D02*
X376Y546D01*
X405Y546D02*
X417Y546D01*
X833Y546D02*
X839Y546D01*
X853Y546D02*
X859Y546D01*
X893Y546D02*
X899Y546D01*
X907Y546D02*
X913Y546D01*
X1931Y546D02*
X1953Y546D01*
X1975Y546D02*
X2009Y546D01*
X2358Y546D02*
X2361Y546D01*
X0Y545D02*
X3Y545D01*
X833Y545D02*
X840Y545D01*
X852Y545D02*
X859Y545D01*
X893Y545D02*
X899Y545D01*
X907Y545D02*
X913Y545D01*
X1932Y545D02*
X1952Y545D01*
X1975Y545D02*
X2009Y545D01*
X2358Y545D02*
X2361Y545D01*
X0Y544D02*
X3Y544D01*
X833Y544D02*
X858Y544D01*
X881Y544D02*
X913Y544D01*
X1933Y544D02*
X1951Y544D01*
X1975Y544D02*
X2009Y544D01*
X2358Y544D02*
X2361Y544D01*
X0Y543D02*
X3Y543D01*
X834Y543D02*
X858Y543D01*
X880Y543D02*
X913Y543D01*
X1934Y543D02*
X1950Y543D01*
X1975Y543D02*
X2008Y543D01*
X2358Y543D02*
X2361Y543D01*
X0Y542D02*
X3Y542D01*
X834Y542D02*
X857Y542D01*
X879Y542D02*
X913Y542D01*
X1937Y542D02*
X1947Y542D01*
X1976Y542D02*
X2006Y542D01*
X2358Y542D02*
X2361Y542D01*
X0Y541D02*
X3Y541D01*
X835Y541D02*
X857Y541D01*
X879Y541D02*
X913Y541D01*
X2358Y541D02*
X2361Y541D01*
X0Y540D02*
X3Y540D01*
X836Y540D02*
X856Y540D01*
X879Y540D02*
X912Y540D01*
X2358Y540D02*
X2361Y540D01*
X0Y539D02*
X3Y539D01*
X837Y539D02*
X854Y539D01*
X880Y539D02*
X912Y539D01*
X2358Y539D02*
X2361Y539D01*
X0Y538D02*
X3Y538D01*
X839Y538D02*
X852Y538D01*
X881Y538D02*
X911Y538D01*
X2358Y538D02*
X2361Y538D01*
X0Y537D02*
X3Y537D01*
X2358Y537D02*
X2361Y537D01*
X0Y536D02*
X3Y536D01*
X2358Y536D02*
X2361Y536D01*
X0Y535D02*
X3Y535D01*
X2358Y535D02*
X2361Y535D01*
X0Y534D02*
X3Y534D01*
X2358Y534D02*
X2361Y534D01*
X0Y533D02*
X3Y533D01*
X2358Y533D02*
X2361Y533D01*
X0Y532D02*
X3Y532D01*
X1121Y532D02*
X1138Y532D01*
X1152Y532D02*
X1169Y532D01*
X2358Y532D02*
X2361Y532D01*
X0Y531D02*
X3Y531D01*
X1121Y531D02*
X1139Y531D01*
X1151Y531D02*
X1170Y531D01*
X2358Y531D02*
X2361Y531D01*
X0Y530D02*
X3Y530D01*
X1121Y530D02*
X1140Y530D01*
X1152Y530D02*
X1171Y530D01*
X2358Y530D02*
X2361Y530D01*
X0Y529D02*
X3Y529D01*
X1121Y529D02*
X1141Y529D01*
X1153Y529D02*
X1171Y529D01*
X2358Y529D02*
X2361Y529D01*
X0Y528D02*
X3Y528D01*
X1121Y528D02*
X1125Y528D01*
X1137Y528D02*
X1141Y528D01*
X1168Y528D02*
X1171Y528D01*
X2358Y528D02*
X2361Y528D01*
X0Y527D02*
X3Y527D01*
X1121Y527D02*
X1125Y527D01*
X1138Y527D02*
X1141Y527D01*
X1168Y527D02*
X1171Y527D01*
X2358Y527D02*
X2361Y527D01*
X0Y526D02*
X3Y526D01*
X1121Y526D02*
X1125Y526D01*
X1138Y526D02*
X1141Y526D01*
X1168Y526D02*
X1171Y526D01*
X2358Y526D02*
X2361Y526D01*
X0Y525D02*
X3Y525D01*
X1121Y525D02*
X1125Y525D01*
X1138Y525D02*
X1141Y525D01*
X1168Y525D02*
X1171Y525D01*
X2358Y525D02*
X2361Y525D01*
X0Y524D02*
X3Y524D01*
X1121Y524D02*
X1125Y524D01*
X1138Y524D02*
X1141Y524D01*
X1168Y524D02*
X1171Y524D01*
X2358Y524D02*
X2361Y524D01*
X0Y523D02*
X3Y523D01*
X1121Y523D02*
X1125Y523D01*
X1137Y523D02*
X1141Y523D01*
X1168Y523D02*
X1171Y523D01*
X2358Y523D02*
X2361Y523D01*
X0Y522D02*
X3Y522D01*
X1121Y522D02*
X1141Y522D01*
X1168Y522D02*
X1171Y522D01*
X2358Y522D02*
X2361Y522D01*
X0Y521D02*
X3Y521D01*
X1121Y521D02*
X1140Y521D01*
X1168Y521D02*
X1171Y521D01*
X2358Y521D02*
X2361Y521D01*
X0Y520D02*
X3Y520D01*
X1121Y520D02*
X1139Y520D01*
X1168Y520D02*
X1171Y520D01*
X2358Y520D02*
X2361Y520D01*
X0Y519D02*
X3Y519D01*
X1121Y519D02*
X1138Y519D01*
X1168Y519D02*
X1171Y519D01*
X2358Y519D02*
X2361Y519D01*
X0Y518D02*
X3Y518D01*
X1121Y518D02*
X1125Y518D01*
X1128Y518D02*
X1133Y518D01*
X1153Y518D02*
X1171Y518D01*
X2358Y518D02*
X2361Y518D01*
X0Y517D02*
X3Y517D01*
X1121Y517D02*
X1125Y517D01*
X1129Y517D02*
X1133Y517D01*
X1152Y517D02*
X1171Y517D01*
X2358Y517D02*
X2361Y517D01*
X0Y516D02*
X3Y516D01*
X1121Y516D02*
X1125Y516D01*
X1130Y516D02*
X1134Y516D01*
X1152Y516D02*
X1170Y516D01*
X2358Y516D02*
X2361Y516D01*
X0Y515D02*
X3Y515D01*
X1121Y515D02*
X1125Y515D01*
X1130Y515D02*
X1134Y515D01*
X1152Y515D02*
X1169Y515D01*
X2358Y515D02*
X2361Y515D01*
X0Y514D02*
X3Y514D01*
X1121Y514D02*
X1125Y514D01*
X1131Y514D02*
X1135Y514D01*
X1151Y514D02*
X1155Y514D01*
X2358Y514D02*
X2361Y514D01*
X0Y513D02*
X3Y513D01*
X1121Y513D02*
X1125Y513D01*
X1131Y513D02*
X1135Y513D01*
X1151Y513D02*
X1155Y513D01*
X2358Y513D02*
X2361Y513D01*
X0Y512D02*
X3Y512D01*
X1121Y512D02*
X1125Y512D01*
X1132Y512D02*
X1136Y512D01*
X1151Y512D02*
X1155Y512D01*
X2358Y512D02*
X2361Y512D01*
X0Y511D02*
X3Y511D01*
X1121Y511D02*
X1125Y511D01*
X1133Y511D02*
X1137Y511D01*
X1151Y511D02*
X1155Y511D01*
X2358Y511D02*
X2361Y511D01*
X0Y510D02*
X3Y510D01*
X1121Y510D02*
X1125Y510D01*
X1133Y510D02*
X1137Y510D01*
X1151Y510D02*
X1155Y510D01*
X2358Y510D02*
X2361Y510D01*
X0Y509D02*
X3Y509D01*
X1121Y509D02*
X1125Y509D01*
X1134Y509D02*
X1138Y509D01*
X1151Y509D02*
X1155Y509D01*
X2358Y509D02*
X2361Y509D01*
X0Y508D02*
X3Y508D01*
X1121Y508D02*
X1125Y508D01*
X1134Y508D02*
X1138Y508D01*
X1151Y508D02*
X1155Y508D01*
X2358Y508D02*
X2361Y508D01*
X0Y507D02*
X3Y507D01*
X1121Y507D02*
X1125Y507D01*
X1135Y507D02*
X1139Y507D01*
X1151Y507D02*
X1155Y507D01*
X2358Y507D02*
X2361Y507D01*
X0Y506D02*
X3Y506D01*
X1121Y506D02*
X1125Y506D01*
X1136Y506D02*
X1139Y506D01*
X1151Y506D02*
X1155Y506D01*
X2358Y506D02*
X2361Y506D01*
X0Y505D02*
X3Y505D01*
X1121Y505D02*
X1125Y505D01*
X1136Y505D02*
X1140Y505D01*
X1151Y505D02*
X1155Y505D01*
X2358Y505D02*
X2361Y505D01*
X0Y504D02*
X3Y504D01*
X1121Y504D02*
X1125Y504D01*
X1137Y504D02*
X1141Y504D01*
X1151Y504D02*
X1170Y504D01*
X2358Y504D02*
X2361Y504D01*
X0Y503D02*
X3Y503D01*
X1121Y503D02*
X1125Y503D01*
X1137Y503D02*
X1141Y503D01*
X1151Y503D02*
X1171Y503D01*
X2358Y503D02*
X2361Y503D01*
X0Y502D02*
X3Y502D01*
X1122Y502D02*
X1125Y502D01*
X1138Y502D02*
X1141Y502D01*
X1151Y502D02*
X1171Y502D01*
X2358Y502D02*
X2361Y502D01*
X0Y501D02*
X3Y501D01*
X1122Y501D02*
X1124Y501D01*
X1139Y501D02*
X1140Y501D01*
X1151Y501D02*
X1170Y501D01*
X2358Y501D02*
X2361Y501D01*
X0Y500D02*
X3Y500D01*
X2358Y500D02*
X2361Y500D01*
X0Y499D02*
X3Y499D01*
X2358Y499D02*
X2361Y499D01*
X0Y498D02*
X3Y498D01*
X2358Y498D02*
X2361Y498D01*
X0Y497D02*
X3Y497D01*
X2358Y497D02*
X2361Y497D01*
X0Y496D02*
X3Y496D01*
X2358Y496D02*
X2361Y496D01*
X0Y495D02*
X3Y495D01*
X2358Y495D02*
X2361Y495D01*
X0Y494D02*
X3Y494D01*
X2358Y494D02*
X2361Y494D01*
X0Y493D02*
X3Y493D01*
X2358Y493D02*
X2361Y493D01*
X0Y492D02*
X3Y492D01*
X2358Y492D02*
X2361Y492D01*
X0Y491D02*
X3Y491D01*
X2358Y491D02*
X2361Y491D01*
X0Y490D02*
X3Y490D01*
X2358Y490D02*
X2361Y490D01*
X0Y489D02*
X3Y489D01*
X2358Y489D02*
X2361Y489D01*
X0Y488D02*
X3Y488D01*
X2358Y488D02*
X2361Y488D01*
X0Y487D02*
X3Y487D01*
X2358Y487D02*
X2361Y487D01*
X0Y486D02*
X3Y486D01*
X2358Y486D02*
X2361Y486D01*
X0Y485D02*
X3Y485D01*
X2358Y485D02*
X2361Y485D01*
X0Y484D02*
X3Y484D01*
X2358Y484D02*
X2361Y484D01*
X0Y483D02*
X3Y483D01*
X2358Y483D02*
X2361Y483D01*
X0Y482D02*
X3Y482D01*
X2358Y482D02*
X2361Y482D01*
X0Y481D02*
X3Y481D01*
X2358Y481D02*
X2361Y481D01*
X0Y480D02*
X3Y480D01*
X2358Y480D02*
X2361Y480D01*
X0Y479D02*
X3Y479D01*
X2358Y479D02*
X2361Y479D01*
X0Y478D02*
X3Y478D01*
X2358Y478D02*
X2361Y478D01*
X0Y477D02*
X3Y477D01*
X2358Y477D02*
X2361Y477D01*
X0Y476D02*
X3Y476D01*
X2358Y476D02*
X2361Y476D01*
X0Y475D02*
X3Y475D01*
X2358Y475D02*
X2361Y475D01*
X0Y474D02*
X3Y474D01*
X1117Y474D02*
X1184Y474D01*
X1384Y474D02*
X1432Y474D01*
X2358Y474D02*
X2361Y474D01*
X0Y473D02*
X3Y473D01*
X1117Y473D02*
X1184Y473D01*
X1384Y473D02*
X1432Y473D01*
X2358Y473D02*
X2361Y473D01*
X0Y472D02*
X3Y472D01*
X1117Y472D02*
X1184Y472D01*
X1384Y472D02*
X1432Y472D01*
X2358Y472D02*
X2361Y472D01*
X0Y471D02*
X3Y471D01*
X1117Y471D02*
X1184Y471D01*
X1384Y471D02*
X1432Y471D01*
X2358Y471D02*
X2361Y471D01*
X0Y470D02*
X3Y470D01*
X1117Y470D02*
X1184Y470D01*
X1384Y470D02*
X1431Y470D01*
X2358Y470D02*
X2361Y470D01*
X0Y469D02*
X3Y469D01*
X1117Y469D02*
X1184Y469D01*
X1384Y469D02*
X1432Y469D01*
X2358Y469D02*
X2361Y469D01*
X0Y468D02*
X3Y468D01*
X1117Y468D02*
X1184Y468D01*
X1384Y468D02*
X1432Y468D01*
X2358Y468D02*
X2361Y468D01*
X0Y467D02*
X3Y467D01*
X1117Y467D02*
X1184Y467D01*
X1384Y467D02*
X1432Y467D01*
X2358Y467D02*
X2361Y467D01*
X0Y466D02*
X3Y466D01*
X1117Y466D02*
X1184Y466D01*
X1384Y466D02*
X1432Y466D01*
X2358Y466D02*
X2361Y466D01*
X0Y465D02*
X3Y465D01*
X1117Y465D02*
X1183Y465D01*
X1385Y465D02*
X1432Y465D01*
X2358Y465D02*
X2361Y465D01*
X0Y464D02*
X3Y464D01*
X2358Y464D02*
X2361Y464D01*
X0Y463D02*
X3Y463D01*
X2358Y463D02*
X2361Y463D01*
X0Y462D02*
X3Y462D01*
X2358Y462D02*
X2361Y462D01*
X0Y461D02*
X3Y461D01*
X2358Y461D02*
X2361Y461D01*
X0Y460D02*
X3Y460D01*
X2358Y460D02*
X2361Y460D01*
X0Y459D02*
X3Y459D01*
X2358Y459D02*
X2361Y459D01*
X0Y458D02*
X3Y458D01*
X2358Y458D02*
X2361Y458D01*
X0Y457D02*
X3Y457D01*
X2358Y457D02*
X2361Y457D01*
X0Y456D02*
X3Y456D01*
X2358Y456D02*
X2361Y456D01*
X0Y455D02*
X3Y455D01*
X2358Y455D02*
X2361Y455D01*
X0Y454D02*
X3Y454D01*
X2358Y454D02*
X2361Y454D01*
X0Y453D02*
X3Y453D01*
X2358Y453D02*
X2361Y453D01*
X0Y452D02*
X3Y452D01*
X2358Y452D02*
X2361Y452D01*
X0Y451D02*
X3Y451D01*
X2358Y451D02*
X2361Y451D01*
X0Y450D02*
X3Y450D01*
X2358Y450D02*
X2361Y450D01*
X0Y449D02*
X3Y449D01*
X2358Y449D02*
X2361Y449D01*
X0Y448D02*
X3Y448D01*
X2358Y448D02*
X2361Y448D01*
X0Y447D02*
X3Y447D01*
X2358Y447D02*
X2361Y447D01*
X0Y446D02*
X3Y446D01*
X2358Y446D02*
X2361Y446D01*
X0Y445D02*
X3Y445D01*
X2358Y445D02*
X2361Y445D01*
X0Y444D02*
X3Y444D01*
X2358Y444D02*
X2361Y444D01*
X0Y443D02*
X3Y443D01*
X2358Y443D02*
X2361Y443D01*
X0Y442D02*
X3Y442D01*
X2358Y442D02*
X2361Y442D01*
X0Y441D02*
X3Y441D01*
X2358Y441D02*
X2361Y441D01*
X0Y440D02*
X3Y440D01*
X2358Y440D02*
X2361Y440D01*
X0Y439D02*
X3Y439D01*
X2358Y439D02*
X2361Y439D01*
X0Y438D02*
X3Y438D01*
X2358Y438D02*
X2361Y438D01*
X0Y437D02*
X3Y437D01*
X2358Y437D02*
X2361Y437D01*
X0Y436D02*
X3Y436D01*
X2358Y436D02*
X2361Y436D01*
X0Y435D02*
X3Y435D01*
X2358Y435D02*
X2361Y435D01*
X0Y434D02*
X3Y434D01*
X2358Y434D02*
X2361Y434D01*
X0Y433D02*
X3Y433D01*
X2358Y433D02*
X2361Y433D01*
X0Y432D02*
X3Y432D01*
X2358Y432D02*
X2361Y432D01*
X0Y431D02*
X3Y431D01*
X2358Y431D02*
X2361Y431D01*
X0Y430D02*
X3Y430D01*
X510Y430D02*
X525Y430D01*
X542Y430D02*
X542Y430D01*
X1127Y430D02*
X1142Y430D01*
X1158Y430D02*
X1174Y430D01*
X2358Y430D02*
X2361Y430D01*
X0Y429D02*
X3Y429D01*
X509Y429D02*
X526Y429D01*
X541Y429D02*
X543Y429D01*
X1127Y429D02*
X1144Y429D01*
X1157Y429D02*
X1175Y429D01*
X2358Y429D02*
X2361Y429D01*
X0Y428D02*
X3Y428D01*
X509Y428D02*
X528Y428D01*
X540Y428D02*
X544Y428D01*
X1127Y428D02*
X1145Y428D01*
X1157Y428D02*
X1176Y428D01*
X2358Y428D02*
X2361Y428D01*
X0Y427D02*
X3Y427D01*
X509Y427D02*
X528Y427D01*
X540Y427D02*
X544Y427D01*
X1127Y427D02*
X1146Y427D01*
X1157Y427D02*
X1176Y427D01*
X2358Y427D02*
X2361Y427D01*
X0Y426D02*
X3Y426D01*
X509Y426D02*
X513Y426D01*
X524Y426D02*
X529Y426D01*
X540Y426D02*
X544Y426D01*
X554Y426D02*
X556Y426D01*
X1127Y426D02*
X1130Y426D01*
X1142Y426D02*
X1146Y426D01*
X1173Y426D02*
X1176Y426D01*
X2358Y426D02*
X2361Y426D01*
X0Y425D02*
X3Y425D01*
X509Y425D02*
X513Y425D01*
X526Y425D02*
X529Y425D01*
X540Y425D02*
X544Y425D01*
X553Y425D02*
X556Y425D01*
X1127Y425D02*
X1130Y425D01*
X1143Y425D02*
X1146Y425D01*
X1173Y425D02*
X1176Y425D01*
X2358Y425D02*
X2361Y425D01*
X0Y424D02*
X3Y424D01*
X509Y424D02*
X513Y424D01*
X526Y424D02*
X529Y424D01*
X540Y424D02*
X544Y424D01*
X553Y424D02*
X556Y424D01*
X1127Y424D02*
X1130Y424D01*
X1143Y424D02*
X1146Y424D01*
X1173Y424D02*
X1176Y424D01*
X2358Y424D02*
X2361Y424D01*
X0Y423D02*
X3Y423D01*
X509Y423D02*
X513Y423D01*
X526Y423D02*
X529Y423D01*
X540Y423D02*
X544Y423D01*
X553Y423D02*
X556Y423D01*
X1127Y423D02*
X1130Y423D01*
X1143Y423D02*
X1146Y423D01*
X1173Y423D02*
X1176Y423D01*
X2358Y423D02*
X2361Y423D01*
X0Y422D02*
X3Y422D01*
X509Y422D02*
X513Y422D01*
X526Y422D02*
X529Y422D01*
X540Y422D02*
X544Y422D01*
X553Y422D02*
X556Y422D01*
X1127Y422D02*
X1130Y422D01*
X1143Y422D02*
X1146Y422D01*
X1173Y422D02*
X1176Y422D01*
X2358Y422D02*
X2361Y422D01*
X0Y421D02*
X3Y421D01*
X509Y421D02*
X513Y421D01*
X526Y421D02*
X529Y421D01*
X540Y421D02*
X544Y421D01*
X553Y421D02*
X556Y421D01*
X1127Y421D02*
X1130Y421D01*
X1143Y421D02*
X1146Y421D01*
X1173Y421D02*
X1176Y421D01*
X2358Y421D02*
X2361Y421D01*
X0Y420D02*
X3Y420D01*
X509Y420D02*
X513Y420D01*
X525Y420D02*
X529Y420D01*
X540Y420D02*
X544Y420D01*
X553Y420D02*
X556Y420D01*
X1127Y420D02*
X1130Y420D01*
X1142Y420D02*
X1146Y420D01*
X1173Y420D02*
X1176Y420D01*
X2358Y420D02*
X2361Y420D01*
X0Y419D02*
X3Y419D01*
X509Y419D02*
X529Y419D01*
X540Y419D02*
X544Y419D01*
X553Y419D02*
X556Y419D01*
X1127Y419D02*
X1146Y419D01*
X1173Y419D02*
X1176Y419D01*
X2358Y419D02*
X2361Y419D01*
X0Y418D02*
X3Y418D01*
X509Y418D02*
X528Y418D01*
X540Y418D02*
X544Y418D01*
X553Y418D02*
X556Y418D01*
X1127Y418D02*
X1145Y418D01*
X1173Y418D02*
X1176Y418D01*
X2358Y418D02*
X2361Y418D01*
X0Y417D02*
X3Y417D01*
X509Y417D02*
X527Y417D01*
X540Y417D02*
X544Y417D01*
X553Y417D02*
X556Y417D01*
X1127Y417D02*
X1144Y417D01*
X1173Y417D02*
X1176Y417D01*
X2358Y417D02*
X2361Y417D01*
X0Y416D02*
X3Y416D01*
X509Y416D02*
X525Y416D01*
X540Y416D02*
X544Y416D01*
X553Y416D02*
X556Y416D01*
X1127Y416D02*
X1142Y416D01*
X1162Y416D02*
X1176Y416D01*
X2358Y416D02*
X2361Y416D01*
X0Y415D02*
X3Y415D01*
X509Y415D02*
X513Y415D01*
X517Y415D02*
X521Y415D01*
X540Y415D02*
X544Y415D01*
X553Y415D02*
X556Y415D01*
X1127Y415D02*
X1130Y415D01*
X1134Y415D02*
X1138Y415D01*
X1161Y415D02*
X1175Y415D01*
X2358Y415D02*
X2361Y415D01*
X0Y414D02*
X3Y414D01*
X509Y414D02*
X513Y414D01*
X517Y414D02*
X521Y414D01*
X540Y414D02*
X544Y414D01*
X553Y414D02*
X556Y414D01*
X1127Y414D02*
X1130Y414D01*
X1135Y414D02*
X1139Y414D01*
X1161Y414D02*
X1175Y414D01*
X2358Y414D02*
X2361Y414D01*
X0Y413D02*
X3Y413D01*
X509Y413D02*
X513Y413D01*
X518Y413D02*
X522Y413D01*
X540Y413D02*
X544Y413D01*
X553Y413D02*
X556Y413D01*
X1127Y413D02*
X1130Y413D01*
X1135Y413D02*
X1139Y413D01*
X1161Y413D02*
X1175Y413D01*
X2358Y413D02*
X2361Y413D01*
X0Y412D02*
X3Y412D01*
X509Y412D02*
X513Y412D01*
X519Y412D02*
X522Y412D01*
X540Y412D02*
X557Y412D01*
X1127Y412D02*
X1130Y412D01*
X1136Y412D02*
X1140Y412D01*
X1171Y412D02*
X1176Y412D01*
X2358Y412D02*
X2361Y412D01*
X0Y411D02*
X3Y411D01*
X509Y411D02*
X513Y411D01*
X519Y411D02*
X523Y411D01*
X540Y411D02*
X558Y411D01*
X1127Y411D02*
X1130Y411D01*
X1136Y411D02*
X1140Y411D01*
X1173Y411D02*
X1176Y411D01*
X2358Y411D02*
X2361Y411D01*
X0Y410D02*
X3Y410D01*
X509Y410D02*
X513Y410D01*
X520Y410D02*
X524Y410D01*
X540Y410D02*
X558Y410D01*
X1127Y410D02*
X1130Y410D01*
X1137Y410D02*
X1141Y410D01*
X1173Y410D02*
X1176Y410D01*
X2358Y410D02*
X2361Y410D01*
X0Y409D02*
X3Y409D01*
X509Y409D02*
X513Y409D01*
X520Y409D02*
X524Y409D01*
X540Y409D02*
X558Y409D01*
X1127Y409D02*
X1130Y409D01*
X1138Y409D02*
X1141Y409D01*
X1173Y409D02*
X1176Y409D01*
X2358Y409D02*
X2361Y409D01*
X0Y408D02*
X3Y408D01*
X509Y408D02*
X513Y408D01*
X521Y408D02*
X525Y408D01*
X553Y408D02*
X556Y408D01*
X1127Y408D02*
X1130Y408D01*
X1138Y408D02*
X1142Y408D01*
X1173Y408D02*
X1176Y408D01*
X2358Y408D02*
X2361Y408D01*
X0Y407D02*
X3Y407D01*
X509Y407D02*
X513Y407D01*
X521Y407D02*
X525Y407D01*
X553Y407D02*
X556Y407D01*
X1127Y407D02*
X1130Y407D01*
X1139Y407D02*
X1143Y407D01*
X1173Y407D02*
X1176Y407D01*
X2358Y407D02*
X2361Y407D01*
X0Y406D02*
X3Y406D01*
X509Y406D02*
X513Y406D01*
X522Y406D02*
X526Y406D01*
X553Y406D02*
X556Y406D01*
X1127Y406D02*
X1130Y406D01*
X1139Y406D02*
X1143Y406D01*
X1173Y406D02*
X1176Y406D01*
X2358Y406D02*
X2361Y406D01*
X0Y405D02*
X3Y405D01*
X509Y405D02*
X513Y405D01*
X523Y405D02*
X527Y405D01*
X553Y405D02*
X556Y405D01*
X1127Y405D02*
X1130Y405D01*
X1140Y405D02*
X1144Y405D01*
X1173Y405D02*
X1176Y405D01*
X2358Y405D02*
X2361Y405D01*
X0Y404D02*
X3Y404D01*
X509Y404D02*
X513Y404D01*
X523Y404D02*
X527Y404D01*
X553Y404D02*
X556Y404D01*
X1127Y404D02*
X1130Y404D01*
X1140Y404D02*
X1144Y404D01*
X1173Y404D02*
X1176Y404D01*
X2358Y404D02*
X2361Y404D01*
X0Y403D02*
X3Y403D01*
X509Y403D02*
X513Y403D01*
X524Y403D02*
X528Y403D01*
X553Y403D02*
X556Y403D01*
X1127Y403D02*
X1130Y403D01*
X1141Y403D02*
X1145Y403D01*
X1173Y403D02*
X1176Y403D01*
X2358Y403D02*
X2361Y403D01*
X0Y402D02*
X3Y402D01*
X509Y402D02*
X513Y402D01*
X524Y402D02*
X528Y402D01*
X553Y402D02*
X556Y402D01*
X1127Y402D02*
X1130Y402D01*
X1142Y402D02*
X1146Y402D01*
X1158Y402D02*
X1176Y402D01*
X2358Y402D02*
X2361Y402D01*
X0Y401D02*
X3Y401D01*
X509Y401D02*
X513Y401D01*
X525Y401D02*
X529Y401D01*
X553Y401D02*
X556Y401D01*
X1127Y401D02*
X1130Y401D01*
X1142Y401D02*
X1146Y401D01*
X1157Y401D02*
X1176Y401D01*
X2358Y401D02*
X2361Y401D01*
X0Y400D02*
X3Y400D01*
X509Y400D02*
X513Y400D01*
X526Y400D02*
X529Y400D01*
X553Y400D02*
X556Y400D01*
X1127Y400D02*
X1130Y400D01*
X1143Y400D02*
X1146Y400D01*
X1157Y400D02*
X1176Y400D01*
X2358Y400D02*
X2361Y400D01*
X0Y399D02*
X3Y399D01*
X510Y399D02*
X512Y399D01*
X526Y399D02*
X529Y399D01*
X553Y399D02*
X556Y399D01*
X1127Y399D02*
X1130Y399D01*
X1143Y399D02*
X1146Y399D01*
X1157Y399D02*
X1175Y399D01*
X2358Y399D02*
X2361Y399D01*
X0Y398D02*
X3Y398D01*
X511Y398D02*
X511Y398D01*
X527Y398D02*
X528Y398D01*
X554Y398D02*
X555Y398D01*
X1128Y398D02*
X1128Y398D01*
X1145Y398D02*
X1145Y398D01*
X1158Y398D02*
X1173Y398D01*
X2358Y398D02*
X2361Y398D01*
X0Y397D02*
X3Y397D01*
X2358Y397D02*
X2361Y397D01*
X0Y396D02*
X3Y396D01*
X2358Y396D02*
X2361Y396D01*
X0Y395D02*
X3Y395D01*
X2358Y395D02*
X2361Y395D01*
X0Y394D02*
X3Y394D01*
X2358Y394D02*
X2361Y394D01*
X0Y393D02*
X3Y393D01*
X2358Y393D02*
X2361Y393D01*
X0Y392D02*
X3Y392D01*
X2358Y392D02*
X2361Y392D01*
X0Y391D02*
X3Y391D01*
X2358Y391D02*
X2361Y391D01*
X0Y390D02*
X3Y390D01*
X2358Y390D02*
X2361Y390D01*
X0Y389D02*
X3Y389D01*
X2358Y389D02*
X2361Y389D01*
X0Y388D02*
X3Y388D01*
X2358Y388D02*
X2361Y388D01*
X0Y387D02*
X3Y387D01*
X2358Y387D02*
X2361Y387D01*
X0Y386D02*
X3Y386D01*
X2358Y386D02*
X2361Y386D01*
X0Y385D02*
X3Y385D01*
X2358Y385D02*
X2361Y385D01*
X0Y384D02*
X3Y384D01*
X2358Y384D02*
X2361Y384D01*
X0Y383D02*
X3Y383D01*
X2358Y383D02*
X2361Y383D01*
X0Y382D02*
X3Y382D01*
X2358Y382D02*
X2361Y382D01*
X0Y381D02*
X3Y381D01*
X2358Y381D02*
X2361Y381D01*
X0Y380D02*
X3Y380D01*
X2358Y380D02*
X2361Y380D01*
X0Y379D02*
X3Y379D01*
X2358Y379D02*
X2361Y379D01*
X0Y378D02*
X3Y378D01*
X2358Y378D02*
X2361Y378D01*
X0Y377D02*
X3Y377D01*
X2358Y377D02*
X2361Y377D01*
X0Y376D02*
X3Y376D01*
X2358Y376D02*
X2361Y376D01*
X0Y375D02*
X3Y375D01*
X2358Y375D02*
X2361Y375D01*
X0Y374D02*
X3Y374D01*
X517Y374D02*
X584Y374D01*
X785Y374D02*
X832Y374D01*
X1117Y374D02*
X1184Y374D01*
X1384Y374D02*
X1432Y374D01*
X2358Y374D02*
X2361Y374D01*
X0Y373D02*
X3Y373D01*
X517Y373D02*
X584Y373D01*
X785Y373D02*
X832Y373D01*
X1117Y373D02*
X1184Y373D01*
X1384Y373D02*
X1432Y373D01*
X2358Y373D02*
X2361Y373D01*
X0Y372D02*
X3Y372D01*
X517Y372D02*
X584Y372D01*
X785Y372D02*
X832Y372D01*
X1117Y372D02*
X1184Y372D01*
X1384Y372D02*
X1432Y372D01*
X2358Y372D02*
X2361Y372D01*
X0Y371D02*
X3Y371D01*
X517Y371D02*
X584Y371D01*
X785Y371D02*
X832Y371D01*
X1117Y371D02*
X1184Y371D01*
X1384Y371D02*
X1432Y371D01*
X2358Y371D02*
X2361Y371D01*
X0Y370D02*
X3Y370D01*
X518Y370D02*
X584Y370D01*
X785Y370D02*
X832Y370D01*
X1117Y370D02*
X1184Y370D01*
X1384Y370D02*
X1431Y370D01*
X2358Y370D02*
X2361Y370D01*
X0Y369D02*
X3Y369D01*
X518Y369D02*
X584Y369D01*
X785Y369D02*
X832Y369D01*
X1117Y369D02*
X1184Y369D01*
X1384Y369D02*
X1432Y369D01*
X2358Y369D02*
X2361Y369D01*
X0Y368D02*
X3Y368D01*
X517Y368D02*
X584Y368D01*
X785Y368D02*
X832Y368D01*
X1117Y368D02*
X1184Y368D01*
X1384Y368D02*
X1432Y368D01*
X2358Y368D02*
X2361Y368D01*
X0Y367D02*
X3Y367D01*
X517Y367D02*
X584Y367D01*
X785Y367D02*
X832Y367D01*
X1117Y367D02*
X1184Y367D01*
X1384Y367D02*
X1432Y367D01*
X2358Y367D02*
X2361Y367D01*
X0Y366D02*
X3Y366D01*
X517Y366D02*
X584Y366D01*
X785Y366D02*
X832Y366D01*
X1117Y366D02*
X1184Y366D01*
X1384Y366D02*
X1432Y366D01*
X2358Y366D02*
X2361Y366D01*
X0Y365D02*
X3Y365D01*
X517Y365D02*
X583Y365D01*
X785Y365D02*
X832Y365D01*
X1117Y365D02*
X1183Y365D01*
X1385Y365D02*
X1432Y365D01*
X2358Y365D02*
X2361Y365D01*
X0Y364D02*
X3Y364D01*
X2358Y364D02*
X2361Y364D01*
X0Y363D02*
X3Y363D01*
X2358Y363D02*
X2361Y363D01*
X0Y362D02*
X3Y362D01*
X2358Y362D02*
X2361Y362D01*
X0Y361D02*
X3Y361D01*
X2358Y361D02*
X2361Y361D01*
X0Y360D02*
X3Y360D01*
X2358Y360D02*
X2361Y360D01*
X0Y359D02*
X3Y359D01*
X2358Y359D02*
X2361Y359D01*
X0Y358D02*
X3Y358D01*
X2358Y358D02*
X2361Y358D01*
X0Y357D02*
X3Y357D01*
X2358Y357D02*
X2361Y357D01*
X0Y356D02*
X3Y356D01*
X2358Y356D02*
X2361Y356D01*
X0Y355D02*
X3Y355D01*
X2358Y355D02*
X2361Y355D01*
X0Y354D02*
X3Y354D01*
X2358Y354D02*
X2361Y354D01*
X0Y353D02*
X3Y353D01*
X2358Y353D02*
X2361Y353D01*
X0Y352D02*
X3Y352D01*
X2358Y352D02*
X2361Y352D01*
X0Y351D02*
X3Y351D01*
X2358Y351D02*
X2361Y351D01*
X0Y350D02*
X3Y350D01*
X2358Y350D02*
X2361Y350D01*
X0Y349D02*
X3Y349D01*
X2358Y349D02*
X2361Y349D01*
X0Y348D02*
X3Y348D01*
X2358Y348D02*
X2361Y348D01*
X0Y347D02*
X3Y347D01*
X2358Y347D02*
X2361Y347D01*
X0Y346D02*
X3Y346D01*
X2358Y346D02*
X2361Y346D01*
X0Y345D02*
X3Y345D01*
X2358Y345D02*
X2361Y345D01*
X0Y344D02*
X3Y344D01*
X326Y344D02*
X328Y344D01*
X2358Y344D02*
X2361Y344D01*
X0Y343D02*
X3Y343D01*
X326Y343D02*
X329Y343D01*
X2358Y343D02*
X2361Y343D01*
X0Y342D02*
X3Y342D01*
X325Y342D02*
X329Y342D01*
X2358Y342D02*
X2361Y342D01*
X0Y341D02*
X3Y341D01*
X325Y341D02*
X329Y341D01*
X2358Y341D02*
X2361Y341D01*
X0Y340D02*
X3Y340D01*
X325Y340D02*
X329Y340D01*
X2358Y340D02*
X2361Y340D01*
X0Y339D02*
X3Y339D01*
X325Y339D02*
X329Y339D01*
X2358Y339D02*
X2361Y339D01*
X0Y338D02*
X3Y338D01*
X325Y338D02*
X329Y338D01*
X2358Y338D02*
X2361Y338D01*
X0Y337D02*
X3Y337D01*
X325Y337D02*
X329Y337D01*
X2358Y337D02*
X2361Y337D01*
X0Y336D02*
X3Y336D01*
X325Y336D02*
X329Y336D01*
X2358Y336D02*
X2361Y336D01*
X0Y335D02*
X3Y335D01*
X249Y335D02*
X251Y335D01*
X254Y335D02*
X258Y335D01*
X262Y335D02*
X265Y335D01*
X284Y335D02*
X294Y335D01*
X314Y335D02*
X322Y335D01*
X325Y335D02*
X329Y335D01*
X344Y335D02*
X354Y335D01*
X2358Y335D02*
X2361Y335D01*
X0Y334D02*
X3Y334D01*
X249Y334D02*
X259Y334D01*
X261Y334D02*
X267Y334D01*
X282Y334D02*
X295Y334D01*
X312Y334D02*
X323Y334D01*
X325Y334D02*
X329Y334D01*
X342Y334D02*
X355Y334D01*
X2358Y334D02*
X2361Y334D01*
X0Y333D02*
X3Y333D01*
X249Y333D02*
X268Y333D01*
X281Y333D02*
X296Y333D01*
X311Y333D02*
X329Y333D01*
X341Y333D02*
X356Y333D01*
X2358Y333D02*
X2361Y333D01*
X0Y332D02*
X3Y332D01*
X249Y332D02*
X268Y332D01*
X280Y332D02*
X297Y332D01*
X310Y332D02*
X329Y332D01*
X340Y332D02*
X357Y332D01*
X2358Y332D02*
X2361Y332D01*
X0Y331D02*
X3Y331D01*
X249Y331D02*
X254Y331D01*
X257Y331D02*
X263Y331D01*
X265Y331D02*
X268Y331D01*
X280Y331D02*
X284Y331D01*
X293Y331D02*
X298Y331D01*
X310Y331D02*
X314Y331D01*
X321Y331D02*
X329Y331D01*
X340Y331D02*
X344Y331D01*
X353Y331D02*
X358Y331D01*
X2358Y331D02*
X2361Y331D01*
X0Y330D02*
X3Y330D01*
X249Y330D02*
X253Y330D01*
X257Y330D02*
X262Y330D01*
X265Y330D02*
X268Y330D01*
X279Y330D02*
X283Y330D01*
X294Y330D02*
X298Y330D01*
X309Y330D02*
X313Y330D01*
X322Y330D02*
X329Y330D01*
X339Y330D02*
X343Y330D01*
X354Y330D02*
X358Y330D01*
X2358Y330D02*
X2361Y330D01*
X0Y329D02*
X3Y329D01*
X249Y329D02*
X252Y329D01*
X257Y329D02*
X261Y329D01*
X265Y329D02*
X268Y329D01*
X279Y329D02*
X282Y329D01*
X295Y329D02*
X299Y329D01*
X309Y329D02*
X312Y329D01*
X323Y329D02*
X329Y329D01*
X339Y329D02*
X342Y329D01*
X355Y329D02*
X359Y329D01*
X2358Y329D02*
X2361Y329D01*
X0Y328D02*
X3Y328D01*
X249Y328D02*
X252Y328D01*
X257Y328D02*
X260Y328D01*
X265Y328D02*
X268Y328D01*
X279Y328D02*
X282Y328D01*
X295Y328D02*
X299Y328D01*
X309Y328D02*
X312Y328D01*
X325Y328D02*
X329Y328D01*
X339Y328D02*
X342Y328D01*
X355Y328D02*
X359Y328D01*
X2358Y328D02*
X2361Y328D01*
X0Y327D02*
X3Y327D01*
X249Y327D02*
X252Y327D01*
X257Y327D02*
X260Y327D01*
X265Y327D02*
X268Y327D01*
X279Y327D02*
X282Y327D01*
X295Y327D02*
X299Y327D01*
X309Y327D02*
X312Y327D01*
X325Y327D02*
X329Y327D01*
X339Y327D02*
X342Y327D01*
X355Y327D02*
X359Y327D01*
X2358Y327D02*
X2361Y327D01*
X0Y326D02*
X3Y326D01*
X249Y326D02*
X252Y326D01*
X257Y326D02*
X260Y326D01*
X265Y326D02*
X269Y326D01*
X279Y326D02*
X282Y326D01*
X295Y326D02*
X299Y326D01*
X309Y326D02*
X312Y326D01*
X325Y326D02*
X329Y326D01*
X339Y326D02*
X342Y326D01*
X355Y326D02*
X359Y326D01*
X2358Y326D02*
X2361Y326D01*
X0Y325D02*
X3Y325D01*
X249Y325D02*
X252Y325D01*
X257Y325D02*
X260Y325D01*
X265Y325D02*
X269Y325D01*
X279Y325D02*
X282Y325D01*
X295Y325D02*
X299Y325D01*
X309Y325D02*
X312Y325D01*
X325Y325D02*
X329Y325D01*
X339Y325D02*
X359Y325D01*
X2358Y325D02*
X2361Y325D01*
X0Y324D02*
X3Y324D01*
X249Y324D02*
X252Y324D01*
X257Y324D02*
X260Y324D01*
X265Y324D02*
X269Y324D01*
X279Y324D02*
X282Y324D01*
X295Y324D02*
X299Y324D01*
X309Y324D02*
X312Y324D01*
X325Y324D02*
X329Y324D01*
X339Y324D02*
X359Y324D01*
X2358Y324D02*
X2361Y324D01*
X0Y323D02*
X3Y323D01*
X249Y323D02*
X252Y323D01*
X257Y323D02*
X260Y323D01*
X265Y323D02*
X269Y323D01*
X279Y323D02*
X282Y323D01*
X295Y323D02*
X299Y323D01*
X309Y323D02*
X312Y323D01*
X325Y323D02*
X329Y323D01*
X339Y323D02*
X359Y323D01*
X2358Y323D02*
X2361Y323D01*
X0Y322D02*
X3Y322D01*
X249Y322D02*
X252Y322D01*
X257Y322D02*
X260Y322D01*
X265Y322D02*
X269Y322D01*
X279Y322D02*
X282Y322D01*
X295Y322D02*
X299Y322D01*
X309Y322D02*
X312Y322D01*
X325Y322D02*
X329Y322D01*
X339Y322D02*
X358Y322D01*
X2358Y322D02*
X2361Y322D01*
X0Y321D02*
X3Y321D01*
X249Y321D02*
X252Y321D01*
X257Y321D02*
X260Y321D01*
X266Y321D02*
X269Y321D01*
X279Y321D02*
X282Y321D01*
X295Y321D02*
X299Y321D01*
X309Y321D02*
X312Y321D01*
X325Y321D02*
X329Y321D01*
X339Y321D02*
X357Y321D01*
X2358Y321D02*
X2361Y321D01*
X0Y320D02*
X3Y320D01*
X249Y320D02*
X252Y320D01*
X257Y320D02*
X260Y320D01*
X266Y320D02*
X269Y320D01*
X279Y320D02*
X282Y320D01*
X295Y320D02*
X299Y320D01*
X309Y320D02*
X312Y320D01*
X325Y320D02*
X329Y320D01*
X339Y320D02*
X342Y320D01*
X2358Y320D02*
X2361Y320D01*
X0Y319D02*
X3Y319D01*
X249Y319D02*
X252Y319D01*
X257Y319D02*
X260Y319D01*
X266Y319D02*
X269Y319D01*
X279Y319D02*
X282Y319D01*
X295Y319D02*
X299Y319D01*
X309Y319D02*
X312Y319D01*
X324Y319D02*
X329Y319D01*
X339Y319D02*
X342Y319D01*
X2358Y319D02*
X2361Y319D01*
X0Y318D02*
X3Y318D01*
X249Y318D02*
X252Y318D01*
X257Y318D02*
X260Y318D01*
X266Y318D02*
X269Y318D01*
X279Y318D02*
X283Y318D01*
X295Y318D02*
X298Y318D01*
X309Y318D02*
X313Y318D01*
X323Y318D02*
X329Y318D01*
X339Y318D02*
X343Y318D01*
X2358Y318D02*
X2361Y318D01*
X0Y317D02*
X3Y317D01*
X249Y317D02*
X252Y317D01*
X257Y317D02*
X260Y317D01*
X266Y317D02*
X269Y317D01*
X279Y317D02*
X284Y317D01*
X294Y317D02*
X298Y317D01*
X309Y317D02*
X314Y317D01*
X321Y317D02*
X329Y317D01*
X339Y317D02*
X344Y317D01*
X2358Y317D02*
X2361Y317D01*
X0Y316D02*
X3Y316D01*
X249Y316D02*
X252Y316D01*
X257Y316D02*
X260Y316D01*
X266Y316D02*
X269Y316D01*
X280Y316D02*
X297Y316D01*
X310Y316D02*
X329Y316D01*
X340Y316D02*
X357Y316D01*
X2358Y316D02*
X2361Y316D01*
X0Y315D02*
X3Y315D01*
X249Y315D02*
X252Y315D01*
X257Y315D02*
X260Y315D01*
X266Y315D02*
X269Y315D01*
X281Y315D02*
X297Y315D01*
X311Y315D02*
X329Y315D01*
X341Y315D02*
X358Y315D01*
X2358Y315D02*
X2361Y315D01*
X0Y314D02*
X3Y314D01*
X249Y314D02*
X252Y314D01*
X257Y314D02*
X260Y314D01*
X266Y314D02*
X269Y314D01*
X282Y314D02*
X296Y314D01*
X312Y314D02*
X329Y314D01*
X342Y314D02*
X359Y314D01*
X2358Y314D02*
X2361Y314D01*
X0Y313D02*
X3Y313D01*
X249Y313D02*
X251Y313D01*
X258Y313D02*
X260Y313D01*
X266Y313D02*
X269Y313D01*
X283Y313D02*
X294Y313D01*
X313Y313D02*
X322Y313D01*
X326Y313D02*
X328Y313D01*
X343Y313D02*
X358Y313D01*
X2358Y313D02*
X2361Y313D01*
X0Y312D02*
X3Y312D01*
X287Y312D02*
X291Y312D01*
X317Y312D02*
X319Y312D01*
X347Y312D02*
X356Y312D01*
X2358Y312D02*
X2361Y312D01*
X0Y311D02*
X3Y311D01*
X2358Y311D02*
X2361Y311D01*
X0Y310D02*
X3Y310D01*
X2358Y310D02*
X2361Y310D01*
X0Y309D02*
X3Y309D01*
X2358Y309D02*
X2361Y309D01*
X0Y308D02*
X3Y308D01*
X2358Y308D02*
X2361Y308D01*
X0Y307D02*
X3Y307D01*
X2358Y307D02*
X2361Y307D01*
X0Y306D02*
X3Y306D01*
X2358Y306D02*
X2361Y306D01*
X0Y305D02*
X3Y305D01*
X2358Y305D02*
X2361Y305D01*
X0Y304D02*
X3Y304D01*
X2358Y304D02*
X2361Y304D01*
X0Y303D02*
X3Y303D01*
X2358Y303D02*
X2361Y303D01*
X0Y302D02*
X3Y302D01*
X2358Y302D02*
X2361Y302D01*
X0Y301D02*
X3Y301D01*
X2358Y301D02*
X2361Y301D01*
X0Y300D02*
X3Y300D01*
X2358Y300D02*
X2361Y300D01*
X0Y299D02*
X3Y299D01*
X2358Y299D02*
X2361Y299D01*
X0Y298D02*
X3Y298D01*
X2358Y298D02*
X2361Y298D01*
X0Y297D02*
X3Y297D01*
X2358Y297D02*
X2361Y297D01*
X0Y296D02*
X3Y296D01*
X2358Y296D02*
X2361Y296D01*
X0Y295D02*
X3Y295D01*
X2358Y295D02*
X2361Y295D01*
X0Y294D02*
X3Y294D01*
X2358Y294D02*
X2361Y294D01*
X0Y293D02*
X3Y293D01*
X2358Y293D02*
X2361Y293D01*
X0Y292D02*
X3Y292D01*
X2358Y292D02*
X2361Y292D01*
X0Y291D02*
X3Y291D01*
X2358Y291D02*
X2361Y291D01*
X0Y290D02*
X3Y290D01*
X2358Y290D02*
X2361Y290D01*
X0Y289D02*
X3Y289D01*
X2358Y289D02*
X2361Y289D01*
X0Y288D02*
X3Y288D01*
X2358Y288D02*
X2361Y288D01*
X0Y287D02*
X3Y287D01*
X2358Y287D02*
X2361Y287D01*
X0Y286D02*
X3Y286D01*
X2358Y286D02*
X2361Y286D01*
X0Y285D02*
X3Y285D01*
X2358Y285D02*
X2361Y285D01*
X0Y284D02*
X3Y284D01*
X2358Y284D02*
X2361Y284D01*
X0Y283D02*
X3Y283D01*
X2358Y283D02*
X2361Y283D01*
X0Y282D02*
X3Y282D01*
X2358Y282D02*
X2361Y282D01*
X0Y281D02*
X3Y281D01*
X2358Y281D02*
X2361Y281D01*
X0Y280D02*
X3Y280D01*
X2358Y280D02*
X2361Y280D01*
X0Y279D02*
X3Y279D01*
X2358Y279D02*
X2361Y279D01*
X0Y278D02*
X3Y278D01*
X2358Y278D02*
X2361Y278D01*
X0Y277D02*
X3Y277D01*
X2358Y277D02*
X2361Y277D01*
X0Y276D02*
X3Y276D01*
X2358Y276D02*
X2361Y276D01*
X0Y275D02*
X3Y275D01*
X2358Y275D02*
X2361Y275D01*
X0Y274D02*
X3Y274D01*
X2358Y274D02*
X2361Y274D01*
X0Y273D02*
X3Y273D01*
X2358Y273D02*
X2361Y273D01*
X0Y272D02*
X3Y272D01*
X2358Y272D02*
X2361Y272D01*
X0Y271D02*
X3Y271D01*
X2358Y271D02*
X2361Y271D01*
X0Y270D02*
X3Y270D01*
X2358Y270D02*
X2361Y270D01*
X0Y269D02*
X3Y269D01*
X2358Y269D02*
X2361Y269D01*
X0Y268D02*
X3Y268D01*
X2358Y268D02*
X2361Y268D01*
X0Y267D02*
X3Y267D01*
X2358Y267D02*
X2361Y267D01*
X0Y266D02*
X3Y266D01*
X2358Y266D02*
X2361Y266D01*
X0Y265D02*
X3Y265D01*
X2358Y265D02*
X2361Y265D01*
X0Y264D02*
X3Y264D01*
X2358Y264D02*
X2361Y264D01*
X0Y263D02*
X3Y263D01*
X2358Y263D02*
X2361Y263D01*
X0Y262D02*
X3Y262D01*
X2358Y262D02*
X2361Y262D01*
X0Y261D02*
X3Y261D01*
X2358Y261D02*
X2361Y261D01*
X0Y260D02*
X3Y260D01*
X2358Y260D02*
X2361Y260D01*
X0Y259D02*
X3Y259D01*
X2358Y259D02*
X2361Y259D01*
X0Y258D02*
X3Y258D01*
X2358Y258D02*
X2361Y258D01*
X0Y257D02*
X3Y257D01*
X2358Y257D02*
X2361Y257D01*
X0Y256D02*
X3Y256D01*
X2358Y256D02*
X2361Y256D01*
X0Y255D02*
X3Y255D01*
X2358Y255D02*
X2361Y255D01*
X0Y254D02*
X3Y254D01*
X2358Y254D02*
X2361Y254D01*
X0Y253D02*
X3Y253D01*
X2358Y253D02*
X2361Y253D01*
X0Y252D02*
X3Y252D01*
X2358Y252D02*
X2361Y252D01*
X0Y251D02*
X3Y251D01*
X2358Y251D02*
X2361Y251D01*
X0Y250D02*
X3Y250D01*
X2358Y250D02*
X2361Y250D01*
X0Y249D02*
X3Y249D01*
X2358Y249D02*
X2361Y249D01*
X0Y248D02*
X3Y248D01*
X2358Y248D02*
X2361Y248D01*
X0Y247D02*
X3Y247D01*
X2358Y247D02*
X2361Y247D01*
X0Y246D02*
X3Y246D01*
X2358Y246D02*
X2361Y246D01*
X0Y245D02*
X3Y245D01*
X2358Y245D02*
X2361Y245D01*
X0Y244D02*
X3Y244D01*
X2358Y244D02*
X2361Y244D01*
X0Y243D02*
X3Y243D01*
X2358Y243D02*
X2361Y243D01*
X0Y242D02*
X3Y242D01*
X2358Y242D02*
X2361Y242D01*
X0Y241D02*
X3Y241D01*
X2358Y241D02*
X2361Y241D01*
X0Y240D02*
X3Y240D01*
X2358Y240D02*
X2361Y240D01*
X0Y239D02*
X3Y239D01*
X2358Y239D02*
X2361Y239D01*
X0Y238D02*
X3Y238D01*
X2358Y238D02*
X2361Y238D01*
X0Y237D02*
X3Y237D01*
X2358Y237D02*
X2361Y237D01*
X0Y236D02*
X3Y236D01*
X2358Y236D02*
X2361Y236D01*
X0Y235D02*
X3Y235D01*
X2358Y235D02*
X2361Y235D01*
X0Y234D02*
X3Y234D01*
X2358Y234D02*
X2361Y234D01*
X0Y233D02*
X3Y233D01*
X2358Y233D02*
X2361Y233D01*
X0Y232D02*
X3Y232D01*
X2358Y232D02*
X2361Y232D01*
X0Y231D02*
X3Y231D01*
X2358Y231D02*
X2361Y231D01*
X0Y230D02*
X3Y230D01*
X2358Y230D02*
X2361Y230D01*
X0Y229D02*
X3Y229D01*
X2358Y229D02*
X2361Y229D01*
X0Y228D02*
X3Y228D01*
X2358Y228D02*
X2361Y228D01*
X0Y227D02*
X3Y227D01*
X2358Y227D02*
X2361Y227D01*
X0Y226D02*
X3Y226D01*
X2358Y226D02*
X2361Y226D01*
X0Y225D02*
X3Y225D01*
X2358Y225D02*
X2361Y225D01*
X0Y224D02*
X3Y224D01*
X2358Y224D02*
X2361Y224D01*
X0Y223D02*
X3Y223D01*
X2358Y223D02*
X2361Y223D01*
X0Y222D02*
X3Y222D01*
X2358Y222D02*
X2361Y222D01*
X0Y221D02*
X3Y221D01*
X2358Y221D02*
X2361Y221D01*
X0Y220D02*
X3Y220D01*
X2201Y220D02*
X2201Y220D01*
X2358Y220D02*
X2361Y220D01*
X0Y219D02*
X3Y219D01*
X2200Y219D02*
X2203Y219D01*
X2358Y219D02*
X2361Y219D01*
X0Y218D02*
X3Y218D01*
X2200Y218D02*
X2203Y218D01*
X2358Y218D02*
X2361Y218D01*
X0Y217D02*
X3Y217D01*
X2200Y217D02*
X2203Y217D01*
X2358Y217D02*
X2361Y217D01*
X0Y216D02*
X3Y216D01*
X2200Y216D02*
X2203Y216D01*
X2358Y216D02*
X2361Y216D01*
X0Y215D02*
X3Y215D01*
X1348Y215D02*
X1350Y215D01*
X2200Y215D02*
X2203Y215D01*
X2358Y215D02*
X2361Y215D01*
X0Y214D02*
X3Y214D01*
X1347Y214D02*
X1351Y214D01*
X2200Y214D02*
X2203Y214D01*
X2358Y214D02*
X2361Y214D01*
X0Y213D02*
X3Y213D01*
X1346Y213D02*
X1351Y213D01*
X2200Y213D02*
X2203Y213D01*
X2358Y213D02*
X2361Y213D01*
X0Y212D02*
X3Y212D01*
X1346Y212D02*
X1351Y212D01*
X2199Y212D02*
X2203Y212D01*
X2358Y212D02*
X2361Y212D01*
X0Y211D02*
X3Y211D01*
X1346Y211D02*
X1351Y211D01*
X2192Y211D02*
X2211Y211D01*
X2358Y211D02*
X2361Y211D01*
X0Y210D02*
X3Y210D01*
X1346Y210D02*
X1351Y210D01*
X2191Y210D02*
X2211Y210D01*
X2358Y210D02*
X2361Y210D01*
X0Y209D02*
X3Y209D01*
X1346Y209D02*
X1351Y209D01*
X2192Y209D02*
X2211Y209D01*
X2358Y209D02*
X2361Y209D01*
X0Y208D02*
X3Y208D01*
X1346Y208D02*
X1351Y208D01*
X2192Y208D02*
X2210Y208D01*
X2358Y208D02*
X2361Y208D01*
X0Y207D02*
X3Y207D01*
X1346Y207D02*
X1351Y207D01*
X2200Y207D02*
X2203Y207D01*
X2358Y207D02*
X2361Y207D01*
X0Y206D02*
X3Y206D01*
X1346Y206D02*
X1351Y206D01*
X2200Y206D02*
X2203Y206D01*
X2358Y206D02*
X2361Y206D01*
X0Y205D02*
X3Y205D01*
X1346Y205D02*
X1351Y205D01*
X2200Y205D02*
X2203Y205D01*
X2358Y205D02*
X2361Y205D01*
X0Y204D02*
X3Y204D01*
X1346Y204D02*
X1351Y204D01*
X2200Y204D02*
X2203Y204D01*
X2358Y204D02*
X2361Y204D01*
X0Y203D02*
X3Y203D01*
X1346Y203D02*
X1351Y203D01*
X2200Y203D02*
X2203Y203D01*
X2358Y203D02*
X2361Y203D01*
X0Y202D02*
X3Y202D01*
X1346Y202D02*
X1351Y202D01*
X2200Y202D02*
X2203Y202D01*
X2358Y202D02*
X2361Y202D01*
X0Y201D02*
X3Y201D01*
X1346Y201D02*
X1351Y201D01*
X2200Y201D02*
X2203Y201D01*
X2358Y201D02*
X2361Y201D01*
X0Y200D02*
X3Y200D01*
X629Y200D02*
X1221Y200D01*
X1346Y200D02*
X1351Y200D01*
X2200Y200D02*
X2202Y200D01*
X2358Y200D02*
X2361Y200D01*
X0Y199D02*
X3Y199D01*
X629Y199D02*
X1221Y199D01*
X1346Y199D02*
X1351Y199D01*
X2358Y199D02*
X2361Y199D01*
X0Y198D02*
X3Y198D01*
X629Y198D02*
X1221Y198D01*
X1346Y198D02*
X1351Y198D01*
X2358Y198D02*
X2361Y198D01*
X0Y197D02*
X3Y197D01*
X629Y197D02*
X1221Y197D01*
X1346Y197D02*
X1351Y197D01*
X2358Y197D02*
X2361Y197D01*
X0Y196D02*
X3Y196D01*
X629Y196D02*
X632Y196D01*
X1218Y196D02*
X1221Y196D01*
X1347Y196D02*
X1351Y196D01*
X2358Y196D02*
X2361Y196D01*
X0Y195D02*
X3Y195D01*
X629Y195D02*
X632Y195D01*
X1218Y195D02*
X1221Y195D01*
X1347Y195D02*
X1351Y195D01*
X2358Y195D02*
X2361Y195D01*
X0Y194D02*
X3Y194D01*
X629Y194D02*
X632Y194D01*
X1218Y194D02*
X1221Y194D01*
X2358Y194D02*
X2361Y194D01*
X0Y193D02*
X3Y193D01*
X629Y193D02*
X632Y193D01*
X1218Y193D02*
X1221Y193D01*
X2358Y193D02*
X2361Y193D01*
X0Y192D02*
X3Y192D01*
X629Y192D02*
X632Y192D01*
X1218Y192D02*
X1221Y192D01*
X2358Y192D02*
X2361Y192D01*
X0Y191D02*
X3Y191D01*
X629Y191D02*
X632Y191D01*
X1218Y191D02*
X1221Y191D01*
X2358Y191D02*
X2361Y191D01*
X0Y190D02*
X3Y190D01*
X629Y190D02*
X632Y190D01*
X1218Y190D02*
X1221Y190D01*
X2196Y190D02*
X2220Y190D01*
X2358Y190D02*
X2361Y190D01*
X0Y189D02*
X3Y189D01*
X629Y189D02*
X632Y189D01*
X1218Y189D02*
X1221Y189D01*
X2195Y189D02*
X2222Y189D01*
X2358Y189D02*
X2361Y189D01*
X0Y188D02*
X3Y188D01*
X629Y188D02*
X632Y188D01*
X1218Y188D02*
X1221Y188D01*
X2194Y188D02*
X2223Y188D01*
X2358Y188D02*
X2361Y188D01*
X0Y187D02*
X3Y187D01*
X629Y187D02*
X632Y187D01*
X1218Y187D02*
X1221Y187D01*
X2195Y187D02*
X2224Y187D01*
X2358Y187D02*
X2361Y187D01*
X0Y186D02*
X3Y186D01*
X629Y186D02*
X632Y186D01*
X1218Y186D02*
X1221Y186D01*
X2196Y186D02*
X2225Y186D01*
X2358Y186D02*
X2361Y186D01*
X0Y185D02*
X3Y185D01*
X629Y185D02*
X632Y185D01*
X1218Y185D02*
X1221Y185D01*
X1343Y185D02*
X1366Y185D01*
X2196Y185D02*
X2201Y185D01*
X2209Y185D02*
X2213Y185D01*
X2221Y185D02*
X2225Y185D01*
X2358Y185D02*
X2361Y185D01*
X0Y184D02*
X3Y184D01*
X629Y184D02*
X632Y184D01*
X1218Y184D02*
X1221Y184D01*
X1341Y184D02*
X1369Y184D01*
X2196Y184D02*
X2200Y184D01*
X2209Y184D02*
X2214Y184D01*
X2222Y184D02*
X2226Y184D01*
X2358Y184D02*
X2361Y184D01*
X0Y183D02*
X3Y183D01*
X629Y183D02*
X632Y183D01*
X1218Y183D02*
X1221Y183D01*
X1341Y183D02*
X1370Y183D01*
X2195Y183D02*
X2199Y183D01*
X2210Y183D02*
X2215Y183D01*
X2222Y183D02*
X2226Y183D01*
X2358Y183D02*
X2361Y183D01*
X0Y182D02*
X3Y182D01*
X629Y182D02*
X632Y182D01*
X1218Y182D02*
X1221Y182D01*
X1341Y182D02*
X1371Y182D01*
X2195Y182D02*
X2198Y182D01*
X2211Y182D02*
X2215Y182D01*
X2223Y182D02*
X2226Y182D01*
X2358Y182D02*
X2361Y182D01*
X0Y181D02*
X3Y181D01*
X629Y181D02*
X632Y181D01*
X1218Y181D02*
X1221Y181D01*
X1343Y181D02*
X1371Y181D01*
X2194Y181D02*
X2198Y181D01*
X2212Y181D02*
X2215Y181D01*
X2223Y181D02*
X2226Y181D01*
X2358Y181D02*
X2361Y181D01*
X0Y180D02*
X3Y180D01*
X629Y180D02*
X632Y180D01*
X1218Y180D02*
X1221Y180D01*
X1343Y180D02*
X1348Y180D01*
X1355Y180D02*
X1360Y180D01*
X1368Y180D02*
X1372Y180D01*
X2194Y180D02*
X2198Y180D01*
X2212Y180D02*
X2215Y180D01*
X2223Y180D02*
X2226Y180D01*
X2358Y180D02*
X2361Y180D01*
X0Y179D02*
X3Y179D01*
X629Y179D02*
X632Y179D01*
X1218Y179D02*
X1221Y179D01*
X1342Y179D02*
X1347Y179D01*
X1356Y179D02*
X1361Y179D01*
X1369Y179D02*
X1372Y179D01*
X2194Y179D02*
X2198Y179D01*
X2212Y179D02*
X2215Y179D01*
X2223Y179D02*
X2226Y179D01*
X2358Y179D02*
X2361Y179D01*
X0Y178D02*
X3Y178D01*
X629Y178D02*
X632Y178D01*
X1218Y178D02*
X1221Y178D01*
X1342Y178D02*
X1346Y178D01*
X1357Y178D02*
X1361Y178D01*
X1369Y178D02*
X1373Y178D01*
X2194Y178D02*
X2198Y178D01*
X2212Y178D02*
X2215Y178D01*
X2223Y178D02*
X2226Y178D01*
X2358Y178D02*
X2361Y178D01*
X0Y177D02*
X3Y177D01*
X629Y177D02*
X632Y177D01*
X1218Y177D02*
X1221Y177D01*
X1341Y177D02*
X1345Y177D01*
X1358Y177D02*
X1362Y177D01*
X1369Y177D02*
X1373Y177D01*
X2194Y177D02*
X2198Y177D01*
X2212Y177D02*
X2215Y177D01*
X2223Y177D02*
X2226Y177D01*
X2358Y177D02*
X2361Y177D01*
X0Y176D02*
X3Y176D01*
X629Y176D02*
X632Y176D01*
X1218Y176D02*
X1221Y176D01*
X1341Y176D02*
X1345Y176D01*
X1359Y176D02*
X1362Y176D01*
X1369Y176D02*
X1373Y176D01*
X2195Y176D02*
X2198Y176D01*
X2212Y176D02*
X2215Y176D01*
X2223Y176D02*
X2226Y176D01*
X2358Y176D02*
X2361Y176D01*
X0Y175D02*
X3Y175D01*
X629Y175D02*
X632Y175D01*
X1218Y175D02*
X1221Y175D01*
X1341Y175D02*
X1344Y175D01*
X1359Y175D02*
X1362Y175D01*
X1369Y175D02*
X1373Y175D01*
X2195Y175D02*
X2199Y175D01*
X2211Y175D02*
X2215Y175D01*
X2223Y175D02*
X2226Y175D01*
X2358Y175D02*
X2361Y175D01*
X0Y174D02*
X3Y174D01*
X629Y174D02*
X632Y174D01*
X1218Y174D02*
X1221Y174D01*
X1341Y174D02*
X1344Y174D01*
X1359Y174D02*
X1362Y174D01*
X1369Y174D02*
X1373Y174D01*
X2195Y174D02*
X2200Y174D01*
X2210Y174D02*
X2214Y174D01*
X2223Y174D02*
X2226Y174D01*
X2358Y174D02*
X2361Y174D01*
X0Y173D02*
X3Y173D01*
X629Y173D02*
X632Y173D01*
X1218Y173D02*
X1221Y173D01*
X1341Y173D02*
X1344Y173D01*
X1359Y173D02*
X1362Y173D01*
X1369Y173D02*
X1373Y173D01*
X2196Y173D02*
X2214Y173D01*
X2223Y173D02*
X2226Y173D01*
X2358Y173D02*
X2361Y173D01*
X0Y172D02*
X3Y172D01*
X629Y172D02*
X632Y172D01*
X1218Y172D02*
X1221Y172D01*
X1341Y172D02*
X1344Y172D01*
X1359Y172D02*
X1362Y172D01*
X1369Y172D02*
X1373Y172D01*
X2197Y172D02*
X2213Y172D01*
X2223Y172D02*
X2225Y172D01*
X2358Y172D02*
X2361Y172D01*
X0Y171D02*
X3Y171D01*
X629Y171D02*
X632Y171D01*
X1218Y171D02*
X1221Y171D01*
X1341Y171D02*
X1345Y171D01*
X1359Y171D02*
X1362Y171D01*
X1369Y171D02*
X1373Y171D01*
X2198Y171D02*
X2212Y171D01*
X2358Y171D02*
X2361Y171D01*
X0Y170D02*
X3Y170D01*
X629Y170D02*
X632Y170D01*
X1218Y170D02*
X1221Y170D01*
X1342Y170D02*
X1345Y170D01*
X1358Y170D02*
X1362Y170D01*
X1369Y170D02*
X1373Y170D01*
X2199Y170D02*
X2211Y170D01*
X2358Y170D02*
X2361Y170D01*
X0Y169D02*
X3Y169D01*
X629Y169D02*
X632Y169D01*
X1218Y169D02*
X1221Y169D01*
X1342Y169D02*
X1346Y169D01*
X1357Y169D02*
X1361Y169D01*
X1369Y169D02*
X1373Y169D01*
X2358Y169D02*
X2361Y169D01*
X0Y168D02*
X3Y168D01*
X629Y168D02*
X632Y168D01*
X1218Y168D02*
X1221Y168D01*
X1343Y168D02*
X1360Y168D01*
X1370Y168D02*
X1373Y168D01*
X2358Y168D02*
X2361Y168D01*
X0Y167D02*
X3Y167D01*
X629Y167D02*
X632Y167D01*
X1218Y167D02*
X1221Y167D01*
X1344Y167D02*
X1360Y167D01*
X1370Y167D02*
X1372Y167D01*
X2358Y167D02*
X2361Y167D01*
X0Y166D02*
X3Y166D01*
X629Y166D02*
X632Y166D01*
X1218Y166D02*
X1221Y166D01*
X1344Y166D02*
X1359Y166D01*
X2358Y166D02*
X2361Y166D01*
X0Y165D02*
X3Y165D01*
X629Y165D02*
X632Y165D01*
X1218Y165D02*
X1221Y165D01*
X1346Y165D02*
X1357Y165D01*
X2358Y165D02*
X2361Y165D01*
X0Y164D02*
X3Y164D01*
X629Y164D02*
X632Y164D01*
X1218Y164D02*
X1221Y164D01*
X2358Y164D02*
X2361Y164D01*
X0Y163D02*
X3Y163D01*
X629Y163D02*
X632Y163D01*
X1218Y163D02*
X1221Y163D01*
X2358Y163D02*
X2361Y163D01*
X0Y162D02*
X3Y162D01*
X629Y162D02*
X632Y162D01*
X1218Y162D02*
X1221Y162D01*
X2358Y162D02*
X2361Y162D01*
X0Y161D02*
X3Y161D01*
X629Y161D02*
X632Y161D01*
X1218Y161D02*
X1221Y161D01*
X2358Y161D02*
X2361Y161D01*
X0Y160D02*
X3Y160D01*
X629Y160D02*
X632Y160D01*
X1218Y160D02*
X1221Y160D01*
X2200Y160D02*
X2201Y160D01*
X2358Y160D02*
X2361Y160D01*
X0Y159D02*
X3Y159D01*
X629Y159D02*
X632Y159D01*
X1218Y159D02*
X1221Y159D01*
X2197Y159D02*
X2203Y159D01*
X2358Y159D02*
X2361Y159D01*
X0Y158D02*
X3Y158D01*
X629Y158D02*
X632Y158D01*
X1218Y158D02*
X1221Y158D01*
X2196Y158D02*
X2203Y158D01*
X2358Y158D02*
X2361Y158D01*
X0Y157D02*
X3Y157D01*
X629Y157D02*
X632Y157D01*
X1218Y157D02*
X1221Y157D01*
X2195Y157D02*
X2203Y157D01*
X2358Y157D02*
X2361Y157D01*
X0Y156D02*
X3Y156D01*
X629Y156D02*
X632Y156D01*
X1218Y156D02*
X1221Y156D01*
X2195Y156D02*
X2201Y156D01*
X2358Y156D02*
X2361Y156D01*
X0Y155D02*
X3Y155D01*
X629Y155D02*
X632Y155D01*
X1218Y155D02*
X1221Y155D01*
X1346Y155D02*
X1348Y155D01*
X2195Y155D02*
X2198Y155D01*
X2358Y155D02*
X2361Y155D01*
X0Y154D02*
X3Y154D01*
X629Y154D02*
X632Y154D01*
X1218Y154D02*
X1221Y154D01*
X1344Y154D02*
X1349Y154D01*
X2194Y154D02*
X2198Y154D01*
X2358Y154D02*
X2361Y154D01*
X0Y153D02*
X3Y153D01*
X629Y153D02*
X632Y153D01*
X1218Y153D02*
X1221Y153D01*
X1343Y153D02*
X1350Y153D01*
X2194Y153D02*
X2198Y153D01*
X2358Y153D02*
X2361Y153D01*
X0Y152D02*
X3Y152D01*
X629Y152D02*
X632Y152D01*
X1218Y152D02*
X1221Y152D01*
X1342Y152D02*
X1349Y152D01*
X2194Y152D02*
X2198Y152D01*
X2358Y152D02*
X2361Y152D01*
X0Y151D02*
X3Y151D01*
X629Y151D02*
X632Y151D01*
X1218Y151D02*
X1221Y151D01*
X1342Y151D02*
X1348Y151D01*
X2194Y151D02*
X2198Y151D01*
X2358Y151D02*
X2361Y151D01*
X0Y150D02*
X3Y150D01*
X629Y150D02*
X632Y150D01*
X1218Y150D02*
X1221Y150D01*
X1341Y150D02*
X1345Y150D01*
X2194Y150D02*
X2198Y150D01*
X2358Y150D02*
X2361Y150D01*
X0Y149D02*
X3Y149D01*
X629Y149D02*
X632Y149D01*
X1218Y149D02*
X1221Y149D01*
X1341Y149D02*
X1344Y149D01*
X2195Y149D02*
X2199Y149D01*
X2358Y149D02*
X2361Y149D01*
X0Y148D02*
X3Y148D01*
X629Y148D02*
X632Y148D01*
X1218Y148D02*
X1221Y148D01*
X1341Y148D02*
X1344Y148D01*
X2195Y148D02*
X2200Y148D01*
X2358Y148D02*
X2361Y148D01*
X0Y147D02*
X3Y147D01*
X629Y147D02*
X632Y147D01*
X1218Y147D02*
X1221Y147D01*
X1341Y147D02*
X1344Y147D01*
X2196Y147D02*
X2201Y147D01*
X2358Y147D02*
X2361Y147D01*
X0Y146D02*
X3Y146D01*
X629Y146D02*
X632Y146D01*
X1218Y146D02*
X1221Y146D01*
X1341Y146D02*
X1344Y146D01*
X2197Y146D02*
X2201Y146D01*
X2358Y146D02*
X2361Y146D01*
X0Y145D02*
X3Y145D01*
X629Y145D02*
X632Y145D01*
X1218Y145D02*
X1221Y145D01*
X1341Y145D02*
X1345Y145D01*
X2198Y145D02*
X2202Y145D01*
X2358Y145D02*
X2361Y145D01*
X0Y144D02*
X3Y144D01*
X629Y144D02*
X632Y144D01*
X1218Y144D02*
X1221Y144D01*
X1341Y144D02*
X1346Y144D01*
X2199Y144D02*
X2203Y144D01*
X2358Y144D02*
X2361Y144D01*
X0Y143D02*
X3Y143D01*
X629Y143D02*
X632Y143D01*
X1218Y143D02*
X1221Y143D01*
X1342Y143D02*
X1346Y143D01*
X2195Y143D02*
X2216Y143D01*
X2358Y143D02*
X2361Y143D01*
X0Y142D02*
X3Y142D01*
X629Y142D02*
X632Y142D01*
X1218Y142D02*
X1221Y142D01*
X1343Y142D02*
X1347Y142D01*
X2195Y142D02*
X2217Y142D01*
X2358Y142D02*
X2361Y142D01*
X0Y141D02*
X3Y141D01*
X629Y141D02*
X632Y141D01*
X1218Y141D02*
X1221Y141D01*
X1344Y141D02*
X1348Y141D01*
X2194Y141D02*
X2217Y141D01*
X2358Y141D02*
X2361Y141D01*
X0Y140D02*
X3Y140D01*
X629Y140D02*
X632Y140D01*
X1218Y140D02*
X1221Y140D01*
X1344Y140D02*
X1349Y140D01*
X2195Y140D02*
X2216Y140D01*
X2358Y140D02*
X2361Y140D01*
X0Y139D02*
X3Y139D01*
X629Y139D02*
X632Y139D01*
X1218Y139D02*
X1221Y139D01*
X1345Y139D02*
X1350Y139D01*
X2358Y139D02*
X2361Y139D01*
X0Y138D02*
X3Y138D01*
X629Y138D02*
X632Y138D01*
X1218Y138D02*
X1221Y138D01*
X1342Y138D02*
X1363Y138D01*
X2358Y138D02*
X2361Y138D01*
X0Y137D02*
X3Y137D01*
X629Y137D02*
X632Y137D01*
X1218Y137D02*
X1221Y137D01*
X1341Y137D02*
X1364Y137D01*
X2358Y137D02*
X2361Y137D01*
X0Y136D02*
X3Y136D01*
X629Y136D02*
X632Y136D01*
X1218Y136D02*
X1221Y136D01*
X1341Y136D02*
X1364Y136D01*
X2358Y136D02*
X2361Y136D01*
X0Y135D02*
X3Y135D01*
X629Y135D02*
X632Y135D01*
X1218Y135D02*
X1221Y135D01*
X1342Y135D02*
X1363Y135D01*
X2358Y135D02*
X2361Y135D01*
X0Y134D02*
X3Y134D01*
X629Y134D02*
X632Y134D01*
X1218Y134D02*
X1221Y134D01*
X2358Y134D02*
X2361Y134D01*
X0Y133D02*
X3Y133D01*
X629Y133D02*
X632Y133D01*
X1218Y133D02*
X1221Y133D01*
X2358Y133D02*
X2361Y133D01*
X0Y132D02*
X3Y132D01*
X629Y132D02*
X632Y132D01*
X1218Y132D02*
X1221Y132D01*
X2358Y132D02*
X2361Y132D01*
X0Y131D02*
X3Y131D01*
X629Y131D02*
X632Y131D01*
X1218Y131D02*
X1221Y131D01*
X2358Y131D02*
X2361Y131D01*
X0Y130D02*
X3Y130D01*
X629Y130D02*
X632Y130D01*
X1218Y130D02*
X1221Y130D01*
X2193Y130D02*
X2196Y130D01*
X2207Y130D02*
X2210Y130D01*
X2358Y130D02*
X2361Y130D01*
X0Y129D02*
X3Y129D01*
X629Y129D02*
X632Y129D01*
X1218Y129D02*
X1221Y129D01*
X2190Y129D02*
X2199Y129D01*
X2204Y129D02*
X2213Y129D01*
X2358Y129D02*
X2361Y129D01*
X0Y128D02*
X3Y128D01*
X629Y128D02*
X632Y128D01*
X1218Y128D02*
X1221Y128D01*
X2189Y128D02*
X2200Y128D01*
X2203Y128D02*
X2214Y128D01*
X2358Y128D02*
X2361Y128D01*
X0Y127D02*
X3Y127D01*
X629Y127D02*
X632Y127D01*
X1218Y127D02*
X1221Y127D01*
X2188Y127D02*
X2215Y127D01*
X2358Y127D02*
X2361Y127D01*
X0Y126D02*
X3Y126D01*
X629Y126D02*
X632Y126D01*
X1218Y126D02*
X1221Y126D01*
X2187Y126D02*
X2216Y126D01*
X2358Y126D02*
X2361Y126D01*
X0Y125D02*
X3Y125D01*
X629Y125D02*
X632Y125D01*
X1218Y125D02*
X1221Y125D01*
X1340Y125D02*
X1342Y125D01*
X1354Y125D02*
X1357Y125D01*
X2186Y125D02*
X2191Y125D01*
X2198Y125D02*
X2205Y125D01*
X2212Y125D02*
X2216Y125D01*
X2358Y125D02*
X2361Y125D01*
X0Y124D02*
X3Y124D01*
X629Y124D02*
X632Y124D01*
X1218Y124D02*
X1221Y124D01*
X1337Y124D02*
X1345Y124D01*
X1351Y124D02*
X1359Y124D01*
X2186Y124D02*
X2190Y124D01*
X2199Y124D02*
X2204Y124D01*
X2213Y124D02*
X2217Y124D01*
X2358Y124D02*
X2361Y124D01*
X0Y123D02*
X3Y123D01*
X629Y123D02*
X632Y123D01*
X1218Y123D02*
X1221Y123D01*
X1335Y123D02*
X1347Y123D01*
X1349Y123D02*
X1361Y123D01*
X2186Y123D02*
X2189Y123D01*
X2199Y123D02*
X2203Y123D01*
X2214Y123D02*
X2217Y123D01*
X2358Y123D02*
X2361Y123D01*
X0Y122D02*
X3Y122D01*
X629Y122D02*
X632Y122D01*
X1218Y122D02*
X1221Y122D01*
X1334Y122D02*
X1362Y122D01*
X2186Y122D02*
X2189Y122D01*
X2200Y122D02*
X2203Y122D01*
X2214Y122D02*
X2217Y122D01*
X2358Y122D02*
X2361Y122D01*
X0Y121D02*
X3Y121D01*
X629Y121D02*
X632Y121D01*
X1218Y121D02*
X1221Y121D01*
X1334Y121D02*
X1363Y121D01*
X2186Y121D02*
X2189Y121D01*
X2200Y121D02*
X2203Y121D01*
X2214Y121D02*
X2217Y121D01*
X2358Y121D02*
X2361Y121D01*
X0Y120D02*
X3Y120D01*
X629Y120D02*
X632Y120D01*
X1218Y120D02*
X1221Y120D01*
X1333Y120D02*
X1337Y120D01*
X1345Y120D02*
X1351Y120D01*
X1359Y120D02*
X1363Y120D01*
X2186Y120D02*
X2189Y120D01*
X2200Y120D02*
X2203Y120D01*
X2214Y120D02*
X2217Y120D01*
X2358Y120D02*
X2361Y120D01*
X0Y119D02*
X3Y119D01*
X629Y119D02*
X632Y119D01*
X1218Y119D02*
X1221Y119D01*
X1333Y119D02*
X1336Y119D01*
X1346Y119D02*
X1350Y119D01*
X1360Y119D02*
X1363Y119D01*
X2186Y119D02*
X2189Y119D01*
X2200Y119D02*
X2203Y119D01*
X2214Y119D02*
X2217Y119D01*
X2358Y119D02*
X2361Y119D01*
X0Y118D02*
X3Y118D01*
X629Y118D02*
X632Y118D01*
X1218Y118D02*
X1221Y118D01*
X1332Y118D02*
X1336Y118D01*
X1346Y118D02*
X1350Y118D01*
X1360Y118D02*
X1364Y118D01*
X2186Y118D02*
X2189Y118D01*
X2200Y118D02*
X2203Y118D01*
X2214Y118D02*
X2217Y118D01*
X2358Y118D02*
X2361Y118D01*
X0Y117D02*
X3Y117D01*
X629Y117D02*
X632Y117D01*
X1218Y117D02*
X1221Y117D01*
X1332Y117D02*
X1336Y117D01*
X1346Y117D02*
X1350Y117D01*
X1361Y117D02*
X1364Y117D01*
X2186Y117D02*
X2189Y117D01*
X2200Y117D02*
X2203Y117D01*
X2214Y117D02*
X2217Y117D01*
X2358Y117D02*
X2361Y117D01*
X0Y116D02*
X3Y116D01*
X629Y116D02*
X632Y116D01*
X1218Y116D02*
X1221Y116D01*
X1332Y116D02*
X1336Y116D01*
X1346Y116D02*
X1350Y116D01*
X1361Y116D02*
X1364Y116D01*
X2186Y116D02*
X2189Y116D01*
X2200Y116D02*
X2203Y116D01*
X2214Y116D02*
X2217Y116D01*
X2358Y116D02*
X2361Y116D01*
X0Y115D02*
X3Y115D01*
X629Y115D02*
X632Y115D01*
X1218Y115D02*
X1221Y115D01*
X1332Y115D02*
X1336Y115D01*
X1346Y115D02*
X1350Y115D01*
X1361Y115D02*
X1364Y115D01*
X2186Y115D02*
X2189Y115D01*
X2200Y115D02*
X2203Y115D01*
X2214Y115D02*
X2217Y115D01*
X2358Y115D02*
X2361Y115D01*
X0Y114D02*
X3Y114D01*
X629Y114D02*
X632Y114D01*
X1218Y114D02*
X1221Y114D01*
X1332Y114D02*
X1336Y114D01*
X1346Y114D02*
X1350Y114D01*
X1361Y114D02*
X1364Y114D01*
X2186Y114D02*
X2189Y114D01*
X2200Y114D02*
X2203Y114D01*
X2214Y114D02*
X2217Y114D01*
X2358Y114D02*
X2361Y114D01*
X0Y113D02*
X3Y113D01*
X629Y113D02*
X632Y113D01*
X1218Y113D02*
X1221Y113D01*
X1332Y113D02*
X1336Y113D01*
X1346Y113D02*
X1350Y113D01*
X1361Y113D02*
X1364Y113D01*
X2186Y113D02*
X2217Y113D01*
X2358Y113D02*
X2361Y113D01*
X0Y112D02*
X3Y112D01*
X629Y112D02*
X632Y112D01*
X1218Y112D02*
X1221Y112D01*
X1332Y112D02*
X1336Y112D01*
X1346Y112D02*
X1350Y112D01*
X1361Y112D02*
X1364Y112D01*
X2186Y112D02*
X2217Y112D01*
X2358Y112D02*
X2361Y112D01*
X0Y111D02*
X3Y111D01*
X629Y111D02*
X632Y111D01*
X1218Y111D02*
X1221Y111D01*
X1332Y111D02*
X1336Y111D01*
X1346Y111D02*
X1350Y111D01*
X1361Y111D02*
X1364Y111D01*
X2186Y111D02*
X2217Y111D01*
X2358Y111D02*
X2361Y111D01*
X0Y110D02*
X3Y110D01*
X629Y110D02*
X632Y110D01*
X1218Y110D02*
X1221Y110D01*
X1332Y110D02*
X1336Y110D01*
X1346Y110D02*
X1350Y110D01*
X1361Y110D02*
X1364Y110D01*
X2186Y110D02*
X2217Y110D01*
X2358Y110D02*
X2361Y110D01*
X0Y109D02*
X3Y109D01*
X629Y109D02*
X632Y109D01*
X1218Y109D02*
X1221Y109D01*
X1332Y109D02*
X1336Y109D01*
X1346Y109D02*
X1350Y109D01*
X1361Y109D02*
X1364Y109D01*
X2358Y109D02*
X2361Y109D01*
X0Y108D02*
X3Y108D01*
X629Y108D02*
X632Y108D01*
X1218Y108D02*
X1221Y108D01*
X1332Y108D02*
X1364Y108D01*
X2358Y108D02*
X2361Y108D01*
X0Y107D02*
X3Y107D01*
X629Y107D02*
X632Y107D01*
X1218Y107D02*
X1221Y107D01*
X1332Y107D02*
X1364Y107D01*
X2358Y107D02*
X2361Y107D01*
X0Y106D02*
X3Y106D01*
X629Y106D02*
X632Y106D01*
X1218Y106D02*
X1221Y106D01*
X1332Y106D02*
X1364Y106D01*
X2358Y106D02*
X2361Y106D01*
X0Y105D02*
X3Y105D01*
X629Y105D02*
X632Y105D01*
X1218Y105D02*
X1221Y105D01*
X1332Y105D02*
X1364Y105D01*
X2358Y105D02*
X2361Y105D01*
X0Y104D02*
X3Y104D01*
X629Y104D02*
X632Y104D01*
X1218Y104D02*
X1221Y104D01*
X2358Y104D02*
X2361Y104D01*
X0Y103D02*
X3Y103D01*
X629Y103D02*
X632Y103D01*
X1218Y103D02*
X1221Y103D01*
X2358Y103D02*
X2361Y103D01*
X0Y102D02*
X3Y102D01*
X629Y102D02*
X632Y102D01*
X1218Y102D02*
X1221Y102D01*
X2358Y102D02*
X2361Y102D01*
X0Y101D02*
X3Y101D01*
X629Y101D02*
X632Y101D01*
X1218Y101D02*
X1221Y101D01*
X2358Y101D02*
X2361Y101D01*
X0Y100D02*
X3Y100D01*
X629Y100D02*
X632Y100D01*
X1218Y100D02*
X1221Y100D01*
X2358Y100D02*
X2361Y100D01*
X0Y99D02*
X3Y99D01*
X629Y99D02*
X632Y99D01*
X1218Y99D02*
X1221Y99D01*
X2358Y99D02*
X2361Y99D01*
X0Y98D02*
X3Y98D01*
X629Y98D02*
X632Y98D01*
X1218Y98D02*
X1221Y98D01*
X2358Y98D02*
X2361Y98D01*
X0Y97D02*
X3Y97D01*
X629Y97D02*
X632Y97D01*
X1218Y97D02*
X1221Y97D01*
X2358Y97D02*
X2361Y97D01*
X0Y96D02*
X3Y96D01*
X629Y96D02*
X632Y96D01*
X1218Y96D02*
X1221Y96D01*
X2358Y96D02*
X2361Y96D01*
X0Y95D02*
X3Y95D01*
X629Y95D02*
X632Y95D01*
X1218Y95D02*
X1221Y95D01*
X2358Y95D02*
X2361Y95D01*
X0Y94D02*
X3Y94D01*
X629Y94D02*
X632Y94D01*
X1218Y94D02*
X1221Y94D01*
X2358Y94D02*
X2361Y94D01*
X0Y93D02*
X3Y93D01*
X629Y93D02*
X632Y93D01*
X1218Y93D02*
X1221Y93D01*
X2358Y93D02*
X2361Y93D01*
X0Y92D02*
X3Y92D01*
X629Y92D02*
X632Y92D01*
X1218Y92D02*
X1221Y92D01*
X2358Y92D02*
X2361Y92D01*
X0Y91D02*
X3Y91D01*
X629Y91D02*
X632Y91D01*
X1218Y91D02*
X1221Y91D01*
X2358Y91D02*
X2361Y91D01*
X0Y90D02*
X3Y90D01*
X629Y90D02*
X632Y90D01*
X1218Y90D02*
X1221Y90D01*
X2358Y90D02*
X2361Y90D01*
X0Y89D02*
X3Y89D01*
X629Y89D02*
X632Y89D01*
X1218Y89D02*
X1221Y89D01*
X2358Y89D02*
X2361Y89D01*
X0Y88D02*
X3Y88D01*
X629Y88D02*
X632Y88D01*
X1218Y88D02*
X1221Y88D01*
X2358Y88D02*
X2361Y88D01*
X0Y87D02*
X3Y87D01*
X629Y87D02*
X632Y87D01*
X1218Y87D02*
X1221Y87D01*
X2358Y87D02*
X2361Y87D01*
X0Y86D02*
X3Y86D01*
X629Y86D02*
X632Y86D01*
X1218Y86D02*
X1221Y86D01*
X2358Y86D02*
X2361Y86D01*
X0Y85D02*
X3Y85D01*
X629Y85D02*
X632Y85D01*
X1218Y85D02*
X1221Y85D01*
X2358Y85D02*
X2361Y85D01*
X0Y84D02*
X3Y84D01*
X629Y84D02*
X632Y84D01*
X1218Y84D02*
X1221Y84D01*
X2358Y84D02*
X2361Y84D01*
X0Y83D02*
X3Y83D01*
X629Y83D02*
X632Y83D01*
X1218Y83D02*
X1221Y83D01*
X2358Y83D02*
X2361Y83D01*
X0Y82D02*
X3Y82D01*
X629Y82D02*
X632Y82D01*
X1218Y82D02*
X1221Y82D01*
X2358Y82D02*
X2361Y82D01*
X0Y81D02*
X3Y81D01*
X629Y81D02*
X632Y81D01*
X1218Y81D02*
X1221Y81D01*
X2358Y81D02*
X2361Y81D01*
X0Y80D02*
X3Y80D01*
X629Y80D02*
X632Y80D01*
X1218Y80D02*
X1221Y80D01*
X2358Y80D02*
X2361Y80D01*
X0Y79D02*
X3Y79D01*
X629Y79D02*
X632Y79D01*
X1218Y79D02*
X1221Y79D01*
X2358Y79D02*
X2361Y79D01*
X0Y78D02*
X3Y78D01*
X629Y78D02*
X632Y78D01*
X1218Y78D02*
X1221Y78D01*
X2358Y78D02*
X2361Y78D01*
X0Y77D02*
X3Y77D01*
X629Y77D02*
X632Y77D01*
X1218Y77D02*
X1221Y77D01*
X2358Y77D02*
X2361Y77D01*
X0Y76D02*
X3Y76D01*
X629Y76D02*
X632Y76D01*
X1218Y76D02*
X1221Y76D01*
X2358Y76D02*
X2361Y76D01*
X0Y75D02*
X3Y75D01*
X629Y75D02*
X632Y75D01*
X1218Y75D02*
X1221Y75D01*
X2358Y75D02*
X2361Y75D01*
X0Y74D02*
X3Y74D01*
X629Y74D02*
X632Y74D01*
X1218Y74D02*
X1221Y74D01*
X2358Y74D02*
X2361Y74D01*
X0Y73D02*
X3Y73D01*
X629Y73D02*
X632Y73D01*
X1218Y73D02*
X1221Y73D01*
X2358Y73D02*
X2361Y73D01*
X0Y72D02*
X3Y72D01*
X629Y72D02*
X632Y72D01*
X1218Y72D02*
X1221Y72D01*
X2358Y72D02*
X2361Y72D01*
X0Y71D02*
X3Y71D01*
X629Y71D02*
X632Y71D01*
X1218Y71D02*
X1221Y71D01*
X2358Y71D02*
X2361Y71D01*
X0Y70D02*
X3Y70D01*
X629Y70D02*
X632Y70D01*
X1218Y70D02*
X1221Y70D01*
X2358Y70D02*
X2361Y70D01*
X0Y69D02*
X3Y69D01*
X629Y69D02*
X632Y69D01*
X1218Y69D02*
X1221Y69D01*
X2358Y69D02*
X2361Y69D01*
X0Y68D02*
X3Y68D01*
X629Y68D02*
X632Y68D01*
X1218Y68D02*
X1221Y68D01*
X2358Y68D02*
X2361Y68D01*
X0Y67D02*
X3Y67D01*
X629Y67D02*
X632Y67D01*
X1218Y67D02*
X1221Y67D01*
X2358Y67D02*
X2361Y67D01*
X0Y66D02*
X3Y66D01*
X629Y66D02*
X632Y66D01*
X1218Y66D02*
X1221Y66D01*
X2358Y66D02*
X2361Y66D01*
X0Y65D02*
X3Y65D01*
X629Y65D02*
X632Y65D01*
X1218Y65D02*
X1221Y65D01*
X2358Y65D02*
X2361Y65D01*
X0Y64D02*
X3Y64D01*
X629Y64D02*
X632Y64D01*
X1218Y64D02*
X1221Y64D01*
X2358Y64D02*
X2361Y64D01*
X0Y63D02*
X3Y63D01*
X629Y63D02*
X632Y63D01*
X1218Y63D02*
X1221Y63D01*
X2358Y63D02*
X2361Y63D01*
X0Y62D02*
X3Y62D01*
X629Y62D02*
X632Y62D01*
X1218Y62D02*
X1221Y62D01*
X2358Y62D02*
X2361Y62D01*
X0Y61D02*
X3Y61D01*
X629Y61D02*
X632Y61D01*
X1218Y61D02*
X1221Y61D01*
X2358Y61D02*
X2361Y61D01*
X0Y60D02*
X3Y60D01*
X629Y60D02*
X632Y60D01*
X1218Y60D02*
X1221Y60D01*
X2358Y60D02*
X2361Y60D01*
X0Y59D02*
X3Y59D01*
X629Y59D02*
X632Y59D01*
X1218Y59D02*
X1221Y59D01*
X2358Y59D02*
X2361Y59D01*
X0Y58D02*
X3Y58D01*
X629Y58D02*
X632Y58D01*
X1218Y58D02*
X1221Y58D01*
X2358Y58D02*
X2361Y58D01*
X0Y57D02*
X3Y57D01*
X629Y57D02*
X632Y57D01*
X1218Y57D02*
X1221Y57D01*
X2358Y57D02*
X2361Y57D01*
X0Y56D02*
X3Y56D01*
X629Y56D02*
X632Y56D01*
X1218Y56D02*
X1221Y56D01*
X2358Y56D02*
X2361Y56D01*
X0Y55D02*
X3Y55D01*
X629Y55D02*
X632Y55D01*
X1218Y55D02*
X1221Y55D01*
X2358Y55D02*
X2361Y55D01*
X0Y54D02*
X3Y54D01*
X629Y54D02*
X632Y54D01*
X1218Y54D02*
X1221Y54D01*
X2358Y54D02*
X2361Y54D01*
X0Y53D02*
X3Y53D01*
X629Y53D02*
X632Y53D01*
X1218Y53D02*
X1221Y53D01*
X2358Y53D02*
X2361Y53D01*
X0Y52D02*
X3Y52D01*
X629Y52D02*
X632Y52D01*
X1218Y52D02*
X1221Y52D01*
X2358Y52D02*
X2361Y52D01*
X0Y51D02*
X3Y51D01*
X629Y51D02*
X632Y51D01*
X1218Y51D02*
X1221Y51D01*
X2358Y51D02*
X2361Y51D01*
X0Y50D02*
X3Y50D01*
X629Y50D02*
X632Y50D01*
X1218Y50D02*
X1221Y50D01*
X2358Y50D02*
X2361Y50D01*
X0Y49D02*
X3Y49D01*
X629Y49D02*
X632Y49D01*
X1218Y49D02*
X1221Y49D01*
X2358Y49D02*
X2361Y49D01*
X0Y48D02*
X3Y48D01*
X629Y48D02*
X632Y48D01*
X1218Y48D02*
X1221Y48D01*
X2358Y48D02*
X2361Y48D01*
X0Y47D02*
X3Y47D01*
X629Y47D02*
X632Y47D01*
X1218Y47D02*
X1221Y47D01*
X2358Y47D02*
X2361Y47D01*
X0Y46D02*
X3Y46D01*
X629Y46D02*
X632Y46D01*
X1218Y46D02*
X1221Y46D01*
X2358Y46D02*
X2361Y46D01*
X0Y45D02*
X3Y45D01*
X629Y45D02*
X632Y45D01*
X1218Y45D02*
X1221Y45D01*
X2358Y45D02*
X2361Y45D01*
X0Y44D02*
X3Y44D01*
X629Y44D02*
X632Y44D01*
X1218Y44D02*
X1221Y44D01*
X2358Y44D02*
X2361Y44D01*
X0Y43D02*
X3Y43D01*
X629Y43D02*
X632Y43D01*
X1218Y43D02*
X1221Y43D01*
X2358Y43D02*
X2361Y43D01*
X0Y42D02*
X3Y42D01*
X629Y42D02*
X632Y42D01*
X1218Y42D02*
X1221Y42D01*
X2358Y42D02*
X2361Y42D01*
X0Y41D02*
X3Y41D01*
X629Y41D02*
X632Y41D01*
X1218Y41D02*
X1221Y41D01*
X2358Y41D02*
X2361Y41D01*
X0Y40D02*
X3Y40D01*
X629Y40D02*
X632Y40D01*
X1218Y40D02*
X1221Y40D01*
X2358Y40D02*
X2361Y40D01*
X0Y39D02*
X3Y39D01*
X629Y39D02*
X632Y39D01*
X1218Y39D02*
X1221Y39D01*
X2358Y39D02*
X2361Y39D01*
X0Y38D02*
X3Y38D01*
X629Y38D02*
X632Y38D01*
X1218Y38D02*
X1221Y38D01*
X2358Y38D02*
X2361Y38D01*
X0Y37D02*
X3Y37D01*
X629Y37D02*
X632Y37D01*
X1218Y37D02*
X1221Y37D01*
X2358Y37D02*
X2361Y37D01*
X0Y36D02*
X3Y36D01*
X629Y36D02*
X632Y36D01*
X1218Y36D02*
X1221Y36D01*
X2358Y36D02*
X2361Y36D01*
X0Y35D02*
X3Y35D01*
X629Y35D02*
X632Y35D01*
X1218Y35D02*
X1221Y35D01*
X2358Y35D02*
X2361Y35D01*
X0Y34D02*
X3Y34D01*
X629Y34D02*
X632Y34D01*
X1218Y34D02*
X1221Y34D01*
X2358Y34D02*
X2361Y34D01*
X0Y33D02*
X3Y33D01*
X629Y33D02*
X632Y33D01*
X1218Y33D02*
X1221Y33D01*
X2358Y33D02*
X2361Y33D01*
X0Y32D02*
X3Y32D01*
X629Y32D02*
X632Y32D01*
X1218Y32D02*
X1221Y32D01*
X2358Y32D02*
X2361Y32D01*
X0Y31D02*
X3Y31D01*
X629Y31D02*
X632Y31D01*
X1218Y31D02*
X1221Y31D01*
X2358Y31D02*
X2361Y31D01*
X0Y30D02*
X3Y30D01*
X629Y30D02*
X632Y30D01*
X1218Y30D02*
X1221Y30D01*
X2358Y30D02*
X2361Y30D01*
X0Y29D02*
X3Y29D01*
X629Y29D02*
X632Y29D01*
X1218Y29D02*
X1221Y29D01*
X2358Y29D02*
X2361Y29D01*
X0Y28D02*
X3Y28D01*
X629Y28D02*
X632Y28D01*
X1218Y28D02*
X1221Y28D01*
X2358Y28D02*
X2361Y28D01*
X0Y27D02*
X3Y27D01*
X629Y27D02*
X632Y27D01*
X1218Y27D02*
X1221Y27D01*
X2358Y27D02*
X2361Y27D01*
X0Y26D02*
X3Y26D01*
X629Y26D02*
X632Y26D01*
X1218Y26D02*
X1221Y26D01*
X2358Y26D02*
X2361Y26D01*
X0Y25D02*
X3Y25D01*
X629Y25D02*
X632Y25D01*
X1218Y25D02*
X1221Y25D01*
X2358Y25D02*
X2361Y25D01*
X0Y24D02*
X3Y24D01*
X629Y24D02*
X632Y24D01*
X1218Y24D02*
X1221Y24D01*
X2358Y24D02*
X2361Y24D01*
X0Y23D02*
X3Y23D01*
X629Y23D02*
X632Y23D01*
X1218Y23D02*
X1221Y23D01*
X2358Y23D02*
X2361Y23D01*
X0Y22D02*
X3Y22D01*
X629Y22D02*
X632Y22D01*
X1218Y22D02*
X1221Y22D01*
X2358Y22D02*
X2361Y22D01*
X0Y21D02*
X3Y21D01*
X629Y21D02*
X632Y21D01*
X1218Y21D02*
X1221Y21D01*
X2358Y21D02*
X2361Y21D01*
X0Y20D02*
X3Y20D01*
X629Y20D02*
X632Y20D01*
X1218Y20D02*
X1221Y20D01*
X2358Y20D02*
X2361Y20D01*
X0Y19D02*
X3Y19D01*
X629Y19D02*
X632Y19D01*
X1218Y19D02*
X1221Y19D01*
X2358Y19D02*
X2361Y19D01*
X0Y18D02*
X3Y18D01*
X629Y18D02*
X632Y18D01*
X1218Y18D02*
X1221Y18D01*
X2358Y18D02*
X2361Y18D01*
X0Y17D02*
X3Y17D01*
X629Y17D02*
X632Y17D01*
X1218Y17D02*
X1221Y17D01*
X2358Y17D02*
X2361Y17D01*
X0Y16D02*
X3Y16D01*
X629Y16D02*
X632Y16D01*
X1218Y16D02*
X1221Y16D01*
X2358Y16D02*
X2361Y16D01*
X0Y15D02*
X3Y15D01*
X629Y15D02*
X632Y15D01*
X1218Y15D02*
X1221Y15D01*
X2358Y15D02*
X2361Y15D01*
X0Y14D02*
X3Y14D01*
X629Y14D02*
X632Y14D01*
X1218Y14D02*
X1221Y14D01*
X2358Y14D02*
X2361Y14D01*
X0Y13D02*
X3Y13D01*
X629Y13D02*
X632Y13D01*
X1218Y13D02*
X1221Y13D01*
X2358Y13D02*
X2361Y13D01*
X0Y12D02*
X3Y12D01*
X629Y12D02*
X632Y12D01*
X1218Y12D02*
X1221Y12D01*
X2358Y12D02*
X2361Y12D01*
X0Y11D02*
X3Y11D01*
X629Y11D02*
X632Y11D01*
X1218Y11D02*
X1221Y11D01*
X2358Y11D02*
X2361Y11D01*
X0Y10D02*
X3Y10D01*
X629Y10D02*
X632Y10D01*
X1218Y10D02*
X1221Y10D01*
X2358Y10D02*
X2361Y10D01*
X0Y9D02*
X3Y9D01*
X629Y9D02*
X632Y9D01*
X1218Y9D02*
X1221Y9D01*
X2358Y9D02*
X2361Y9D01*
X0Y8D02*
X3Y8D01*
X629Y8D02*
X632Y8D01*
X1218Y8D02*
X1221Y8D01*
X2358Y8D02*
X2361Y8D01*
X0Y7D02*
X3Y7D01*
X629Y7D02*
X632Y7D01*
X1218Y7D02*
X1221Y7D01*
X2358Y7D02*
X2361Y7D01*
X0Y6D02*
X3Y6D01*
X629Y6D02*
X632Y6D01*
X1218Y6D02*
X1221Y6D01*
X2358Y6D02*
X2361Y6D01*
X0Y5D02*
X3Y5D01*
X629Y5D02*
X632Y5D01*
X1218Y5D02*
X1221Y5D01*
X2358Y5D02*
X2361Y5D01*
X0Y4D02*
X632Y4D01*
X1218Y4D02*
X2361Y4D01*
X0Y3D02*
X632Y3D01*
X1218Y3D02*
X2361Y3D01*
X0Y2D02*
X632Y2D01*
X1218Y2D02*
X2361Y2D01*
X0Y1D02*
X632Y1D01*
X1218Y1D02*
X2361Y1D01*
D02*
G04 End of Silk1*
M02*