G04 MADE WITH FRITZING*
G04 WWW.FRITZING.ORG*
G04 DOUBLE SIDED*
G04 HOLES PLATED*
G04 CONTOUR ON CENTER OF CONTOUR VECTOR*
%ASAXBY*%
%FSLAX23Y23*%
%MOIN*%
%OFA0B0*%
%SFA1.0B1.0*%
%ADD10C,0.075000*%
%ADD11C,0.078000*%
%ADD12C,0.024000*%
%LNCOPPER0*%
G90*
G70*
G54D10*
X1275Y669D03*
X1675Y669D03*
G54D11*
X2075Y669D03*
X1975Y669D03*
X1875Y669D03*
X1075Y669D03*
X975Y669D03*
X875Y669D03*
X775Y669D03*
X675Y669D03*
X575Y669D03*
G54D10*
X431Y69D03*
X175Y69D03*
X431Y247D03*
X175Y247D03*
X1675Y69D03*
X1419Y69D03*
X1675Y247D03*
X1419Y247D03*
X2131Y69D03*
X1875Y69D03*
X2131Y247D03*
X1875Y247D03*
X675Y369D03*
X1075Y369D03*
G54D12*
X2075Y769D02*
X775Y769D01*
D02*
X2175Y269D02*
X2175Y469D01*
D02*
X2175Y469D02*
X2175Y769D01*
D02*
X2175Y769D02*
X2075Y769D01*
D02*
X775Y769D02*
X775Y699D01*
D02*
X2156Y260D02*
X2175Y269D01*
D02*
X1675Y469D02*
X1675Y275D01*
D02*
X2175Y469D02*
X1675Y469D01*
D02*
X475Y269D02*
X456Y260D01*
D02*
X475Y769D02*
X475Y269D01*
D02*
X775Y769D02*
X475Y769D01*
D02*
X1375Y269D02*
X1375Y469D01*
D02*
X1375Y469D02*
X875Y469D01*
D02*
X875Y469D02*
X875Y639D01*
D02*
X1394Y260D02*
X1375Y269D01*
D02*
X2075Y769D02*
X2075Y699D01*
G04 End of Copper0*
M02*