G04 MADE WITH FRITZING*
G04 WWW.FRITZING.ORG*
G04 DOUBLE SIDED*
G04 HOLES PLATED*
G04 CONTOUR ON CENTER OF CONTOUR VECTOR*
%ASAXBY*%
%FSLAX23Y23*%
%MOIN*%
%OFA0B0*%
%SFA1.0B1.0*%
%ADD10C,0.010000*%
%ADD11R,0.001000X0.001000*%
%LNSILK1*%
G90*
G70*
G54D10*
X1385Y702D02*
X1585Y702D01*
D02*
X1585Y702D02*
X1585Y636D01*
D02*
X1585Y636D02*
X1385Y636D01*
D02*
X1385Y636D02*
X1385Y702D01*
D02*
X2125Y719D02*
X1825Y719D01*
D02*
X1825Y719D02*
X1825Y619D01*
D02*
X1825Y619D02*
X2125Y619D01*
D02*
X2125Y619D02*
X2125Y719D01*
D02*
X1125Y719D02*
X525Y719D01*
D02*
X525Y719D02*
X525Y619D01*
D02*
X525Y619D02*
X1125Y619D01*
D02*
X1125Y619D02*
X1125Y719D01*
D02*
X421Y197D02*
X421Y119D01*
D02*
X224Y276D02*
X392Y276D01*
D02*
X224Y40D02*
X392Y40D01*
D02*
X185Y197D02*
X185Y119D01*
D02*
X303Y178D02*
X303Y138D01*
D02*
X323Y158D02*
X283Y158D01*
D02*
X1665Y197D02*
X1665Y119D01*
D02*
X1468Y276D02*
X1636Y276D01*
D02*
X1468Y40D02*
X1636Y40D01*
D02*
X1429Y197D02*
X1429Y119D01*
D02*
X1547Y178D02*
X1547Y138D01*
D02*
X1567Y158D02*
X1527Y158D01*
D02*
X2121Y197D02*
X2121Y119D01*
D02*
X1924Y276D02*
X2092Y276D01*
D02*
X1924Y40D02*
X2092Y40D01*
D02*
X1885Y197D02*
X1885Y119D01*
D02*
X2003Y178D02*
X2003Y138D01*
D02*
X2023Y158D02*
X1983Y158D01*
D02*
X785Y402D02*
X985Y402D01*
D02*
X985Y402D02*
X985Y336D01*
D02*
X985Y336D02*
X785Y336D01*
D02*
X785Y336D02*
X785Y402D01*
G54D11*
X0Y984D02*
X2361Y984D01*
X0Y983D02*
X2361Y983D01*
X0Y982D02*
X2361Y982D01*
X0Y981D02*
X2361Y981D01*
X0Y980D02*
X3Y980D01*
X2358Y980D02*
X2361Y980D01*
X0Y979D02*
X3Y979D01*
X2358Y979D02*
X2361Y979D01*
X0Y978D02*
X3Y978D01*
X2358Y978D02*
X2361Y978D01*
X0Y977D02*
X3Y977D01*
X2358Y977D02*
X2361Y977D01*
X0Y976D02*
X3Y976D01*
X2358Y976D02*
X2361Y976D01*
X0Y975D02*
X3Y975D01*
X2358Y975D02*
X2361Y975D01*
X0Y974D02*
X3Y974D01*
X2358Y974D02*
X2361Y974D01*
X0Y973D02*
X3Y973D01*
X2358Y973D02*
X2361Y973D01*
X0Y972D02*
X3Y972D01*
X2358Y972D02*
X2361Y972D01*
X0Y971D02*
X3Y971D01*
X2358Y971D02*
X2361Y971D01*
X0Y970D02*
X3Y970D01*
X2358Y970D02*
X2361Y970D01*
X0Y969D02*
X3Y969D01*
X2358Y969D02*
X2361Y969D01*
X0Y968D02*
X3Y968D01*
X2358Y968D02*
X2361Y968D01*
X0Y967D02*
X3Y967D01*
X2358Y967D02*
X2361Y967D01*
X0Y966D02*
X3Y966D01*
X2358Y966D02*
X2361Y966D01*
X0Y965D02*
X3Y965D01*
X2358Y965D02*
X2361Y965D01*
X0Y964D02*
X3Y964D01*
X2358Y964D02*
X2361Y964D01*
X0Y963D02*
X3Y963D01*
X2358Y963D02*
X2361Y963D01*
X0Y962D02*
X3Y962D01*
X2358Y962D02*
X2361Y962D01*
X0Y961D02*
X3Y961D01*
X2358Y961D02*
X2361Y961D01*
X0Y960D02*
X3Y960D01*
X2358Y960D02*
X2361Y960D01*
X0Y959D02*
X3Y959D01*
X2358Y959D02*
X2361Y959D01*
X0Y958D02*
X3Y958D01*
X2358Y958D02*
X2361Y958D01*
X0Y957D02*
X3Y957D01*
X2358Y957D02*
X2361Y957D01*
X0Y956D02*
X3Y956D01*
X2358Y956D02*
X2361Y956D01*
X0Y955D02*
X3Y955D01*
X2358Y955D02*
X2361Y955D01*
X0Y954D02*
X3Y954D01*
X2358Y954D02*
X2361Y954D01*
X0Y953D02*
X3Y953D01*
X2358Y953D02*
X2361Y953D01*
X0Y952D02*
X3Y952D01*
X2358Y952D02*
X2361Y952D01*
X0Y951D02*
X3Y951D01*
X2358Y951D02*
X2361Y951D01*
X0Y950D02*
X3Y950D01*
X2358Y950D02*
X2361Y950D01*
X0Y949D02*
X3Y949D01*
X2358Y949D02*
X2361Y949D01*
X0Y948D02*
X3Y948D01*
X2358Y948D02*
X2361Y948D01*
X0Y947D02*
X3Y947D01*
X2358Y947D02*
X2361Y947D01*
X0Y946D02*
X3Y946D01*
X2358Y946D02*
X2361Y946D01*
X0Y945D02*
X3Y945D01*
X2358Y945D02*
X2361Y945D01*
X0Y944D02*
X3Y944D01*
X2358Y944D02*
X2361Y944D01*
X0Y943D02*
X3Y943D01*
X2358Y943D02*
X2361Y943D01*
X0Y942D02*
X3Y942D01*
X2358Y942D02*
X2361Y942D01*
X0Y941D02*
X3Y941D01*
X2358Y941D02*
X2361Y941D01*
X0Y940D02*
X3Y940D01*
X2358Y940D02*
X2361Y940D01*
X0Y939D02*
X3Y939D01*
X2358Y939D02*
X2361Y939D01*
X0Y938D02*
X3Y938D01*
X2358Y938D02*
X2361Y938D01*
X0Y937D02*
X3Y937D01*
X2358Y937D02*
X2361Y937D01*
X0Y936D02*
X3Y936D01*
X2358Y936D02*
X2361Y936D01*
X0Y935D02*
X3Y935D01*
X2358Y935D02*
X2361Y935D01*
X0Y934D02*
X3Y934D01*
X2358Y934D02*
X2361Y934D01*
X0Y933D02*
X3Y933D01*
X2358Y933D02*
X2361Y933D01*
X0Y932D02*
X3Y932D01*
X2358Y932D02*
X2361Y932D01*
X0Y931D02*
X3Y931D01*
X2358Y931D02*
X2361Y931D01*
X0Y930D02*
X3Y930D01*
X2358Y930D02*
X2361Y930D01*
X0Y929D02*
X3Y929D01*
X2358Y929D02*
X2361Y929D01*
X0Y928D02*
X3Y928D01*
X2358Y928D02*
X2361Y928D01*
X0Y927D02*
X3Y927D01*
X2358Y927D02*
X2361Y927D01*
X0Y926D02*
X3Y926D01*
X2358Y926D02*
X2361Y926D01*
X0Y925D02*
X3Y925D01*
X2358Y925D02*
X2361Y925D01*
X0Y924D02*
X3Y924D01*
X2358Y924D02*
X2361Y924D01*
X0Y923D02*
X3Y923D01*
X2358Y923D02*
X2361Y923D01*
X0Y922D02*
X3Y922D01*
X2358Y922D02*
X2361Y922D01*
X0Y921D02*
X3Y921D01*
X2358Y921D02*
X2361Y921D01*
X0Y920D02*
X3Y920D01*
X2358Y920D02*
X2361Y920D01*
X0Y919D02*
X3Y919D01*
X2358Y919D02*
X2361Y919D01*
X0Y918D02*
X3Y918D01*
X2358Y918D02*
X2361Y918D01*
X0Y917D02*
X3Y917D01*
X2358Y917D02*
X2361Y917D01*
X0Y916D02*
X3Y916D01*
X2358Y916D02*
X2361Y916D01*
X0Y915D02*
X3Y915D01*
X2358Y915D02*
X2361Y915D01*
X0Y914D02*
X3Y914D01*
X2358Y914D02*
X2361Y914D01*
X0Y913D02*
X3Y913D01*
X2358Y913D02*
X2361Y913D01*
X0Y912D02*
X3Y912D01*
X2358Y912D02*
X2361Y912D01*
X0Y911D02*
X3Y911D01*
X2358Y911D02*
X2361Y911D01*
X0Y910D02*
X3Y910D01*
X2358Y910D02*
X2361Y910D01*
X0Y909D02*
X3Y909D01*
X2358Y909D02*
X2361Y909D01*
X0Y908D02*
X3Y908D01*
X2358Y908D02*
X2361Y908D01*
X0Y907D02*
X3Y907D01*
X2358Y907D02*
X2361Y907D01*
X0Y906D02*
X3Y906D01*
X2358Y906D02*
X2361Y906D01*
X0Y905D02*
X3Y905D01*
X2358Y905D02*
X2361Y905D01*
X0Y904D02*
X3Y904D01*
X2358Y904D02*
X2361Y904D01*
X0Y903D02*
X3Y903D01*
X2358Y903D02*
X2361Y903D01*
X0Y902D02*
X3Y902D01*
X2358Y902D02*
X2361Y902D01*
X0Y901D02*
X3Y901D01*
X2358Y901D02*
X2361Y901D01*
X0Y900D02*
X3Y900D01*
X2358Y900D02*
X2361Y900D01*
X0Y899D02*
X3Y899D01*
X2358Y899D02*
X2361Y899D01*
X0Y898D02*
X3Y898D01*
X2358Y898D02*
X2361Y898D01*
X0Y897D02*
X3Y897D01*
X2358Y897D02*
X2361Y897D01*
X0Y896D02*
X3Y896D01*
X2358Y896D02*
X2361Y896D01*
X0Y895D02*
X3Y895D01*
X2358Y895D02*
X2361Y895D01*
X0Y894D02*
X3Y894D01*
X2358Y894D02*
X2361Y894D01*
X0Y893D02*
X3Y893D01*
X2358Y893D02*
X2361Y893D01*
X0Y892D02*
X3Y892D01*
X2358Y892D02*
X2361Y892D01*
X0Y891D02*
X3Y891D01*
X2358Y891D02*
X2361Y891D01*
X0Y890D02*
X3Y890D01*
X2358Y890D02*
X2361Y890D01*
X0Y889D02*
X3Y889D01*
X2358Y889D02*
X2361Y889D01*
X0Y888D02*
X3Y888D01*
X2358Y888D02*
X2361Y888D01*
X0Y887D02*
X3Y887D01*
X2358Y887D02*
X2361Y887D01*
X0Y886D02*
X3Y886D01*
X2358Y886D02*
X2361Y886D01*
X0Y885D02*
X3Y885D01*
X2358Y885D02*
X2361Y885D01*
X0Y884D02*
X3Y884D01*
X2358Y884D02*
X2361Y884D01*
X0Y883D02*
X3Y883D01*
X2358Y883D02*
X2361Y883D01*
X0Y882D02*
X3Y882D01*
X2358Y882D02*
X2361Y882D01*
X0Y881D02*
X3Y881D01*
X2358Y881D02*
X2361Y881D01*
X0Y880D02*
X3Y880D01*
X2358Y880D02*
X2361Y880D01*
X0Y879D02*
X3Y879D01*
X2358Y879D02*
X2361Y879D01*
X0Y878D02*
X3Y878D01*
X2358Y878D02*
X2361Y878D01*
X0Y877D02*
X3Y877D01*
X2358Y877D02*
X2361Y877D01*
X0Y876D02*
X3Y876D01*
X2358Y876D02*
X2361Y876D01*
X0Y875D02*
X3Y875D01*
X2358Y875D02*
X2361Y875D01*
X0Y874D02*
X3Y874D01*
X2358Y874D02*
X2361Y874D01*
X0Y873D02*
X3Y873D01*
X2358Y873D02*
X2361Y873D01*
X0Y872D02*
X3Y872D01*
X2358Y872D02*
X2361Y872D01*
X0Y871D02*
X3Y871D01*
X2358Y871D02*
X2361Y871D01*
X0Y870D02*
X3Y870D01*
X2358Y870D02*
X2361Y870D01*
X0Y869D02*
X3Y869D01*
X2358Y869D02*
X2361Y869D01*
X0Y868D02*
X3Y868D01*
X2358Y868D02*
X2361Y868D01*
X0Y867D02*
X3Y867D01*
X2358Y867D02*
X2361Y867D01*
X0Y866D02*
X3Y866D01*
X2358Y866D02*
X2361Y866D01*
X0Y865D02*
X3Y865D01*
X2358Y865D02*
X2361Y865D01*
X0Y864D02*
X3Y864D01*
X2358Y864D02*
X2361Y864D01*
X0Y863D02*
X3Y863D01*
X2358Y863D02*
X2361Y863D01*
X0Y862D02*
X3Y862D01*
X2358Y862D02*
X2361Y862D01*
X0Y861D02*
X3Y861D01*
X2358Y861D02*
X2361Y861D01*
X0Y860D02*
X3Y860D01*
X2358Y860D02*
X2361Y860D01*
X0Y859D02*
X3Y859D01*
X2358Y859D02*
X2361Y859D01*
X0Y858D02*
X3Y858D01*
X2358Y858D02*
X2361Y858D01*
X0Y857D02*
X3Y857D01*
X2358Y857D02*
X2361Y857D01*
X0Y856D02*
X3Y856D01*
X2358Y856D02*
X2361Y856D01*
X0Y855D02*
X3Y855D01*
X2358Y855D02*
X2361Y855D01*
X0Y854D02*
X3Y854D01*
X2358Y854D02*
X2361Y854D01*
X0Y853D02*
X3Y853D01*
X2358Y853D02*
X2361Y853D01*
X0Y852D02*
X3Y852D01*
X2358Y852D02*
X2361Y852D01*
X0Y851D02*
X3Y851D01*
X2358Y851D02*
X2361Y851D01*
X0Y850D02*
X3Y850D01*
X1452Y850D02*
X1476Y850D01*
X1504Y850D02*
X1530Y850D01*
X2358Y850D02*
X2361Y850D01*
X0Y849D02*
X3Y849D01*
X1452Y849D02*
X1479Y849D01*
X1503Y849D02*
X1532Y849D01*
X2358Y849D02*
X2361Y849D01*
X0Y848D02*
X3Y848D01*
X1452Y848D02*
X1481Y848D01*
X1502Y848D02*
X1533Y848D01*
X2358Y848D02*
X2361Y848D01*
X0Y847D02*
X3Y847D01*
X1452Y847D02*
X1482Y847D01*
X1502Y847D02*
X1534Y847D01*
X2358Y847D02*
X2361Y847D01*
X0Y846D02*
X3Y846D01*
X1452Y846D02*
X1483Y846D01*
X1502Y846D02*
X1535Y846D01*
X2358Y846D02*
X2361Y846D01*
X0Y845D02*
X3Y845D01*
X1452Y845D02*
X1484Y845D01*
X1502Y845D02*
X1535Y845D01*
X2358Y845D02*
X2361Y845D01*
X0Y844D02*
X3Y844D01*
X1452Y844D02*
X1484Y844D01*
X1503Y844D02*
X1535Y844D01*
X2358Y844D02*
X2361Y844D01*
X0Y843D02*
X3Y843D01*
X1452Y843D02*
X1458Y843D01*
X1476Y843D02*
X1485Y843D01*
X1529Y843D02*
X1535Y843D01*
X2358Y843D02*
X2361Y843D01*
X0Y842D02*
X3Y842D01*
X1452Y842D02*
X1458Y842D01*
X1478Y842D02*
X1485Y842D01*
X1529Y842D02*
X1535Y842D01*
X2358Y842D02*
X2361Y842D01*
X0Y841D02*
X3Y841D01*
X1452Y841D02*
X1458Y841D01*
X1479Y841D02*
X1485Y841D01*
X1529Y841D02*
X1535Y841D01*
X2358Y841D02*
X2361Y841D01*
X0Y840D02*
X3Y840D01*
X785Y840D02*
X788Y840D01*
X811Y840D02*
X829Y840D01*
X1452Y840D02*
X1458Y840D01*
X1479Y840D02*
X1485Y840D01*
X1529Y840D02*
X1535Y840D01*
X2358Y840D02*
X2361Y840D01*
X0Y839D02*
X3Y839D01*
X784Y839D02*
X789Y839D01*
X810Y839D02*
X829Y839D01*
X1452Y839D02*
X1458Y839D01*
X1479Y839D02*
X1485Y839D01*
X1529Y839D02*
X1535Y839D01*
X2358Y839D02*
X2361Y839D01*
X0Y838D02*
X3Y838D01*
X784Y838D02*
X789Y838D01*
X810Y838D02*
X829Y838D01*
X1452Y838D02*
X1458Y838D01*
X1479Y838D02*
X1485Y838D01*
X1529Y838D02*
X1535Y838D01*
X2358Y838D02*
X2361Y838D01*
X0Y837D02*
X3Y837D01*
X783Y837D02*
X789Y837D01*
X810Y837D02*
X829Y837D01*
X1452Y837D02*
X1458Y837D01*
X1479Y837D02*
X1485Y837D01*
X1529Y837D02*
X1535Y837D01*
X2358Y837D02*
X2361Y837D01*
X0Y836D02*
X3Y836D01*
X783Y836D02*
X789Y836D01*
X810Y836D02*
X829Y836D01*
X1452Y836D02*
X1458Y836D01*
X1479Y836D02*
X1485Y836D01*
X1529Y836D02*
X1535Y836D01*
X2358Y836D02*
X2361Y836D01*
X0Y835D02*
X3Y835D01*
X783Y835D02*
X789Y835D01*
X810Y835D02*
X829Y835D01*
X1452Y835D02*
X1458Y835D01*
X1479Y835D02*
X1485Y835D01*
X1529Y835D02*
X1535Y835D01*
X2358Y835D02*
X2361Y835D01*
X0Y834D02*
X3Y834D01*
X783Y834D02*
X789Y834D01*
X812Y834D02*
X829Y834D01*
X1452Y834D02*
X1458Y834D01*
X1478Y834D02*
X1485Y834D01*
X1529Y834D02*
X1535Y834D01*
X2358Y834D02*
X2361Y834D01*
X0Y833D02*
X3Y833D01*
X783Y833D02*
X789Y833D01*
X823Y833D02*
X829Y833D01*
X1452Y833D02*
X1458Y833D01*
X1477Y833D02*
X1485Y833D01*
X1529Y833D02*
X1535Y833D01*
X2358Y833D02*
X2361Y833D01*
X0Y832D02*
X3Y832D01*
X783Y832D02*
X789Y832D01*
X823Y832D02*
X829Y832D01*
X1452Y832D02*
X1484Y832D01*
X1529Y832D02*
X1535Y832D01*
X2358Y832D02*
X2361Y832D01*
X0Y831D02*
X3Y831D01*
X783Y831D02*
X789Y831D01*
X823Y831D02*
X829Y831D01*
X1452Y831D02*
X1484Y831D01*
X1529Y831D02*
X1535Y831D01*
X2358Y831D02*
X2361Y831D01*
X0Y830D02*
X3Y830D01*
X783Y830D02*
X789Y830D01*
X823Y830D02*
X829Y830D01*
X1452Y830D02*
X1483Y830D01*
X1529Y830D02*
X1535Y830D01*
X2358Y830D02*
X2361Y830D01*
X0Y829D02*
X3Y829D01*
X783Y829D02*
X789Y829D01*
X823Y829D02*
X829Y829D01*
X1452Y829D02*
X1482Y829D01*
X1529Y829D02*
X1535Y829D01*
X2358Y829D02*
X2361Y829D01*
X0Y828D02*
X3Y828D01*
X783Y828D02*
X789Y828D01*
X823Y828D02*
X829Y828D01*
X1452Y828D02*
X1481Y828D01*
X1529Y828D02*
X1535Y828D01*
X2358Y828D02*
X2361Y828D01*
X0Y827D02*
X3Y827D01*
X783Y827D02*
X789Y827D01*
X823Y827D02*
X829Y827D01*
X1452Y827D02*
X1480Y827D01*
X1529Y827D02*
X1535Y827D01*
X2358Y827D02*
X2361Y827D01*
X0Y826D02*
X3Y826D01*
X783Y826D02*
X789Y826D01*
X823Y826D02*
X829Y826D01*
X1452Y826D02*
X1478Y826D01*
X1506Y826D02*
X1535Y826D01*
X2358Y826D02*
X2361Y826D01*
X0Y825D02*
X3Y825D01*
X783Y825D02*
X789Y825D01*
X823Y825D02*
X829Y825D01*
X1452Y825D02*
X1458Y825D01*
X1464Y825D02*
X1471Y825D01*
X1504Y825D02*
X1535Y825D01*
X2358Y825D02*
X2361Y825D01*
X0Y824D02*
X3Y824D01*
X783Y824D02*
X789Y824D01*
X823Y824D02*
X829Y824D01*
X1452Y824D02*
X1458Y824D01*
X1464Y824D02*
X1471Y824D01*
X1503Y824D02*
X1535Y824D01*
X2358Y824D02*
X2361Y824D01*
X0Y823D02*
X3Y823D01*
X783Y823D02*
X789Y823D01*
X823Y823D02*
X829Y823D01*
X1452Y823D02*
X1458Y823D01*
X1465Y823D02*
X1472Y823D01*
X1503Y823D02*
X1534Y823D01*
X2358Y823D02*
X2361Y823D01*
X0Y822D02*
X3Y822D01*
X783Y822D02*
X789Y822D01*
X823Y822D02*
X829Y822D01*
X1452Y822D02*
X1458Y822D01*
X1465Y822D02*
X1473Y822D01*
X1502Y822D02*
X1534Y822D01*
X2358Y822D02*
X2361Y822D01*
X0Y821D02*
X3Y821D01*
X783Y821D02*
X789Y821D01*
X823Y821D02*
X829Y821D01*
X1452Y821D02*
X1458Y821D01*
X1466Y821D02*
X1473Y821D01*
X1502Y821D02*
X1532Y821D01*
X2358Y821D02*
X2361Y821D01*
X0Y820D02*
X3Y820D01*
X783Y820D02*
X789Y820D01*
X823Y820D02*
X829Y820D01*
X1452Y820D02*
X1458Y820D01*
X1467Y820D02*
X1474Y820D01*
X1502Y820D02*
X1531Y820D01*
X2358Y820D02*
X2361Y820D01*
X0Y819D02*
X3Y819D01*
X783Y819D02*
X789Y819D01*
X823Y819D02*
X829Y819D01*
X1452Y819D02*
X1458Y819D01*
X1467Y819D02*
X1474Y819D01*
X1502Y819D02*
X1508Y819D01*
X2358Y819D02*
X2361Y819D01*
X0Y818D02*
X3Y818D01*
X783Y818D02*
X789Y818D01*
X823Y818D02*
X829Y818D01*
X1452Y818D02*
X1458Y818D01*
X1468Y818D02*
X1475Y818D01*
X1502Y818D02*
X1508Y818D01*
X2358Y818D02*
X2361Y818D01*
X0Y817D02*
X3Y817D01*
X783Y817D02*
X789Y817D01*
X823Y817D02*
X829Y817D01*
X1452Y817D02*
X1458Y817D01*
X1468Y817D02*
X1475Y817D01*
X1502Y817D02*
X1508Y817D01*
X2358Y817D02*
X2361Y817D01*
X0Y816D02*
X3Y816D01*
X783Y816D02*
X789Y816D01*
X823Y816D02*
X829Y816D01*
X1452Y816D02*
X1458Y816D01*
X1469Y816D02*
X1476Y816D01*
X1502Y816D02*
X1508Y816D01*
X2358Y816D02*
X2361Y816D01*
X0Y815D02*
X3Y815D01*
X783Y815D02*
X789Y815D01*
X823Y815D02*
X829Y815D01*
X1452Y815D02*
X1458Y815D01*
X1469Y815D02*
X1477Y815D01*
X1502Y815D02*
X1508Y815D01*
X2358Y815D02*
X2361Y815D01*
X0Y814D02*
X3Y814D01*
X783Y814D02*
X789Y814D01*
X823Y814D02*
X829Y814D01*
X1452Y814D02*
X1458Y814D01*
X1470Y814D02*
X1477Y814D01*
X1502Y814D02*
X1508Y814D01*
X2358Y814D02*
X2361Y814D01*
X0Y813D02*
X3Y813D01*
X783Y813D02*
X789Y813D01*
X823Y813D02*
X829Y813D01*
X1452Y813D02*
X1458Y813D01*
X1471Y813D02*
X1478Y813D01*
X1502Y813D02*
X1508Y813D01*
X2358Y813D02*
X2361Y813D01*
X0Y812D02*
X3Y812D01*
X783Y812D02*
X789Y812D01*
X823Y812D02*
X829Y812D01*
X1452Y812D02*
X1458Y812D01*
X1471Y812D02*
X1478Y812D01*
X1502Y812D02*
X1508Y812D01*
X2358Y812D02*
X2361Y812D01*
X0Y811D02*
X3Y811D01*
X765Y811D02*
X766Y811D01*
X783Y811D02*
X789Y811D01*
X823Y811D02*
X829Y811D01*
X839Y811D02*
X841Y811D01*
X1452Y811D02*
X1458Y811D01*
X1472Y811D02*
X1479Y811D01*
X1502Y811D02*
X1508Y811D01*
X2358Y811D02*
X2361Y811D01*
X0Y810D02*
X3Y810D01*
X764Y810D02*
X768Y810D01*
X783Y810D02*
X789Y810D01*
X823Y810D02*
X829Y810D01*
X838Y810D02*
X842Y810D01*
X1452Y810D02*
X1458Y810D01*
X1472Y810D02*
X1480Y810D01*
X1502Y810D02*
X1508Y810D01*
X2358Y810D02*
X2361Y810D01*
X0Y809D02*
X3Y809D01*
X763Y809D02*
X768Y809D01*
X783Y809D02*
X789Y809D01*
X823Y809D02*
X829Y809D01*
X837Y809D02*
X843Y809D01*
X1452Y809D02*
X1458Y809D01*
X1473Y809D02*
X1480Y809D01*
X1502Y809D02*
X1508Y809D01*
X2358Y809D02*
X2361Y809D01*
X0Y808D02*
X3Y808D01*
X763Y808D02*
X769Y808D01*
X783Y808D02*
X789Y808D01*
X823Y808D02*
X829Y808D01*
X837Y808D02*
X843Y808D01*
X1452Y808D02*
X1458Y808D01*
X1474Y808D02*
X1481Y808D01*
X1502Y808D02*
X1508Y808D01*
X2358Y808D02*
X2361Y808D01*
X0Y807D02*
X3Y807D01*
X763Y807D02*
X769Y807D01*
X783Y807D02*
X789Y807D01*
X823Y807D02*
X829Y807D01*
X837Y807D02*
X843Y807D01*
X1452Y807D02*
X1458Y807D01*
X1474Y807D02*
X1481Y807D01*
X1502Y807D02*
X1508Y807D01*
X2358Y807D02*
X2361Y807D01*
X0Y806D02*
X3Y806D01*
X763Y806D02*
X769Y806D01*
X783Y806D02*
X789Y806D01*
X823Y806D02*
X829Y806D01*
X837Y806D02*
X843Y806D01*
X1452Y806D02*
X1458Y806D01*
X1475Y806D02*
X1482Y806D01*
X1502Y806D02*
X1508Y806D01*
X2358Y806D02*
X2361Y806D01*
X0Y805D02*
X3Y805D01*
X763Y805D02*
X769Y805D01*
X783Y805D02*
X789Y805D01*
X823Y805D02*
X829Y805D01*
X837Y805D02*
X843Y805D01*
X1452Y805D02*
X1458Y805D01*
X1475Y805D02*
X1482Y805D01*
X1502Y805D02*
X1508Y805D01*
X2358Y805D02*
X2361Y805D01*
X0Y804D02*
X3Y804D01*
X763Y804D02*
X769Y804D01*
X783Y804D02*
X789Y804D01*
X823Y804D02*
X829Y804D01*
X837Y804D02*
X843Y804D01*
X1452Y804D02*
X1458Y804D01*
X1476Y804D02*
X1483Y804D01*
X1502Y804D02*
X1508Y804D01*
X2358Y804D02*
X2361Y804D01*
X0Y803D02*
X3Y803D01*
X763Y803D02*
X769Y803D01*
X783Y803D02*
X789Y803D01*
X823Y803D02*
X829Y803D01*
X837Y803D02*
X843Y803D01*
X1452Y803D02*
X1458Y803D01*
X1476Y803D02*
X1484Y803D01*
X1502Y803D02*
X1532Y803D01*
X2358Y803D02*
X2361Y803D01*
X0Y802D02*
X3Y802D01*
X763Y802D02*
X769Y802D01*
X783Y802D02*
X789Y802D01*
X823Y802D02*
X829Y802D01*
X837Y802D02*
X843Y802D01*
X1452Y802D02*
X1458Y802D01*
X1477Y802D02*
X1484Y802D01*
X1502Y802D02*
X1534Y802D01*
X2358Y802D02*
X2361Y802D01*
X0Y801D02*
X3Y801D01*
X763Y801D02*
X769Y801D01*
X783Y801D02*
X789Y801D01*
X823Y801D02*
X829Y801D01*
X837Y801D02*
X843Y801D01*
X1452Y801D02*
X1458Y801D01*
X1478Y801D02*
X1485Y801D01*
X1502Y801D02*
X1535Y801D01*
X2358Y801D02*
X2361Y801D01*
X0Y800D02*
X3Y800D01*
X763Y800D02*
X769Y800D01*
X783Y800D02*
X789Y800D01*
X823Y800D02*
X829Y800D01*
X837Y800D02*
X843Y800D01*
X1452Y800D02*
X1458Y800D01*
X1478Y800D02*
X1485Y800D01*
X1502Y800D02*
X1535Y800D01*
X2358Y800D02*
X2361Y800D01*
X0Y799D02*
X3Y799D01*
X763Y799D02*
X769Y799D01*
X783Y799D02*
X789Y799D01*
X823Y799D02*
X829Y799D01*
X837Y799D02*
X843Y799D01*
X1452Y799D02*
X1457Y799D01*
X1479Y799D02*
X1485Y799D01*
X1502Y799D02*
X1535Y799D01*
X2358Y799D02*
X2361Y799D01*
X0Y798D02*
X3Y798D01*
X763Y798D02*
X769Y798D01*
X783Y798D02*
X789Y798D01*
X823Y798D02*
X829Y798D01*
X837Y798D02*
X843Y798D01*
X1452Y798D02*
X1457Y798D01*
X1479Y798D02*
X1485Y798D01*
X1502Y798D02*
X1535Y798D01*
X2358Y798D02*
X2361Y798D01*
X0Y797D02*
X3Y797D01*
X763Y797D02*
X769Y797D01*
X783Y797D02*
X789Y797D01*
X823Y797D02*
X829Y797D01*
X837Y797D02*
X843Y797D01*
X1453Y797D02*
X1456Y797D01*
X1480Y797D02*
X1484Y797D01*
X1502Y797D02*
X1534Y797D01*
X2358Y797D02*
X2361Y797D01*
X0Y796D02*
X3Y796D01*
X763Y796D02*
X769Y796D01*
X783Y796D02*
X789Y796D01*
X823Y796D02*
X829Y796D01*
X837Y796D02*
X843Y796D01*
X1502Y796D02*
X1531Y796D01*
X2358Y796D02*
X2361Y796D01*
X0Y795D02*
X3Y795D01*
X763Y795D02*
X769Y795D01*
X783Y795D02*
X789Y795D01*
X823Y795D02*
X829Y795D01*
X837Y795D02*
X843Y795D01*
X2358Y795D02*
X2361Y795D01*
X0Y794D02*
X3Y794D01*
X763Y794D02*
X771Y794D01*
X781Y794D02*
X789Y794D01*
X823Y794D02*
X829Y794D01*
X837Y794D02*
X843Y794D01*
X2358Y794D02*
X2361Y794D01*
X0Y793D02*
X3Y793D01*
X763Y793D02*
X789Y793D01*
X811Y793D02*
X843Y793D01*
X2358Y793D02*
X2361Y793D01*
X0Y792D02*
X3Y792D01*
X764Y792D02*
X788Y792D01*
X810Y792D02*
X843Y792D01*
X2358Y792D02*
X2361Y792D01*
X0Y791D02*
X3Y791D01*
X765Y791D02*
X787Y791D01*
X810Y791D02*
X843Y791D01*
X2358Y791D02*
X2361Y791D01*
X0Y790D02*
X3Y790D01*
X765Y790D02*
X787Y790D01*
X810Y790D02*
X843Y790D01*
X2358Y790D02*
X2361Y790D01*
X0Y789D02*
X3Y789D01*
X767Y789D02*
X785Y789D01*
X810Y789D02*
X843Y789D01*
X2358Y789D02*
X2361Y789D01*
X0Y788D02*
X3Y788D01*
X768Y788D02*
X784Y788D01*
X810Y788D02*
X842Y788D01*
X2358Y788D02*
X2361Y788D01*
X0Y787D02*
X3Y787D01*
X770Y787D02*
X782Y787D01*
X811Y787D02*
X841Y787D01*
X2358Y787D02*
X2361Y787D01*
X0Y786D02*
X3Y786D01*
X2358Y786D02*
X2361Y786D01*
X0Y785D02*
X3Y785D01*
X2358Y785D02*
X2361Y785D01*
X0Y784D02*
X3Y784D01*
X2358Y784D02*
X2361Y784D01*
X0Y783D02*
X3Y783D01*
X2358Y783D02*
X2361Y783D01*
X0Y782D02*
X3Y782D01*
X2358Y782D02*
X2361Y782D01*
X0Y781D02*
X3Y781D01*
X2358Y781D02*
X2361Y781D01*
X0Y780D02*
X3Y780D01*
X2358Y780D02*
X2361Y780D01*
X0Y779D02*
X3Y779D01*
X2358Y779D02*
X2361Y779D01*
X0Y778D02*
X3Y778D01*
X2358Y778D02*
X2361Y778D01*
X0Y777D02*
X3Y777D01*
X2358Y777D02*
X2361Y777D01*
X0Y776D02*
X3Y776D01*
X2358Y776D02*
X2361Y776D01*
X0Y775D02*
X3Y775D01*
X2358Y775D02*
X2361Y775D01*
X0Y774D02*
X3Y774D01*
X2358Y774D02*
X2361Y774D01*
X0Y773D02*
X3Y773D01*
X2358Y773D02*
X2361Y773D01*
X0Y772D02*
X3Y772D01*
X2358Y772D02*
X2361Y772D01*
X0Y771D02*
X3Y771D01*
X2358Y771D02*
X2361Y771D01*
X0Y770D02*
X3Y770D01*
X2358Y770D02*
X2361Y770D01*
X0Y769D02*
X3Y769D01*
X2358Y769D02*
X2361Y769D01*
X0Y768D02*
X3Y768D01*
X2358Y768D02*
X2361Y768D01*
X0Y767D02*
X3Y767D01*
X2358Y767D02*
X2361Y767D01*
X0Y766D02*
X3Y766D01*
X2358Y766D02*
X2361Y766D01*
X0Y765D02*
X3Y765D01*
X2358Y765D02*
X2361Y765D01*
X0Y764D02*
X3Y764D01*
X2358Y764D02*
X2361Y764D01*
X0Y763D02*
X3Y763D01*
X2358Y763D02*
X2361Y763D01*
X0Y762D02*
X3Y762D01*
X2358Y762D02*
X2361Y762D01*
X0Y761D02*
X3Y761D01*
X2358Y761D02*
X2361Y761D01*
X0Y760D02*
X3Y760D01*
X2358Y760D02*
X2361Y760D01*
X0Y759D02*
X3Y759D01*
X2358Y759D02*
X2361Y759D01*
X0Y758D02*
X3Y758D01*
X2358Y758D02*
X2361Y758D01*
X0Y757D02*
X3Y757D01*
X2358Y757D02*
X2361Y757D01*
X0Y756D02*
X3Y756D01*
X2358Y756D02*
X2361Y756D01*
X0Y755D02*
X3Y755D01*
X2358Y755D02*
X2361Y755D01*
X0Y754D02*
X3Y754D01*
X2358Y754D02*
X2361Y754D01*
X0Y753D02*
X3Y753D01*
X2358Y753D02*
X2361Y753D01*
X0Y752D02*
X3Y752D01*
X2358Y752D02*
X2361Y752D01*
X0Y751D02*
X3Y751D01*
X2358Y751D02*
X2361Y751D01*
X0Y750D02*
X3Y750D01*
X2358Y750D02*
X2361Y750D01*
X0Y749D02*
X3Y749D01*
X2358Y749D02*
X2361Y749D01*
X0Y748D02*
X3Y748D01*
X2358Y748D02*
X2361Y748D01*
X0Y747D02*
X3Y747D01*
X2358Y747D02*
X2361Y747D01*
X0Y746D02*
X3Y746D01*
X2358Y746D02*
X2361Y746D01*
X0Y745D02*
X3Y745D01*
X2358Y745D02*
X2361Y745D01*
X0Y744D02*
X3Y744D01*
X2358Y744D02*
X2361Y744D01*
X0Y743D02*
X3Y743D01*
X2358Y743D02*
X2361Y743D01*
X0Y742D02*
X3Y742D01*
X2358Y742D02*
X2361Y742D01*
X0Y741D02*
X3Y741D01*
X2358Y741D02*
X2361Y741D01*
X0Y740D02*
X3Y740D01*
X2358Y740D02*
X2361Y740D01*
X0Y739D02*
X3Y739D01*
X2358Y739D02*
X2361Y739D01*
X0Y738D02*
X3Y738D01*
X2358Y738D02*
X2361Y738D01*
X0Y737D02*
X3Y737D01*
X2358Y737D02*
X2361Y737D01*
X0Y736D02*
X3Y736D01*
X2358Y736D02*
X2361Y736D01*
X0Y735D02*
X3Y735D01*
X2358Y735D02*
X2361Y735D01*
X0Y734D02*
X3Y734D01*
X2358Y734D02*
X2361Y734D01*
X0Y733D02*
X3Y733D01*
X2358Y733D02*
X2361Y733D01*
X0Y732D02*
X3Y732D01*
X2358Y732D02*
X2361Y732D01*
X0Y731D02*
X3Y731D01*
X2358Y731D02*
X2361Y731D01*
X0Y730D02*
X3Y730D01*
X2358Y730D02*
X2361Y730D01*
X0Y729D02*
X3Y729D01*
X2358Y729D02*
X2361Y729D01*
X0Y728D02*
X3Y728D01*
X2358Y728D02*
X2361Y728D01*
X0Y727D02*
X3Y727D01*
X2358Y727D02*
X2361Y727D01*
X0Y726D02*
X3Y726D01*
X2358Y726D02*
X2361Y726D01*
X0Y725D02*
X3Y725D01*
X2358Y725D02*
X2361Y725D01*
X0Y724D02*
X3Y724D01*
X2358Y724D02*
X2361Y724D01*
X0Y723D02*
X3Y723D01*
X2358Y723D02*
X2361Y723D01*
X0Y722D02*
X3Y722D01*
X2358Y722D02*
X2361Y722D01*
X0Y721D02*
X3Y721D01*
X1091Y721D02*
X1091Y721D01*
X2091Y721D02*
X2091Y721D01*
X2358Y721D02*
X2361Y721D01*
X0Y720D02*
X3Y720D01*
X1090Y720D02*
X1092Y720D01*
X2090Y720D02*
X2092Y720D01*
X2358Y720D02*
X2361Y720D01*
X0Y719D02*
X3Y719D01*
X1089Y719D02*
X1093Y719D01*
X2089Y719D02*
X2093Y719D01*
X2358Y719D02*
X2361Y719D01*
X0Y718D02*
X3Y718D01*
X1089Y718D02*
X1094Y718D01*
X2088Y718D02*
X2094Y718D01*
X2358Y718D02*
X2361Y718D01*
X0Y717D02*
X3Y717D01*
X1089Y717D02*
X1095Y717D01*
X2089Y717D02*
X2095Y717D01*
X2358Y717D02*
X2361Y717D01*
X0Y716D02*
X3Y716D01*
X1090Y716D02*
X1096Y716D01*
X2090Y716D02*
X2096Y716D01*
X2358Y716D02*
X2361Y716D01*
X0Y715D02*
X3Y715D01*
X1091Y715D02*
X1097Y715D01*
X2091Y715D02*
X2097Y715D01*
X2358Y715D02*
X2361Y715D01*
X0Y714D02*
X3Y714D01*
X1092Y714D02*
X1098Y714D01*
X2092Y714D02*
X2098Y714D01*
X2358Y714D02*
X2361Y714D01*
X0Y713D02*
X3Y713D01*
X1093Y713D02*
X1099Y713D01*
X2093Y713D02*
X2099Y713D01*
X2358Y713D02*
X2361Y713D01*
X0Y712D02*
X3Y712D01*
X1094Y712D02*
X1100Y712D01*
X2094Y712D02*
X2100Y712D01*
X2358Y712D02*
X2361Y712D01*
X0Y711D02*
X3Y711D01*
X1095Y711D02*
X1101Y711D01*
X2095Y711D02*
X2101Y711D01*
X2358Y711D02*
X2361Y711D01*
X0Y710D02*
X3Y710D01*
X1096Y710D02*
X1102Y710D01*
X2096Y710D02*
X2102Y710D01*
X2358Y710D02*
X2361Y710D01*
X0Y709D02*
X3Y709D01*
X1097Y709D02*
X1103Y709D01*
X2097Y709D02*
X2103Y709D01*
X2358Y709D02*
X2361Y709D01*
X0Y708D02*
X3Y708D01*
X1098Y708D02*
X1104Y708D01*
X2098Y708D02*
X2104Y708D01*
X2358Y708D02*
X2361Y708D01*
X0Y707D02*
X3Y707D01*
X1099Y707D02*
X1105Y707D01*
X2099Y707D02*
X2105Y707D01*
X2358Y707D02*
X2361Y707D01*
X0Y706D02*
X3Y706D01*
X1100Y706D02*
X1106Y706D01*
X2100Y706D02*
X2106Y706D01*
X2358Y706D02*
X2361Y706D01*
X0Y705D02*
X3Y705D01*
X1101Y705D02*
X1107Y705D01*
X2101Y705D02*
X2107Y705D01*
X2358Y705D02*
X2361Y705D01*
X0Y704D02*
X3Y704D01*
X1102Y704D02*
X1108Y704D01*
X2102Y704D02*
X2108Y704D01*
X2358Y704D02*
X2361Y704D01*
X0Y703D02*
X3Y703D01*
X1104Y703D02*
X1109Y703D01*
X2104Y703D02*
X2109Y703D01*
X2358Y703D02*
X2361Y703D01*
X0Y702D02*
X3Y702D01*
X1105Y702D02*
X1110Y702D01*
X2105Y702D02*
X2110Y702D01*
X2358Y702D02*
X2361Y702D01*
X0Y701D02*
X3Y701D01*
X1106Y701D02*
X1111Y701D01*
X2106Y701D02*
X2111Y701D01*
X2358Y701D02*
X2361Y701D01*
X0Y700D02*
X3Y700D01*
X1107Y700D02*
X1112Y700D01*
X2107Y700D02*
X2112Y700D01*
X2358Y700D02*
X2361Y700D01*
X0Y699D02*
X3Y699D01*
X1108Y699D02*
X1113Y699D01*
X2108Y699D02*
X2113Y699D01*
X2358Y699D02*
X2361Y699D01*
X0Y698D02*
X3Y698D01*
X1109Y698D02*
X1114Y698D01*
X2109Y698D02*
X2114Y698D01*
X2358Y698D02*
X2361Y698D01*
X0Y697D02*
X3Y697D01*
X1109Y697D02*
X1115Y697D01*
X2109Y697D02*
X2115Y697D01*
X2358Y697D02*
X2361Y697D01*
X0Y696D02*
X3Y696D01*
X1110Y696D02*
X1116Y696D01*
X2110Y696D02*
X2116Y696D01*
X2358Y696D02*
X2361Y696D01*
X0Y695D02*
X3Y695D01*
X1111Y695D02*
X1117Y695D01*
X2111Y695D02*
X2117Y695D01*
X2358Y695D02*
X2361Y695D01*
X0Y694D02*
X3Y694D01*
X1112Y694D02*
X1118Y694D01*
X2112Y694D02*
X2118Y694D01*
X2358Y694D02*
X2361Y694D01*
X0Y693D02*
X3Y693D01*
X1113Y693D02*
X1119Y693D01*
X2113Y693D02*
X2119Y693D01*
X2358Y693D02*
X2361Y693D01*
X0Y692D02*
X3Y692D01*
X1114Y692D02*
X1120Y692D01*
X2114Y692D02*
X2120Y692D01*
X2358Y692D02*
X2361Y692D01*
X0Y691D02*
X3Y691D01*
X1115Y691D02*
X1121Y691D01*
X2115Y691D02*
X2121Y691D01*
X2358Y691D02*
X2361Y691D01*
X0Y690D02*
X3Y690D01*
X1116Y690D02*
X1122Y690D01*
X2116Y690D02*
X2122Y690D01*
X2358Y690D02*
X2361Y690D01*
X0Y689D02*
X3Y689D01*
X1117Y689D02*
X1123Y689D01*
X2117Y689D02*
X2123Y689D01*
X2358Y689D02*
X2361Y689D01*
X0Y688D02*
X3Y688D01*
X1118Y688D02*
X1124Y688D01*
X2118Y688D02*
X2124Y688D01*
X2358Y688D02*
X2361Y688D01*
X0Y687D02*
X3Y687D01*
X1119Y687D02*
X1125Y687D01*
X2119Y687D02*
X2125Y687D01*
X2358Y687D02*
X2361Y687D01*
X0Y686D02*
X3Y686D01*
X1120Y686D02*
X1125Y686D01*
X2120Y686D02*
X2125Y686D01*
X2358Y686D02*
X2361Y686D01*
X0Y685D02*
X3Y685D01*
X1121Y685D02*
X1124Y685D01*
X2121Y685D02*
X2124Y685D01*
X2358Y685D02*
X2361Y685D01*
X0Y684D02*
X3Y684D01*
X1122Y684D02*
X1123Y684D01*
X2122Y684D02*
X2123Y684D01*
X2358Y684D02*
X2361Y684D01*
X0Y683D02*
X3Y683D01*
X2358Y683D02*
X2361Y683D01*
X0Y682D02*
X3Y682D01*
X2358Y682D02*
X2361Y682D01*
X0Y681D02*
X3Y681D01*
X2358Y681D02*
X2361Y681D01*
X0Y680D02*
X3Y680D01*
X2358Y680D02*
X2361Y680D01*
X0Y679D02*
X3Y679D01*
X2358Y679D02*
X2361Y679D01*
X0Y678D02*
X3Y678D01*
X2358Y678D02*
X2361Y678D01*
X0Y677D02*
X3Y677D01*
X2358Y677D02*
X2361Y677D01*
X0Y676D02*
X3Y676D01*
X2358Y676D02*
X2361Y676D01*
X0Y675D02*
X3Y675D01*
X2358Y675D02*
X2361Y675D01*
X0Y674D02*
X3Y674D01*
X1317Y674D02*
X1384Y674D01*
X1584Y674D02*
X1632Y674D01*
X2358Y674D02*
X2361Y674D01*
X0Y673D02*
X3Y673D01*
X1317Y673D02*
X1384Y673D01*
X1584Y673D02*
X1632Y673D01*
X2358Y673D02*
X2361Y673D01*
X0Y672D02*
X3Y672D01*
X1317Y672D02*
X1384Y672D01*
X1584Y672D02*
X1632Y672D01*
X2358Y672D02*
X2361Y672D01*
X0Y671D02*
X3Y671D01*
X1317Y671D02*
X1384Y671D01*
X1584Y671D02*
X1632Y671D01*
X2358Y671D02*
X2361Y671D01*
X0Y670D02*
X3Y670D01*
X1317Y670D02*
X1384Y670D01*
X1584Y670D02*
X1631Y670D01*
X2358Y670D02*
X2361Y670D01*
X0Y669D02*
X3Y669D01*
X1317Y669D02*
X1384Y669D01*
X1584Y669D02*
X1632Y669D01*
X2358Y669D02*
X2361Y669D01*
X0Y668D02*
X3Y668D01*
X1317Y668D02*
X1384Y668D01*
X1584Y668D02*
X1632Y668D01*
X2358Y668D02*
X2361Y668D01*
X0Y667D02*
X3Y667D01*
X1317Y667D02*
X1384Y667D01*
X1584Y667D02*
X1632Y667D01*
X2358Y667D02*
X2361Y667D01*
X0Y666D02*
X3Y666D01*
X1317Y666D02*
X1384Y666D01*
X1584Y666D02*
X1632Y666D01*
X2358Y666D02*
X2361Y666D01*
X0Y665D02*
X3Y665D01*
X1317Y665D02*
X1383Y665D01*
X1585Y665D02*
X1632Y665D01*
X2358Y665D02*
X2361Y665D01*
X0Y664D02*
X3Y664D01*
X2358Y664D02*
X2361Y664D01*
X0Y663D02*
X3Y663D01*
X2358Y663D02*
X2361Y663D01*
X0Y662D02*
X3Y662D01*
X2358Y662D02*
X2361Y662D01*
X0Y661D02*
X3Y661D01*
X2358Y661D02*
X2361Y661D01*
X0Y660D02*
X3Y660D01*
X2358Y660D02*
X2361Y660D01*
X0Y659D02*
X3Y659D01*
X2358Y659D02*
X2361Y659D01*
X0Y658D02*
X3Y658D01*
X2358Y658D02*
X2361Y658D01*
X0Y657D02*
X3Y657D01*
X2358Y657D02*
X2361Y657D01*
X0Y656D02*
X3Y656D01*
X2358Y656D02*
X2361Y656D01*
X0Y655D02*
X3Y655D01*
X2358Y655D02*
X2361Y655D01*
X0Y654D02*
X3Y654D01*
X2358Y654D02*
X2361Y654D01*
X0Y653D02*
X3Y653D01*
X2358Y653D02*
X2361Y653D01*
X0Y652D02*
X3Y652D01*
X2358Y652D02*
X2361Y652D01*
X0Y651D02*
X3Y651D01*
X2358Y651D02*
X2361Y651D01*
X0Y650D02*
X3Y650D01*
X2358Y650D02*
X2361Y650D01*
X0Y649D02*
X3Y649D01*
X2358Y649D02*
X2361Y649D01*
X0Y648D02*
X3Y648D01*
X2358Y648D02*
X2361Y648D01*
X0Y647D02*
X3Y647D01*
X2358Y647D02*
X2361Y647D01*
X0Y646D02*
X3Y646D01*
X2358Y646D02*
X2361Y646D01*
X0Y645D02*
X3Y645D01*
X2358Y645D02*
X2361Y645D01*
X0Y644D02*
X3Y644D01*
X2358Y644D02*
X2361Y644D01*
X0Y643D02*
X3Y643D01*
X2358Y643D02*
X2361Y643D01*
X0Y642D02*
X3Y642D01*
X2358Y642D02*
X2361Y642D01*
X0Y641D02*
X3Y641D01*
X2358Y641D02*
X2361Y641D01*
X0Y640D02*
X3Y640D01*
X2358Y640D02*
X2361Y640D01*
X0Y639D02*
X3Y639D01*
X2358Y639D02*
X2361Y639D01*
X0Y638D02*
X3Y638D01*
X2358Y638D02*
X2361Y638D01*
X0Y637D02*
X3Y637D01*
X2358Y637D02*
X2361Y637D01*
X0Y636D02*
X3Y636D01*
X2358Y636D02*
X2361Y636D01*
X0Y635D02*
X3Y635D01*
X2358Y635D02*
X2361Y635D01*
X0Y634D02*
X3Y634D01*
X2358Y634D02*
X2361Y634D01*
X0Y633D02*
X3Y633D01*
X2358Y633D02*
X2361Y633D01*
X0Y632D02*
X3Y632D01*
X2358Y632D02*
X2361Y632D01*
X0Y631D02*
X3Y631D01*
X2358Y631D02*
X2361Y631D01*
X0Y630D02*
X3Y630D01*
X2358Y630D02*
X2361Y630D01*
X0Y629D02*
X3Y629D01*
X2358Y629D02*
X2361Y629D01*
X0Y628D02*
X3Y628D01*
X2358Y628D02*
X2361Y628D01*
X0Y627D02*
X3Y627D01*
X2358Y627D02*
X2361Y627D01*
X0Y626D02*
X3Y626D01*
X2358Y626D02*
X2361Y626D01*
X0Y625D02*
X3Y625D01*
X2358Y625D02*
X2361Y625D01*
X0Y624D02*
X3Y624D01*
X2358Y624D02*
X2361Y624D01*
X0Y623D02*
X3Y623D01*
X2358Y623D02*
X2361Y623D01*
X0Y622D02*
X3Y622D01*
X2358Y622D02*
X2361Y622D01*
X0Y621D02*
X3Y621D01*
X2358Y621D02*
X2361Y621D01*
X0Y620D02*
X3Y620D01*
X2358Y620D02*
X2361Y620D01*
X0Y619D02*
X3Y619D01*
X2358Y619D02*
X2361Y619D01*
X0Y618D02*
X3Y618D01*
X2358Y618D02*
X2361Y618D01*
X0Y617D02*
X3Y617D01*
X2358Y617D02*
X2361Y617D01*
X0Y616D02*
X3Y616D01*
X2358Y616D02*
X2361Y616D01*
X0Y615D02*
X3Y615D01*
X2358Y615D02*
X2361Y615D01*
X0Y614D02*
X3Y614D01*
X2358Y614D02*
X2361Y614D01*
X0Y613D02*
X3Y613D01*
X2358Y613D02*
X2361Y613D01*
X0Y612D02*
X3Y612D01*
X2358Y612D02*
X2361Y612D01*
X0Y611D02*
X3Y611D01*
X2358Y611D02*
X2361Y611D01*
X0Y610D02*
X3Y610D01*
X2358Y610D02*
X2361Y610D01*
X0Y609D02*
X3Y609D01*
X2358Y609D02*
X2361Y609D01*
X0Y608D02*
X3Y608D01*
X2358Y608D02*
X2361Y608D01*
X0Y607D02*
X3Y607D01*
X2358Y607D02*
X2361Y607D01*
X0Y606D02*
X3Y606D01*
X2358Y606D02*
X2361Y606D01*
X0Y605D02*
X3Y605D01*
X2358Y605D02*
X2361Y605D01*
X0Y604D02*
X3Y604D01*
X2358Y604D02*
X2361Y604D01*
X0Y603D02*
X3Y603D01*
X2358Y603D02*
X2361Y603D01*
X0Y602D02*
X3Y602D01*
X2358Y602D02*
X2361Y602D01*
X0Y601D02*
X3Y601D01*
X2358Y601D02*
X2361Y601D01*
X0Y600D02*
X3Y600D01*
X2358Y600D02*
X2361Y600D01*
X0Y599D02*
X3Y599D01*
X2358Y599D02*
X2361Y599D01*
X0Y598D02*
X3Y598D01*
X2358Y598D02*
X2361Y598D01*
X0Y597D02*
X3Y597D01*
X2358Y597D02*
X2361Y597D01*
X0Y596D02*
X3Y596D01*
X2358Y596D02*
X2361Y596D01*
X0Y595D02*
X3Y595D01*
X2358Y595D02*
X2361Y595D01*
X0Y594D02*
X3Y594D01*
X2358Y594D02*
X2361Y594D01*
X0Y593D02*
X3Y593D01*
X2358Y593D02*
X2361Y593D01*
X0Y592D02*
X3Y592D01*
X2358Y592D02*
X2361Y592D01*
X0Y591D02*
X3Y591D01*
X2358Y591D02*
X2361Y591D01*
X0Y590D02*
X3Y590D01*
X2358Y590D02*
X2361Y590D01*
X0Y589D02*
X3Y589D01*
X2358Y589D02*
X2361Y589D01*
X0Y588D02*
X3Y588D01*
X2178Y588D02*
X2192Y588D01*
X2358Y588D02*
X2361Y588D01*
X0Y587D02*
X3Y587D01*
X2176Y587D02*
X2194Y587D01*
X2358Y587D02*
X2361Y587D01*
X0Y586D02*
X3Y586D01*
X2175Y586D02*
X2194Y586D01*
X2358Y586D02*
X2361Y586D01*
X0Y585D02*
X3Y585D01*
X2173Y585D02*
X2194Y585D01*
X2358Y585D02*
X2361Y585D01*
X0Y584D02*
X3Y584D01*
X2173Y584D02*
X2194Y584D01*
X2358Y584D02*
X2361Y584D01*
X0Y583D02*
X3Y583D01*
X2172Y583D02*
X2194Y583D01*
X2358Y583D02*
X2361Y583D01*
X0Y582D02*
X3Y582D01*
X2171Y582D02*
X2193Y582D01*
X2358Y582D02*
X2361Y582D01*
X0Y581D02*
X3Y581D01*
X2171Y581D02*
X2179Y581D01*
X2358Y581D02*
X2361Y581D01*
X0Y580D02*
X3Y580D01*
X2171Y580D02*
X2177Y580D01*
X2358Y580D02*
X2361Y580D01*
X0Y579D02*
X3Y579D01*
X2171Y579D02*
X2177Y579D01*
X2358Y579D02*
X2361Y579D01*
X0Y578D02*
X3Y578D01*
X2171Y578D02*
X2177Y578D01*
X2358Y578D02*
X2361Y578D01*
X0Y577D02*
X3Y577D01*
X2171Y577D02*
X2177Y577D01*
X2358Y577D02*
X2361Y577D01*
X0Y576D02*
X3Y576D01*
X2171Y576D02*
X2177Y576D01*
X2358Y576D02*
X2361Y576D01*
X0Y575D02*
X3Y575D01*
X2171Y575D02*
X2177Y575D01*
X2358Y575D02*
X2361Y575D01*
X0Y574D02*
X3Y574D01*
X2171Y574D02*
X2177Y574D01*
X2358Y574D02*
X2361Y574D01*
X0Y573D02*
X3Y573D01*
X2171Y573D02*
X2177Y573D01*
X2358Y573D02*
X2361Y573D01*
X0Y572D02*
X3Y572D01*
X2171Y572D02*
X2177Y572D01*
X2358Y572D02*
X2361Y572D01*
X0Y571D02*
X3Y571D01*
X2171Y571D02*
X2177Y571D01*
X2358Y571D02*
X2361Y571D01*
X0Y570D02*
X3Y570D01*
X2171Y570D02*
X2177Y570D01*
X2358Y570D02*
X2361Y570D01*
X0Y569D02*
X3Y569D01*
X2171Y569D02*
X2178Y569D01*
X2358Y569D02*
X2361Y569D01*
X0Y568D02*
X3Y568D01*
X2171Y568D02*
X2179Y568D01*
X2358Y568D02*
X2361Y568D01*
X0Y567D02*
X3Y567D01*
X2172Y567D02*
X2222Y567D01*
X2358Y567D02*
X2361Y567D01*
X0Y566D02*
X3Y566D01*
X2172Y566D02*
X2223Y566D01*
X2358Y566D02*
X2361Y566D01*
X0Y565D02*
X3Y565D01*
X2173Y565D02*
X2224Y565D01*
X2358Y565D02*
X2361Y565D01*
X0Y564D02*
X3Y564D01*
X2174Y564D02*
X2224Y564D01*
X2358Y564D02*
X2361Y564D01*
X0Y563D02*
X3Y563D01*
X2175Y563D02*
X2223Y563D01*
X2358Y563D02*
X2361Y563D01*
X0Y562D02*
X3Y562D01*
X2176Y562D02*
X2223Y562D01*
X2358Y562D02*
X2361Y562D01*
X0Y561D02*
X3Y561D01*
X2179Y561D02*
X2222Y561D01*
X2358Y561D02*
X2361Y561D01*
X0Y560D02*
X3Y560D01*
X2358Y560D02*
X2361Y560D01*
X0Y559D02*
X3Y559D01*
X2358Y559D02*
X2361Y559D01*
X0Y558D02*
X3Y558D01*
X2358Y558D02*
X2361Y558D01*
X0Y557D02*
X3Y557D01*
X2358Y557D02*
X2361Y557D01*
X0Y556D02*
X3Y556D01*
X2358Y556D02*
X2361Y556D01*
X0Y555D02*
X3Y555D01*
X2358Y555D02*
X2361Y555D01*
X0Y554D02*
X3Y554D01*
X2358Y554D02*
X2361Y554D01*
X0Y553D02*
X3Y553D01*
X2358Y553D02*
X2361Y553D01*
X0Y552D02*
X3Y552D01*
X2358Y552D02*
X2361Y552D01*
X0Y551D02*
X3Y551D01*
X2358Y551D02*
X2361Y551D01*
X0Y550D02*
X3Y550D01*
X2358Y550D02*
X2361Y550D01*
X0Y549D02*
X3Y549D01*
X2358Y549D02*
X2361Y549D01*
X0Y548D02*
X3Y548D01*
X2358Y548D02*
X2361Y548D01*
X0Y547D02*
X3Y547D01*
X2358Y547D02*
X2361Y547D01*
X0Y546D02*
X3Y546D01*
X2358Y546D02*
X2361Y546D01*
X0Y545D02*
X3Y545D01*
X2358Y545D02*
X2361Y545D01*
X0Y544D02*
X3Y544D01*
X2358Y544D02*
X2361Y544D01*
X0Y543D02*
X3Y543D01*
X2358Y543D02*
X2361Y543D01*
X0Y542D02*
X3Y542D01*
X2358Y542D02*
X2361Y542D01*
X0Y541D02*
X3Y541D01*
X2171Y541D02*
X2196Y541D01*
X2219Y541D02*
X2222Y541D01*
X2358Y541D02*
X2361Y541D01*
X0Y540D02*
X3Y540D01*
X2171Y540D02*
X2198Y540D01*
X2218Y540D02*
X2223Y540D01*
X2358Y540D02*
X2361Y540D01*
X0Y539D02*
X3Y539D01*
X2171Y539D02*
X2199Y539D01*
X2218Y539D02*
X2224Y539D01*
X2358Y539D02*
X2361Y539D01*
X0Y538D02*
X3Y538D01*
X2171Y538D02*
X2199Y538D01*
X2218Y538D02*
X2224Y538D01*
X2358Y538D02*
X2361Y538D01*
X0Y537D02*
X3Y537D01*
X2171Y537D02*
X2200Y537D01*
X2218Y537D02*
X2224Y537D01*
X2358Y537D02*
X2361Y537D01*
X0Y536D02*
X3Y536D01*
X2171Y536D02*
X2200Y536D01*
X2218Y536D02*
X2224Y536D01*
X2358Y536D02*
X2361Y536D01*
X0Y535D02*
X3Y535D01*
X2171Y535D02*
X2200Y535D01*
X2218Y535D02*
X2224Y535D01*
X2358Y535D02*
X2361Y535D01*
X0Y534D02*
X3Y534D01*
X2171Y534D02*
X2177Y534D01*
X2194Y534D02*
X2200Y534D01*
X2218Y534D02*
X2224Y534D01*
X2358Y534D02*
X2361Y534D01*
X0Y533D02*
X3Y533D01*
X2171Y533D02*
X2177Y533D01*
X2194Y533D02*
X2200Y533D01*
X2218Y533D02*
X2224Y533D01*
X2358Y533D02*
X2361Y533D01*
X0Y532D02*
X3Y532D01*
X2171Y532D02*
X2177Y532D01*
X2194Y532D02*
X2200Y532D01*
X2218Y532D02*
X2224Y532D01*
X2358Y532D02*
X2361Y532D01*
X0Y531D02*
X3Y531D01*
X2171Y531D02*
X2177Y531D01*
X2194Y531D02*
X2200Y531D01*
X2218Y531D02*
X2224Y531D01*
X2358Y531D02*
X2361Y531D01*
X0Y530D02*
X3Y530D01*
X2171Y530D02*
X2177Y530D01*
X2194Y530D02*
X2200Y530D01*
X2218Y530D02*
X2224Y530D01*
X2358Y530D02*
X2361Y530D01*
X0Y529D02*
X3Y529D01*
X2171Y529D02*
X2177Y529D01*
X2194Y529D02*
X2200Y529D01*
X2218Y529D02*
X2224Y529D01*
X2358Y529D02*
X2361Y529D01*
X0Y528D02*
X3Y528D01*
X2171Y528D02*
X2177Y528D01*
X2194Y528D02*
X2200Y528D01*
X2218Y528D02*
X2224Y528D01*
X2358Y528D02*
X2361Y528D01*
X0Y527D02*
X3Y527D01*
X2171Y527D02*
X2177Y527D01*
X2194Y527D02*
X2200Y527D01*
X2218Y527D02*
X2224Y527D01*
X2358Y527D02*
X2361Y527D01*
X0Y526D02*
X3Y526D01*
X2171Y526D02*
X2177Y526D01*
X2194Y526D02*
X2200Y526D01*
X2218Y526D02*
X2224Y526D01*
X2358Y526D02*
X2361Y526D01*
X0Y525D02*
X3Y525D01*
X2171Y525D02*
X2177Y525D01*
X2194Y525D02*
X2200Y525D01*
X2218Y525D02*
X2224Y525D01*
X2358Y525D02*
X2361Y525D01*
X0Y524D02*
X3Y524D01*
X2171Y524D02*
X2177Y524D01*
X2194Y524D02*
X2200Y524D01*
X2218Y524D02*
X2224Y524D01*
X2358Y524D02*
X2361Y524D01*
X0Y523D02*
X3Y523D01*
X2171Y523D02*
X2177Y523D01*
X2194Y523D02*
X2200Y523D01*
X2218Y523D02*
X2224Y523D01*
X2358Y523D02*
X2361Y523D01*
X0Y522D02*
X3Y522D01*
X2171Y522D02*
X2177Y522D01*
X2194Y522D02*
X2200Y522D01*
X2218Y522D02*
X2224Y522D01*
X2358Y522D02*
X2361Y522D01*
X0Y521D02*
X3Y521D01*
X2171Y521D02*
X2177Y521D01*
X2194Y521D02*
X2200Y521D01*
X2218Y521D02*
X2224Y521D01*
X2358Y521D02*
X2361Y521D01*
X0Y520D02*
X3Y520D01*
X2171Y520D02*
X2177Y520D01*
X2194Y520D02*
X2200Y520D01*
X2218Y520D02*
X2224Y520D01*
X2358Y520D02*
X2361Y520D01*
X0Y519D02*
X3Y519D01*
X2171Y519D02*
X2177Y519D01*
X2194Y519D02*
X2200Y519D01*
X2218Y519D02*
X2224Y519D01*
X2358Y519D02*
X2361Y519D01*
X0Y518D02*
X3Y518D01*
X2171Y518D02*
X2177Y518D01*
X2194Y518D02*
X2200Y518D01*
X2218Y518D02*
X2224Y518D01*
X2358Y518D02*
X2361Y518D01*
X0Y517D02*
X3Y517D01*
X2171Y517D02*
X2177Y517D01*
X2194Y517D02*
X2200Y517D01*
X2218Y517D02*
X2224Y517D01*
X2358Y517D02*
X2361Y517D01*
X0Y516D02*
X3Y516D01*
X2171Y516D02*
X2177Y516D01*
X2194Y516D02*
X2200Y516D01*
X2218Y516D02*
X2224Y516D01*
X2358Y516D02*
X2361Y516D01*
X0Y515D02*
X3Y515D01*
X2171Y515D02*
X2177Y515D01*
X2194Y515D02*
X2200Y515D01*
X2218Y515D02*
X2224Y515D01*
X2358Y515D02*
X2361Y515D01*
X0Y514D02*
X3Y514D01*
X2171Y514D02*
X2177Y514D01*
X2194Y514D02*
X2224Y514D01*
X2358Y514D02*
X2361Y514D01*
X0Y513D02*
X3Y513D01*
X2171Y513D02*
X2177Y513D01*
X2194Y513D02*
X2224Y513D01*
X2358Y513D02*
X2361Y513D01*
X0Y512D02*
X3Y512D01*
X2171Y512D02*
X2177Y512D01*
X2195Y512D02*
X2223Y512D01*
X2358Y512D02*
X2361Y512D01*
X0Y511D02*
X3Y511D01*
X2171Y511D02*
X2177Y511D01*
X2195Y511D02*
X2223Y511D01*
X2358Y511D02*
X2361Y511D01*
X0Y510D02*
X3Y510D01*
X2171Y510D02*
X2177Y510D01*
X2196Y510D02*
X2222Y510D01*
X2358Y510D02*
X2361Y510D01*
X0Y509D02*
X3Y509D01*
X2171Y509D02*
X2176Y509D01*
X2196Y509D02*
X2221Y509D01*
X2358Y509D02*
X2361Y509D01*
X0Y508D02*
X3Y508D01*
X2172Y508D02*
X2175Y508D01*
X2198Y508D02*
X2220Y508D01*
X2358Y508D02*
X2361Y508D01*
X0Y507D02*
X3Y507D01*
X2358Y507D02*
X2361Y507D01*
X0Y506D02*
X3Y506D01*
X2358Y506D02*
X2361Y506D01*
X0Y505D02*
X3Y505D01*
X2358Y505D02*
X2361Y505D01*
X0Y504D02*
X3Y504D01*
X2358Y504D02*
X2361Y504D01*
X0Y503D02*
X3Y503D01*
X2358Y503D02*
X2361Y503D01*
X0Y502D02*
X3Y502D01*
X2358Y502D02*
X2361Y502D01*
X0Y501D02*
X3Y501D01*
X2358Y501D02*
X2361Y501D01*
X0Y500D02*
X3Y500D01*
X2358Y500D02*
X2361Y500D01*
X0Y499D02*
X3Y499D01*
X2358Y499D02*
X2361Y499D01*
X0Y498D02*
X3Y498D01*
X2358Y498D02*
X2361Y498D01*
X0Y497D02*
X3Y497D01*
X2358Y497D02*
X2361Y497D01*
X0Y496D02*
X3Y496D01*
X2358Y496D02*
X2361Y496D01*
X0Y495D02*
X3Y495D01*
X2358Y495D02*
X2361Y495D01*
X0Y494D02*
X3Y494D01*
X2358Y494D02*
X2361Y494D01*
X0Y493D02*
X3Y493D01*
X2358Y493D02*
X2361Y493D01*
X0Y492D02*
X3Y492D01*
X1997Y492D02*
X2001Y492D01*
X2358Y492D02*
X2361Y492D01*
X0Y491D02*
X3Y491D01*
X1997Y491D02*
X2002Y491D01*
X2358Y491D02*
X2361Y491D01*
X0Y490D02*
X3Y490D01*
X1543Y490D02*
X1549Y490D01*
X1996Y490D02*
X2002Y490D01*
X2358Y490D02*
X2361Y490D01*
X0Y489D02*
X3Y489D01*
X1543Y489D02*
X1550Y489D01*
X1996Y489D02*
X2002Y489D01*
X2358Y489D02*
X2361Y489D01*
X0Y488D02*
X3Y488D01*
X1542Y488D02*
X1551Y488D01*
X1996Y488D02*
X2002Y488D01*
X2358Y488D02*
X2361Y488D01*
X0Y487D02*
X3Y487D01*
X1542Y487D02*
X1551Y487D01*
X1996Y487D02*
X2002Y487D01*
X2358Y487D02*
X2361Y487D01*
X0Y486D02*
X3Y486D01*
X1542Y486D02*
X1551Y486D01*
X1996Y486D02*
X2002Y486D01*
X2358Y486D02*
X2361Y486D01*
X0Y485D02*
X3Y485D01*
X1542Y485D02*
X1551Y485D01*
X1996Y485D02*
X2002Y485D01*
X2358Y485D02*
X2361Y485D01*
X0Y484D02*
X3Y484D01*
X1542Y484D02*
X1551Y484D01*
X1996Y484D02*
X2002Y484D01*
X2358Y484D02*
X2361Y484D01*
X0Y483D02*
X3Y483D01*
X1542Y483D02*
X1551Y483D01*
X1996Y483D02*
X2002Y483D01*
X2358Y483D02*
X2361Y483D01*
X0Y482D02*
X3Y482D01*
X1542Y482D02*
X1551Y482D01*
X1996Y482D02*
X2002Y482D01*
X2358Y482D02*
X2361Y482D01*
X0Y481D02*
X3Y481D01*
X1542Y481D02*
X1551Y481D01*
X1996Y481D02*
X2002Y481D01*
X2358Y481D02*
X2361Y481D01*
X0Y480D02*
X3Y480D01*
X1542Y480D02*
X1551Y480D01*
X1996Y480D02*
X2002Y480D01*
X2358Y480D02*
X2361Y480D01*
X0Y479D02*
X3Y479D01*
X1542Y479D02*
X1551Y479D01*
X1985Y479D02*
X2013Y479D01*
X2358Y479D02*
X2361Y479D01*
X0Y478D02*
X3Y478D01*
X1542Y478D02*
X1551Y478D01*
X1984Y478D02*
X2015Y478D01*
X2358Y478D02*
X2361Y478D01*
X0Y477D02*
X3Y477D01*
X1542Y477D02*
X1551Y477D01*
X1983Y477D02*
X2016Y477D01*
X2358Y477D02*
X2361Y477D01*
X0Y476D02*
X3Y476D01*
X1542Y476D02*
X1551Y476D01*
X1983Y476D02*
X2016Y476D01*
X2358Y476D02*
X2361Y476D01*
X0Y475D02*
X3Y475D01*
X1542Y475D02*
X1551Y475D01*
X1983Y475D02*
X2016Y475D01*
X2358Y475D02*
X2361Y475D01*
X0Y474D02*
X3Y474D01*
X1542Y474D02*
X1551Y474D01*
X1983Y474D02*
X2016Y474D01*
X2358Y474D02*
X2361Y474D01*
X0Y473D02*
X3Y473D01*
X1542Y473D02*
X1551Y473D01*
X1984Y473D02*
X2015Y473D01*
X2358Y473D02*
X2361Y473D01*
X0Y472D02*
X3Y472D01*
X1542Y472D02*
X1551Y472D01*
X1996Y472D02*
X2003Y472D01*
X2358Y472D02*
X2361Y472D01*
X0Y471D02*
X3Y471D01*
X1542Y471D02*
X1551Y471D01*
X1996Y471D02*
X2002Y471D01*
X2358Y471D02*
X2361Y471D01*
X0Y470D02*
X3Y470D01*
X1542Y470D02*
X1551Y470D01*
X1996Y470D02*
X2002Y470D01*
X2358Y470D02*
X2361Y470D01*
X0Y469D02*
X3Y469D01*
X1542Y469D02*
X1551Y469D01*
X1996Y469D02*
X2002Y469D01*
X2358Y469D02*
X2361Y469D01*
X0Y468D02*
X3Y468D01*
X1542Y468D02*
X1551Y468D01*
X1996Y468D02*
X2002Y468D01*
X2358Y468D02*
X2361Y468D01*
X0Y467D02*
X3Y467D01*
X1542Y467D02*
X1551Y467D01*
X1996Y467D02*
X2002Y467D01*
X2358Y467D02*
X2361Y467D01*
X0Y466D02*
X3Y466D01*
X1542Y466D02*
X1551Y466D01*
X1996Y466D02*
X2002Y466D01*
X2358Y466D02*
X2361Y466D01*
X0Y465D02*
X3Y465D01*
X1542Y465D02*
X1551Y465D01*
X1996Y465D02*
X2002Y465D01*
X2358Y465D02*
X2361Y465D01*
X0Y464D02*
X3Y464D01*
X1542Y464D02*
X1551Y464D01*
X1996Y464D02*
X2002Y464D01*
X2358Y464D02*
X2361Y464D01*
X0Y463D02*
X3Y463D01*
X1542Y463D02*
X1551Y463D01*
X1996Y463D02*
X2002Y463D01*
X2358Y463D02*
X2361Y463D01*
X0Y462D02*
X3Y462D01*
X1542Y462D02*
X1551Y462D01*
X1996Y462D02*
X2002Y462D01*
X2358Y462D02*
X2361Y462D01*
X0Y461D02*
X3Y461D01*
X1542Y461D02*
X1551Y461D01*
X1996Y461D02*
X2002Y461D01*
X2358Y461D02*
X2361Y461D01*
X0Y460D02*
X3Y460D01*
X1542Y460D02*
X1551Y460D01*
X1997Y460D02*
X2002Y460D01*
X2358Y460D02*
X2361Y460D01*
X0Y459D02*
X3Y459D01*
X1542Y459D02*
X1551Y459D01*
X1998Y459D02*
X2001Y459D01*
X2358Y459D02*
X2361Y459D01*
X0Y458D02*
X3Y458D01*
X1542Y458D02*
X1551Y458D01*
X2358Y458D02*
X2361Y458D01*
X0Y457D02*
X3Y457D01*
X1543Y457D02*
X1550Y457D01*
X2358Y457D02*
X2361Y457D01*
X0Y456D02*
X3Y456D01*
X2358Y456D02*
X2361Y456D01*
X0Y455D02*
X3Y455D01*
X2358Y455D02*
X2361Y455D01*
X0Y454D02*
X3Y454D01*
X2358Y454D02*
X2361Y454D01*
X0Y453D02*
X3Y453D01*
X2358Y453D02*
X2361Y453D01*
X0Y452D02*
X3Y452D01*
X2358Y452D02*
X2361Y452D01*
X0Y451D02*
X3Y451D01*
X2358Y451D02*
X2361Y451D01*
X0Y450D02*
X3Y450D01*
X2358Y450D02*
X2361Y450D01*
X0Y449D02*
X3Y449D01*
X2358Y449D02*
X2361Y449D01*
X0Y448D02*
X3Y448D01*
X2358Y448D02*
X2361Y448D01*
X0Y447D02*
X3Y447D01*
X2358Y447D02*
X2361Y447D01*
X0Y446D02*
X3Y446D01*
X2358Y446D02*
X2361Y446D01*
X0Y445D02*
X3Y445D01*
X2358Y445D02*
X2361Y445D01*
X0Y444D02*
X3Y444D01*
X2358Y444D02*
X2361Y444D01*
X0Y443D02*
X3Y443D01*
X2358Y443D02*
X2361Y443D01*
X0Y442D02*
X3Y442D01*
X1989Y442D02*
X2032Y442D01*
X2358Y442D02*
X2361Y442D01*
X0Y441D02*
X3Y441D01*
X1988Y441D02*
X2034Y441D01*
X2358Y441D02*
X2361Y441D01*
X0Y440D02*
X3Y440D01*
X1535Y440D02*
X1577Y440D01*
X1988Y440D02*
X2035Y440D01*
X2358Y440D02*
X2361Y440D01*
X0Y439D02*
X3Y439D01*
X1534Y439D02*
X1579Y439D01*
X1987Y439D02*
X2036Y439D01*
X2358Y439D02*
X2361Y439D01*
X0Y438D02*
X3Y438D01*
X1533Y438D02*
X1580Y438D01*
X1988Y438D02*
X2037Y438D01*
X2358Y438D02*
X2361Y438D01*
X0Y437D02*
X3Y437D01*
X1533Y437D02*
X1581Y437D01*
X1988Y437D02*
X2038Y437D01*
X2358Y437D02*
X2361Y437D01*
X0Y436D02*
X3Y436D01*
X1533Y436D02*
X1582Y436D01*
X1990Y436D02*
X2038Y436D01*
X2358Y436D02*
X2361Y436D01*
X0Y435D02*
X3Y435D01*
X1534Y435D02*
X1583Y435D01*
X1992Y435D02*
X2000Y435D01*
X2010Y435D02*
X2019Y435D01*
X2031Y435D02*
X2039Y435D01*
X2358Y435D02*
X2361Y435D01*
X0Y434D02*
X3Y434D01*
X1535Y434D02*
X1584Y434D01*
X1991Y434D02*
X1999Y434D01*
X2011Y434D02*
X2020Y434D01*
X2032Y434D02*
X2040Y434D01*
X2358Y434D02*
X2361Y434D01*
X0Y433D02*
X3Y433D01*
X1538Y433D02*
X1546Y433D01*
X1556Y433D02*
X1564Y433D01*
X1576Y433D02*
X1585Y433D01*
X1990Y433D02*
X1998Y433D01*
X2012Y433D02*
X2021Y433D01*
X2033Y433D02*
X2040Y433D01*
X2358Y433D02*
X2361Y433D01*
X0Y432D02*
X3Y432D01*
X1537Y432D02*
X1545Y432D01*
X1557Y432D02*
X1565Y432D01*
X1578Y432D02*
X1585Y432D01*
X1989Y432D02*
X1997Y432D01*
X2013Y432D02*
X2021Y432D01*
X2034Y432D02*
X2040Y432D01*
X2358Y432D02*
X2361Y432D01*
X0Y431D02*
X3Y431D01*
X1536Y431D02*
X1544Y431D01*
X1558Y431D02*
X1566Y431D01*
X1578Y431D02*
X1586Y431D01*
X1989Y431D02*
X1996Y431D01*
X2014Y431D02*
X2022Y431D01*
X2034Y431D02*
X2040Y431D01*
X2358Y431D02*
X2361Y431D01*
X0Y430D02*
X3Y430D01*
X1535Y430D02*
X1543Y430D01*
X1559Y430D02*
X1567Y430D01*
X1579Y430D02*
X1586Y430D01*
X1988Y430D02*
X1996Y430D01*
X2015Y430D02*
X2022Y430D01*
X2035Y430D02*
X2041Y430D01*
X2358Y430D02*
X2361Y430D01*
X0Y429D02*
X3Y429D01*
X1534Y429D02*
X1542Y429D01*
X1559Y429D02*
X1567Y429D01*
X1580Y429D02*
X1586Y429D01*
X1988Y429D02*
X1995Y429D01*
X2016Y429D02*
X2023Y429D01*
X2035Y429D02*
X2041Y429D01*
X2358Y429D02*
X2361Y429D01*
X0Y428D02*
X3Y428D01*
X1534Y428D02*
X1541Y428D01*
X1560Y428D02*
X1568Y428D01*
X1580Y428D02*
X1586Y428D01*
X1988Y428D02*
X1994Y428D01*
X2016Y428D02*
X2023Y428D01*
X2035Y428D02*
X2041Y428D01*
X2358Y428D02*
X2361Y428D01*
X0Y427D02*
X3Y427D01*
X1534Y427D02*
X1541Y427D01*
X1561Y427D02*
X1568Y427D01*
X1580Y427D02*
X1586Y427D01*
X1987Y427D02*
X1994Y427D01*
X2017Y427D02*
X2023Y427D01*
X2035Y427D02*
X2041Y427D01*
X2358Y427D02*
X2361Y427D01*
X0Y426D02*
X3Y426D01*
X1533Y426D02*
X1540Y426D01*
X1562Y426D02*
X1568Y426D01*
X1580Y426D02*
X1586Y426D01*
X1987Y426D02*
X1993Y426D01*
X2017Y426D02*
X2023Y426D01*
X2035Y426D02*
X2041Y426D01*
X2358Y426D02*
X2361Y426D01*
X0Y425D02*
X3Y425D01*
X1533Y425D02*
X1539Y425D01*
X1562Y425D02*
X1569Y425D01*
X1580Y425D02*
X1586Y425D01*
X1987Y425D02*
X1993Y425D01*
X2017Y425D02*
X2023Y425D01*
X2035Y425D02*
X2041Y425D01*
X2358Y425D02*
X2361Y425D01*
X0Y424D02*
X3Y424D01*
X1533Y424D02*
X1539Y424D01*
X1563Y424D02*
X1569Y424D01*
X1580Y424D02*
X1586Y424D01*
X1987Y424D02*
X1993Y424D01*
X2017Y424D02*
X2023Y424D01*
X2035Y424D02*
X2041Y424D01*
X2358Y424D02*
X2361Y424D01*
X0Y423D02*
X3Y423D01*
X1533Y423D02*
X1539Y423D01*
X1563Y423D02*
X1569Y423D01*
X1580Y423D02*
X1586Y423D01*
X1987Y423D02*
X1993Y423D01*
X2017Y423D02*
X2023Y423D01*
X2035Y423D02*
X2041Y423D01*
X2358Y423D02*
X2361Y423D01*
X0Y422D02*
X3Y422D01*
X1533Y422D02*
X1539Y422D01*
X1563Y422D02*
X1569Y422D01*
X1580Y422D02*
X1586Y422D01*
X1987Y422D02*
X1993Y422D01*
X2017Y422D02*
X2023Y422D01*
X2035Y422D02*
X2041Y422D01*
X2358Y422D02*
X2361Y422D01*
X0Y421D02*
X3Y421D01*
X1533Y421D02*
X1539Y421D01*
X1563Y421D02*
X1569Y421D01*
X1580Y421D02*
X1586Y421D01*
X1987Y421D02*
X1993Y421D01*
X2017Y421D02*
X2023Y421D01*
X2035Y421D02*
X2041Y421D01*
X2358Y421D02*
X2361Y421D01*
X0Y420D02*
X3Y420D01*
X1533Y420D02*
X1539Y420D01*
X1563Y420D02*
X1569Y420D01*
X1580Y420D02*
X1586Y420D01*
X1988Y420D02*
X1994Y420D01*
X2017Y420D02*
X2023Y420D01*
X2035Y420D02*
X2041Y420D01*
X2358Y420D02*
X2361Y420D01*
X0Y419D02*
X3Y419D01*
X1533Y419D02*
X1539Y419D01*
X1563Y419D02*
X1569Y419D01*
X1580Y419D02*
X1586Y419D01*
X1988Y419D02*
X1994Y419D01*
X2016Y419D02*
X2023Y419D01*
X2035Y419D02*
X2041Y419D01*
X2358Y419D02*
X2361Y419D01*
X0Y418D02*
X3Y418D01*
X1533Y418D02*
X1539Y418D01*
X1562Y418D02*
X1569Y418D01*
X1580Y418D02*
X1586Y418D01*
X1988Y418D02*
X1995Y418D01*
X2016Y418D02*
X2022Y418D01*
X2035Y418D02*
X2041Y418D01*
X2358Y418D02*
X2361Y418D01*
X0Y417D02*
X3Y417D01*
X1533Y417D02*
X1540Y417D01*
X1562Y417D02*
X1568Y417D01*
X1580Y417D02*
X1586Y417D01*
X1988Y417D02*
X1996Y417D01*
X2015Y417D02*
X2022Y417D01*
X2035Y417D02*
X2041Y417D01*
X2358Y417D02*
X2361Y417D01*
X0Y416D02*
X3Y416D01*
X1534Y416D02*
X1540Y416D01*
X1562Y416D02*
X1568Y416D01*
X1580Y416D02*
X1586Y416D01*
X1989Y416D02*
X1997Y416D01*
X2014Y416D02*
X2022Y416D01*
X2035Y416D02*
X2041Y416D01*
X2358Y416D02*
X2361Y416D01*
X0Y415D02*
X3Y415D01*
X1534Y415D02*
X1541Y415D01*
X1561Y415D02*
X1568Y415D01*
X1580Y415D02*
X1586Y415D01*
X1989Y415D02*
X2021Y415D01*
X2035Y415D02*
X2041Y415D01*
X2358Y415D02*
X2361Y415D01*
X0Y414D02*
X3Y414D01*
X1534Y414D02*
X1542Y414D01*
X1560Y414D02*
X1567Y414D01*
X1580Y414D02*
X1586Y414D01*
X1990Y414D02*
X2020Y414D01*
X2035Y414D02*
X2040Y414D01*
X2358Y414D02*
X2361Y414D01*
X0Y413D02*
X3Y413D01*
X1535Y413D02*
X1544Y413D01*
X1558Y413D02*
X1567Y413D01*
X1580Y413D02*
X1586Y413D01*
X1991Y413D02*
X2019Y413D01*
X2035Y413D02*
X2040Y413D01*
X2358Y413D02*
X2361Y413D01*
X0Y412D02*
X3Y412D01*
X1536Y412D02*
X1566Y412D01*
X1580Y412D02*
X1586Y412D01*
X1992Y412D02*
X2018Y412D01*
X2036Y412D02*
X2039Y412D01*
X2358Y412D02*
X2361Y412D01*
X0Y411D02*
X3Y411D01*
X1537Y411D02*
X1565Y411D01*
X1581Y411D02*
X1586Y411D01*
X1993Y411D02*
X2017Y411D01*
X2358Y411D02*
X2361Y411D01*
X0Y410D02*
X3Y410D01*
X1537Y410D02*
X1564Y410D01*
X1582Y410D02*
X1585Y410D01*
X1994Y410D02*
X2016Y410D01*
X2358Y410D02*
X2361Y410D01*
X0Y409D02*
X3Y409D01*
X1538Y409D02*
X1563Y409D01*
X1996Y409D02*
X2014Y409D01*
X2358Y409D02*
X2361Y409D01*
X0Y408D02*
X3Y408D01*
X1539Y408D02*
X1562Y408D01*
X2358Y408D02*
X2361Y408D01*
X0Y407D02*
X3Y407D01*
X1541Y407D02*
X1561Y407D01*
X2358Y407D02*
X2361Y407D01*
X0Y406D02*
X3Y406D01*
X1545Y406D02*
X1557Y406D01*
X2358Y406D02*
X2361Y406D01*
X0Y405D02*
X3Y405D01*
X2358Y405D02*
X2361Y405D01*
X0Y404D02*
X3Y404D01*
X2358Y404D02*
X2361Y404D01*
X0Y403D02*
X3Y403D01*
X2358Y403D02*
X2361Y403D01*
X0Y402D02*
X3Y402D01*
X2358Y402D02*
X2361Y402D01*
X0Y401D02*
X3Y401D01*
X2358Y401D02*
X2361Y401D01*
X0Y400D02*
X3Y400D01*
X2358Y400D02*
X2361Y400D01*
X0Y399D02*
X3Y399D01*
X2358Y399D02*
X2361Y399D01*
X0Y398D02*
X3Y398D01*
X2358Y398D02*
X2361Y398D01*
X0Y397D02*
X3Y397D01*
X2358Y397D02*
X2361Y397D01*
X0Y396D02*
X3Y396D01*
X2358Y396D02*
X2361Y396D01*
X0Y395D02*
X3Y395D01*
X2358Y395D02*
X2361Y395D01*
X0Y394D02*
X3Y394D01*
X2358Y394D02*
X2361Y394D01*
X0Y393D02*
X3Y393D01*
X2358Y393D02*
X2361Y393D01*
X0Y392D02*
X3Y392D01*
X1995Y392D02*
X2001Y392D01*
X2358Y392D02*
X2361Y392D01*
X0Y391D02*
X3Y391D01*
X1992Y391D02*
X2002Y391D01*
X2358Y391D02*
X2361Y391D01*
X0Y390D02*
X3Y390D01*
X1541Y390D02*
X1546Y390D01*
X1991Y390D02*
X2002Y390D01*
X2358Y390D02*
X2361Y390D01*
X0Y389D02*
X3Y389D01*
X1539Y389D02*
X1547Y389D01*
X1990Y389D02*
X2002Y389D01*
X2358Y389D02*
X2361Y389D01*
X0Y388D02*
X3Y388D01*
X1537Y388D02*
X1548Y388D01*
X1989Y388D02*
X2002Y388D01*
X2358Y388D02*
X2361Y388D01*
X0Y387D02*
X3Y387D01*
X1536Y387D02*
X1548Y387D01*
X1989Y387D02*
X2002Y387D01*
X2358Y387D02*
X2361Y387D01*
X0Y386D02*
X3Y386D01*
X1535Y386D02*
X1548Y386D01*
X1988Y386D02*
X2000Y386D01*
X2358Y386D02*
X2361Y386D01*
X0Y385D02*
X3Y385D01*
X1535Y385D02*
X1547Y385D01*
X1988Y385D02*
X1995Y385D01*
X2358Y385D02*
X2361Y385D01*
X0Y384D02*
X3Y384D01*
X1534Y384D02*
X1547Y384D01*
X1988Y384D02*
X1994Y384D01*
X2358Y384D02*
X2361Y384D01*
X0Y383D02*
X3Y383D01*
X1534Y383D02*
X1541Y383D01*
X1987Y383D02*
X1994Y383D01*
X2358Y383D02*
X2361Y383D01*
X0Y382D02*
X3Y382D01*
X1533Y382D02*
X1540Y382D01*
X1987Y382D02*
X1993Y382D01*
X2358Y382D02*
X2361Y382D01*
X0Y381D02*
X3Y381D01*
X1533Y381D02*
X1539Y381D01*
X1987Y381D02*
X1993Y381D01*
X2358Y381D02*
X2361Y381D01*
X0Y380D02*
X3Y380D01*
X1533Y380D02*
X1539Y380D01*
X1987Y380D02*
X1993Y380D01*
X2358Y380D02*
X2361Y380D01*
X0Y379D02*
X3Y379D01*
X1533Y379D02*
X1539Y379D01*
X1987Y379D02*
X1993Y379D01*
X2358Y379D02*
X2361Y379D01*
X0Y378D02*
X3Y378D01*
X1533Y378D02*
X1539Y378D01*
X1987Y378D02*
X1993Y378D01*
X2358Y378D02*
X2361Y378D01*
X0Y377D02*
X3Y377D01*
X1533Y377D02*
X1539Y377D01*
X1987Y377D02*
X1993Y377D01*
X2358Y377D02*
X2361Y377D01*
X0Y376D02*
X3Y376D01*
X1533Y376D02*
X1539Y376D01*
X1987Y376D02*
X1994Y376D01*
X2358Y376D02*
X2361Y376D01*
X0Y375D02*
X3Y375D01*
X1533Y375D02*
X1539Y375D01*
X1987Y375D02*
X1995Y375D01*
X2358Y375D02*
X2361Y375D01*
X0Y374D02*
X3Y374D01*
X717Y374D02*
X784Y374D01*
X985Y374D02*
X1032Y374D01*
X1533Y374D02*
X1539Y374D01*
X1988Y374D02*
X1996Y374D01*
X2358Y374D02*
X2361Y374D01*
X0Y373D02*
X3Y373D01*
X717Y373D02*
X784Y373D01*
X985Y373D02*
X1032Y373D01*
X1533Y373D02*
X1540Y373D01*
X1988Y373D02*
X1996Y373D01*
X2358Y373D02*
X2361Y373D01*
X0Y372D02*
X3Y372D01*
X717Y372D02*
X784Y372D01*
X985Y372D02*
X1032Y372D01*
X1533Y372D02*
X1541Y372D01*
X1989Y372D02*
X1997Y372D01*
X2358Y372D02*
X2361Y372D01*
X0Y371D02*
X3Y371D01*
X717Y371D02*
X784Y371D01*
X985Y371D02*
X1032Y371D01*
X1534Y371D02*
X1542Y371D01*
X1990Y371D02*
X1998Y371D01*
X2358Y371D02*
X2361Y371D01*
X0Y370D02*
X3Y370D01*
X718Y370D02*
X784Y370D01*
X985Y370D02*
X1032Y370D01*
X1535Y370D02*
X1543Y370D01*
X1991Y370D02*
X1999Y370D01*
X2358Y370D02*
X2361Y370D01*
X0Y369D02*
X3Y369D01*
X718Y369D02*
X784Y369D01*
X985Y369D02*
X1032Y369D01*
X1535Y369D02*
X1544Y369D01*
X1992Y369D02*
X2000Y369D01*
X2358Y369D02*
X2361Y369D01*
X0Y368D02*
X3Y368D01*
X717Y368D02*
X784Y368D01*
X985Y368D02*
X1032Y368D01*
X1536Y368D02*
X1545Y368D01*
X1992Y368D02*
X2001Y368D01*
X2358Y368D02*
X2361Y368D01*
X0Y367D02*
X3Y367D01*
X717Y367D02*
X784Y367D01*
X985Y367D02*
X1032Y367D01*
X1537Y367D02*
X1545Y367D01*
X1993Y367D02*
X2002Y367D01*
X2358Y367D02*
X2361Y367D01*
X0Y366D02*
X3Y366D01*
X338Y366D02*
X339Y366D01*
X717Y366D02*
X784Y366D01*
X985Y366D02*
X1032Y366D01*
X1538Y366D02*
X1546Y366D01*
X1994Y366D02*
X2002Y366D01*
X2358Y366D02*
X2361Y366D01*
X0Y365D02*
X3Y365D01*
X336Y365D02*
X341Y365D01*
X717Y365D02*
X783Y365D01*
X985Y365D02*
X1032Y365D01*
X1539Y365D02*
X1547Y365D01*
X1994Y365D02*
X2004Y365D01*
X2358Y365D02*
X2361Y365D01*
X0Y364D02*
X3Y364D01*
X336Y364D02*
X341Y364D01*
X1540Y364D02*
X1548Y364D01*
X1989Y364D02*
X2025Y364D01*
X2358Y364D02*
X2361Y364D01*
X0Y363D02*
X3Y363D01*
X336Y363D02*
X342Y363D01*
X1540Y363D02*
X1549Y363D01*
X1988Y363D02*
X2025Y363D01*
X2358Y363D02*
X2361Y363D01*
X0Y362D02*
X3Y362D01*
X336Y362D02*
X342Y362D01*
X1535Y362D02*
X1570Y362D01*
X1988Y362D02*
X2026Y362D01*
X2358Y362D02*
X2361Y362D01*
X0Y361D02*
X3Y361D01*
X336Y361D02*
X342Y361D01*
X1534Y361D02*
X1571Y361D01*
X1988Y361D02*
X2026Y361D01*
X2358Y361D02*
X2361Y361D01*
X0Y360D02*
X3Y360D01*
X336Y360D02*
X342Y360D01*
X1533Y360D02*
X1571Y360D01*
X1988Y360D02*
X2025Y360D01*
X2358Y360D02*
X2361Y360D01*
X0Y359D02*
X3Y359D01*
X336Y359D02*
X342Y359D01*
X1533Y359D02*
X1572Y359D01*
X1989Y359D02*
X2025Y359D01*
X2358Y359D02*
X2361Y359D01*
X0Y358D02*
X3Y358D01*
X336Y358D02*
X342Y358D01*
X1533Y358D02*
X1571Y358D01*
X1991Y358D02*
X2023Y358D01*
X2358Y358D02*
X2361Y358D01*
X0Y357D02*
X3Y357D01*
X336Y357D02*
X342Y357D01*
X1534Y357D02*
X1571Y357D01*
X2358Y357D02*
X2361Y357D01*
X0Y356D02*
X3Y356D01*
X336Y356D02*
X342Y356D01*
X1535Y356D02*
X1569Y356D01*
X2358Y356D02*
X2361Y356D01*
X0Y355D02*
X3Y355D01*
X336Y355D02*
X342Y355D01*
X2358Y355D02*
X2361Y355D01*
X0Y354D02*
X3Y354D01*
X336Y354D02*
X342Y354D01*
X2358Y354D02*
X2361Y354D01*
X0Y353D02*
X3Y353D01*
X336Y353D02*
X342Y353D01*
X2358Y353D02*
X2361Y353D01*
X0Y352D02*
X3Y352D01*
X336Y352D02*
X342Y352D01*
X2358Y352D02*
X2361Y352D01*
X0Y351D02*
X3Y351D01*
X209Y351D02*
X211Y351D01*
X217Y351D02*
X222Y351D01*
X231Y351D02*
X235Y351D01*
X267Y351D02*
X282Y351D01*
X317Y351D02*
X328Y351D01*
X336Y351D02*
X342Y351D01*
X368Y351D02*
X382Y351D01*
X2358Y351D02*
X2361Y351D01*
X0Y350D02*
X3Y350D01*
X208Y350D02*
X212Y350D01*
X215Y350D02*
X224Y350D01*
X229Y350D02*
X237Y350D01*
X265Y350D02*
X284Y350D01*
X315Y350D02*
X331Y350D01*
X336Y350D02*
X342Y350D01*
X366Y350D02*
X384Y350D01*
X2358Y350D02*
X2361Y350D01*
X0Y349D02*
X3Y349D01*
X207Y349D02*
X225Y349D01*
X227Y349D02*
X238Y349D01*
X264Y349D02*
X285Y349D01*
X314Y349D02*
X332Y349D01*
X336Y349D02*
X342Y349D01*
X364Y349D02*
X386Y349D01*
X2358Y349D02*
X2361Y349D01*
X0Y348D02*
X3Y348D01*
X207Y348D02*
X239Y348D01*
X263Y348D02*
X286Y348D01*
X313Y348D02*
X333Y348D01*
X336Y348D02*
X342Y348D01*
X363Y348D02*
X387Y348D01*
X2358Y348D02*
X2361Y348D01*
X0Y347D02*
X3Y347D01*
X207Y347D02*
X240Y347D01*
X262Y347D02*
X288Y347D01*
X312Y347D02*
X342Y347D01*
X362Y347D02*
X388Y347D01*
X2358Y347D02*
X2361Y347D01*
X0Y346D02*
X3Y346D01*
X207Y346D02*
X240Y346D01*
X261Y346D02*
X289Y346D01*
X311Y346D02*
X342Y346D01*
X361Y346D02*
X389Y346D01*
X2358Y346D02*
X2361Y346D01*
X0Y345D02*
X3Y345D01*
X207Y345D02*
X240Y345D01*
X260Y345D02*
X289Y345D01*
X310Y345D02*
X342Y345D01*
X360Y345D02*
X390Y345D01*
X2358Y345D02*
X2361Y345D01*
X0Y344D02*
X3Y344D01*
X207Y344D02*
X218Y344D01*
X221Y344D02*
X231Y344D01*
X234Y344D02*
X241Y344D01*
X259Y344D02*
X268Y344D01*
X281Y344D02*
X290Y344D01*
X309Y344D02*
X318Y344D01*
X328Y344D02*
X342Y344D01*
X360Y344D02*
X368Y344D01*
X382Y344D02*
X390Y344D01*
X2358Y344D02*
X2361Y344D01*
X0Y343D02*
X3Y343D01*
X207Y343D02*
X216Y343D01*
X221Y343D02*
X230Y343D01*
X235Y343D02*
X241Y343D01*
X259Y343D02*
X267Y343D01*
X283Y343D02*
X291Y343D01*
X309Y343D02*
X317Y343D01*
X329Y343D02*
X342Y343D01*
X359Y343D02*
X367Y343D01*
X383Y343D02*
X391Y343D01*
X2358Y343D02*
X2361Y343D01*
X0Y342D02*
X3Y342D01*
X207Y342D02*
X215Y342D01*
X221Y342D02*
X229Y342D01*
X235Y342D02*
X241Y342D01*
X258Y342D02*
X265Y342D01*
X284Y342D02*
X291Y342D01*
X308Y342D02*
X316Y342D01*
X330Y342D02*
X342Y342D01*
X359Y342D02*
X366Y342D01*
X384Y342D02*
X391Y342D01*
X1984Y342D02*
X1991Y342D01*
X2007Y342D02*
X2015Y342D01*
X2358Y342D02*
X2361Y342D01*
X0Y341D02*
X3Y341D01*
X207Y341D02*
X214Y341D01*
X221Y341D02*
X228Y341D01*
X235Y341D02*
X241Y341D01*
X258Y341D02*
X265Y341D01*
X285Y341D02*
X291Y341D01*
X308Y341D02*
X315Y341D01*
X332Y341D02*
X342Y341D01*
X358Y341D02*
X365Y341D01*
X385Y341D02*
X392Y341D01*
X1981Y341D02*
X1994Y341D01*
X2004Y341D02*
X2018Y341D01*
X2358Y341D02*
X2361Y341D01*
X0Y340D02*
X3Y340D01*
X207Y340D02*
X213Y340D01*
X221Y340D02*
X227Y340D01*
X235Y340D02*
X241Y340D01*
X258Y340D02*
X264Y340D01*
X285Y340D02*
X291Y340D01*
X308Y340D02*
X314Y340D01*
X333Y340D02*
X342Y340D01*
X358Y340D02*
X364Y340D01*
X386Y340D02*
X392Y340D01*
X1531Y340D02*
X1535Y340D01*
X1555Y340D02*
X1559Y340D01*
X1979Y340D02*
X1996Y340D01*
X2003Y340D02*
X2019Y340D01*
X2358Y340D02*
X2361Y340D01*
X0Y339D02*
X3Y339D01*
X207Y339D02*
X213Y339D01*
X221Y339D02*
X227Y339D01*
X235Y339D02*
X241Y339D01*
X258Y339D02*
X264Y339D01*
X285Y339D02*
X291Y339D01*
X308Y339D02*
X314Y339D01*
X334Y339D02*
X342Y339D01*
X358Y339D02*
X364Y339D01*
X386Y339D02*
X392Y339D01*
X1527Y339D02*
X1539Y339D01*
X1551Y339D02*
X1563Y339D01*
X1978Y339D02*
X1997Y339D01*
X2001Y339D02*
X2021Y339D01*
X2358Y339D02*
X2361Y339D01*
X0Y338D02*
X3Y338D01*
X207Y338D02*
X213Y338D01*
X221Y338D02*
X227Y338D01*
X235Y338D02*
X241Y338D01*
X258Y338D02*
X264Y338D01*
X285Y338D02*
X291Y338D01*
X308Y338D02*
X314Y338D01*
X335Y338D02*
X342Y338D01*
X358Y338D02*
X364Y338D01*
X386Y338D02*
X392Y338D01*
X1525Y338D02*
X1541Y338D01*
X1549Y338D02*
X1565Y338D01*
X1977Y338D02*
X1998Y338D01*
X2000Y338D02*
X2022Y338D01*
X2358Y338D02*
X2361Y338D01*
X0Y337D02*
X3Y337D01*
X207Y337D02*
X213Y337D01*
X221Y337D02*
X227Y337D01*
X235Y337D02*
X241Y337D01*
X258Y337D02*
X264Y337D01*
X285Y337D02*
X291Y337D01*
X308Y337D02*
X314Y337D01*
X335Y337D02*
X342Y337D01*
X358Y337D02*
X364Y337D01*
X386Y337D02*
X392Y337D01*
X1524Y337D02*
X1543Y337D01*
X1547Y337D02*
X1566Y337D01*
X1976Y337D02*
X2023Y337D01*
X2358Y337D02*
X2361Y337D01*
X0Y336D02*
X3Y336D01*
X207Y336D02*
X213Y336D01*
X221Y336D02*
X227Y336D01*
X235Y336D02*
X241Y336D01*
X258Y336D02*
X264Y336D01*
X285Y336D02*
X291Y336D01*
X308Y336D02*
X314Y336D01*
X336Y336D02*
X342Y336D01*
X358Y336D02*
X364Y336D01*
X386Y336D02*
X392Y336D01*
X1523Y336D02*
X1544Y336D01*
X1546Y336D02*
X1567Y336D01*
X1975Y336D02*
X2023Y336D01*
X2358Y336D02*
X2361Y336D01*
X0Y335D02*
X3Y335D01*
X207Y335D02*
X213Y335D01*
X221Y335D02*
X227Y335D01*
X235Y335D02*
X241Y335D01*
X258Y335D02*
X264Y335D01*
X285Y335D02*
X291Y335D01*
X308Y335D02*
X314Y335D01*
X336Y335D02*
X342Y335D01*
X358Y335D02*
X364Y335D01*
X386Y335D02*
X392Y335D01*
X1522Y335D02*
X1568Y335D01*
X1974Y335D02*
X1984Y335D01*
X1991Y335D02*
X2007Y335D01*
X2015Y335D02*
X2024Y335D01*
X2358Y335D02*
X2361Y335D01*
X0Y334D02*
X3Y334D01*
X207Y334D02*
X213Y334D01*
X221Y334D02*
X227Y334D01*
X235Y334D02*
X241Y334D01*
X258Y334D02*
X264Y334D01*
X285Y334D02*
X291Y334D01*
X308Y334D02*
X314Y334D01*
X336Y334D02*
X342Y334D01*
X358Y334D02*
X365Y334D01*
X385Y334D02*
X392Y334D01*
X1521Y334D02*
X1569Y334D01*
X1974Y334D02*
X1982Y334D01*
X1993Y334D02*
X2005Y334D01*
X2017Y334D02*
X2025Y334D01*
X2358Y334D02*
X2361Y334D01*
X0Y333D02*
X3Y333D01*
X207Y333D02*
X213Y333D01*
X221Y333D02*
X227Y333D01*
X235Y333D02*
X241Y333D01*
X258Y333D02*
X264Y333D01*
X285Y333D02*
X291Y333D01*
X308Y333D02*
X314Y333D01*
X336Y333D02*
X342Y333D01*
X358Y333D02*
X392Y333D01*
X1520Y333D02*
X1530Y333D01*
X1536Y333D02*
X1554Y333D01*
X1560Y333D02*
X1570Y333D01*
X1974Y333D02*
X1981Y333D01*
X1994Y333D02*
X2004Y333D01*
X2018Y333D02*
X2025Y333D01*
X2358Y333D02*
X2361Y333D01*
X0Y332D02*
X3Y332D01*
X207Y332D02*
X213Y332D01*
X221Y332D02*
X227Y332D01*
X235Y332D02*
X241Y332D01*
X258Y332D02*
X264Y332D01*
X285Y332D02*
X291Y332D01*
X308Y332D02*
X314Y332D01*
X336Y332D02*
X342Y332D01*
X358Y332D02*
X392Y332D01*
X1520Y332D02*
X1528Y332D01*
X1539Y332D02*
X1551Y332D01*
X1562Y332D02*
X1570Y332D01*
X1973Y332D02*
X1980Y332D01*
X1995Y332D02*
X2003Y332D01*
X2019Y332D02*
X2025Y332D01*
X2358Y332D02*
X2361Y332D01*
X0Y331D02*
X3Y331D01*
X207Y331D02*
X213Y331D01*
X221Y331D02*
X227Y331D01*
X235Y331D02*
X241Y331D01*
X258Y331D02*
X264Y331D01*
X285Y331D02*
X291Y331D01*
X308Y331D02*
X314Y331D01*
X336Y331D02*
X342Y331D01*
X358Y331D02*
X392Y331D01*
X1519Y331D02*
X1527Y331D01*
X1540Y331D02*
X1550Y331D01*
X1563Y331D02*
X1571Y331D01*
X1973Y331D02*
X1979Y331D01*
X1996Y331D02*
X2003Y331D01*
X2019Y331D02*
X2026Y331D01*
X2358Y331D02*
X2361Y331D01*
X0Y330D02*
X3Y330D01*
X207Y330D02*
X213Y330D01*
X221Y330D02*
X227Y330D01*
X235Y330D02*
X241Y330D01*
X258Y330D02*
X264Y330D01*
X285Y330D02*
X291Y330D01*
X308Y330D02*
X314Y330D01*
X336Y330D02*
X342Y330D01*
X358Y330D02*
X392Y330D01*
X1519Y330D02*
X1526Y330D01*
X1541Y330D02*
X1549Y330D01*
X1564Y330D02*
X1571Y330D01*
X1973Y330D02*
X1979Y330D01*
X1996Y330D02*
X2002Y330D01*
X2020Y330D02*
X2026Y330D01*
X2358Y330D02*
X2361Y330D01*
X0Y329D02*
X3Y329D01*
X207Y329D02*
X213Y329D01*
X221Y329D02*
X227Y329D01*
X235Y329D02*
X241Y329D01*
X258Y329D02*
X264Y329D01*
X285Y329D02*
X291Y329D01*
X308Y329D02*
X314Y329D01*
X336Y329D02*
X342Y329D01*
X358Y329D02*
X391Y329D01*
X1519Y329D02*
X1525Y329D01*
X1541Y329D02*
X1549Y329D01*
X1565Y329D02*
X1571Y329D01*
X1973Y329D02*
X1979Y329D01*
X1996Y329D02*
X2002Y329D01*
X2020Y329D02*
X2026Y329D01*
X2358Y329D02*
X2361Y329D01*
X0Y328D02*
X3Y328D01*
X207Y328D02*
X213Y328D01*
X221Y328D02*
X227Y328D01*
X235Y328D02*
X241Y328D01*
X258Y328D02*
X264Y328D01*
X285Y328D02*
X291Y328D01*
X308Y328D02*
X314Y328D01*
X336Y328D02*
X342Y328D01*
X358Y328D02*
X391Y328D01*
X1519Y328D02*
X1525Y328D01*
X1542Y328D02*
X1548Y328D01*
X1565Y328D02*
X1571Y328D01*
X1973Y328D02*
X1979Y328D01*
X1996Y328D02*
X2002Y328D01*
X2020Y328D02*
X2026Y328D01*
X2358Y328D02*
X2361Y328D01*
X0Y327D02*
X3Y327D01*
X207Y327D02*
X213Y327D01*
X221Y327D02*
X227Y327D01*
X235Y327D02*
X241Y327D01*
X258Y327D02*
X264Y327D01*
X285Y327D02*
X291Y327D01*
X308Y327D02*
X314Y327D01*
X335Y327D02*
X342Y327D01*
X358Y327D02*
X389Y327D01*
X1518Y327D02*
X1525Y327D01*
X1542Y327D02*
X1548Y327D01*
X1565Y327D02*
X1571Y327D01*
X1973Y327D02*
X1979Y327D01*
X1996Y327D02*
X2002Y327D01*
X2020Y327D02*
X2026Y327D01*
X2358Y327D02*
X2361Y327D01*
X0Y326D02*
X3Y326D01*
X207Y326D02*
X213Y326D01*
X221Y326D02*
X227Y326D01*
X235Y326D02*
X241Y326D01*
X258Y326D02*
X264Y326D01*
X285Y326D02*
X291Y326D01*
X308Y326D02*
X314Y326D01*
X335Y326D02*
X342Y326D01*
X358Y326D02*
X364Y326D01*
X1518Y326D02*
X1524Y326D01*
X1542Y326D02*
X1548Y326D01*
X1566Y326D02*
X1572Y326D01*
X1973Y326D02*
X1979Y326D01*
X1996Y326D02*
X2002Y326D01*
X2020Y326D02*
X2026Y326D01*
X2358Y326D02*
X2361Y326D01*
X0Y325D02*
X3Y325D01*
X207Y325D02*
X213Y325D01*
X221Y325D02*
X227Y325D01*
X235Y325D02*
X241Y325D01*
X258Y325D02*
X264Y325D01*
X285Y325D02*
X291Y325D01*
X308Y325D02*
X314Y325D01*
X334Y325D02*
X342Y325D01*
X358Y325D02*
X364Y325D01*
X1518Y325D02*
X1524Y325D01*
X1542Y325D02*
X1548Y325D01*
X1566Y325D02*
X1572Y325D01*
X1973Y325D02*
X1979Y325D01*
X1996Y325D02*
X2002Y325D01*
X2020Y325D02*
X2026Y325D01*
X2358Y325D02*
X2361Y325D01*
X0Y324D02*
X3Y324D01*
X207Y324D02*
X213Y324D01*
X221Y324D02*
X227Y324D01*
X235Y324D02*
X241Y324D01*
X258Y324D02*
X264Y324D01*
X285Y324D02*
X291Y324D01*
X308Y324D02*
X314Y324D01*
X333Y324D02*
X342Y324D01*
X358Y324D02*
X364Y324D01*
X1518Y324D02*
X1524Y324D01*
X1542Y324D02*
X1548Y324D01*
X1566Y324D02*
X1572Y324D01*
X1973Y324D02*
X1979Y324D01*
X1996Y324D02*
X2002Y324D01*
X2020Y324D02*
X2026Y324D01*
X2358Y324D02*
X2361Y324D01*
X0Y323D02*
X3Y323D01*
X207Y323D02*
X213Y323D01*
X221Y323D02*
X227Y323D01*
X235Y323D02*
X241Y323D01*
X258Y323D02*
X264Y323D01*
X285Y323D02*
X291Y323D01*
X308Y323D02*
X315Y323D01*
X332Y323D02*
X342Y323D01*
X358Y323D02*
X365Y323D01*
X1518Y323D02*
X1524Y323D01*
X1542Y323D02*
X1548Y323D01*
X1566Y323D02*
X1572Y323D01*
X1973Y323D02*
X1979Y323D01*
X1996Y323D02*
X2002Y323D01*
X2020Y323D02*
X2026Y323D01*
X2358Y323D02*
X2361Y323D01*
X0Y322D02*
X3Y322D01*
X207Y322D02*
X213Y322D01*
X221Y322D02*
X227Y322D01*
X235Y322D02*
X241Y322D01*
X258Y322D02*
X265Y322D01*
X284Y322D02*
X291Y322D01*
X308Y322D02*
X315Y322D01*
X331Y322D02*
X342Y322D01*
X359Y322D02*
X365Y322D01*
X1518Y322D02*
X1524Y322D01*
X1542Y322D02*
X1548Y322D01*
X1566Y322D02*
X1572Y322D01*
X1973Y322D02*
X1979Y322D01*
X1996Y322D02*
X2002Y322D01*
X2020Y322D02*
X2026Y322D01*
X2358Y322D02*
X2361Y322D01*
X0Y321D02*
X3Y321D01*
X207Y321D02*
X213Y321D01*
X221Y321D02*
X227Y321D01*
X235Y321D02*
X241Y321D01*
X258Y321D02*
X266Y321D01*
X283Y321D02*
X291Y321D01*
X309Y321D02*
X316Y321D01*
X330Y321D02*
X342Y321D01*
X359Y321D02*
X367Y321D01*
X1518Y321D02*
X1524Y321D01*
X1542Y321D02*
X1548Y321D01*
X1566Y321D02*
X1572Y321D01*
X1973Y321D02*
X1979Y321D01*
X1996Y321D02*
X2002Y321D01*
X2020Y321D02*
X2026Y321D01*
X2358Y321D02*
X2361Y321D01*
X0Y320D02*
X3Y320D01*
X207Y320D02*
X213Y320D01*
X221Y320D02*
X227Y320D01*
X235Y320D02*
X241Y320D01*
X259Y320D02*
X268Y320D01*
X282Y320D02*
X290Y320D01*
X309Y320D02*
X318Y320D01*
X328Y320D02*
X342Y320D01*
X359Y320D02*
X368Y320D01*
X1518Y320D02*
X1524Y320D01*
X1542Y320D02*
X1548Y320D01*
X1566Y320D02*
X1572Y320D01*
X1973Y320D02*
X1979Y320D01*
X1996Y320D02*
X2002Y320D01*
X2020Y320D02*
X2026Y320D01*
X2358Y320D02*
X2361Y320D01*
X0Y319D02*
X3Y319D01*
X207Y319D02*
X213Y319D01*
X221Y319D02*
X227Y319D01*
X236Y319D02*
X242Y319D01*
X259Y319D02*
X290Y319D01*
X310Y319D02*
X342Y319D01*
X360Y319D02*
X389Y319D01*
X1518Y319D02*
X1524Y319D01*
X1542Y319D02*
X1548Y319D01*
X1566Y319D02*
X1572Y319D01*
X1973Y319D02*
X1979Y319D01*
X1996Y319D02*
X2002Y319D01*
X2020Y319D02*
X2026Y319D01*
X2358Y319D02*
X2361Y319D01*
X0Y318D02*
X3Y318D01*
X207Y318D02*
X213Y318D01*
X221Y318D02*
X227Y318D01*
X236Y318D02*
X242Y318D01*
X260Y318D02*
X289Y318D01*
X310Y318D02*
X342Y318D01*
X361Y318D02*
X391Y318D01*
X1518Y318D02*
X1524Y318D01*
X1542Y318D02*
X1548Y318D01*
X1566Y318D02*
X1572Y318D01*
X1973Y318D02*
X1979Y318D01*
X1996Y318D02*
X2002Y318D01*
X2020Y318D02*
X2026Y318D01*
X2358Y318D02*
X2361Y318D01*
X0Y317D02*
X3Y317D01*
X207Y317D02*
X213Y317D01*
X221Y317D02*
X227Y317D01*
X236Y317D02*
X242Y317D01*
X261Y317D02*
X288Y317D01*
X311Y317D02*
X342Y317D01*
X362Y317D02*
X391Y317D01*
X1518Y317D02*
X1524Y317D01*
X1542Y317D02*
X1548Y317D01*
X1566Y317D02*
X1572Y317D01*
X1973Y317D02*
X1979Y317D01*
X1996Y317D02*
X2002Y317D01*
X2020Y317D02*
X2026Y317D01*
X2358Y317D02*
X2361Y317D01*
X0Y316D02*
X3Y316D01*
X207Y316D02*
X213Y316D01*
X221Y316D02*
X227Y316D01*
X236Y316D02*
X242Y316D01*
X262Y316D02*
X287Y316D01*
X312Y316D02*
X334Y316D01*
X336Y316D02*
X342Y316D01*
X363Y316D02*
X392Y316D01*
X1518Y316D02*
X1524Y316D01*
X1542Y316D02*
X1548Y316D01*
X1566Y316D02*
X1572Y316D01*
X1973Y316D02*
X1979Y316D01*
X1996Y316D02*
X2002Y316D01*
X2020Y316D02*
X2026Y316D01*
X2358Y316D02*
X2361Y316D01*
X0Y315D02*
X3Y315D01*
X207Y315D02*
X213Y315D01*
X221Y315D02*
X227Y315D01*
X236Y315D02*
X242Y315D01*
X264Y315D02*
X286Y315D01*
X314Y315D02*
X333Y315D01*
X336Y315D02*
X341Y315D01*
X364Y315D02*
X392Y315D01*
X1518Y315D02*
X1524Y315D01*
X1542Y315D02*
X1548Y315D01*
X1566Y315D02*
X1572Y315D01*
X1973Y315D02*
X1979Y315D01*
X1996Y315D02*
X2002Y315D01*
X2020Y315D02*
X2026Y315D01*
X2358Y315D02*
X2361Y315D01*
X0Y314D02*
X3Y314D01*
X208Y314D02*
X213Y314D01*
X222Y314D02*
X227Y314D01*
X236Y314D02*
X241Y314D01*
X265Y314D02*
X284Y314D01*
X315Y314D02*
X331Y314D01*
X336Y314D02*
X341Y314D01*
X365Y314D02*
X391Y314D01*
X1518Y314D02*
X1524Y314D01*
X1542Y314D02*
X1548Y314D01*
X1566Y314D02*
X1572Y314D01*
X1973Y314D02*
X2026Y314D01*
X2358Y314D02*
X2361Y314D01*
X0Y313D02*
X3Y313D01*
X208Y313D02*
X212Y313D01*
X223Y313D02*
X226Y313D01*
X237Y313D02*
X240Y313D01*
X267Y313D02*
X283Y313D01*
X317Y313D02*
X329Y313D01*
X337Y313D02*
X340Y313D01*
X367Y313D02*
X390Y313D01*
X1518Y313D02*
X1524Y313D01*
X1542Y313D02*
X1548Y313D01*
X1566Y313D02*
X1572Y313D01*
X1973Y313D02*
X2026Y313D01*
X2358Y313D02*
X2361Y313D01*
X0Y312D02*
X3Y312D01*
X1518Y312D02*
X1572Y312D01*
X1973Y312D02*
X2026Y312D01*
X2358Y312D02*
X2361Y312D01*
X0Y311D02*
X3Y311D01*
X1518Y311D02*
X1572Y311D01*
X1973Y311D02*
X2026Y311D01*
X2358Y311D02*
X2361Y311D01*
X0Y310D02*
X3Y310D01*
X1518Y310D02*
X1572Y310D01*
X1973Y310D02*
X2026Y310D01*
X2358Y310D02*
X2361Y310D01*
X0Y309D02*
X3Y309D01*
X875Y309D02*
X895Y309D01*
X1518Y309D02*
X1572Y309D01*
X1973Y309D02*
X2026Y309D01*
X2358Y309D02*
X2361Y309D01*
X0Y308D02*
X3Y308D01*
X874Y308D02*
X896Y308D01*
X1518Y308D02*
X1572Y308D01*
X1973Y308D02*
X2026Y308D01*
X2358Y308D02*
X2361Y308D01*
X0Y307D02*
X3Y307D01*
X873Y307D02*
X897Y307D01*
X1518Y307D02*
X1572Y307D01*
X2358Y307D02*
X2361Y307D01*
X0Y306D02*
X3Y306D01*
X873Y306D02*
X897Y306D01*
X1518Y306D02*
X1572Y306D01*
X2358Y306D02*
X2361Y306D01*
X0Y305D02*
X3Y305D01*
X873Y305D02*
X897Y305D01*
X2358Y305D02*
X2361Y305D01*
X0Y304D02*
X3Y304D01*
X874Y304D02*
X897Y304D01*
X2358Y304D02*
X2361Y304D01*
X0Y303D02*
X3Y303D01*
X875Y303D02*
X897Y303D01*
X2358Y303D02*
X2361Y303D01*
X0Y302D02*
X3Y302D01*
X891Y302D02*
X897Y302D01*
X2358Y302D02*
X2361Y302D01*
X0Y301D02*
X3Y301D01*
X891Y301D02*
X897Y301D01*
X2358Y301D02*
X2361Y301D01*
X0Y300D02*
X3Y300D01*
X891Y300D02*
X897Y300D01*
X2358Y300D02*
X2361Y300D01*
X0Y299D02*
X3Y299D01*
X891Y299D02*
X897Y299D01*
X2358Y299D02*
X2361Y299D01*
X0Y298D02*
X3Y298D01*
X891Y298D02*
X897Y298D01*
X2358Y298D02*
X2361Y298D01*
X0Y297D02*
X3Y297D01*
X891Y297D02*
X897Y297D01*
X2358Y297D02*
X2361Y297D01*
X0Y296D02*
X3Y296D01*
X891Y296D02*
X897Y296D01*
X2358Y296D02*
X2361Y296D01*
X0Y295D02*
X3Y295D01*
X844Y295D02*
X897Y295D01*
X2358Y295D02*
X2361Y295D01*
X0Y294D02*
X3Y294D01*
X844Y294D02*
X897Y294D01*
X2358Y294D02*
X2361Y294D01*
X0Y293D02*
X3Y293D01*
X844Y293D02*
X897Y293D01*
X2358Y293D02*
X2361Y293D01*
X0Y292D02*
X3Y292D01*
X844Y292D02*
X897Y292D01*
X2358Y292D02*
X2361Y292D01*
X0Y291D02*
X3Y291D01*
X844Y291D02*
X897Y291D01*
X2358Y291D02*
X2361Y291D01*
X0Y290D02*
X3Y290D01*
X844Y290D02*
X897Y290D01*
X2358Y290D02*
X2361Y290D01*
X0Y289D02*
X3Y289D01*
X844Y289D02*
X897Y289D01*
X2358Y289D02*
X2361Y289D01*
X0Y288D02*
X3Y288D01*
X844Y288D02*
X850Y288D01*
X891Y288D02*
X897Y288D01*
X2358Y288D02*
X2361Y288D01*
X0Y287D02*
X3Y287D01*
X844Y287D02*
X850Y287D01*
X891Y287D02*
X897Y287D01*
X2358Y287D02*
X2361Y287D01*
X0Y286D02*
X3Y286D01*
X844Y286D02*
X850Y286D01*
X891Y286D02*
X897Y286D01*
X2358Y286D02*
X2361Y286D01*
X0Y285D02*
X3Y285D01*
X844Y285D02*
X850Y285D01*
X891Y285D02*
X897Y285D01*
X2358Y285D02*
X2361Y285D01*
X0Y284D02*
X3Y284D01*
X844Y284D02*
X850Y284D01*
X891Y284D02*
X897Y284D01*
X2358Y284D02*
X2361Y284D01*
X0Y283D02*
X3Y283D01*
X844Y283D02*
X850Y283D01*
X891Y283D02*
X897Y283D01*
X2358Y283D02*
X2361Y283D01*
X0Y282D02*
X3Y282D01*
X844Y282D02*
X850Y282D01*
X891Y282D02*
X897Y282D01*
X2358Y282D02*
X2361Y282D01*
X0Y281D02*
X3Y281D01*
X844Y281D02*
X850Y281D01*
X891Y281D02*
X897Y281D01*
X2358Y281D02*
X2361Y281D01*
X0Y280D02*
X3Y280D01*
X844Y280D02*
X850Y280D01*
X891Y280D02*
X897Y280D01*
X2358Y280D02*
X2361Y280D01*
X0Y279D02*
X3Y279D01*
X844Y279D02*
X850Y279D01*
X891Y279D02*
X897Y279D01*
X2358Y279D02*
X2361Y279D01*
X0Y278D02*
X3Y278D01*
X844Y278D02*
X850Y278D01*
X891Y278D02*
X897Y278D01*
X2358Y278D02*
X2361Y278D01*
X0Y277D02*
X3Y277D01*
X844Y277D02*
X849Y277D01*
X891Y277D02*
X897Y277D01*
X2358Y277D02*
X2361Y277D01*
X0Y276D02*
X3Y276D01*
X845Y276D02*
X849Y276D01*
X892Y276D02*
X896Y276D01*
X2358Y276D02*
X2361Y276D01*
X0Y275D02*
X3Y275D01*
X2358Y275D02*
X2361Y275D01*
X0Y274D02*
X3Y274D01*
X2358Y274D02*
X2361Y274D01*
X0Y273D02*
X3Y273D01*
X2358Y273D02*
X2361Y273D01*
X0Y272D02*
X3Y272D01*
X2358Y272D02*
X2361Y272D01*
X0Y271D02*
X3Y271D01*
X2358Y271D02*
X2361Y271D01*
X0Y270D02*
X3Y270D01*
X2358Y270D02*
X2361Y270D01*
X0Y269D02*
X3Y269D01*
X2358Y269D02*
X2361Y269D01*
X0Y268D02*
X3Y268D01*
X2358Y268D02*
X2361Y268D01*
X0Y267D02*
X3Y267D01*
X2358Y267D02*
X2361Y267D01*
X0Y266D02*
X3Y266D01*
X2358Y266D02*
X2361Y266D01*
X0Y265D02*
X3Y265D01*
X2358Y265D02*
X2361Y265D01*
X0Y264D02*
X3Y264D01*
X2358Y264D02*
X2361Y264D01*
X0Y263D02*
X3Y263D01*
X2358Y263D02*
X2361Y263D01*
X0Y262D02*
X3Y262D01*
X2358Y262D02*
X2361Y262D01*
X0Y261D02*
X3Y261D01*
X2358Y261D02*
X2361Y261D01*
X0Y260D02*
X3Y260D01*
X2358Y260D02*
X2361Y260D01*
X0Y259D02*
X3Y259D01*
X851Y259D02*
X860Y259D01*
X893Y259D02*
X895Y259D01*
X2358Y259D02*
X2361Y259D01*
X0Y258D02*
X3Y258D01*
X849Y258D02*
X862Y258D01*
X891Y258D02*
X896Y258D01*
X2358Y258D02*
X2361Y258D01*
X0Y257D02*
X3Y257D01*
X848Y257D02*
X864Y257D01*
X889Y257D02*
X897Y257D01*
X2358Y257D02*
X2361Y257D01*
X0Y256D02*
X3Y256D01*
X847Y256D02*
X865Y256D01*
X888Y256D02*
X897Y256D01*
X2358Y256D02*
X2361Y256D01*
X0Y255D02*
X3Y255D01*
X846Y255D02*
X865Y255D01*
X886Y255D02*
X897Y255D01*
X2358Y255D02*
X2361Y255D01*
X0Y254D02*
X3Y254D01*
X845Y254D02*
X866Y254D01*
X884Y254D02*
X896Y254D01*
X2358Y254D02*
X2361Y254D01*
X0Y253D02*
X3Y253D01*
X845Y253D02*
X867Y253D01*
X882Y253D02*
X895Y253D01*
X2358Y253D02*
X2361Y253D01*
X0Y252D02*
X3Y252D01*
X844Y252D02*
X852Y252D01*
X859Y252D02*
X867Y252D01*
X881Y252D02*
X894Y252D01*
X2358Y252D02*
X2361Y252D01*
X0Y251D02*
X3Y251D01*
X844Y251D02*
X851Y251D01*
X861Y251D02*
X867Y251D01*
X879Y251D02*
X892Y251D01*
X2358Y251D02*
X2361Y251D01*
X0Y250D02*
X3Y250D01*
X844Y250D02*
X850Y250D01*
X861Y250D02*
X867Y250D01*
X877Y250D02*
X890Y250D01*
X2358Y250D02*
X2361Y250D01*
X0Y249D02*
X3Y249D01*
X844Y249D02*
X850Y249D01*
X861Y249D02*
X867Y249D01*
X876Y249D02*
X889Y249D01*
X2358Y249D02*
X2361Y249D01*
X0Y248D02*
X3Y248D01*
X844Y248D02*
X850Y248D01*
X861Y248D02*
X868Y248D01*
X874Y248D02*
X887Y248D01*
X2358Y248D02*
X2361Y248D01*
X0Y247D02*
X3Y247D01*
X844Y247D02*
X850Y247D01*
X861Y247D02*
X868Y247D01*
X872Y247D02*
X885Y247D01*
X2358Y247D02*
X2361Y247D01*
X0Y246D02*
X3Y246D01*
X844Y246D02*
X850Y246D01*
X861Y246D02*
X868Y246D01*
X870Y246D02*
X884Y246D01*
X2358Y246D02*
X2361Y246D01*
X0Y245D02*
X3Y245D01*
X844Y245D02*
X850Y245D01*
X861Y245D02*
X882Y245D01*
X2358Y245D02*
X2361Y245D01*
X0Y244D02*
X3Y244D01*
X844Y244D02*
X850Y244D01*
X861Y244D02*
X880Y244D01*
X2358Y244D02*
X2361Y244D01*
X0Y243D02*
X3Y243D01*
X844Y243D02*
X850Y243D01*
X861Y243D02*
X878Y243D01*
X2358Y243D02*
X2361Y243D01*
X0Y242D02*
X3Y242D01*
X844Y242D02*
X850Y242D01*
X861Y242D02*
X877Y242D01*
X2358Y242D02*
X2361Y242D01*
X0Y241D02*
X3Y241D01*
X844Y241D02*
X850Y241D01*
X861Y241D02*
X875Y241D01*
X2358Y241D02*
X2361Y241D01*
X0Y240D02*
X3Y240D01*
X844Y240D02*
X850Y240D01*
X861Y240D02*
X873Y240D01*
X2358Y240D02*
X2361Y240D01*
X0Y239D02*
X3Y239D01*
X844Y239D02*
X850Y239D01*
X861Y239D02*
X872Y239D01*
X2358Y239D02*
X2361Y239D01*
X0Y238D02*
X3Y238D01*
X844Y238D02*
X850Y238D01*
X861Y238D02*
X870Y238D01*
X2358Y238D02*
X2361Y238D01*
X0Y237D02*
X3Y237D01*
X844Y237D02*
X850Y237D01*
X861Y237D02*
X868Y237D01*
X2358Y237D02*
X2361Y237D01*
X0Y236D02*
X3Y236D01*
X844Y236D02*
X850Y236D01*
X861Y236D02*
X868Y236D01*
X2358Y236D02*
X2361Y236D01*
X0Y235D02*
X3Y235D01*
X844Y235D02*
X850Y235D01*
X861Y235D02*
X868Y235D01*
X2358Y235D02*
X2361Y235D01*
X0Y234D02*
X3Y234D01*
X844Y234D02*
X850Y234D01*
X861Y234D02*
X868Y234D01*
X2358Y234D02*
X2361Y234D01*
X0Y233D02*
X3Y233D01*
X844Y233D02*
X850Y233D01*
X861Y233D02*
X868Y233D01*
X2358Y233D02*
X2361Y233D01*
X0Y232D02*
X3Y232D01*
X844Y232D02*
X850Y232D01*
X861Y232D02*
X868Y232D01*
X2358Y232D02*
X2361Y232D01*
X0Y231D02*
X3Y231D01*
X844Y231D02*
X896Y231D01*
X2358Y231D02*
X2361Y231D01*
X0Y230D02*
X3Y230D01*
X844Y230D02*
X896Y230D01*
X2358Y230D02*
X2361Y230D01*
X0Y229D02*
X3Y229D01*
X844Y229D02*
X897Y229D01*
X2358Y229D02*
X2361Y229D01*
X0Y228D02*
X3Y228D01*
X844Y228D02*
X897Y228D01*
X2358Y228D02*
X2361Y228D01*
X0Y227D02*
X3Y227D01*
X844Y227D02*
X897Y227D01*
X2358Y227D02*
X2361Y227D01*
X0Y226D02*
X3Y226D01*
X844Y226D02*
X896Y226D01*
X2358Y226D02*
X2361Y226D01*
X0Y225D02*
X3Y225D01*
X844Y225D02*
X894Y225D01*
X2358Y225D02*
X2361Y225D01*
X0Y224D02*
X3Y224D01*
X2358Y224D02*
X2361Y224D01*
X0Y223D02*
X3Y223D01*
X2358Y223D02*
X2361Y223D01*
X0Y222D02*
X3Y222D01*
X2358Y222D02*
X2361Y222D01*
X0Y221D02*
X3Y221D01*
X2358Y221D02*
X2361Y221D01*
X0Y220D02*
X3Y220D01*
X2358Y220D02*
X2361Y220D01*
X0Y219D02*
X3Y219D01*
X2358Y219D02*
X2361Y219D01*
X0Y218D02*
X3Y218D01*
X2358Y218D02*
X2361Y218D01*
X0Y217D02*
X3Y217D01*
X2358Y217D02*
X2361Y217D01*
X0Y216D02*
X3Y216D01*
X2358Y216D02*
X2361Y216D01*
X0Y215D02*
X3Y215D01*
X2358Y215D02*
X2361Y215D01*
X0Y214D02*
X3Y214D01*
X2358Y214D02*
X2361Y214D01*
X0Y213D02*
X3Y213D01*
X2358Y213D02*
X2361Y213D01*
X0Y212D02*
X3Y212D01*
X2358Y212D02*
X2361Y212D01*
X0Y211D02*
X3Y211D01*
X2358Y211D02*
X2361Y211D01*
X0Y210D02*
X3Y210D01*
X2358Y210D02*
X2361Y210D01*
X0Y209D02*
X3Y209D01*
X2358Y209D02*
X2361Y209D01*
X0Y208D02*
X3Y208D01*
X2358Y208D02*
X2361Y208D01*
X0Y207D02*
X3Y207D01*
X2358Y207D02*
X2361Y207D01*
X0Y206D02*
X3Y206D01*
X2358Y206D02*
X2361Y206D01*
X0Y205D02*
X3Y205D01*
X2358Y205D02*
X2361Y205D01*
X0Y204D02*
X3Y204D01*
X2358Y204D02*
X2361Y204D01*
X0Y203D02*
X3Y203D01*
X2358Y203D02*
X2361Y203D01*
X0Y202D02*
X3Y202D01*
X2358Y202D02*
X2361Y202D01*
X0Y201D02*
X3Y201D01*
X2358Y201D02*
X2361Y201D01*
X0Y200D02*
X3Y200D01*
X629Y200D02*
X1221Y200D01*
X2358Y200D02*
X2361Y200D01*
X0Y199D02*
X3Y199D01*
X629Y199D02*
X1221Y199D01*
X2358Y199D02*
X2361Y199D01*
X0Y198D02*
X3Y198D01*
X629Y198D02*
X1221Y198D01*
X2358Y198D02*
X2361Y198D01*
X0Y197D02*
X3Y197D01*
X629Y197D02*
X1221Y197D01*
X2358Y197D02*
X2361Y197D01*
X0Y196D02*
X3Y196D01*
X629Y196D02*
X632Y196D01*
X1218Y196D02*
X1221Y196D01*
X2358Y196D02*
X2361Y196D01*
X0Y195D02*
X3Y195D01*
X629Y195D02*
X632Y195D01*
X1218Y195D02*
X1221Y195D01*
X2358Y195D02*
X2361Y195D01*
X0Y194D02*
X3Y194D01*
X629Y194D02*
X632Y194D01*
X1218Y194D02*
X1221Y194D01*
X2358Y194D02*
X2361Y194D01*
X0Y193D02*
X3Y193D01*
X629Y193D02*
X632Y193D01*
X1218Y193D02*
X1221Y193D01*
X2358Y193D02*
X2361Y193D01*
X0Y192D02*
X3Y192D01*
X629Y192D02*
X632Y192D01*
X1218Y192D02*
X1221Y192D01*
X2358Y192D02*
X2361Y192D01*
X0Y191D02*
X3Y191D01*
X629Y191D02*
X632Y191D01*
X1218Y191D02*
X1221Y191D01*
X2358Y191D02*
X2361Y191D01*
X0Y190D02*
X3Y190D01*
X629Y190D02*
X632Y190D01*
X1218Y190D02*
X1221Y190D01*
X2358Y190D02*
X2361Y190D01*
X0Y189D02*
X3Y189D01*
X629Y189D02*
X632Y189D01*
X1218Y189D02*
X1221Y189D01*
X2358Y189D02*
X2361Y189D01*
X0Y188D02*
X3Y188D01*
X629Y188D02*
X632Y188D01*
X1218Y188D02*
X1221Y188D01*
X2358Y188D02*
X2361Y188D01*
X0Y187D02*
X3Y187D01*
X629Y187D02*
X632Y187D01*
X1218Y187D02*
X1221Y187D01*
X2358Y187D02*
X2361Y187D01*
X0Y186D02*
X3Y186D01*
X629Y186D02*
X632Y186D01*
X1218Y186D02*
X1221Y186D01*
X2358Y186D02*
X2361Y186D01*
X0Y185D02*
X3Y185D01*
X629Y185D02*
X632Y185D01*
X1218Y185D02*
X1221Y185D01*
X2358Y185D02*
X2361Y185D01*
X0Y184D02*
X3Y184D01*
X629Y184D02*
X632Y184D01*
X1218Y184D02*
X1221Y184D01*
X2358Y184D02*
X2361Y184D01*
X0Y183D02*
X3Y183D01*
X629Y183D02*
X632Y183D01*
X1218Y183D02*
X1221Y183D01*
X2358Y183D02*
X2361Y183D01*
X0Y182D02*
X3Y182D01*
X629Y182D02*
X632Y182D01*
X1218Y182D02*
X1221Y182D01*
X2358Y182D02*
X2361Y182D01*
X0Y181D02*
X3Y181D01*
X629Y181D02*
X632Y181D01*
X1218Y181D02*
X1221Y181D01*
X2358Y181D02*
X2361Y181D01*
X0Y180D02*
X3Y180D01*
X629Y180D02*
X632Y180D01*
X1218Y180D02*
X1221Y180D01*
X2358Y180D02*
X2361Y180D01*
X0Y179D02*
X3Y179D01*
X629Y179D02*
X632Y179D01*
X1218Y179D02*
X1221Y179D01*
X2358Y179D02*
X2361Y179D01*
X0Y178D02*
X3Y178D01*
X629Y178D02*
X632Y178D01*
X1218Y178D02*
X1221Y178D01*
X2358Y178D02*
X2361Y178D01*
X0Y177D02*
X3Y177D01*
X629Y177D02*
X632Y177D01*
X1218Y177D02*
X1221Y177D01*
X2358Y177D02*
X2361Y177D01*
X0Y176D02*
X3Y176D01*
X629Y176D02*
X632Y176D01*
X1218Y176D02*
X1221Y176D01*
X2358Y176D02*
X2361Y176D01*
X0Y175D02*
X3Y175D01*
X629Y175D02*
X632Y175D01*
X1218Y175D02*
X1221Y175D01*
X2358Y175D02*
X2361Y175D01*
X0Y174D02*
X3Y174D01*
X629Y174D02*
X632Y174D01*
X1218Y174D02*
X1221Y174D01*
X2358Y174D02*
X2361Y174D01*
X0Y173D02*
X3Y173D01*
X629Y173D02*
X632Y173D01*
X1218Y173D02*
X1221Y173D01*
X2358Y173D02*
X2361Y173D01*
X0Y172D02*
X3Y172D01*
X629Y172D02*
X632Y172D01*
X1218Y172D02*
X1221Y172D01*
X2358Y172D02*
X2361Y172D01*
X0Y171D02*
X3Y171D01*
X629Y171D02*
X632Y171D01*
X1218Y171D02*
X1221Y171D01*
X2358Y171D02*
X2361Y171D01*
X0Y170D02*
X3Y170D01*
X629Y170D02*
X632Y170D01*
X1218Y170D02*
X1221Y170D01*
X2358Y170D02*
X2361Y170D01*
X0Y169D02*
X3Y169D01*
X629Y169D02*
X632Y169D01*
X1218Y169D02*
X1221Y169D01*
X2358Y169D02*
X2361Y169D01*
X0Y168D02*
X3Y168D01*
X629Y168D02*
X632Y168D01*
X1218Y168D02*
X1221Y168D01*
X2358Y168D02*
X2361Y168D01*
X0Y167D02*
X3Y167D01*
X629Y167D02*
X632Y167D01*
X1218Y167D02*
X1221Y167D01*
X2358Y167D02*
X2361Y167D01*
X0Y166D02*
X3Y166D01*
X629Y166D02*
X632Y166D01*
X1218Y166D02*
X1221Y166D01*
X2358Y166D02*
X2361Y166D01*
X0Y165D02*
X3Y165D01*
X629Y165D02*
X632Y165D01*
X1218Y165D02*
X1221Y165D01*
X2358Y165D02*
X2361Y165D01*
X0Y164D02*
X3Y164D01*
X629Y164D02*
X632Y164D01*
X1218Y164D02*
X1221Y164D01*
X2358Y164D02*
X2361Y164D01*
X0Y163D02*
X3Y163D01*
X629Y163D02*
X632Y163D01*
X1218Y163D02*
X1221Y163D01*
X2358Y163D02*
X2361Y163D01*
X0Y162D02*
X3Y162D01*
X629Y162D02*
X632Y162D01*
X1218Y162D02*
X1221Y162D01*
X2358Y162D02*
X2361Y162D01*
X0Y161D02*
X3Y161D01*
X629Y161D02*
X632Y161D01*
X1218Y161D02*
X1221Y161D01*
X2358Y161D02*
X2361Y161D01*
X0Y160D02*
X3Y160D01*
X629Y160D02*
X632Y160D01*
X1218Y160D02*
X1221Y160D01*
X2358Y160D02*
X2361Y160D01*
X0Y159D02*
X3Y159D01*
X629Y159D02*
X632Y159D01*
X1218Y159D02*
X1221Y159D01*
X2358Y159D02*
X2361Y159D01*
X0Y158D02*
X3Y158D01*
X629Y158D02*
X632Y158D01*
X1218Y158D02*
X1221Y158D01*
X2358Y158D02*
X2361Y158D01*
X0Y157D02*
X3Y157D01*
X629Y157D02*
X632Y157D01*
X1218Y157D02*
X1221Y157D01*
X2358Y157D02*
X2361Y157D01*
X0Y156D02*
X3Y156D01*
X629Y156D02*
X632Y156D01*
X1218Y156D02*
X1221Y156D01*
X2358Y156D02*
X2361Y156D01*
X0Y155D02*
X3Y155D01*
X629Y155D02*
X632Y155D01*
X1218Y155D02*
X1221Y155D01*
X2358Y155D02*
X2361Y155D01*
X0Y154D02*
X3Y154D01*
X629Y154D02*
X632Y154D01*
X1218Y154D02*
X1221Y154D01*
X2358Y154D02*
X2361Y154D01*
X0Y153D02*
X3Y153D01*
X629Y153D02*
X632Y153D01*
X1218Y153D02*
X1221Y153D01*
X2358Y153D02*
X2361Y153D01*
X0Y152D02*
X3Y152D01*
X629Y152D02*
X632Y152D01*
X1218Y152D02*
X1221Y152D01*
X2358Y152D02*
X2361Y152D01*
X0Y151D02*
X3Y151D01*
X629Y151D02*
X632Y151D01*
X1218Y151D02*
X1221Y151D01*
X2358Y151D02*
X2361Y151D01*
X0Y150D02*
X3Y150D01*
X629Y150D02*
X632Y150D01*
X1218Y150D02*
X1221Y150D01*
X2358Y150D02*
X2361Y150D01*
X0Y149D02*
X3Y149D01*
X629Y149D02*
X632Y149D01*
X1218Y149D02*
X1221Y149D01*
X2358Y149D02*
X2361Y149D01*
X0Y148D02*
X3Y148D01*
X629Y148D02*
X632Y148D01*
X1218Y148D02*
X1221Y148D01*
X2358Y148D02*
X2361Y148D01*
X0Y147D02*
X3Y147D01*
X629Y147D02*
X632Y147D01*
X1218Y147D02*
X1221Y147D01*
X2358Y147D02*
X2361Y147D01*
X0Y146D02*
X3Y146D01*
X629Y146D02*
X632Y146D01*
X1218Y146D02*
X1221Y146D01*
X2358Y146D02*
X2361Y146D01*
X0Y145D02*
X3Y145D01*
X629Y145D02*
X632Y145D01*
X1218Y145D02*
X1221Y145D01*
X2358Y145D02*
X2361Y145D01*
X0Y144D02*
X3Y144D01*
X629Y144D02*
X632Y144D01*
X1218Y144D02*
X1221Y144D01*
X2358Y144D02*
X2361Y144D01*
X0Y143D02*
X3Y143D01*
X629Y143D02*
X632Y143D01*
X1218Y143D02*
X1221Y143D01*
X2358Y143D02*
X2361Y143D01*
X0Y142D02*
X3Y142D01*
X629Y142D02*
X632Y142D01*
X1218Y142D02*
X1221Y142D01*
X2358Y142D02*
X2361Y142D01*
X0Y141D02*
X3Y141D01*
X629Y141D02*
X632Y141D01*
X1218Y141D02*
X1221Y141D01*
X2358Y141D02*
X2361Y141D01*
X0Y140D02*
X3Y140D01*
X629Y140D02*
X632Y140D01*
X1218Y140D02*
X1221Y140D01*
X2358Y140D02*
X2361Y140D01*
X0Y139D02*
X3Y139D01*
X629Y139D02*
X632Y139D01*
X1218Y139D02*
X1221Y139D01*
X2358Y139D02*
X2361Y139D01*
X0Y138D02*
X3Y138D01*
X629Y138D02*
X632Y138D01*
X1218Y138D02*
X1221Y138D01*
X2358Y138D02*
X2361Y138D01*
X0Y137D02*
X3Y137D01*
X629Y137D02*
X632Y137D01*
X1218Y137D02*
X1221Y137D01*
X2358Y137D02*
X2361Y137D01*
X0Y136D02*
X3Y136D01*
X629Y136D02*
X632Y136D01*
X1218Y136D02*
X1221Y136D01*
X2358Y136D02*
X2361Y136D01*
X0Y135D02*
X3Y135D01*
X629Y135D02*
X632Y135D01*
X1218Y135D02*
X1221Y135D01*
X2358Y135D02*
X2361Y135D01*
X0Y134D02*
X3Y134D01*
X629Y134D02*
X632Y134D01*
X1218Y134D02*
X1221Y134D01*
X2358Y134D02*
X2361Y134D01*
X0Y133D02*
X3Y133D01*
X629Y133D02*
X632Y133D01*
X1218Y133D02*
X1221Y133D01*
X2358Y133D02*
X2361Y133D01*
X0Y132D02*
X3Y132D01*
X629Y132D02*
X632Y132D01*
X1218Y132D02*
X1221Y132D01*
X2358Y132D02*
X2361Y132D01*
X0Y131D02*
X3Y131D01*
X629Y131D02*
X632Y131D01*
X1218Y131D02*
X1221Y131D01*
X2358Y131D02*
X2361Y131D01*
X0Y130D02*
X3Y130D01*
X629Y130D02*
X632Y130D01*
X1218Y130D02*
X1221Y130D01*
X2358Y130D02*
X2361Y130D01*
X0Y129D02*
X3Y129D01*
X629Y129D02*
X632Y129D01*
X1218Y129D02*
X1221Y129D01*
X2358Y129D02*
X2361Y129D01*
X0Y128D02*
X3Y128D01*
X629Y128D02*
X632Y128D01*
X1218Y128D02*
X1221Y128D01*
X2358Y128D02*
X2361Y128D01*
X0Y127D02*
X3Y127D01*
X629Y127D02*
X632Y127D01*
X1218Y127D02*
X1221Y127D01*
X2358Y127D02*
X2361Y127D01*
X0Y126D02*
X3Y126D01*
X629Y126D02*
X632Y126D01*
X1218Y126D02*
X1221Y126D01*
X2358Y126D02*
X2361Y126D01*
X0Y125D02*
X3Y125D01*
X629Y125D02*
X632Y125D01*
X1218Y125D02*
X1221Y125D01*
X2358Y125D02*
X2361Y125D01*
X0Y124D02*
X3Y124D01*
X629Y124D02*
X632Y124D01*
X1218Y124D02*
X1221Y124D01*
X2358Y124D02*
X2361Y124D01*
X0Y123D02*
X3Y123D01*
X629Y123D02*
X632Y123D01*
X1218Y123D02*
X1221Y123D01*
X2358Y123D02*
X2361Y123D01*
X0Y122D02*
X3Y122D01*
X629Y122D02*
X632Y122D01*
X1218Y122D02*
X1221Y122D01*
X2358Y122D02*
X2361Y122D01*
X0Y121D02*
X3Y121D01*
X629Y121D02*
X632Y121D01*
X1218Y121D02*
X1221Y121D01*
X2358Y121D02*
X2361Y121D01*
X0Y120D02*
X3Y120D01*
X629Y120D02*
X632Y120D01*
X1218Y120D02*
X1221Y120D01*
X2358Y120D02*
X2361Y120D01*
X0Y119D02*
X3Y119D01*
X629Y119D02*
X632Y119D01*
X1218Y119D02*
X1221Y119D01*
X2358Y119D02*
X2361Y119D01*
X0Y118D02*
X3Y118D01*
X629Y118D02*
X632Y118D01*
X1218Y118D02*
X1221Y118D01*
X2358Y118D02*
X2361Y118D01*
X0Y117D02*
X3Y117D01*
X629Y117D02*
X632Y117D01*
X1218Y117D02*
X1221Y117D01*
X2358Y117D02*
X2361Y117D01*
X0Y116D02*
X3Y116D01*
X629Y116D02*
X632Y116D01*
X1218Y116D02*
X1221Y116D01*
X2358Y116D02*
X2361Y116D01*
X0Y115D02*
X3Y115D01*
X629Y115D02*
X632Y115D01*
X1218Y115D02*
X1221Y115D01*
X2358Y115D02*
X2361Y115D01*
X0Y114D02*
X3Y114D01*
X629Y114D02*
X632Y114D01*
X1218Y114D02*
X1221Y114D01*
X2358Y114D02*
X2361Y114D01*
X0Y113D02*
X3Y113D01*
X629Y113D02*
X632Y113D01*
X1218Y113D02*
X1221Y113D01*
X2358Y113D02*
X2361Y113D01*
X0Y112D02*
X3Y112D01*
X629Y112D02*
X632Y112D01*
X1218Y112D02*
X1221Y112D01*
X2358Y112D02*
X2361Y112D01*
X0Y111D02*
X3Y111D01*
X629Y111D02*
X632Y111D01*
X1218Y111D02*
X1221Y111D01*
X2358Y111D02*
X2361Y111D01*
X0Y110D02*
X3Y110D01*
X629Y110D02*
X632Y110D01*
X1218Y110D02*
X1221Y110D01*
X2358Y110D02*
X2361Y110D01*
X0Y109D02*
X3Y109D01*
X629Y109D02*
X632Y109D01*
X1218Y109D02*
X1221Y109D01*
X2358Y109D02*
X2361Y109D01*
X0Y108D02*
X3Y108D01*
X629Y108D02*
X632Y108D01*
X1218Y108D02*
X1221Y108D01*
X2358Y108D02*
X2361Y108D01*
X0Y107D02*
X3Y107D01*
X629Y107D02*
X632Y107D01*
X1218Y107D02*
X1221Y107D01*
X2358Y107D02*
X2361Y107D01*
X0Y106D02*
X3Y106D01*
X629Y106D02*
X632Y106D01*
X1218Y106D02*
X1221Y106D01*
X2358Y106D02*
X2361Y106D01*
X0Y105D02*
X3Y105D01*
X629Y105D02*
X632Y105D01*
X1218Y105D02*
X1221Y105D01*
X2358Y105D02*
X2361Y105D01*
X0Y104D02*
X3Y104D01*
X629Y104D02*
X632Y104D01*
X1218Y104D02*
X1221Y104D01*
X2358Y104D02*
X2361Y104D01*
X0Y103D02*
X3Y103D01*
X629Y103D02*
X632Y103D01*
X1218Y103D02*
X1221Y103D01*
X2358Y103D02*
X2361Y103D01*
X0Y102D02*
X3Y102D01*
X629Y102D02*
X632Y102D01*
X1218Y102D02*
X1221Y102D01*
X2358Y102D02*
X2361Y102D01*
X0Y101D02*
X3Y101D01*
X629Y101D02*
X632Y101D01*
X1218Y101D02*
X1221Y101D01*
X2358Y101D02*
X2361Y101D01*
X0Y100D02*
X3Y100D01*
X629Y100D02*
X632Y100D01*
X1218Y100D02*
X1221Y100D01*
X2358Y100D02*
X2361Y100D01*
X0Y99D02*
X3Y99D01*
X629Y99D02*
X632Y99D01*
X1218Y99D02*
X1221Y99D01*
X2358Y99D02*
X2361Y99D01*
X0Y98D02*
X3Y98D01*
X629Y98D02*
X632Y98D01*
X1218Y98D02*
X1221Y98D01*
X2358Y98D02*
X2361Y98D01*
X0Y97D02*
X3Y97D01*
X629Y97D02*
X632Y97D01*
X1218Y97D02*
X1221Y97D01*
X2358Y97D02*
X2361Y97D01*
X0Y96D02*
X3Y96D01*
X629Y96D02*
X632Y96D01*
X1218Y96D02*
X1221Y96D01*
X2358Y96D02*
X2361Y96D01*
X0Y95D02*
X3Y95D01*
X629Y95D02*
X632Y95D01*
X1218Y95D02*
X1221Y95D01*
X2358Y95D02*
X2361Y95D01*
X0Y94D02*
X3Y94D01*
X629Y94D02*
X632Y94D01*
X1218Y94D02*
X1221Y94D01*
X2358Y94D02*
X2361Y94D01*
X0Y93D02*
X3Y93D01*
X629Y93D02*
X632Y93D01*
X1218Y93D02*
X1221Y93D01*
X2358Y93D02*
X2361Y93D01*
X0Y92D02*
X3Y92D01*
X629Y92D02*
X632Y92D01*
X1218Y92D02*
X1221Y92D01*
X2358Y92D02*
X2361Y92D01*
X0Y91D02*
X3Y91D01*
X629Y91D02*
X632Y91D01*
X1218Y91D02*
X1221Y91D01*
X2358Y91D02*
X2361Y91D01*
X0Y90D02*
X3Y90D01*
X629Y90D02*
X632Y90D01*
X1218Y90D02*
X1221Y90D01*
X2358Y90D02*
X2361Y90D01*
X0Y89D02*
X3Y89D01*
X629Y89D02*
X632Y89D01*
X1218Y89D02*
X1221Y89D01*
X2358Y89D02*
X2361Y89D01*
X0Y88D02*
X3Y88D01*
X629Y88D02*
X632Y88D01*
X1218Y88D02*
X1221Y88D01*
X2358Y88D02*
X2361Y88D01*
X0Y87D02*
X3Y87D01*
X629Y87D02*
X632Y87D01*
X1218Y87D02*
X1221Y87D01*
X2358Y87D02*
X2361Y87D01*
X0Y86D02*
X3Y86D01*
X629Y86D02*
X632Y86D01*
X1218Y86D02*
X1221Y86D01*
X2358Y86D02*
X2361Y86D01*
X0Y85D02*
X3Y85D01*
X629Y85D02*
X632Y85D01*
X1218Y85D02*
X1221Y85D01*
X2358Y85D02*
X2361Y85D01*
X0Y84D02*
X3Y84D01*
X629Y84D02*
X632Y84D01*
X1218Y84D02*
X1221Y84D01*
X2358Y84D02*
X2361Y84D01*
X0Y83D02*
X3Y83D01*
X629Y83D02*
X632Y83D01*
X1218Y83D02*
X1221Y83D01*
X2358Y83D02*
X2361Y83D01*
X0Y82D02*
X3Y82D01*
X629Y82D02*
X632Y82D01*
X1218Y82D02*
X1221Y82D01*
X2358Y82D02*
X2361Y82D01*
X0Y81D02*
X3Y81D01*
X629Y81D02*
X632Y81D01*
X1218Y81D02*
X1221Y81D01*
X2358Y81D02*
X2361Y81D01*
X0Y80D02*
X3Y80D01*
X629Y80D02*
X632Y80D01*
X1218Y80D02*
X1221Y80D01*
X2358Y80D02*
X2361Y80D01*
X0Y79D02*
X3Y79D01*
X629Y79D02*
X632Y79D01*
X1218Y79D02*
X1221Y79D01*
X2358Y79D02*
X2361Y79D01*
X0Y78D02*
X3Y78D01*
X629Y78D02*
X632Y78D01*
X1218Y78D02*
X1221Y78D01*
X2358Y78D02*
X2361Y78D01*
X0Y77D02*
X3Y77D01*
X629Y77D02*
X632Y77D01*
X1218Y77D02*
X1221Y77D01*
X2358Y77D02*
X2361Y77D01*
X0Y76D02*
X3Y76D01*
X629Y76D02*
X632Y76D01*
X1218Y76D02*
X1221Y76D01*
X2358Y76D02*
X2361Y76D01*
X0Y75D02*
X3Y75D01*
X629Y75D02*
X632Y75D01*
X1218Y75D02*
X1221Y75D01*
X2358Y75D02*
X2361Y75D01*
X0Y74D02*
X3Y74D01*
X629Y74D02*
X632Y74D01*
X1218Y74D02*
X1221Y74D01*
X2358Y74D02*
X2361Y74D01*
X0Y73D02*
X3Y73D01*
X629Y73D02*
X632Y73D01*
X1218Y73D02*
X1221Y73D01*
X2358Y73D02*
X2361Y73D01*
X0Y72D02*
X3Y72D01*
X629Y72D02*
X632Y72D01*
X1218Y72D02*
X1221Y72D01*
X2358Y72D02*
X2361Y72D01*
X0Y71D02*
X3Y71D01*
X629Y71D02*
X632Y71D01*
X1218Y71D02*
X1221Y71D01*
X2358Y71D02*
X2361Y71D01*
X0Y70D02*
X3Y70D01*
X629Y70D02*
X632Y70D01*
X1218Y70D02*
X1221Y70D01*
X2358Y70D02*
X2361Y70D01*
X0Y69D02*
X3Y69D01*
X629Y69D02*
X632Y69D01*
X1218Y69D02*
X1221Y69D01*
X2358Y69D02*
X2361Y69D01*
X0Y68D02*
X3Y68D01*
X629Y68D02*
X632Y68D01*
X1218Y68D02*
X1221Y68D01*
X2358Y68D02*
X2361Y68D01*
X0Y67D02*
X3Y67D01*
X629Y67D02*
X632Y67D01*
X1218Y67D02*
X1221Y67D01*
X2358Y67D02*
X2361Y67D01*
X0Y66D02*
X3Y66D01*
X629Y66D02*
X632Y66D01*
X1218Y66D02*
X1221Y66D01*
X2358Y66D02*
X2361Y66D01*
X0Y65D02*
X3Y65D01*
X629Y65D02*
X632Y65D01*
X1218Y65D02*
X1221Y65D01*
X2358Y65D02*
X2361Y65D01*
X0Y64D02*
X3Y64D01*
X629Y64D02*
X632Y64D01*
X1218Y64D02*
X1221Y64D01*
X2358Y64D02*
X2361Y64D01*
X0Y63D02*
X3Y63D01*
X629Y63D02*
X632Y63D01*
X1218Y63D02*
X1221Y63D01*
X2358Y63D02*
X2361Y63D01*
X0Y62D02*
X3Y62D01*
X629Y62D02*
X632Y62D01*
X1218Y62D02*
X1221Y62D01*
X2358Y62D02*
X2361Y62D01*
X0Y61D02*
X3Y61D01*
X629Y61D02*
X632Y61D01*
X1218Y61D02*
X1221Y61D01*
X2358Y61D02*
X2361Y61D01*
X0Y60D02*
X3Y60D01*
X629Y60D02*
X632Y60D01*
X1218Y60D02*
X1221Y60D01*
X2358Y60D02*
X2361Y60D01*
X0Y59D02*
X3Y59D01*
X629Y59D02*
X632Y59D01*
X1218Y59D02*
X1221Y59D01*
X2358Y59D02*
X2361Y59D01*
X0Y58D02*
X3Y58D01*
X629Y58D02*
X632Y58D01*
X1218Y58D02*
X1221Y58D01*
X2358Y58D02*
X2361Y58D01*
X0Y57D02*
X3Y57D01*
X629Y57D02*
X632Y57D01*
X1218Y57D02*
X1221Y57D01*
X2358Y57D02*
X2361Y57D01*
X0Y56D02*
X3Y56D01*
X629Y56D02*
X632Y56D01*
X1218Y56D02*
X1221Y56D01*
X2358Y56D02*
X2361Y56D01*
X0Y55D02*
X3Y55D01*
X629Y55D02*
X632Y55D01*
X1218Y55D02*
X1221Y55D01*
X2358Y55D02*
X2361Y55D01*
X0Y54D02*
X3Y54D01*
X629Y54D02*
X632Y54D01*
X1218Y54D02*
X1221Y54D01*
X2358Y54D02*
X2361Y54D01*
X0Y53D02*
X3Y53D01*
X629Y53D02*
X632Y53D01*
X1218Y53D02*
X1221Y53D01*
X2358Y53D02*
X2361Y53D01*
X0Y52D02*
X3Y52D01*
X629Y52D02*
X632Y52D01*
X1218Y52D02*
X1221Y52D01*
X2358Y52D02*
X2361Y52D01*
X0Y51D02*
X3Y51D01*
X629Y51D02*
X632Y51D01*
X1218Y51D02*
X1221Y51D01*
X2358Y51D02*
X2361Y51D01*
X0Y50D02*
X3Y50D01*
X629Y50D02*
X632Y50D01*
X1218Y50D02*
X1221Y50D01*
X2358Y50D02*
X2361Y50D01*
X0Y49D02*
X3Y49D01*
X629Y49D02*
X632Y49D01*
X1218Y49D02*
X1221Y49D01*
X2358Y49D02*
X2361Y49D01*
X0Y48D02*
X3Y48D01*
X629Y48D02*
X632Y48D01*
X1218Y48D02*
X1221Y48D01*
X2358Y48D02*
X2361Y48D01*
X0Y47D02*
X3Y47D01*
X629Y47D02*
X632Y47D01*
X1218Y47D02*
X1221Y47D01*
X2358Y47D02*
X2361Y47D01*
X0Y46D02*
X3Y46D01*
X629Y46D02*
X632Y46D01*
X1218Y46D02*
X1221Y46D01*
X2358Y46D02*
X2361Y46D01*
X0Y45D02*
X3Y45D01*
X629Y45D02*
X632Y45D01*
X1218Y45D02*
X1221Y45D01*
X2358Y45D02*
X2361Y45D01*
X0Y44D02*
X3Y44D01*
X629Y44D02*
X632Y44D01*
X1218Y44D02*
X1221Y44D01*
X2358Y44D02*
X2361Y44D01*
X0Y43D02*
X3Y43D01*
X629Y43D02*
X632Y43D01*
X1218Y43D02*
X1221Y43D01*
X2358Y43D02*
X2361Y43D01*
X0Y42D02*
X3Y42D01*
X629Y42D02*
X632Y42D01*
X1218Y42D02*
X1221Y42D01*
X2358Y42D02*
X2361Y42D01*
X0Y41D02*
X3Y41D01*
X629Y41D02*
X632Y41D01*
X1218Y41D02*
X1221Y41D01*
X2358Y41D02*
X2361Y41D01*
X0Y40D02*
X3Y40D01*
X629Y40D02*
X632Y40D01*
X1218Y40D02*
X1221Y40D01*
X2358Y40D02*
X2361Y40D01*
X0Y39D02*
X3Y39D01*
X629Y39D02*
X632Y39D01*
X1218Y39D02*
X1221Y39D01*
X2358Y39D02*
X2361Y39D01*
X0Y38D02*
X3Y38D01*
X629Y38D02*
X632Y38D01*
X1218Y38D02*
X1221Y38D01*
X2358Y38D02*
X2361Y38D01*
X0Y37D02*
X3Y37D01*
X629Y37D02*
X632Y37D01*
X1218Y37D02*
X1221Y37D01*
X2358Y37D02*
X2361Y37D01*
X0Y36D02*
X3Y36D01*
X629Y36D02*
X632Y36D01*
X1218Y36D02*
X1221Y36D01*
X2358Y36D02*
X2361Y36D01*
X0Y35D02*
X3Y35D01*
X629Y35D02*
X632Y35D01*
X1218Y35D02*
X1221Y35D01*
X2358Y35D02*
X2361Y35D01*
X0Y34D02*
X3Y34D01*
X629Y34D02*
X632Y34D01*
X1218Y34D02*
X1221Y34D01*
X2358Y34D02*
X2361Y34D01*
X0Y33D02*
X3Y33D01*
X629Y33D02*
X632Y33D01*
X1218Y33D02*
X1221Y33D01*
X2358Y33D02*
X2361Y33D01*
X0Y32D02*
X3Y32D01*
X629Y32D02*
X632Y32D01*
X1218Y32D02*
X1221Y32D01*
X2358Y32D02*
X2361Y32D01*
X0Y31D02*
X3Y31D01*
X629Y31D02*
X632Y31D01*
X1218Y31D02*
X1221Y31D01*
X2358Y31D02*
X2361Y31D01*
X0Y30D02*
X3Y30D01*
X629Y30D02*
X632Y30D01*
X1218Y30D02*
X1221Y30D01*
X2358Y30D02*
X2361Y30D01*
X0Y29D02*
X3Y29D01*
X629Y29D02*
X632Y29D01*
X1218Y29D02*
X1221Y29D01*
X2358Y29D02*
X2361Y29D01*
X0Y28D02*
X3Y28D01*
X629Y28D02*
X632Y28D01*
X1218Y28D02*
X1221Y28D01*
X2358Y28D02*
X2361Y28D01*
X0Y27D02*
X3Y27D01*
X629Y27D02*
X632Y27D01*
X1218Y27D02*
X1221Y27D01*
X2358Y27D02*
X2361Y27D01*
X0Y26D02*
X3Y26D01*
X629Y26D02*
X632Y26D01*
X1218Y26D02*
X1221Y26D01*
X2358Y26D02*
X2361Y26D01*
X0Y25D02*
X3Y25D01*
X629Y25D02*
X632Y25D01*
X1218Y25D02*
X1221Y25D01*
X2358Y25D02*
X2361Y25D01*
X0Y24D02*
X3Y24D01*
X629Y24D02*
X632Y24D01*
X1218Y24D02*
X1221Y24D01*
X2358Y24D02*
X2361Y24D01*
X0Y23D02*
X3Y23D01*
X629Y23D02*
X632Y23D01*
X1218Y23D02*
X1221Y23D01*
X2358Y23D02*
X2361Y23D01*
X0Y22D02*
X3Y22D01*
X629Y22D02*
X632Y22D01*
X1218Y22D02*
X1221Y22D01*
X2358Y22D02*
X2361Y22D01*
X0Y21D02*
X3Y21D01*
X629Y21D02*
X632Y21D01*
X1218Y21D02*
X1221Y21D01*
X2358Y21D02*
X2361Y21D01*
X0Y20D02*
X3Y20D01*
X629Y20D02*
X632Y20D01*
X1218Y20D02*
X1221Y20D01*
X2358Y20D02*
X2361Y20D01*
X0Y19D02*
X3Y19D01*
X629Y19D02*
X632Y19D01*
X1218Y19D02*
X1221Y19D01*
X2358Y19D02*
X2361Y19D01*
X0Y18D02*
X3Y18D01*
X629Y18D02*
X632Y18D01*
X1218Y18D02*
X1221Y18D01*
X2358Y18D02*
X2361Y18D01*
X0Y17D02*
X3Y17D01*
X629Y17D02*
X632Y17D01*
X1218Y17D02*
X1221Y17D01*
X2358Y17D02*
X2361Y17D01*
X0Y16D02*
X3Y16D01*
X629Y16D02*
X632Y16D01*
X1218Y16D02*
X1221Y16D01*
X2358Y16D02*
X2361Y16D01*
X0Y15D02*
X3Y15D01*
X629Y15D02*
X632Y15D01*
X1218Y15D02*
X1221Y15D01*
X2358Y15D02*
X2361Y15D01*
X0Y14D02*
X3Y14D01*
X629Y14D02*
X632Y14D01*
X1218Y14D02*
X1221Y14D01*
X2358Y14D02*
X2361Y14D01*
X0Y13D02*
X3Y13D01*
X629Y13D02*
X632Y13D01*
X1218Y13D02*
X1221Y13D01*
X2358Y13D02*
X2361Y13D01*
X0Y12D02*
X3Y12D01*
X629Y12D02*
X632Y12D01*
X1218Y12D02*
X1221Y12D01*
X2358Y12D02*
X2361Y12D01*
X0Y11D02*
X3Y11D01*
X629Y11D02*
X632Y11D01*
X1218Y11D02*
X1221Y11D01*
X2358Y11D02*
X2361Y11D01*
X0Y10D02*
X3Y10D01*
X629Y10D02*
X632Y10D01*
X1218Y10D02*
X1221Y10D01*
X2358Y10D02*
X2361Y10D01*
X0Y9D02*
X3Y9D01*
X629Y9D02*
X632Y9D01*
X1218Y9D02*
X1221Y9D01*
X2358Y9D02*
X2361Y9D01*
X0Y8D02*
X3Y8D01*
X629Y8D02*
X632Y8D01*
X1218Y8D02*
X1221Y8D01*
X2358Y8D02*
X2361Y8D01*
X0Y7D02*
X3Y7D01*
X629Y7D02*
X632Y7D01*
X1218Y7D02*
X1221Y7D01*
X2358Y7D02*
X2361Y7D01*
X0Y6D02*
X3Y6D01*
X629Y6D02*
X632Y6D01*
X1218Y6D02*
X1221Y6D01*
X2358Y6D02*
X2361Y6D01*
X0Y5D02*
X3Y5D01*
X629Y5D02*
X632Y5D01*
X1218Y5D02*
X1221Y5D01*
X2358Y5D02*
X2361Y5D01*
X0Y4D02*
X632Y4D01*
X1218Y4D02*
X2361Y4D01*
X0Y3D02*
X632Y3D01*
X1218Y3D02*
X2361Y3D01*
X0Y2D02*
X632Y2D01*
X1218Y2D02*
X2361Y2D01*
X0Y1D02*
X632Y1D01*
X1218Y1D02*
X2361Y1D01*
D02*
G04 End of Silk1*
M02*