G04 MADE WITH FRITZING*
G04 WWW.FRITZING.ORG*
G04 DOUBLE SIDED*
G04 HOLES PLATED*
G04 CONTOUR ON CENTER OF CONTOUR VECTOR*
%ASAXBY*%
%FSLAX23Y23*%
%MOIN*%
%OFA0B0*%
%SFA1.0B1.0*%
%ADD10C,0.075000*%
%ADD11C,0.078000*%
%ADD12C,0.024000*%
%LNCOPPER1*%
G90*
G70*
G54D10*
X1275Y669D03*
X1675Y669D03*
G54D11*
X2075Y669D03*
X1975Y669D03*
X1875Y669D03*
X1075Y669D03*
X975Y669D03*
X875Y669D03*
X775Y669D03*
X675Y669D03*
X575Y669D03*
G54D10*
X431Y69D03*
X175Y69D03*
X431Y247D03*
X175Y247D03*
X1675Y69D03*
X1419Y69D03*
X1675Y247D03*
X1419Y247D03*
X2131Y69D03*
X1875Y69D03*
X2131Y247D03*
X1875Y247D03*
X675Y369D03*
X1075Y369D03*
G54D12*
X175Y669D02*
X545Y669D01*
D02*
X175Y275D02*
X175Y669D01*
D02*
X1105Y669D02*
X1247Y669D01*
D02*
X1845Y669D02*
X1704Y669D01*
D02*
X1875Y569D02*
X1875Y275D01*
D02*
X975Y569D02*
X1875Y569D01*
D02*
X975Y639D02*
X975Y569D01*
D02*
X675Y639D02*
X675Y398D01*
D02*
X1975Y869D02*
X675Y869D01*
D02*
X675Y869D02*
X675Y699D01*
D02*
X1975Y699D02*
X1975Y869D01*
D02*
X475Y169D02*
X475Y69D01*
D02*
X575Y169D02*
X475Y169D01*
D02*
X575Y269D02*
X575Y169D01*
D02*
X475Y69D02*
X460Y69D01*
D02*
X1075Y269D02*
X575Y269D01*
D02*
X1275Y269D02*
X1275Y169D01*
D02*
X1375Y69D02*
X1391Y69D01*
D02*
X1075Y269D02*
X1275Y269D01*
D02*
X1375Y169D02*
X1375Y69D01*
D02*
X1275Y169D02*
X1375Y169D01*
D02*
X1075Y341D02*
X1075Y269D01*
D02*
X1775Y69D02*
X1846Y69D01*
D02*
X1775Y369D02*
X1775Y69D01*
D02*
X1104Y369D02*
X1775Y369D01*
G04 End of Copper1*
M02*