%FSLAX45Y45*%
G04 Gerber Fmt 4.5, Leading zero omitted, Abs format (unit mm)*
G04 Created by KiCad (PCBNEW (6.0.0)) date 2022-01-15 14:34:24*
%MOMM*%
%LPD*%
G01*
G04 APERTURE LIST*
%TA.AperFunction,Profile*%
%ADD10C,0.100000*%
%TD*%
%ADD11C,0.200000*%
%ADD12C,0.038100*%
%ADD13C,0.099000*%
%ADD14C,0.100000*%
%ADD15C,0.130000*%
G04 APERTURE END LIST*
D10*
X12200000Y-11250000D02*
X12200000Y-11050000D01*
X12000000Y-11050000D02*
X12000000Y-8000000D01*
X12000000Y-11450000D02*
X12000000Y-11900000D01*
X15900000Y-8000000D02*
X15900000Y-11900000D01*
X12000000Y-11900000D02*
X15900000Y-11900000D01*
X12000000Y-8000000D02*
X15900000Y-8000000D01*
X12200000Y-11050000D02*
X12000000Y-11050000D01*
X12200000Y-11250000D02*
X12200000Y-11450000D01*
X12200000Y-11450000D02*
X12000000Y-11450000D01*
D11*
D12*
X12780950Y-9335950D02*
X12819050Y-9374050D01*
X12819050Y-9335950D02*
X12780950Y-9374050D01*
X13380950Y-9645950D02*
X13419050Y-9684050D01*
X13419050Y-9645950D02*
X13380950Y-9684050D01*
D13*
X12334500Y-9727500D02*
G75*
G03*
X12334500Y-9727500I-49500J0D01*
G01*
X12334500Y-10177500D02*
G75*
G03*
X12334500Y-10177500I-49500J0D01*
G01*
X13749500Y-8286250D02*
G75*
G03*
X13749500Y-8286250I-49500J0D01*
G01*
X14199500Y-8286250D02*
G75*
G03*
X14199500Y-8286250I-49500J0D01*
G01*
X15659500Y-9722500D02*
G75*
G03*
X15659500Y-9722500I-49500J0D01*
G01*
X15659500Y-10172500D02*
G75*
G03*
X15659500Y-10172500I-49500J0D01*
G01*
D14*
X12652500Y-11051800D02*
X12652500Y-11151800D01*
X12602500Y-11101800D02*
X12702500Y-11101800D01*
X12652500Y-11301800D02*
X12652500Y-11401800D01*
X12602500Y-11351800D02*
X12702500Y-11351800D01*
X13240000Y-9347500D02*
X13240000Y-9447500D01*
X13190000Y-9397500D02*
X13290000Y-9397500D01*
X13475000Y-10772000D02*
X13475000Y-10872000D01*
X13425000Y-10822000D02*
X13525000Y-10822000D01*
D11*
X13435000Y-10802000D02*
X13435000Y-10842000D01*
X13515000Y-10802000D02*
X13515000Y-10842000D01*
X13435000Y-10842000D02*
G75*
G03*
X13515000Y-10842000I40000J0D01*
G01*
X13515000Y-10802000D02*
G75*
G03*
X13435000Y-10802000I-40000J0D01*
G01*
D14*
X13494000Y-9347500D02*
X13494000Y-9447500D01*
X13444000Y-9397500D02*
X13544000Y-9397500D01*
X13748000Y-9347500D02*
X13748000Y-9447500D01*
X13698000Y-9397500D02*
X13798000Y-9397500D01*
X13955000Y-10772000D02*
X13955000Y-10872000D01*
X13905000Y-10822000D02*
X14005000Y-10822000D01*
D11*
X13915000Y-10802000D02*
X13915000Y-10842000D01*
X13995000Y-10802000D02*
X13995000Y-10842000D01*
X13915000Y-10842000D02*
G75*
G03*
X13995000Y-10842000I40000J0D01*
G01*
X13995000Y-10802000D02*
G75*
G03*
X13915000Y-10802000I-40000J0D01*
G01*
D14*
X14002000Y-9347500D02*
X14002000Y-9447500D01*
X13952000Y-9397500D02*
X14052000Y-9397500D01*
X14256000Y-9347500D02*
X14256000Y-9447500D01*
X14206000Y-9397500D02*
X14306000Y-9397500D01*
X14435000Y-10772000D02*
X14435000Y-10872000D01*
X14385000Y-10822000D02*
X14485000Y-10822000D01*
D11*
X14395000Y-10802000D02*
X14395000Y-10842000D01*
X14475000Y-10802000D02*
X14475000Y-10842000D01*
X14395000Y-10842000D02*
G75*
G03*
X14475000Y-10842000I40000J0D01*
G01*
X14475000Y-10802000D02*
G75*
G03*
X14395000Y-10802000I-40000J0D01*
G01*
D14*
X14510000Y-9347500D02*
X14510000Y-9447500D01*
X14460000Y-9397500D02*
X14560000Y-9397500D01*
X14764000Y-9347500D02*
X14764000Y-9447500D01*
X14714000Y-9397500D02*
X14814000Y-9397500D01*
X15697500Y-8232000D02*
X15697500Y-8332000D01*
X15647500Y-8282000D02*
X15747500Y-8282000D01*
X15697500Y-8486000D02*
X15697500Y-8586000D01*
X15647500Y-8536000D02*
X15747500Y-8536000D01*
X15697500Y-8740000D02*
X15697500Y-8840000D01*
X15647500Y-8790000D02*
X15747500Y-8790000D01*
D15*
X12579962Y-9647462D02*
X12579962Y-9555538D01*
X12488038Y-9555538D01*
X12488038Y-9647462D01*
X12579962Y-9647462D01*
X12579962Y-10348462D02*
X12579962Y-10256538D01*
X12488038Y-10256538D01*
X12488038Y-10348462D01*
X12579962Y-10348462D01*
X13620962Y-8581212D02*
X13620962Y-8489288D01*
X13529038Y-8489288D01*
X13529038Y-8581212D01*
X13620962Y-8581212D01*
X14321962Y-8581212D02*
X14321962Y-8489288D01*
X14230038Y-8489288D01*
X14230038Y-8581212D01*
X14321962Y-8581212D01*
X15406962Y-9643462D02*
X15406962Y-9551538D01*
X15315038Y-9551538D01*
X15315038Y-9643462D01*
X15406962Y-9643462D01*
X15406962Y-10344462D02*
X15406962Y-10252538D01*
X15315038Y-10252538D01*
X15315038Y-10344462D01*
X15406962Y-10344462D01*
D11*
X12252619Y-12215476D02*
X12252619Y-12015476D01*
X12300238Y-12015476D01*
X12328809Y-12025000D01*
X12347857Y-12044048D01*
X12357381Y-12063095D01*
X12366905Y-12101190D01*
X12366905Y-12129762D01*
X12357381Y-12167857D01*
X12347857Y-12186905D01*
X12328809Y-12205952D01*
X12300238Y-12215476D01*
X12252619Y-12215476D01*
X12452619Y-12215476D02*
X12452619Y-12082143D01*
X12452619Y-12120238D02*
X12462143Y-12101190D01*
X12471667Y-12091667D01*
X12490714Y-12082143D01*
X12509762Y-12082143D01*
X12576428Y-12215476D02*
X12576428Y-12082143D01*
X12576428Y-12015476D02*
X12566905Y-12025000D01*
X12576428Y-12034524D01*
X12585952Y-12025000D01*
X12576428Y-12015476D01*
X12576428Y-12034524D01*
X12700238Y-12215476D02*
X12681190Y-12205952D01*
X12671667Y-12186905D01*
X12671667Y-12015476D01*
X12805000Y-12215476D02*
X12785952Y-12205952D01*
X12776428Y-12186905D01*
X12776428Y-12015476D01*
X13033571Y-12215476D02*
X13033571Y-12015476D01*
X13100238Y-12158333D01*
X13166905Y-12015476D01*
X13166905Y-12215476D01*
X13347857Y-12215476D02*
X13347857Y-12110714D01*
X13338333Y-12091667D01*
X13319286Y-12082143D01*
X13281190Y-12082143D01*
X13262143Y-12091667D01*
X13347857Y-12205952D02*
X13328809Y-12215476D01*
X13281190Y-12215476D01*
X13262143Y-12205952D01*
X13252619Y-12186905D01*
X13252619Y-12167857D01*
X13262143Y-12148809D01*
X13281190Y-12139286D01*
X13328809Y-12139286D01*
X13347857Y-12129762D01*
X13443095Y-12082143D02*
X13443095Y-12282143D01*
X13443095Y-12091667D02*
X13462143Y-12082143D01*
X13500238Y-12082143D01*
X13519286Y-12091667D01*
X13528809Y-12101190D01*
X13538333Y-12120238D01*
X13538333Y-12177381D01*
X13528809Y-12196428D01*
X13519286Y-12205952D01*
X13500238Y-12215476D01*
X13462143Y-12215476D01*
X13443095Y-12205952D01*
X13624048Y-12196428D02*
X13633571Y-12205952D01*
X13624048Y-12215476D01*
X13614524Y-12205952D01*
X13624048Y-12196428D01*
X13624048Y-12215476D01*
X13624048Y-12091667D02*
X13633571Y-12101190D01*
X13624048Y-12110714D01*
X13614524Y-12101190D01*
X13624048Y-12091667D01*
X13624048Y-12110714D01*
D12*
X11956900Y-12525950D02*
X11995000Y-12564050D01*
X11995000Y-12525950D02*
X11956900Y-12564050D01*
D11*
X12290714Y-12435476D02*
X12309762Y-12435476D01*
X12328809Y-12445000D01*
X12338333Y-12454524D01*
X12347857Y-12473571D01*
X12357381Y-12511667D01*
X12357381Y-12559286D01*
X12347857Y-12597381D01*
X12338333Y-12616428D01*
X12328809Y-12625952D01*
X12309762Y-12635476D01*
X12290714Y-12635476D01*
X12271667Y-12625952D01*
X12262143Y-12616428D01*
X12252619Y-12597381D01*
X12243095Y-12559286D01*
X12243095Y-12511667D01*
X12252619Y-12473571D01*
X12262143Y-12454524D01*
X12271667Y-12445000D01*
X12290714Y-12435476D01*
X12443095Y-12616428D02*
X12452619Y-12625952D01*
X12443095Y-12635476D01*
X12433571Y-12625952D01*
X12443095Y-12616428D01*
X12443095Y-12635476D01*
X12519286Y-12435476D02*
X12643095Y-12435476D01*
X12576428Y-12511667D01*
X12605000Y-12511667D01*
X12624048Y-12521190D01*
X12633571Y-12530714D01*
X12643095Y-12549762D01*
X12643095Y-12597381D01*
X12633571Y-12616428D01*
X12624048Y-12625952D01*
X12605000Y-12635476D01*
X12547857Y-12635476D01*
X12528809Y-12625952D01*
X12519286Y-12616428D01*
X12757381Y-12521190D02*
X12738333Y-12511667D01*
X12728809Y-12502143D01*
X12719286Y-12483095D01*
X12719286Y-12473571D01*
X12728809Y-12454524D01*
X12738333Y-12445000D01*
X12757381Y-12435476D01*
X12795476Y-12435476D01*
X12814524Y-12445000D01*
X12824048Y-12454524D01*
X12833571Y-12473571D01*
X12833571Y-12483095D01*
X12824048Y-12502143D01*
X12814524Y-12511667D01*
X12795476Y-12521190D01*
X12757381Y-12521190D01*
X12738333Y-12530714D01*
X12728809Y-12540238D01*
X12719286Y-12559286D01*
X12719286Y-12597381D01*
X12728809Y-12616428D01*
X12738333Y-12625952D01*
X12757381Y-12635476D01*
X12795476Y-12635476D01*
X12814524Y-12625952D01*
X12824048Y-12616428D01*
X12833571Y-12597381D01*
X12833571Y-12559286D01*
X12824048Y-12540238D01*
X12814524Y-12530714D01*
X12795476Y-12521190D01*
X13024048Y-12635476D02*
X12909762Y-12635476D01*
X12966905Y-12635476D02*
X12966905Y-12435476D01*
X12947857Y-12464048D01*
X12928809Y-12483095D01*
X12909762Y-12492619D01*
X13109762Y-12635476D02*
X13109762Y-12502143D01*
X13109762Y-12521190D02*
X13119286Y-12511667D01*
X13138333Y-12502143D01*
X13166905Y-12502143D01*
X13185952Y-12511667D01*
X13195476Y-12530714D01*
X13195476Y-12635476D01*
X13195476Y-12530714D02*
X13205000Y-12511667D01*
X13224048Y-12502143D01*
X13252619Y-12502143D01*
X13271667Y-12511667D01*
X13281190Y-12530714D01*
X13281190Y-12635476D01*
X13376428Y-12635476D02*
X13376428Y-12502143D01*
X13376428Y-12521190D02*
X13385952Y-12511667D01*
X13405000Y-12502143D01*
X13433571Y-12502143D01*
X13452619Y-12511667D01*
X13462143Y-12530714D01*
X13462143Y-12635476D01*
X13462143Y-12530714D02*
X13471667Y-12511667D01*
X13490714Y-12502143D01*
X13519286Y-12502143D01*
X13538333Y-12511667D01*
X13547857Y-12530714D01*
X13547857Y-12635476D01*
X13938333Y-12425952D02*
X13766905Y-12683095D01*
X14195476Y-12435476D02*
X14214524Y-12435476D01*
X14233571Y-12445000D01*
X14243095Y-12454524D01*
X14252619Y-12473571D01*
X14262143Y-12511667D01*
X14262143Y-12559286D01*
X14252619Y-12597381D01*
X14243095Y-12616428D01*
X14233571Y-12625952D01*
X14214524Y-12635476D01*
X14195476Y-12635476D01*
X14176428Y-12625952D01*
X14166905Y-12616428D01*
X14157381Y-12597381D01*
X14147857Y-12559286D01*
X14147857Y-12511667D01*
X14157381Y-12473571D01*
X14166905Y-12454524D01*
X14176428Y-12445000D01*
X14195476Y-12435476D01*
X14347857Y-12616428D02*
X14357381Y-12625952D01*
X14347857Y-12635476D01*
X14338333Y-12625952D01*
X14347857Y-12616428D01*
X14347857Y-12635476D01*
X14481190Y-12435476D02*
X14500238Y-12435476D01*
X14519286Y-12445000D01*
X14528809Y-12454524D01*
X14538333Y-12473571D01*
X14547857Y-12511667D01*
X14547857Y-12559286D01*
X14538333Y-12597381D01*
X14528809Y-12616428D01*
X14519286Y-12625952D01*
X14500238Y-12635476D01*
X14481190Y-12635476D01*
X14462143Y-12625952D01*
X14452619Y-12616428D01*
X14443095Y-12597381D01*
X14433571Y-12559286D01*
X14433571Y-12511667D01*
X14443095Y-12473571D01*
X14452619Y-12454524D01*
X14462143Y-12445000D01*
X14481190Y-12435476D01*
X14738333Y-12635476D02*
X14624048Y-12635476D01*
X14681190Y-12635476D02*
X14681190Y-12435476D01*
X14662143Y-12464048D01*
X14643095Y-12483095D01*
X14624048Y-12492619D01*
X14919286Y-12435476D02*
X14824048Y-12435476D01*
X14814524Y-12530714D01*
X14824048Y-12521190D01*
X14843095Y-12511667D01*
X14890714Y-12511667D01*
X14909762Y-12521190D01*
X14919286Y-12530714D01*
X14928809Y-12549762D01*
X14928809Y-12597381D01*
X14919286Y-12616428D01*
X14909762Y-12625952D01*
X14890714Y-12635476D01*
X14843095Y-12635476D01*
X14824048Y-12625952D01*
X14814524Y-12616428D01*
X15052619Y-12435476D02*
X15071667Y-12435476D01*
X15090714Y-12445000D01*
X15100238Y-12454524D01*
X15109762Y-12473571D01*
X15119286Y-12511667D01*
X15119286Y-12559286D01*
X15109762Y-12597381D01*
X15100238Y-12616428D01*
X15090714Y-12625952D01*
X15071667Y-12635476D01*
X15052619Y-12635476D01*
X15033571Y-12625952D01*
X15024048Y-12616428D01*
X15014524Y-12597381D01*
X15005000Y-12559286D01*
X15005000Y-12511667D01*
X15014524Y-12473571D01*
X15024048Y-12454524D01*
X15033571Y-12445000D01*
X15052619Y-12435476D01*
X15195476Y-12435476D02*
X15195476Y-12473571D01*
X15271667Y-12435476D02*
X15271667Y-12473571D01*
X15566905Y-12711667D02*
X15557381Y-12702143D01*
X15538333Y-12673571D01*
X15528809Y-12654524D01*
X15519286Y-12625952D01*
X15509762Y-12578333D01*
X15509762Y-12540238D01*
X15519286Y-12492619D01*
X15528809Y-12464048D01*
X15538333Y-12445000D01*
X15557381Y-12416428D01*
X15566905Y-12406905D01*
X15633571Y-12454524D02*
X15643095Y-12445000D01*
X15662143Y-12435476D01*
X15709762Y-12435476D01*
X15728809Y-12445000D01*
X15738333Y-12454524D01*
X15747857Y-12473571D01*
X15747857Y-12492619D01*
X15738333Y-12521190D01*
X15624048Y-12635476D01*
X15747857Y-12635476D01*
X15985952Y-12635476D02*
X15985952Y-12435476D01*
X16071667Y-12635476D02*
X16071667Y-12530714D01*
X16062143Y-12511667D01*
X16043095Y-12502143D01*
X16014524Y-12502143D01*
X15995476Y-12511667D01*
X15985952Y-12521190D01*
X16195476Y-12635476D02*
X16176428Y-12625952D01*
X16166905Y-12616428D01*
X16157381Y-12597381D01*
X16157381Y-12540238D01*
X16166905Y-12521190D01*
X16176428Y-12511667D01*
X16195476Y-12502143D01*
X16224048Y-12502143D01*
X16243095Y-12511667D01*
X16252619Y-12521190D01*
X16262143Y-12540238D01*
X16262143Y-12597381D01*
X16252619Y-12616428D01*
X16243095Y-12625952D01*
X16224048Y-12635476D01*
X16195476Y-12635476D01*
X16376428Y-12635476D02*
X16357381Y-12625952D01*
X16347857Y-12606905D01*
X16347857Y-12435476D01*
X16528809Y-12625952D02*
X16509762Y-12635476D01*
X16471667Y-12635476D01*
X16452619Y-12625952D01*
X16443095Y-12606905D01*
X16443095Y-12530714D01*
X16452619Y-12511667D01*
X16471667Y-12502143D01*
X16509762Y-12502143D01*
X16528809Y-12511667D01*
X16538333Y-12530714D01*
X16538333Y-12549762D01*
X16443095Y-12568809D01*
X16614524Y-12625952D02*
X16633571Y-12635476D01*
X16671667Y-12635476D01*
X16690714Y-12625952D01*
X16700238Y-12606905D01*
X16700238Y-12597381D01*
X16690714Y-12578333D01*
X16671667Y-12568809D01*
X16643095Y-12568809D01*
X16624048Y-12559286D01*
X16614524Y-12540238D01*
X16614524Y-12530714D01*
X16624048Y-12511667D01*
X16643095Y-12502143D01*
X16671667Y-12502143D01*
X16690714Y-12511667D01*
X16766905Y-12711667D02*
X16776428Y-12702143D01*
X16795476Y-12673571D01*
X16805000Y-12654524D01*
X16814524Y-12625952D01*
X16824048Y-12578333D01*
X16824048Y-12540238D01*
X16814524Y-12492619D01*
X16805000Y-12464048D01*
X16795476Y-12445000D01*
X16776428Y-12416428D01*
X16766905Y-12406905D01*
D13*
X11995000Y-12809000D02*
G75*
G03*
X11995000Y-12809000I-49500J0D01*
G01*
D11*
X12290714Y-12699476D02*
X12309762Y-12699476D01*
X12328809Y-12709000D01*
X12338333Y-12718524D01*
X12347857Y-12737571D01*
X12357381Y-12775667D01*
X12357381Y-12823286D01*
X12347857Y-12861381D01*
X12338333Y-12880428D01*
X12328809Y-12889952D01*
X12309762Y-12899476D01*
X12290714Y-12899476D01*
X12271667Y-12889952D01*
X12262143Y-12880428D01*
X12252619Y-12861381D01*
X12243095Y-12823286D01*
X12243095Y-12775667D01*
X12252619Y-12737571D01*
X12262143Y-12718524D01*
X12271667Y-12709000D01*
X12290714Y-12699476D01*
X12443095Y-12880428D02*
X12452619Y-12889952D01*
X12443095Y-12899476D01*
X12433571Y-12889952D01*
X12443095Y-12880428D01*
X12443095Y-12899476D01*
X12547857Y-12899476D02*
X12585952Y-12899476D01*
X12605000Y-12889952D01*
X12614524Y-12880428D01*
X12633571Y-12851857D01*
X12643095Y-12813762D01*
X12643095Y-12737571D01*
X12633571Y-12718524D01*
X12624048Y-12709000D01*
X12605000Y-12699476D01*
X12566905Y-12699476D01*
X12547857Y-12709000D01*
X12538333Y-12718524D01*
X12528809Y-12737571D01*
X12528809Y-12785190D01*
X12538333Y-12804238D01*
X12547857Y-12813762D01*
X12566905Y-12823286D01*
X12605000Y-12823286D01*
X12624048Y-12813762D01*
X12633571Y-12804238D01*
X12643095Y-12785190D01*
X12738333Y-12899476D02*
X12776428Y-12899476D01*
X12795476Y-12889952D01*
X12805000Y-12880428D01*
X12824048Y-12851857D01*
X12833571Y-12813762D01*
X12833571Y-12737571D01*
X12824048Y-12718524D01*
X12814524Y-12709000D01*
X12795476Y-12699476D01*
X12757381Y-12699476D01*
X12738333Y-12709000D01*
X12728809Y-12718524D01*
X12719286Y-12737571D01*
X12719286Y-12785190D01*
X12728809Y-12804238D01*
X12738333Y-12813762D01*
X12757381Y-12823286D01*
X12795476Y-12823286D01*
X12814524Y-12813762D01*
X12824048Y-12804238D01*
X12833571Y-12785190D01*
X12957381Y-12699476D02*
X12976428Y-12699476D01*
X12995476Y-12709000D01*
X13005000Y-12718524D01*
X13014524Y-12737571D01*
X13024048Y-12775667D01*
X13024048Y-12823286D01*
X13014524Y-12861381D01*
X13005000Y-12880428D01*
X12995476Y-12889952D01*
X12976428Y-12899476D01*
X12957381Y-12899476D01*
X12938333Y-12889952D01*
X12928809Y-12880428D01*
X12919286Y-12861381D01*
X12909762Y-12823286D01*
X12909762Y-12775667D01*
X12919286Y-12737571D01*
X12928809Y-12718524D01*
X12938333Y-12709000D01*
X12957381Y-12699476D01*
X13109762Y-12899476D02*
X13109762Y-12766143D01*
X13109762Y-12785190D02*
X13119286Y-12775667D01*
X13138333Y-12766143D01*
X13166905Y-12766143D01*
X13185952Y-12775667D01*
X13195476Y-12794714D01*
X13195476Y-12899476D01*
X13195476Y-12794714D02*
X13205000Y-12775667D01*
X13224048Y-12766143D01*
X13252619Y-12766143D01*
X13271667Y-12775667D01*
X13281190Y-12794714D01*
X13281190Y-12899476D01*
X13376428Y-12899476D02*
X13376428Y-12766143D01*
X13376428Y-12785190D02*
X13385952Y-12775667D01*
X13405000Y-12766143D01*
X13433571Y-12766143D01*
X13452619Y-12775667D01*
X13462143Y-12794714D01*
X13462143Y-12899476D01*
X13462143Y-12794714D02*
X13471667Y-12775667D01*
X13490714Y-12766143D01*
X13519286Y-12766143D01*
X13538333Y-12775667D01*
X13547857Y-12794714D01*
X13547857Y-12899476D01*
X13938333Y-12689952D02*
X13766905Y-12947095D01*
X14195476Y-12699476D02*
X14214524Y-12699476D01*
X14233571Y-12709000D01*
X14243095Y-12718524D01*
X14252619Y-12737571D01*
X14262143Y-12775667D01*
X14262143Y-12823286D01*
X14252619Y-12861381D01*
X14243095Y-12880428D01*
X14233571Y-12889952D01*
X14214524Y-12899476D01*
X14195476Y-12899476D01*
X14176428Y-12889952D01*
X14166905Y-12880428D01*
X14157381Y-12861381D01*
X14147857Y-12823286D01*
X14147857Y-12775667D01*
X14157381Y-12737571D01*
X14166905Y-12718524D01*
X14176428Y-12709000D01*
X14195476Y-12699476D01*
X14347857Y-12880428D02*
X14357381Y-12889952D01*
X14347857Y-12899476D01*
X14338333Y-12889952D01*
X14347857Y-12880428D01*
X14347857Y-12899476D01*
X14481190Y-12699476D02*
X14500238Y-12699476D01*
X14519286Y-12709000D01*
X14528809Y-12718524D01*
X14538333Y-12737571D01*
X14547857Y-12775667D01*
X14547857Y-12823286D01*
X14538333Y-12861381D01*
X14528809Y-12880428D01*
X14519286Y-12889952D01*
X14500238Y-12899476D01*
X14481190Y-12899476D01*
X14462143Y-12889952D01*
X14452619Y-12880428D01*
X14443095Y-12861381D01*
X14433571Y-12823286D01*
X14433571Y-12775667D01*
X14443095Y-12737571D01*
X14452619Y-12718524D01*
X14462143Y-12709000D01*
X14481190Y-12699476D01*
X14614524Y-12699476D02*
X14738333Y-12699476D01*
X14671667Y-12775667D01*
X14700238Y-12775667D01*
X14719286Y-12785190D01*
X14728809Y-12794714D01*
X14738333Y-12813762D01*
X14738333Y-12861381D01*
X14728809Y-12880428D01*
X14719286Y-12889952D01*
X14700238Y-12899476D01*
X14643095Y-12899476D01*
X14624048Y-12889952D01*
X14614524Y-12880428D01*
X14833571Y-12899476D02*
X14871667Y-12899476D01*
X14890714Y-12889952D01*
X14900238Y-12880428D01*
X14919286Y-12851857D01*
X14928809Y-12813762D01*
X14928809Y-12737571D01*
X14919286Y-12718524D01*
X14909762Y-12709000D01*
X14890714Y-12699476D01*
X14852619Y-12699476D01*
X14833571Y-12709000D01*
X14824048Y-12718524D01*
X14814524Y-12737571D01*
X14814524Y-12785190D01*
X14824048Y-12804238D01*
X14833571Y-12813762D01*
X14852619Y-12823286D01*
X14890714Y-12823286D01*
X14909762Y-12813762D01*
X14919286Y-12804238D01*
X14928809Y-12785190D01*
X15052619Y-12699476D02*
X15071667Y-12699476D01*
X15090714Y-12709000D01*
X15100238Y-12718524D01*
X15109762Y-12737571D01*
X15119286Y-12775667D01*
X15119286Y-12823286D01*
X15109762Y-12861381D01*
X15100238Y-12880428D01*
X15090714Y-12889952D01*
X15071667Y-12899476D01*
X15052619Y-12899476D01*
X15033571Y-12889952D01*
X15024048Y-12880428D01*
X15014524Y-12861381D01*
X15005000Y-12823286D01*
X15005000Y-12775667D01*
X15014524Y-12737571D01*
X15024048Y-12718524D01*
X15033571Y-12709000D01*
X15052619Y-12699476D01*
X15195476Y-12699476D02*
X15195476Y-12737571D01*
X15271667Y-12699476D02*
X15271667Y-12737571D01*
X15566905Y-12975667D02*
X15557381Y-12966143D01*
X15538333Y-12937571D01*
X15528809Y-12918524D01*
X15519286Y-12889952D01*
X15509762Y-12842333D01*
X15509762Y-12804238D01*
X15519286Y-12756619D01*
X15528809Y-12728048D01*
X15538333Y-12709000D01*
X15557381Y-12680428D01*
X15566905Y-12670905D01*
X15728809Y-12699476D02*
X15690714Y-12699476D01*
X15671667Y-12709000D01*
X15662143Y-12718524D01*
X15643095Y-12747095D01*
X15633571Y-12785190D01*
X15633571Y-12861381D01*
X15643095Y-12880428D01*
X15652619Y-12889952D01*
X15671667Y-12899476D01*
X15709762Y-12899476D01*
X15728809Y-12889952D01*
X15738333Y-12880428D01*
X15747857Y-12861381D01*
X15747857Y-12813762D01*
X15738333Y-12794714D01*
X15728809Y-12785190D01*
X15709762Y-12775667D01*
X15671667Y-12775667D01*
X15652619Y-12785190D01*
X15643095Y-12794714D01*
X15633571Y-12813762D01*
X15985952Y-12899476D02*
X15985952Y-12699476D01*
X16071667Y-12899476D02*
X16071667Y-12794714D01*
X16062143Y-12775667D01*
X16043095Y-12766143D01*
X16014524Y-12766143D01*
X15995476Y-12775667D01*
X15985952Y-12785190D01*
X16195476Y-12899476D02*
X16176428Y-12889952D01*
X16166905Y-12880428D01*
X16157381Y-12861381D01*
X16157381Y-12804238D01*
X16166905Y-12785190D01*
X16176428Y-12775667D01*
X16195476Y-12766143D01*
X16224048Y-12766143D01*
X16243095Y-12775667D01*
X16252619Y-12785190D01*
X16262143Y-12804238D01*
X16262143Y-12861381D01*
X16252619Y-12880428D01*
X16243095Y-12889952D01*
X16224048Y-12899476D01*
X16195476Y-12899476D01*
X16376428Y-12899476D02*
X16357381Y-12889952D01*
X16347857Y-12870905D01*
X16347857Y-12699476D01*
X16528809Y-12889952D02*
X16509762Y-12899476D01*
X16471667Y-12899476D01*
X16452619Y-12889952D01*
X16443095Y-12870905D01*
X16443095Y-12794714D01*
X16452619Y-12775667D01*
X16471667Y-12766143D01*
X16509762Y-12766143D01*
X16528809Y-12775667D01*
X16538333Y-12794714D01*
X16538333Y-12813762D01*
X16443095Y-12832809D01*
X16614524Y-12889952D02*
X16633571Y-12899476D01*
X16671667Y-12899476D01*
X16690714Y-12889952D01*
X16700238Y-12870905D01*
X16700238Y-12861381D01*
X16690714Y-12842333D01*
X16671667Y-12832809D01*
X16643095Y-12832809D01*
X16624048Y-12823286D01*
X16614524Y-12804238D01*
X16614524Y-12794714D01*
X16624048Y-12775667D01*
X16643095Y-12766143D01*
X16671667Y-12766143D01*
X16690714Y-12775667D01*
X16766905Y-12975667D02*
X16776428Y-12966143D01*
X16795476Y-12937571D01*
X16805000Y-12918524D01*
X16814524Y-12889952D01*
X16824048Y-12842333D01*
X16824048Y-12804238D01*
X16814524Y-12756619D01*
X16805000Y-12728048D01*
X16795476Y-12709000D01*
X16776428Y-12680428D01*
X16766905Y-12670905D01*
D14*
X11945000Y-13023000D02*
X11945000Y-13123000D01*
X11895000Y-13073000D02*
X11995000Y-13073000D01*
D11*
X12357381Y-13163476D02*
X12243095Y-13163476D01*
X12300238Y-13163476D02*
X12300238Y-12963476D01*
X12281190Y-12992048D01*
X12262143Y-13011095D01*
X12243095Y-13020619D01*
X12443095Y-13144428D02*
X12452619Y-13153952D01*
X12443095Y-13163476D01*
X12433571Y-13153952D01*
X12443095Y-13144428D01*
X12443095Y-13163476D01*
X12576428Y-12963476D02*
X12595476Y-12963476D01*
X12614524Y-12973000D01*
X12624048Y-12982524D01*
X12633571Y-13001571D01*
X12643095Y-13039667D01*
X12643095Y-13087286D01*
X12633571Y-13125381D01*
X12624048Y-13144428D01*
X12614524Y-13153952D01*
X12595476Y-13163476D01*
X12576428Y-13163476D01*
X12557381Y-13153952D01*
X12547857Y-13144428D01*
X12538333Y-13125381D01*
X12528809Y-13087286D01*
X12528809Y-13039667D01*
X12538333Y-13001571D01*
X12547857Y-12982524D01*
X12557381Y-12973000D01*
X12576428Y-12963476D01*
X12766905Y-12963476D02*
X12785952Y-12963476D01*
X12805000Y-12973000D01*
X12814524Y-12982524D01*
X12824048Y-13001571D01*
X12833571Y-13039667D01*
X12833571Y-13087286D01*
X12824048Y-13125381D01*
X12814524Y-13144428D01*
X12805000Y-13153952D01*
X12785952Y-13163476D01*
X12766905Y-13163476D01*
X12747857Y-13153952D01*
X12738333Y-13144428D01*
X12728809Y-13125381D01*
X12719286Y-13087286D01*
X12719286Y-13039667D01*
X12728809Y-13001571D01*
X12738333Y-12982524D01*
X12747857Y-12973000D01*
X12766905Y-12963476D01*
X12957381Y-12963476D02*
X12976428Y-12963476D01*
X12995476Y-12973000D01*
X13005000Y-12982524D01*
X13014524Y-13001571D01*
X13024048Y-13039667D01*
X13024048Y-13087286D01*
X13014524Y-13125381D01*
X13005000Y-13144428D01*
X12995476Y-13153952D01*
X12976428Y-13163476D01*
X12957381Y-13163476D01*
X12938333Y-13153952D01*
X12928809Y-13144428D01*
X12919286Y-13125381D01*
X12909762Y-13087286D01*
X12909762Y-13039667D01*
X12919286Y-13001571D01*
X12928809Y-12982524D01*
X12938333Y-12973000D01*
X12957381Y-12963476D01*
X13109762Y-13163476D02*
X13109762Y-13030143D01*
X13109762Y-13049190D02*
X13119286Y-13039667D01*
X13138333Y-13030143D01*
X13166905Y-13030143D01*
X13185952Y-13039667D01*
X13195476Y-13058714D01*
X13195476Y-13163476D01*
X13195476Y-13058714D02*
X13205000Y-13039667D01*
X13224048Y-13030143D01*
X13252619Y-13030143D01*
X13271667Y-13039667D01*
X13281190Y-13058714D01*
X13281190Y-13163476D01*
X13376428Y-13163476D02*
X13376428Y-13030143D01*
X13376428Y-13049190D02*
X13385952Y-13039667D01*
X13405000Y-13030143D01*
X13433571Y-13030143D01*
X13452619Y-13039667D01*
X13462143Y-13058714D01*
X13462143Y-13163476D01*
X13462143Y-13058714D02*
X13471667Y-13039667D01*
X13490714Y-13030143D01*
X13519286Y-13030143D01*
X13538333Y-13039667D01*
X13547857Y-13058714D01*
X13547857Y-13163476D01*
X13938333Y-12953952D02*
X13766905Y-13211095D01*
X14195476Y-12963476D02*
X14214524Y-12963476D01*
X14233571Y-12973000D01*
X14243095Y-12982524D01*
X14252619Y-13001571D01*
X14262143Y-13039667D01*
X14262143Y-13087286D01*
X14252619Y-13125381D01*
X14243095Y-13144428D01*
X14233571Y-13153952D01*
X14214524Y-13163476D01*
X14195476Y-13163476D01*
X14176428Y-13153952D01*
X14166905Y-13144428D01*
X14157381Y-13125381D01*
X14147857Y-13087286D01*
X14147857Y-13039667D01*
X14157381Y-13001571D01*
X14166905Y-12982524D01*
X14176428Y-12973000D01*
X14195476Y-12963476D01*
X14347857Y-13144428D02*
X14357381Y-13153952D01*
X14347857Y-13163476D01*
X14338333Y-13153952D01*
X14347857Y-13144428D01*
X14347857Y-13163476D01*
X14481190Y-12963476D02*
X14500238Y-12963476D01*
X14519286Y-12973000D01*
X14528809Y-12982524D01*
X14538333Y-13001571D01*
X14547857Y-13039667D01*
X14547857Y-13087286D01*
X14538333Y-13125381D01*
X14528809Y-13144428D01*
X14519286Y-13153952D01*
X14500238Y-13163476D01*
X14481190Y-13163476D01*
X14462143Y-13153952D01*
X14452619Y-13144428D01*
X14443095Y-13125381D01*
X14433571Y-13087286D01*
X14433571Y-13039667D01*
X14443095Y-13001571D01*
X14452619Y-12982524D01*
X14462143Y-12973000D01*
X14481190Y-12963476D01*
X14614524Y-12963476D02*
X14738333Y-12963476D01*
X14671667Y-13039667D01*
X14700238Y-13039667D01*
X14719286Y-13049190D01*
X14728809Y-13058714D01*
X14738333Y-13077762D01*
X14738333Y-13125381D01*
X14728809Y-13144428D01*
X14719286Y-13153952D01*
X14700238Y-13163476D01*
X14643095Y-13163476D01*
X14624048Y-13153952D01*
X14614524Y-13144428D01*
X14833571Y-13163476D02*
X14871667Y-13163476D01*
X14890714Y-13153952D01*
X14900238Y-13144428D01*
X14919286Y-13115857D01*
X14928809Y-13077762D01*
X14928809Y-13001571D01*
X14919286Y-12982524D01*
X14909762Y-12973000D01*
X14890714Y-12963476D01*
X14852619Y-12963476D01*
X14833571Y-12973000D01*
X14824048Y-12982524D01*
X14814524Y-13001571D01*
X14814524Y-13049190D01*
X14824048Y-13068238D01*
X14833571Y-13077762D01*
X14852619Y-13087286D01*
X14890714Y-13087286D01*
X14909762Y-13077762D01*
X14919286Y-13068238D01*
X14928809Y-13049190D01*
X15100238Y-13030143D02*
X15100238Y-13163476D01*
X15052619Y-12953952D02*
X15005000Y-13096809D01*
X15128809Y-13096809D01*
X15195476Y-12963476D02*
X15195476Y-13001571D01*
X15271667Y-12963476D02*
X15271667Y-13001571D01*
X15566905Y-13239667D02*
X15557381Y-13230143D01*
X15538333Y-13201571D01*
X15528809Y-13182524D01*
X15519286Y-13153952D01*
X15509762Y-13106333D01*
X15509762Y-13068238D01*
X15519286Y-13020619D01*
X15528809Y-12992048D01*
X15538333Y-12973000D01*
X15557381Y-12944428D01*
X15566905Y-12934905D01*
X15747857Y-13163476D02*
X15633571Y-13163476D01*
X15690714Y-13163476D02*
X15690714Y-12963476D01*
X15671667Y-12992048D01*
X15652619Y-13011095D01*
X15633571Y-13020619D01*
X15824048Y-12982524D02*
X15833571Y-12973000D01*
X15852619Y-12963476D01*
X15900238Y-12963476D01*
X15919286Y-12973000D01*
X15928809Y-12982524D01*
X15938333Y-13001571D01*
X15938333Y-13020619D01*
X15928809Y-13049190D01*
X15814524Y-13163476D01*
X15938333Y-13163476D01*
X16176428Y-13163476D02*
X16176428Y-12963476D01*
X16262143Y-13163476D02*
X16262143Y-13058714D01*
X16252619Y-13039667D01*
X16233571Y-13030143D01*
X16205000Y-13030143D01*
X16185952Y-13039667D01*
X16176428Y-13049190D01*
X16385952Y-13163476D02*
X16366905Y-13153952D01*
X16357381Y-13144428D01*
X16347857Y-13125381D01*
X16347857Y-13068238D01*
X16357381Y-13049190D01*
X16366905Y-13039667D01*
X16385952Y-13030143D01*
X16414524Y-13030143D01*
X16433571Y-13039667D01*
X16443095Y-13049190D01*
X16452619Y-13068238D01*
X16452619Y-13125381D01*
X16443095Y-13144428D01*
X16433571Y-13153952D01*
X16414524Y-13163476D01*
X16385952Y-13163476D01*
X16566905Y-13163476D02*
X16547857Y-13153952D01*
X16538333Y-13134905D01*
X16538333Y-12963476D01*
X16719286Y-13153952D02*
X16700238Y-13163476D01*
X16662143Y-13163476D01*
X16643095Y-13153952D01*
X16633571Y-13134905D01*
X16633571Y-13058714D01*
X16643095Y-13039667D01*
X16662143Y-13030143D01*
X16700238Y-13030143D01*
X16719286Y-13039667D01*
X16728809Y-13058714D01*
X16728809Y-13077762D01*
X16633571Y-13096809D01*
X16805000Y-13153952D02*
X16824048Y-13163476D01*
X16862143Y-13163476D01*
X16881190Y-13153952D01*
X16890714Y-13134905D01*
X16890714Y-13125381D01*
X16881190Y-13106333D01*
X16862143Y-13096809D01*
X16833571Y-13096809D01*
X16814524Y-13087286D01*
X16805000Y-13068238D01*
X16805000Y-13058714D01*
X16814524Y-13039667D01*
X16833571Y-13030143D01*
X16862143Y-13030143D01*
X16881190Y-13039667D01*
X17128810Y-13087286D02*
X17281190Y-13087286D01*
X17205000Y-13163476D02*
X17205000Y-13011095D01*
X17509762Y-12963476D02*
X17633571Y-12963476D01*
X17566905Y-13039667D01*
X17595476Y-13039667D01*
X17614524Y-13049190D01*
X17624048Y-13058714D01*
X17633571Y-13077762D01*
X17633571Y-13125381D01*
X17624048Y-13144428D01*
X17614524Y-13153952D01*
X17595476Y-13163476D01*
X17538333Y-13163476D01*
X17519286Y-13153952D01*
X17509762Y-13144428D01*
X17862143Y-13153952D02*
X17881190Y-13163476D01*
X17919286Y-13163476D01*
X17938333Y-13153952D01*
X17947857Y-13134905D01*
X17947857Y-13125381D01*
X17938333Y-13106333D01*
X17919286Y-13096809D01*
X17890714Y-13096809D01*
X17871667Y-13087286D01*
X17862143Y-13068238D01*
X17862143Y-13058714D01*
X17871667Y-13039667D01*
X17890714Y-13030143D01*
X17919286Y-13030143D01*
X17938333Y-13039667D01*
X18062143Y-13163476D02*
X18043095Y-13153952D01*
X18033571Y-13134905D01*
X18033571Y-12963476D01*
X18166905Y-13163476D02*
X18147857Y-13153952D01*
X18138333Y-13144428D01*
X18128810Y-13125381D01*
X18128810Y-13068238D01*
X18138333Y-13049190D01*
X18147857Y-13039667D01*
X18166905Y-13030143D01*
X18195476Y-13030143D01*
X18214524Y-13039667D01*
X18224048Y-13049190D01*
X18233571Y-13068238D01*
X18233571Y-13125381D01*
X18224048Y-13144428D01*
X18214524Y-13153952D01*
X18195476Y-13163476D01*
X18166905Y-13163476D01*
X18290714Y-13030143D02*
X18366905Y-13030143D01*
X18319286Y-12963476D02*
X18319286Y-13134905D01*
X18328810Y-13153952D01*
X18347857Y-13163476D01*
X18366905Y-13163476D01*
X18424048Y-13153952D02*
X18443095Y-13163476D01*
X18481190Y-13163476D01*
X18500238Y-13153952D01*
X18509762Y-13134905D01*
X18509762Y-13125381D01*
X18500238Y-13106333D01*
X18481190Y-13096809D01*
X18452619Y-13096809D01*
X18433571Y-13087286D01*
X18424048Y-13068238D01*
X18424048Y-13058714D01*
X18433571Y-13039667D01*
X18452619Y-13030143D01*
X18481190Y-13030143D01*
X18500238Y-13039667D01*
X18576429Y-13239667D02*
X18585952Y-13230143D01*
X18605000Y-13201571D01*
X18614524Y-13182524D01*
X18624048Y-13153952D01*
X18633571Y-13106333D01*
X18633571Y-13068238D01*
X18624048Y-13020619D01*
X18614524Y-12992048D01*
X18605000Y-12973000D01*
X18585952Y-12944428D01*
X18576429Y-12934905D01*
D15*
X11975962Y-13382962D02*
X11975962Y-13291038D01*
X11884038Y-13291038D01*
X11884038Y-13382962D01*
X11975962Y-13382962D01*
D11*
X12357381Y-13427476D02*
X12243095Y-13427476D01*
X12300238Y-13427476D02*
X12300238Y-13227476D01*
X12281190Y-13256048D01*
X12262143Y-13275095D01*
X12243095Y-13284619D01*
X12443095Y-13408428D02*
X12452619Y-13417952D01*
X12443095Y-13427476D01*
X12433571Y-13417952D01*
X12443095Y-13408428D01*
X12443095Y-13427476D01*
X12519286Y-13227476D02*
X12643095Y-13227476D01*
X12576428Y-13303667D01*
X12605000Y-13303667D01*
X12624048Y-13313190D01*
X12633571Y-13322714D01*
X12643095Y-13341762D01*
X12643095Y-13389381D01*
X12633571Y-13408428D01*
X12624048Y-13417952D01*
X12605000Y-13427476D01*
X12547857Y-13427476D01*
X12528809Y-13417952D01*
X12519286Y-13408428D01*
X12766905Y-13227476D02*
X12785952Y-13227476D01*
X12805000Y-13237000D01*
X12814524Y-13246524D01*
X12824048Y-13265571D01*
X12833571Y-13303667D01*
X12833571Y-13351286D01*
X12824048Y-13389381D01*
X12814524Y-13408428D01*
X12805000Y-13417952D01*
X12785952Y-13427476D01*
X12766905Y-13427476D01*
X12747857Y-13417952D01*
X12738333Y-13408428D01*
X12728809Y-13389381D01*
X12719286Y-13351286D01*
X12719286Y-13303667D01*
X12728809Y-13265571D01*
X12738333Y-13246524D01*
X12747857Y-13237000D01*
X12766905Y-13227476D01*
X12957381Y-13227476D02*
X12976428Y-13227476D01*
X12995476Y-13237000D01*
X13005000Y-13246524D01*
X13014524Y-13265571D01*
X13024048Y-13303667D01*
X13024048Y-13351286D01*
X13014524Y-13389381D01*
X13005000Y-13408428D01*
X12995476Y-13417952D01*
X12976428Y-13427476D01*
X12957381Y-13427476D01*
X12938333Y-13417952D01*
X12928809Y-13408428D01*
X12919286Y-13389381D01*
X12909762Y-13351286D01*
X12909762Y-13303667D01*
X12919286Y-13265571D01*
X12928809Y-13246524D01*
X12938333Y-13237000D01*
X12957381Y-13227476D01*
X13109762Y-13427476D02*
X13109762Y-13294143D01*
X13109762Y-13313190D02*
X13119286Y-13303667D01*
X13138333Y-13294143D01*
X13166905Y-13294143D01*
X13185952Y-13303667D01*
X13195476Y-13322714D01*
X13195476Y-13427476D01*
X13195476Y-13322714D02*
X13205000Y-13303667D01*
X13224048Y-13294143D01*
X13252619Y-13294143D01*
X13271667Y-13303667D01*
X13281190Y-13322714D01*
X13281190Y-13427476D01*
X13376428Y-13427476D02*
X13376428Y-13294143D01*
X13376428Y-13313190D02*
X13385952Y-13303667D01*
X13405000Y-13294143D01*
X13433571Y-13294143D01*
X13452619Y-13303667D01*
X13462143Y-13322714D01*
X13462143Y-13427476D01*
X13462143Y-13322714D02*
X13471667Y-13303667D01*
X13490714Y-13294143D01*
X13519286Y-13294143D01*
X13538333Y-13303667D01*
X13547857Y-13322714D01*
X13547857Y-13427476D01*
X13938333Y-13217952D02*
X13766905Y-13475095D01*
X14195476Y-13227476D02*
X14214524Y-13227476D01*
X14233571Y-13237000D01*
X14243095Y-13246524D01*
X14252619Y-13265571D01*
X14262143Y-13303667D01*
X14262143Y-13351286D01*
X14252619Y-13389381D01*
X14243095Y-13408428D01*
X14233571Y-13417952D01*
X14214524Y-13427476D01*
X14195476Y-13427476D01*
X14176428Y-13417952D01*
X14166905Y-13408428D01*
X14157381Y-13389381D01*
X14147857Y-13351286D01*
X14147857Y-13303667D01*
X14157381Y-13265571D01*
X14166905Y-13246524D01*
X14176428Y-13237000D01*
X14195476Y-13227476D01*
X14347857Y-13408428D02*
X14357381Y-13417952D01*
X14347857Y-13427476D01*
X14338333Y-13417952D01*
X14347857Y-13408428D01*
X14347857Y-13427476D01*
X14481190Y-13227476D02*
X14500238Y-13227476D01*
X14519286Y-13237000D01*
X14528809Y-13246524D01*
X14538333Y-13265571D01*
X14547857Y-13303667D01*
X14547857Y-13351286D01*
X14538333Y-13389381D01*
X14528809Y-13408428D01*
X14519286Y-13417952D01*
X14500238Y-13427476D01*
X14481190Y-13427476D01*
X14462143Y-13417952D01*
X14452619Y-13408428D01*
X14443095Y-13389381D01*
X14433571Y-13351286D01*
X14433571Y-13303667D01*
X14443095Y-13265571D01*
X14452619Y-13246524D01*
X14462143Y-13237000D01*
X14481190Y-13227476D01*
X14728809Y-13227476D02*
X14633571Y-13227476D01*
X14624048Y-13322714D01*
X14633571Y-13313190D01*
X14652619Y-13303667D01*
X14700238Y-13303667D01*
X14719286Y-13313190D01*
X14728809Y-13322714D01*
X14738333Y-13341762D01*
X14738333Y-13389381D01*
X14728809Y-13408428D01*
X14719286Y-13417952D01*
X14700238Y-13427476D01*
X14652619Y-13427476D01*
X14633571Y-13417952D01*
X14624048Y-13408428D01*
X14928809Y-13427476D02*
X14814524Y-13427476D01*
X14871667Y-13427476D02*
X14871667Y-13227476D01*
X14852619Y-13256048D01*
X14833571Y-13275095D01*
X14814524Y-13284619D01*
X15005000Y-13246524D02*
X15014524Y-13237000D01*
X15033571Y-13227476D01*
X15081190Y-13227476D01*
X15100238Y-13237000D01*
X15109762Y-13246524D01*
X15119286Y-13265571D01*
X15119286Y-13284619D01*
X15109762Y-13313190D01*
X14995476Y-13427476D01*
X15119286Y-13427476D01*
X15195476Y-13227476D02*
X15195476Y-13265571D01*
X15271667Y-13227476D02*
X15271667Y-13265571D01*
X15566905Y-13503667D02*
X15557381Y-13494143D01*
X15538333Y-13465571D01*
X15528809Y-13446524D01*
X15519286Y-13417952D01*
X15509762Y-13370333D01*
X15509762Y-13332238D01*
X15519286Y-13284619D01*
X15528809Y-13256048D01*
X15538333Y-13237000D01*
X15557381Y-13208428D01*
X15566905Y-13198905D01*
X15728809Y-13227476D02*
X15690714Y-13227476D01*
X15671667Y-13237000D01*
X15662143Y-13246524D01*
X15643095Y-13275095D01*
X15633571Y-13313190D01*
X15633571Y-13389381D01*
X15643095Y-13408428D01*
X15652619Y-13417952D01*
X15671667Y-13427476D01*
X15709762Y-13427476D01*
X15728809Y-13417952D01*
X15738333Y-13408428D01*
X15747857Y-13389381D01*
X15747857Y-13341762D01*
X15738333Y-13322714D01*
X15728809Y-13313190D01*
X15709762Y-13303667D01*
X15671667Y-13303667D01*
X15652619Y-13313190D01*
X15643095Y-13322714D01*
X15633571Y-13341762D01*
X15985952Y-13427476D02*
X15985952Y-13227476D01*
X16071667Y-13427476D02*
X16071667Y-13322714D01*
X16062143Y-13303667D01*
X16043095Y-13294143D01*
X16014524Y-13294143D01*
X15995476Y-13303667D01*
X15985952Y-13313190D01*
X16195476Y-13427476D02*
X16176428Y-13417952D01*
X16166905Y-13408428D01*
X16157381Y-13389381D01*
X16157381Y-13332238D01*
X16166905Y-13313190D01*
X16176428Y-13303667D01*
X16195476Y-13294143D01*
X16224048Y-13294143D01*
X16243095Y-13303667D01*
X16252619Y-13313190D01*
X16262143Y-13332238D01*
X16262143Y-13389381D01*
X16252619Y-13408428D01*
X16243095Y-13417952D01*
X16224048Y-13427476D01*
X16195476Y-13427476D01*
X16376428Y-13427476D02*
X16357381Y-13417952D01*
X16347857Y-13398905D01*
X16347857Y-13227476D01*
X16528809Y-13417952D02*
X16509762Y-13427476D01*
X16471667Y-13427476D01*
X16452619Y-13417952D01*
X16443095Y-13398905D01*
X16443095Y-13322714D01*
X16452619Y-13303667D01*
X16471667Y-13294143D01*
X16509762Y-13294143D01*
X16528809Y-13303667D01*
X16538333Y-13322714D01*
X16538333Y-13341762D01*
X16443095Y-13360809D01*
X16614524Y-13417952D02*
X16633571Y-13427476D01*
X16671667Y-13427476D01*
X16690714Y-13417952D01*
X16700238Y-13398905D01*
X16700238Y-13389381D01*
X16690714Y-13370333D01*
X16671667Y-13360809D01*
X16643095Y-13360809D01*
X16624048Y-13351286D01*
X16614524Y-13332238D01*
X16614524Y-13322714D01*
X16624048Y-13303667D01*
X16643095Y-13294143D01*
X16671667Y-13294143D01*
X16690714Y-13303667D01*
X16766905Y-13503667D02*
X16776428Y-13494143D01*
X16795476Y-13465571D01*
X16805000Y-13446524D01*
X16814524Y-13417952D01*
X16824048Y-13370333D01*
X16824048Y-13332238D01*
X16814524Y-13284619D01*
X16805000Y-13256048D01*
X16795476Y-13237000D01*
X16776428Y-13208428D01*
X16766905Y-13198905D01*
M02*
