M48
; DRILL file {KiCad (6.0.0)} date Sat Jan 15 14:34:22 2022
; FORMAT={-:-/ absolute / inch / decimal}
; #@! TF.CreationDate,2022-01-15T14:34:22+01:00
; #@! TF.GenerationSoftware,Kicad,Pcbnew,(6.0.0)
; #@! TF.FileFunction,Plated,1,2,PTH
FMAT,2
INCH
; #@! TA.AperFunction,Plated,PTH,ViaDrill
T1C0.0150
; #@! TA.AperFunction,Plated,PTH,ComponentDrill
T2C0.0390
; #@! TA.AperFunction,Plated,PTH,ComponentDrill
T3C0.0394
; #@! TA.AperFunction,Plated,PTH,ComponentDrill
T4C0.0512
%
G90
G05
T1
X5.0394Y-3.6831
X5.2756Y-3.8051
T2
X4.8366Y-3.8297
X4.8366Y-4.0069
X5.3937Y-3.2623
X5.5709Y-3.2623
X6.1457Y-3.8278
X6.1457Y-4.0049
T3
X4.9813Y-4.3708
X4.9813Y-4.4692
X5.2126Y-3.6998
X5.3126Y-3.6998
X5.4126Y-3.6998
X5.5126Y-3.6998
X5.6126Y-3.6998
X5.7126Y-3.6998
X5.8126Y-3.6998
X6.1801Y-3.2606
X6.1801Y-3.3606
X6.1801Y-3.4606
T4
X4.9346Y-3.7801
X4.9346Y-4.0561
X5.3445Y-3.3603
X5.6205Y-3.3603
X6.0476Y-3.7785
X6.0476Y-4.0545
T3
G00X5.3051Y-4.2528
M15
G01X5.3051Y-4.2685
M16
G05
G00X5.4941Y-4.2528
M15
G01X5.4941Y-4.2685
M16
G05
G00X5.6831Y-4.2528
M15
G01X5.6831Y-4.2685
M16
G05
T0
M30
