%TF.GenerationSoftware,KiCad,Pcbnew,(6.0.0)*%
%TF.CreationDate,2022-01-15T14:34:17+01:00*%
%TF.ProjectId,bike_pixel_m,62696b65-5f70-4697-9865-6c5f6d2e6b69,v0.5*%
%TF.SameCoordinates,Original*%
%TF.FileFunction,Copper,L1,Top*%
%TF.FilePolarity,Positive*%
%FSLAX46Y46*%
G04 Gerber Fmt 4.6, Leading zero omitted, Abs format (unit mm)*
G04 Created by KiCad (PCBNEW (6.0.0)) date 2022-01-15 14:34:17*
%MOMM*%
%LPD*%
G01*
G04 APERTURE LIST*
G04 Aperture macros list*
%AMRoundRect*
0 Rectangle with rounded corners*
0 $1 Rounding radius*
0 $2 $3 $4 $5 $6 $7 $8 $9 X,Y pos of 4 corners*
0 Add a 4 corners polygon primitive as box body*
4,1,4,$2,$3,$4,$5,$6,$7,$8,$9,$2,$3,0*
0 Add four circle primitives for the rounded corners*
1,1,$1+$1,$2,$3*
1,1,$1+$1,$4,$5*
1,1,$1+$1,$6,$7*
1,1,$1+$1,$8,$9*
0 Add four rect primitives between the rounded corners*
20,1,$1+$1,$2,$3,$4,$5,0*
20,1,$1+$1,$4,$5,$6,$7,0*
20,1,$1+$1,$6,$7,$8,$9,0*
20,1,$1+$1,$8,$9,$2,$3,0*%
G04 Aperture macros list end*
%TA.AperFunction,SMDPad,CuDef*%
%ADD10RoundRect,0.250000X-1.750000X-1.000000X1.750000X-1.000000X1.750000X1.000000X-1.750000X1.000000X0*%
%TD*%
%TA.AperFunction,SMDPad,CuDef*%
%ADD11RoundRect,0.237500X0.237500X-0.250000X0.237500X0.250000X-0.237500X0.250000X-0.237500X-0.250000X0*%
%TD*%
%TA.AperFunction,SMDPad,CuDef*%
%ADD12RoundRect,0.250000X0.337500X0.475000X-0.337500X0.475000X-0.337500X-0.475000X0.337500X-0.475000X0*%
%TD*%
%TA.AperFunction,ComponentPad*%
%ADD13R,1.700000X1.700000*%
%TD*%
%TA.AperFunction,ComponentPad*%
%ADD14O,1.700000X1.700000*%
%TD*%
%TA.AperFunction,SMDPad,CuDef*%
%ADD15R,3.500000X2.300000*%
%TD*%
%TA.AperFunction,SMDPad,CuDef*%
%ADD16RoundRect,0.250000X-1.075000X0.400000X-1.075000X-0.400000X1.075000X-0.400000X1.075000X0.400000X0*%
%TD*%
%TA.AperFunction,SMDPad,CuDef*%
%ADD17RoundRect,0.150000X-0.150000X0.512500X-0.150000X-0.512500X0.150000X-0.512500X0.150000X0.512500X0*%
%TD*%
%TA.AperFunction,SMDPad,CuDef*%
%ADD18R,3.600000X2.700000*%
%TD*%
%TA.AperFunction,ComponentPad*%
%ADD19C,2.100000*%
%TD*%
%TA.AperFunction,ComponentPad*%
%ADD20C,1.750000*%
%TD*%
%TA.AperFunction,SMDPad,CuDef*%
%ADD21RoundRect,0.250000X-0.475000X0.337500X-0.475000X-0.337500X0.475000X-0.337500X0.475000X0.337500X0*%
%TD*%
%TA.AperFunction,ComponentPad*%
%ADD22RoundRect,0.400000X-0.400000X-0.700000X0.400000X-0.700000X0.400000X0.700000X-0.400000X0.700000X0*%
%TD*%
%TA.AperFunction,SMDPad,CuDef*%
%ADD23RoundRect,0.250000X2.125000X-0.362500X2.125000X0.362500X-2.125000X0.362500X-2.125000X-0.362500X0*%
%TD*%
%TA.AperFunction,ComponentPad*%
%ADD24RoundRect,0.250000X-0.750000X0.600000X-0.750000X-0.600000X0.750000X-0.600000X0.750000X0.600000X0*%
%TD*%
%TA.AperFunction,ComponentPad*%
%ADD25O,2.000000X1.700000*%
%TD*%
%TA.AperFunction,SMDPad,CuDef*%
%ADD26RoundRect,0.250000X0.400000X1.075000X-0.400000X1.075000X-0.400000X-1.075000X0.400000X-1.075000X0*%
%TD*%
%TA.AperFunction,SMDPad,CuDef*%
%ADD27RoundRect,0.250000X-2.125000X0.362500X-2.125000X-0.362500X2.125000X-0.362500X2.125000X0.362500X0*%
%TD*%
%TA.AperFunction,ViaPad*%
%ADD28C,0.762000*%
%TD*%
%TA.AperFunction,Conductor*%
%ADD29C,0.254000*%
%TD*%
G04 APERTURE END LIST*
D10*
%TO.P,C3,1*%
%TO.N,GND*%
X146717500Y-85350000D03*
%TO.P,C3,2*%
%TO.N,+5V*%
X152817500Y-85350000D03*
%TD*%
D11*
%TO.P,R6,1*%
%TO.N,+5V*%
X128250000Y-100412500D03*
%TO.P,R6,2*%
%TO.N,Net-(J2-Pad4)*%
X128250000Y-98587500D03*
%TD*%
%TO.P,R8,1*%
%TO.N,Net-(J2-Pad7)*%
X157000000Y-92912500D03*
%TO.P,R8,2*%
%TO.N,Net-(J3-Pad1)*%
X157000000Y-91087500D03*
%TD*%
D12*
%TO.P,C1,1*%
%TO.N,Net-(C1-Pad1)*%
X138375300Y-105410000D03*
%TO.P,C1,2*%
%TO.N,GND*%
X136300300Y-105410000D03*
%TD*%
D13*
%TO.P,J3,1,Pin_1*%
%TO.N,Net-(J3-Pad1)*%
X156975000Y-87900000D03*
D14*
%TO.P,J3,2,Pin_2*%
%TO.N,+5V*%
X156975000Y-85360000D03*
%TO.P,J3,3,Pin_3*%
%TO.N,GND*%
X156975000Y-82820000D03*
%TD*%
D15*
%TO.P,D1,1,K*%
%TO.N,+5V*%
X140208000Y-99568000D03*
%TO.P,D1,2,A*%
%TO.N,Net-(D1-Pad2)*%
X145608000Y-99568000D03*
%TD*%
D16*
%TO.P,R2,1*%
%TO.N,Net-(R1-Pad2)*%
X131200000Y-103150000D03*
%TO.P,R2,2*%
%TO.N,GND*%
X131200000Y-106250000D03*
%TD*%
D17*
%TO.P,U1,1,SW*%
%TO.N,Net-(D1-Pad2)*%
X145298200Y-103154900D03*
%TO.P,U1,2,GND*%
%TO.N,GND*%
X144348200Y-103154900D03*
%TO.P,U1,3,FB*%
%TO.N,Net-(R1-Pad2)*%
X143398200Y-103154900D03*
%TO.P,U1,4,EN*%
%TO.N,Net-(C1-Pad1)*%
X143398200Y-105429900D03*
%TO.P,U1,5,IN*%
X144348200Y-105429900D03*
%TO.P,U1,6,NC*%
%TO.N,unconnected-(U1-Pad6)*%
X145298200Y-105429900D03*
%TD*%
D18*
%TO.P,L1,1,1*%
%TO.N,Net-(C1-Pad1)*%
X152654000Y-116545000D03*
%TO.P,L1,2,2*%
%TO.N,Net-(D1-Pad2)*%
X152654000Y-108245000D03*
%TD*%
D19*
%TO.P,SW2,*%
%TO.N,*%
X135750000Y-85352500D03*
X142760000Y-85352500D03*
D20*
%TO.P,SW2,1,1*%
%TO.N,GND*%
X137000000Y-82862500D03*
%TO.P,SW2,2,2*%
%TO.N,Net-(J2-Pad2)*%
X141500000Y-82862500D03*
%TD*%
D21*
%TO.P,C2,1*%
%TO.N,+5V*%
X128500000Y-102712500D03*
%TO.P,C2,2*%
%TO.N,GND*%
X128500000Y-104787500D03*
%TD*%
D22*
%TO.P,SW1,1,A*%
%TO.N,Net-(J1-Pad2)*%
X134750000Y-108220000D03*
%TO.P,SW1,2,B*%
X139550000Y-108220000D03*
%TO.P,SW1,3,C*%
%TO.N,Net-(C1-Pad1)*%
X144350000Y-108220000D03*
%TD*%
D19*
%TO.P,SW3,*%
%TO.N,*%
X125340000Y-96015000D03*
X125340000Y-103025000D03*
D20*
%TO.P,SW3,1,1*%
%TO.N,GND*%
X122850000Y-101775000D03*
%TO.P,SW3,2,2*%
%TO.N,Net-(J2-Pad4)*%
X122850000Y-97275000D03*
%TD*%
D23*
%TO.P,R3,1*%
%TO.N,Net-(C1-Pad1)*%
X123700000Y-93562500D03*
%TO.P,R3,2*%
%TO.N,Net-(J2-Pad1)*%
X123700000Y-90437500D03*
%TD*%
D24*
%TO.P,J1,1,Pin_1*%
%TO.N,GND*%
X126525000Y-111018000D03*
D25*
%TO.P,J1,2,Pin_2*%
%TO.N,Net-(J1-Pad2)*%
X126525000Y-113518000D03*
%TD*%
D11*
%TO.P,R7,1*%
%TO.N,+5V*%
X150750000Y-100662500D03*
%TO.P,R7,2*%
%TO.N,Net-(J2-Pad6)*%
X150750000Y-98837500D03*
%TD*%
D13*
%TO.P,J2,1,Pin_1*%
%TO.N,Net-(J2-Pad1)*%
X132400000Y-93975000D03*
D14*
%TO.P,J2,2,Pin_2*%
%TO.N,Net-(J2-Pad2)*%
X134940000Y-93975000D03*
%TO.P,J2,3,Pin_3*%
%TO.N,+5V*%
X137480000Y-93975000D03*
%TO.P,J2,4,Pin_4*%
%TO.N,Net-(J2-Pad4)*%
X140020000Y-93975000D03*
%TO.P,J2,5,Pin_5*%
%TO.N,GND*%
X142560000Y-93975000D03*
%TO.P,J2,6,Pin_6*%
%TO.N,Net-(J2-Pad6)*%
X145100000Y-93975000D03*
%TO.P,J2,7,Pin_7*%
%TO.N,Net-(J2-Pad7)*%
X147640000Y-93975000D03*
%TD*%
D26*
%TO.P,R1,1*%
%TO.N,+5V*%
X136196000Y-100076000D03*
%TO.P,R1,2*%
%TO.N,Net-(R1-Pad2)*%
X133096000Y-100076000D03*
%TD*%
D11*
%TO.P,R5,1*%
%TO.N,+5V*%
X139500000Y-89912500D03*
%TO.P,R5,2*%
%TO.N,Net-(J2-Pad2)*%
X139500000Y-88087500D03*
%TD*%
D27*
%TO.P,R4,1*%
%TO.N,GND*%
X131350000Y-87350000D03*
%TO.P,R4,2*%
%TO.N,Net-(J2-Pad1)*%
X131350000Y-90475000D03*
%TD*%
D19*
%TO.P,SW4,*%
%TO.N,*%
X153610000Y-102985000D03*
X153610000Y-95975000D03*
D20*
%TO.P,SW4,1,1*%
%TO.N,GND*%
X156100000Y-97225000D03*
%TO.P,SW4,2,2*%
%TO.N,Net-(J2-Pad6)*%
X156100000Y-101725000D03*
%TD*%
D28*
%TO.N,Net-(C1-Pad1)*%
X128000000Y-93550000D03*
%TO.N,Net-(J2-Pad4)*%
X134000000Y-96650000D03*
%TD*%
D29*
%TO.N,Net-(C1-Pad1)*%
X138395200Y-105429900D02*
X138375300Y-105410000D01*
X144350000Y-105431700D02*
X144348200Y-105429900D01*
X128000000Y-93550000D02*
X123712500Y-93550000D01*
X152654000Y-116545000D02*
X152654000Y-114904000D01*
X123712500Y-93550000D02*
X123700000Y-93562500D01*
X144350000Y-108220000D02*
X144350000Y-105431700D01*
X143398200Y-105429900D02*
X138395200Y-105429900D01*
X152654000Y-114904000D02*
X145970000Y-108220000D01*
X145970000Y-108220000D02*
X144350000Y-108220000D01*
X144348200Y-105429900D02*
X143398200Y-105429900D01*
%TO.N,GND*%
X131350000Y-87275064D02*
X131350000Y-87350000D01*
X142974489Y-81606989D02*
X138255511Y-81606989D01*
X126525000Y-106837436D02*
X122850000Y-103162436D01*
X149247500Y-82820000D02*
X146717500Y-85350000D01*
X135460300Y-106250000D02*
X136300300Y-105410000D01*
X126525000Y-111018000D02*
X126525000Y-106837436D01*
X144348200Y-103154900D02*
X144348200Y-103617668D01*
X128500000Y-106196000D02*
X128500000Y-104537500D01*
X137512380Y-104197920D02*
X136300300Y-105410000D01*
X138255511Y-81606989D02*
X137000000Y-82862500D01*
X127112436Y-106250000D02*
X126525000Y-106837436D01*
X131200000Y-106250000D02*
X127112436Y-106250000D01*
X143767948Y-104197920D02*
X137512380Y-104197920D01*
X156975000Y-82820000D02*
X149320000Y-82820000D01*
X135762564Y-82862500D02*
X131350000Y-87275064D01*
X146717500Y-85350000D02*
X142974489Y-81606989D01*
X137000000Y-82862500D02*
X135762564Y-82862500D01*
X122850000Y-103162436D02*
X122850000Y-101775000D01*
X131200000Y-106250000D02*
X135460300Y-106250000D01*
X144348200Y-103617668D02*
X143767948Y-104197920D01*
%TO.N,+5V*%
X152817500Y-85350000D02*
X148255000Y-89912500D01*
X130882500Y-97780000D02*
X137480000Y-97780000D01*
X128250000Y-100412500D02*
X130882500Y-97780000D01*
X146037500Y-95950000D02*
X137660000Y-95950000D01*
X137480000Y-93975000D02*
X137480000Y-91932500D01*
X137660000Y-95950000D02*
X137480000Y-95770000D01*
X137480000Y-91932500D02*
X139500000Y-89912500D01*
X137480000Y-99520000D02*
X137432000Y-99568000D01*
X137480000Y-93975000D02*
X137480000Y-95920000D01*
X150750000Y-100662500D02*
X146037500Y-95950000D01*
X148255000Y-89912500D02*
X139500000Y-89912500D01*
X137432000Y-99568000D02*
X136704000Y-99568000D01*
X128500000Y-102712500D02*
X128500000Y-100662500D01*
X137480000Y-95770000D02*
X137480000Y-95920000D01*
X128500000Y-100662500D02*
X128250000Y-100412500D01*
X156975000Y-85360000D02*
X152827500Y-85360000D01*
X136704000Y-99568000D02*
X136196000Y-100076000D01*
X140208000Y-99568000D02*
X137432000Y-99568000D01*
X152827500Y-85360000D02*
X152817500Y-85350000D01*
X137480000Y-97780000D02*
X137480000Y-99520000D01*
X137480000Y-96930000D02*
X137480000Y-97780000D01*
X137480000Y-96930000D02*
X137480000Y-95920000D01*
%TO.N,Net-(D1-Pad2)*%
X152654000Y-108245000D02*
X150388300Y-108245000D01*
X145298200Y-103154900D02*
X145298200Y-99877800D01*
X150388300Y-108245000D02*
X145298200Y-103154900D01*
X145298200Y-99877800D02*
X145608000Y-99568000D01*
%TO.N,Net-(J1-Pad2)*%
X126525000Y-113518000D02*
X129452000Y-113518000D01*
X134750000Y-108220000D02*
X139550000Y-108220000D01*
X129452000Y-113518000D02*
X134750000Y-108220000D01*
%TO.N,Net-(J2-Pad1)*%
X132400000Y-91525000D02*
X132400000Y-93975000D01*
X123737500Y-90475000D02*
X123700000Y-90437500D01*
X131350000Y-90475000D02*
X123737500Y-90475000D01*
X131350000Y-90475000D02*
X132400000Y-91525000D01*
%TO.N,Net-(J2-Pad2)*%
X141500000Y-82862500D02*
X139500000Y-84862500D01*
X134940000Y-92647500D02*
X134940000Y-93975000D01*
X139500000Y-84862500D02*
X139500000Y-88087500D01*
X139500000Y-88087500D02*
X134940000Y-92647500D01*
%TO.N,Net-(J2-Pad4)*%
X128250000Y-98587500D02*
X124162500Y-98587500D01*
X128250000Y-98587500D02*
X128450000Y-98587500D01*
X124162500Y-98587500D02*
X122850000Y-97275000D01*
X130387500Y-96650000D02*
X134000000Y-96650000D01*
X128450000Y-98587500D02*
X130387500Y-96650000D01*
%TO.N,Net-(J2-Pad6)*%
X149962500Y-98837500D02*
X145100000Y-93975000D01*
X150750000Y-98837500D02*
X149962500Y-98837500D01*
X153037500Y-98837500D02*
X156100000Y-101900000D01*
X150750000Y-98837500D02*
X153037500Y-98837500D01*
%TO.N,Net-(J2-Pad7)*%
X155937500Y-93975000D02*
X157000000Y-92912500D01*
X147640000Y-93975000D02*
X155937500Y-93975000D01*
%TO.N,Net-(J3-Pad1)*%
X156975000Y-91062500D02*
X157000000Y-91087500D01*
X156975000Y-87900000D02*
X156975000Y-91062500D01*
%TO.N,Net-(R1-Pad2)*%
X131838700Y-101333300D02*
X131200000Y-101972000D01*
X133660300Y-103154900D02*
X131838700Y-101333300D01*
X131200000Y-101972000D02*
X131200000Y-103150000D01*
X143398200Y-103154900D02*
X133660300Y-103154900D01*
X133096000Y-100076000D02*
X131838700Y-101333300D01*
%TD*%
M02*
