<?xml version='1.0' encoding='UTF-8' standalone='no'?>
<!-- Created with Fritzing (http://www.fritzing.org/) -->
<svg xmlns="http://www.w3.org/2000/svg" baseProfile="tiny"  x="0in" y="0in" version="1.2" height="1.1811in" xmlns:svg="http://www.w3.org/2000/svg" viewBox="0 0 85.0392 85.0392" width="1.1811in">
 <g partID="854434920">
  <g transform="matrix(1, 0, 0, 1, -2.12598, 1.79232)">
   <g id="board">
    <g style="display:inline">
     <rect stroke-width="0.5" stroke="black" id="boardoutline" x="2.12598" y="-1.79232" height="85.0392" fill="none" width="85.0392" ry="2.66453e-15"/>
    </g>
   </g>
  </g>
 </g>
 <g partID="854468750">
  <g transform="translate(19.3503,23.4123)">
   <g transform="matrix(-1, 0, 0, 1, 47, 0)">
    <g _flipped_="1" id="silkscreen0">
     <g id="silkscreen0">
      <path d="M277.271,128.531l-2.146,-0.399c-0.547,-0.0999999,-1.439,-0.267,-1.986,-0.366l-18.277,-3.398c-0.547,-0.104,-1.146,-0.614,-1.325,-1.143l-6.871,-16.024c-0.257,-0.495,-0.206,-1.273,0.106,-1.733L257.454,89.8999c0.313,-0.459,0.829,-1.211,1.144,-1.67l1.234,-1.797c0.313,-0.459,0.249,-1.154,-0.146,-1.552l-1.541,-1.541l-1.43,-1.43l-4.469,-4.472l-1.432,-1.43l-4.467,-4.47l-1.433,-1.431l-1.542,-1.541c-0.396,-0.396,-1.09,-0.459,-1.549,-0.146l-1.801,1.232c-0.459,0.313,-1.209,0.827999,-1.668,1.146L222.46,81.7089c-0.458,0.314,-1.241,0.371,-1.739,0.127l-15.537,-6.357c-0.526,-0.177,-1.043,-0.767999,-1.146,-1.313l-3.545,-19.049c-0.104,-0.55,-0.271,-1.439,-0.369,-1.987l-0.397,-2.146c-0.104,-0.547,-0.643,-0.990999,-1.194,-0.990999l-2.181,0l-2.021,0l-6.32,0l-2.021,0l-6.319,0l-2.021,0l-2.178,0c-0.559,0,-1.097,0.444,-1.195,0.992999l-0.397,2.145c-0.104,0.548,-0.271,1.438,-0.368,1.987l-3.546,19.049c-0.104,0.547,-0.614,1.14,-1.146,1.313l-15.536,6.357c-0.498,0.244,-1.281,0.188,-1.739,-0.127L135.646,70.7999c-0.459,-0.313,-1.209,-0.829999,-1.668,-1.146l-1.799,-1.232c-0.459,-0.313,-1.154,-0.25,-1.549,0.146l-1.542,1.541l-1.432,1.431l-4.47,4.472l-1.43,1.43l-4.469,4.47l-1.432,1.43l-1.541,1.541c-0.396,0.396,-0.459,1.093,-0.146,1.552l1.231,1.797c0.313,0.459,0.828,1.211,1.146,1.67l10.683,15.563c0.313,0.46,0.363,1.238,0.107,1.732l-6.869,16.027c-0.185,0.522,-0.779,1.036,-1.326,1.141l-18.276,3.4c-0.548,0.102,-1.44,0.269,-1.988,0.364l-2.146,0.397c-0.547,0.104,-0.993,0.642999,-0.993,1.197l0,2.183l0,2.021l0,6.318l0,2.021l0,6.314l0,2.021l0,2.182c0,0.558,0.448,1.096,0.995,1.195l2.145,0.396c0.549,0.104,1.439,0.271,1.988,0.371l17.729,3.3c0.547,0.102,1.131,0.617,1.299,1.146l6.822,17.05c0.244,0.499,0.188,1.282,-0.129,1.741l-10.039,14.629c-0.314,0.46,-0.83,1.21,-1.146,1.666l-1.232,1.801c-0.313,0.458,-0.25,1.154,0.146,1.55l1.543,1.541l1.431,1.431l4.472,4.473l1.43,1.43l4.469,4.469l1.432,1.43l1.543,1.541c0.395,0.395,1.092,0.457,1.551,0.145l1.797,-1.23c0.457,-0.313,1.207,-0.829999,1.666,-1.146l14.312,-9.81799c0.458,-0.313,1.228,-0.341,1.704,-0.061l2.973,1.672c0.487,0.266,1.295,0.687999,1.791,0.937999l3.076,1.576c0.496,0.252,1.074,0.039,1.287,-0.478l1.32,-3.19c0.213,-0.517,0.563,-1.354,0.773,-1.869l12.414,-30.002c0.215,-0.513,0.563,-1.354,0.772,-1.867l0.88,-2.125c0.213,-0.514,-0.003,-1.172,-0.479,-1.461l-1.961,-1.199c-0.363,-0.223,-0.854,-0.604,-1.24,-0.948999c-7.078,-4.532,-11.771,-12.461,-11.771,-21.486c0,-14.09,11.421,-25.511,25.509,-25.511s25.51,11.42,25.51,25.511c0,9.02599,-4.693,16.954,-11.771,21.486c-0.387,0.35,-0.877,0.728999,-1.239,0.948999l-1.961,1.199c-0.476,0.289,-0.688,0.946999,-0.478,1.461l0.88,2.125c0.214,0.516,0.563,1.354,0.771,1.867l12.414,30.002c0.215,0.515,0.563,1.354,0.771,1.869l1.324,3.19c0.213,0.517,0.791,0.728999,1.287,0.478l3.076,-1.576c0.496,-0.254,1.303,-0.673999,1.791,-0.937999l2.971,-1.672c0.479,-0.28,1.248,-0.256,1.705,0.061l14.313,9.81799c0.457,0.313,1.21,0.829999,1.665,1.146l1.802,1.23c0.457,0.313,1.153,0.25,1.547,-0.145l1.541,-1.541l1.433,-1.43l4.468,-4.471l1.432,-1.43l4.473,-4.471l1.43,-1.431l1.543,-1.541c0.395,-0.396,0.457,-1.092,0.145,-1.55l-1.233,-1.801c-0.313,-0.456,-0.829,-1.206,-1.146,-1.665l-10.041,-14.63c-0.313,-0.459,-0.373,-1.241,-0.127,-1.741l6.821,-17.05c0.168,-0.529,0.753,-1.049,1.3,-1.146l17.729,-3.3c0.548,-0.104,1.442,-0.271,1.989,-0.37l2.143,-0.396c0.548,-0.104,0.993,-0.642999,0.993,-1.195l0,-2.182l0,-2.021l0,-6.314l0,-2.021l0.002,-6.318l0,-2.021l0,-2.183C278.266,129.171,277.818,128.634,277.271,128.531" id="path3024" fill="black" display="none"/>
      <path d="M34.792,16.005c-0.313,-1.442,-0.899,-2.782,-1.703,-3.965l2.437,-3.55l-1.047,-1.047l-1.047,-1.045l-3.597,2.468c-1.168,-0.754999,-2.481,-1.304,-3.892,-1.591l0,0l-0.803,-4.311l-1.479,0l-1.48,0L21.38,7.27499l0,0c-1.409,0.287,-2.723,0.835999,-3.892,1.591l-3.596,-2.468l-1.047,1.045L11.799,8.48999l2.436,3.55c-0.803,1.183,-1.389,2.522,-1.702,3.965L8.365,16.78l0,1.479l0,1.48l4.089,0.760999c0.276,1.511,0.851,2.917,1.659,4.156l-2.315,3.373l1.048,1.046l1.045,1.048l3.33,-2.285c0.402,0.276,0.824,0.527,1.262,0.751999l2.34,-5.652c-1.566,-0.958999,-2.611,-2.686,-2.611,-4.654c0,-3.01,2.439,-5.45,5.451,-5.45c3.01,0,5.448,2.44,5.448,5.45c0,1.971,-1.045,3.695,-2.61,4.654l2.34,5.652c0.438,-0.224,0.858,-0.476,1.263,-0.751999l3.33,2.285l1.047,-1.048l1.045,-1.046l-2.313,-3.373c0.81,-1.239,1.384,-2.646,1.659,-4.156l4.09,-0.760999l0,-1.48L38.962,16.78L34.792,16.005z" id="path3028" fill="black"/>
      <path d="M19.107,36.936l0,-4.398l0.49,-0.214l0,1.396c0.191,-0.136,0.411,-0.204,0.659,-0.204c0.318,0,0.591,0.112,0.815,0.336c0.227,0.226,0.34,0.496,0.34,0.812999l0,2.06l-0.489,0.213l0,-2.264c-0.004,-0.188,-0.069,-0.347,-0.196,-0.47c-0.129,-0.128,-0.283,-0.192,-0.461,-0.192c-0.189,0,-0.348,0.064,-0.477,0.192c-0.126,0.126,-0.189,0.276,-0.191,0.452l0,0.018l0,2.051L19.107,36.936z" fill="black"/>
      <path d="M22.645,36.035c0,0.0679999,0.027,0.138,0.08,0.209c0.099,0.131,0.254,0.197,0.467,0.197c0.131,0,0.246,-0.03,0.346,-0.0919999l0.184,0.461c-0.158,0.0839999,-0.336,0.125,-0.529,0.125c-0.305,0,-0.576,-0.111,-0.813,-0.336c-0.158,-0.162,-0.238,-0.352,-0.238,-0.563c0,-0.00899999,0,-0.017,0,-0.022c0,-0.381,0.194,-0.647999,0.586,-0.808999l1.241,-0.516c0,-0.19,-0.063,-0.354,-0.192,-0.484s-0.291,-0.196,-0.486,-0.196c-0.17,0,-0.321,0.063,-0.452,0.191c-0.125,0.124,-0.192,0.278,-0.194,0.47l0,0.044l-0.49,0.218l0,-0.271c0,-0.284,0.123,-0.56,0.367,-0.817999c0.209,-0.22,0.472,-0.327,0.789,-0.327c0.316,0,0.588,0.109,0.813,0.334c0.226,0.226,0.336,0.494,0.336,0.812999l0,2.061l-0.489,0.213l0,-1.713l-1.007,0.409C22.75,35.732,22.645,35.868,22.645,36.035z" fill="black"/>
      <path d="M25.195,36.936l0,-2.271c0,-0.317,0.111,-0.588,0.337,-0.812999c0.224,-0.224,0.493,-0.336,0.813,-0.336c0.321,0,0.596,0.112,0.813,0.336c0.229,0.232,0.34,0.504,0.34,0.812999l0,0.013l-0.489,0.215l0,-0.219c-0.004,-0.189,-0.067,-0.347,-0.194,-0.471c-0.131,-0.127,-0.283,-0.191,-0.461,-0.191c-0.187,0,-0.345,0.064,-0.475,0.191c-0.131,0.129,-0.193,0.281,-0.193,0.462c0,0.004,0,0.00699999,0,0.00899999l0,2.051L25.195,36.936z" fill="black"/>
      <path d="M30.542,32.32l0,3.468c0,0.315,-0.112,0.588,-0.339,0.812999c-0.227,0.224,-0.497,0.334,-0.814,0.334c-0.315,0,-0.588,-0.11,-0.813,-0.334c-0.225,-0.226,-0.336,-0.496,-0.336,-0.812999l0,-1.124c0,-0.316,0.111,-0.588,0.336,-0.812999c0.224,-0.226,0.494,-0.336,0.813,-0.336c0.25,0,0.473,0.0669999,0.666,0.207l0,-1.188L30.542,32.32zM28.729,35.777c0,0.188,0.067,0.346,0.205,0.472c0.14,0.127,0.295,0.19,0.475,0.19c0.171,0,0.32,-0.063,0.449,-0.19c0.127,-0.125,0.191,-0.281,0.197,-0.472l0,-1.105c-0.006,-0.188,-0.07,-0.346,-0.197,-0.47c-0.129,-0.128,-0.293,-0.191,-0.486,-0.191c-0.171,0,-0.32,0.063,-0.449,0.191c-0.126,0.126,-0.189,0.278,-0.191,0.452l0,0.018l0,1.105L28.729,35.777z" fill="black"/>
      <path d="M31.014,36.104L31.014,33.73l0.488,-0.215l-0.003,2.574c0,0.104,0.034,0.188,0.103,0.262c0.065,0.0679999,0.146,0.104,0.237,0.104c0.097,0,0.179,-0.035,0.244,-0.104c0.069,-0.0739999,0.104,-0.16,0.104,-0.26L32.187,36.09l0.004,-2.359l0.488,-0.215l-0.005,2.574c0,0.104,0.034,0.188,0.103,0.26s0.146,0.106,0.238,0.106c0.094,0,0.176,-0.035,0.243,-0.106c0.068,-0.0689999,0.104,-0.156,0.104,-0.26l0.005,-2.359l0.487,-0.215l0,2.59c0,0.229,-0.08,0.426,-0.244,0.586c-0.161,0.164,-0.358,0.244,-0.588,0.244c-0.238,0,-0.437,-0.0799999,-0.59,-0.235c-0.162,0.155,-0.358,0.235,-0.586,0.235c-0.244,0,-0.443,-0.0799999,-0.598,-0.235C31.096,36.537,31.016,36.339,31.014,36.104z" fill="black"/>
      <path d="M34.818,36.035c0,0.0679999,0.024,0.138,0.078,0.209c0.099,0.131,0.254,0.197,0.469,0.197c0.13,0,0.246,-0.03,0.346,-0.0919999l0.184,0.461c-0.16,0.0839999,-0.336,0.125,-0.527,0.125c-0.307,0,-0.576,-0.111,-0.813,-0.336c-0.158,-0.162,-0.238,-0.352,-0.238,-0.563c0,-0.00899999,0,-0.017,0,-0.022c0,-0.381,0.193,-0.647999,0.584,-0.808999l1.242,-0.516c0,-0.19,-0.064,-0.354,-0.193,-0.484c-0.127,-0.131,-0.289,-0.196,-0.484,-0.196c-0.171,0,-0.322,0.063,-0.451,0.191c-0.127,0.124,-0.191,0.278,-0.195,0.47l0,0.044l-0.488,0.218l0,-0.271c0,-0.284,0.122,-0.56,0.365,-0.817999c0.207,-0.22,0.472,-0.327,0.787,-0.327c0.318,0,0.591,0.109,0.813,0.334c0.224,0.226,0.336,0.494,0.336,0.812999l0,2.061l-0.489,0.213l0,-1.713l-1.006,0.409C34.923,35.732,34.818,35.868,34.818,36.035z" fill="black"/>
      <path d="M37.369,36.936l0,-2.271c0,-0.317,0.111,-0.588,0.336,-0.812999c0.225,-0.224,0.495,-0.336,0.813,-0.336c0.323,0,0.596,0.112,0.815,0.336c0.226,0.232,0.339,0.504,0.339,0.812999l0,0.013l-0.488,0.215l0,-0.219c-0.004,-0.189,-0.067,-0.347,-0.195,-0.471c-0.131,-0.127,-0.283,-0.191,-0.461,-0.191c-0.187,0,-0.344,0.064,-0.475,0.191c-0.131,0.129,-0.195,0.281,-0.195,0.462c0,0.004,0,0.00699999,0,0.00899999l0,2.051L37.369,36.936z" fill="black"/>
      <path d="M41.58,36.441c0.171,0,0.32,-0.064,0.452,-0.191c0.126,-0.125,0.19,-0.281,0.194,-0.471l0,-0.045l0.488,-0.215l0,0.269c0,0.284,-0.122,0.56,-0.365,0.816999c-0.207,0.222,-0.472,0.33,-0.787,0.33c-0.318,0,-0.59,-0.111,-0.813,-0.336s-0.335,-0.494,-0.335,-0.812999l0,-1.124c0,-0.316,0.111,-0.588,0.335,-0.812999c0.224,-0.226,0.495,-0.338,0.813,-0.338c0.305,0,0.576,0.112,0.813,0.338c0.229,0.211,0.339,0.481,0.339,0.812999l0,0.287L40.9,35.756c0,0.193,0.063,0.355,0.191,0.487C41.221,36.374,41.385,36.441,41.58,36.441zM41.544,34.011c-0.171,0,-0.321,0.063,-0.448,0.191c-0.129,0.129,-0.193,0.282,-0.193,0.462c0,0.004,0,0.00699999,0,0.00899999l0,0.55l1.322,-0.588c-0.01,-0.172,-0.074,-0.314,-0.19,-0.432C41.9,34.074,41.738,34.011,41.544,34.011z" fill="black"/>
      <path stroke-width="0.2" d="M5.432,33.419c-0.316,0,-0.589,0.112,-0.813,0.336c-0.225,0.224,-0.336,0.495,-0.336,0.812999l0,1.123c0,0.315,0.111,0.589,0.336,0.812999c0.224,0.225,0.494,0.335,0.813,0.335c0.319,0,0.59,-0.11,0.815,-0.335c0.226,-0.224,0.339,-0.495,0.339,-0.812999l0,-1.123c0,-0.318,-0.113,-0.59,-0.339,-0.812999C6.021,33.532,5.749,33.419,5.432,33.419zM6.098,35.684c-0.004,0.188,-0.068,0.347,-0.195,0.472c-0.131,0.128,-0.281,0.19,-0.452,0.19c-0.177,0,-0.335,-0.063,-0.474,-0.19c-0.137,-0.128,-0.205,-0.284,-0.205,-0.472l0,0l0,-1.104l0,-0.021c0.002,-0.176,0.065,-0.324,0.191,-0.451c0.128,-0.129,0.278,-0.191,0.449,-0.191c0.195,0,0.357,0.063,0.488,0.191c0.127,0.125,0.192,0.281,0.197,0.472L6.098,35.684L6.098,35.684z" stroke="black" fill="black"/>
      <path stroke-width="0.2" d="M8.639,33.419c-0.318,0,-0.59,0.112,-0.816,0.336c-0.226,0.224,-0.338,0.495,-0.338,0.812999l0,3.467l0.488,-0.215l0,-1.188c0.192,0.14,0.416,0.207,0.666,0.207c0.317,0,0.588,-0.11,0.813,-0.335c0.225,-0.224,0.336,-0.495,0.336,-0.812999l0,-1.123c0,-0.318,-0.112,-0.59,-0.336,-0.812999C9.227,33.531,8.955,33.419,8.639,33.419zM9.297,35.684c-0.004,0.188,-0.068,0.347,-0.195,0.472c-0.131,0.128,-0.281,0.19,-0.453,0.19c-0.176,0,-0.334,-0.063,-0.474,-0.19c-0.137,-0.128,-0.204,-0.284,-0.204,-0.472l0,0l0,-1.104l0,-0.021c0.002,-0.176,0.066,-0.324,0.192,-0.451c0.128,-0.129,0.276,-0.191,0.448,-0.191c0.197,0,0.359,0.063,0.49,0.191c0.125,0.125,0.19,0.281,0.194,0.472L9.297,35.684L9.297,35.684z" stroke="black" fill="black"/>
      <path stroke-width="0.2" d="M11.832,33.419c-0.316,0,-0.589,0.112,-0.813,0.336c-0.226,0.224,-0.336,0.495,-0.336,0.812999l0,1.123c0,0.315,0.111,0.589,0.336,0.812999c0.223,0.225,0.494,0.335,0.813,0.335s0.58,-0.108,0.788,-0.33c0.245,-0.26,0.366,-0.532,0.366,-0.816999l0,-0.271l-0.488,0.218l0,0.043c-0.003,0.189,-0.068,0.348,-0.195,0.471c-0.131,0.13,-0.281,0.192,-0.453,0.192c-0.195,0,-0.356,-0.0649999,-0.484,-0.196c-0.129,-0.131,-0.193,-0.295,-0.193,-0.486l1.814,-0.808999l0,-0.287c0,-0.33,-0.112,-0.602,-0.338,-0.812999C12.409,33.531,12.137,33.419,11.832,33.419zM11.172,35.127l0,-0.55c0,-0.002,0,-0.00699999,0,-0.011c0,-0.178,0.064,-0.332,0.191,-0.461c0.129,-0.129,0.279,-0.191,0.449,-0.191c0.196,0,0.358,0.063,0.49,0.191c0.118,0.117,0.182,0.262,0.191,0.433L11.172,35.127z" stroke="black" fill="black"/>
      <path stroke-width="0.2" d="M15.848,33.755c-0.228,-0.224,-0.5,-0.335,-0.815,-0.335c-0.317,0,-0.589,0.111,-0.813,0.335c-0.224,0.224,-0.335,0.495,-0.335,0.812999l0,2.271l0.489,-0.214l0,-2.05c0,-0.002,0,-0.005,0,-0.00899999c0,-0.182,0.064,-0.332,0.195,-0.459c0.133,-0.131,0.291,-0.194,0.473,-0.194c0.177,0,0.331,0.063,0.462,0.192c0.125,0.123,0.19,0.278,0.195,0.47l0,2.264l0.489,-0.214l0,-2.059C16.186,34.25,16.073,33.979,15.848,33.755z" stroke="black" fill="black"/>
     </g>
    </g>
   </g>
  </g>
 </g>
 <g partID="854469340">
  <g transform="translate(46.8972,2.35454)">
   <g transform="matrix(-1, 0, 0, 1, 42.3462, 0)">
    <g _flipped_="1" id="silkscreen0">
     <text stroke-width="0" xmlns:xml="http://www.w3.org/XML/1998/namespace" font-family="OCRA" id="label" x="21.1731" y="1.81483" font-size="2.01648" fill="black" text-anchor="middle" xml:space="preserve">CERN OHL v1.2 lisence</text>
    </g>
   </g>
  </g>
 </g>
 <g partID="854465520">
  <g transform="translate(29.1134,18.1922)">
   <g transform="matrix(0,-1,1,0,0,0)">
    <g transform="matrix(1, 0, 0, 1, -2.69291, -1.04232)">
     <g id="copper0">
      <g gorn="0.3.0.0.0" style="display:inline">
       <g transform="rotate(-90)">
        <g>
         <g>
          <circle stroke-width="2.13732" stroke="white" id="connector0pin" gorn="0.3.0.0.0.0.0.0" cx="-8.1998" cy="5.90551" stroke-opacity="1" fill="white" style="display:inline;stroke-miterlimit:4;stroke-dasharray:none;" r="1.55906"/>
         </g>
        </g>
       </g>
       <g transform="rotate(-90)">
        <g>
         <g>
          <circle stroke-width="2.13732" stroke="white" id="connector2pin" gorn="0.3.0.0.0.1.0.0" cx="-22.373" cy="5.90551" stroke-opacity="1" fill="white" style="display:inline;stroke-miterlimit:4;stroke-dasharray:none;" r="1.55906"/>
         </g>
        </g>
       </g>
       <g transform="rotate(-90)">
        <g>
         <g>
          <circle stroke-width="2.13732" stroke="white" id="connector1pin" gorn="0.3.0.0.0.2.0.0" cx="-15.2864" cy="5.90551" stroke-opacity="1" fill="white" style="display:inline;stroke-miterlimit:4;stroke-dasharray:none;" r="1.55906"/>
         </g>
        </g>
       </g>
      </g>
     </g>
    </g>
   </g>
  </g>
 </g>
 <g partID="854460300">
  <g transform="translate(54.7509,74.7395)">
   <g transform="matrix(0,1,-1,0,0,0)">
    <g id="copper0">
     <circle stroke-width="2.16" stroke="white" id="connector0pin" cx="5.04" cy="5.04" fill="white" r="2.088"/>
     <circle stroke-width="2.16" stroke="white" id="connector1pin" cx="5.04" cy="12.24" fill="white" r="2.088"/>
     <circle stroke-width="2.16" stroke="white" id="connector2pin" cx="5.04" cy="19.44" fill="white" r="2.088"/>
    </g>
   </g>
  </g>
 </g>
 <g partID="854461940">
  <g transform="translate(16.2621,30.1655)">
   <g transform="matrix(0,1,-1,0,0,0)">
    <g transform="matrix(1, 0, 0, 1, -3.11811, 0.425196)">
     <g id="copper0">
      <g gorn="0.3.0.0.1" style="display:inline">
       <g id="copper1" gorn="0.3.0.0.1.0" style="display:inline">
        <ellipse stroke-width="2.13844" stroke="white" id="connector0pad" gorn="0.3.0.0.1.0.0" cx="5.66929" cy="2.12598" stroke-opacity="1" fill="white" style="stroke-linecap:round;stroke-linejoin:round;stroke-miterlimit:4;stroke-dasharray:none;" rx="1.84196" ry="1.84196"/>
        <circle stroke-width="2.13027" stroke="white" id="connector3pad" gorn="0.3.0.0.1.0.1" cx="21.9685" cy="9.2126" stroke-opacity="1" fill="white" style="display:inline;stroke-linecap:round;stroke-linejoin:round;stroke-miterlimit:4;stroke-dasharray:none;" r="1.42085"/>
        <ellipse stroke-width="2.13027" stroke="white" id="connector1pad" gorn="0.3.0.0.1.0.2" cx="9.2126" cy="9.2126" stroke-opacity="1" fill="white" style="display:inline;stroke-linecap:round;stroke-linejoin:round;stroke-miterlimit:4;stroke-dasharray:none;" rx="1.42085" ry="1.42085"/>
        <ellipse stroke-width="2.13844" stroke="white" id="connector2pad" gorn="0.3.0.0.1.0.3" cx="25.5118" cy="2.12599" stroke-opacity="1" fill="white" style="display:inline;stroke-linecap:round;stroke-linejoin:round;stroke-miterlimit:4;stroke-dasharray:none;" rx="1.84196" ry="1.84196"/>
       </g>
      </g>
     </g>
    </g>
   </g>
  </g>
 </g>
 <g partID="854462360">
  <g transform="translate(68.7597,55.1079)">
   <g transform="matrix(0,-1,1,0,0,0)">
    <g transform="matrix(1, 0, 0, 1, -3.11811, 0.425196)">
     <g id="copper0">
      <g gorn="0.3.0.0.1" style="display:inline">
       <g id="copper1" gorn="0.3.0.0.1.0" style="display:inline">
        <ellipse stroke-width="2.13844" stroke="white" id="connector0pad" gorn="0.3.0.0.1.0.0" cx="5.66929" cy="2.12598" stroke-opacity="1" fill="white" style="stroke-linecap:round;stroke-linejoin:round;stroke-miterlimit:4;stroke-dasharray:none;" rx="1.84196" ry="1.84196"/>
        <circle stroke-width="2.13027" stroke="white" id="connector3pad" gorn="0.3.0.0.1.0.1" cx="21.9685" cy="9.2126" stroke-opacity="1" fill="white" style="display:inline;stroke-linecap:round;stroke-linejoin:round;stroke-miterlimit:4;stroke-dasharray:none;" r="1.42085"/>
        <ellipse stroke-width="2.13027" stroke="white" id="connector1pad" gorn="0.3.0.0.1.0.2" cx="9.2126" cy="9.2126" stroke-opacity="1" fill="white" style="display:inline;stroke-linecap:round;stroke-linejoin:round;stroke-miterlimit:4;stroke-dasharray:none;" rx="1.42085" ry="1.42085"/>
        <ellipse stroke-width="2.13844" stroke="white" id="connector2pad" gorn="0.3.0.0.1.0.3" cx="25.5118" cy="2.12599" stroke-opacity="1" fill="white" style="display:inline;stroke-linecap:round;stroke-linejoin:round;stroke-miterlimit:4;stroke-dasharray:none;" rx="1.84196" ry="1.84196"/>
       </g>
      </g>
     </g>
    </g>
   </g>
  </g>
 </g>
 <g partID="854463420">
  <g transform="translate(25.4109,40.6835)">
   <g id="copper0">
    <g id="copper1">
     <!-- <rect width="55" x="10" y="15.5" fill="none" height="55" stroke="rgb(255, 191, 0)" stroke-width="20" />  -->
     <circle stroke-width="2.16" stroke="white" id="connector0pin" cx="2.7" cy="3.096" fill="white" r="1.98"/>
     <circle stroke-width="2.16" stroke="white" id="connector1pin" cx="31.5" cy="3.096" fill="white" r="1.98"/>
    </g>
   </g>
  </g>
 </g>
 <g partID="854452950">
  <g transform="translate(69.1509,24.3395)">
   <g transform="matrix(0,1,-1,0,0,0)">
    <g id="copper0">
     <circle stroke-width="2.16" stroke="white" id="connector0pin" cx="5.04" cy="5.04" fill="white" r="2.088"/>
     <circle stroke-width="2.16" stroke="white" id="connector1pin" cx="5.04" cy="12.24" fill="white" r="2.088"/>
     <circle stroke-width="2.16" stroke="white" id="connector2pin" cx="5.04" cy="19.44" fill="white" r="2.088"/>
     <circle stroke-width="2.16" stroke="white" id="connector3pin" cx="5.04" cy="26.64" fill="white" r="2.088"/>
     <circle stroke-width="2.16" stroke="white" id="connector4pin" cx="5.04" cy="33.84" fill="white" r="2.088"/>
     <circle stroke-width="2.16" stroke="white" id="connector5pin" cx="5.04" cy="41.04" fill="white" r="2.088"/>
     <circle stroke-width="2.16" stroke="white" id="connector6pin" cx="5.04" cy="48.24" fill="white" r="2.088"/>
    </g>
   </g>
  </g>
 </g>
 <g partID="854448100">
  <g transform="translate(31.2069,48.2795)">
   <g transform="matrix(0,1,-1,0,0,0)">
    <g id="copper0">
     <g id="copper1">
      <!-- <rect width="55" x="10" y="15.5" fill="none" height="55" stroke="rgb(255, 191, 0)" stroke-width="20" />  -->
      <circle stroke-width="2.16" stroke="white" id="connector0pin" cx="2.7" cy="3.096" fill="white" r="1.98"/>
      <circle stroke-width="2.16" stroke="white" id="connector1pin" cx="31.5" cy="3.096" fill="white" r="1.98"/>
     </g>
    </g>
   </g>
  </g>
 </g>
 <g partID="854437260">
  <g transform="translate(60.0069,48.2795)">
   <g transform="matrix(0,1,-1,0,0,0)">
    <g id="copper0">
     <g id="copper1">
      <!-- <rect width="55" x="10" y="15.5" fill="none" height="55" stroke="rgb(255, 191, 0)" stroke-width="20" />  -->
      <circle stroke-width="2.16" stroke="white" id="connector0pin" cx="2.7" cy="3.096" fill="white" r="1.98"/>
      <circle stroke-width="2.16" stroke="white" id="connector1pin" cx="31.5" cy="3.096" fill="white" r="1.98"/>
     </g>
    </g>
   </g>
  </g>
 </g>
</svg>
