<?xml version='1.0' encoding='UTF-8' standalone='no'?>
<!-- Created with Fritzing (http://www.fritzing.org/) -->
<svg xmlns="http://www.w3.org/2000/svg" baseProfile="tiny"  x="0in" y="0in" version="1.2" height="1.1811in" xmlns:svg="http://www.w3.org/2000/svg" viewBox="0 0 85.0392 85.0392" width="1.1811in">
 <g transform="matrix(-1, 0, 0, 1, 85.0392, 0)">
  <g partID="854434920">
   <g transform="matrix(1, 0, 0, 1, -2.12598, 1.79232)">
    <g id="board">
     <g style="display:inline">
      <rect stroke-width="0.5" stroke="black" id="boardoutline" x="2.12598" y="-1.79232" height="85.0392" fill="none" width="85.0392" ry="2.66453e-15"/>
     </g>
    </g>
   </g>
  </g>
  <g partID="854460302">
   <g transform="translate(54.7509,74.7395)">
    <g transform="matrix(0,1,-1,0,0,0)">
     <g  id="copper1">
      <g  id="copper0">
       <circle stroke-width="2.16" stroke="black"  id="connector0pin" cx="5.04" cy="5.04" fill="black" r="2.088"/>
       <circle stroke-width="2.16" stroke="black"  id="connector1pin" cx="5.04" cy="12.24" fill="black" r="2.088"/>
       <circle stroke-width="2.16" stroke="black"  id="connector2pin" cx="5.04" cy="19.44" fill="black" r="2.088"/>
      </g>
     </g>
    </g>
   </g>
  </g>
  <g partID="854461942">
   <g transform="translate(16.2621,30.1655)">
    <g transform="matrix(0,1,-1,0,0,0)">
     <g transform="matrix(1, 0, 0, 1, -3.11811, 0.425196)">
      <g id="copper1">
       <g gorn="0.3.0.0.1.0" style="display:inline">
        <ellipse stroke-width="2.13844" stroke="black" id="connector0pad" gorn="0.3.0.0.1.0.0" cx="5.66929" cy="2.12598" stroke-opacity="1" fill="black" style="stroke-linecap:round;stroke-linejoin:round;stroke-miterlimit:4;stroke-dasharray:none;" rx="1.84196" ry="1.84196"/>
        <circle stroke-width="2.13027" stroke="black" id="connector3pad" gorn="0.3.0.0.1.0.1" cx="21.9685" cy="9.2126" stroke-opacity="1" fill="black" style="display:inline;stroke-linecap:round;stroke-linejoin:round;stroke-miterlimit:4;stroke-dasharray:none;" r="1.42085"/>
        <ellipse stroke-width="2.13027" stroke="black" id="connector1pad" gorn="0.3.0.0.1.0.2" cx="9.2126" cy="9.2126" stroke-opacity="1" fill="black" style="display:inline;stroke-linecap:round;stroke-linejoin:round;stroke-miterlimit:4;stroke-dasharray:none;" rx="1.42085" ry="1.42085"/>
        <ellipse stroke-width="2.13844" stroke="black" id="connector2pad" gorn="0.3.0.0.1.0.3" cx="25.5118" cy="2.12599" stroke-opacity="1" fill="black" style="display:inline;stroke-linecap:round;stroke-linejoin:round;stroke-miterlimit:4;stroke-dasharray:none;" rx="1.84196" ry="1.84196"/>
       </g>
      </g>
     </g>
    </g>
   </g>
  </g>
  <g partID="854462362">
   <g transform="translate(68.7597,55.1079)">
    <g transform="matrix(0,-1,1,0,0,0)">
     <g transform="matrix(1, 0, 0, 1, -3.11811, 0.425196)">
      <g id="copper1">
       <g gorn="0.3.0.0.1.0" style="display:inline">
        <ellipse stroke-width="2.13844" stroke="black" id="connector0pad" gorn="0.3.0.0.1.0.0" cx="5.66929" cy="2.12598" stroke-opacity="1" fill="black" style="stroke-linecap:round;stroke-linejoin:round;stroke-miterlimit:4;stroke-dasharray:none;" rx="1.84196" ry="1.84196"/>
        <circle stroke-width="2.13027" stroke="black" id="connector3pad" gorn="0.3.0.0.1.0.1" cx="21.9685" cy="9.2126" stroke-opacity="1" fill="black" style="display:inline;stroke-linecap:round;stroke-linejoin:round;stroke-miterlimit:4;stroke-dasharray:none;" r="1.42085"/>
        <ellipse stroke-width="2.13027" stroke="black" id="connector1pad" gorn="0.3.0.0.1.0.2" cx="9.2126" cy="9.2126" stroke-opacity="1" fill="black" style="display:inline;stroke-linecap:round;stroke-linejoin:round;stroke-miterlimit:4;stroke-dasharray:none;" rx="1.42085" ry="1.42085"/>
        <ellipse stroke-width="2.13844" stroke="black" id="connector2pad" gorn="0.3.0.0.1.0.3" cx="25.5118" cy="2.12599" stroke-opacity="1" fill="black" style="display:inline;stroke-linecap:round;stroke-linejoin:round;stroke-miterlimit:4;stroke-dasharray:none;" rx="1.84196" ry="1.84196"/>
       </g>
      </g>
     </g>
    </g>
   </g>
  </g>
  <g partID="854463422">
   <g transform="translate(25.4109,40.6835)">
    <g  id="copper1">
     <!-- <rect width="55" x="10" y="15.5" fill="none" height="55" stroke="rgb(255, 191, 0)" stroke-width="20" />  -->
     <circle stroke-width="2.16" stroke="black"  id="connector0pin" cx="2.7" cy="3.096" fill="black" r="1.98"/>
     <circle stroke-width="2.16" stroke="black"  id="connector1pin" cx="31.5" cy="3.096" fill="black" r="1.98"/>
    </g>
   </g>
  </g>
  <g partID="854452952">
   <g transform="translate(69.1509,24.3395)">
    <g transform="matrix(0,1,-1,0,0,0)">
     <g  id="copper1">
      <g  id="copper0">
       <circle stroke-width="2.16" stroke="black"  id="connector0pin" cx="5.04" cy="5.04" fill="black" r="2.088"/>
       <circle stroke-width="2.16" stroke="black"  id="connector1pin" cx="5.04" cy="12.24" fill="black" r="2.088"/>
       <circle stroke-width="2.16" stroke="black"  id="connector2pin" cx="5.04" cy="19.44" fill="black" r="2.088"/>
       <circle stroke-width="2.16" stroke="black"  id="connector3pin" cx="5.04" cy="26.64" fill="black" r="2.088"/>
       <circle stroke-width="2.16" stroke="black"  id="connector4pin" cx="5.04" cy="33.84" fill="black" r="2.088"/>
       <circle stroke-width="2.16" stroke="black"  id="connector5pin" cx="5.04" cy="41.04" fill="black" r="2.088"/>
       <circle stroke-width="2.16" stroke="black"  id="connector6pin" cx="5.04" cy="48.24" fill="black" r="2.088"/>
      </g>
     </g>
    </g>
   </g>
  </g>
  <g partID="854448102">
   <g transform="translate(31.2069,48.2795)">
    <g transform="matrix(0,1,-1,0,0,0)">
     <g  id="copper1">
      <!-- <rect width="55" x="10" y="15.5" fill="none" height="55" stroke="rgb(255, 191, 0)" stroke-width="20" />  -->
      <circle stroke-width="2.16" stroke="black"  id="connector0pin" cx="2.7" cy="3.096" fill="black" r="1.98"/>
      <circle stroke-width="2.16" stroke="black"  id="connector1pin" cx="31.5" cy="3.096" fill="black" r="1.98"/>
     </g>
    </g>
   </g>
  </g>
  <g partID="854437262">
   <g transform="translate(60.0069,48.2795)">
    <g transform="matrix(0,1,-1,0,0,0)">
     <g  id="copper1">
      <!-- <rect width="55" x="10" y="15.5" fill="none" height="55" stroke="rgb(255, 191, 0)" stroke-width="20" />  -->
      <circle stroke-width="2.16" stroke="black"  id="connector0pin" cx="2.7" cy="3.096" fill="black" r="1.98"/>
      <circle stroke-width="2.16" stroke="black"  id="connector1pin" cx="31.5" cy="3.096" fill="black" r="1.98"/>
     </g>
    </g>
   </g>
  </g>
 </g>
</svg>
